<svg id="Layer_1" data-name="Layer 1" xmlns="http://www.w3.org/2000/svg" viewBox="0 0 229.2 330.44"><defs><style>.cls-1{fill:#e6e7e8}.cls-4{fill:#59595a}</style></defs><path class="cls-1" d="M120.19 151.68a6 6 0 0 0-1.69 0c-1.44.32-2.92.65-4.2 1-.72.17-.92-.25-1.44.12-.52.18-.52.49-.84.84a2.21 2.21 0 0 0 .48 1.44c1.86.41 3.55-.32 5.28-.72h2c.29 0 .56 0 .81-.05a2.93 2.93 0 0 1-.4-2.63zM72.54 94.81v.24c.21-.12.13-.05 0-.24z"/><path class="cls-1" d="M76 73.21a2.89 2.89 0 0 0 .13 1.08c-.43.41-.54 1.13-1 1.56s-1.53.66-1.8 1.44.28 1 0 1.56c-.5.91-1.26 1.86-1.8 2.76-1.3 2.12-2.33 4.39-3.6 6.48-.73 1.18-1 2.71-1.92 3.72-.08.2 0 .11-.12.24-.23-1.2-.23-2.67-.48-3.84-.15-.69.18-1.67-.12-2.16 0-.7-.22-.68-.48-1.08a2.34 2.34 0 0 0-1.2.24c-.19-.32-.37-.37-.6-.6a7.36 7.36 0 0 0-1.44.48c-.51 2.16 1 9.3 1.8 11.16.79.18 1.32.1 1.68-.48h.24c-.16 1.49-1.18 1.85-1.2 3.48a2.23 2.23 0 0 1 .36.48c.43.16.94 0 1.32.24.59.19.77 1.4 1.68.84.77-.28.73-1 1.08-1.68.84-1.66 1.5-3.4 2.28-5.16a86.71 86.71 0 0 1 5.4-10.2c.88-1.45 1.39-3.51 2.76-4.44 1.7-1.17 2.82-.51 4.32.12l2 .36a8.49 8.49 0 0 1 3.24 2.4c-.07.75-.11 1.08.36 1.08-1.54 2.56-2.88 5.16-4.32 7.92a6.69 6.69 0 0 0-.84 1.56c-.11.47.42.65.36.84-.14.35-.53.72-.24 1.2l.12.36c.74 0 .92-.16 1.2-.6h.12a39 39 0 0 0-.36 7.56 2.59 2.59 0 0 1 .48.6c.2.07.11 0 .24.12.91-.15.85-1.1 1.2-1.8 1-2.09 1.79-4.4 2.76-6.6 2.6-5.93 5.53-11.84 8.16-17.88.72-1.68 1.29-3.38 1.92-5 0-.08 0-.15.07-.22a2.27 2.27 0 0 1-2.2-.61c-.32.56-.55 1.24-.84 1.7-1 1.55-2.14 3.12-3.12 4.68a16.38 16.38 0 0 1-1.56 2.64c-.55.46-2.66-.42-3.48-.84-1.66-.92-3.56-1.69-5.22-2.71l-.44-.29a35.59 35.59 0 0 1-6.6-2.51 2.11 2.11 0 0 1-.3-.2zm-12.46 37.68v2.16h.12a2.58 2.58 0 0 0-.12-2.16zm76.8-90.36c2.35.06 1.45-1.28 2.28-2.64a8.14 8.14 0 0 0-.12-2 5 5 0 0 0-1.56-.24.87.87 0 0 1-.48.12c-.61.58-2.63 2.12-1.44 3.6.24.63.79.75 1.32 1.16zm-.12 13.68v-.12a1.77 1.77 0 0 0-.72-.12c.09.08.26.15.36.24zm-14.16-12.12a3.16 3.16 0 0 0 1.56-.24c0-1.89-.8-3.59-2.64-3.6-.3.31-.55.61-.84 1 .11 1.42 1.11 2.06 1.92 2.84zM125.1 43c-.18.41-.13.76-.36 1.08.47.66 1.45.89 2 1.44 1.74 0 2.33-1.35 2.64-2.76a11.59 11.59 0 0 1 4-5.64 6 6 0 0 1 1.56-.72c1.59-.45 3.17.8 4.2-.12h.24a1.53 1.53 0 0 0-.86-.24 4.4 4.4 0 0 0 .51-.18.47.47 0 0 0 .38-.22.81.81 0 0 0 .09-.1.36.36 0 0 0 0-.09.48.48 0 0 0-.22-.69.39.39 0 0 0-.35 0 2.36 2.36 0 0 0-.51.12c-1.72-.09-3.41-.46-5.12-.6-.8-.25-2.62-.46-3.09.48h-.4c-1.24 1.27-2.2 1.9-3 3.72-.57 1.42-1.11 3.03-1.71 4.52zM193 290.17c-.24-.17-2 .46-2.76.48a26.46 26.46 0 0 0-8.16 1.92c-2.19.8-4.64.92-7 1.68-3.13 1-6.37 2-9.48 3-1.88.61-3.69.64-5.64 1.19s-4.29.77-6.36 1.45c-.66.21-1.67.83-2.64.6-4.55-1.12-5.42-7.7-6.72-12.24-1.36-4.75-2.27-10.32-3.6-15-.42-1.46-.39-2.81-.84-4.21-1.57-4.79-3.43-9.6-5.28-14.15-1.21-3-1.58-6.28-2.4-9.61a10.74 10.74 0 0 1 0-3.71 2.37 2.37 0 0 0-.12-.72 6.82 6.82 0 0 0-1.8-.24c-.3.19-.69.09-1.08.24A4 4 0 0 0 127 243c-.68 1.65-.55 6.71 0 8.4.2.62.64 1.32.84 1.92.52 1.56.6 3 1.2 4.44 1.66 4.06 3.4 8.45 4.8 12.72.45 1.39.43 2.74.84 4.2.51 1.81 1 3.82 1.56 5.64l1 5.63c1.39 5 2.4 10.36 4.8 14.29 1 1.57 1.56 3.13 3 4.19a16.8 16.8 0 0 0 6.36 2.52c1.58.36 4.57-.39 5.64-.84.49-.2.88-.74 1.32-.95a22.09 22.09 0 0 1 3.12-.73c2-.54 3.75-.59 5.64-1.19 3-1 6.07-2.12 9.12-2.89l5.16-.24c3.15-.71 6.13-1.19 8.76-2.39a8.64 8.64 0 0 0 4.08-3.72c.58-1.45-.06-3.41-1.24-3.83zM74.58 144.37h.24a1.33 1.33 0 0 0-.24-.36zm-5.4-1.68h.24a1.33 1.33 0 0 0-.24-.36zm20.45-3.89c-.27-.78-.51-1.58-.74-2.37-.28-.45-.57-.88-.87-1.3-.7-1-1.16-2-1.8-3-1-1.57-2.26-3.08-3.24-4.68-.55-.89-.66-2-1.2-2.88-1.35-2.21-4.18-4.89-4.08-8.28 1.4-1.3 4.93-3.83 5-6.12a15.63 15.63 0 0 0-2 .6c-1.94.48-4.22.27-6 .72l-2.4.24c-.88.35-1.13.94-1.92 1.44a7.58 7.58 0 0 0 .72 3.6c.51.11 1.19.22 1.56-.12.88.18 1.23 1.38 1.68 2s1.12 1.32 1.56 2c.76 1.25 1.09 2.64 1.92 3.84.4.58.76.31 1.2.6l.6 1.44c.32.47.86.3 1.2.6s1.3 2.54 1.68 3.12c1.68 2.52 3.45 5.14 5.28 7.56a15.38 15.38 0 0 0 2.22 2.32c-.1-.45-.24-.89-.37-1.33z"/><path class="cls-1" d="M84.66 141.73c-3.7-5.86-7.73-11.31-11.52-17-2.66-4-5-8.37-8.16-11.88-1.55 0-1.31.88-1 1.8-.41.27-1.14.3-1.56.6a13.14 13.14 0 0 0-1.8 2.88c-.64 1.75.11 4.09-.36 6.24-.41 1.84 0 4-.48 6-.38 1.68-.71 3.42-1.2 4.92a8.79 8.79 0 0 1-.84 2.52v.19h-.12c.23-1.2.22-2.7.48-3.84v-1.68c.91-3.93 1.34-10.7.36-14.88l-.12-1.8c-1.44-5.4-2.85-11.18-4.32-16.56-.25-.9-.12-1.55-.36-2.4-.68-2.37-1.21-5-1.92-7.32-.3-1-.31-3.25-.72-4-.19-.57-.57-.73-1.2-.84-.45.32-.76.24-1 .84-.49.81.24 3.9.48 4.68 1.2 4 2.17 8.13 3.48 12.12 2.5 7.65 4.89 20 2.76 29.76-.48 2.18-.16 4.52-.6 6.6L54.9 147c-.21.93.11 2.39-.12 3.48a14 14 0 0 0-.24 2.88c0 .82.42 1.23.24 2-.5 2.25-.68 4.93-1.2 7.32-.39 1.73 0 3.61-.36 5.28v3a9.49 9.49 0 0 0-.36 2.51l.12 1.81c-1.36 6.26-.27 14.29-2.16 20-.37 1.11.41 2 .24 2.89-.38 1.89-.17 4.36-.6 6.36 0 1.43-.08 2.88-.12 4.32-.32 1.46 0 3.18-.36 4.8-.63 2.86-.45 6-1.08 8.76 0 .71-.08 1.44-.12 2.16-1.08 4.75-1 10.5-2.16 15.12l.12 2c-.48 2.2-.57 4.81-1.08 7.08l-.12 2.39c-.32 1.44-.4 3.19-.72 4.57-.57 2.43-.31 5.08-.84 7.43l-.36 4.81c-.82 3.72-.73 7.87-1.56 11.4-.56 2.36-.33 4.75-.84 7.08v1.68c-.92 4.1-.87 8.75-1.8 12.84-.34 1.46-.18 3-.48 4.32-.5 2.2 0 4.57-.48 6.71v4.21c-.26 1.18-.93 3-.48 4.56.11.39.61.57.72.84.22.57-.58 1.55-.12 2.28l.12.11c.72-2.7.79-6.14 1.44-9q.18-2 .36-4.08c.39-1.77.29-3.63.72-5.52.79-3.48 1.1-7.23 1.92-10.67.51-2.17.38-4.44.84-6.49l.12-2.63c.5-2.29.34-5 .84-7.21.46-2.07-.23-4.46.24-6.59.67-3.1.41-6.35 1.08-9.36l.24-4.08c.32-1.44.23-3 .6-4.56.54-2.28 1-4.74 1.44-7.08.16-.91-.63-.81-.48-1.68 1-6.08 1.11-13.29 2.52-19.44l.12-2c.6-2.68.48-5.72 1.08-8.41v-1.67c.63-2.93.06-6.35.72-9.36l.12-3.73c.83-3.8.36-8.28 1.2-12.11.36-1.65 0-3.41.36-4.92l.24-4.56 1.2-10.56c.46-2.11-.23-4.77.24-6.84.51-2.31.77-4.91 1.32-7.2.23-1 0-2 .24-2.88v-5.52a20.05 20.05 0 0 1 .36-2c.15-.48.43-.49.48-1.2 2.42.76 4.12-2.14 6-.6.69-1 .07-3.25.36-4.56.52-2.37.26-4.93.84-7.32a25.42 25.42 0 0 0 .84-4.92h.12c2.58 5.11 6.77 9 10.08 13.44.74 1 1.81 1.81 2.52 2.88.92 1.37 2.28 2.1 3.24 3.36.43.56 1.07 1.46 1.92 1.2h.6a3.12 3.12 0 0 0-.48-.84v-.12a12.76 12.76 0 0 1 1.56 2.16l.12 1.2a4.21 4.21 0 0 0 1.44 1.2h.72c.44.22 1 1.59 1.2 2 .2.07.11 0 .24.12.77 0 .77-.2 1.2-.48 0-1.75-.87-2.43-1.56-3.48-1.45-2.13-3.22-3.98-4.56-6.16zm-16.92-21.24c.58.27 1.73 2.34 2 3a8.8 8.8 0 0 1-2-3zm4.44 7a10.71 10.71 0 0 0-1.2-1.92 4.25 4.25 0 0 1 1.32 1.92z"/><path class="cls-1" d="M69.78 123.61a1.17 1.17 0 0 1 .36.48 1 1 0 0 1-.36-.48zM58.5 313.57c-.34.33-1.1.41-1.56.6-.25 1.2.59 3.76 1.44 4.08.12.09 0 0 .24.11l.24-.24c.52-.68.14-2.15.72-2.76-.08-.64-.35-1-.48-1.67zm4.92-203.04v.24h.12c-.08-.21-.03-.12-.12-.24zm63.72 204.59c-.6-2.41-.5-4.64-1.08-7.08l-2.52-12.23-.48-4.45c-1.14-4.72-1.4-9.8-2.52-14.51-.6-2.52-.2-5.16-.84-7.57-1.89-7.08-3.44-14.55-5.4-21.47-1-3.39-1.09-6.79-2-10.2-1.13-4-2.14-8.34-3.36-12.36-.51-1.68-.48-3.21-1-4.92-.83-3-1.56-6.26-2.4-9.24-2-7.05-3-14.34-4.8-21.48-.34-1.31-.16-2.5-.48-3.84-.68-2.81-.94-5.92-1.68-8.52-1.27-4.46-1.71-10.07-3.84-13.68a4.12 4.12 0 0 0-1-.13c-.25.29-.79.5-.6 1.21.25.92.87 2.23 1.2 3.24l1.08 4.68c2.65 8.77 3.23 19.42 5.76 28.44 1.81 6.44 3 13.21 4.8 19.56.38 1.33.34 2.51.72 3.84 1.29 4.59 2.43 9.38 3.72 13.92 1 3.41 1.09 6.81 2 10.19 2.09 7.46 3.78 15.3 5.64 23 .54 2.28.17 4.64.72 6.84s.51 4.49 1.08 6.71c.63 2.47.83 5.45 1.44 8.05l.24 2.76 2.52 12.35.36 2.89c.79 3.1 1.21 6.54 2 9.48.49 1.74.53 3.37 1.32 4.68a1.68 1.68 0 0 0 1.32-.48 16.47 16.47 0 0 0-.84-4.33c-.4-1.79-.64-3.57-1.08-5.35zM61.38 73.21c.25.66 1.33.73 1.8 1.2.49 0 .73-.08 1-.36a1.92 1.92 0 0 1 .6.72c2 0 3.08-2 4.56-2.88l1.2-.12a29.76 29.76 0 0 0 3.24-2.28c.25.26.34.7.6 1a3.63 3.63 0 0 0 .85.46 2.71 2.71 0 0 1 1.36-1.71 1.79 1.79 0 0 1 .67-1.27 12.28 12.28 0 0 0-1.44-2 39.8 39.8 0 0 1-2.64-5.16c-.54-1.23-1-3.42-1.8-4.32a3 3 0 0 1-1.68.84l.24.24c-.18.07-.06.14-.24 0a1.2 1.2 0 0 0-.72.24 6.12 6.12 0 0 0 .68 2.19A22.12 22.12 0 0 1 71 66c-2.68 2.79-6.85 4-9.72 6.6a1 1 0 0 0 .1.61zm10.56-14h-.12l-.24-1.44c.42.31.31.91.36 1.4zM53.85 87.5c-.05 1.66.81 3.43 1.37 5 .73 2 1.46 4 2.13 6 .29 1.63.66 3.24 1.06 4.86s.78 3 1.28 4.44a6.86 6.86 0 0 0 1.14 3.2 3.81 3.81 0 0 0 1.17 2.29v.12h.24A.5.5 0 0 0 63 113a10.89 10.89 0 0 0-.87-3.87.46.46 0 0 0 0-.26 13.67 13.67 0 0 0-.37-1.5c-.32-1.28-.63-2.56-1-3.84-.15-.55-.34-1.13-.53-1.72a55.47 55.47 0 0 0-.8-3.44.44.44 0 0 0-.18-.25.52.52 0 0 0 0-.25c-1.06-3.7-1.95-7.52-3.72-11a.6.6 0 0 0-1.08.16.51.51 0 0 0-.51.07V87c-.08.2 0 .11-.12.24s0 .15 0 .23z"/><path d="M100.72 202.23c-.25 0-.23 0-.36-.12-1.63-1.52-2.91-3.59-4.68-4.92s-3.77-2.64-5-4.33a17.49 17.49 0 0 0-2.88-3.24 44 44 0 0 1-3.84-3.23l-2.16-2.28-4.24-3.11-1.44-1.45c-2.18-1.64-4.13-3.67-6.36-5.27-.77-.56-2-.81-2-2a1.7 1.7 0 0 0 .12-.84c-.62-.45-.72-.38-1.24-.72-.24 0-.68-1.4-.92-1.44A14.71 14.71 0 0 1 63.4 168c-2.42-1.74-3.9-5.53-4.92-8.63l-.72-3 .12-2.28c-.2-.78-.71-2-1-2.76a7.55 7.55 0 0 1 .36-4.2c.93-2.82 2.44-5.69 6-5.76a11.44 11.44 0 0 1 1.08 1.8l-.12 1.31v7.09a55.64 55.64 0 0 0 2.52 8.16c1.72 4.05 5 7.3 7.56 10.68l3.24 3.11a35.71 35.71 0 0 0 7.08 7.08l2.88 3.13c1.56 1.17 3.18 2.1 4.8 3.24 1.18.83 2.2 1.88 3.36 2.76l.84.95.84.13 1.44.71c.41 3.64 1.73 6.9 1.96 10.71zm-29-17.77c3.25-.09 4.49 1.23 6.6 2.16a49.33 49.33 0 0 1 9.24 5.4c1.13.84 2.1 1.91 3.24 2.76 1.47 1.12 2.39 2.94 3.72 4.21-.29.89 0 2-.24 3-.56 2.51-.28 5.52-.84 8v1.44c-.48 2.18-.1 4.94-.6 7.21v1.79c-.92 2.9-1.06 7.11-1.08 11a5.78 5.78 0 0 0-.84.6 29.4 29.4 0 0 1-1 7.8l-.36 3.48a11.94 11.94 0 0 0-.48 4.92c-1.55 4.59-3.8 9-5.64 13.44-1.27 3-1.88 6.09-3.12 9.11-2.77 6.73-4.42 14.3-7 21.14a57 57 0 0 0-1.91 5.62c-.13.46-.48 1.06-.6 1.45l-.12 2.87-1.08 4.68c-.22.65-.77 1.44-1 2.05-.11.33.09.66.12.84l.36 3.6.48.35a4 4 0 0 1 0 2.05l-.36.11c-1 .65-3.75-.43-4.92-.47-1.49-.06-3-1-4.32-1.32l-5.28-.13a6.43 6.43 0 0 1-3.24-2.16c0-2 1.54-2.55 2.16-3.84l.12-1.19c.25-.9.41-1.9.72-2.89.84-2.76 1.66-5.66 2.4-8.39 0-.53.08-1 .12-1.56.46-1.91.65-4.19 1.08-6.13a2.49 2.49 0 0 0-.12-1l.24-3.36c1.17-5 1.75-9.72 3.12-14.53 1-3.56 1.83-7.17 3-10.68.79-2.37 1.91-4.87 2.64-7.19.5-1.63.39-3.22.84-4.81.54-1.92 1.37-4 1.92-5.75a32.18 32.18 0 0 0-.48-5.16v-12.6c0-7.14 1.6-14.26.12-20.89-.39-1.71 0-3.55-.36-5.16v-2.87a50.22 50.22 0 0 0-.36-7c.71-.33.77-.9 1.32-1.31s1.24-.31 1.75-.69zm34 13.93c1.11.73 1.93 2 3 2.76s2.17 1.28 3.24 2c.81.57 1.48 1.45 2.28 2 3.38 2.5 7.11 4.78 9.36 8.39 2.88 4.63 4.09 10.45 5.76 16.32a58.59 58.59 0 0 0 2.52 7.68 22.42 22.42 0 0 1 1.08 3.37c-.1-.13.7 1.91.62 1.7-.24-.24-5.33 5.08-7-1.58a28.14 28.14 0 0 0-.72-2.88c-.26-.75-1-1.52-1.32-2.29s-.32-1.69-.6-2.63c-.52-1.7-1-3.55-1.56-5.16-.12-.68-.24-1.37-.36-2a27.05 27.05 0 0 0-4.44-8c-.57-.78-1.47-1.4-2-2.16-.85-1.12-1.84-2.1-2.64-3.24-.54-.77-.83-1.84-1.92-2a1.58 1.58 0 0 1-.84.13c-.44-.68-1.14-1.24-1.56-1.92s-.59-1.65-1.08-2.4c-.18-.27-.58-.53-.72-.84a14.24 14.24 0 0 1-.36-2.4 26.72 26.72 0 0 1-.82-4.85zm-40.92 117a1.17 1.17 0 0 1 .72.12 1.3 1.3 0 0 1-.8-.12z" fill-rule="evenodd" fill="#bfbfbf"/><path d="M68 171.67c1.11.3 1.56 1.13 2.16 1.92l.84.72a34.72 34.72 0 0 0 3.12 3.6 53.24 53.24 0 0 0 5.16 4.92l2.16 2.17a9.19 9.19 0 0 0 1.92 1.2l.84.12c.32.27.55.79.84 1.08 1.6 1.6 3.08 3.32 4.68 4.92a38.41 38.41 0 0 1 4 4.2c.43.58 1 .7 1.08 1.68a1.7 1.7 0 0 0-.12.84c-.07 0-.64.49-.72.12v8.4c-.19.32 0 .86-.12 1.32-.41 1.88 0 4.12-.48 6.12-.23 1.06-.13 2.55-.36 3.6v1.8c-.5 2.14-.46 4.79-1 7.08v2.88c-.16.51-.66 1.43-.84 1.92v1.44c0 1-.09 3.6-.48 4.2.13-11.48-.34-25.39-3.36-34.68l-.6-2.88a20.67 20.67 0 0 0-3-6.12 10.4 10.4 0 0 0-2-1.8l-2.16-2.16a15.59 15.59 0 0 0-4.08-2c-1-.29-2-.39-2.88-.6l-2.76.12a1.49 1.49 0 0 1-.84-.8 6.28 6.28 0 0 1 0-3.36c-.61-1-.17-2.45-.48-3.84a35.76 35.76 0 0 1-.52-8.13zm32.64 29.4a2.81 2.81 0 0 1 .24 1.32c-.21.08-.11 0-.24.12-.21-.07-.11 0-.24-.12a1.84 1.84 0 0 1-1-.84 1.72 1.72 0 0 0 1.24-.48z" fill="gray" fill-rule="evenodd"/><path class="cls-4" d="M228.84 327c-2.74-.53-6.39-.13-9.36-.12-1.29.84-4.8-.16-6.6.24-1.56.35-3.92-.15-5.76.24a31.68 31.68 0 0 1-5.88.12H183.6c-.75 0-1.73-.33-2.28 0s-.48.71-.24 1.2c2.56.58 6.27.24 9.24.24 6.25 0 12.65-.12 18.72-.12 2.55 0 4.41-.24 7-.24 1.08 0 2.76.21 3.48-.24h7.08c1.1 0 2.21.25 2.52-.6.1-.12 0 0 .12-.24a2 2 0 0 1-.4-.48zM1.56 328.87c-.22.15-.86.11-1.08.24s-.26.17-.48.36c.06.61.23.59.48 1 1 0 5 .07 5.52-.36l.36-.36a2.17 2.17 0 0 0-.24-.72 26.15 26.15 0 0 0-4.56-.16zm170.76-.96c-.45-.31-1.83-.12-2.52-.12h-34.44a6.43 6.43 0 0 1-2.4-.12h-1.45a2.26 2.26 0 0 1-1 .23c-1 0-2.11.08-3.16.09a2.38 2.38 0 0 1-1.35-.43v.11H87.72c1.06-2.27 0-3.24-1.2-4.56-.3-.32-.47-.83-.84-1.08-1.16-.79-3-.71-4.44-1.2a60.52 60.52 0 0 1-5.88-2.16c-1.65-.73-3.24-2.21-5-2.64.21-.66.92-1.37.6-2.52-.39-1.4-1.88-3.08-1.32-5.28 1-4.1 2.21-8.19 3.48-12.12 1.11-3.41 1.36-7 2.52-10.44.82-2.39 2-4.88 2.76-7.2 1.4-4.16 2.07-8.24 3.72-12.12 2.48-5.82 5.29-11.4 7.32-17.64.46-1.42.22-3 .6-4.56.85-3.48.85-7.59 1.68-11.16l.36-4.68c.74-3.15.48-6.77 1.2-10l.12-2.52a82.85 82.85 0 0 0 1.92-17.28c1 .83 2.4 2.5 3.72 3.48.53.4 1.62.86 1.92 1.44l.24 1.44c.42 1.28.62 2.7 1.08 4.08 1.35 4.1 2 8.78 3.24 13.08.44 1.57.39 3 .84 4.56.89 3.07 1.45 6.39 2.28 9.48l.72 4.2c.86 3 1.22 6.45 2 9.48l.36 2.4c2.18 7.57 3.26 16.1 5.28 23.88.57 2.2.39 4.33 1 6.6.91 3.65 1.19 7.47 2 11 .46 1.93.13 3.67.6 5.52 1.54 6.11 1.88 12.91 3.48 19.08.53 2.05.51 4.61 1 6.72a2.38 2.38 0 0 1 .42-.86 5.38 5.38 0 0 1 .24-.55 1.93 1.93 0 0 1 .45-.57c-.57-2.83-.76-5.92-1.46-8.82-.46-1.93-.45-4.09-1-6.12-1.89-7.42-2.27-15.57-4.08-23l-.24-2.52-1.68-9.48c-.86-3.1-1.34-6.64-2.16-9.84-.33-1.29-.25-2.36-.6-3.6-1.58-5.61-2.39-11.82-4-17.64-.6-2.23-.58-4.37-1.2-6.6-1-3.56-1.63-7.44-2.64-11-.5-1.77-.47-3.39-1-5.16-2.17-7.8-3.7-15.51-5.88-23.28-.92-3.26-.95-6.51-1.8-9.84-1.59-6.24-2.75-12.49-4.44-18.48-1-3.52-1-7.23-2.28-10.32a20.84 20.84 0 0 0-2.16-3.12c-1.52-2.28-2.62-4.62-4.08-7-.74-1.18-1.78-2.31-2.52-3.48-3.71-5.85-7-12-10.92-17.64-1.89-2.68-3.74-5.34-5.64-8-.32-.46-.92-1-1.2-1.44-.67-1.18-.81-2.77-1.44-4l-1.44.12a1.9 1.9 0 0 0-.24.72c-.46-.29-.38-1.25-.6-1.8-.83-2.06-1.2-4.25-1.92-6.48-1.49-4.56-3.19-9-4.68-13.44l-.24-1.44c-.25-.77-.71-1.63-1-2.4s-.08-1.6-.48-2.16c-.29-.41-.67-.43-1.08-.72-.6.12-.67.44-1.08.72a12.37 12.37 0 0 0 1 3.12c.55 1.95.67 4 1.2 5.76.76 2.53.84 5 1.56 7.56l2.23 7.72c.71 2.3 1 6.95 3.12 7.68a2.08 2.08 0 0 0 1.08.24 8.59 8.59 0 0 1-.6 1.92c-.5 1.69-.75 3.44-1.2 5-.55 2-.61 4-1.08 6l-.24 2.4c-.53 1.94-1.17 4.1-1.56 5.76-.48 2.06.12 4 1.32 4.8-.27 1.11-.86 2.73-1.2 4.08-.62 2.48 0 6.75.48 8.64.31 1.15.27 2.48 1 3.24-.15.37-.48.4-.6.72v3.24c-.21 1.38-.15 3-.48 4.44-1 4.68-.51 10-1.56 14.76-.42 1.92-.09 3.89-.48 5.64l-.48 6.72-2.16 18-.12 2.64-.72 4.92c-.51 2.26-.24 4.6-.72 6.72l-.12 2.4c-.64 2.91-.54 6.3-1.2 9.12l-.12 2.4c-.48 2.21-.25 4.89-.72 7l-.12 2.4c-1 4.59-.43 9.87-1.44 14.4l-.36 5.16c-.5 2.16-.33 4.88-.84 7.2v2c-.69 3.16-.72 6.56-1.44 9.6l-.6 5.16c-.46 1.93-.36 4.15-.84 6.24-1.18 5.1-1.19 10.75-2.4 15.84-.54 2.26-.47 4.47-1 6.6-.25 1.09.07 2.37-.48 3.12v.24a4.54 4.54 0 0 1-1.56 0l-.12-.12a44.59 44.59 0 0 1 1.2-10.2l.24-3.12c.64-2.74.69-5.92 1.32-8.64.41-1.75.08-3.36.48-5.16.22-1 .38-2.28.6-3.24l.12-3.12 1.68-10.92.6-10.32c.93-4.22.69-9.12 1.68-13.44.21-.9.06-1.95.24-2.76v-2.4l1.08-7.87.12-2.52c.52-2.33.43-5.07 1-7.44v-1.32c.52-2.36.31-5.17.84-7.56l.12-2.76c.5-2.27.21-5.12.72-7.44v-1.56c.49-2.26.22-5 .72-7.32v-1.8c.33-1.52 0-3.3.36-4.92.3-1.38 0-3 .36-4.56 1-4.48.45-9.76 1.44-14.28l.12-3.84 1-8.4c.15-.66 0-1.64.12-2.16l.12-4.2c.88-3.95.56-8.45 1.44-12.48.41-1.86 0-3.91.36-5.64l.12-6.84c.46-2.11.39-4.52.84-6.6v-3.48a15 15 0 0 0 0-4.92V121c-2.07-9.42-3.61-18.89-6.24-27.6L50 91.84c-.42-1.49-1.52-4.58-1.08-6.6l.6-4.56c0-.6.31-1.42.12-1.8a1.65 1.65 0 0 0-.24-.48l-.72.12c-.21 1-.16 2.37-.48 3.48-.36 1.27-1.14 3.6-.72 5.4 1 4.41 2.08 8.71 3.24 12.84 1.11 3.94 1.6 7.9 2.64 11.76l.48 3.48a37.35 37.35 0 0 1 1.18 6.75 1.37 1.37 0 0 1 .11.36 26.21 26.21 0 0 1 .06 6.91 2.2 2.2 0 0 1 0 .62c-.57 2.69-.37 5.66-1 8.4v2.64a29.61 29.61 0 0 1-.36 5.88l-.36 6.24c-.31 1.37-.13 3-.48 4.56-1.3 5.69-.52 13-1.8 18.72l-.24 5.28c-1 4.42-.46 9.65-1.44 14v2c-.28 1.27 0 2.77-.36 4.2-1 4.39-.19 9.48-1.2 14l-.12 3.36c-.65 2.95-.3 6.43-1 9.36l-.12 2.52c-.43 1.92-.14 4.08-.6 6.12-.35 1.55-.37 3.47-.72 5l-.12 2.52c-1.64 7.33-1 16.15-2.64 23.4l-.84 9.84-.12 3.6c-.73 3.2-.84 6.7-1.56 9.84l-.11 2.95c-.26 1.16-.35 2.51-.6 3.6l-.12 2.28c-.51 2.26-.56 4.92-1.08 7.08-.44 1.85-.32 3.82-.72 5.52l-.48 5c-.26 1.1-.55 2.64-.84 3.72v2.64a5.44 5.44 0 0 0-.12 2.16c.16.48.67.72 1 1.08a10.58 10.58 0 0 0 2.52.12l1-.84c.72-1.13.26-2.52.6-4.08.4-1.8.38-3.69.84-5.64 1.34-5.73 1.33-12 2.64-17.76.54-2.37.3-4.61.84-7 1-4.24 1-8.82 1.92-13.2l.12-4c.52-2.39.43-5.05 1-7.44l.12-2.88c.51-2.32.32-5.11.84-7.44l.12-3c.59-2.7.38-5.77 1-8.4l.24-5c.64-2.91.54-6.19 1.2-9.12l.24-3.48c.82-3.72.62-8 1.44-11.64l.36-5c1-4.64.75-9.89 1.8-14.52l.36-4.92c.27-1.24.06-2.7.36-4.08 1.1-5 .45-10.91 1.56-15.84.5-2.24.25-4.62.72-6.72.17-.74-.09-1.6.24-2.16v-1.8H59c.7 2.93 3.63 5.91 5.52 7.8l2.28 2.28a13.16 13.16 0 0 0 .36 2.4v3.12c.49 2.2.24 4.78.72 7v1.68c.53 2.38.07 5.28.6 7.68v37.68a26 26 0 0 1-.12 4.8 3.73 3.73 0 0 0 .12 1.32 14.46 14.46 0 0 1-.24 4.68A71 71 0 0 1 65 252.31c-.34.82-.9 1.77-1.2 2.64-.88 2.61-1.14 5-1.92 7.8-1.13 4-2.09 8.42-3.24 12.48l-.36 3C57 283.06 56.81 289.1 55.56 294l-.24 2.4c-.54 2.16-1.33 4-1.92 6.12l-.48 4.2c-.49 1.5-1.67 2.33-2 3.84-.55 2.24 1.16 3.11 1.44 4.32.19.51-.51 2.55-.72 3.24-.45 1.49-.63 3-1 4.44v3.12c-.08.55-.91 1.55-.36 2.4v.24h-19c-3.21 0-7.25-.36-10.08.24h-8.12a10.12 10.12 0 0 0-3.12.24l-.36.12c0 .54 0 .89.36 1.08h8.88a25.16 25.16 0 0 0 4.8-.24h24.6c8 0 15.09-.36 23.16-.36h6.84a20.41 20.41 0 0 0 3.72-.12c1.16-.25 2.71.1 3.72-.12h28.44c4.29 0 10.14-.51 13.77.36a6.75 6.75 0 0 1 1.19-.11c.24-.09.46-.19.64-.25h1.92l9.48.12h31a2.51 2.51 0 0 1 .48-.36c-.06-.5-.01-.82-.28-1.01zM60.72 116.23c-1.22-.43-1.49-3.76-1.92-5.16-.79-2.56-1.55-5.37-2.28-7.92-.39-1.36-.33-2.57-.72-4a19.66 19.66 0 0 1-.8-3.32c.74.81.75 2.67 1.2 3.72 1.45 3.36 2.42 7.47 3.6 11 .51 1.55.76 4.31 1.68 5.4v.48a4.06 4.06 0 0 1-.76-.2zm-2.88 23.28c.45-1.76 1-3.44 1.44-5.16l1.2-7.8c1-3.76 1.9-7.28 2.64-11.28.36.39.3 1 .6 1.44s.8.8 1.08 1.2c.58.83 1 1.69 1.56 2.52s1.62 1.81 2.28 2.76c2.91 4.16 5.48 8.51 8.28 12.72 1.65 2.48 2.78 5.85 4.8 7.92v.24c-.39-.13-1 0-1.56-.12-1.91-.44-3.91-.4-5.88-.84h-1.8c-1.1-.25-2.34-.47-3.36-.72l-2.52-.24-2.52-.84c-1.58-.41-5.1-.37-5.64.72-.32-.14-.38-.24-.48-.6a4.11 4.11 0 0 1-.12-1.92zm4.08 25a29 29 0 0 1-3.12-6.6c-.38-1.16-.21-2.83-.84-3.84V150c.33.06.35.15.6 0 2.06 0 7.73.45 8.76-.48a1.93 1.93 0 0 0-.48-1 84.55 84.55 0 0 0-8.76.12c.1-2.31 1.18-3.75 1.56-5.88 3-.54 5.34.44 7.56 1l1.92.12c1 .26 2.33.46 3.48.72l3.48.12a32.8 32.8 0 0 0 6.84 1c.43.84 1.09 1.52 1.56 2.28 1.31 2.1 2.3 4.15 3.6 6.24.8 1.29 2.07 2.46 2.64 4 1.07 2.82 1.06 5.94 1.92 9 1 3.63 1.86 7.46 2.88 11 1.49 5.22 1.83 10.88 3.24 16.08.46 1.71.63 5.25 1.44 6.48v.36a31.32 31.32 0 0 1-4.32-3.84l-1-1.2c-1.24-1-2.14-2.31-3.36-3.24A52.59 52.59 0 0 1 86 188l-3.84-4c-1.39-1.05-2.48-2.45-3.84-3.48a20.91 20.91 0 0 1-3.6-3.36 14.1 14.1 0 0 0-2.52-2.76c-3.72-2.77-7.67-6-10.28-9.93zm1.2 151.68c-.93.36-.95 1.43-1.68 1.92-2.68 1.82-4.67-1-5.16-3.12a9.53 9.53 0 0 1 2.64.36c.53.15.64-.17 1.2 0a8.87 8.87 0 0 0 3 .72zm5.64-.6c-2.46.43-7.22-1.35-9.48-1.92-1.62-.4-5.38.14-6.24-.48a2.72 2.72 0 0 1-.72-2.64c.31-.92 1.41-1.71 1.8-2.64s.11-1.71.36-2.76a34.72 34.72 0 0 1 .72-4c.39-1 1-2.28 1.32-3.36l.36-2.76c.38-1.51.59-3.21 1-4.68l1.08-8.52c.35-1.27.63-2.88 1-4.2l.12-1.8c1-3.81 1.91-8.24 3.12-12 .41-1.26.3-2.44.72-3.72 2.07-6.33 4.4-11.86 6-18.6l.08-18.84v-28.44c-.43-1.84-.07-4.17-.48-6v-1.92c-.33-1.39 0-3-.36-4.56-.28-1.17-.25-2.73-.48-4-.12-.65.2-1 .12-1.32a14.48 14.48 0 0 1-.24-3l1.2 1.2a23.74 23.74 0 0 1 2.4 1.92l1.28 1.45c1.36 1 2.19 2.39 3.48 3.36 4.53 3.42 7.94 8 12.48 11.4 1.49 1.12 2.83 3.37 4.44 4.2a19.32 19.32 0 0 1-.24 4.8l-.12 4.08c-.54 2.42-.64 5.11-1.2 7.44-.73 3.05-.39 6.63-1.08 9.6l-.36 4.56c-.32 1.39-.13 3-.48 4.56-.83 3.67-.83 7.82-1.68 11.4l-.6 4.68c-1.8 6.37-5 12.1-7.44 18-.5 1.21-.58 2.4-1.08 3.6-1 2.48-1.6 5.4-2.52 8.16-.71 2.13-1.64 4.47-2.52 6.6-.94 2.3-1 5-1.8 7.44-1.33 4-2.4 8.57-3.72 12.48-1 3.1-.79 4.78-3 6.84a1.91 1.91 0 0 0 .24.84c.21.08.12 0 .24.12a2 2 0 0 0 1.8-1.2c.6.77.62 2 1.2 2.76a2.43 2.43 0 0 1-.72 1.83zm16.68 10.08a8 8 0 0 1-2-1.08l-.07-.07C79 322.72 74.23 322.16 70 320c-1.1-.56-.13-2.21 1-1.64 4.58 2.37 9.83 2.82 14.5 5a.78.78 0 0 1 .5.64 1.48 1.48 0 0 0 .2.56 1 1 0 0 1-.76 1.07zm56.64-309.04c0-.59 0-.69-.48-.84a1.32 1.32 0 0 0-.72-.12 6.15 6.15 0 0 1-1.92.6c-.08.21 0 .12-.12.24a1.33 1.33 0 0 0 .24.84 6.24 6.24 0 0 0 3-.72zm-1.35 1.89a.43.43 0 0 0-.59.35 1 1 0 0 0-.31.64c0 .71 1 .95 1.48.52a.89.89 0 0 0 .18-.83c-.07-.5-.36-.53-.76-.68z"/><path class="cls-4" d="M188.09 302.2c.84-.31 1.8-.86 2.64-1.2l1.08-.24c1.6-1 2.65-3.29 3.24-5.28a19.55 19.55 0 0 0 .48-7.32c-.48-2.79-3.47-8.12-5.4-9.48a10.18 10.18 0 0 0-3.12-1.2 8 8 0 0 0-3.24.24c-1.51.33-2.88 0-4.32.36-1.84.47-3.87 1.06-5.64 1.56-1.14.32-2.16.11-3.24.48s-2.16.78-3.24 1.08c-.92.26-2 .13-2.76.6H164c-.63-2.69-1.52-5.48-2.28-7.92-.41-1.34-.56-2.91-.84-4.2l.12-1.08c-.05-.16-.45-.44-.48-.48l-.12-1c-.28-.93-.4-1.86-.72-2.88-.68-2.2-1.36-4.5-2-6.72-.61-2-1-4-1.56-5.88a3.16 3.16 0 0 1 0-2.4 1.77 1.77 0 0 0-.24-1.08h-.48c-.46-3.87-1.37-7.64-4.32-9.12-.8-.41-3-1.09-4.2-.36a.87.87 0 0 1-.48-.12 6.78 6.78 0 0 1-.89-2.33l-.06-.13c-.08-.34-1.19-5-1.65-6.26-2.51-6.77-3.79-14.59-6.6-21-1.41-3.2-3.7-6.11-5.64-8.88-4.29-6.12-9-11.58-13.44-17.52-1.43-1.9-3.37-3.5-4.8-5.4-2.5-3.31-5.54-6.29-8-9.6-.65-.86-2.12-3.16-3.24-3.36.74-.47 1.6.26 2.64-.12.52-.18 1-.82 1.32-1.2.53.1.6.34 1 .48a4.44 4.44 0 0 0 1.92 0 6.89 6.89 0 0 0 1.08-1.08c1.23 0 1.62.38 2.88.36.28-.27.73-.4 1-.72s.2-.5.48-.72c.1-1.56-.23-3-.24-4.68a23.32 23.32 0 0 0 4.92-1h.92c0-.51.06-1 .11-1.52a12.64 12.64 0 0 0-1.83.32c-1.86.52-4.19 1-6.12 1.32a9 9 0 0 1-1.08-4.32c.84-.07 1.09.27 1.8.48s4.46-.65 5.16-.84 1.47 0 1.92-.24h.09a1.27 1.27 0 0 1 .72-1.22c-1.7 0-3.23.49-4.9.52-.17-.61-1.67-1.72-2.16-2.16-1.22-1.08-3.34-4.28-6-3.72a19 19 0 0 1-4.2.6c-.37-.39-1-.66-1.32-1.08a31.93 31.93 0 0 1-5-9.12c-.26-.92.4-4.61.6-5.4.67-2.64.73-5.65 1.32-8.16l.24-3c.57-1.71 2.08-3.34 3-4.8.37-.58.47-1.2.84-1.8a29.51 29.51 0 0 0 1.8-2.88 16.61 16.61 0 0 1 .6-1.68c.71-1.16 1.68-2.3 2.4-3.48 1.79-2.93 3.29-6.1 5-9 1-1.74 1.58-3.68 2.64-5.4s2.48-3.58 3.6-5.4c.82-1.32 1.1-2.86 1.92-4.2.6-1 1.44-1.9 2-2.88a50.41 50.41 0 0 0 3-6.84c1.16-2.82 1.43-6.51 2.16-9.6.26-1.1 0-2.28.24-3.24a9.62 9.62 0 0 0-.12-3.24 20.53 20.53 0 0 1 .12-6.12c1-3.73 3.07-7 4.56-10.32a24.56 24.56 0 0 1 3.24.72 9.5 9.5 0 0 0 2.4-.12c.29-.36.82-.58 1.08-1 .4-.58.32-1.43.72-2 .5-.76 1.56-.64 1.32-1.92-.07-.38 0-.72-.12-1 .21-.13.53 0 .84-.12s.4-.36.6-.48a8.51 8.51 0 0 1 .24-2c.15-1 2.14-1.08 3-1.56 0-2-.8-3.25-1.2-5-.8-3.53 1.55-9.1-.48-11.4.21-.75 1.09-.71 1.68-1.08a6.43 6.43 0 0 0 2-1.66c.75-1.5.69-1.93.07-2.81-.75.5-1.69.61-2.1 1h-.12c1.22-.43 1.59-5.86-2.52-6.48a7.64 7.64 0 0 0-3.24.48 11.29 11.29 0 0 1-4.52.24c-4.08-.94-10.1-1.41-13 .72a5.12 5.12 0 0 0-1.56 2.28V6c-.16.38-.73.74-1 1.08a11.15 11.15 0 0 0-1.44 3.67 10.7 10.7 0 0 0 .36 4.2c.35 1.59 0 2.95.36 4.56a17.31 17.31 0 0 1 .24 7.32c-.39 1.75.07 3.84-.84 5-.44.21-2 .07-2.76.36-5.6 2.3-12.59 2.91-18.12 5.28a20.78 20.78 0 0 0-6.72 5.28c-.59.86-1.23 1.59-1.8 2.4-.18.26-.24.77-.48 1l-.72.12c-.47.21-1.08.64-1.56.84-.84.36-1.94.33-2.64.84 0 0-.47 0-.24-.12l.12-.12c-1 .34-2 1-3 1.44-2.93 1.28-5.59 2.31-8.52 3.6a18.27 18.27 0 0 1-3.6 1.68 2.7 2.7 0 0 0 .24 2.16A62.89 62.89 0 0 1 62 59.71c-.63.27-1.3.81-1.92 1.08-4.72 2.07-8.89 3.28-8.88 10.08l1.44.12a7.58 7.58 0 0 1 4-7.32c.88-.46 1.69-.55 2.64-1 3.48-1.48 7.24-3.19 10.68-4.8 1.21 2.45 2.7 4.81 4.08 7.08.61 1 .8 2.4 1.56 3.24 0 .36-.06.41-.24.6-.37 1-2 1-2.88 1.44A35.58 35.58 0 0 0 64.92 75a1.33 1.33 0 0 0 .24.84c1.35-.09 4.7-2.63 5.88-3.36.88-.54 2.12-.65 2.88-1.32H74c-.29 1.1-.16 1.51.84 1.92-.27 1.63-2.2 4.22-3 5.52a22 22 0 0 0-1.08 2.52c-.27.61-.78 1.22-1.08 1.8-.81 1.53-1.43 3.17-2.28 4.56-.52.85-.68 1.93-1.32 2.64v.12H66a15.28 15.28 0 0 0-.24-6c-.22-1 .25-2.56-.24-3.36-.11-.26-.1-.17-.24-.36-.37 0-.56 0-.72.24-.32.45 0 1.4-.12 2a21.73 21.73 0 0 0 .24 3.72c.08.39-.13 1.33 0 2 .3 1.72.36 5.54-1.32 7.32a1.72 1.72 0 0 0 .36.84h1c.34-.16.29-.64.48-1 .8-1.33 1.19-3 1.92-4.44 1-1.89 2.25-3.8 3.12-5.76a53.63 53.63 0 0 1 3-6.36c.76-1.23 1.33-2.61 2-4a6 6 0 0 0 .84-1.56c1.17.21 1.8 1 2.76 1.44 1.34.57 2.43.85 3.72 1.44.76.35 1.54 1.06 2.28 1.44l1.44.48a27.72 27.72 0 0 0 3 2c-.31 1.94-2 3.27-2.88 4.68-1.81 3-3.4 6.1-5.16 8.91-.58.91-1.41 3.79-2 4.32a2.84 2.84 0 0 0 .12 1c1.87 0 2.24-2.84 3-4.08 1.78-2.92 3.32-6.08 5.16-9 1-1.53 2.63-2.93 3.12-4.92a1.63 1.63 0 0 1 1.08.6c.25-.05.23 0 .36-.12.54-.21 1.31-2 1.68-2.52.76-1.1 1.81-2.09 2.52-3.24a34.14 34.14 0 0 1 2-3.6c.33-.4 3.49-1.36 4.2-1.8a1.63 1.63 0 0 0-.24-1 4.2 4.2 0 0 0-2.64.72h-.12a24.49 24.49 0 0 1 1.68-3.36c.21-.38.79-.78.48-1.32-.16-.33-.33-.39-.72-.48a18 18 0 0 0-2 3.36c-1.29 2.13-2.4 4.36-3.72 6.48-.91 1.46-3 3.24-3.48 4.92-2.18-.21-3.41-2-5-2.88-2.58-1.34-5.24-2.39-7.8-3.72-1.13-.59-2.68-.74-3.6-1.56h-.12c.39-.82 1.32-1.38 1.8-2.16 1.35-2.16 2.33-4.27 3.72-6.36 1.21-1.82 2.76-3.57 4-5.4.73-1.1 1-2.45 1.68-3.6 2.81-4.61 5.53-10.78 9.84-13.8 3-2.1 7.42-3 11.28-4.2 1.06-.32 2-.26 3.12-.6 1.49-.46 3.37-.74 4.92-1.32.88-.33 1.43-1 2.64-1 0 3.81 2.35 6.12 4 8.4 1.38 2 2.47 4.28 5.4 4.68-.11 1.15-.86 2.63-.48 4.32.15.67-.06 1.83.12 2.64a9.12 9.12 0 0 1 .36 2.16c-.7 4.41-1 8.92-2.28 12.84-.33 1-.92 2.05-1.32 3a28.27 28.27 0 0 1-2 4.68c-.44.67-1.13 1.35-1.56 2-.77 1.24-1 2.71-1.8 4-1.46 2.39-3.1 4.7-4.56 7.08-.93 1.53-1.34 3.28-2.28 4.8-2.26 3.64-4.26 7.64-6.6 11.16-.88 1.32-1.32 3-2.16 4.32-2 3.22-3.9 6.48-5.76 9.84-.37.67-2.42 4.17-2 4.8.14.39.45.62.84.36.83-.31.81-1.62 1.44-2.16V122h.12c-.43 2-.59 4.42-1.08 6.36-.2.81 0 1.88-.36 2.52v.72h-.12c-.81-3-3.08-6.18-4.32-9-1.35-3.07-2.82-5.87-4.2-8.76-.34-.72-.45-1.45-.84-2.16-.19-.35-.63-.74-.84-1.08-1.1-1.78-1.64-3.78-2.76-5.52-.11-.16-.52-.32-.6-.48s0-.66-.12-.84 0 0-.24-.12c-.2.26-.38.58-.6.84a10.16 10.16 0 0 0 1.44 3.12c1.07 2.15 2.06 4.2 3.12 6.24 1.93 3.72 3.56 7.49 5.28 11.4 1.42 3.24 3.43 6.4 4.8 9.72a42.1 42.1 0 0 0 4.08 7.92c.75 1.13 1.67 2.62 3 3.12 1.39.87 4.21-.84 5.88-.36 2.37.68 3.41 3.2 5.28 4.44-.53.87-1.56-.2-2.16-.36l-1.32.12-.84.6c-.39 1.52.27 6.09 1.68 6.6.24.14.6 0 1.08 0a5.7 5.7 0 0 0 .24 2.52c0 2.85-1.53.88-2.64 1.08a3.18 3.18 0 0 0-2 1.32c-1.17 0-1.65-.94-2.88-.48-.57.22-.82 1-1.32 1.2s-.74-.19-1-.24a2.5 2.5 0 0 0-2.16.72c-1.87-.08-2.55-2.41-3.24-3.72A51.87 51.87 0 0 1 95 154l-1.68-7.8c-.62-1.54-1.87-2.68-2.76-4-1.39-2-2.72-4-4.08-5.88-1.79-2.54-3.46-5-5.28-7.56-.95-1.31-2.19-2.51-3.12-3.84s-1.75-3-2.76-4.44a80 80 0 0 1-4.92-7.2h-1.52c.68 2.35 3 4.68 4.32 6.6 1.44 2.15 2.69 4.38 4.2 6.48.36.5 1 .95 1.32 1.44 1.87 2.55 3.84 5.13 5.64 7.68 1.44 2 3 4.08 4.32 6.12.87 1.3 1.56 3 2.76 4v.12c-.25-.05-.23 0-.36-.12h-1.8c-.41-.27-1.11-2.22-1.44-2.76-1-1.59-2-3.27-3.12-4.8s-2.65-3.1-3.72-4.8c-2-3.21-3.73-6.42-5.88-9.48-1.83-2.6-4.06-5-5.76-7.68-.83-1.32-1.42-3.09-2.16-4.44-1.86.07-.38 2.53 0 3.36 1.13 2.45 3.35 4.91 4.92 7.08 1.91 2.65 4 5.38 5.76 8.16.92 1.46 1.54 3 2.52 4.44 1.1 1.57 2.51 3 3.6 4.56 1.21 1.73 2.27 3.61 3.36 5.4.36.59.45 1.22.84 1.8a7.71 7.71 0 0 1 1 1.32c.93 2.37 1.54 5.07 4.32 5.52.31 2.17 1.68 3.68 2.28 5.52l.12 1.68c.38 1.53.43 3.18.84 4.8 1 4.1 2 8.27 3.12 12.24 1.32 4.65 1.63 9.65 2.88 14.28l.48 3c1.83 6.57 3.21 13.13 5 19.56 1.3 4.56 1.6 9.22 2.88 13.8 2.93 10.48 4.38 22.19 7.2 32.64.3 1.1.19 2 .48 3.12.91 3.57 1.42 7.43 2.4 10.92.67 2.38.49 4.72 1.08 7.2 1 4.38 1.49 9 2.52 13.2l.36 3.72c.53 2.35.76 4.85 1.32 7.08.79 3.14.88 6.39 1.68 9.36.64 2.36.65 4.57 1.32 7 .07.24.13.48.2.73h.83a2.18 2.18 0 0 1 .63.09 57.42 57.42 0 0 0-1.54-6.56c-.51-1.83-.36-3.48-.84-5.4-.7-2.83-1.07-6.15-1.8-9l-.72-6.24c-.9-3.73-1.36-7.75-2.28-11.52l-.6-4.92c-2.49-10.32-3.8-21-6.6-31-.9-3.18-1.09-6.51-1.92-9.6l-.72-4.2c-1.5-5.35-2.3-11.24-3.84-16.68-.6-2.13-.84-4.27-1.44-6.24-.2-.66-.13-1.31-.48-1.8v-.36l3 3a19.13 19.13 0 0 1 3.72 4.2l1.68 1.68a29.68 29.68 0 0 1 3.24 6c1 2.41 1.28 5 2.28 7.44.76 1.84 1.75 3.77 2.52 5.52.43 1 .73 2.14 1.19 3.14h-.09a11.13 11.13 0 0 0 1.35 3c-.23.86-1.26 1.12-1.68 1.8a8.71 8.71 0 0 0-.36 1.68 6.56 6.56 0 0 0 .24 2c.48 2.1.78 3.7 1.32 5.52 1.93 6.38 3.85 12.4 6.12 18.36 1 2.68 1.2 5.37 2 8.28 1.37 4.73 2.58 9.93 4.08 14.52 2.23 6.78 3.2 13.45 10.92 14.76a12.23 12.23 0 0 0 4.2-.6l2.4-.12c1.5-.36 3.05-.62 4.56-1.08 4.25-1.3 9.19-2.31 13.32-3.72 1.2-.41 2.25-.25 3.48-.6 1.74-.49 3.75-.91 5.4-1.44s3.25-.27 4.84-.84zm4.68-16.92a16.74 16.74 0 0 1 1.08 2.16c1.25 4.44-.43 8.92-2.16 11.52h-.12c.14-5.34.1-11.1-.12-16.44a8.42 8.42 0 0 1 1.32 2.76zM85.68 52.27c-1 1.58-1.39 3.41-2.4 4.92-2.17 3.26-4.75 6.37-6.72 9.84A20.61 20.61 0 0 1 75 63.79c-1-1.77-2.18-3.65-3.24-5.4a29.26 29.26 0 0 0-1.32-2.76c.4-.78 3.9-1.84 4.92-2.28 2.45-1 5-2.45 7.44-3.48l1.2-.12.6-.6c1.15-.52 2.54-.49 3.48-1.2h.24c-.77 1.58-1.78 2.91-2.64 4.32zm35.88-13.92l-.48-.24c-.11-.15-1.29-2.77-1.32-2.88-.12-.47 1.14-3.87 1.32-4.56.34-1.26-.17-3.28.48-4.32 0-2 1.18-1.61 1.56-3.12v-5.16l.72-1.2c3.2-.07 3.67 1.39 4.44 3.72.4.09 1.3.26 1.68 0 1.41-.18.75-2 1.56-2.76.23-.2.65-.1 1-.24a6.68 6.68 0 0 0 1-.72c.15-.58.34-1.39.48-2v-1.36l.84-1 4.32-.72c1.3-.29 2.74.13 3.72-.48h.72l.84 2.76a15.16 15.16 0 0 1-.36 4.32c-.51 2.41.33 6.91 1.2 8-.34.65-1.59.44-2.16.84-.95.32-1.12 1.59-1.08 2.88l-.12.12a9.23 9.23 0 0 0-2.64 0c-.38.14-.62.46-.36.84s1.13.62 1.56.84a2.15 2.15 0 0 0 .24.48c-.13.92-.93 1-1.32 1.56s-.16 1.14-.48 1.56-.62.39-.84.72a17.93 17.93 0 0 1-4.56-.72 4.11 4.11 0 0 0-2.28 0c-.39.14-.56.37-.36.72s.36.51.84.6c-1.14 2.63-2.9 5.11-3.6 8-3.53.08-4.97-4.36-6.56-6.48zM93.12 151.87c-1.46-.27-2.31-3.43-2.88-4.8a10.62 10.62 0 0 0 1.8 0c.47 1.25.42 3.62 1.08 4.68zm66.77 119.85c.16 2.72 1.28 5.18 2 7.56.28.86.13 1.87.6 2.52a1.23 1.23 0 0 1-.24.72 8.54 8.54 0 0 1-1.8-.24c-1.81-.41-6.06.39-7.56.72-.81.18-2-.15-2.64.24h-1.56a13.18 13.18 0 0 1 2.64-2.16 17.29 17.29 0 0 0 2.4-2.76c.91-1.2 2.19-2.13 3.12-3.36s2.28-1.94 2.76-3.36zm-36.17-39.93c-.57-1.38-.72-2.74-1.2-4.2-.68-2.06-1.42-4.15-2.28-6.12-1.16-2.65-3.16-4.12-4.68-6.24a12.48 12.48 0 0 0-2.16-2.88c-.2-.14-.41-.09-.6-.24-1.4-1-2.33-2.78-3.72-3.84a5.79 5.79 0 0 1-1.44-1.2l-2.16-8c-.69-2.45-.79-4.78-1.44-7.32-1.76-6.9-2.58-14.31-4.68-20.76l-1.8-8.28v-.36h.12c.44.92 2.2 3.14 3.6 2.16.32.21.17.64.48 1.08.77 1.1 1.82 2 2.64 3.12 3 4 6.62 7.45 9.6 11.4 1.22 1.62 2.87 3 4.08 4.68 1.56 2.11 3.1 4.14 4.68 6.24 2 2.62 4.46 5 6.36 7.68 2.07 3 4 6.05 5.88 9.12a25.86 25.86 0 0 1 1.32 3.12c1.41 3.23 2.45 7.28 3.6 10.8.5 1.53.57 2.92 1.08 4.44l1.8 5.4.24 1.68c.23.71.55 1.47.8 2.27h-.05l.21.55c.05.19.1.37.14.56h.06a10.54 10.54 0 0 1 .69 2.59 10.86 10.86 0 0 0-2.4.84h-1c-2 .73-4.32 1.35-6.48 1.92l-2 .24c-.9.26-2 .72-2.88 1-.59.17-1 0-1.44.24a8.29 8.29 0 0 1-1.13-2.17 50.83 50.83 0 0 0-1.8-5c-.61-1.47-1.44-3.05-2.04-4.52zm5.57 26.49h-.12l-2.4-8.64a5.15 5.15 0 0 1 .48-3.72c.81-1.26 3.86-1.54 5.52-2 1.5-.46 3.34-.59 4.92-1.08 2.47-.76 5.26-1.6 7.68-2.4.93-.31 2.31-.12 3.12-.6a4.58 4.58 0 0 1 3.84 2.28 16.72 16.72 0 0 0 .84 2.16v1c-.19.42-1.06.68-1.44 1l-1.56 1.68c-.55.4-1.09.59-1.68 1a84.23 84.23 0 0 1-12.72 6.84c-1.61.51-5.6 1.28-6.48 2.48zm4.8 13.68c-.88-.44-.86-2.1-1.2-3.12-.66-2-1.53-4.24-2.28-6.24-.37-1-.43-2.36-1.08-3.12a13.68 13.68 0 0 1 2.28-1c1.8-.76 3.79-1.34 5.64-2.16a83.22 83.22 0 0 0 10.8-5.88c1.81-1.14 3.82-2.15 5-3.84.55.33.41 1.23.6 1.92a5.59 5.59 0 0 1 .48 1.92c-.14.69-1 1.47-1.32 2-.54.89-.71 1.81-1.2 2.76a20.13 20.13 0 0 1-5.64 6.48l-2.4 2.4c-1.44 1.09-2.74 2.26-4.2 3.36s-3.87 3.76-5.52 4.32zm3.24 12.48c-1.16-3.56-1.82-7.68-3-11.16 2.78-1.4 4.91-3.95 7.32-5.76 1.83-1.37 3.36-3 5.16-4.32l1.56-1.68a16.54 16.54 0 0 0 3.36-3.48 22.15 22.15 0 0 0 1.56-3.12c.43-.85 1-1.68 1.44-2.52.73.91.69 2.63 1.08 3.84.87 2.69 1.59 5.54 2.4 8.16.42 1.34.48 3.79 1.2 4.8-.37 2.43-2.83 3.86-4.08 5.52-.89 1.18-2.12 2.08-3 3.24a17.06 17.06 0 0 1-3.36 3.48c-1.58 1.14-3.43 1.87-5 3-.73.51-1.39 1.32-2.16 1.8-1.05.65-2.51.63-3.48 1.32-.72-.42-.72-2.28-1-3.12zm4.2 14.88c-1.22-3.29-2-7-3.12-10.44 1.3-.53 3.17-.9 4.32-1.68.65-.44 3.23-2.88 4-2.88a7.41 7.41 0 0 1 .84.24c2 .42 6.54-.34 8.16-.72.75-.18 1.81.11 2.4-.24 1 0 2.49-.17 3.12.24h1.2c-.67 2.52-2.68 4.69-4.08 6.6-1.23 1.68-2.59 3.15-3.84 4.8l-2.64 2.52a17.38 17.38 0 0 1-4.08 3.6 13.58 13.58 0 0 1-1.56.48c-.52.22-1 .77-1.56 1s-.86 0-1.2.24c-1.35-.08-1.55-2.66-1.96-3.76zm28 3.72c-.16.78.12 1.61-.24 2.16-.45.33-1.29.18-1.92.36-1.1.31-3.47.81-4.32 1.44h-.36c.59-1.12 1.61-2.06 2.28-3.12a44.23 44.23 0 0 0 3.72-7.08 9.6 9.6 0 0 0 1-2.64 6.42 6.42 0 0 1 .12 2.4 34.12 34.12 0 0 1-.32 6.44zm-2.53-5.16a31.74 31.74 0 0 1-2.64 4.2c-1.21 1.91-2.3 4.32-4.2 5.52-1.11.71-3.35.61-4.92 1-6.11 1.36-9.47.46-11.76-4.2a26.92 26.92 0 0 0 5.64-2.28 18.82 18.82 0 0 0 4.68-4.44l2-1.92c1.17-1.55 2.59-2.9 3.72-4.44 1.83-2.49 3.27-5.39 4.92-8 1.76-.38 5.61-1 6.84-1.8h.24a29.57 29.57 0 0 1-1.44 6c-1.08 3.57-1.69 7.09-3.08 10.36zm9.48 5.4c-.67.28-1.32.23-2.16.48a21.72 21.72 0 0 1-3.6 1.2c.25-3.25.36-6.89.36-10.56V289c.57-2.45 1.77-5 1.8-7.8 2.91-.41 5.39-1.62 8.4-1.92a55.54 55.54 0 0 1-2.16 14.4c-.95 3.41-1.18 6.89-2.67 9.6zm2.4-.36h-.72c.81-1.73 1-3.72 1.56-5.76.93-3.33 1.46-7 2.28-10.44l.72-7.32v-.24a5.53 5.53 0 0 0 2-.24c3.12 0 3.74.63 5.52 1.8-.34 1.8 0 3.94 0 6v12.48c-2 1.92-5.95 2.17-8.88 3.12-.79.26-1.85.16-2.51.6z"/><path d="M80.88 97.88c-.45-1.71-.45-3.19-1.68-4.08a5 5 0 0 0-2.88-.6c-1 .66-3.23.51-4.56.84-2.39.6-4.94 1-7.2 1.68-1.14.34-2.27.35-3.12 1-1.2.86-1.69 3.23-1.2 5.4.6 2.67 1.23 5.34 1.92 7.8.52 1.86.4 4.08 2.16 4.68a5.38 5.38 0 0 0 2.16.12 26.39 26.39 0 0 0 5.28-.72c3.15-.73 10.07-.66 11.16-3.12.7-1.57 0-4.26-.36-5.76-.56-2.58-1.04-4.82-1.68-7.24zM51.6 234.44a17.53 17.53 0 0 0-4.92-.72c-.37.29-1 .43-1.2.84a6.42 6.42 0 0 0-.24 2.52c-.06 1.18-.68 3.35-.12 4.2.3.46 4.08 1.24 4.92 1.08a3.75 3.75 0 0 0 1.44-.72c.2-.75 1-5.24.84-6a4.67 4.67 0 0 0-.72-1.2zM66.72 79.28c-.42 1.87-1.22 7.22-.24 8.76.21.08.12 0 .24.12 1.09-.07 1.12-1.2 1.56-1.92 1.28-2.08 1.08-4.61 1.8-7.32a7.34 7.34 0 0 0 .36-3.36 5.71 5.71 0 0 0-.72-1.44l-1.2-.12c-.46.58-1.37.85-1.68 1.56-.44.98.16 2.55-.12 3.72zM48.24 86.6c3.43.91 7.7.94 11.28 1.8.84.2 3.92.29 4.44-.12 1.15-.4 1.13-1.72 1.44-3 .24-1 .09-2.16.36-3.36.39-1.76 1-6.48 0-8-.64-1-1.9-.59-3.24-1a41.12 41.12 0 0 0-11.28-1.8c-.55.38-1.35.38-1.8.84-.82.85-.75 2.76-1.08 4.08-.26 1-.47 2.31-.72 3.36l-.12 2.52a7.44 7.44 0 0 0-.24 3.24 5.75 5.75 0 0 0 .96 1.44zm-6.56 241.65a9.93 9.93 0 0 0 .2-3c-.06-.3-.34-.92-.36-1.2-.07-.84.59-2.11 0-2.88-.41-1.17-3.1-1.25-4.68-1.2l-.84.6c-.1.42-.27 1-.36 1.44l.12 1.2c-.1.26-.6.55-.72.84a9.42 9.42 0 0 0-.78 4.17 43.76 43.76 0 0 0 7.42.03zM58.08 109a11.14 11.14 0 0 0-4.92.6c-.24.17-.36.53-.6.72a18.6 18.6 0 0 0 1 5.4c.73 2.75.95 5.48 1.56 8.16a10.6 10.6 0 0 1-.36 4.32v2.28a11.46 11.46 0 0 0-.24 2.4l.6.72a9.55 9.55 0 0 0 2.88.24 39.88 39.88 0 0 1 1.32-5.4c.59-2.21.66-4.62 1.2-6.72.34-1.31.55-2.47.84-3.6.12-.46-.07-1 .12-1.32v-.6a4.67 4.67 0 0 0-1.08-.12 17.91 17.91 0 0 0-2.32-7.08zm58.32 144.76c-.88.64-2.5.26-3.48.84-.37.13-.43.3-.72.48a12.41 12.41 0 0 0 1.44 6.72 8.81 8.81 0 0 0 6-1.32 11.5 11.5 0 0 0-1.56-6.48 5.65 5.65 0 0 0-1.68-.24zm8.16 70.8a5 5 0 0 0-.2 3.23 19.66 19.66 0 0 0 8.45-.26 6.68 6.68 0 0 0-.69-3.33c-.26-.39-.8-.55-1-1.08-.31-1 .06-2.27-.48-3a1 1 0 0 0-.72-.72 3.09 3.09 0 0 0-1.68-.24c-1 .64-2.65.22-3.48 1a1.65 1.65 0 0 0-.72 1.92c.18.61.77 1.66.52 2.48zM97.73 162.29a4.1 4.1 0 0 1-.63-.91 3.11 3.11 0 0 1-.22-.65 2.06 2.06 0 0 1-.4-.45c-.73-1.17-1.32-2.67-1.92-3.84a14.56 14.56 0 0 1-1-3 2.66 2.66 0 0 1-.64-2.25 13.38 13.38 0 0 1-.9-1.12c-.64-1-1-2.79-2.16-3.24a2.22 2.22 0 0 0-1.08-.12c-.8.76-3.72 1.88-4 2.88-.18.74 1.68 2.81 2 3.36 1 1.49 1.51 3.18 2.52 4.68l.6.48a14.72 14.72 0 0 1 1.44 4.08c.46 1.73-.1 4.79 1.2 5.64 1 .68 2-.35 2.76-.6s1.43 0 1.92-.36c1.18-.43.75-2.36.48-3.6.08-.27.05-.65.03-.98zM87.36 110.6a11.66 11.66 0 0 0-.24-5.16l-.36-4.2c-.31-1.37-.6-3.06-1-4.44-.43-1.64-.15-3.53-2-3.72a12.49 12.49 0 0 0-2.28 4.2c-.21.82.75 3.25 1 4 .43 1.43.61 3 1 4.32.16.59 0 1.08.24 1.56l.72.72a29.32 29.32 0 0 1 1.56 3.2 2.72 2.72 0 0 0 1.36-.48zM122 148.76c-.55.37-1.55.16-2.28.36-2.17.6-5 .71-7.08 1.2-1.48.35-2.3-.12-2.76 1.2-.93 1.48.87 4.7 1.32 5.4a6.8 6.8 0 0 0 3.36 0c2.5-.6 8.82-1 10-2.64 1.44-2.12-.34-5.36-2.56-5.52zm.47 4.91a1.49 1.49 0 0 1-1.32-.86 1.56 1.56 0 0 1-.21-.43 1.33 1.33 0 0 1 .1-1 1.35 1.35 0 0 1 1-1 1.44 1.44 0 0 1 1.6.65 1.56 1.56 0 0 1 .15.41v.1a.11.11 0 0 1 0 .05v.19c0 .12 0 .25.05.38a1.43 1.43 0 0 1-1.33 1.51z" fill="#fdb913"/></svg>