<svg xmlns="http://www.w3.org/2000/svg" viewBox="0 0 120 138"><path d="M32 111c.24-.06.49-1 .55-1.22s1.14-.92 1.41-1.24a21.37 21.37 0 0 1 1.36-1.81c1.08-1 2.64-1.4 3.78-2.32a.51.51 0 0 0 .13-.6 2.24 2.24 0 0 0-1-1 .43.43 0 0 0-.11-.12A6.34 6.34 0 0 0 34 102h-.18c-2.47-.52-5.3 0-7.81-.25a.51.51 0 0 0-.54.59c.26 1.13.57 2.26.91 3.37.17.56.35 1.12.53 1.68.08.26.17.52.26.78s.34.52.22.84a1.49 1.49 0 0 0-.21.94A2.37 2.37 0 0 0 28 111c.41.21.79-.08 1.24-.11 0 0 2.76-.89 2.76.11m22.4-8.77a.53.53 0 0 0-.39.89.37.37 0 0 0 0 .18c.36 1.13 1.55 2 2.06 3.16 1 2.12.82 4.36.73 6.62v.64a.66.66 0 0 0 0 .15c0 .24 0 .49-.06.73a7.65 7.65 0 0 0-.16.83v.66c-.17 1.13-.4 2.28-.55 3.36s-.26 2.08-.44 3.11a3.55 3.55 0 0 0-.18 1.51c-.11 1.25-.94 2.51-1.08 3.79s-.52 2.65-.62 3.95a.83.83 0 0 0-.16.87c.23.91 1.15 1 1.94 1a6.71 6.71 0 0 0 1.35-.12h.14c.73-.09 1.44-.33 2.15-.48h.28a6.6 6.6 0 0 1 .9 0 1.33 1.33 0 0 0 .65 0 .49.49 0 0 0 .09-.83v-.05a20.75 20.75 0 0 0 0-4.66c-.09-1.32 0-2.62-.08-3.93.11-1.42-.12-3-.07-4.36a39 39 0 0 0-.1-5.19c.13-1.13.11-2.4.24-3.39a11.27 11.27 0 0 1 2.1-5.45 18.75 18.75 0 0 0 1.44-2.59c.17-.37-.21-.7-.56-.67l-9.53.4" fill="#fff"/><path d="M11.19 107.24l-.26-1.2-.93.96z" fill="#bdbdbd"/><path d="M110.21 70.07a.44.44 0 0 1-.16-.29c-.58-3.38 0-6.93-.15-10.35-.13-3.2-.06-6.4-.22-9.61-.35-7.45-.19-15-.21-22.48a.36.36 0 0 1 0-.11c-2-.75-5.32-.28-5.43 1.6-.91 16 .85 31.94 1.08 47.92 0 3.87 0 7.74-.18 11.61q-.15 3-.43 6c-.07.71.12 1.78-.39 2.43-.79 1-3 .81-4.7.85q-19.6.38-39.25.3-11.16 0-22.33-.22c-3.86-.07-7.71-.14-11.56-.23l-5.39-.14c-1.14 0-4.88-.48-4.52.35-1.17-2.67-8-1.78-6.81.92 1.6 3.67 9.52 3 14.22 3.09q11.57.29 23.11.41 22.73.25 45.42-.09c5.07-.07 13.43.79 17-1.91 1.79-4.1.83-9.15.62-13.33a106.44 106.44 0 0 1 .28-16.72z" fill="#b4b4b4"/><path d="M108.91 98.4c1.88-.13.51-12.29.51-12.29-.56-5-.25-10.22-.38-15.27.08-10.4-.64-49.67-.57-60.07 0 0 0-1.21-.48-1.62a3.43 3.43 0 0 0-1.88-.45c-15.22-.77-30.48-.19-45.7.2s-45.28.61-45.28.61-2.17.24-2.75.87a2.22 2.22 0 0 0-.46 1.54c-.4 11.37-.78 52.45-.86 63.83 0 5.31.15 10.66-.26 16-.11 1.47-.49 8 2.1 8.59a59.46 59.46 0 0 0 9.25.7s58.23-.62 86.76-2.59" fill="#fff"/><path d="M21.51 101.34a61.8 61.8 0 0 1-9.56-.71c-2.81-.64-2.81-5.92-2.57-9 .3-3.8.28-7.69.27-11.47V75.8c.1-13.62.52-53.68.86-63.45a2.45 2.45 0 0 1 .58-1.78c.7-.76 2.8-1 3.21-1.06s30.77-.23 45.94-.6l5.71-.15c13.32-.37 27.1-.76 40.64-.06a4.26 4.26 0 0 1 2.32.58 2.53 2.53 0 0 1 .66 1.94c0 5.16 0 39.09.19 44.17s.44 10.36.4 15.54v5a87 87 0 0 0 .35 10.08c1 8.32.59 12.6-1.08 12.71-28.6 2-87.36 2.57-87.95 2.57zM91.28 9.25c-8.49 0-17 .2-25.29.42l-5.72.15c-15.19.37-45.58.6-45.88.6a5.66 5.66 0 0 0-2.28.66 1.92 1.92 0 0 0-.36 1.28c-.34 9.77-.76 49.82-.85 63.44v4.35c0 3.78 0 7.7-.27 11.53-.35 4.44.35 7.76 1.69 8.07a61.72 61.72 0 0 0 9.19.67c.57 0 59.14-.62 87.73-2.56.78-.77.64-6.63.05-11.72a88.55 88.55 0 0 1-.36-10.14v-5c0-5.18-.18-10.43-.39-15.52s-.23-39-.19-44.21a2 2 0 0 0-.35-1.34 2.94 2.94 0 0 0-1.5-.31c-5.05-.25-10.14-.36-15.23-.37z" fill="#989898"/><path d="M104.32 93l-.45-2.18.78-.16.46 2.17zm-88.81 8.35l.75-.27.75 2.09-.75.27zM8.59 120.2l.82-.29.82 2.28-.82.3zM19 79.8l.75-.27.75 2.09-.75.27zm-8.7 11.84l.75-.27.75 2.09-.75.27zm8.94 1.81l.16-1.26.79.09-.19 1.27zm4.87-4.24l.15-1.27.8.1-.15 1.27zm-9.04-13.92l.15-1.29.8.09-.16 1.27zM15 63.88l.15-1.27.8.1-.21 1.29zm75.07 32.91a.5.5 0 1 1 .09-1 .5.5 0 1 1-.08 1zm17.38-7.51a.5.5 0 0 1 .09-1 .5.5 0 1 1-.08 1zm-7.52-.45a.51.51 0 1 1 .55-.47.5.5 0 0 1-.54.47zm7.52-17.61a.5.5 0 0 1 .09-1 .5.5 0 1 1-.08 1zM101 67.36a.51.51 0 0 1 .08-1 .52.52 0 0 1 .46.54.5.5 0 0 1-.54.47zm-1.06 16.95a.5.5 0 0 1-.46-.54.5.5 0 0 1 1 .07.5.5 0 0 1-.54.47zm7.44-6.52a.51.51 0 1 1 .54-.47.5.5 0 0 1-.53.47z" fill="#fbb715"/><path d="M21.25 72.53l-.25-1.2-.93.92zm-5.71 11.19l-.26-1.2-.93.93zm84.82-7.81l-.26-1.2-.92.92zm5.53 6.77l.26 1.21.93-.93zm-6.71 8.66l.26 1.21.92-.93zm.18 15.18l.27 1.21.92-.93zm6.85 11.38l.29 1.31 1-1zm-6.44-34.57l.26 1.2.93-.92zM101 96.19l.26 1.2.93-.92zm-88.11-9.3l.26 1.2.93-.92zm.59-18.95l.26 1.21.93-.93zm51.21 37.2a.5.5 0 1 1 .7.06.5.5 0 0 1-.7-.06zM31.7 96l-1-.75-.11 1.3zm-10.5-8.66l-1-.75-.11 1.31zm-7.72-10.07l-1-.75-.11 1.31z" fill="#bdbdbd"/><path d="M49.9 104.09a.5.5 0 1 1-.18-.69.51.51 0 0 1 .18.69z" fill="#fbb715"/><path d="M13.74 124l.16-1.32 2.1.32-.16 1.32z" fill="#eeedee"/><path d="M109.2 121a1.92 1.92 0 0 1 0 .45l6 .23c-.09-.45-1.79-11.38-1.85-11.83a13.89 13.89 0 0 1 0-4.27 10.28 10.28 0 0 0 .5-3.61 20.57 20.57 0 0 0-.16-2.08c-.07-.41.29-.87.43-1.33a15.78 15.78 0 0 0 .68-2.89c.06-.55-.1-.86-.48-.95s-.75.25-.88.68c-.19.64-.69 3.7-1.45 3.71-.59 0-.6-6.52-1.72-6.4-1.5.17.78 6.18-.47 5.76s-.8-7-2.17-6.8-.35 5.59 0 6.34c.23 1-.37.75-.52.45-.74-1.46-2.11-5.17-3.11-4.84s-.33 1.87-.17 2.34a33.09 33.09 0 0 0 1.75 3.51c1 1.82.49 2.94 0 3.33a.42.42 0 0 1-.17.1.34.34 0 0 1-.23 0h-.07c-1.14 0-2.4-.6-3.52-.41a.73.73 0 0 0-.25 1.27c1 .31 3.36 1 3.52 1.13.72.43 2.67 1.76 3 1.86a.9.9 0 0 1 .67.82c0 .35.15 2.34.27 4.7.15.88.21 1.78.31 2.61a44.88 44.88 0 0 1 .22 5.68.51.51 0 0 1 0 .22.41.41 0 0 1-.13.22z" fill="#fff"/><path d="M108.78 131.06l-.22-9.54a7 7 0 0 1 7.65-.56l1.36 10.4" fill="#ddd"/><path d="M9 129.06c.67-1.88.38-20.37.38-20.37a4.74 4.74 0 0 0-6 .07s.82 18.17-1.15 18.74" fill="#eeedee"/><path d="M9.46 110.57a3 3 0 0 0-.84-.34 6.8 6.8 0 0 0-.89-.22A6.64 6.64 0 0 0 6 110a7.86 7.86 0 0 0-1.73.38 3.41 3.41 0 0 0-.71.29 1.69 1.69 0 0 0-.48.61 4.46 4.46 0 0 0-.45.71 2.82 2.82 0 0 0-.05.87.39.39 0 0 1 .21.36c0 4.15.44 8.52-.33 12.62a.34.34 0 0 1-.06.15 3.06 3.06 0 0 1-.16.68 22.19 22.19 0 0 1-.44 2.81 5.72 5.72 0 0 1-.46 1.4v.55a.58.58 0 0 1 0 .19l8 1.45a7.47 7.47 0 0 0 .37-2.21c.12-1.34.19-2.69.25-4 .07-1.64.12-3.28.16-4.93s.06-3.25.09-4.88v-3.91c-.03-.91.02-2.02-.75-2.57zm69.36-.74a1 1 0 0 0-.24.73c0 .51-.06 1-.06 1.54 0 1.89-.13 3.86-.31 5.74-.21 2.21-.53 4.41-.76 6.62-.26 2.53-.57 5.06-.71 7.59v.84l8.4-.51.28-4.48.55-9.18c.17-2.71.35-5.43.5-8.15a1.39 1.39 0 0 0 0-.41c-.1-.34-.57-.43-.85-.58a7.29 7.29 0 0 0-1-.42 6.44 6.44 0 0 0-2-.32 7.39 7.39 0 0 0-2 .29 3.34 3.34 0 0 0-1.8.7z" fill="#f5f6f6"/><circle cx="75.46" cy="106.77" r=".33" fill="#767676"/><circle cx="83.96" cy="110.98" r=".51" fill="#767676"/><path d="M65.8 98.5l.2-1.26.8.1-.16 1.26z" fill="#eeedee"/><path d="M97.8 123.65l1.27-.39.62 2-1.27.39zm-32.67 5l-.4-1.83-1.4 1.41z" fill="#fbb715"/><path d="M68 104.61l-.26-1.2-.92.92zm-26.88 22.86a.76.76 0 1 1 1.16-1 .77.77 0 0 1-.09 1.08.76.76 0 0 1-1.07-.09z" fill="#bdbdbd"/><path d="M87 126.31l.16-1.32 2.1.26-.16 1.32z" fill="#eeedee"/><path d="M80.2 104.56l-.26-1.2-.93.92zm-65.61 5.35l.16-1.26.79.1-.15 1.25z" fill="#fbb715"/><path d="M23.29 123.78l1.55-1.44.9 1-1.55 1.43z" fill="#eeedee"/><path d="M53.39 103.28l-1.2.26.92.93zm42.27.47l.53-1.12-1.3.17z" fill="#bdbdbd"/><path d="M59.85 87.5l-1.93-4.74-10.1-.17-2.1 4.67-6-.1 11-22.59 4.73.08L65.77 87.6zm-10-9.38l6.2.1-3-7.24zm32.83-1.46l-.07 3.87-5.91-.1-.1 5.94-3.9-.06.1-6-5.92-.1.12-3.82 5.91.1.1-5.95 3.9.07-.1 6z" fill="#febb12"/><path d="M117 125.13c-.23-1.22-.1-3.43-.92-4.43a1.85 1.85 0 0 0-.94-.57c-.27-1.63-.34-3.28-.6-4.91s-.68-3-.92-4.57a16.15 16.15 0 0 1 .2-5.37 20.53 20.53 0 0 0 .12-3.84 16.46 16.46 0 0 1 .7-3.94c.16-.69.65-2.14.07-2.72-1.27-1.26-2.17 2.39-2.64 4a17.3 17.3 0 0 1-.87-3.78c-.07-.6.11-2.41-.82-2.59-.66-.12-.8.45-.86.93-.2 1.41.56 3.27.18 4.68a17.52 17.52 0 0 1-1.12-5c-.08-.53-.24-1.46-.94-1.48-1.9 0-.71 4.48-.44 6.44a14.85 14.85 0 0 1-1.3-2.78 2.87 2.87 0 0 0-1-1.62c-1.64-1-1.5 1.29-1.26 2.13A14.75 14.75 0 0 0 105 98.4c.59 1.07 1.58 3.39.11 4.22-1.14.64-3.47-1.35-4.17.55a.25.25 0 0 0 0 .21.24.24 0 0 0 0 .19c.31 1.13 2.66 1.25 3.54 1.6a9.54 9.54 0 0 1 3.24 2c.87 1 .67 2 .72 3.21.08 1.7.33 3.44.5 5.13.09.93.22 1.86.28 2.8a8.84 8.84 0 0 1 .06 2.41c-.19.07-.37.16-.56.25a.27.27 0 0 0-.28.12c-.82 1.27-.23 3.69-.14 5.14.11 1.6.21 3.2.33 4.81 0 .38.62.28.59-.11-.1-1.42-.22-2.85-.29-4.28 0-.76-.16-1.51-.18-2.28a9.64 9.64 0 0 1 0-2.57.34.34 0 0 1 .06-.15.14.14 0 0 1 0-.07 1.7 1.7 0 0 1 1.09-.49 8.76 8.76 0 0 1 2.86-.48c1.82 0 3 .06 3.22 2 .37 2.68 1.23 5.33 1.41 8 0 .38.61.28.59-.11a45.3 45.3 0 0 0-.98-5.37zm-14.5-21.07c-.54-.18-1-.38-1-.6v-.06a.64.64 0 0 1 .58-.38.29.29 0 0 0 .24.16c.17 0 .31.17.36.31s-.11.34-.15.55c-.04-.04-.03.01-.03.02zM113.25 120a12.68 12.68 0 0 0-3.36.48 18.87 18.87 0 0 0-.36-4.54c-.22-1.91-.46-3.89-.53-5.8-.06-1.73 0-2.79-1.52-3.94a12.08 12.08 0 0 0-2.39-1.38c-.3-.13-1.23-.31-2.07-.55a.23.23 0 0 0 .07-.14c0 .1.09-.07.11-.1a.61.61 0 0 0 .08-.27 1.09 1.09 0 0 0-.12-.58l-.07-.11c1 .12 2.19.37 2.75 0 1.1-.78.55-2.76.22-3.74a11.83 11.83 0 0 0-.91-1.77c-.21-.41-.49-.88-.67-1.28s-.9-2.62.54-1.62c.33.22.79 1.87 1 2.2a9.66 9.66 0 0 0 1.31 2.27.3.3 0 0 0 .51-.09 3.42 3.42 0 0 0-.17-2.25 7.11 7.11 0 0 1-.35-2.29c0-.28-.09-1.56.09-1.73.5-.5.61.26.64.56.09.67.12 1.32.27 2a12.1 12.1 0 0 0 1.2 3.58c.1.17.39.27.51 0a4.38 4.38 0 0 0 .3-2.38c0-.56-.13-1.1-.17-1.66 0 0-.17-1.39 0-1.55v-.07a.14.14 0 0 1 .2 0 1.37 1.37 0 0 1 .27.91c.06.64.15 1.29.25 1.93l.27 1.56a13.37 13.37 0 0 0 .65 2.18.3.3 0 0 0 .52 0c.55-.93.53-2.23 1.05-3.13.16-.55.23-1.28.8-1.48a.13.13 0 0 1 .18.08 1.39 1.39 0 0 1-.11.9c0 .18 0 .37-.07.55a11.34 11.34 0 0 1-.5 1.88c-.69 2 0 4-.37 6.09a19.35 19.35 0 0 0 0 7.43c.58 2.61.76 5.25 1.18 7.87a7.06 7.06 0 0 0-1.23-.02zm-52.58-17.73c-.37.06-.53.37-.79.6s.06.43.24.27.34-.47.61-.52a.18.18 0 0 0-.06-.35z" fill="#454545"/><path d="M16.12 30h4.19a6 6 0 0 1 4.35 1.49 5.58 5.58 0 0 1 1.54 4.19 5.64 5.64 0 0 1-1.54 4.22 6 6 0 0 1-4.35 1.5h-4.19zm4.06 9.72q3.95 0 3.94-4c0-2.66-1.31-4-3.94-4h-2v8zM28 29.61h2.22v2H28zm.13 11.75v-8.08h2v8.08zm12.02-8.08v7.82a3.74 3.74 0 0 1-1 2.86 4.3 4.3 0 0 1-3 1 6.76 6.76 0 0 1-3.3-.78l.32-1.52a6.3 6.3 0 0 0 2.83.74 1.9 1.9 0 0 0 2.16-2.14v-1.6a2.79 2.79 0 0 1-1.07 1.06 3 3 0 0 1-1.59.41 3.59 3.59 0 0 1-1.88-.5 3.43 3.43 0 0 1-1.28-1.43 5.13 5.13 0 0 1 0-4.2 3.43 3.43 0 0 1 1.28-1.43 3.59 3.59 0 0 1 1.88-.5 3.28 3.28 0 0 1 1.59.37 2.58 2.58 0 0 1 1.07 1.05v-1.21zm-2.55 5.63a2.67 2.67 0 0 0 .57-1.81 2.72 2.72 0 0 0-.56-1.81 2.21 2.21 0 0 0-3.13 0 3.16 3.16 0 0 0 0 3.62 2.2 2.2 0 0 0 3.12 0zm4.58-9.3h2.23v2h-2.23zm.13 11.75v-8.08h2v8.08zM49 34.78v3.62c0 .94.44 1.42 1.33 1.42a2.72 2.72 0 0 0 .8-.13v1.59a4 4 0 0 1-1.28.19 2.79 2.79 0 0 1-2.11-.77 3.07 3.07 0 0 1-.74-2.21v-3.71h-1.52v-1.5H47v-2l2-.67v2.64h2.14v1.5zm10.31 6a4.81 4.81 0 0 1-1.93-2 7.46 7.46 0 0 1 0-6.18 4.79 4.79 0 0 1 1.93-2 5.92 5.92 0 0 1 2.94-.71 6.5 6.5 0 0 1 2.17.36 4.67 4.67 0 0 1 1.68 1l-.67 1.5a5.56 5.56 0 0 0-1.53-.9 4.56 4.56 0 0 0-1.62-.28 3.16 3.16 0 0 0-2.55 1.07 4.61 4.61 0 0 0-.91 3.07 4.72 4.72 0 0 0 .9 3.1 3.14 3.14 0 0 0 2.56 1.08 4.56 4.56 0 0 0 1.62-.28 5.56 5.56 0 0 0 1.53-.9l.67 1.5a4.67 4.67 0 0 1-1.68 1 6.5 6.5 0 0 1-2.17.36 5.82 5.82 0 0 1-2.94-.79zm8.58.58V29.58h2v11.78zm11.91-8.08v8.08h-2v-1.3a2.61 2.61 0 0 1-1.06 1 3.18 3.18 0 0 1-1.56.37 3.49 3.49 0 0 1-1.85-.43 3.38 3.38 0 0 1-1.26-1.45 5.57 5.57 0 0 1 0-4.41 3.57 3.57 0 0 1 1.27-1.51 3.35 3.35 0 0 1 1.86-.53 3.18 3.18 0 0 1 1.56.37 2.61 2.61 0 0 1 1.06 1.05v-1.24zm-2.51 5.95a3.09 3.09 0 0 0 .54-1.94 3.14 3.14 0 0 0-.54-2 1.87 1.87 0 0 0-1.56-.68 1.82 1.82 0 0 0-1.54.71 3.12 3.12 0 0 0-.55 2 2.91 2.91 0 0 0 .55 1.92 1.91 1.91 0 0 0 1.56.68 1.86 1.86 0 0 0 1.54-.69zm4.56-9.62h2.22v2h-2.22zM82 41.36v-8.08h2v8.08zm15.73-7.47a3.92 3.92 0 0 1 .68 2.51v5h-2v-4.9a2.34 2.34 0 0 0-.32-1.38 1.17 1.17 0 0 0-1-.43 1.58 1.58 0 0 0-1.3.59 2.42 2.42 0 0 0-.47 1.6v4.52h-2v-4.9a2.3 2.3 0 0 0-.32-1.42 1.23 1.23 0 0 0-1-.43 1.62 1.62 0 0 0-1.32.59 2.43 2.43 0 0 0-.48 1.6v4.52h-2v-5.8a17.33 17.33 0 0 0-.2-2.28h1.87l.13 1.28a2.53 2.53 0 0 1 1-1.11 3.1 3.1 0 0 1 1.53-.38A2.31 2.31 0 0 1 93 34.6a2.73 2.73 0 0 1 1.09-1.12 3.1 3.1 0 0 1 1.6-.41 2.47 2.47 0 0 1 2.04.82zm2.27 6.57l.57-1.41a4.83 4.83 0 0 0 3 1 2.15 2.15 0 0 0 1.11-.24.74.74 0 0 0 .39-.67.69.69 0 0 0-.27-.58 2.44 2.44 0 0 0-.93-.38l-1.34-.3c-1.48-.32-2.21-1.08-2.21-2.26a2.16 2.16 0 0 1 .41-1.3 2.73 2.73 0 0 1 1.17-.89 4.31 4.31 0 0 1 1.75-.32 5.44 5.44 0 0 1 1.66.26 4.56 4.56 0 0 1 1.41.76l-.6 1.36a4.13 4.13 0 0 0-2.49-.89 1.9 1.9 0 0 0-1.07.25.81.81 0 0 0-.39.71.71.71 0 0 0 .24.56 2 2 0 0 0 .79.35l1.37.3a3.49 3.49 0 0 1 1.76.84 2.06 2.06 0 0 1 .55 1.48 2.09 2.09 0 0 1-.9 1.78 4 4 0 0 1-2.45.65 5.51 5.51 0 0 1-3.53-1.06z" fill="#989898"/><path d="M23 57h-1.82L20 53.87a1.07 1.07 0 0 0-.48-.59 1.76 1.76 0 0 0-.85-.17H17V57h-1.67v-9.3h4a3.64 3.64 0 0 1 2.39.69 2.46 2.46 0 0 1 .82 2 2.55 2.55 0 0 1-.54 1.54 2.65 2.65 0 0 1-1.39.92A1.61 1.61 0 0 1 21.82 54zm-3.89-5.15a2.36 2.36 0 0 0 1.41-.35 1.28 1.28 0 0 0 .45-1.07 1.24 1.24 0 0 0-.45-1 2.32 2.32 0 0 0-1.46-.43H17v2.81zM24.46 57v-9.3h6.19V49h-4.56v2.56h4.28v1.32h-4.28v2.72h4.56V57zm7.73-9.3h4a3.46 3.46 0 0 1 2.33.72 2.75 2.75 0 0 1 0 3.95 3.45 3.45 0 0 1-2.32.72h-2.33V57h-1.68zM36 51.79a2.08 2.08 0 0 0 1.32-.35 1.44 1.44 0 0 0 0-2.08A2.09 2.09 0 0 0 36 49h-2.13v2.79zm6.58 4.7a3.82 3.82 0 0 1-1.53-1.65 5.52 5.52 0 0 1-.54-2.53A5.63 5.63 0 0 1 41 49.8a3.88 3.88 0 0 1 1.53-1.65 4.67 4.67 0 0 1 2.35-.57 4.61 4.61 0 0 1 2.34.57 3.76 3.76 0 0 1 1.53 1.65 6.31 6.31 0 0 1 0 5 3.8 3.8 0 0 1-1.52 1.65 4.51 4.51 0 0 1-2.34.58 4.56 4.56 0 0 1-2.31-.54zm4.34-1.64a3.92 3.92 0 0 0 .72-2.54 3.85 3.85 0 0 0-.72-2.51 2.72 2.72 0 0 0-4 0 3.86 3.86 0 0 0-.72 2.52 3.92 3.92 0 0 0 .72 2.54 2.71 2.71 0 0 0 4 0zM58.65 57h-1.77l-1.18-3.13a1 1 0 0 0-.49-.59 1.7 1.7 0 0 0-.84-.17h-1.68V57H51v-9.3h4a3.65 3.65 0 0 1 2.4.69 2.45 2.45 0 0 1 .81 2 2.55 2.55 0 0 1-.48 1.57 2.65 2.65 0 0 1-1.39.92A1.62 1.62 0 0 1 57.52 54zm-3.89-5.15a2.31 2.31 0 0 0 1.4-.35 1.26 1.26 0 0 0 .46-1.07 1.24 1.24 0 0 0-.45-1 2.32 2.32 0 0 0-1.41-.43h-2.09v2.81zM62.07 57v-7.92h-3V47.7h7.73v1.38h-3V57zm11.25-.51a4 4 0 0 1-1.57-1.66 6.1 6.1 0 0 1 0-5 4 4 0 0 1 1.57-1.65 4.79 4.79 0 0 1 2.38-.58 5.08 5.08 0 0 1 1.76.3 3.76 3.76 0 0 1 1.38.81l-.55 1.22a4.37 4.37 0 0 0-1.24-.73 3.59 3.59 0 0 0-1.32-.2 2.55 2.55 0 0 0-2.07.87 3.76 3.76 0 0 0-.74 2.49 3.81 3.81 0 0 0 .73 2.52 2.53 2.53 0 0 0 2.08.88 3.81 3.81 0 0 0 1.32-.23 4.62 4.62 0 0 0 1.24-.73l.55 1.2a4.06 4.06 0 0 1-1.38.81 5.08 5.08 0 0 1-1.76.29 4.69 4.69 0 0 1-2.38-.61zm13.99.51l-.92-2.18h-4.53L80.93 57h-1.69l4.18-9.26h1.37L89 57zm-4.89-3.48h3.41l-1.7-4zM97.61 57h-1.77l-1.18-3.09a1 1 0 0 0-.49-.59 1.7 1.7 0 0 0-.84-.17h-1.68V57H90v-9.3h4a3.65 3.65 0 0 1 2.4.69 2.46 2.46 0 0 1 .82 2 2.55 2.55 0 0 1-.49 1.57 2.65 2.65 0 0 1-1.39.92A1.62 1.62 0 0 1 96.48 54zm-3.89-5.15a2.31 2.31 0 0 0 1.4-.35 1.26 1.26 0 0 0 .46-1.07 1.24 1.24 0 0 0-.45-1 2.32 2.32 0 0 0-1.41-.43h-2.09v2.81zm5.4-4.15h3.4a4.86 4.86 0 0 1 3.53 1.21 4.48 4.48 0 0 1 1.26 3.4 4.54 4.54 0 0 1-1.26 3.43 4.87 4.87 0 0 1-3.53 1.26h-3.4zm3.3 7.89q3.19 0 3.2-3.28c0-2.16-1.07-3.25-3.2-3.25h-1.63v6.53z" fill="#febb12"/><path d="M85 105.61a17.16 17.16 0 0 1 1.15-2.55.4.4 0 0 1 .1-.17c.71-1.81 1.38-3.52 1-5.49a.51.51 0 0 0-.44-.42h-.2a.54.54 0 0 0-.52.32c-1.1 2.34-1.22.84-1.1-.69a12.07 12.07 0 0 1 .21-1.32 12.17 12.17 0 0 0 .38-1.87c.08-.65-.88-.72-1-.1 0 .25-.12.54-.2.87s-.26.76-.4 1.12v-.33c.15-1 .31-2.06.48-3.08.1-.57-.78-.75-1-.23A40.75 40.75 0 0 0 82.27 96c-.11.46-.28 1.83-.18.56s.4-2.37.48-3.56a.5.5 0 0 0-.91-.33 4.86 4.86 0 0 0-.75 2.17c-.14.59-.16 1.63-.39 2.39a57.84 57.84 0 0 1-.11-3.49c0-.64-1-.74-1-.1 0 2.1 0 4 .12 6.06a17.77 17.77 0 0 0 .41 3 25.66 25.66 0 0 1 .27 5.62.52.52 0 0 0 .7.48.67.67 0 0 0 .24 0 .43.43 0 0 0 .2 0c1-.12 2 0 3-.07a.7.7 0 0 0 .31-.07 14.73 14.73 0 0 1 .34-3.05z" fill="#fff"/><path d="M85.8 109.28a2.92 2.92 0 0 0-.72-.32 29.83 29.83 0 0 1 .33-3.11 14.55 14.55 0 0 1 1-2.6 12.66 12.66 0 0 0 1.32-4.94c0-.73-.09-2.49-1.21-2.19-.37.09-.71.64-.84.94 0 .1-.13.36-.21.61a3 3 0 0 1-.08.43.16.16 0 0 1-.16.12.15.15 0 0 1-.06 0 .44.44 0 0 1-.06-.35v-.06a18.25 18.25 0 0 1 .41-2.94c.11-.66.44-1.52.13-2.17s-.65-.52-1-.26a2.41 2.41 0 0 0-.21-1.54c-.57-.83-1.17.19-1.65 1.45a.76.76 0 0 0-.43-.65c-.69-.3-1 .55-1.15 1s-.28.94-.4 1.42a4.08 4.08 0 0 0-.44-1.46.31.31 0 0 0-.32-.17c-.92.16-1.16 1.56-1.26 2.31a24.3 24.3 0 0 0 .26 4.75c.06.83 0 1.64.07 2.48a20.54 20.54 0 0 0 .55 2.15c.09.46.11 4.59.21 4.57a.3.3 0 0 0-.19.13.23.23 0 0 0 0 .11h-.15a2.15 2.15 0 0 0-.85.73 2.6 2.6 0 0 1-.1.25l.07.08a17.09 17.09 0 0 0-.31 4.18c-.1 1.89-.3 3.8-.57 5.67-.33 2.3-.53 4.58-.76 6.89-.1 1.07-.32 2.12-.43 3.19a28.82 28.82 0 0 1-.19 2.93c-.08.38.52.43.6.06a22.28 22.28 0 0 0 .17-2.71c.08-1 .34-2 .44-3 .2-2.18.41-4.34.67-6.52.19-1.68.37-3.37.57-5 .11-1 .11-2 .17-2.93a8 8 0 0 1 .45-3c.53-.08 1.52-.34 1.75-.36a14.66 14.66 0 0 1 2.48 0c.29 0 .57 0 .83.1l.13.06a.23.23 0 0 0 .18 0 1.94 1.94 0 0 1 1.45 1.73 6.07 6.07 0 0 1 0 1.41c-.19 2.49-.68 5-.63 7.53.08 4-1 7.95-.91 12a.28.28 0 0 0 0 .32l.09.18c.11.25.58.21.57-.1a52.29 52.29 0 0 1 .56-7.9c.38-3 .49-6.11.71-9.18.03-1.96 1.07-5.16-.88-6.32zm-1.3-.47a12.57 12.57 0 0 0-2.8-.07c-.37 0-.88 0-1.39.11a23.7 23.7 0 0 0 0-4c-.07-.85-.38-1.51-.52-2.33-.19-1 0-2.07-.15-3.1a18.72 18.72 0 0 1-.23-4.73 5.51 5.51 0 0 1 .22-.89c.17-.63.29-.77.36-.41.2.09.14 1.09.14 1.12.07 1.08.08 2.14.08 3.22 0 .39.6.45.6.06v-1.16a4.85 4.85 0 0 1 .21-1.45c.11-.45.3-.91.46-1.36.14-.62.39-1.5.66-1.11s-.1 1.53-.24 2.18a.29.29 0 0 1 0 .09c-.06.31-.09.63-.13.94 0 .58-.1 1.17-.16 1.75a.3.3 0 0 0 .6.06c.09-.85.19-1.7.29-2.54a20 20 0 0 0 .77-2.6 3.69 3.69 0 0 1 .36-1c.35-.42.21-.35.31.16a4.52 4.52 0 0 1-.11 1.69.35.35 0 0 0 0 .13c-.09.39-.19.77-.25 1.1a24.63 24.63 0 0 1-.32 2.88c-.12.37.44.58.56.21a6.61 6.61 0 0 0 .18-1.47c.06-.78.23-1.52.36-2.29 0-.08 0-.17.05-.26a.14.14 0 0 0 0-.06 1.4 1.4 0 0 1 .33-.61c.57-.29.37.4.33.63-.07.41-.14.83-.22 1.23-.13.7-.27 1.33-.34 2 0 .38 0 .76.07 1.14v.43c.1.48.36.92 1 .63.28-.13.35-.49.43-.76s0-1.18.35-1.37c.66-.38.68.58.7.88a12.47 12.47 0 0 1-1.59 5.87c-.77 1.73-.72 3.32-.97 5.06zm-26.01-1.68a2.15 2.15 0 0 1-1.07 0 1.37 1.37 0 0 1-.93-.58h-.05a8 8 0 0 0-.45-.93c-.23-.38-.54-.71-.8-1.07a5 5 0 0 1-.54-1c-.11-.25-.16-.52-.29-.76a.81.81 0 0 0-.24-.31.48.48 0 0 0-.33-.08c-.13.05-.14.26-.11.37a3.46 3.46 0 0 0 .18.65 5.36 5.36 0 0 0 .41.79c.13.19.24.39.36.59s.27.38.41.56a6.93 6.93 0 0 1 .75 1.18 9.46 9.46 0 0 1 .66 3.24 38.68 38.68 0 0 1-.66 7.87c-.73 5.09-2.08 10.07-2.84 15.16-.06.38.54.44.6.05.79-5.24 2.15-10.38 2.91-15.64.19-1.32.2-2.64.37-4a17.1 17.1 0 0 0 .25-3.27 13.69 13.69 0 0 0-.29-2.4 2.42 2.42 0 0 0 .35.11 2.75 2.75 0 0 0 1.45 0c.41-.04.28-.66-.1-.53zm5.43-4.05l-.18.4c-.2.42-.41.83-.59 1.26a4.88 4.88 0 0 1-.92 1.42 5.66 5.66 0 0 0-.79.9 5.31 5.31 0 0 0-.46 2.35c-.25 2.46-.32 4.85-.38 7.32-.07 2.68-.08 5.38.07 8.06.07 1.34 0 2.69.08 4a26.81 26.81 0 0 0 .06 4 .43.43 0 0 0 .25.07.53.53 0 0 0 .21-.11 7.12 7.12 0 0 0 .16-2.17c0-1.38-.08-2.76-.08-4.15 0-2.79-.3-5.59-.23-8.39.06-2.53.05-5.08.33-7.6.11-1 0-2.34.55-3.18.35-.54.92-.92 1.29-1.45a4.27 4.27 0 0 0 .44-.85c.14-.35.27-.73.43-1.09s.44-.67.61-1a.83.83 0 0 0 .11-.61v-.07c-.07-.06-.22 0-.3 0a.56.56 0 0 0-.25.18 2.76 2.76 0 0 0-.41.71z" fill="#454545"/><path d="M62.17 123.31a.36.36 0 0 0-.42.58c.89.63-1.24.62-1.14.62-.77 0-1.6.15-2.37.13a9.11 9.11 0 0 1-2.08-.26c-.13 0-2.1-.64-1.41-1.17.37-.28-.1-.82-.46-.54-2.38 1.83 3.1 2.67 4.12 2.67.81 0 6.49-.08 3.76-2.03z" fill="#fdb813"/><path d="M62.2 125.72c-.41-.27-.86.3-.45.57 1 .64-1.35.63-1.24.62-.84.06-1.73.15-2.57.14a10.12 10.12 0 0 1-2.26-.27c-.14 0-2.29-.63-1.53-1.17.4-.28-.11-.81-.51-.53-2.58 1.82 3.37 2.66 4.47 2.66.89 0 7.06-.07 4.09-2.02z" fill="#fdb813"/><path d="M34.52 112.82s-5.18-1.4-9.19.8a18 18 0 0 1 .75-2c2.28-1.49 4.92-.61 7.66-.44z" fill="#bdbdbd"/><path d="M26 133.73v-20.32a7 7 0 0 1 7.66-.43s.14 16.82 1 19.32" fill="#ddd"/><path d="M27.36 116.11c0-.38.61-.44.6 0s-.16 1-.12 1.53c.05.68.3 1.28.31 2 0 1.24-.1 2.46 0 3.7 0 .39-.58.45-.6.06-.06-1.19 0-2.34 0-3.52a14.58 14.58 0 0 0-.27-2 12.26 12.26 0 0 1 .08-1.77zm.4 8.33a.3.3 0 0 1 .33.27v.08a.3.3 0 0 1-.27.32.3.3 0 0 1-.33-.27v-.08a.3.3 0 0 1 .27-.32z" fill="#bdbdbd"/><path d="M39.74 103.55l-.27-.4-.16-.14a2.85 2.85 0 0 0-.6-.5 3.35 3.35 0 0 0-1.52-.35 5.3 5.3 0 0 0-1.12.23 12.52 12.52 0 0 0-2.71 1.42.47.47 0 0 0-.21.21.34.34 0 0 0 .31.41 1 1 0 0 0 .55-.18 11.51 11.51 0 0 1 2.37-1.33 2.27 2.27 0 0 1 2.45.55 1.4 1.4 0 0 0-1.36 1.4 5.47 5.47 0 0 0-2.93 2.06c-.36.51-.64 1.07-1 1.55a2.06 2.06 0 0 1-1.58.85c-.34 0-.83 0-.82.32s.33.34.57.28a1.29 1.29 0 0 1 .72-.08l-.36.52a18.18 18.18 0 0 0-4.42.3c-.06-.49-.11-1-.16-1.46a3.45 3.45 0 0 0 1.53.49c.25 0 .6-.13.52-.37s-.27-.18-.44-.2a3.25 3.25 0 0 1-2.51-2.6c-.19-.72-.4-1.43-.52-2.17-.09-.54 0-1.1-.1-1.65a1.54 1.54 0 0 0-.32-.74c-.34-.4-.3.77-.29.89 0 .36.06.71.11 1a17.61 17.61 0 0 0 .55 2.28c.22.76.46 1.51.66 2.28a20.42 20.42 0 0 1 .38 2.31c-.93 0-1.55 1-1.88 1.83a1.32 1.32 0 0 0-.11 1c.11.31.56.5.78.25-.68 5.37.66 10.83.11 16.21a12.44 12.44 0 0 0-.12 3.44c0 .19.12.42.31.43s.32-.42.26-.7a10.72 10.72 0 0 1 .09-3.48c.55-5.16-.6-10.38-.14-15.54a1.24 1.24 0 0 1 .14-.54 1.1 1.1 0 0 1 .62-.37 11.39 11.39 0 0 1 5.56-.36.89.89 0 0 1 .49.2.93.93 0 0 1 .21.52 25.28 25.28 0 0 1 .09 5.22 87.07 87.07 0 0 0 .82 12.8c0 .19.09.43.28.45s.32-.33.3-.58a102.69 102.69 0 0 1-.84-10.8 40.59 40.59 0 0 0-.12-7.48c.29.18.69-.07.79-.4a1.39 1.39 0 0 0-.19-1 2.19 2.19 0 0 0-1.67-1.33c1.25-2.11 2.7-4.38 5-5.13.48-.15 1-.23 1.45-.41a1.06 1.06 0 0 0 .5-.35 1 1 0 0 0 .07-.76c-.03-.08-.08-.19-.12-.3zm-6.26 7.82h.07a1.86 1.86 0 0 1 .45.75c.1.27 0 .57-.31.45a.13.13 0 0 1-.07-.06h-.07a.3.3 0 0 0-.28-.09 8.33 8.33 0 0 0-2.15-.35 12.43 12.43 0 0 0-4.33.59l-.52.22a.29.29 0 0 0-.27.12c-.25 0-.34-.08-.05-.65.52-1 1.4-1.07 2.51-1.16 1.54-.13 3.54-.55 5.02.18zm5.68-7a.69.69 0 0 1-.27.17 3.17 3.17 0 0 1-.4.14 3.16 3.16 0 0 0-.42.11.53.53 0 0 1 .29-.53 1.36 1.36 0 0 1 .42-.13h.32a.58.58 0 0 0 .11.15.22.22 0 0 1-.05.05z" fill="#454545"/><path d="M9.8 96.63a.5.5 0 0 0-.88.27l-.09.69c0-.14-.05-.28-.06-.41-.1-1.35.23-2.74-.11-4.06a.52.52 0 0 0-.77-.32 12.38 12.38 0 0 0 0-2.11c0-.52-.79-.52-1-.09s-.24.65-.34 1a.47.47 0 0 0-.17.15c-1 1.54-.9 3.58-1 5.34 0 .35-.07.7-.11 1-.49-2-1.13-4-1.74-6-.17-.58-1.06-.45-1 .09a.41.41 0 0 0 0 .16 34 34 0 0 0 .06 4.28 18.83 18.83 0 0 0 .89 3.38c-.24.06-.68-.88-.72-1-.12-.33-.29-.7-.4-1.06a1.5 1.5 0 0 0 0-.22.49.49 0 0 0-.07-.25c-.07-.63-1-.45-1 .18a2.36 2.36 0 0 0 .12.51c.24 2.71 1.46 5.57 2.39 8.06.16.42.2 1.19.59 1.47 1 .76 2.57-.8 3.62.43a.51.51 0 0 0 .85-.15 3.21 3.21 0 0 0 .08-.87 9.24 9.24 0 0 0 .06-1 .51.51 0 0 0 .1-.27c0-1.74.78-3.38.86-5.15.04-1.19.62-3.03-.16-4.05z" fill="#fff"/><path d="M9.49 132.49h.06a.31.31 0 0 0 .25-.27 46.09 46.09 0 0 0 .53-7.79c-.21-3-.06-6.15 0-9.22 0-1.42.53-3.63-.71-4.6a.23.23 0 0 0 .17-.24 2.13 2.13 0 0 0-.49-1.73 1.8 1.8 0 0 0-.19-.2.21.21 0 0 0 .06-.16c.11-1.59.62-3.15.76-4.76s.12-3 .28-4.42c.09-.81.25-2.37-.55-2.93a.81.81 0 0 0-.49-.17 8.36 8.36 0 0 0 0-1.87c-.06-.56-.23-1.7-.92-1.85.14-.71.33-2.28-.51-2.48-1.1-.26-1.88 2-2.11 2.56A6.7 6.7 0 0 0 5 94.72v.3c-.41-2.1-1-4.4-2.06-3.84-.85.45-.6 2.74-.6 3.45 0 .53-.1 1.39-.06 2.17l-.08-.1a.31.31 0 0 0-.36-.08c-1.23.64-.46 3.66-.14 4.64.4 1.24.86 2.45 1.24 3.7A14.6 14.6 0 0 0 4 108.07v.05l-.18.1a.1.1 0 0 1 0 .07 2.83 2.83 0 0 0-.37.33 3.35 3.35 0 0 0-.25.69 2.6 2.6 0 0 0 0 1.37 3.38 3.38 0 0 0-.86 3.18 34.75 34.75 0 0 1 .18 6.14c-.12 1.82-.22 3.65-.51 5.47s-1.17 3.9-1.3 5.87c0 .39.58.44.6.06a31.67 31.67 0 0 1 1.15-5 31.44 31.44 0 0 0 .54-5.2 36.9 36.9 0 0 0 .08-5c-.11-1.62-.8-3.94.58-5.13a1.66 1.66 0 0 0 .52 0c1.22-.25 4.52-1 5.39.38.71 1.11.18 3 .17 4.22 0 2.82-.28 5.66-.06 8.47a28.4 28.4 0 0 1 .06 4M7.07 91.15a.68.68 0 0 1 .12-.26c.27-.4.52-.58.56.11a.17.17 0 0 1 0 .07v.19c-.07.23-.22.5-.48.35a.41.41 0 0 1-.2-.46zm-4 1.42c.11-.36.29-.53.6-.28a.79.79 0 0 1 .16.28.13.13 0 0 1 .06.11.45.45 0 0 1-.56.32.34.34 0 0 1-.28-.43zm-1.37 6c-.19-.3-.18-1.13.26-1.21H2a.1.1 0 0 1 .15 0 1.28 1.28 0 0 1 .14.37.66.66 0 0 1 0 .27.83.83 0 0 1-.06.21.8.8 0 0 1-.35.41.12.12 0 0 1-.2-.05zm.92 3.32a14.33 14.33 0 0 1-.46-1.6 1.94 1.94 0 0 1-.25-1.09.15.15 0 0 1 .09-.1.25.25 0 0 1 .2-.1 2.09 2.09 0 0 0 .14-.17.11.11 0 0 1 .09-.05 1.74 1.74 0 0 0 .11-.18c.19.42.37.86.52 1.29s.6.13.57-.18a.34.34 0 0 0-.07-.16c-.14-.39-.28-.79-.45-1.18-.06-.17-.11-.34-.16-.5a1.71 1.71 0 0 1-.1-.74 17.08 17.08 0 0 1 .06-2.34v-1.34h.06a1.1 1.1 0 0 0 .31.12.65.65 0 0 0 .72-.37c.08.39.15.81.19 1 .1.47.18.94.27 1.41a11.37 11.37 0 0 0 .63 2.77.3.3 0 0 0 .54-.26v-.11a.17.17 0 0 1-.06-.06A3.4 3.4 0 0 1 5.33 96a8.06 8.06 0 0 1 .33-1.68 7 7 0 0 1 1-2.56 1.62 1.62 0 0 1 .1-.18v.1a.56.56 0 0 0 .32.41.68.68 0 0 0 .6-.13c-.22 2.26-1.42 4.32-1.31 6.66a.27.27 0 0 0 .27.14 3.23 3.23 0 0 0 .14-.61v-.63c0-.44.07-.83.1-1s.1-.4.16-.61c.1-.38.21-.75.32-1.13.18-.65.4-1.31.57-2 1 .24 0 6.22 0 6.85a.31.31 0 0 0 .22.3.59.59 0 0 0 .3-.32c.17-.85.19-1.72.34-2.57v-.3a.19.19 0 0 1 .05-.14l.06-.08a.18.18 0 0 1 .17 0c.51.18.49.81.48 1.26A18.54 18.54 0 0 1 9.5 100v.13c-.09.82-.11 1.63-.12 2.45 0 1.86-.61 3.59-.76 5.42a4.13 4.13 0 0 0-1.17-.5 4.53 4.53 0 0 0-2.88.36v-.07c-1.04-1.68-1.31-4.03-1.97-5.9zm6.29 8.34a9.47 9.47 0 0 0-3.56-.14c-.32 0-.63.18-1 .21-.5 0-.56.07-.68-.33a2 2 0 0 1 .16-1 6.69 6.69 0 0 1 2.64-.97 2.46 2.46 0 0 1 2.74 2.29z" fill="#454545"/></svg>