<?xml version="1.0" encoding="utf-8"?>
<!-- Generator: Adobe Illustrator 23.1.0, SVG Export Plug-In . SVG Version: 6.00 Build 0)  -->
<svg version="1.1" id="Layer_1" xmlns="http://www.w3.org/2000/svg" xmlns:xlink="http://www.w3.org/1999/xlink" x="0px" y="0px"
	 viewBox="0 0 650 563.3" style="enable-background:new 0 0 650 563.3;" xml:space="preserve">
<style type="text/css">
	.st0{fill:#F5F5F5;}
	.st1{clip-path:url(#SVGID_2_);}
	.st2{fill:#FFFFFF;}
	.st3{fill:#BBBBBB;}
	.st4{fill:#DDDDDD;}
	.st5{fill:#999999;}
	.st6{fill:#444444;}
	.st7{fill:#FFBB00;}
	.st8{fill-rule:evenodd;clip-rule:evenodd;fill:#DDDDDD;}
	.st9{fill-rule:evenodd;clip-rule:evenodd;fill:#F5F5F5;}
</style>
<title>truck-insurance</title>
<path class="st0" d="M607,316.9c-0.3-6.4-0.6-12.8-1-19.2c-0.2-3.1-0.5-6.2-1-9.2c1.4-8.7,1.3-17.6-0.2-26.3
	c-0.3-1.6-0.7-3.3-1.2-4.9c0-0.4,0-0.8,0-1.2c0.2-10.1-0.5-21.2-4.2-30.7c-3.3-8.5-9.4-15-15.5-21.7c-6.3-6.9-12.7-13.6-21.2-17.8
	c-9.2-4.4-18.7-8.1-28.5-11.1c-4.7-1.5-9.5-2.6-14.2-4.3s-9.2-3.8-13.9-5.4c-10-3.3-20.6-4.7-30.9-7s-20-5.6-30-8.6
	c-9-2.7-18.5-4.6-27.1-8.7c-9-4.3-17.3-10.1-25.9-15.1c-9-5.3-18.3-10.1-27.8-14.4c-9.1-4-19.2-6.4-28.8-9
	c-4.8-1.2-9.6-2.2-14.5-2.9c-4.9-0.7-9.8-2-14.7-2.5c-4.6-0.5-9,0.3-13.5,1.1c-4.8,0.8-9.5,1.4-14.3,2.3c-3.7,0.7-7.3,1.4-10.9,2.3
	c-4.9,0.4-9.7,1-14.6,1.5c-18.2,2.2-36.7,4.7-54.7,8.1c-16.3,3-32.5,8.6-46.8,17c-7.5,4.4-14.5,9.5-21.8,14.3s-14.4,9.5-21.3,14.9
	c-13.2,10.5-24.6,23.4-34.7,36.9c-5.6,7.5-10.1,15.6-15.6,23c-5.6,7.7-8.6,15.9-11.1,25c-6.8,24.6-14.5,56-13.4,81.6
	c0.2,3.6,1.5,6.9,2.5,10.3c0.5,15.7,4.4,31.9,10.9,48.4c4.4,11.1,10.6,21.2,17.7,30.8c7.3,10,14.4,20.5,22.7,29.7
	c3.7,4,7.9,7.6,12.3,10.7c2.6,2,4.8,4.1,7.3,5.9c1.6,2,3.1,4.1,4.6,6.1c3.1,4.2,7.2,4.4,12,5.1l1.2,0.2c0.7,1.2,1.9,2,3.3,2
	c15.6,0.5,30.9,3.8,46.4,4.2s31.1,0.8,46.6,1.5c15.3,0.8,30.6,1.8,46,1.1c15.9-0.7,31.8-2.9,47.7-3.5c15.3-0.6,30.5,1.4,45.8,0.9
	c15.6-0.5,31.2-1,46.8-0.9c16.2,0.1,32.2-2.6,48.3-2.3c3.1,0,6.3,0,9.4,0c0.7,0.7,1.6,1.1,2.6,1.1c13.4,0.9,26.8,0.7,40.1,1.5
	c6.4,0.5,12.9,0.4,19.3-0.2c4.7-0.5,9.6-0.4,14-2.1c5-1.9,6.8-5.7,10-9.6c3.6-4.5,6.9-9.1,9.9-14c1.9-3,3.5-6,5.1-9
	c0.9-1,1.7-2.1,2.4-3.3c2.4-4,3.9-8.2,5.5-12.5c1.5-3.9,3.2-7.7,4.9-11.5c2.2-3.3,4.4-6.6,6.5-10c3-4.7,5.5-9.6,7.7-14.8
	c2.3-5.8,3.5-11.9,5.3-17.9s3.8-11.2,4.7-17.3c1-7,1.3-14,2.3-21C606.5,328.8,607.3,322.9,607,316.9z"/>
<g>
	<defs>
		<path id="SVGID_1_" d="M607,316.9c-0.3-6.4-0.6-12.8-1-19.2c-0.2-3.1-0.5-6.2-1-9.2c1.4-8.7,1.3-17.6-0.2-26.3
			c-0.3-1.6-0.7-3.3-1.2-4.9c0-0.4,0-0.8,0-1.2c0.2-10.1-0.5-21.2-4.2-30.7c-3.3-8.5-9.4-15-15.5-21.7c-6.3-6.9-12.7-13.6-21.2-17.8
			c-9.2-4.4-18.7-8.1-28.5-11.1c-4.7-1.5-9.5-2.6-14.2-4.3s-9.2-3.8-13.9-5.4c-10-3.3-20.6-4.7-30.9-7s-20-5.6-30-8.6
			c-9-2.7-18.5-4.6-27.1-8.7c-9-4.3-17.3-10.1-25.9-15.1c-9-5.3-18.3-10.1-27.8-14.4c-9.1-4-19.2-6.4-28.8-9
			c-4.8-1.2-9.6-2.2-14.5-2.9c-4.9-0.7-9.8-2-14.7-2.5c-4.6-0.5-9,0.3-13.5,1.1c-4.8,0.8-9.5,1.4-14.3,2.3
			c-3.7,0.7-7.3,1.4-10.9,2.3c-4.9,0.4-9.7,1-14.6,1.5c-18.2,2.2-36.7,4.7-54.7,8.1c-16.3,3-32.5,8.6-46.8,17
			c-7.5,4.4-14.5,9.5-21.8,14.3s-14.4,9.5-21.3,14.9c-13.2,10.5-24.6,23.4-34.7,36.9c-5.6,7.5-10.1,15.6-15.6,23
			c-5.6,7.7-8.6,15.9-11.1,25c-6.8,24.6-14.5,56-13.4,81.6c0.2,3.6,1.5,6.9,2.5,10.3c0.5,15.7,4.4,31.9,10.9,48.4
			c4.4,11.1,10.6,21.2,17.7,30.8c7.3,10,14.4,20.5,22.7,29.7c3.7,4,7.9,7.6,12.3,10.7c2.6,2,4.8,4.1,7.3,5.9c1.6,2,3.1,4.1,4.6,6.1
			c3.1,4.2,7.2,4.4,12,5.1l1.2,0.2c0.7,1.2,1.9,2,3.3,2c15.6,0.5,30.9,3.8,46.4,4.2s31.1,0.8,46.6,1.5c15.3,0.8,30.6,1.8,46,1.1
			c15.9-0.7,31.8-2.9,47.7-3.5c15.3-0.6,30.5,1.4,45.8,0.9c15.6-0.5,31.2-1,46.8-0.9c16.2,0.1,32.2-2.6,48.3-2.3c3.1,0,6.3,0,9.4,0
			c0.7,0.7,1.6,1.1,2.6,1.1c13.4,0.9,26.8,0.7,40.1,1.5c6.4,0.5,12.9,0.4,19.3-0.2c4.7-0.5,9.6-0.4,14-2.1c5-1.9,6.8-5.7,10-9.6
			c3.6-4.5,6.9-9.1,9.9-14c1.9-3,3.5-6,5.1-9c0.9-1,1.7-2.1,2.4-3.3c2.4-4,3.9-8.2,5.5-12.5c1.5-3.9,3.2-7.7,4.9-11.5
			c2.2-3.3,4.4-6.6,6.5-10c3-4.7,5.5-9.6,7.7-14.8c2.3-5.8,3.5-11.9,5.3-17.9s3.8-11.2,4.7-17.3c1-7,1.3-14,2.3-21
			C606.5,328.8,607.3,322.9,607,316.9z"/>
	</defs>
	<clipPath id="SVGID_2_">
		<use xlink:href="#SVGID_1_"  style="overflow:visible;"/>
	</clipPath>
	<g class="st1">
		<path class="st2" d="M203.9,252.9c-0.1-0.5-0.3-1-0.4-1.6c0.1-0.7-0.1-1.3-0.5-1.8c-0.6-2.7-1.5-5.3-2.6-7.9
			c-0.8-1.7-1.8-4.6-3.1-6c-1.8-1.9-5.1-1.8-7.4-1.8c-3.9,0.1-7.9-0.2-11.8-0.9c-3.8-0.8-7.9-0.2-11.8-0.2c-4.7,0-9.5,0-14.2,0
			c-9.2,0.1-18.5-1.4-27.8-0.4c-6.4,0.7-15.5,2.4-20.7,6.6c-2.4,1.9-4.2,4.4-5.4,7.2c-1.6,2.1-2.8,4.4-3.7,6.9
			c-0.3,0.8-0.6,1.5-1.1,2.2c-0.4,0.9-0.8,1.8-1.2,2.7c-0.7,1.8-1.4,3.6-2.2,5.4c-0.1,0.3-0.2,0.5-0.2,0.8c-2.4,3.9-5,7.7-6.5,12
			c-3.2,9.3-4.4,19.3-6.2,29c0,0.1,0,0.2,0,0.2c-1.4,3.2-2.4,6.6-3,10.1c-0.8,5.3-0.7,11-1,16.3c-0.6,11.3-0.1,22.6,1.7,33.8
			c-0.8,1.9,0.1,4.5,2.8,4.5h0.4c0.3,0,0.7-0.1,1-0.2c3-0.4,6.3-1.1,8.8,0.8s1.5,4.7,3.2,7c2.4,3.2,7.1,3.1,10.7,2.9
			c6.7-0.4,13.8-0.9,19.9-3.5c0.1,0.4,0.3,0.8,0.5,1.2c0.4,0.6,1.1,0.9,1.8,0.8c0.3-0.1,0.5-0.2,0.7-0.4c0.3-0.3,0.5-0.7,0.5-1.1
			c0,0,0-0.1,0-0.1c0.1-0.2,0.1-0.5,0.2-0.7c0.1-0.2,0.1-0.5,0.2-0.8c0.2-0.3,0.3-0.7,0.3-1c0,0,0-0.1,0-0.1
			c1.9-1.3,3.5-2.9,4.8-4.7c3.5-4.8,5.3-10.4,11.2-12.2c0-0.4,0.3-0.7,0.6-0.9c8.4-4,17.2-2.1,25.9-0.9c6.4-0.3,12.8-0.5,19-1.7
			c0.4,0.2,0.9,0.4,1.4,0.5c1,0.1,2,0.1,3.1,0c0.7,0,1.3-0.2,1.9-0.6c0.5-0.3,0.9-0.7,1.2-1.2c0.1-0.1,0.2-0.3,0.3-0.4
			c1.8-0.6,3.3-1.7,4.3-3.2c0-0.1-0.1-0.2-0.1-0.3c-0.1-4.7,0-9.4,0.2-14.1c0.6-14.1,2-28.1,3-42.1c0-2.5-0.1-5-0.1-7.5
			c0-9.7-0.7-19.7,0.1-29.4C203.9,255.3,204.2,254.1,203.9,252.9z"/>
		<path class="st3" d="M92.5,367.3c-0.1-1.2-0.2-2.3-0.1-3.5c0-2.4-0.3-4.9-0.5-7.3s-0.6-4.7-0.6-7.1s-0.3-4.9-0.4-7.3
			s-0.5-4.9-0.8-7.3c-0.3-2.2-0.1-4.5-0.7-6.6c-0.1-0.2-0.2-0.4-0.3-0.6c-0.1-2-0.5-4.1-1.3-5.9c-0.1-0.1-0.1-0.2-0.2-0.2
			c-0.2-1.5-0.3-3.1-0.3-4.6c0-2.1-3.3-2.1-3.3,0c0.1,3.8,0.6,7.5,1.3,11.2c0,0.3,0.1,0.6,0.1,0.9c0.1,1.8-0.1,3.6-0.1,5.4
			c0,0.9,0.1,1.8,0.3,2.6c0.1,0.8,0.2,1.7,0.2,2.5c0.1,2,0.4,4,0.5,6.1c0,4.2-0.1,8.5,0,12.7c0,2,0,4-0.2,6.1
			c-0.2,1.5-0.9,3-1.9,4.2c-0.2,0.3-0.4,0.6-0.4,1c-0.2,0.7,0.1,1.3,0.7,1.7c1.4,0.8,3.2,0.6,4.7,0.5s3-0.4,3.5-2.1
			C92.8,368.8,92.7,368,92.5,367.3z"/>
		<path class="st4" d="M447.9,370.2c-1.2,0-2.3,0.3-3.4,0.8c-1.3,0-2.6,0.2-3.9,0.3l-8.7,0.8c-0.4,0-0.7,0.2-1,0.4
			c-14,0.1-27.9-0.4-41.8-0.4c-16.8,0-33.6,1.2-50.5,0.8c-8.1-0.2-16.1-1-24.2-1.2c-7.9-0.3-15.8,0.1-23.6-0.1
			c-13.4-0.2-26.9,0.2-40.4,0.7c-2-1.1-5.1-0.7-7.2-0.5c-1.8,0.1-3.5,0.1-5.3,0.1c-1.4-0.2-2.7-0.1-4.1,0.3l-0.2,0.1
			c-1.3-0.1-2.9-0.4-3.7,0.9s-0.5,3.5-0.4,4.8c0.1,1.8,0.4,3.7,0.5,5.5c0.2,2.7-0.2,6.1,3.4,6.4s7,0.1,10.6,0.3
			c3.7,0.2,7.4,0.2,11,0.2c7.7,0,15.4,0,23-0.3c3.8-0.1,7.5,0.2,11.3,0.2s7.4-0.3,11.1-0.5s7.5-0.1,11.3-0.1s7.4,0.4,11,0.7l6.9,0.5
			c-0.2,0.7-0.3,1.4-0.3,2.1c0,0.8,0,1.6,0.2,2.4v0.1c-0.1,0.4-0.1,0.8-0.2,1.2c-0.2,1.4,0.3,2.9,1.2,4c0.7,0.7,1.7,1,2.7,0.8
			c0.7-0.2,1.3-0.4,1.9-0.7c0.1-0.1,0.3-0.2,0.4-0.3c1,0.2,2.1,0.2,3.1,0.3c2.4,0.1,4.7,0.3,7,0.4c2.2,0.1,4.5,0,6.7-0.1
			c2.3-0.1,4.7,0,7-0.2c4.7-0.3,9.5-0.3,14.2-0.7c1.2-0.1,2.4-0.2,3.6-0.3l5.2,0.4c1.8,0.1,3.7,0.3,5.5,0.5c0.9,0.1,1.8,0.1,2.6,0.3
			s1.7,0.5,2.5,0.6c0.7,0,1.4-0.5,1.6-1.2c0-1.3,0-2.6-0.2-3.9c0.2-0.3,0.3-0.6,0.3-0.9V390c8.2-0.6,16.5-1.3,24.7-1.9
			c0.3,0,0.7-0.1,0.9-0.4c1-0.1,2-0.3,3-0.4c0.3,1.6,2.1,2.4,3.6,2.7c2.1,0.4,4.3-1.2,5.7-2.6c1.7-1.8,2.9-3.9,4.5-5.7
			c0.8-1,1.6-1.9,2.6-2.8c1-0.8,1.6-1.2,1.7-2.6c0,0,0,0,0-0.1c0.5-0.4,1.1-0.7,1.7-1s1.5-0.7,2.2-1c1.6-0.1,3.1-0.4,4-1.7
			C450,371.6,449,370.3,447.9,370.2z"/>
		<path class="st5" d="M446.1,370.5c-0.6,0-1.2,0.1-1.8,0.2c-0.3-0.9-1.3-1.3-2.2-1c-0.1,0-0.1,0-0.2,0.1c-1.4,0.5-2.8,0.8-4.2,1
			c-1.2,0.2-2.6,0.6-2.9,2c0,0,0,0,0,0.1c-0.1,0.1-0.3,0.3-0.4,0.5c-0.4,0.8-0.9,1.6-1.3,2.4s-0.7,1.8-1.1,2.7c-0.5,1-1.1,2-1.7,2.9
			c-0.3,0.6-0.7,1.1-1.1,1.6l-0.5,0.4c-1.1,0.9-2.5,1.5-3.9,1.5c-1.6,0.1-3.2,0.2-4.8,0.5s-3.2,0.1-4.8,0.3
			c-1.9,0.2-3.8,0.4-5.8,0.5c-7.3,0.4-14.5,0.2-21.8,0.4s-14.7,0.2-22.1,0.3c-3.8,0.1-7.5,0.3-11.2,0.3s-7.3,0-10.9,0
			c-1.7,0-3.3,0-4.9-0.3c-1.8-0.2-3.6-0.2-5.5-0.1c-1.6-0.1-3.3-0.3-4.9-0.2c-1.8,0.1-3.6,0.4-5.4,0.3c-1.6-0.1-3.2-0.1-4.8,0
			c-1.7,0.2-3.4,0.3-5.1,0.3c-3.7,0-7.5-0.1-11.2-0.3c-7.3-0.3-14.6-0.1-21.9-0.1c-4,0-8.1,0.1-12.1,0s-8.1-0.7-12.1-1
			c-3.8-0.1-7.6-0.4-11.3-1c-1.1-0.6-2.2-1-3.4-1.2l-0.1-0.1c-2.2-0.8-4.2-2.1-5.9-3.6c-1-1.1-1.9-2.4-2.5-3.8
			c0-0.3-0.2-0.6-0.4-0.9c-0.1-0.3-0.3-0.6-0.4-0.9c-0.7-2-3.9-1.1-3.1,0.9c0.2,0.5,0.4,1.1,0.7,1.6c0,1.3,0.1,2.6,0.2,3.9
			c0,0.1,0,0.1,0,0.2c0,1.2,0.2,2.3,0.5,3.4c0,0,0,0.1,0.1,0.1c0.1,0.6,0.2,1.3,0.4,1.9c0.5,2.5,3,3.4,5.4,3.4
			c3.6,0,7.1,0.4,10.7,0.2c1.9-0.1,3.7-0.1,5.6-0.2c1.1,0.1,2.3,0.2,3.4,0.3c0.4,0,0.7-0.1,1-0.4c0.4,0,0.9,0,1.3,0
			c0.3,0,0.6-0.1,0.9-0.3c4.8,0.4,9.6,0.7,14.5,0.7h22.3c3.7,0,7.5,0.2,11.2,0.3c3.7,0.2,7.3,0.2,11-0.1c1.7-0.2,3.3-0.2,5-0.1
			c1.3,0,2.7,0,4-0.2c0.8,1.2,1.1,2.8,1.9,3.9c-0.1,3-0.1,6.3,3.5,7.2c2,0.5,4.2,0.3,6.3,0.5h0.5c1.1,0.3,2.2,0.5,3.3,0.8
			c0.6,0.2,1.3-0.1,1.7-0.6c0.9,0,1.9,0,2.9,0c5.6-0.1,11.1-0.5,16.7-0.6s11-0.1,16.6-0.1c2.7,0,5.4-0.1,8,0
			c1.6,0.1,3.9,0.5,5.3-0.6c0.6-0.4,0.9-1.1,0.8-1.8c-0.2-1.1-0.1-2.3-0.2-3.4c-0.1-0.8-0.2-1.5-0.4-2.3c0.2,0,0.5-0.1,0.7-0.1
			c2.5-0.1,4.9-0.1,7.3-0.4s5.2-0.5,7.8-0.7c5-0.3,10-0.8,15-1.6c1.1-0.2,2.3-0.5,3.4-0.7c1-0.1,1.9-0.3,2.9-0.5
			c1.8-0.6,2.8-2.4,3.8-3.9l0.1-0.1c1.3-1.2,2.6-2.6,4-3.8c1-0.9,1.9-1.8,2.8-2.7c0.8-0.9,1.7-1.8,2.7-2.6c0.9-0.6,1.8-0.7,2.4-1.6
			c0.1-0.2,0.2-0.4,0.3-0.6l0.2,0C448.3,373.3,448,370.4,446.1,370.5z M381.5,397.9c-4.9,0-9.8,0-14.7,0s-10,0.3-15,0.5
			c-3.5,0.1-6.9,0.2-10.3,0.1c-1.9-0.9-3.7-2-5.2-3.4c-1-0.9-1.9-1.8-2.7-2.9c-0.4-0.7-0.7-1.4-0.9-2.2h0.3c1.8,0,3.6,0,5.4,0.1
			c3.6,0.5,7.2,0.2,10.9,0.3s7.5,0,11.2-0.1c10.9-0.4,21.7-0.4,32.6-0.5c-0.7,0.1-1.4,0.3-2,0.8c-0.7,0.2-1.2,0.8-1.2,1.5
			c0,0.2,0,0.3,0,0.5c-0.1,0.4-0.2,0.7-0.2,1.1c0,0.5-0.1,0.9-0.1,1.4c-0.1,0.4-0.2,0.8-0.3,1.1c-0.2,0.6-0.3,1.2-0.4,1.8
			c-0.4,0-0.7-0.1-1-0.1C385.8,397.9,383.6,397.9,381.5,397.9z"/>
		<path class="st0" d="M666.3,159.5c0.2-1.4-0.9-2.7-2.3-2.9c0,0,0,0,0,0c-6.5-1-13.2-0.3-19.7-0.1c-7.3,0.3-14.7,0-22,0
			c-15,0-30-0.7-45-0.8c-15.4,0-30.9-0.2-46.3-0.3c-7.5,0-15.1,0.1-22.6,0.2c-6.1,0.1-13.6-0.9-19.4,1.3c-0.4-1.2-1.6-2-2.9-1.9
			c-11,0.4-21.9,0.7-32.8,1c-0.2-0.2-0.4-0.4-0.7-0.6c-2.8-1.8-7.1-0.8-10.3-0.5c-5,0.4-10,0.6-15,0.8h-1.1l-1-0.1
			c-5.3-0.9-10.8-0.5-16.2,0.1c-4-0.1-7.9-0.3-11.9-0.4c-4.4-0.1-8.8,0-13.1-0.5c-4.6-0.5-9-1.8-13.7-2c-4.2-0.1-8.4,0.6-12.6,0.7
			s-7.6,0.2-11.8,1.6c-0.6,0.2-1.1,0.5-1.5,1c-15.3-0.2-30.6-0.7-45.9-1.4c-9.9-0.5-19.6-0.6-29.5-0.4c-5.3,0.1-10.5,0.7-15.8,0.5
			c-4.5-0.2-9.4-1.5-13.9-1c-1.1,0.2-2.1,0.8-2.6,1.8c-3,0.1-6,0.3-9,0.5c-0.4,0-0.8,0.1-1.2,0.3l0,0c-0.1-4.2-6.6-4.2-6.5,0
			c0.1,5.6-2.7,12.3,2.2,16.3c4,3.2,4.5,4.3,5.2,9.6c0.4,2.8,0.7,5.6,1.1,8.5c1,8-0.1,15.7,0,23.7c0.1,7.6,0.3,15.2,0.7,22.8
			c-0.4,0.6-0.6,1.3-0.6,2c0.1,2.3,0.2,4.6,0.3,7c0.2,6.6,0,13.2-0.2,19.9c-0.1,3.3-0.4,6.7-0.5,10c-0.3,0.4-0.5,0.9-0.6,1.3
			c-0.6,2.9-0.9,5.9-0.8,8.9c-0.2,2.6-0.1,5.1,0.1,7.7c0.1,0.8,0.5,1.6,1.2,2c-0.2,2.1-0.3,4.2-0.3,6.3c-0.1,10.4-0.2,20.9,0.1,31.4
			c0.1,5.4,0.5,10.8,0.2,16.2c-0.3,4.8,0.8,9.8-0.1,14.5c-0.1,0.5-0.1,1.1,0.1,1.6c-0.8,2,0,4.6,2.8,4.4h0.2c0.2,0,0.4-0.1,0.6-0.1
			l0,0c0,0,0.1,0,0.1,0l0.2-0.1c1-0.4,2.1-0.6,3.1-0.7c0.1,0.8,0.8,1.3,1.5,1.3c2.2-0.1,4.3-0.1,6.5,0.2c2.3,0.5,4.5,0.8,6.9,1
			c0.9,0,1.6-0.7,1.6-1.5c0-0.1,0-0.2,0-0.2c3.9,0.1,7.8,0.3,11.7,0.5c11.2,0.6,22.5,1.1,33.8,1.2c12.1,0.1,24-1.2,36.1-0.9
			c11.3,0.3,22.4-0.7,33.7-1.3h0.6c2.7,1.3,5.7,2.1,8.7,2.2c3.2,0.1,6.2,0.7,9.2-0.8c0.4-0.2,0.8-0.5,1.1-0.9
			c5.1,0,10.2-0.1,15.3-0.1c11.2,0,22.5-0.3,33.6-1.3c11.9-1,23.8-0.8,35.7-1.4c10.6-0.6,21.3-0.6,32,0.1
			c12.4,0.8,24.9-0.1,37.4,0.6c13,0.7,26.1-1,39.1-0.6c1,0.1,1.9-0.4,2.5-1.1h1.9c7.5,0.1,14.9,0,22.4-0.2c3.4,0.1,6.8,0.2,10.2,0.2
			c8.6-0.1,17.6,0.2,26.3-0.5c1.8,0,3.7,0.1,5.5,0.1c0.2,0.1,0.3,0.2,0.5,0.3c3.7,1.9,7.3,4.3,10.5,0.3c2.9-3.7,2.4-9.7,2.1-14.2
			c-0.8-13.4,0.1-27.2,0.8-40.6c0.8-14.1,0.2-28.3,0.6-42.5c0.3-12.7,3.4-27.5-0.8-39.8v-0.1c0-0.8,0-1.5,0-2.2
			c0.2-0.4,0.2-0.8,0.2-1.2c0.2-8.9,1.3-17.5,2-26.2c0.4-4.9,2.5-13.2-1.4-17.1c0.1-1.8,0.4-3.6,1.1-5.3c1-2.3,2.9-4.1,3.2-6.6
			c0.2-1.8,0.1-3.5,0.4-5.3C668,162.9,667.7,160.8,666.3,159.5z"/>
		<path class="st5" d="M664.4,178.8c0.9,0,1.6-0.7,1.6-1.6c0-0.9-0.7-1.6-1.6-1.6c-3-0.1-6-0.4-9-0.7c-3.5-0.3-7-0.6-10.5-0.8
			c-2.4-0.1-4.8-0.2-7.2-0.3c-8-0.6-15.9-1.1-23.9-1.6c-2.3-0.1-4.7-0.2-7-0.3c-0.9-0.1-1.7-0.2-2.6-0.2c-2.3-0.1-4.6-0.2-6.9-0.2
			c-8.2-0.3-16.4-0.6-24.5-0.9c-6.7-0.3-13.4-0.5-20.1-0.4c-5,0.1-10,0.4-15,0.5h-1.1c-6.4-0.2-12.9-0.4-19.3-0.5l-3.9-0.2
			c-6.8-0.3-13.6-0.5-20.5-0.6c-7.6,0-15.1,0.3-22.7,0.8c-4.2,0.3-8.4,0.5-12.6,0.6c-0.3-0.8-1.1-1.3-1.9-1.1
			c-2.8,0.5-5.5,1.1-8.3,1.5c-0.5,0-0.9,0.3-1.2,0.6c-2.1,0.1-4.2,0.2-6.3,0.3c-0.5-0.2-1-0.2-1.5,0.1c-2,0.1-4.1,0.2-6.1,0.4
			c-2.4,0.2-4.8,0.4-7.2,0.7c-5-0.2-10-0.4-14.9-0.8l-4.8-0.3c1-0.9,0.7-3-1-2.8c-5.2,0.5-10.4,1.2-15.5,1.7
			c-6.9-0.4-13.8-0.7-20.7-0.6c-14.2,0.2-28.4,1.1-42.6,2.3c-4.6,0.4-9.3,0.5-13.9,0.7l-3.9-0.2c-7.2-0.5-14.5-0.9-21.7-0.9
			c-3.6,0-7.2,0.1-10.8,0.2c-2,0.1-3.9,0-5.8,0.2c-13-1.3-26-1.4-39-0.4c-0.3,0-0.7,0.2-0.9,0.4h-0.9c-0.9,0-1.6,0.7-1.6,1.6
			c0,0.9,0.7,1.6,1.6,1.6c7.8,0.1,15.5,0.9,23.2,1.1c6.6,0.1,13.2,0,19.8,0l3.2,0.2c2.5,0.2,5,0.3,7.5,0.4c3.8,0.1,0,0.1,0,0.1
			c0.2,0.3,0.4,0.6,0.6,0.9c0.3,0.6,0.5,1.3,0.6,1.9c0.3,2.2,0.3,4.5,0.6,6.7c0.1,1.4,0.3,2.7,0.4,4.1c-0.3,3.2-0.4,6.5-0.5,9.8
			c-0.2,4.4-0.4,8.7-0.3,13.1c0,2.2-0.1,4.5-0.3,6.7c-0.3,2.1-0.2,4.3,0.4,6.4c0.3,0.9,1.2,1.4,2,1.1c0.3-0.1,0.5-0.2,0.7-0.4
			c0.9-1.1,0.8-2.4,0.8-3.7c-0.1-2.5,0-5,0.1-7.4c0.2-4.8,0.5-9.5,0.7-14.3c0.2-3.8,0.1-7.7-0.2-11.5c0.2-1.5,0.4-3,0.5-4.5
			c0.1-1.1,0-2.2-0.1-3.2c0.2-0.2,0.4-0.5,0.5-0.7l0.1-0.3c0.3-0.2,0.6-0.5,0.7-0.9c0.1-0.7,0.3-1.5,0.4-2.2c0.1-0.3,0.2-0.7,0.3-1
			c0-0.1,0.1-0.2,0.1-0.4c1.9,0,3.7,0,5.6-0.1c3.9-0.2,7.7-0.4,11.6-0.7c4.4,0.2,8.8,0.3,13.2,0.1c7.9,0.4,15.7,0.6,23.6,0.7
			c12.9,0.1,25.9-0.1,38.8-0.1c6.3,0,12.5,0.1,18.8,0.3c6.4,0.2,12.9-0.1,19.3-0.4c1.4-0.1,2.8-0.1,4.2-0.1c0.2,0,0.5,0,0.8,0
			c4.1,0,8.1,0,12.2-0.1c0.1,0.2,0.2,0.4,0.2,0.6c0.8,2.1,1.3,4.3,1.7,6.5c0.6,4,0.9,8.1,0.9,12.2c0,0.8-0.1,1.6-0.1,2.3
			c-0.4,6-0.1,12.1-0.1,18.2c-0.2,3.4-0.6,6.7-1.2,10c-0.4,2.2-0.8,4.4-1,6.7s-0.1,4.4-0.2,6.7s-0.3,4.7-0.3,7.1s-0.4,4.7-0.4,7
			c0,4.8,0.5,9.6,0.5,14.3s-0.1,9.5-0.1,14.3c0,4.4,0,8.7,0.2,13c0,0.2,0,0.5,0,0.7c-0.2,2.5-0.2,4.9-0.2,7.4c0,1.2,0,2.3,0,3.5
			c-0.1,1-0.1,2,0.1,3c0.2,0.9,1.1,1.4,2,1.1c2.6-1.1,1.8-4.6,2-6.9s-0.5-4.7-0.5-7c0-0.9-0.1-1.7-0.1-2.5c0.2-3.8,0.1-7.7,0.3-11.5
			c0.4-9.5,0.1-19,0.4-28.5s0.8-19,1.4-28.5c0.2-3.5,0.3-7,0.2-10.5c0.1-2-0.1-3.9,0-5.9c0-2.4,0.4-4.7,0.4-7c0-2.5,0-5-0.1-7.5
			c0.1-1.7,0.1-3.3,0-5c-0.1-1.4-0.3-2.8-0.5-4.1c0.4-0.2,0.7-0.6,0.8-1c0.4-2.3,0.9-4.6,1.5-6.9c0.2-0.8,0.4-1.5,0.6-2.3h0.8
			c5.7,0.1,11.4,0.3,17.1,0.2c7-0.1,14.1-0.3,21.1-0.5c1.8,0,3.6-0.1,5.5-0.1c2.1,0.1,4.3,0.1,6.4,0.2c12.9,0.2,25.8-0.4,38.7,0.7
			c12.5,1,25,2.4,37.5,3.6c10.5,1,20.9,0.4,31.3-0.3c0.1,1,0.2,2.1,0.3,3.1c0,0.3,0,0.6,0,0.9c-0.1,1.2-0.3,2.3-0.3,3.5
			c0,0.5,0,1,0,1.5c0,0.6,0.4,1.2,1,1.4c-0.3,2.7-0.5,5.4-0.8,8.1c-0.8,7.8-1.1,15.6-0.9,23.4c0,0.9,0.7,1.6,1.6,1.6
			s1.6-0.7,1.6-1.6c0-4.2,0.1-8.4,0.6-12.5c0.5-4.1,0.6-8.1,1-12.2c0.2-4.1,0.8-8.2,1.7-12.2c0.2-0.8,0.3-1.5,0.4-2.3
			c0.2-0.3,0.3-0.7,0.5-1c0.3-0.7,0.7-1.5,1.2-2.2l3.8-0.3c12-0.8,23.9-1.2,35.9-1h0.6c-1.9,2-2.3,5.3-0.5,7.3
			c2.5,14.1,1.5,29.5,0.6,43.7c-0.9,14.9-2.6,29.8-3.3,44.7c-0.3,6.9-0.2,13.8-0.6,20.6c-0.5,7.3,1,14.2,1.3,21.4
			c0.2,7.1,0.1,14.1-0.4,21.2c-0.2,3.9-0.3,7.7-0.3,11.6c0,0.8,0.2,2.2,0.3,3.7c-0.1,1.1-0.2,2.3-0.3,3.5c-0.1,1.3-0.6,2.6-1.3,3.6
			c-0.7,1-1,2.3-0.7,3.5c0.2,0.7,0.8,1.2,1.6,1.2c0.4,0,0.8-0.1,1.2-0.2c2.3,2.2,6,2,8.2-0.3c0.2-0.2,0.3-0.4,0.5-0.6
			c3.2-4.6,1.4-12.9,1.5-18.2c0.1-7.8,0.8-15.6,0.8-23.5c0-7.5-1.5-14.8-1.6-22.2c0-7.8,0.6-15.7,0.8-23.6
			c0.3-15.8,2.4-31.8,3.4-47.6c1-15.6,1.7-32.3-1.5-47.6c-0.1-0.3-0.2-0.7-0.3-1c0-0.6-0.1-1.1-0.2-1.7
			C662.8,178.7,663.6,178.8,664.4,178.8z M390.6,174.4h-3.4l1.9-0.2c1.3,0.1,2.6,0.1,3.8,0.2C392.2,174.4,391.4,174.3,390.6,174.4z"
			/>
		<path class="st5" d="M505.1,398.2c0.4-6.6-1-13.2-4.2-19.1c-4-7.1-11.2-10.8-18.7-11.4h-0.1c-0.3-0.1-0.6-0.1-0.9-0.1
			c-0.9-0.3-1.9-0.2-2.8,0.1c-5.5,0.2-10.8,1.9-15.4,4.9c-0.6,0.4-1.1,1-1.3,1.7c-7.1,3-11.6,9.2-13.9,16.4c-2,2.5-3.2,5.6-3.4,8.8
			c-0.3,5.7-0.1,15.3,4.5,19.5c2,1.7,4.2,3,6.6,3.9c2.9,2.7,6.4,4.7,10.1,6c11.3,3.9,26-0.4,32.9-10.4
			C503.5,413.2,505.7,405.5,505.1,398.2z"/>
		<path class="st4" d="M483.3,386.5c-0.3-0.1-0.5-0.3-0.8-0.3c-0.8-0.7-1.8-1.2-2.8-1.6c-6.1-2.3-12.8,0.1-16.7,5.1
			c-0.9,1.1-1.5,2.3-1.9,3.6c-2.2,3.4-2.7,6.2-0.6,10.9c2.2,5,6.9,10.4,12.7,10.5c2.4,0,4.8-0.5,7-1.6c5-0.5,8.5-4.5,9.8-9.5
			C491.8,397,489.4,389.9,483.3,386.5z"/>
		<path class="st5" d="M640.1,383.1c-0.2-0.5-0.3-0.9-0.5-1.4c-2.4-6.6-7.4-9.2-13.2-12.3c-1-0.6-2.3-0.5-3.3,0.1
			c-1.7-0.6-3.5-1-5.3-1.2c-7.5-0.5-15.3,3.5-20.9,8.3c-9.6,8.1-15.2,21.6-10.4,33.3c-0.2,0.6-0.3,1.3-0.1,2c1.6,5.7,5.4,9,9.8,12.9
			c3.5,3.1,9.2,5.4,13.9,5.1c3.8-0.3,7.6-0.9,11.3-1.9c0.7,0.3,1.4,0.4,2.2,0.2c4.4-1.4,8.3-4,11.3-7.4c5-4.3,8.3-10.2,9.2-16.8
			C644.6,400.1,644.6,387.5,640.1,383.1z"/>
		<path class="st4" d="M627.2,389.1c-3.6-4-8.6-6.5-14-6.8c-4.3-0.1-6.5,3-8.4,6.3c-5.6,3.4-7.3,13.1-4.5,18.6
			c4.6,8.9,15.9,11.2,23.9,5.5C631.8,407.3,633.5,396.3,627.2,389.1z"/>
		<path class="st5" d="M569.6,381.3c-2.6-7.1-6.3-11-13.7-12.5c-5.9-1.2-12-0.6-17.6,1.5c-3,0.9-5.8,2.1-8.5,3.8
			c-5,2.7-9.8,6.5-12,11.4c-0.2,0.4-0.3,0.8-0.3,1.3c-2.3,3.1-4.6,6.4-5.2,10.2c-0.5,3.4,0.4,6.5,1.6,9.6c0.3,3.9,1.6,7.7,3.8,11
			c3.1,4.5,8.9,10.5,14.9,10.9c2.5,1.3,5.2,2.1,7.9,2.4c7.9,0.6,15.7-1.7,22-6.5c5.5-4.2,12.1-12.2,13-19.3
			C576.6,396.6,572.4,389,569.6,381.3z"/>
		<path class="st5" d="M198.5,390.5c-0.2-0.3-0.5-0.6-0.9-0.8c-0.2-0.9-0.4-1.7-0.7-2.5c-3.7-10.8-11.4-19.1-23.2-20.9
			c-10.7-1.6-22.9,5.3-29.3,13.7c-3.1,4.1-6.4,8.2-7.8,13.3s-1.1,11.6,0.1,16.8c0.1,0.5,0.3,1,0.7,1.4c0.5,1.5,1.3,2.9,2.4,4.1
			c2.7,3.1,5.4,7.1,8.8,9.5c5.7,3.9,16.3,6,23.1,4.9s14.4-3.5,18.7-9.1c0.7-0.1,1.4-0.4,2-0.8c3.9-3.3,6.4-9.8,7.8-14.7
			C201.5,400.7,201.4,394.4,198.5,390.5z"/>
		<path class="st4" d="M554.2,386.6c-3.9-3.7-8.5-3.9-13.4-2.1c-7.1,2.6-16.1,12.5-10.8,20.4c0.1,0.1,0.2,0.3,0.3,0.4
			c0.3,1.9,1,3.7,2,5.3c2.1,3.6,6,5,10.1,5c9,0,17.5-7,17.1-16.4C559.2,394.8,557.3,389.7,554.2,386.6z"/>
		<path class="st4" d="M178.8,387.2c-1.5-2-3.6-3.5-6-4.3c-1.1-0.7-2.4-1.2-3.6-1.5c-1.5-0.3-3,0.3-3.8,1.6
			c-1.1,0.1-2.2,0.4-3.2,0.9c-2.7,0.3-5.1,1.7-6.8,3.8c-9.1,10.7-0.9,28.6,13,28.7c6.1,0.1,11.6-4.4,13.6-10
			C184.4,399.5,183.3,393.1,178.8,387.2z"/>
		<path class="st5" d="M120.1,376.8c-5.2-1-11.7,0.6-16.9,1c-2.2,0.1-4.9,0.1-7,1.1c-0.4-1.6-1.1-3-2.2-4.2c-1.7-1.5-4-1.9-6-2.3
			c-3.9-0.8-7.8-1.8-11.6-3.1c-2.4-0.8-3.9,1.1-4,3c-0.7,0.8-1.1,1.9-0.9,2.9c0.3,1.9,0.8,3.8,1.3,5.7c-0.1,0.5-0.1,1,0.1,1.5
			c0.6,2.3,1.2,4.5,2,6.8c0.2,0.5,0.3,0.9,0.5,1.4s0.2,0.9,0.3,1.3c0.9,5.2,3.3,8.6,8.4,10.7c5.5,2.2,12.8-0.8,18.5-1.2
			c3.2-0.2,6.3-0.3,9.4-0.7c3-0.4,6.5,0.3,9.3-1c4.9-2.4,4.9-7.9,4.9-12.5C126.1,382.6,125.3,377.8,120.1,376.8z"/>
		<path class="st2" d="M198.8,236.6c-1.4,0-2.7-0.6-4.1-0.6c-0.7,0-1.4,0.1-2.2,0.1s-1.7-0.2-2.6-0.3c-0.8,0-1.6-0.1-2.4-0.2
			c-0.7-0.2-1.5-0.4-2.2-0.6c-1.7-0.4-3.5-0.5-5.2-0.3c-1.5,0.1-3,0.2-4.4,0.4c-1.8,0.2-3.6,0.1-5.4-0.2c-3.2-0.5-6.5-0.5-9.7-0.1
			c-3.4,0.5-6.7,1.1-10.2,0.6s-6.8-1-10.2-1.2c-3.3-0.2-6.4-0.8-9.7-0.6c-1.5,0.1-2.9,0.3-4.3,0.3s-3.2-0.1-4.8,0
			c-1.8,0.1-3.6,0.6-5.4,0.8c-1.6,0.1-3.2-0.3-4.8-0.2c-0.8,0-1.5,0.1-2.2,0.3c0-0.9-0.8-1.6-1.7-1.6c-0.4,0-0.8,0.2-1.1,0.4
			c-0.8,0.8-1.6,1.6-2.3,2.4c-0.5,0.3-1,0.8-1.3,1.3c0,0.1-0.1,0.1-0.1,0.2c-3.5,3.8-6.5,8-8.9,12.6c-1.4,3.1-2.6,6.3-3.6,9.6
			c-1.2,3.4-2.8,6.6-3.6,10.1c-0.4,1.8-0.6,3.5-1,5.3s-1.1,3.4-1.6,5c-1.1,3.5-2.2,7-3.4,10.5c-0.6,1.6-1.2,3.2-1.6,4.8
			c-0.5,1.8-0.9,3.6-1.4,5.4c-1,3.4-1.7,6.8-2.2,10.3c-0.3,2-0.4,3.9-0.3,5.9c-0.1,2.1-0.3,4.2-0.8,6.2c-0.9,3.8-1.4,7.8-1.7,11.7
			c0,0,0,0.1,0,0.1c-0.4,2.8-0.5,5.6-0.2,8.4c0.4,2.9-0.1,5.9,0.3,8.9c0.2,1.5,0,2.9,0.1,4.3s0.3,2.8,0.3,4.2c0,3.2,0,6.5,0,9.7
			c0,0.3,0.1,0.6,0.2,0.9c-0.2,1.2-0.3,2.5-0.3,3.7c0,1.4,0,2.8,0,4.2c-0.2,2.7,0,5.5,0.6,8.1c1.3,5.3,3.8,10.2,7.2,14.4
			c1.2,1.7,4,0.1,2.8-1.6c-1.6-2.1-3-4.2-4.2-6.6c-1.1-2.3-2-4.6-2.6-7.1c-0.5-2.6-0.6-5.2-0.5-7.8c0-1.3,0-2.6,0-3.9
			s0.3-2.5,0.3-3.8c0-0.4-0.1-0.7-0.3-1c0-3,0-6,0-9c0-1.4-0.2-2.8-0.3-4.2s0.1-3-0.1-4.5c-0.4-2.9,0.1-5.8-0.3-8.7
			c-0.2-1.3-0.4-2.6-0.4-3.9c0-1.2,0.2-2.3,0.3-3.5c0.1-0.2,0.1-0.4,0.1-0.6c0.1-3.7,0.6-7.4,1.5-11c0.3-1.7,0.6-3.4,0.8-5
			c0.2-1.9,0.1-3.8,0.2-5.7c0.1-1.6,0.4-3.2,0.7-4.8c0.2-1.7,0.6-3.4,1-5c0.4-1.6,1-3.1,1.4-4.7c0.4-1.6,0.9-3.3,1.4-4.9
			c1.2-3.5,2.4-6.9,3.5-10.4c1.2-3.3,2.2-6.6,3-10c0.6-3.3,1.6-6.6,2.8-9.7c1.3-3.2,2.2-6.5,3.5-9.8c1.5-3.4,3.3-6.7,5.6-9.7
			c1.5-2.2,3.2-4.3,5.1-6.2c0.8-0.2,1.6-0.4,2.5-0.4c1.5-0.4,3.1-0.5,4.6-0.4c1.3,0.2,2.7,0.2,4,0.1c1.6-0.2,3.2-0.6,4.9-0.7
			c1.4-0.1,2.9,0,4.3,0s3-0.2,4.6-0.3c3.2,0.1,6.3,0.3,9.5,0.6c3.3,0.2,6.6,0.7,9.9,1.2c3.1,0.3,6.3,0.2,9.4-0.4
			c3.2-0.5,6.5-0.6,9.7-0.2c1.5,0.2,3,0.4,4.5,0.5c1.7,0,3.3-0.1,5-0.3c1.8-0.3,3.7-0.3,5.6,0c1.6,0.4,3.2,0.7,4.8,0.9
			c1.8,0.1,3.4,0.3,5.2,0.3c1.6,0,3,0.6,4.6,0.6C200.9,239.9,200.9,236.6,198.8,236.6z"/>
		<path class="st6" d="M175,251.5c-1.1-0.5-2.5-0.2-3.7-0.2c-1,0-2-0.1-3-0.3c-2.6-0.2-5.3,0.1-7.9,0s-5.3-0.2-8-0.2s-5.6,0-8.4,0
			c-2.6,0-5.2-0.5-7.8-0.1s-4.9-0.2-7.4-0.1h-3.7c-1.2,0-2.4,0.2-3.6,0.3c-2.8,0-5.6,0.2-8.4,0.5c-2.7,0.5-5.3,1.3-7.8,2.4
			c-0.2,0.1-0.5,0.3-0.6,0.5c-1.6,1.2-2.4,3-3,5c-0.6,1.4-1.1,2.9-1.6,4.4c-0.4,1.7-0.7,3.5-1,5.2c-0.6,3.2-1.7,6.2-2.4,9.4
			c-0.8,3.4-2,6.6-2.7,10c-1.2,6.6-1.8,13.3-3,19.8c-0.5,3-0.7,5.9,1.2,8.5c0.8,1.1,1.8,2,3,2.6c1.5,0.6,3.3,0.5,4.8-0.2
			c1.4-0.5,2.8-1.1,4.1-1.8c1.4-0.9,2.9-1.6,4.4-2.3c3.2-1.4,6.3-2.8,9.5-4.3s6.5-3,9.7-4.6c1.4-0.8,2.9-1.5,4.4-2
			c1.5-0.5,3-1.2,4.6-1.5c3.5-0.9,7-2.2,10.6-2.7c3.2-0.6,6.4-0.9,9.6-1c3.5,0,6.9,0.5,10.4,0.6c1.3,0.2,2.7-0.1,3.9-0.6
			c1.3-0.6,2.4-1.5,3.2-2.7c0.9-1.3,1.5-2.8,1.7-4.4c0.1-1.8-0.1-3.5,0-5.3c0-0.4,0-0.7,0-1c0-0.1,0-0.1,0-0.2
			c0.1-1,0.3-1.9,0.4-2.9c0.2-1.8,0.1-3.6,0.2-5.4c0.3-3.7,0-7.4,0.1-11c0.1-1.8,0.4-3.6,0.4-5.4c0-2,0.9-4.7,0.1-6.6
			C176.9,252.7,176,251.9,175,251.5z"/>
		<path class="st6" d="M176.1,334.6c-0.1-1.9-0.3-3.8-0.3-5.7c0-1,0-2,0.1-2.9c0.1-1,0.1-2,0-3c-0.1-1-0.7-1.9-1.7-2.3
			c-0.9-0.3-1.9-0.3-2.9,0c-0.5,0.1-0.9,0.4-1.1,0.9c0,0-0.1,0.1-0.1,0.1c-0.3,0.7-0.4,1.6-0.3,2.4c0,1,0,2,0,3
			c0,1.8,0.1,3.6,0.2,5.4c0.1,0.9,0.1,1.8,0,2.7c-0.1,0.9,0.1,1.9,0,2.8c-0.2,0.7-0.2,1.5-0.1,2.2c0.4,0.8,1.1,1.3,1.9,1.4
			c1.5,0.3,3.6,0.1,4.2-1.6c0.2-0.8,0.2-1.6,0.2-2.4C176.1,336.6,176.1,335.6,176.1,334.6z"/>
		<path class="st6" d="M200.3,388c-0.3-0.9-0.4-1.8-0.7-2.7c-0.6-1.7-1.4-3.4-2.1-5.1c-0.6-1.4-1.5-2.7-2.6-3.8
			c-1.1-1.4-2.4-2.7-3.6-3.9c-1.2-1.1-2.5-2-3.8-3c-1.1-1.2-2.5-2.1-4-2.7c-0.8-0.2-1.5-0.5-2.2-0.8c-0.7-0.3-1.4-0.6-2.2-0.7
			c-1.9-0.3-3.7-0.2-5.6-0.9c-3.5-1.3-7.2-0.2-10.7,0.3c-3.7,0.7-7.3,2-10.6,3.9c-3.1,1.8-5.9,4.1-8.4,6.7
			c-2.9,3.1-5.4,6.6-7.2,10.5c-0.9,1.9-1.7,3.8-2.3,5.8c-0.5,2-0.8,4-0.9,6c-0.3,4.1,0,8.3,0.9,12.3c0.5,1.9,1.3,3.6,2.3,5.2
			c0.9,1.6,2,3.1,3.2,4.5l0,0c0.2,0.3,0.3,0.6,0.6,0.8c0.5,0.5,1.1,1,1.7,1.5c1.3,1.1,2.4,2.5,3.7,3.6c2.7,2.3,5.9,3.5,9.1,5
			c3.3,1.4,6.8,2.1,10.4,2c1.9,0,3.9,0.1,5.7-0.1c1.9-0.3,3.8-0.7,5.7-1.4c1.6-0.4,3.2-0.9,4.7-1.6c0.8-0.4,1.6-0.9,2.5-1.2
			s1.6-0.6,2.3-1c1.4-0.9,2.8-1.9,4-3.1c1.4-1.2,2.6-2.5,3.8-3.8c1.1-1.2,2-2.4,2.7-3.8c0.9-1.7,1.9-3.2,2.7-4.9
			c0.7-1.7,1.3-3.5,1.8-5.4c0.5-1.7,0.8-3.5,0.9-5.4c0.1-3.6-0.2-7.3-1.2-10.8C200.8,389.4,200.5,388.8,200.3,388z M198,405.7
			c-0.4,1.6-0.9,3.2-1.6,4.8c-0.7,1.4-1.6,2.7-2.3,4.1c-1.5,2.7-3.5,5.1-5.8,7.1c-1.1,1.1-2.3,2.1-3.7,2.9c-1.4,0.7-3,1.3-4.4,2
			c-1.6,0.7-3.2,1.2-4.8,1.6c-1.9,0.7-3.9,1.1-5.9,1.2c-2,0-4,0.2-6,0c-1.8-0.2-3.6-0.5-5.3-1c-1.7-0.5-3.4-1.2-5-2
			c-1.5-0.7-2.9-1.6-4.3-2.5c-1.5-1-2.5-2.4-3.9-3.6c-0.6-0.5-1.3-1-1.9-1.6c-0.5-0.5-0.8-1.2-1.1-1.8c-0.2-0.4-0.5-0.7-0.9-0.8
			c-0.5-0.7-1-1.4-1.4-2.2c-0.9-1.3-1.6-2.8-2.1-4.3c-0.8-3.3-1.2-6.6-1.1-10c0.1-3.2,0.7-6.4,1.8-9.5c1.3-3.2,3-6.2,5.1-8.9
			c2-2.8,4.3-5.2,7-7.4c2.7-2,5.7-3.5,8.9-4.6c3.1-1.1,6.2-1.7,9.5-1.9c0.7-0.1,1.5-0.1,2.2,0c0.7,0.1,1.4,0.3,2.1,0.6
			c1.7,0.5,3.4,0.7,5.1,0.7c1.5,0.1,2.7,1,4.1,1.4s2.4,1.6,3.6,2.5s2.3,1.8,3.5,2.8c1.1,1.1,2.2,2.2,3.1,3.4c0.9,0.9,1.6,2,2.2,3.2
			c0.8,1.6,1.4,3.2,2,4.9c1,3.1,1.7,6.3,2.1,9.5C199.2,399.4,198.9,402.6,198,405.7z"/>
		<path class="st6" d="M179.4,384c-3.2-2.5-7-4-11-4.4c-4.6-0.2-9,2.2-12.6,4.8c-1.7,1.2-3.1,2.9-4,4.8c-0.5,1-1,2-1.4,3
			c-0.1,0.4-0.3,0.7-0.4,1.1c0,0.2-0.1,0.4-0.1,0.6c0,0.1,0,0.3,0,0.4c-0.5,1.3-0.8,2.7-0.9,4.1c-0.1,1.8,0.2,3.7,0.7,5.5
			c0.6,1.8,1.4,3.5,2.4,5.1c1,1.8,2.3,3.5,3.8,4.9c1.4,1.3,3.1,2.4,4.9,3.2c1.9,0.8,4,0.6,6,0.6c3.9-0.1,7.7-1.4,11-3.5
			c1.5-1.1,2.9-2.4,4-3.8c1.3-1.4,2.3-3.1,2.9-4.9c1.1-3.9,1.2-8,0.3-11.9C184.4,389.7,182.4,386.3,179.4,384z M182.4,401.4
			c-0.2,1.7-0.7,3.3-1.5,4.8c-0.9,1.4-1.9,2.6-3,3.7c-2.3,2.1-5.1,3.5-8.1,4.1c-1.7,0.3-3.4,0.5-5.1,0.4c-1.7,0.1-3.4-0.4-4.8-1.5
			c-1.6-1.2-3-2.6-4.1-4.2c-0.9-1.5-1.8-3.1-2.5-4.7c-0.7-1.6-1-3.3-1-5c0-1,0.2-2,0.5-3l0.1-0.1c0.2-0.3,0.3-0.6,0.3-0.9
			c0.1-0.4,0.3-0.8,0.4-1.1c0.1-0.3,0.1-0.6,0.1-0.9c0.1-0.3,0.2-0.5,0.4-0.8c0.6-1.6,1.5-3,2.6-4.2c2.4-2.3,5.4-3.9,8.6-4.6
			c1.6-0.4,3.3-0.5,4.9-0.2c1.7,0.4,3.3,1,4.8,1.9c2.9,1.4,5.1,3.8,6.4,6.7C182.4,394.8,182.8,398.1,182.4,401.4L182.4,401.4z"/>
		<path class="st6" d="M486.6,385.3c-3-2.4-6.6-3.8-10.5-4.1c-4.4-0.2-8.6,2-12,4.5c-1.6,1.2-2.9,2.8-3.8,4.6
			c-0.5,0.9-0.9,1.9-1.3,2.9c-0.1,0.3-0.3,0.7-0.4,1c0,0.2-0.1,0.4-0.1,0.6c0,0.1,0,0.3,0,0.4c-0.5,1.2-0.8,2.6-0.9,3.9
			c-0.1,1.8,0.2,3.5,0.6,5.2c0.6,1.7,1.3,3.3,2.2,4.8c0.9,1.8,2.2,3.3,3.6,4.7c1.4,1.3,3,2.3,4.7,3c1.9,0.7,3.8,0.6,5.8,0.5
			c3.7-0.1,7.4-1.3,10.5-3.4c1.4-1,2.7-2.2,3.8-3.6c1.2-1.3,2.2-2.9,2.8-4.7c1-3.7,1.1-7.6,0.3-11.3
			C491.3,390.8,489.4,387.6,486.6,385.3z M489.4,401.9c-0.2,1.6-0.7,3.1-1.4,4.5c-0.8,1.3-1.8,2.5-2.8,3.5c-2.2,2-4.8,3.3-7.7,3.9
			c-1.6,0.3-3.2,0.4-4.8,0.4c-1.6,0.1-3.3-0.4-4.6-1.4c-1.5-1.1-2.9-2.5-3.9-4c-0.9-1.4-1.7-3-2.4-4.5c-0.7-1.5-1-3.1-0.9-4.7
			c0-1,0.2-1.9,0.5-2.8c0,0,0-0.1,0.1-0.1c0.2-0.3,0.2-0.6,0.3-0.9l0.4-1.1c0.1-0.3,0.1-0.6,0-0.9l0.3-0.7c0.6-1.5,1.4-2.8,2.5-4
			c2.3-2.2,5.1-3.7,8.2-4.4c1.5-0.4,3.1-0.5,4.7-0.2c1.6,0.4,3.1,1,4.6,1.8c2.7,1.3,4.9,3.6,6.1,6.4
			C489.4,395.6,489.8,398.8,489.4,401.9L489.4,401.9z"/>
		<path class="st6" d="M555.2,385.3c-3-2.4-6.6-3.8-10.4-4.1c-4.4-0.2-8.6,2-12,4.5c-1.6,1.2-2.9,2.8-3.8,4.6
			c-0.5,0.9-0.9,1.9-1.3,2.9c-0.1,0.3-0.3,0.7-0.4,1c0,0.2-0.1,0.4-0.1,0.6c0,0.1,0,0.3,0,0.4c-0.5,1.2-0.8,2.5-0.8,3.9
			c-0.1,1.8,0.1,3.5,0.7,5.2c0.6,1.7,1.3,3.3,2.2,4.8c0.9,1.8,2.2,3.3,3.7,4.7c1.4,1.3,3,2.3,4.7,3c1.8,0.7,3.8,0.6,5.8,0.5
			c3.7-0.1,7.4-1.3,10.5-3.4c1.4-1,2.7-2.2,3.8-3.6c1.2-1.3,2.2-2.9,2.8-4.7c1-3.7,1.2-7.6,0.3-11.3
			C560,390.7,558.1,387.6,555.2,385.3z M558.1,401.9c-0.2,1.6-0.7,3.1-1.4,4.5c-0.8,1.3-1.8,2.5-2.8,3.5c-2.2,2-4.8,3.3-7.7,3.9
			c-1.6,0.3-3.2,0.4-4.8,0.4c-1.6,0.1-3.3-0.4-4.6-1.4c-1.5-1.1-2.9-2.5-3.9-4c-0.9-1.4-1.7-3-2.4-4.5c-0.7-1.5-1-3.1-0.9-4.7
			c0-1,0.2-1.9,0.5-2.8l0.1-0.1c0.1-0.3,0.2-0.6,0.3-0.9c0.1-0.4,0.3-0.7,0.4-1.1c0.1-0.3,0.1-0.6,0.1-0.9c0.1-0.3,0.2-0.5,0.3-0.7
			c0.6-1.5,1.4-2.8,2.5-4c2.3-2.2,5.1-3.7,8.2-4.4c1.5-0.4,3.1-0.5,4.7-0.2c1.6,0.4,3.1,1,4.6,1.8c2.7,1.3,4.9,3.6,6.1,6.4
			C558.1,395.6,558.5,398.8,558.1,401.9L558.1,401.9z"/>
		<path class="st6" d="M625.9,385.3c-3-2.4-6.6-3.8-10.5-4.1c-4.4-0.2-8.6,2-12,4.5c-1.6,1.2-2.9,2.8-3.8,4.6
			c-0.5,0.9-0.9,1.9-1.3,2.9c-0.1,0.3-0.3,0.7-0.4,1c0,0.2-0.1,0.4-0.1,0.6c0,0.1,0,0.3,0,0.4c-0.5,1.2-0.8,2.5-0.9,3.8
			c-0.1,1.8,0.1,3.5,0.7,5.2c0.6,1.7,1.3,3.3,2.2,4.8c1,1.7,2.2,3.3,3.7,4.7c1.4,1.3,3,2.3,4.7,3c1.8,0.7,3.8,0.6,5.8,0.5
			c3.7-0.1,7.4-1.3,10.5-3.4c1.4-1,2.7-2.2,3.8-3.6c1.3-1.3,2.2-2.9,2.8-4.7c1-3.7,1.1-7.6,0.3-11.3
			C630.6,390.7,628.7,387.6,625.9,385.3z M628.8,401.9c-0.2,1.6-0.7,3.1-1.4,4.5c-0.8,1.3-1.8,2.5-2.8,3.5c-2.2,2-4.8,3.3-7.7,3.9
			c-1.6,0.3-3.2,0.4-4.8,0.4c-1.6,0.1-3.3-0.4-4.6-1.4c-1.5-1.1-2.9-2.5-3.9-4c-0.9-1.4-1.7-3-2.4-4.5c-0.7-1.5-1-3.1-0.9-4.7
			c0-1,0.2-1.9,0.5-2.8l0.1-0.1c0.1-0.3,0.2-0.6,0.3-0.9c0.1-0.4,0.3-0.7,0.4-1.1c0.1-0.3,0.1-0.6,0.1-0.9c0.1-0.3,0.2-0.5,0.3-0.7
			c0.6-1.5,1.4-2.8,2.5-4c2.3-2.2,5.1-3.7,8.2-4.4c1.5-0.4,3.1-0.5,4.7-0.2c1.6,0.4,3.1,1,4.6,1.8c2.7,1.3,4.9,3.6,6.1,6.4
			C628.8,395.6,629.1,398.8,628.8,401.9L628.8,401.9z"/>
		<path class="st6" d="M422.5,383.7l-0.1-0.1C422.5,383.6,422.5,383.7,422.5,383.7L422.5,383.7z"/>
		<path class="st6" d="M670,159.8c-0.1-3-2.3-4.1-4.9-4.8c-1.5-0.2-3.1-0.3-4.6-0.2c-1.8,0-3.7-0.2-5.5-0.4c-4-0.4-7.9-0.7-11.9-0.7
			s-7.8-0.3-11.6,0.1c-4.1,0.4-8.3,0.3-12.4,0.3s-8.2,0.1-12.3,0c-3.7-0.1-7.5-0.5-11.2-0.7c-4.1-0.2-8.3-0.5-12.4-0.4
			s-8,0.4-12,0.1c-4-0.3-7.9-0.3-11.9,0c-3.9,0.3-7.7,0.3-11.6,0c-8.1-0.3-16.3-0.9-24.5-0.5s-16.3,0.6-24.4,1.1s-16.5,1.7-24.8,1.1
			c-4-0.3-7.9-1.1-11.9-1.5s-8-0.2-12-0.2s-8.1-0.4-12.2-0.4s-8.2,0.2-12.2,0c-3.8-0.2-7.6-0.7-11.4-0.7c-4,0-8.1,0-12.1,0
			s-8.3,0-12.4,0c-4-0.2-8-0.1-12,0.2c-1.8,0.3-3.7,0.4-5.5,0.3c-2-0.2-4-0.7-6-0.8c-4.1-0.2-8.1-0.2-12.2,0
			c-8.2,0.6-16.4,1.3-24.7,0.9c-4.2-0.2-8.5-0.5-12.7-0.3c-3.9,0.2-7.7,0.4-11.5,0.4c-8.2,0-16.2,0-24.4-0.6
			c-8-0.6-16.1-0.6-24.2-0.1c-3.9,0.2-7.8,0.9-11.8,0.9c-4.1,0-8.2-0.1-12.4-0.1c-1.9,0-3.6-0.2-5.5-0.4c-2-0.2-3.7,0.5-5.7,0.7
			c-0.4,0-0.7,0.2-1,0.4H220h-0.3c-0.6,0.2-1,0.6-1.1,1.1c-0.3,1.1,0.3,2.1,0.3,3.2s0,2.5,0,3.7c0,2.6,0,5.3,0,7.9
			c0,1.9-0.4,4.3,1.6,5.3c1.4,0.5,2.8,0.7,4.3,0.4c0,1.6-0.1,3.1,0,4.6c0.1,1.9,0.8,3.7,1,5.6c0.1,1.8,0.1,3.7,0,5.5
			c0,1.9,0.1,3.8,0.4,5.8c0.1,1.8,0.1,3.7-0.1,5.5c-0.1,2.1,0,4.2,0.2,6.3c0.1,1.9,0.1,3.9,0.1,5.8s0.1,4.1,0,6.2
			c-0.1,1.7-0.3,3.4-0.3,5.1c0,2,0.1,4,0,6c-0.1,4-0.4,7.9-0.4,11.8v23.9c0,2.3,0,4.6,0,6.9c0,1.9-0.4,3.8-0.4,5.7c0,3,0,6,0,8.9
			c-0.2,0-0.4,0-0.7,0c-0.4,0-1,0.2-1.3,0.2s-0.9-0.1-1.3-0.2s-0.9,0-1.4,0c-1-0.1-2-0.1-3,0l-0.3,0h-2c-0.1-1.9,0-3.8,0.1-5.7
			c0.2-2.4,0.3-4.7,0.5-7.1c0.2-1.8-0.1-4.5-1.2-5.9s-3.6-1.3-5.4-1.5c-1-0.1-2-0.1-3.1,0c-0.9-0.1-1.8-0.1-2.7-0.1
			c0.1-2,0.2-4,0.2-6c0.1-3.6,0-7.1,0-10.7c0-3.1,0.3-6.5-0.6-9.5c-0.8-2.8-3.5-5.1-5.8-6.8c-2.6-2-5.4-2.5-8.6-2.7
			c-3.4-0.3-6.7-0.3-10.1-0.2c-6.9,0.1-13.8,0-20.7,0c-3.7,0-7.4-0.3-11.1-0.3c-2,0-4.1,0.1-6.1-0.1s-4-0.2-6-0.2
			c-3.4,0-6.8-0.1-10.3,0s-6.8,0.5-10.2,0.2c-2.5-0.2-5,0.9-7.3,1.6c-2.2,0.6-4.2,1.7-6,3.1c-1.8,1.2-3.3,2.9-4.4,4.8
			c-1,2-2,4-2.9,6.1c-1,2.3-2.3,4.4-3.4,6.6c-1.1,2.3-1.8,4.7-2.6,7c-1.7,4.8-3.9,9.4-5.6,14.2c-1.7,4.8-3,9.6-4.2,14.6
			c-0.6,2.4-1.3,4.7-1.9,7.1s-1.2,4.9-1.8,7.4c-0.6,2.2-1.1,4.4-1.6,6.7c-0.4,0.1-0.7,0.2-1.1,0.2c-0.6-0.1-1.2-0.2-1.8-0.3
			c0.1-0.2-0.1-0.7-0.1-0.9c0-0.7,0.2-1.4,0.2-2.1c0.1-2.9,0-5.8,0-8.7v-0.9c0.2,0,0.3,0.1,0.5,0.1c1.2-0.1,2.2-0.6,3-1.5
			c1-1.1,0.9-2.8,0.7-4.2c-0.2-2-0.2-4-0.2-6s0-3.8,0-5.7s0.3-3.8,0.2-5.7c0-1.4-1.1-2.5-2.4-2.5c-0.1,0-0.1,0-0.2,0
			c-1.5,0.1-2.6,1.9-3.4,3c-1,1.2-1.5,2.8-1.4,4.5c0.1,0.7,0.3,1.3,0.3,2c0,0.9-0.1,1.8-0.1,2.7c0,3.9,0,7.8-0.3,11.7
			c-0.3,4.4-0.1,8.8-0.3,13.1c-0.1,1.6,0.3,3.9,2.2,4.4c0.8,0.1,1.6,0.2,2.4,0.2c0.3,0,0.6,0,0.9,0c-0.3,1.7-0.6,3.4-0.8,5.1
			c-0.6,5.1-0.9,10.2-0.9,15.4c-0.1,5.8,0.2,11.6,0.5,17.5c0.2,2.9,0.6,5.8,0.8,8.6c0.1,1.3,0.2,2.5,0.5,3.8
			c0.1,0.6,0.2,1.2,0.2,1.8c0,0,0,0.1,0,0.1c0.1,0.2,0,0.4-0.1,0.6c-0.1,0.1-0.1,0.2-0.2,0.2c-0.1,0.1-0.2,0.1-0.3,0.1l0.1-0.1
			l-0.4,0.2c-0.1,0.2-0.1,0.3-0.1,0.5l0,0c-0.7,0.5-1.2,1.2-1.4,2c-0.6,2.1-0.3,4.3-0.3,6.4c0,4.6,0.6,9.1,2,13.5
			c1.5,4.1,2.3,8.2,5.9,11c1.7,1.3,3.6,2.2,5.7,2.7c2.2,0.5,4.4,0.7,6.6,0.6c1.1,0,2.2-0.3,3.3-0.3c1,0.1,1.9-0.1,2.8-0.5
			c0.3-0.2,0.6-0.5,0.7-0.8c1,0.1,2,0.1,2.9-0.1c1.5,0,3.1,0,4.6,0c2.7,0,5.3-0.3,8-0.5c4.7-0.3,11.5-0.5,13.6-5.7
			c0.4-1.2,0.7-2.4,0.7-3.6c0.1-1.5,0.2-3,0.5-4.5c0.2-1.2,0.2-2.5,0.2-3.8c0.1-1.4,0.1-2.7,0-4.1v-0.1c0.1-0.7,0.2-1.3,0.4-2
			c0.3-1.5,0.7-3,1.2-4.5c1.1-2.8,1.8-5.4,3.7-7.8s4.5-3.9,7.1-5.5c1.3-0.7,2.5-1.3,3.9-1.9c0.6-0.3,1.2-0.7,1.9-1s1.5-0.4,2.2-0.6
			c2.9-0.9,5.9-1.4,8.9-1.4c1.4,0,2.7,0.3,4.1,0.3c1.6,0,3.1-0.1,4.7-0.1c3.2,0,6.5,0.5,9.7,0.6s6.6,0,9.9,0h5.1h0.9
			c2.6,3.6,6.2,6.7,9.6,9.5c1.5,1.4,2.9,3,4.1,4.6c0.5,0.6,1,1.1,1.5,1.5c0.1,0.3,0.2,0.5,0.4,0.7c-0.4-0.5-0.3-0.4-0.3,0.2
			c0,0.3,0,0.6,0,0.9c0,0.2,0.1,0.3,0.1,0.5c-0.3,0.8-0.4,1.7-0.3,2.6c0,1.7,0,3.4,0,5c0,1.9,0,3.8-0.1,5.8c0,1.9,0.1,3.7,0.3,5.6
			c0.1,1.9,0.2,3.7,0.2,5.6s0.2,3.6,0.2,5.4c0,3.5,0.8,6.9-0.7,10.2c-0.4,0.8-0.2,1.8,0.6,2.2c0.8,0.5,1.8,0.6,2.7,0.2
			c1.1-0.3,2.2-0.2,3.3-0.5c2.7-0.6,2.6-3.6,2.7-5.7c0.1-2.5,0.8-5,0.5-7.6c-0.3-2.7-0.3-5.5-0.6-8.2c-0.4-3.8-0.6-7.7-1.1-11.6
			c0.8,0,1.7,0,2.5,0c0.8-0.1,1.6-0.3,2.4-0.4s1.4,0,2.1,0c1.4-0.1,3.1-0.5,4.4-0.6c0.5-0.1,1.1,0,1.6-0.1c0.1,0.8,0.2,1.6,0.3,2.4
			c0.2,0.8,0.3,1.6,0.3,2.4c-0.1,0.8-0.1,1.5,0,2.3c-0.2,0.9,0.4,1.8,1.3,2c0.4,0.1,0.8,0,1.1-0.2c0.8-0.3,1.7-0.4,2.5-0.2
			c1.1,0.1,2.2,0.1,3.3,0.1c2.6,0,5.3,0.4,7.9,0.4c5.4,0,10.7,0.7,16.1,0.7c5.4,0,10.8,0,16.2-0.1s11-0.6,16.5-0.8
			c10.9-0.2,21.8,0.1,32.7,0.1c0.7,0,1.4,0,2.1,0c-0.3,1.2-0.5,2.5-0.4,3.8c-0.1,1.4,0,2.8,0.3,4.1c0.3,1.2,1,2.2,2,2.8
			c1.2,0.6,2.6,0.3,3.9,0.3c6.8,0,13.6,0,20.4-0.2s13.5-0.2,20.2-0.2h14.7c1.5,0.1,2.9,0.1,4.4,0c1.2,0,2.4-0.4,3.4-1
			c0.8-0.9,1.2-2.1,0.9-3.3c-0.1-1.4-0.5-2.7-0.5-4.1c0-1,0.1-1.9,0.3-2.9c1.1,0,2.2-0.1,3.3-0.1c1.3,0,2.6-0.1,3.9-0.3
			c1.4-0.1,2.8,0,4.1,0s2.6-0.3,4-0.3s2.7,0.1,4,0c1.3-0.1,2.6-0.2,3.9-0.5c0.9-0.1,1.7-0.2,2.5-0.3l0,0.1c1.1,1.7,3.5,1.3,5.2,1.3
			s3.6,0,4.9-1.4s1.7-3.1,2.6-4.5c1.2-1.7,2.7-3.3,4.5-4.5c1.8-1.4,3.7-2.5,5.5-3.9c1.7-1.2,3.3-2.8,5.4-3.2c0.6-0.1,1-0.6,1.1-1.1
			c0,0,0-0.1,0-0.1c0.4-0.1,0.8-0.4,1-0.7c0.1-0.1,0.1-0.2,0.2-0.4l0.1-0.2c0.1-0.1,0.2-0.1,0.3-0.1l-0.2,0.1l0,0
			c0.4-0.2,0.8-0.4,1.2-0.5s1.1-0.3,1.6-0.5c0.3-0.1,0.6-0.2,0.9-0.4c1.2,0.1,2.4,0,3.7,0h1.1l-1.3,0.6c-3,1.7-5.7,3.9-7.9,6.4
			c-2.8,2.9-5.1,6.3-6.8,9.9c-0.9,1.8-1.6,3.6-2.2,5.5c-0.5,1.8-0.8,3.7-0.9,5.7c-0.3,3.9,0,7.9,0.9,11.7c0.5,1.8,1.2,3.5,2.2,5
			c0.9,1.5,1.9,3,3,4.3l0,0c0.1,0.3,0.3,0.6,0.5,0.8c0.5,0.5,1,1,1.6,1.4c1.2,1.1,2.2,2.4,3.5,3.4c2.6,2.1,5.6,3.4,8.7,4.7
			c3.1,1.4,6.5,2.1,9.9,2c1.8,0,3.6,0.1,5.5-0.1c1.8-0.2,3.6-0.7,5.4-1.3c1.5-0.4,3-0.9,4.5-1.5c0.8-0.4,1.6-0.8,2.4-1.2
			s1.5-0.5,2.2-0.9c1.4-0.8,2.6-1.8,3.8-2.9c1.3-1.1,2.5-2.3,3.6-3.6c1-1.1,1.9-2.3,2.6-3.6c0.8-1.6,1.8-3.1,2.6-4.7
			c0.7-1.7,1.2-3.4,1.7-5.1c0.5-1.7,0.8-3.4,0.9-5.1c0.1-3.5-0.2-6.9-1.1-10.3c-0.2-0.7-0.4-1.3-0.6-2c-0.3-0.8-0.4-1.7-0.6-2.5
			c-0.5-1.7-1.3-3.2-2-4.9c-0.6-1.3-1.4-2.5-2.5-3.6c-1-1.1-1.9-2.2-3-3.2c0-0.2-0.1-0.5-0.2-0.7c-0.5-0.8-1.3-1.3-2.1-1.6
			c-0.5-0.4-1.1-0.8-1.6-1.3c-0.7-0.7-1.5-1.3-2.3-1.9h1.3c3.6,0,7,0.1,10.6,0.4c3.7,0.3,7.4,0.4,11.1,0.3c5,0,9.9,0,14.8,0
			l-0.6,0.3c-3,1.7-5.7,3.9-7.9,6.4c-2.8,2.9-5.1,6.3-6.8,9.9c-0.9,1.8-1.6,3.6-2.2,5.5c-0.5,1.8-0.8,3.7-0.9,5.7
			c-0.3,3.9,0,7.9,0.9,11.7c0.5,1.8,1.2,3.5,2.2,5c0.9,1.5,1.9,3,3,4.3l0,0c0.1,0.3,0.3,0.6,0.5,0.8c0.5,0.5,1,1,1.6,1.4
			c1.2,1.1,2.2,2.4,3.5,3.4c2.6,2.1,5.6,3.4,8.7,4.7c3.1,1.4,6.5,2.1,9.9,2c1.8,0,3.7,0.1,5.5-0.1c1.8-0.2,3.6-0.7,5.4-1.3
			c1.5-0.4,3-0.9,4.5-1.5c0.8-0.4,1.6-0.8,2.4-1.2s1.5-0.5,2.2-0.9c1.4-0.8,2.6-1.8,3.8-2.9c1.3-1.1,2.5-2.4,3.6-3.6
			c1-1.1,1.9-2.3,2.6-3.6c0.8-1.6,1.8-3.1,2.6-4.7c0.7-1.7,1.2-3.4,1.7-5.1c0.5-1.7,0.8-3.4,0.9-5.1c0.2-3.5-0.2-6.9-1.1-10.3
			c-0.2-0.7-0.4-1.3-0.6-2c-0.3-0.8-0.4-1.7-0.6-2.5c-0.5-1.7-1.3-3.2-2-4.9c-0.6-1.3-1.4-2.5-2.5-3.6c-0.8-0.9-1.5-1.8-2.4-2.6
			c0.2-0.3,0.4-0.6,0.4-1l-0.5-0.6c-0.4-0.4-0.7-0.7-1.1-1.1l-0.1-0.1c-0.7,0-1.4-0.1-2.1-0.2c-0.4-0.3-0.9-0.7-1.3-1
			s-1.1-1-1.7-1.4c1.5,0,2.9,0,4.4,0c0.1-0.1,0.1-0.1,0.2-0.2c0.4-0.3,1-0.2,1.4,0.2c5.5-0.1,11-0.4,16.5-0.4c3.8,0,7.6,0.1,11.3,0
			c2.6,0,5.2-0.2,7.8-0.4c-1,0.4-1.9,0.9-2.8,1.4c-3,1.7-5.7,3.9-7.9,6.4c-2.8,2.9-5.1,6.3-6.8,9.9c-0.9,1.8-1.6,3.6-2.2,5.5
			c-0.5,1.8-0.8,3.7-0.9,5.7c-0.3,3.9,0,7.9,0.9,11.7c0.5,1.8,1.2,3.5,2.2,5c0.9,1.5,1.9,3,3,4.3l0,0c0.1,0.3,0.3,0.6,0.5,0.8
			c0.5,0.5,1,1,1.6,1.4c1.2,1.1,2.2,2.4,3.5,3.4c2.6,2.1,5.6,3.4,8.7,4.7c3.1,1.4,6.5,2,9.9,2c1.8,0,3.7,0.1,5.5-0.1
			c1.8-0.2,3.6-0.7,5.4-1.3c1.5-0.4,3-0.9,4.5-1.5c0.8-0.4,1.6-0.8,2.4-1.2s1.5-0.5,2.2-0.9c1.4-0.8,2.6-1.8,3.8-2.9
			c1.3-1.1,2.5-2.3,3.6-3.6c1-1.1,1.9-2.3,2.6-3.6c0.8-1.6,1.8-3.1,2.6-4.7c0.7-1.7,1.2-3.4,1.7-5.1c0.5-1.7,0.8-3.4,0.9-5.1
			c0.1-3.5-0.2-6.9-1.1-10.3c-0.2-0.7-0.4-1.3-0.7-2c-0.3-0.8-0.4-1.7-0.6-2.5c-0.5-1.7-1.3-3.2-2-4.9c-0.6-1.3-1.4-2.5-2.5-3.6
			c-1.1-1.3-2.2-2.6-3.5-3.7c-1.1-1.1-2.4-1.9-3.6-2.8c-1.1-1.1-2.4-2-3.8-2.6l-0.5-0.1c1.5-0.2,3.1-0.2,4.6-0.2
			c2,0,4.1,0.1,6.1,0.1c1.8,0,3.6-0.4,5.5-0.4c0.4,0.3,0.8,0.6,1.2,0.8c0.3,0.3,0.6,0.8,0.8,1c0.7,0.7,1.3,1.5,1.6,2.4
			c0.4,1.1,0.8,2.1,1.1,3.2s0.4,2.3,0.6,3.5c0.8,4.6,1.7,9.4,3.4,13.7c0.5,1.6,1.5,3.1,2.8,4.2c1,0.8,2.4,0.6,3.2-0.4
			c0.2-0.3,0.4-0.7,0.5-1.1c0.3-1.7-0.4-3.8-0.7-5.5c-0.4-2.6-0.9-5.2-1.2-7.8s-0.9-5.3-1.2-8c-0.2-2-0.7-4-1-6c0.5,0,1-0.1,1.4-0.2
			c1-0.3,1.8-0.9,2.4-1.6c0.9-1.1,1.8-2.8,1.4-4.1c0.5-1.3,0.7-2.6,0.6-4c0.1-3,0.3-5.9,0.3-8.9c0-3.3,0-6.6,0-9.9s0.4-6.6,0.4-9.9
			c0-6.6,0.1-13.2,0.3-19.8c0.1-3.3-0.1-6.5-0.1-9.8c0-1.4,0.2-2.8,0.4-4.2c0.2-1.6,0.2-3.2,0.1-4.9c0-1.5-0.1-3-0.3-4.5
			c-0.2-1.6-0.1-3.3,0.1-4.9c0.2-3.2,0.2-6.3,0-9.5c0-1.5,0-3.1,0.1-4.6c0.1-1.7,0.5-3.4,0.7-5.1c0.4-3.2,0-6.4,0.3-9.6
			c0.6-6.6,0.1-13.3,0.2-19.9c0-3.1-0.5-6.1-0.2-9.2c0.3-3.3,0.3-6.6,0.2-9.9c0-1.8,0.2-3.4,0.3-5.2c-0.1-1.9,0-3.8,0.2-5.7
			c0.6-3.2,0.9-6.4,1.1-9.7c0.1-1.8,0.1-3.7-0.1-5.6c-0.2-0.8-0.3-1.6-0.3-2.5c0-0.8,0.3-1.5,0.4-2.2c0-0.8-0.1-1.6-0.3-2.3
			c-0.1-0.8-0.1-1.5-0.1-2.3c0-0.6,0-1.1,0.1-1.6c0.7,0,1.3-0.3,1.8-0.7c1.4-1.4,0.8-4.1,0.7-5.9C668.8,166.8,670.2,163.3,670,159.8
			z M123.9,389.9c-0.2,1.2-0.2,2.4-0.3,3.6c0,1-0.3,2-0.8,2.9c-0.7,0.8-1.6,1.4-2.7,1.8c-2.2,1-4.8,1-7.1,1.1
			c-2.7,0.1-5.3,0.5-8,0.5h-3.9c-0.7,0-1.4,0-2.1,0.1c-0.5,0.1-1,0.1-1.6,0c-0.1,0-0.2-0.1-0.3-0.1c-0.1-0.2-0.2-0.4-0.4-0.6
			c-1.2-1.5-3.2,0.3-2.6,1.9c0,0,0,0.1,0,0.1c-0.3,0-0.5,0-0.8,0c-0.9,0-1.7,0.2-2.6,0.3c-2.1,0.2-4.2,0.1-6.3-0.4
			c-2-0.4-3.8-1.3-5.3-2.6c-1.4-1.3-2.5-3-3-4.9c-0.7-2-1.4-4-2-6c-0.5-2.1-0.9-4.3-1-6.5c-0.2-2.1-0.2-4.2-0.3-6.4
			c-0.1-0.9,0-1.9,0.1-2.8c0.1-0.3,0.3-0.7,0.2-0.7c1-0.6,2.1-0.8,3.2-0.5c1.3,0.2,2.5,0.5,3.8,0.9c2.7,0.6,5.4,1,8.2,1.1
			c1.1,0,2.1,0.4,2.9,1c0.7,0.9,1.1,2.1,1.2,3.2c0.2,1.3,0.4,2.7,0.6,4c0.2,1.3,0.3,2.6,0.3,3.9c0,0.9,0.7,1.6,1.6,1.6
			c0.9,0,1.6-0.7,1.6-1.6v-0.2c0-1.4-0.2-2.8-0.4-4.1c0-0.2-0.1-0.4-0.1-0.7c2.1-0.1,4.2-0.4,6.3-0.5c2.6,0,5.2,0,7.8,0
			s5-0.1,7.5-0.2c1.6-0.1,4-0.3,5.3,0.9C125.4,381.8,124.2,387.5,123.9,389.9z M193,353.9c-1.5-0.1-2.9-0.1-4.4,0h-5.2
			c-3.3,0-6.6,0.1-9.8-0.1c-3.2-0.3-6.4-0.5-9.6-0.5c-1.5,0.1-3.1,0.1-4.6,0c-1.6-0.2-3.2-0.2-4.8-0.1c-3,0.4-6,0.9-9,1.7
			c-1.2,0.4-2.4,0.9-3.5,1.6c-1.5,0.6-2.9,1.4-4.3,2.2c-2.6,1.6-5.2,3.1-7.2,5.5c-1.1,1.2-2,2.6-2.7,4c-0.7,1.6-1.2,3.3-1.8,4.9
			c-0.4,1.3-0.8,2.6-1.2,3.9c-2.5-1.5-6.3-1.2-9.1-1c-3.4,0.2-6.9,0-10.3,0c-3.1,0-6.2,0.4-9.4,0.5c0-0.2-0.1-0.5-0.1-0.7
			c-0.2-1.4-0.7-2.8-1.5-4c-0.9-1.1-2.1-1.8-3.5-2.1c-0.7-0.2-1.5-0.3-2.2-0.4c-0.8-0.1-1.5-0.2-2.3-0.3c-1-0.1-1.9-0.1-2.8-0.3
			c0-0.2-0.1-0.5-0.2-0.8c-0.2-0.7-0.3-1.5-0.3-2.2c-0.1-2-0.4-4-0.6-6c-0.2-2.2-0.1-4.4-0.1-6.6s-0.1-4.5-0.1-6.8
			c0.1-4.2-0.2-8.4-1-12.5c-0.4-1.7-0.9-2.8-2.7-3.3c-1.6-0.3-3.3-0.3-4.9,0c0.2-6.5,1-13,2.2-19.3c1-4.8,2.3-9.6,3.6-14.4
			c0.6-2.4,1.4-4.7,1.9-7.1s1.1-4.8,1.8-7.1c1.5-4.7,3.2-9.3,5.1-13.8c0.9-2.2,1.8-4.4,2.6-6.7c0.7-2.4,1.6-4.7,2.6-6.9
			c1.2-2.4,2.5-4.8,3.6-7.3c0.5-1.1,1.1-2.2,1.6-3.3c0.4-1,0.9-1.9,1.4-2.8c0.8-1,1.8-1.8,2.8-2.6c1-0.8,2.1-1.5,3.3-2.1
			c1.2-0.5,2.4-0.7,3.6-1.1l1.4-0.4c0.1,0.1,0.3,0.1,0.4,0.1c0.9-0.2,1.8-0.2,2.7-0.2c6-0.7,12.2-0.6,18.3-0.5
			c6.6,0.1,13.1,0.3,19.7,0.6c3.2,0.1,6.4,0.1,9.6,0c3.4-0.1,6.7,0.1,10.1,0.1s6.7-0.1,10-0.1c1.5,0,3.1,0,4.6,0.1
			c1.6,0,3.2,0.2,4.9,0.5c2.8,0.8,5.3,2.5,7.1,4.9c0.8,1,1.4,2.2,1.5,3.6c0.2,1.6,0.2,3.2,0.2,4.9c0,3.5,0.1,7,0.1,10.5
			s-0.3,6.8-0.3,10.1c0,1.5,0.1,3,0.1,4.5c0,1.7-0.4,3.4-0.5,5c-0.2,3.2,0,6.5-0.4,9.7s-0.6,6.4-0.7,9.6s-0.4,6.7-0.3,10
			c0,3.8-0.7,7.5-0.6,11.3s-0.3,7.4-0.2,11.2c0,1.7-0.3,3.4-0.3,5s0,3.7,0,5.5s-0.2,3.5-0.3,5.3c0,0.9,0,1.9-0.1,2.8
			C196.2,352.9,195.7,354.2,193,353.9L193,353.9z M226.6,357.4c0,1-0.1,1.9-0.1,2.9c-1.6,0.1-3.1,0.3-4.7,0.6
			c-2.1,0.4-4.2,0.5-6.3,0.4c-2.1,0-4.3,0.2-6.4,0.3c-1.1,0-2.3,0-3.4,0c-0.7,0-1.4,0.1-2.2,0.1c-0.7-0.6-1.8-0.6-2.4,0.1
			c-0.1,0.1-0.2,0.3-0.3,0.4l-0.2,0.1c-0.3-0.3-0.6-0.6-0.9-0.8c-1.6-1.3-3.2-2.8-4.6-4.3c1-0.2,1.8-0.6,2.5-1.3
			c3-3.2,2.4-7.9,2.6-11.9c0.1-1.9,0-3.9,0-5.8c0.7-0.1,1.4-0.2,2.1-0.2c0.4,0,0.7,0,1.1,0c0.1,0.2,0.2,0.4,0.2,0.6
			c0,0.5-0.1,1-0.1,1.5c-0.1,1.4,0.8,2.6,2.2,2.9c0.8,0.1,1.6,0.2,2.4,0.2c0.8,0,1.6,0.2,2.5,0.2c1.9,0,3.8,0.2,5.8,0.2
			c0.9,0,1.7-0.2,2.5-0.2c0.7,0,1.3-0.1,2-0.2c0.1,0,0.2,0,0.3,0c1.2,0.1,2.3,0,3.5-0.2h0.1c0.1,0,0.2,0,0.3,0h0.6
			c0.2,0.1,0.5,0.2,0.8,0.2c-0.1,3,0,5.9,0,8.9L226.6,357.4z M394.1,399.5l-0.4,0.1c-0.5,0.1-1,0.2-1.6,0.2c-2.6,0.2-5.2,0-7.8,0
			h-8.8c-11.8,0-23.5,0.4-35.2,0.4h-7.2c-0.6,0.1-1.2,0.1-1.8,0.1c-1.1-0.3-1-2-1-3c-0.2-1.4,0-2.9,0.3-4.2c0.1-0.2,0.1-0.3,0.1-0.5
			c3.5,0.2,7,0.5,10.5,0.6c5.4,0.1,10.9-0.3,16.3-0.5c6.1-0.2,12.2-0.3,18.2-0.3c1.5,0,3.1,0,4.6,0s2.9-0.3,4.3-0.4
			c2.3-0.1,4.7-0.1,7,0c0.1,0,0.3,0,0.4,0h1.5c-0.1,0.5-0.2,0.9-0.2,1.4c0,1.1,0.1,2.3,0.3,3.4C394,397.7,394.1,398.6,394.1,399.5
			L394.1,399.5z M449.2,371.3c-1.5,0.6-2.9,1.5-4.1,2.5c-1.7,1.3-3.5,2.6-5.3,3.8c-3.4,2.1-6.2,5.1-8.1,8.6c-0.2,0.7-0.6,1.3-1,1.9
			c-0.4,0.3-1,0.4-1.5,0.3c-1.2,0.1-2.4,0.1-3.5,0c0-0.3,0-0.6,0-0.9c0.1-2,0.9-5.6-1.5-6.4c-1.6-0.5-2.5,1.5-1.7,2.6
			c0-0.1,0.1-0.1,0.1,0.1c0.2,0.2,0.4,0.4,0.7,0.5c-0.3-0.1-0.5-0.2-0.7-0.4c0,0.1,0,0.1,0,0.2c0,0.3,0,0.6,0,0.9
			c0,0.6-0.1,1.2-0.1,1.8c0,0.1,0,0.2,0,0.3l-0.2,0.1c-0.8,0.1-1.7,0.2-2.5,0.4c-1.2,0.2-2.5,0.4-3.8,0.4c-1.3,0-2.7-0.1-4,0
			s-2.6,0.3-3.9,0.3c-1.3-0.1-2.6,0-3.9,0.1c-1.3,0.2-2.6,0.3-3.9,0.3c-1.4,0-2.8,0-4.2,0.1c-0.4-0.1-0.7-0.1-1.1,0.1
			c-0.9,0.1-1.7,0.1-2.6,0.2h-6.5c-2.6,0-5.3,0.4-7.9,0.4c-5.5,0-11.1-0.1-16.6,0.1s-11.1,0.4-16.6,0.6s-10.9-0.4-16.3-0.7
			s-10.9,0-16.3-0.1s-11-0.2-16.6-0.1s-11.2,0.5-16.8,0.7s-11,0.2-16.4,0.2c-3,0-6,0-9.1-0.1s-6.1-0.6-9.2-0.6s-6-0.4-9-0.4
			c-1.4,0-2.9-0.2-4.3-0.1c0-0.4,0-0.9,0-1.3c-0.1-1-0.3-1.9-0.4-2.9s-0.3-1.9-0.3-2.8s0-2,0-2.9c-0.1-1.9,0-3.9,0.2-5.8l0.1-0.4
			c1,0,2,0.1,3,0.2c1.7,0.2,3.4,0.1,5.1,0.3c3.6,0.5,7.3,0,10.9,0c1.8,0,3.6,0,5.3,0.1s3.4,0.4,5.1,0.4s3.2-0.1,4.9-0.3
			c1.8-0.1,3.7-0.1,5.5,0.1c7.2,0.8,14.7,0.1,22,0.1c3.7,0,7.5-0.1,11.2-0.1s7.5,0.5,11.2,0.5c7.3,0,14.6-0.4,22-0.6
			c7.5-0.1,15-0.5,22.4-0.6c3.6-0.1,7.2,0,10.9,0.2c1.6,0.1,3.2,0.4,4.9,0.5c1.9,0.1,3.8,0.1,5.8,0.1c7.3-0.1,14.6,0.2,22,0
			c3.9-0.1,7.8-0.2,11.6-0.5c2.1-0.1,4.1-0.4,6.2-0.3c2.1,0.1,4.1,0,6.2-0.2c3.9-0.4,7.9-0.8,11.8-0.9c3.6-0.1,7.1-0.6,10.8-0.7
			C449.2,371,449.2,371.2,449.2,371.3L449.2,371.3z M492.2,377.9c1.4-0.2,2.8,0,4.1,0.4l0.4,0.2c0.3,0.1,0.5,0.1,0.8,0.1
			c0.5,0.5,1,1.1,1.5,1.7c0.9,0.9,1.6,1.9,2.1,3c0.6,1.5,1.4,3,1.9,4.6c1,3,1.6,6,2,9.1c0.3,3,0.1,6.1-0.8,9
			c-0.4,1.6-0.9,3.1-1.5,4.5c-0.7,1.3-1.5,2.6-2.2,3.9c-1.4,2.6-3.3,4.8-5.5,6.7c-1,1-2.2,2-3.5,2.7c-1.3,0.7-2.8,1.2-4.2,1.9
			c-1.5,0.6-3,1.1-4.6,1.5c-1.8,0.7-3.7,1-5.6,1.1c-1.9,0-3.8,0.2-5.7,0c-1.7-0.2-3.4-0.5-5-1c-1.6-0.5-3.2-1.1-4.7-1.9
			c-1.4-0.7-2.8-1.5-4.1-2.4c-1.5-0.9-2.4-2.3-3.7-3.4c-0.6-0.5-1.2-1-1.8-1.5c-0.4-0.5-0.8-1.1-1-1.7c-0.2-0.4-0.5-0.6-0.9-0.7
			c-0.5-0.7-0.9-1.4-1.4-2.1c-0.9-1.3-1.5-2.6-2-4.1c-0.8-3.1-1.1-6.3-1-9.5c0-3.1,0.6-6.1,1.7-9c1.2-3,2.8-5.9,4.8-8.5
			c1.3-1.7,2.7-3.3,4.2-4.8l0,0c1.4,0.3,3.1-0.6,4.5-0.9l0.2,0c5.4,0.2,10.7,0.8,16.1,1.2c3.2,0.2,6.3-0.1,9.5-0.1h0.9l2.6,0.7
			C491.1,378.7,491.8,378.5,492.2,377.9L492.2,377.9z M563.8,376.2l0.9,0.8c1.1,1,2.1,2.1,3,3.2c0.8,0.9,1.5,1.9,2,3
			c0.6,1.5,1.4,3,1.8,4.6c1,2.9,1.6,6,2,9.1c0.3,3,0.1,6.1-0.8,9c-0.4,1.6-0.9,3.1-1.5,4.5c-0.7,1.3-1.5,2.6-2.2,3.9
			c-1.4,2.6-3.3,4.8-5.6,6.7c-1,1-2.2,2-3.5,2.7c-1.3,0.7-2.8,1.2-4.2,1.9c-1.5,0.6-3,1.1-4.6,1.5c-1.8,0.7-3.7,1-5.6,1.1
			c-1.9,0-3.8,0.2-5.7,0c-1.7-0.2-3.4-0.5-5-1c-1.6-0.5-3.2-1.1-4.7-1.9c-1.4-0.7-2.8-1.5-4.1-2.4c-1.5-0.9-2.4-2.3-3.7-3.4
			c-0.6-0.5-1.2-1-1.8-1.5c-0.4-0.5-0.8-1.1-1-1.7c-0.2-0.4-0.5-0.6-0.9-0.7c-0.5-0.7-0.9-1.4-1.4-2.1c-0.9-1.3-1.5-2.6-2-4.1
			c-0.8-3.1-1.1-6.3-1-9.5c0.1-3.1,0.6-6.1,1.7-9c1.2-3,2.8-5.9,4.8-8.5c1.1-1.4,2.2-2.8,3.5-4.1c0.3,0.1,0.5,0.2,0.8,0.1
			c1.7-0.1,3.3-0.1,5-0.1c1.7-0.1,3.4-0.3,5.1-0.5c1.6-0.2,3.1-0.8,4.7-1.1c1.7-0.2,3.4-0.4,5.2-0.4c3.5-0.1,6.9-0.1,10.4-0.1
			c1.8,0,3.5,0,5.3,0C562,376.4,562.9,376.3,563.8,376.2L563.8,376.2z M632.2,378c1.8,1,3.4,2.3,4.7,3.9c0.5,0.6,1.5,0.7,2.1,0.1
			c0.2-0.2,0.3-0.4,0.4-0.6c0.4,0.6,0.8,1.2,1,1.8c0.7,1.5,1.3,3,1.8,4.6c1,2.9,1.7,6,2,9.1c0.3,3,0.1,6.1-0.8,9
			c-0.4,1.6-0.9,3.1-1.5,4.5c-0.7,1.3-1.5,2.6-2.2,3.9c-1.4,2.6-3.3,4.8-5.5,6.7c-1,1-2.2,2-3.5,2.7c-1.3,0.7-2.8,1.2-4.2,1.9
			c-1.5,0.6-3,1.1-4.6,1.5c-1.8,0.7-3.7,1-5.6,1.1c-1.9,0-3.8,0.2-5.7,0c-1.7-0.2-3.4-0.5-5-1c-1.6-0.5-3.2-1.1-4.7-1.8
			c-1.4-0.7-2.8-1.5-4.1-2.4c-1.5-0.9-2.4-2.3-3.7-3.4c-0.6-0.5-1.2-1-1.8-1.5c-0.4-0.5-0.8-1.1-1-1.7c-0.2-0.4-0.5-0.6-0.9-0.7
			c-0.5-0.7-0.9-1.4-1.4-2.1c-0.9-1.3-1.5-2.6-2-4.1c-0.8-3.1-1.1-6.3-1-9.5c0.1-3.1,0.6-6.1,1.7-9c0.8-2.1,1.9-4.1,3.1-6h0.1
			c3.2-2.2,6.5-4.4,10.2-5.6c1.8-0.5,3.7-0.8,5.6-0.8c2-0.1,4-0.4,5.9-0.8c1.9-0.4,3.9-0.7,5.8-0.9c2-0.1,4,0.1,6,0.6
			c1.7,0.6,3.6,0.5,5.3-0.2l0.3-0.1C630.2,377.3,631.2,377.6,632.2,378z M663,186.7c0.2,1.6,0.3,3.2,0.3,4.8c0,3.1-0.2,6.1-0.6,9.1
			c-0.3,1.3-0.5,2.6-0.6,3.9c-0.1,1.6,0.1,3.2,0,4.8c-0.3,3.1-0.2,6.2-0.2,9.4s-0.6,6.3-0.3,9.4c0.6,6.3,0.3,12.8,0.3,19.1
			c0,3.2-0.4,6.4-0.4,9.6c0,1.4,0.1,2.8,0,4.2c-0.1,1.7-0.3,3.4-0.7,5.1c-0.3,3.1-0.3,6.3-0.1,9.5c0,1.4,0.1,2.8,0,4.2
			c-0.1,1.6-0.4,3.2-0.4,4.9s0.4,3,0.5,4.4s-0.1,3,0,4.5c-0.1,1.3-0.2,2.7-0.5,4c-0.1,1.7-0.1,3.4,0,5.1c0.2,6.4-0.3,12.8-0.3,19.1
			c0,3.6,0.1,7.2,0,10.8s-0.3,7.1-0.3,10.6s0.3,7.1-0.1,10.5c-0.2,1.6-0.2,3-0.3,4.6c0,0.7-0.1,1.4-0.3,2.1c0,0-0.1,0.3-0.1,0.6
			c-0.1,0.1-0.2,0.2-0.3,0.3c-0.7,0.4-1,1.3-0.6,2.1c0.1,0.2,0.2,0.3,0.4,0.4c-0.1,0.2-0.2,0.3-0.4,0.5c-0.1,0.2-0.3,0.3-0.5,0.5
			c0-0.1-0.5,0-0.6,0h-0.8c-0.6-0.4-1.4-0.4-2,0h-2c-0.4-0.2-0.8-0.2-1.1,0h-0.7c-1.8,0-3.8-0.1-5.6,0.1c-1.7,0.2-3.3,0.4-5,0.4
			s-3.6-0.1-5.3-0.1c-1.6-0.1-3.2,0-4.8,0.2c-1.7,0.2-3.5,0.1-5.2,0.3c-7,0.6-14-0.2-21,0.3c-7.2,0.5-14.4,0.4-21.6,0.4
			s-14.3,0.5-21.4,0.4c-3.2,0-6.5,0-9.7,0.1c-0.3-0.1-0.5-0.1-0.8-0.2l-0.4-0.1c-3.2,0.2-6.3,0.3-9.5,0.4l-0.3,0.1
			c-0.2,0-0.5,0.1-0.7,0.1h-22.7c-1.7,0-3.4,0.1-5.1,0.1s-3.7-0.2-5.6-0.3c-3.4-0.2-6.7-0.6-10.1-0.5c-4,0-7.9,0-11.9,0H480
			c-2.4-0.4-4.8-0.3-7.1,0.3c-0.3,0-0.6,0-0.9,0.1c-1.8,0.1-3.6,0.1-5.4,0c-2,0-4.1,0-6.1,0c-0.9,0-1.7,0-2.6,0
			c-0.1-0.1-0.3-0.2-0.5-0.2c-0.3-0.1-0.7,0-1,0.1l-1.1-0.1c-1.8-0.3-3.7-0.1-5.5,0.3c-0.4,0.1-0.7,0.3-0.9,0.7
			c-1.2,0-2.5,0.1-3.7,0.2c-1.7,0.3-3.5,0.5-5.3,0.5c-3.6,0.1-7.2,0.5-10.8,0.7c-1.7,0.1-3.4,0.4-5.1,0.4c-1.9,0.1-3.8-0.1-5.8,0
			c-3.5,0.2-7.1,0.3-10.7,0.5c-7.2,0.5-14.5,0.2-21.8,0.2c-3.6,0-7.4,0.3-11-0.1s-7-0.7-10.5-0.8c-7.2-0.1-14.5,0.4-21.7,0.5
			c-7.5,0.1-15,0.5-22.5,0.6s-14.9-0.5-22.4-0.4s-14.8,0.3-22.1,0.2c-3.9-0.1-7.8-0.7-11.7-0.3c-1.9,0.2-3.9,0.3-5.8,0.2
			c-2-0.1-3.9-0.5-5.9-0.5c-4.1-0.1-8.2,0.3-12.2,0.1c-0.9,0-1.8-0.3-2.8-0.4s-1.9,0.1-2.9,0c-1.3-0.1-2.6-0.2-3.9-0.3
			c-0.1-0.5-0.3-1-0.3-1.5c-0.2-1.5,0.2-3.1-0.1-4.7c-0.3-1.6-0.4-3.2-0.3-4.8v-5.4c0-3.6-0.1-7.2,0-10.8c0.1-1.6,0.1-3.2-0.1-4.9
			c-0.4-1.8-0.6-3.7-0.7-5.5c0-0.2-0.1-0.4-0.1-0.6c0-0.5,0.1-1,0.1-1.5c0.1-2.1-0.1-4.1-0.2-6.1s0.1-4.3-0.1-6.4
			c-0.3-4.2-0.5-8.5-0.5-12.7c0-4.6,0.3-9.2,0.2-13.8c0-0.2-0.1-0.5-0.2-0.7c0-2.8,0-5.6,0-8.4c0-1.8,0.1-3.6,0.3-5.4
			c0.1-2,0.2-3.9,0.1-5.9c0-8.1,0-16.1,0-24.2c0-3.8,0-7.6,0.2-11.4s-0.1-7.9,0.2-11.8c0.3-3.7,0.3-7.4,0.3-11.2
			c0-1.9-0.2-3.8-0.3-5.8c0-2.1,0-4.2,0.2-6.3c0.1-2.2-0.3-4.4-0.4-6.6c0-2,0.2-4,0.1-6c-0.2-2.1-0.5-4.1-0.9-6.2
			c-0.2-2-0.3-3.9-0.2-5.9c0.1,0,0.2,0,0.3,0c3.3-0.5,6.7-0.7,10.1-0.6c3.5,0,7.1-0.4,10.6-0.4s7,0.1,10.5,0s6.8-0.4,10.2-0.7
			c7.4-0.5,14.9-0.4,22.3,0.2c3.7,0.3,7.3,0.9,11,1.1s7.2-0.2,10.8-0.3c7-0.2,14-0.1,21,0c3.5,0,6.9,0.7,10.4,0.8s7,0.1,10.5,0.3
			c7.3,0.5,14.6,0,21.9,0s14.8,0,22.2,0.1c14.1,0.2,28.3-0.7,42.4-1.2c7.3-0.2,14.5-0.6,21.8-1.1c7.1-0.4,14.1,0.2,21.2,0.3
			c3.4,0.1,6.8,0.4,10.2,0.2s7-0.2,10.5-0.2c7.4,0.1,14.8,0.6,22.2,0.7c3.6,0.1,7.3,0,10.9,0s7.2,0.4,10.8,0.4s6.9,0.4,10.4,0.4
			c3.2,0,6.5,0.4,9.7,0.4c3.5,0,7-0.1,10.5-0.1s7.2,0.4,10.8,0.4c7,0,14-0.4,21,0.1s14.1,0.7,21.2,1.2c3.5,0.3,7,0.1,10.5,0.1
			c1.6,0,3.2,0.1,4.9,0.1s3-0.4,4.6-0.5s3,0,4.5,0.1c1.5,0,2.9-0.2,4.4-0.5l0,0l0.7,0.3c-0.1,0.2-0.1,0.4-0.2,0.7
			c-0.1,0.5-0.1,1.1,0,1.6c0,0.6,0,1.3,0,1.9s0.4,1.5,0.4,2.2c0,0.6-0.2,1.2-0.3,1.8C662.9,185.3,662.9,186,663,186.7z M666.6,161.5
			c-0.5,3.1-1.2,6.4-1,9.6c0,0.6,0.1,1.1,0.1,1.7c0,0.1,0,0.3,0,0.4c-0.1-0.1-0.2-0.1-0.4-0.1l-0.3,0c-0.4-0.1-0.8,0-1.2,0.2
			l-0.9-0.3c-1.4,0.2-2.8,0.1-4.2-0.1c-0.1,0.2-0.1,0.3-0.2,0.5c-2.1-0.1-4.1,0-6.2,0.2c-3.3,0.5-6.6,0.2-10,0.3
			c-7.1,0.1-14-0.7-21.1-1s-13.8-0.6-20.8-0.5c-3.6,0-7.2,0.1-10.8,0.1s-7.2-0.4-10.8-0.4c-6.9,0-13.7-0.3-20.6-0.4
			s-13.9-0.7-20.9-0.7c-7.4,0-14.7-0.2-22.1-0.5c-3.7-0.2-7.3-0.2-11-0.3s-7,0.2-10.6,0.3c-6.9,0.2-13.8-0.6-20.7-0.6
			c-7.2,0-14.4,0.6-21.6,0.9s-14.3,0.4-21.5,0.9c-3.5,0.2-7,0-10.5,0.1c-3.6,0.1-7.3,0.4-10.9,0.5c-14.6,0.2-29.2-0.3-43.8,0
			c-3.6,0.1-7.2,0-10.8-0.2s-7-0.1-10.5-0.2s-7.1-0.7-10.8-0.7c-3.4,0-6.9,0-10.3,0s-6.9-0.2-10.3,0.1c-3.6,0.3-7.2,0.4-10.8,0.1
			c-7.4-0.6-14.8-1.6-22.2-1.6c-7.1,0-14.1,1.1-21.1,1.1c-3.6,0-7.1-0.1-10.6,0s-7,0.4-10.5,0.4c-3.1-0.1-6.2,0.2-9.2,0.7h-0.2
			c-1.1,0.1-2.1,0.2-3.1,0.3c-0.7,0-1.5,0-2.2-0.1c0-0.3,0-0.8,0-0.9c0-1.1,0-2.2,0-3.2v-6.5c0-1.1,0-2.1,0-3.2c0-0.6,0-1.1-0.1-1.7
			v-0.1c1.5-0.4,3-0.6,4.5-0.6c1.8,0.1,3.6,0.4,5.4,0.4l12,0.1c3.9,0,7.6-0.6,11.4-0.8c3.8-0.3,7.6-0.4,11.5-0.4
			c7.7,0,15.3,1,23,1.1s15.3,0.4,22.9,0c4-0.2,7.8-0.5,11.8-0.3s8.1,0.4,12.2,0.3c8-0.1,16-1.1,24-1.1c1.7,0,3.5-0.1,5.2,0
			c2,0.1,4,0.5,6,0.8c3.6,0.4,7.2-0.5,10.8-0.5c7.9,0,15.9,0.1,23.8,0.1c3.8,0,7.7-0.2,11.5,0.1s7.4,0.6,11.1,0.6s7.6,0,11.4,0
			s7.8,0.4,11.8,0.4c3.9-0.1,7.7,0.1,11.6,0.4c3.9,0.4,7.7,1.2,11.6,1.4c7.9,0.5,15.6-0.7,23.5-1.2s15.5-0.3,23.2-1
			c3.9-0.4,7.8,0,11.7-0.1s7.9,0.2,11.8,0.4c7.5,0.5,14.9-0.1,22.4,0c3.9,0,7.8,0.3,11.7,0.1s7.7,0.2,11.6,0.3
			c7.6,0.1,15.1,0.7,22.7,0.7c3.8,0,7.7,0,11.5,0s7.8-0.6,11.7-0.5c3.7,0.1,7.4,0,11,0.2s7.4,0.9,11.2,1c1.6-0.1,3.2-0.1,4.8,0.1
			c0.8,0.1,1.5,0.4,2.1,0.9C667,159.7,666.8,160.6,666.6,161.5L666.6,161.5z"/>
		<path class="st6" d="M391.7,377.5c-0.1-0.9-0.9-1.6-1.8-1.5c-0.8,0.1-1.4,0.7-1.5,1.5c0.1,0.8,0.1,1.7-0.1,2.5
			c-0.3,0.6-1.1,0.7-1.7,0.8c-2,0.2-4.1,0.2-6.1,0.3c-5.2,0.4-10.4,0.8-15.5,0.9s-10.3,0-15.5,0c-2.3,0-4.5,0.5-6.8,0.4
			c-1.1,0-2.2-0.1-3.3-0.3c-1.2-0.3-2.4-0.3-3.5,0c-0.1,0-0.1,0.1-0.2,0.1l-1.6-0.2c-0.4,0-0.8-0.1-1.2-0.3
			c-0.1-0.1-0.2-0.2-0.3-0.4c-0.1-1-0.1-1.9-0.2-2.9c0-0.4-0.2-0.7-0.4-1l0,0c0-0.9-0.7-1.6-1.6-1.6c-0.9,0-1.6,0.7-1.6,1.6l0,0
			c-0.3,0.4-0.4,0.9-0.3,1.4c0.4,1.7,0.1,3.5,0.4,5.2c0.2,1.4,1.3,2.4,2.7,2.5c1.3,0.5,2.8,0.7,4.2,0.6h1.2h0.1c2,0.2,4,0.3,5.9,0.3
			c0.4,0,0.8-0.1,1-0.4h7.1c5.5,0,11.2,0.3,16.7-0.2c2.7-0.3,5.5-0.3,8.2-0.5c1.3-0.1,2.6-0.2,3.9-0.4s2.8,0.1,4.1,0
			c1.4-0.1,2.8-0.4,4.1-0.8c1-0.2,2.5-0.3,3.4-0.9c0.9-0.7,1.3-1.8,1-2.9C392.1,380.2,391.8,378.8,391.7,377.5z"/>
		<path class="st5" d="M171,397.2c-0.3-0.6-0.6-1.1-1.1-1.5c-1.4-1.7-3.9-1.8-5.6-0.4c-0.1,0.1-0.2,0.2-0.3,0.3l-0.2,0.2
			c-0.3,0.2-0.5,0.5-0.7,0.8c-0.3,0.5-0.4,1.1-0.3,1.7c-0.3,1.8,0.5,3.6,2,4.6c0.7,0.5,1.5,0.7,2.4,0.6c1-0.1,1.9-0.5,2.7-1.1
			c0.7-0.6,1.2-1.4,1.4-2.3C171.5,399.2,171.4,398.2,171,397.2z"/>
		<path class="st5" d="M173.8,387.5c-0.4-0.6-0.8-1.1-1.4-1.5c-0.3-0.2-0.7-0.4-1.1-0.5l0,0c-0.5-0.3-1-0.4-1.6-0.5
			c-0.4-0.1-0.9-0.2-1.3-0.3c-0.9-0.2-1.8,0.3-2,1.1c-0.2,0.7,0.1,1.4,0.6,1.8c0.3,0.4,0.8,0.7,1.3,0.7h0.9l0.6,0.2l0.3,0.2
			c0.4,0.4,0.9,0.7,1.4,1.1l0.4,0.2c0.2,0,0.4,0,0.6,0c0.4,0,0.7-0.2,0.9-0.5C174.1,389,174.2,388.2,173.8,387.5z"/>
		<path class="st5" d="M179.6,398.1c0-0.1,0-0.2,0-0.3c0,0,0-0.1,0-0.1c-0.1-0.5-0.2-1-0.4-1.5c-0.2-0.5-0.3-1-0.4-1.5
			c-0.1-0.4-0.4-0.8-0.8-1c-0.8-0.5-1.8-0.2-2.2,0.6c0,0,0,0,0,0c-0.2,0.4-0.3,0.8-0.2,1.2c-0.1,0.4,0,0.8,0.2,1.2
			c0.1,0.1,0.2,0.3,0.3,0.5c0.1,0.3,0.2,0.7,0.3,1v0.1c0,0.1,0,0.1,0,0.2c-0.3,0.8-0.6,1.6-0.7,2.5c0,0.6,0.3,1.1,0.8,1.4
			c0.5,0.3,1.1,0.3,1.6,0c1.2-0.8,1.4-2.3,1.5-3.6c0-0.1,0-0.2,0-0.4S179.6,398.2,179.6,398.1z"/>
		<path class="st5" d="M173.3,406.5c-0.1-0.4-0.4-0.8-0.8-1c-0.4-0.2-0.8-0.3-1.2-0.2c-0.4,0.1-0.8,0.4-1,0.8l0.2-0.3
			c-0.2,0.3-0.5,0.5-0.7,0.8l-0.2,0.1l-0.2,0.1c-0.4,0-0.9,0-1.3-0.1c-0.6-0.1-1.3,0-1.9,0.1c-0.9,0.2-1.4,1.1-1.1,2
			c0.1,0.3,0.2,0.5,0.4,0.7c0.7,0.7,1.6,1.1,2.5,1.1c0.8,0,1.6-0.2,2.4-0.6c0.2-0.1,0.4-0.2,0.5-0.4c0.4-0.2,0.9-0.4,1.2-0.7
			c0.4-0.4,0.8-0.8,1.1-1.3C173.3,407.4,173.4,406.9,173.3,406.5z"/>
		<path class="st5" d="M160,404.3c0-0.1-0.1-0.2-0.1-0.3c0-0.1,0.1-0.2,0.1-0.3c0.2-0.7-0.1-1.4-0.7-1.8c0.1-1,0-2.1-0.2-3.1
			c-0.2-0.6-0.6-1-1.1-1.1c-0.6-0.1-1.2,0-1.6,0.4c-0.8,1.1-1.1,2.5-0.7,3.8c0.1,0.5,0.3,1,0.6,1.5c0.1,0.6,0.3,1.2,0.5,1.8
			c0.1,0.4,0.4,0.8,0.8,1c0.4,0.2,0.8,0.3,1.2,0.2C159.7,406.1,160.2,405.2,160,404.3C160,404.3,160,404.3,160,404.3z"/>
		<path class="st5" d="M163.2,388.8c-0.1-0.3-0.2-0.5-0.4-0.7c-0.3-0.3-0.7-0.5-1.1-0.5h-0.2c-0.4,0-0.8,0.2-1.2,0.5l-0.1,0.1
			c-0.7,0.5-1.4,1.1-2.1,1.7c-0.2,0.2-0.5,0.3-0.8,0.5c-0.4,0.2-0.6,0.6-0.8,1c-0.2,0.9,0.3,1.8,1.1,2c0.4,0.1,0.9,0.1,1.2-0.2
			c0.9-0.6,1.8-1.3,2.6-2c0.3-0.2,0.6-0.4,1-0.6l0.3-0.2c0.2-0.1,0.3-0.3,0.3-0.5C163.3,389.5,163.3,389.1,163.2,388.8z"/>
		<path class="st5" d="M478.5,398.3c-0.3-0.6-0.6-1.1-1.1-1.5c-0.8-0.9-2-1.4-3.3-1.4c-1,0.1-1.9,0.5-2.6,1.2l-0.2,0.2
			c-0.3,0.2-0.5,0.5-0.7,0.8c-0.3,0.5-0.4,1.1-0.3,1.7c-0.3,1.8,0.5,3.6,2,4.6c0.7,0.5,1.5,0.7,2.4,0.6c1-0.1,1.9-0.5,2.7-1.1
			c0.7-0.6,1.2-1.4,1.4-2.3C479.1,400.3,478.9,399.3,478.5,398.3z"/>
		<path class="st5" d="M481.3,388.6c-0.4-0.6-0.8-1.1-1.4-1.5c-0.3-0.2-0.7-0.4-1.1-0.5l0,0c-0.5-0.3-1-0.4-1.6-0.5
			c-0.5-0.1-0.9-0.2-1.3-0.3c-0.9-0.2-1.8,0.3-2,1.1c-0.2,0.7,0.1,1.4,0.6,1.8c0.3,0.4,0.8,0.7,1.3,0.7h0.9l0.6,0.2l0.3,0.2
			c0.5,0.4,0.9,0.8,1.4,1.1l0.4,0.2c0.2,0.1,0.4,0.1,0.6,0c0.4,0,0.7-0.2,0.9-0.5C481.6,390.1,481.7,389.3,481.3,388.6z"/>
		<path class="st5" d="M487.1,399.2c0-0.1,0-0.2,0-0.3s0-0.1,0-0.1c0-0.5-0.2-1-0.4-1.5c-0.2-0.5-0.3-1-0.4-1.5
			c-0.1-0.4-0.4-0.8-0.8-1c-0.8-0.4-1.8-0.2-2.2,0.6c-0.2,0.4-0.2,0.8-0.2,1.2c-0.1,0.4,0,0.8,0.2,1.2l0.3,0.5
			c0.1,0.3,0.2,0.7,0.3,1v0.1c0,0.1,0,0.1,0,0.2c-0.3,0.8-0.6,1.6-0.7,2.5c0,0.9,0.7,1.6,1.6,1.6c0.3,0,0.6-0.1,0.8-0.2
			c1.1-0.8,1.4-2.3,1.5-3.6c0-0.1,0-0.2,0-0.4S487.1,399.3,487.1,399.2z"/>
		<path class="st5" d="M480.8,407.6c-0.1-0.4-0.4-0.8-0.8-1c-0.4-0.2-0.8-0.3-1.3-0.2c-0.4,0.1-0.8,0.4-1,0.8l0.2-0.2
			c-0.2,0.3-0.5,0.6-0.7,0.8l-0.2,0.1l-0.2,0.1c-0.4,0-0.9,0-1.3,0c-0.6-0.1-1.3,0-1.9,0.1c-0.5,0.2-1,0.6-1.1,1.1
			c-0.2,0.6,0,1.2,0.4,1.6c0.7,0.7,1.6,1.1,2.5,1.1c0.8,0,1.6-0.2,2.4-0.6c0.2-0.1,0.4-0.2,0.5-0.4c0.4-0.2,0.9-0.4,1.2-0.7
			c0.4-0.4,0.8-0.8,1.1-1.3C480.8,408.5,480.9,408.1,480.8,407.6z"/>
		<path class="st5" d="M467.5,405.4c0-0.1-0.1-0.2-0.1-0.3c0-0.1,0.1-0.2,0.1-0.3c0.2-0.7-0.1-1.4-0.7-1.8c0.1-1,0-2.1-0.1-3.1
			c-0.2-0.6-0.6-1-1.1-1.1c-0.6-0.2-1.2,0-1.6,0.4c-0.8,1.1-1.1,2.5-0.7,3.8c0.1,0.5,0.3,1,0.6,1.5c0.1,0.6,0.3,1.2,0.5,1.8
			c0.1,0.4,0.4,0.8,0.8,1c0.4,0.2,0.8,0.3,1.3,0.2C467.2,407.2,467.7,406.3,467.5,405.4z"/>
		<path class="st5" d="M470.7,389.9c-0.1-0.3-0.2-0.5-0.4-0.7c-0.3-0.3-0.7-0.5-1.1-0.5h-0.2c-0.4,0-0.8,0.2-1.1,0.5
			c0,0-0.1,0.1-0.1,0.1c-0.8,0.5-1.4,1.1-2.1,1.7c-0.2,0.2-0.5,0.4-0.8,0.5c-0.4,0.2-0.6,0.6-0.7,1c-0.2,0.9,0.2,1.8,1.1,2
			c0.4,0.1,0.9,0.1,1.3-0.2c0.9-0.6,1.8-1.3,2.6-2c0.3-0.2,0.6-0.4,1-0.6l0.3-0.3c0.2-0.1,0.3-0.3,0.3-0.5
			C470.8,390.6,470.8,390.2,470.7,389.9z"/>
		<path class="st5" d="M548.4,398.3c-0.3-0.6-0.6-1.1-1.1-1.5c-0.8-0.9-2-1.4-3.3-1.4c-1,0.1-1.9,0.5-2.6,1.2
			c-0.1,0.1-0.1,0.2-0.2,0.2c-0.3,0.2-0.5,0.5-0.7,0.8c-0.3,0.5-0.4,1.1-0.3,1.7c-0.3,1.8,0.5,3.6,2,4.6c0.7,0.5,1.5,0.7,2.4,0.6
			c1-0.1,1.9-0.5,2.7-1.1c0.7-0.6,1.2-1.4,1.4-2.3C548.9,400.3,548.8,399.3,548.4,398.3z"/>
		<path class="st5" d="M551.2,388.6c-0.6-0.9-1.4-1.6-2.4-2l0,0c-0.5-0.3-1-0.4-1.6-0.5c-0.5-0.1-0.9-0.2-1.3-0.3
			c-0.9-0.2-1.8,0.3-2,1.1c-0.2,0.7,0.1,1.4,0.6,1.8c0.3,0.4,0.8,0.7,1.3,0.7h0.9c0.2,0,0.4,0.1,0.6,0.2l0.3,0.2
			c0.5,0.4,0.9,0.8,1.3,1.1l0.4,0.2c0.2,0.1,0.4,0.1,0.7,0c0.4,0,0.7-0.2,0.9-0.5C551.5,390.1,551.6,389.3,551.2,388.6z"/>
		<path class="st5" d="M557,399.2c0-0.1,0-0.2,0-0.3c0,0,0-0.1,0-0.1c0-0.5-0.2-1-0.4-1.5c-0.2-0.5-0.3-1-0.4-1.5
			c-0.1-0.4-0.4-0.8-0.8-1c-0.4-0.2-0.8-0.3-1.3-0.2c-0.4,0.1-0.8,0.4-1,0.8c-0.2,0.4-0.3,0.8-0.2,1.2c-0.1,0.4,0,0.8,0.2,1.2
			l0.3,0.5c0.1,0.3,0.2,0.7,0.3,1v0.1c0,0.1,0,0.1,0,0.2c-0.3,0.8-0.6,1.6-0.7,2.5c0,0.6,0.3,1.1,0.8,1.4c0.5,0.3,1.1,0.3,1.7,0
			c1.2-0.8,1.4-2.3,1.5-3.6c0-0.1,0-0.2,0-0.4S557,399.3,557,399.2z"/>
		<path class="st5" d="M550.7,407.6c-0.1-0.4-0.4-0.8-0.8-1c-0.4-0.2-0.8-0.3-1.3-0.2c-0.4,0.1-0.8,0.4-1,0.8l0.2-0.3
			c-0.2,0.3-0.5,0.6-0.7,0.8l-0.2,0.1c-0.1,0-0.2,0-0.2,0.1c-0.4,0-0.9,0-1.3,0c-0.6-0.1-1.3,0-1.9,0.1c-0.6,0.2-1,0.6-1.1,1.1
			c-0.2,0.6,0,1.2,0.4,1.6c0.7,0.7,1.6,1.1,2.5,1.1c0.8,0,1.6-0.2,2.4-0.6c0.2-0.1,0.4-0.2,0.5-0.4c0.4-0.2,0.9-0.4,1.2-0.7
			c0.4-0.4,0.8-0.8,1.1-1.3C550.7,408.5,550.8,408,550.7,407.6z"/>
		<path class="st5" d="M537.3,405.4c0-0.1-0.1-0.2-0.1-0.3c0-0.1,0.1-0.2,0.1-0.3c0.2-0.7-0.1-1.4-0.7-1.8c0.1-1,0-2.1-0.2-3.1
			c-0.2-0.6-0.6-1-1.1-1.1c-0.6-0.2-1.2,0-1.6,0.4c-0.8,1.1-1.1,2.5-0.7,3.8c0.1,0.5,0.3,1,0.6,1.5c0.1,0.6,0.3,1.2,0.5,1.8
			c0.1,0.4,0.4,0.8,0.8,1c0.4,0.2,0.8,0.3,1.3,0.2C537.1,407.2,537.6,406.3,537.3,405.4C537.4,405.4,537.4,405.4,537.3,405.4z"/>
		<path class="st5" d="M540.5,389.9c-0.1-0.3-0.2-0.5-0.4-0.7c-0.3-0.3-0.7-0.5-1.2-0.5h-0.2c-0.4,0-0.8,0.2-1.2,0.5
			c0,0-0.1,0.1-0.1,0.1c-0.8,0.5-1.4,1.1-2.1,1.7c-0.2,0.2-0.5,0.4-0.8,0.5c-0.4,0.2-0.6,0.6-0.8,1c-0.1,0.4-0.1,0.9,0.2,1.3
			c0.5,0.8,1.5,1,2.2,0.6c0.9-0.6,1.8-1.3,2.6-2c0.3-0.2,0.6-0.4,1-0.6l0.3-0.3c0.2-0.1,0.3-0.3,0.3-0.5
			C540.6,390.6,540.7,390.2,540.5,389.9z"/>
		<path class="st5" d="M618.9,398.3c-0.3-0.6-0.6-1.1-1.1-1.5c-0.8-0.9-2-1.4-3.3-1.4c-1,0.1-1.9,0.5-2.6,1.2
			c-0.1,0.1-0.1,0.2-0.2,0.2c-0.3,0.2-0.5,0.5-0.7,0.8c-0.3,0.5-0.4,1.1-0.3,1.7c-0.3,1.8,0.5,3.6,2,4.6c0.7,0.5,1.5,0.7,2.4,0.6
			c1-0.1,1.9-0.5,2.7-1.1c0.7-0.6,1.2-1.4,1.4-2.3C619.5,400.3,619.4,399.3,618.9,398.3z"/>
		<path class="st5" d="M621.8,388.6c-0.4-0.6-0.8-1.1-1.4-1.5c-0.3-0.2-0.6-0.4-1-0.5l0,0c-0.5-0.3-1-0.4-1.6-0.5
			c-0.5-0.1-0.9-0.2-1.3-0.3c-0.9-0.2-1.8,0.3-2,1.1c-0.2,0.7,0.1,1.4,0.6,1.8c0.3,0.4,0.8,0.7,1.3,0.7h0.9c0.2,0,0.4,0.1,0.6,0.2
			l0.3,0.2c0.5,0.4,0.9,0.8,1.3,1.1l0.4,0.2c0.2,0.1,0.4,0.1,0.7,0c0.4,0,0.7-0.2,0.9-0.5C622.1,390,622.1,389.3,621.8,388.6z"/>
		<path class="st5" d="M627.6,399.2v-0.3c0,0,0-0.1,0-0.1c-0.1-0.5-0.2-1-0.4-1.5c-0.2-0.5-0.3-1-0.4-1.5c-0.2-0.9-1.1-1.4-2-1.1
			c0,0,0,0,0,0c-0.4,0.1-0.8,0.4-1,0.8c-0.2,0.4-0.3,0.8-0.2,1.2c-0.1,0.4,0,0.8,0.2,1.2c0.1,0.2,0.2,0.3,0.3,0.5
			c0.1,0.3,0.2,0.7,0.3,1c0,0,0,0.1,0,0.1c0,0.1,0,0.1,0,0.2c-0.3,0.8-0.6,1.6-0.7,2.5c0,0.6,0.3,1.1,0.8,1.4c0.5,0.3,1.1,0.3,1.6,0
			c1.2-0.8,1.4-2.3,1.5-3.6c0-0.1,0-0.2,0-0.4S627.6,399.3,627.6,399.2z"/>
		<path class="st5" d="M621.2,407.6c-0.1-0.4-0.4-0.8-0.8-1c-0.4-0.2-0.8-0.3-1.2-0.2c-0.4,0.1-0.8,0.4-1,0.8l0.2-0.3
			c-0.2,0.3-0.5,0.6-0.7,0.8l-0.2,0.1c-0.1,0-0.2,0-0.2,0.1c-0.4,0-0.9,0-1.3,0c-0.6-0.1-1.3,0-1.9,0.1c-0.5,0.2-1,0.6-1.1,1.1
			c-0.2,0.6,0,1.2,0.4,1.6c0.7,0.7,1.6,1.1,2.5,1.1c0.8,0,1.6-0.2,2.4-0.6c0.2-0.1,0.4-0.2,0.5-0.4c0.4-0.2,0.9-0.4,1.2-0.7
			c0.4-0.4,0.8-0.8,1.1-1.3C621.2,408.5,621.3,408,621.2,407.6z"/>
		<path class="st5" d="M607.9,405.4c0-0.1-0.1-0.2-0.1-0.3c0-0.1,0.1-0.2,0.1-0.3c0.2-0.7-0.1-1.4-0.7-1.8c0.1-1,0-2.1-0.2-3.1
			c-0.2-0.6-0.6-1-1.1-1.1c-0.6-0.2-1.2,0-1.6,0.4c-0.8,1.1-1.1,2.5-0.7,3.8c0.1,0.5,0.3,1,0.6,1.5c0.1,0.6,0.3,1.2,0.5,1.8
			c0.1,0.4,0.4,0.8,0.8,1c0.8,0.5,1.8,0.2,2.2-0.6C608,406.3,608,405.8,607.9,405.4L607.9,405.4z"/>
		<path class="st5" d="M611.1,389.9c-0.1-0.3-0.2-0.5-0.4-0.7c-0.3-0.3-0.7-0.5-1.2-0.5h-0.2c-0.4,0-0.8,0.2-1.2,0.5
			c0,0-0.1,0.1-0.1,0.1c-0.7,0.5-1.4,1.1-2.1,1.7c-0.2,0.2-0.5,0.3-0.8,0.5c-0.4,0.2-0.6,0.6-0.8,1c-0.2,0.9,0.2,1.8,1.1,2
			c0.4,0.1,0.9,0.1,1.3-0.2c0.9-0.6,1.8-1.3,2.6-2c0.3-0.2,0.6-0.4,1-0.6l0.3-0.3c0.2-0.1,0.3-0.3,0.3-0.5
			C611.2,390.6,611.2,390.2,611.1,389.9z"/>
		<path class="st5" d="M187,255.7c0.1-2.4,0.1-4.8,0-7.2c0.1-1.7-0.4-3.3-1.4-4.6c-1.6-1.6-4-1.5-6.1-1.5s-2.1,3.3,0,3.3
			c1.6,0,3.8-0.5,4.2,1.5c0.2,1.9,0.3,3.8,0.1,5.7c0,2-0.2,4-0.4,6s0,4.3-0.2,6.4c-0.2,2,0.1,3.9-0.2,5.9c-0.3,2-0.5,4-0.6,6.1
			c-0.1,2.2-0.4,4.3-0.4,6.5s0,4.5,0,6.8c0,0.9,0.7,1.6,1.6,1.6c0.9,0,1.6-0.7,1.6-1.6c0-2.5,0-5,0-7.5c0-1.3,0.2-2.5,0.4-3.8
			s0.1-2.3,0.1-3.5c0.1-2.2,0.7-4.4,0.7-6.7c-0.1-1.1-0.1-2.2,0-3.3c0.1-1.1,0.3-2.2,0.3-3.4s-0.1-2.4,0-3.5S187,256.8,187,255.7z"
			/>
		<path class="st5" d="M181.3,345.8c-2.2,0-4.4-0.4-6.7-0.4s-4.7,0-7,0c-4.4,0-8.8,0.4-13.2,1c-2.1,0.3-4.3,0.1-6.5,0.4
			c-2.2,0.3-4.3,0.9-6.3,1.8c-1.9,0.8-3.8,1.7-5.5,2.9c-1.8,1.1-3.6,2.4-5.1,3.9c-1.6,1.7-2.9,3.6-4.4,5.3c-1.6,1.9-3,3.8-4.4,5.9
			c-1.2,1.7,1.6,3.3,2.8,1.6c1.1-1.7,2.3-3.3,3.5-4.9c1.3-1.4,2.5-2.9,3.7-4.4c1.3-1.6,2.9-3,4.7-4c1.7-1.1,3.5-2.1,5.3-3
			c1.8-0.8,3.6-1.3,5.6-1.7c2.1-0.4,4.2-0.2,6.3-0.4c4.1-0.6,8.3-0.9,12.5-1c2.4,0,4.9,0,7.3,0s4.9,0.3,7.4,0.4
			C183.4,349.1,183.4,345.9,181.3,345.8z"/>
		<path class="st2" d="M79.6,360.2c-0.1-1-0.1-1.9-0.2-2.9s-0.2-1.9-0.2-2.8c0-1.7-0.4-3.4-0.3-5.1s0.1-3.7,0.1-5.6s0.1-3.7,0-5.6
			c0-1.1-0.7-2-1.8-2.3c-0.4-0.4-1-0.6-1.5-0.4c-1.4-0.3-2.7,0.5-3,1.9c0,0.1,0,0.2,0,0.3c-0.3,2.3-0.3,4.7-0.1,7
			c0.2,1.6,0.6,3.1,0.7,4.7c0,0.4,0.1,0.9,0.1,1.3c-0.4,0.3-0.7,0.8-0.7,1.3c0.5,3,0.7,6.1,0.8,9.1c0,1.4,0.2,3,1.3,3.8
			c0.3,0.7,1,1.2,1.8,1.2c1.1,0.1,2.5-0.1,3-1.1C80.3,363.6,79.8,361.5,79.6,360.2z"/>
		<path class="st2" d="M155.6,262c-0.1,0.5-1,1-1.4,1.4c-0.6,0.6-1.1,1.3-1.7,1.9c-1.1,1.4-2.5,2.5-3.7,3.8c-2.5,2.8-5.4,5.2-8,7.9
			c-5.6,5.6-11.1,11.1-17,16.4c-1.6,1.4,0.8,3.7,2.3,2.3c6.1-5.5,11.9-11.3,17.7-17.2c2.7-2.7,5.5-5.3,8.1-8.1
			c1.3-1.4,2.6-2.8,3.9-4.2c1-1.1,2.5-2,2.8-3.5C159.2,260.8,156.1,259.9,155.6,262z"/>
		<path class="st2" d="M141.7,267.9c-0.6-0.6-1.7-0.6-2.3,0c-0.2,0.2-0.4,0.4-0.6,0.6l-0.1,0.1l-0.5,0.4c-0.2,0.2-0.4,0.3-0.6,0.5
			l-0.3,0.3l-0.2,0.2c-0.5,0.4-1,0.8-1.5,1.2s-0.9,0.9-1.4,1.4c-1.9,1.9-3.8,3.7-5.7,5.4c-0.6,0.6-0.6,1.7,0,2.3
			c0.6,0.6,1.6,0.6,2.3,0c1.9-1.8,3.8-3.6,5.7-5.4c0.8-0.8,1.6-1.6,2.5-2.3c0.5-0.4,0.9-0.8,1.3-1.2l0.1-0.1l0.5-0.4
			c0.2-0.2,0.4-0.4,0.6-0.6C142.3,269.6,142.3,268.5,141.7,267.9z"/>
		<path class="st7" d="M78.5,338c0-0.7-0.5-1.3-1.1-1.5c-0.3-0.5-0.8-0.7-1.3-0.7c-0.9,0-1.6,0.7-1.6,1.6v0.1
			c-0.2,0.2-0.3,0.4-0.3,0.6c-0.4,1.6-0.6,3.3-0.6,5c-0.1,1.5,0.1,2.9,0.1,4.4c0,0.1,0,0.2,0,0.3c0,0.1,0,0.2-0.1,0.3
			c-0.2,0.9,0.3,1.8,1.2,2c0.5,0.1,1.1,0,1.5-0.4c1.3-1.3,1.5-3.2,1.8-5c0.1-1,0.4-1.9,0.4-2.9C78.6,340.5,78.5,339.3,78.5,338z"/>
		<path class="st7" d="M76,352.4c-0.9,0-1.6,0.7-1.6,1.6v8.7c0,0.9,0.7,1.6,1.6,1.6c0.9,0,1.6-0.7,1.6-1.6V354
			C77.6,353.1,76.9,352.4,76,352.4z"/>
		<path class="st2" d="M109.1,363.7c-0.1-0.3-0.2-0.6-0.3-0.8c0-0.1-0.1-0.2-0.1-0.3v-0.2c0-0.8-0.6-1.5-1.5-1.6
			c-0.4-0.2-0.9-0.3-1.3-0.2l-0.5,0.1H105c-0.2,0-0.4-0.1-0.6-0.1c-0.4-0.1-0.7-0.1-1.1-0.2c-0.6-0.1-1.2-0.1-1.8-0.1
			c-1.2-0.1-2.3,0.6-2.7,1.7c-0.1,0.2-0.2,0.5-0.2,0.7c-0.1,0.2-0.1,0.4-0.2,0.7v0.7c0,0.4,0.2,0.8,0.5,1.2l0,0v0.2
			c0.5,1.3,1.9,2,3.3,1.8c1-0.1,2.1-0.2,3.1-0.3c0.6,0,1.2-0.1,1.7-0.2c0.6,0,1.1-0.3,1.5-0.7C109.2,365.3,109.3,364.4,109.1,363.7z
			"/>
		<path class="st7" d="M107.6,363.3c-0.1-0.8-0.7-1.4-1.4-1.6c-0.4-0.1-0.8-0.1-1.2,0h-0.1c-0.1,0-0.3-0.1-0.4-0.1
			c-0.3-0.1-0.7-0.2-1-0.2c-0.2,0-0.4,0-0.6,0h-0.2c-0.2,0-0.5,0-0.7,0c-0.4-0.1-0.8,0-1.1,0.2c-0.4,0.2-0.6,0.6-0.8,1
			c-0.1,0.5-0.2,1-0.2,1.5c0,0.4,0.1,0.7,0.3,1c0.2,0.3,0.5,0.5,0.8,0.6c0.7,0.1,1.5,0.2,2.2,0.1c0.6,0,1.2,0,1.8,0
			c0.6,0,1.2-0.2,1.7-0.6C107.4,364.8,107.7,364,107.6,363.3z"/>
		<path class="st6" d="M187,370.5c-1.1-0.4-2.3-0.6-3.4-0.9c-1.6-0.5-3.1-1.4-4.6-2c-2.9-1.2-5.9-1.9-9-2c-3-0.2-6,0-8.6,1.5
			c-0.6,0.3-0.9,0.9-0.8,1.5c-0.5,0-0.9,0-1.4,0c-1.1,0.1-2.1,0.3-3.1,0.4c-0.4,0-0.7,0-1.1,0c-0.9,0-1.6,0.8-1.6,1.7
			c0,0.3,0.1,0.6,0.3,0.9c-1.8,0.4-3.6,0.8-5.4,1.3c-0.9,0.3-1.3,1.2-1,2.1c0.3,0.8,1.1,1.3,1.9,1.1c2.8-0.8,5.6-1.4,8.5-2
			c1.1-0.2,2.2-0.5,3.2-0.8c0.2,0.1,0.4,0.1,0.6,0.1c1.4-0.2,2.8-0.1,4.2,0.2c1,0.5,2.1,0.8,3.2,0.9h0.6c0.2,0.1,0.5,0.1,0.8,0.2
			c2.6,0.6,5,0,7.6-0.2c2.8-0.2,5.5,0.3,8.2-0.2l0.2-0.1c1,0.4,2,0.9,2.9,1.4c1,0.5,2.6-0.1,2.4-1.4
			C191.2,372.2,188.7,371.2,187,370.5z"/>
	</g>
</g>
<path class="st8" d="M607.1,335.3c-0.7-5.3-5.4-8.9-10.1-10.8c-5.4-2.2-9.3,2.7-14.1,2.3c-3.5-0.2-7-4.9-11-4.5
	c-4.5,0.5-7.9,4.1-11.9,5.9c-2.9,0.9-6,1.2-9,0.7c-3.9-0.8-7.8-3.2-11.5-4.7c-8-3.3-13.7-1.6-20.5,3.4c-8.1,6-18.5,9.4-28.6,7.9
	c-8.9-1.3-20.1-3.5-23.6-13.3c-0.8-2.3-3.6-4-5.9-2.4c-5,3.4-11.3,5.8-16.9,8.2c-2.5,1.2-5,2.1-7.7,2.7c-0.6-0.2-1.3-0.2-1.9-0.1
	c-6.6,1-13.1-3.5-19.1-5.8c-5-1.9-10.7-3.7-16.1-3.4c-6.4,0.3-13.4,3.2-19.1,5.8l-0.6,0.3c-10.8,0.6-21.5,2.5-31.8,5.9
	c-2,0.6-3.9,1.2-5.8,1.8l-1.5-0.6c-6.3-2.2-12.6-3.5-19.3-2.3c-4.4,0.8-8.3,2.7-12.3,4.6c-1-2.1-3.5-2.9-5.5-1.9c0,0,0,0-0.1,0
	c-1.8,0.9-3.7,1.7-5.7,2.2c-3.8,0.2-7.5,0.4-11.3,0.7c-3.1-0.4-6.2-1.1-9.2-2.1c-8-2.5-15.9-3.4-24.2-1.7
	c-8.5,1.9-16.9,4.5-24.9,7.9c-1.9,0.8-4.4,2.3-7.1,3.6c-2.6,0.2-5.3,0.5-7.9,0.9h-0.2c-0.4-1.7-1.9-2.9-3.7-2.8
	c-0.8,0.1-1.5,0.2-2.3,0.2c-1.7-1-3.8-0.8-5.2,0.5c-4.9,0.5-9.7,0.6-14.9-1c-6.3-1.9-11.9-5.5-18.4-7.4s-11.3,0.1-16.9,3.3
	c-4.5,2.6-9.9,5.3-15.4,6.4c-0.3,0-0.6-0.1-0.9-0.1c-3.5-0.6-6.8-1.6-10.1-2.9c-5.7-2.3-12.2-6.5-18.6-5.5c-5,0.8-10.2,4.3-14.5,6.8
	c-8.6,4.8-17.6,8.9-27,12c-5.9,2.1-17.9,2.1-20.1,9c-1.2,3.8-1.3,9,1.5,12c0.3,0.4,0.8,0.7,1.2,0.9c2,6,5.8,11.5,8.6,17
	c3,5.9,6.1,11.8,10.3,16.9c1.3,1.6,2.7,3.2,4.2,4.7c4.4,7.8,9.5,15.1,15.3,22c4.1,4.6,8.6,8.7,13.6,12.2c3.1,2.4,6.2,5.3,9.4,7.9
	c2.4,3.8,5.7,8,9.6,10c0.7,0.4,1.4,0.7,2.3,1c0.5,0.5,1.2,0.8,1.9,1c5.7,1.1,11.3,2.4,17.1,3.1c6.6,0.8,13.2,0.1,19.8,0.3
	c6,0.1,11.9,1.3,18,1.5c7.2,0.2,14.5,0.5,21.7,0.6c13.8,0.3,27.7,0.3,41.5,0.2c7.8-0.1,15.6,0,23.5-0.1c17.4,0.6,34.9,0.9,52.2-0.1
	s34.8-1.9,52.2-2.4c8.5,0.6,17,1.5,25.5,1.8c13.4,0.5,26.8-0.7,40.1,0c7.1,0.4,14.1,1,21.3,1.1s13.6-1.8,20.6-2.3
	c6-0.4,12.1-0.1,18.1-0.1c3.7,0.6,7.5,1,11.3,1.2c3.2,0.9,6.5,1.5,9.8,2c5.6,0.7,10.6-0.6,16.1-0.9c4.1-0.2,8.3-1.7,12.3-3
	c3.5-1.2,6.4-4,8.7-6.9c5.6-7.1,8.9-16,13.3-23.8c0.9-1.6,1.7-3.2,2.6-4.8c3.6-3.9,5-10,7.7-14.4c2.8-4.6,5-9.3,7.6-14
	s5.6-8.5,7.7-13.4c3.2-7.9,9.4-17.2,9-26c0-0.2,0-0.5,0-0.7c1.8-2.5,2.2-5.1,2.2-8.2c0-0.4,0-0.8,0-1.2c0.8-3,1.3-6,1.7-9
	C605.8,346,607.8,340.6,607.1,335.3z"/>
<path class="st9" d="M295,374.7c-0.2-0.1-0.3-0.3-0.5-0.4c-0.2-0.2-0.4-0.3-0.7-0.4c-1-0.5-2-0.9-3.1-1.3c-1.6-0.5-3.2-1.1-4.8-1.8
	c-3.3-1.4-6.6-2.6-10.1-3.4c-3.2-0.7-6.5-0.5-9.6,0.5c-3.1,1.1-5.9,2.7-9,3.8c-3.4,1.1-7,2-10.4,3.3s-6.7,2.6-10.3,2.8
	c-3.5,0.1-6.9-0.9-9.8-2.7c-1.3-0.7-2.5-1.6-3.6-2.5c-1.4-1-2.9-1.8-4.5-2.5c-3-1.7-6.2-3-9.6-3.8c-1.6-0.3-3.2-0.4-4.9-0.6
	c-1.8-0.3-3.5-0.6-5.3-0.7c-3.7-0.2-7.3,1.3-10.9,1.8c-1.7,0.2-3.5,0.5-5.1,1.1c-1.7,0.6-3.2,1.5-4.9,2c-1.5,0.4-3,1-4.4,1.7
	c-0.6,0.3-1.2,0.7-1.7,1.1c-0.9,0.4-1.9,0.7-2.9,0.9c-1.5,0.4-3,1-4.5,1.4c-1.8,0.4-3.6,0.7-5.4,0.8c-3.5,0.4-7,0.2-10.4-0.6
	c-3.4-0.9-6.8-1.9-10.2-2.8c-3.6-1-7.3-1.5-11-1.3c-3.7,0.3-7.4,1.1-10.9,2.2c-3,0.9-6.1,2-9,3.2c-2.9,1.1-5.5,2.9-7.6,5.2
	c-1.2,1.5,0.9,3.6,2.1,2.1c3.4-4.2,9.5-5.8,14.4-7.4c6-1.9,12.5-3.3,18.8-1.7c3.4,0.9,6.7,1.7,10.1,2.7c3.2,1,6.6,1.6,10,1.6
	c3.5,0,6.9-0.5,10.3-1.3c1.5-0.4,2.9-1,4.3-1.3c1.6-0.3,3.1-0.9,4.5-1.7c1.4-0.8,2.8-1.5,4.4-1.8c1.7-0.5,3.2-1.4,4.9-2
	c3.3-1.2,6.9-1.3,10.3-2.1c1.6-0.5,3.3-0.7,5-0.7c1.8,0.1,3.5,0.6,5.3,0.7c3.5,0.2,6.9,1.1,10.1,2.6c1.5,0.7,2.9,1.5,4.4,2.2
	c1.4,0.7,2.7,1.6,4,2.5c2.6,1.9,5.5,3.4,8.6,4.2c3.4,0.8,6.9,0.8,10.3-0.1c3.4-0.8,6.5-2.4,9.8-3.4c3.7-1,7.4-2.2,10.9-3.7
	c3.3-1.5,6.5-3.1,10.2-3c3.7,0.4,7.3,1.3,10.7,2.9c1.9,0.7,3.7,1.6,5.6,2.2c1.6,0.4,3.1,1,4.5,1.9C294.6,378,296.3,375.8,295,374.7z
	"/>
<path class="st9" d="M553.5,368.2c-0.7,0.6-2.2,0.5-3,0.5c-1.1,0-2.2-0.2-3.3-0.3c-2-0.2-4-0.6-6-1.2c-1.6-0.4-3-1.4-4.6-1.8
	c-0.8-0.1-1.6-0.2-2.4-0.3c-1-0.1-1.9-0.3-2.9-0.5c-1.8-0.4-3.7-0.7-5.6-0.8c-3.6-0.1-7.1,0.2-10.6,1.1c-3.5,1-6.9,2.7-9.9,4.8
	c-1.3,1-2.7,1.7-4.3,2c-1.7,0.4-3.5,0.7-5.3,0.8c-3.7,0.3-7.5,0.1-11.2-0.6c-1.9-0.4-3.7-0.8-5.5-1.4c-1.6-0.7-3.1-1.5-4.6-2.4
	c-3.1-1.9-6.4-3.3-9.9-4.2c-1.8-0.5-3.6-0.9-5.4-1.3s-3.4-0.2-5.1-0.5c-3.5-0.7-7.1-0.8-10.6-0.4c-3.6,0.4-6.8,1.9-10.1,3.4
	c-3.6,1.7-7.2,3.1-11,4.3c-3.7,1.2-7.6,2-11.5,2.1c-3.9,0-7.7-1.3-11.4-2.6c-3.4-1.2-6.7-2.5-9.9-4.1c-3.1-1.5-6.3-2.7-9.7-3.4
	c-3.4-0.6-6.9-0.4-10.2,0.6c-3.6,1.1-7,2.7-10.3,4.5c-2.8,1.4-5.8,2.7-7.8,5.1c-0.9,1.1-1.7,2.5-3,3.1c-1.8,0.8-0.2,3.4,1.5,2.6
	c1.3-0.7,2.4-1.7,3.2-3c0.9-1.2,2.1-2.3,3.5-3c3-1.8,6.2-3.3,9.4-4.7c3.3-1.6,6.9-2.4,10.5-2.5c3.4,0,6.7,1.2,9.8,2.5
	c6.7,3,13.5,6.3,20.9,7.5c3.8,0.5,7.6,0.2,11.3-0.7c3.8-0.9,7.6-2.1,11.2-3.6c3.5-1.4,6.8-3.3,10.4-4.4c3.4-1,7-1.2,10.6-0.8
	c1.8,0.2,3.5,0.7,5.3,0.8c1.8,0.1,3.5,0.3,5.2,0.8c3.7,0.7,7.2,2,10.5,3.8c3,1.9,6.2,3.4,9.6,4.3c3.7,0.9,7.4,1.4,11.2,1.4
	c3.5,0,7-0.4,10.3-1.4c1.6-0.6,3-1.4,4.4-2.4c1.6-1.1,3.2-2.1,5-2.9c3.3-1.4,6.8-2.1,10.3-2.2c1.9-0.1,3.8-0.1,5.7,0.2
	c1.9,0.4,3.8,0.8,5.7,1c0.8,0,1.6,0.1,2.4,0.3c0.8,0.3,1.6,0.7,2.3,1.1c1.8,0.7,3.6,1.2,5.4,1.5c2.8,0.6,5.6,0.9,8.4,0.7
	c1.2,0,2.4-0.5,3.3-1.3C557,369,554.9,366.9,553.5,368.2z"/>
<path class="st9" d="M447.3,406.2c-3.3-1-6.7-1.4-10-2.2c-3-0.8-6.1-1.4-9.2-1.5c-3,0-6.1,0.5-9,1.3c-1.4,0.4-2.8,0.9-4.1,1.5
	c-1.4,0.8-2.8,1.4-4.4,1.7c-6.6,1.1-13-0.1-19.1-2.4c-2.8-1.1-5.1-2.8-8-3.4c-3.2-0.7-6.5-1.1-9.8-1.2c-3.5-0.1-6.9,0.1-10.4,0.4
	c-3.3,0.4-6.5,1.1-9.7,2.1c-6.5,2-12.9,4.6-19.5,6.5c-3.3,0.9-6.6,1.5-10,1.8c-1.5,0.2-3,0.5-4.5,0.6c-1.8,0.1-3.6,0-5.3-0.3
	c-3-0.5-6-1.2-8.8-2.3c-3.2-1.2-6.5-2-9.7-3c-3.5-1.1-6.7-2.6-10.5-2.8c-3.6-0.1-7.1,0.4-10.6,1.3c-6.7,1.7-13.1,3.7-18.5,8.2
	c-1.5,1.2,0.7,3.4,2.1,2.1c4.7-4,10.5-5.7,16.3-7.2c3-0.9,6.1-1.4,9.3-1.5c1.5,0,3,0.1,4.5,0.5c1.6,0.5,3.2,1,4.8,1.7
	c3.1,1.1,6.2,1.8,9.3,2.8c2.9,1.1,5.9,2,9,2.7c3.1,0.7,6.3,0.9,9.4,0.6c3.1-0.4,6.3-0.7,9.4-1.3c6.5-1.3,12.7-3.9,18.9-6
	c3.2-1.2,6.5-2.2,9.9-3c3.4-0.6,6.8-1,10.2-1c3.3-0.2,6.6-0.1,9.9,0.4c1.5,0.3,3,0.5,4.5,0.9c1.3,0.5,2.6,1.1,3.9,1.8
	c5.6,3,11.9,4.4,18.2,4.2c3.4-0.1,6.8-0.3,9.8-2c3-1.6,6.2-2.5,9.6-2.8c1.7-0.2,3.5-0.2,5.2,0c1.7,0.3,3.4,0.6,5.1,1.1
	c3.2,0.7,6.4,1.2,9.6,2c0.2,0.7,1,1.2,1.8,0.9c0.3-0.1,0.5-0.2,0.6-0.4c0.2-0.2,0.3-0.4,0.5-0.5c0.5-0.5,0.5-1.4,0-1.9
	C447.8,406.4,447.6,406.3,447.3,406.2z"/>
<path class="st9" d="M220.3,410.7c-3.9-0.4-7.5-2.6-11.4-3.6c-3.8-1-7.8-1.3-11.7-0.9c-2.1,0.3-4.2,0.8-6.2,1.3c-2,0.4-4,1-6,1.7
	c-3.6,1.5-6.6,3.9-10.5,4.8c-2.2,0.4-4.5,0.7-6.7,0.7c-2.2,0.3-4.3,0.4-6.5,0.4c-2.1-0.1-4.1-0.4-6.1-1c-2-0.6-3.9-1.5-5.9-2.2
	c-4.2-1.2-8.4-2-12.7-2.5c-4.3-0.7-8.7-0.9-13-0.3c-4.6,0.6-9,1.2-13.2,3.1c-2,0.9-3.9,2.1-5.7,3.4c-1.6,1.2-3.2,2.4-5.3,2.4
	c-0.8,0-1.5,0.7-1.5,1.5s0.7,1.5,1.5,1.5c3.8,0,6.4-2.7,9.5-4.6c1.7-1,3.5-1.9,5.4-2.6c1.9-0.6,3.9-1.1,5.9-1.3
	c4.3-0.8,8.8-1.1,13.2-0.6c4.3,0.6,8.6,1.2,12.8,2.2c2.1,0.5,4.1,1.2,6,2.1c1.9,0.7,3.9,1.2,6,1.5c4.3,0.6,8.6,0,12.8-0.3
	c3.9-0.4,7.6-1.5,11-3.4c1.8-1.1,3.6-2,5.6-2.7c2-0.6,4.1-1,6.2-1.5c4.4-1,8.9-1.1,13.3-0.1c4.4,1,8.4,3.4,13,3.9
	C222.2,413.9,222.2,410.9,220.3,410.7z"/>
<path class="st9" d="M577.7,398c-0.8-0.2-1.6-0.4-2.4-0.6c-1-0.2-2.1-0.3-3.1-0.4c-1.9-0.3-3.8-0.4-5.7-0.4
	c-3.7-0.1-7.5,0.4-11.1,1.2c-3.6,0.9-7,2.5-10.5,3.8c-3.4,1.3-7.1,1.7-10.7,1c-3.6-0.6-7.2-1.7-10.6-3.1c-3.6-1.4-7.2-3-11-3.6
	c-7.5-1.2-15.3-0.4-22.4,2.4c-2.6,1.1-5,2.6-7.2,4.3c-1.7,1.3-4.2,3.7-2.2,5.8c1.3,1.3,3.2-0.5,2.3-1.9l0,0c0.3-0.3,0.5-0.6,0.8-0.9
	c0.7-0.6,1.5-1.2,2.3-1.7c2.1-1.6,4.5-2.8,7-3.6c6.7-2.1,14.3-2.9,21.2-1.1c3.4,0.9,6.7,2.5,10,3.7c3.1,1.2,6.3,2,9.6,2.5
	c3.4,0.5,6.8,0.3,10.1-0.6c3.3-1,6.4-2.7,9.7-3.7c3.6-1.1,7.3-1.6,11.1-1.7c2-0.1,3.9,0,5.9,0.2c1.1,0.1,2.1,0.2,3.2,0.4
	c0.9,0.2,1.8,0.5,2.8,0.7C578.8,401.2,579.7,398.3,577.7,398z"/>
<path class="st9" d="M518.7,438c-2.9-2.6-6.2-4.5-9.9-5.7c-3.7-1-7.6-1.3-11.4-1c-1.9,0.1-3.7,0.1-5.6,0.3s-4,0.8-6,1.2
	s-3.9,0.7-5.8,1.2c-1.9,0.5-3.8,1.3-5.6,2.2c-1.7,0.9-3.5,1.6-5.3,2.2c-2,0.5-4,0.7-6,0.5c-4.2-0.3-8.3-1.4-12.3-2.2
	c-2.1-0.4-4.2-0.8-6.2-1.3s-3.9-1.1-5.9-1.5c-2-0.5-4-0.7-6-0.8c-2.1,0-4.1,0.3-6.1,0.7c-4.6,1-9.1,2.2-13.5,3.8
	c-1.9,0.7-3.8,1.6-5.5,2.7c-1.5,1.1-2.1,2.2-1.4,4s3.6,1,2.9-0.8c0-0.1-0.1-0.3-0.1-0.4l0.3-0.3c0.7-0.5,1.5-0.9,2.3-1.3
	c1.6-0.7,3.3-1.4,5-1.9c3.7-1.3,7.5-2.3,11.3-3c3.8-0.6,7.6-0.5,11.3,0.5c3.8,0.9,7.5,1.8,11.3,2.6c3.7,0.9,7.5,1.6,11.3,2.1
	c3.7,0.5,7.5-0.1,10.9-1.5c1.6-0.7,3.2-1.5,4.8-2.3c1.7-0.7,3.5-1.2,5.3-1.6c3.7-1,7.4-1.6,11.2-2c3.9-0.2,7.9-0.5,11.7,0.2
	c4.1,0.8,7.8,2.7,10.9,5.5C518,441.4,520.1,439.3,518.7,438z"/>
<path class="st9" d="M327.6,444.5c-0.7,0.4-2.2-0.2-3-0.4c-1.3-0.2-2.6-0.5-3.9-0.7c-2.6-0.5-5.2-1-7.9-1.4
	c-4.9-0.7-9.8-0.9-14.7-0.4c-5.1,0.6-9.9,2.1-14.8,3.3c-2.3,0.7-4.5,1.5-6.6,2.4c-1.1,0.3-2.3,0.5-3.4,0.6c-1.3,0.1-2.5,0.4-3.7,0.6
	c-4.9,0.8-10.3,1.2-15.2-0.1c-2.3-0.6-4.5-1.6-6.9-2.2s-5-0.9-7.5-1.6c-2.3-0.6-4.5-1.6-6.9-2c-2.4-0.4-4.9-0.5-7.3-0.4
	c-5-0.1-10,0.6-14.8,1.9c-4.1,1.2-8.2,2.7-12.2,4.3c-2.4,0.9-6.9,2.6-6.2,5.9c0.4,1.9,3.2,1.1,2.9-0.7l0,0c0,0,0.3-0.4,0.4-0.4
	c0.5-0.4,1-0.7,1.6-1c1.2-0.6,2.4-1.1,3.6-1.5c3.7-1.5,7.5-2.8,11.4-3.9c4.8-1.2,9.8-1.7,14.8-1.6c2.3-0.1,4.6,0.1,6.9,0.7
	c2.3,0.7,4.5,1.5,6.8,2c2.4,0.4,4.7,0.9,7,1.6c2.2,0.9,4.5,1.6,6.8,2.2c4.8,0.9,9.8,0.9,14.6,0l3.4-0.6c1.2-0.2,2.5-0.2,3.7-0.5
	c2.2-0.5,4.1-1.7,6.3-2.3c2.4-0.7,4.8-1.1,7.2-1.8c2.4-0.7,4.8-1.3,7.2-1.6c5.5-0.7,11-0.5,16.4,0.4c2.9,0.5,5.7,1.1,8.5,1.6
	c1.2,0.2,2.5,0.4,3.7,0.7c1.1,0.4,2.4,0.3,3.4-0.3C330.8,446,329.2,443.4,327.6,444.5z"/>
</svg>
