<svg id="Layer_1" data-name="Layer 1" xmlns="http://www.w3.org/2000/svg" xmlns:xlink="http://www.w3.org/1999/xlink" viewBox="0 0 650 563.3"><defs><style>.cls-1,.cls-2{fill:none;}.cls-1{clip-rule:evenodd;}.cls-3{clip-path:url(#clip-path);}.cls-4{fill:#999;}.cls-5{fill:#ddd;}.cls-6{fill:#444;}.cls-7{fill:#f5f5f5;}.cls-8{clip-path:url(#clip-path-2);}.cls-9{fill:#fff;}.cls-10{fill:#fb0;}.cls-11{fill:#bbb;}</style><clipPath id="clip-path"><path class="cls-1" d="M1338.75,341c.28-17.74-2.17-35.64-5.78-52.8a362.3,362.3,0,0,0-11.62-41.91c-1.95-5.76-4-11.5-6.41-17.08-2.56-5.89-9-13.4-10.26-19.43a3,3,0,0,0-.21-.69c-7.7-17.62-22.12-30-36.07-42.68-13-11.8-29.77-19.39-46.53-24.15-38.64-11-79.71-6.56-119.2-11.22A431,431,0,0,1,1040.92,119c-92-24.82-219.75-16.17-269.42,80.19a141.51,141.51,0,0,0-13.63,41.23c-4.23,25.09-1.91,51.3,2,76.3,1.89,12.22,4.77,24,10.15,35.16,31,64.44,85.13,120.24,154.64,141.72,33.73,10.43,70.81,7.29,106,8,23.7.46,47.39,1.28,71.09,1.85,22.68.56,45.08-1.28,67.64-3.22,21.66-1.86,43.68-5.4,64.22-12.79,20.12-7.24,37.85-19.25,53.37-33.79,23.39-21.93,40.26-49.14,47.87-80.39A144.8,144.8,0,0,0,1338.75,341Z"/></clipPath><clipPath id="clip-path-2"><path class="cls-2" d="M607.4,200.38c-6.14-11.29-13.53-22.12-20.82-32.69-7-10.18-14.92-21.14-26.08-27.06-24-12.76-50.63-19.83-77.15-25.09-27.12-5.37-53.66-11-78.66-23.17-26-12.69-51.73-26-78.93-36-26-9.52-53.54-16.78-81-20.12-27.81-3.37-54.56,1.26-79.23,14.66-22.73,12.34-42.83,29.19-57.12,50.78C93.3,124.48,80.46,149,73.05,175.4c-15.13,53.89-19.86,113.12-6,167.74,19.78,77.86,90,156,172.16,167a616.21,616.21,0,0,0,87.45,5.34c29.93-.25,60.14-1.88,89.78-6.15,27.6-4,54.79-10.28,79-24.67,22.81-13.55,45.78-29.82,62.38-50.74,17-21.42,29.11-45.88,40.23-70.73,2.57-5.75,5.32-11.5,7.11-17.56,2.08-7,3.66-14.16,5.79-21.17,4.21-13.83,5.9-28,7.64-42.36C622,254.4,621,225.33,607.4,200.38Z"/></clipPath></defs><title>truck-insurance</title><g class="cls-3"><path class="cls-4" d="M357.41,416.43c-.52-11.47,1.73-23,7.16-32.71,6.9-12.28,19.16-18.48,32.17-19.58a.77.77,0,0,1,.16-.07,5.48,5.48,0,0,1,1.48-.26,7.26,7.26,0,0,1,4.73.2,52.32,52.32,0,0,1,26.45,8.35,5.68,5.68,0,0,1,2.3,2.93c12.12,5.12,20,15.72,23.83,28.07,3.27,4.52,5.58,9.56,5.84,15.15.45,9.77.26,26.34-7.72,33.48a39.64,39.64,0,0,1-11.31,6.67A49.28,49.28,0,0,1,425.08,469c-19.43,6.69-44.66-.72-56.53-17.91C360.14,442.21,356.3,428.94,357.41,416.43Z"/><path class="cls-5" d="M394.84,396.39a5.65,5.65,0,0,1,1.4-.55,18.66,18.66,0,0,1,4.83-2.79c10.39-3.91,21.95.24,28.59,8.75a17.29,17.29,0,0,1,3.17,6.25c3.84,5.84,4.57,10.59,1,18.73-3.7,8.54-11.76,17.79-21.81,18.05a26.13,26.13,0,0,1-11.93-2.75c-8.5-.79-14.54-7.67-16.82-16.35C380.33,414.34,384.33,402.3,394.84,396.39Z"/><path class="cls-4" d="M125.7,390.57c.27-.78.52-1.56.81-2.34,4.17-11.25,12.71-15.84,22.69-21.18a5.43,5.43,0,0,1,5.64.18,34,34,0,0,1,9.1-2c12.86-.8,26.34,6.09,35.86,14.18,16.48,14,26.11,37.17,17.82,57.11a5.34,5.34,0,0,1,.12,3.47c-2.73,9.84-9.27,15.51-16.79,22.19-6,5.29-15.85,9.21-23.84,8.72a100.52,100.52,0,0,1-19.45-3.28,5,5,0,0,1-3.69.3c-7.62-2.23-14-7-19.45-12.66-8.26-7.45-14.25-16.84-15.78-28.77C117.88,419.67,117.93,398.18,125.7,390.57Z"/><path class="cls-5" d="M147.79,401c5.72-6.57,15.2-11.57,24.07-11.71,7.33-.12,11.14,5.18,14.49,10.89,9.56,5.88,12.53,22.54,7.7,32-7.84,15.31-27.36,19.15-41.06,9.34C140,432.13,137.06,413.24,147.79,401Z"/><path class="cls-4" d="M246.73,387.49c4.44-12.11,10.78-18.81,23.57-21.46,10.65-2.21,20.35-.85,30.16,2.59a56.59,56.59,0,0,1,14.55,6.5c8.5,4.69,16.83,11.19,20.58,19.55a7,7,0,0,1,.59,2.19c4,5.25,7.83,10.91,8.91,17.57,1,5.78-.62,11.24-2.7,16.52-.82,6.83-2.52,13.1-6.44,18.85-5.31,7.77-15.23,18.07-25.58,18.68a35.23,35.23,0,0,1-13.62,4.09,55.46,55.46,0,0,1-37.84-11.13c-9.41-7.25-20.79-21-22.34-33.07C234.7,413.72,241.89,400.7,246.73,387.49Z"/><path class="cls-5" d="M273.19,396.59c6.68-6.42,14.62-6.61,23.06-3.56,12.22,4.41,27.61,21.45,18.61,35a5.45,5.45,0,0,1-.52.63,26.93,26.93,0,0,1-3.41,9.08c-3.67,6.23-10.28,8.66-17.29,8.63-15.45-.07-30.09-12.11-29.43-28.19C264.52,410.62,267.72,401.86,273.19,396.59Z"/><path class="cls-6" d="M389.22,394.39c5-3.8,11.62-6.87,17.93-7.11,7.5-.28,14.72,3.53,20.58,7.78a20.73,20.73,0,0,1,6.53,7.85,43.48,43.48,0,0,1,2.25,5c.2.58.47,1.2.62,1.79a4.69,4.69,0,0,1,.11,1c0,.17.06.44.07.59a21.91,21.91,0,0,1,1.46,6.67,27.53,27.53,0,0,1-1.12,8.93,46.59,46.59,0,0,1-3.85,8.26,31,31,0,0,1-6.27,8,26.67,26.67,0,0,1-8,5.15c-3.18,1.27-6.51,1-9.87.93a34.2,34.2,0,0,1-18-5.78,31,31,0,0,1-6.46-6.23,22.18,22.18,0,0,1-4.77-8,39.37,39.37,0,0,1-.53-19.41A26,26,0,0,1,389.22,394.39Zm-4.91,28.42a21.76,21.76,0,0,0,2.47,7.77,33.42,33.42,0,0,0,4.88,6.06c3.47,3.48,8.52,5.55,13.2,6.7a34.84,34.84,0,0,0,8.29.61A12.11,12.11,0,0,0,421,441.6a29.48,29.48,0,0,0,6.76-6.89,70.28,70.28,0,0,0,4.09-7.72,19.13,19.13,0,0,0,1.61-8.12,14.72,14.72,0,0,0-.83-4.86c0-.06-.07-.1-.1-.16a4.11,4.11,0,0,1-.47-1.47c-.23-.62-.47-1.24-.71-1.88a2.32,2.32,0,0,1-.09-1.5l-.57-1.26c-1.12-2.44-2.28-5-4.24-6.91a30.26,30.26,0,0,0-14-7.5,18.16,18.16,0,0,0-8-.34,29.43,29.43,0,0,0-7.86,3.11c-4.56,2.5-8.52,5.89-10.43,10.9A33.53,33.53,0,0,0,384.31,422.81Z"/><path class="cls-6" d="M271.38,394.39c5-3.8,11.62-6.87,17.94-7.11,7.5-.28,14.71,3.53,20.57,7.78a20.55,20.55,0,0,1,6.53,7.85,43.48,43.48,0,0,1,2.25,5c.21.58.47,1.2.62,1.79a4.7,4.7,0,0,1,.12,1c0,.17,0,.44.06.59a21.92,21.92,0,0,1,1.47,6.67,27.81,27.81,0,0,1-1.12,8.93,47.3,47.3,0,0,1-3.85,8.26,31.2,31.2,0,0,1-6.27,8,26.79,26.79,0,0,1-8,5.15c-3.18,1.27-6.51,1-9.87.93a34.18,34.18,0,0,1-18-5.78,31.33,31.33,0,0,1-6.47-6.23,22.32,22.32,0,0,1-4.77-8,39.49,39.49,0,0,1-.53-19.41A26,26,0,0,1,271.38,394.39Zm-4.91,28.42a21.77,21.77,0,0,0,2.48,7.77,33.36,33.36,0,0,0,4.87,6.06c3.47,3.48,8.52,5.55,13.21,6.7a34.8,34.8,0,0,0,8.28.61,12.12,12.12,0,0,0,7.89-2.35,29.63,29.63,0,0,0,6.75-6.89,72.11,72.11,0,0,0,4.1-7.72,19.44,19.44,0,0,0,1.61-8.12,15,15,0,0,0-.83-4.86,1.53,1.53,0,0,1-.11-.16,4.08,4.08,0,0,1-.46-1.47c-.23-.62-.47-1.24-.71-1.88a2.39,2.39,0,0,1-.1-1.5l-.57-1.26c-1.11-2.44-2.27-5-4.24-6.91a30.17,30.17,0,0,0-14-7.5,18.12,18.12,0,0,0-8-.34,29.17,29.17,0,0,0-7.86,3.11c-4.57,2.5-8.52,5.89-10.43,10.9A33.53,33.53,0,0,0,266.47,422.81Z"/><path class="cls-6" d="M150.06,394.39c5-3.8,11.62-6.87,17.94-7.11,7.49-.28,14.71,3.53,20.57,7.78a20.64,20.64,0,0,1,6.53,7.85,43.48,43.48,0,0,1,2.25,5c.21.58.47,1.2.62,1.79a4.69,4.69,0,0,1,.11,1c0,.17.06.44.07.59a22.22,22.22,0,0,1,1.47,6.67,27.81,27.81,0,0,1-1.12,8.93,47.3,47.3,0,0,1-3.85,8.26,31,31,0,0,1-6.28,8,26.54,26.54,0,0,1-8,5.15c-3.17,1.27-6.5,1-9.87.93a34.2,34.2,0,0,1-18-5.78,31.28,31.28,0,0,1-6.46-6.23,22.32,22.32,0,0,1-4.77-8,39.49,39.49,0,0,1-.53-19.41A26,26,0,0,1,150.06,394.39Zm-4.91,28.42a21.77,21.77,0,0,0,2.48,7.77,32.94,32.94,0,0,0,4.87,6.06c3.47,3.48,8.52,5.55,13.21,6.7A34.76,34.76,0,0,0,174,444a12.1,12.1,0,0,0,7.88-2.35,29.48,29.48,0,0,0,6.76-6.89,72.11,72.11,0,0,0,4.1-7.72,19.44,19.44,0,0,0,1.61-8.12,15,15,0,0,0-.83-4.86,1.53,1.53,0,0,1-.11-.16,3.89,3.89,0,0,1-.46-1.47c-.23-.62-.47-1.24-.71-1.88a2.33,2.33,0,0,1-.1-1.5l-.57-1.26c-1.11-2.44-2.27-5-4.24-6.91a30.17,30.17,0,0,0-14-7.5,18.12,18.12,0,0,0-8-.34,29.37,29.37,0,0,0-7.87,3.11c-4.56,2.5-8.51,5.89-10.42,10.9A33.41,33.41,0,0,0,145.15,422.81Z"/><path class="cls-6" d="M499.13,391.53c.05-.06.12-.12.16-.18a.67.67,0,0,1-.16.27Z"/><path class="cls-6" d="M194.12,384.28c6.33,2.09,12,6,17.45,9.68a.91.91,0,0,0,.13.08A60.1,60.1,0,0,1,217,404.32a45.28,45.28,0,0,1,3,15.41,60.68,60.68,0,0,1-1.7,16.33,27.16,27.16,0,0,1-3.41,7c-.78,1.3-1.53,2.48-2.36,3.64A2.39,2.39,0,0,0,211,448a10.88,10.88,0,0,1-1.77,3c-1,.92-2.07,1.75-3.08,2.64-2.23,1.92-3.83,4.31-6.36,5.9a58.19,58.19,0,0,1-7,4,52.26,52.26,0,0,1-8.1,3.2A46.43,46.43,0,0,1,176,468.4c-3.22.22-6.56,0-9.8,0a30.73,30.73,0,0,1-9.56-1.91c-2.67-.86-5.31-1.37-7.84-2.63-2.35-1.16-4.89-2-7.2-3.24a33.27,33.27,0,0,1-6-4.71,40.55,40.55,0,0,1-9.53-11.53c-1.19-2.29-2.61-4.45-3.78-6.75-1.25-2.46-1.75-5.16-2.55-7.78a40.51,40.51,0,0,1-1.33-15.46c.47-5.32,2-10.46,3.5-15.56.79-2.75,2.13-5.29,3.18-7.94a12.9,12.9,0,0,1,1.81-3.13c.82,1.54,2.87,2.4,4.33.73a28.78,28.78,0,0,1,8-6.65,17.39,17.39,0,0,1,5.29-1.47l.46.23c3,1.47,5.93,1.1,9.11.38a33,33,0,0,1,10.28-1.09,84.41,84.41,0,0,1,10,1.59,70.64,70.64,0,0,0,10.14,1.39A34.3,34.3,0,0,1,194.12,384.28Zm128.59-1.35a2.54,2.54,0,0,0,1.39-.24,81.12,81.12,0,0,1,5.95,7,60.88,60.88,0,0,1,8.25,14.59,45.28,45.28,0,0,1,3,15.41,60.68,60.68,0,0,1-1.7,16.33,27.16,27.16,0,0,1-3.41,7c-.78,1.3-1.53,2.48-2.36,3.64a2.39,2.39,0,0,0-1.55,1.25,10.88,10.88,0,0,1-1.77,3c-1,.92-2.06,1.75-3.08,2.64-2.22,1.92-3.83,4.31-6.36,5.9a58.19,58.19,0,0,1-7,4,52.54,52.54,0,0,1-8.09,3.2,46.75,46.75,0,0,1-8.65,1.69c-3.23.22-6.57,0-9.8,0a30.85,30.85,0,0,1-9.57-1.91c-2.67-.86-5.31-1.37-7.84-2.63-2.35-1.16-4.89-2-7.19-3.24a32.58,32.58,0,0,1-6-4.71,40.22,40.22,0,0,1-9.53-11.53c-1.2-2.29-2.62-4.45-3.79-6.75-1.25-2.46-1.75-5.16-2.55-7.78a40.71,40.71,0,0,1-1.33-15.46c.47-5.32,2.05-10.46,3.51-15.56a84.7,84.7,0,0,1,3.17-7.94,17.63,17.63,0,0,1,3.53-5.22,61.2,61.2,0,0,1,5.12-5.56c.51-.47,1-.91,1.54-1.34,1.61.13,3.21.28,4.83.36,3,.16,6.08.11,9.12.09,5.93,0,11.86-.15,17.79.12a74.31,74.31,0,0,1,8.83.66c2.75.45,5.31,1.49,8.09,1.87a81.34,81.34,0,0,0,8.82.91C317,382.82,319.84,382.67,322.71,382.93Zm109.71-3,.44.09c2.44.47,5.32,2,7.77,1.48l.06,0a75.47,75.47,0,0,1,7.2,8.28,61.22,61.22,0,0,1,8.25,14.59,45.52,45.52,0,0,1,3,15.41,60.29,60.29,0,0,1-1.71,16.33,26.53,26.53,0,0,1-3.41,7c-.77,1.3-1.52,2.48-2.35,3.64a2.39,2.39,0,0,0-1.55,1.25,11.14,11.14,0,0,1-1.77,3c-1,.92-2.07,1.75-3.09,2.64-2.22,1.92-3.83,4.31-6.35,5.9a58.19,58.19,0,0,1-7,4,53.06,53.06,0,0,1-8.1,3.2,46.59,46.59,0,0,1-8.65,1.69c-3.22.22-6.56,0-9.8,0a30.73,30.73,0,0,1-9.56-1.91c-2.67-.86-5.31-1.37-7.85-2.63-2.34-1.16-4.88-2-7.19-3.24a32.58,32.58,0,0,1-6-4.71,40.38,40.38,0,0,1-9.53-11.53c-1.19-2.29-2.61-4.45-3.78-6.75-1.26-2.46-1.76-5.16-2.55-7.78a40.51,40.51,0,0,1-1.34-15.46c.48-5.32,2.05-10.46,3.51-15.56.79-2.75,2.12-5.29,3.17-7.94a18,18,0,0,1,3.53-5.22c.85-1,1.67-2,2.51-2.89a2.16,2.16,0,0,0,1.38-.12l.69-.29c2.2-.94,4.75-.73,7.11-.68a2.62,2.62,0,0,0,3,1.18l4.44-1.17c.52,0,1,0,1.56,0,5.48.06,10.8.59,16.3.24C414,381.33,423.18,380.29,432.42,379.91Z"/><path class="cls-4" d="M403.05,416.71a8.15,8.15,0,0,1,1.9-2.58,6.86,6.86,0,0,1,5.65-2.32,6.65,6.65,0,0,1,4.42,2.12c.11.13.2.27.3.4a6.51,6.51,0,0,1,1.22,1.41,4.12,4.12,0,0,1,.5,3,8.09,8.09,0,0,1-.36,3.87,8.22,8.22,0,0,1-3.11,4.05,6.72,6.72,0,0,1-4.05,1.05,8.37,8.37,0,0,1-4.66-1.92,6.92,6.92,0,0,1-2.43-3.9A8.23,8.23,0,0,1,403.05,416.71Z"/><path class="cls-4" d="M398.2,400a8.94,8.94,0,0,1,2.39-2.51,8.15,8.15,0,0,1,1.8-.95l.06,0a7.11,7.11,0,0,1,2.7-.82c.77-.18,1.55-.35,2.3-.57a2.83,2.83,0,0,1,3.45,1.95,2.88,2.88,0,0,1-1.11,3,2.76,2.76,0,0,1-2.23,1.16H406c-.37.1-.73.2-1.1.32l-.57.39c-.77.63-1.52,1.28-2.31,1.88l-.67.28a2,2,0,0,1-1.11.05,2.66,2.66,0,0,1-1.61-.77A2.87,2.87,0,0,1,398.2,400Z"/><path class="cls-4" d="M388.23,418.19c0-.16,0-.3,0-.46s0-.13,0-.19a9.15,9.15,0,0,1,.63-2.56,15,15,0,0,0,.71-2.65,2.8,2.8,0,0,1,1.29-1.67,2.8,2.8,0,0,1,3.83,1,3.28,3.28,0,0,1,.29,2.07,2.78,2.78,0,0,1-.29,2c-.16.26-.31.53-.46.8a15.6,15.6,0,0,0-.47,1.75v.16a2.64,2.64,0,0,0,0,.28c.33,1.47,1.19,2.72,1.18,4.3a2.81,2.81,0,0,1-1.39,2.41,2.72,2.72,0,0,1-2.82,0c-2-1.4-2.42-4-2.58-6.24,0-.22,0-.43,0-.65S388.23,418.32,388.23,418.19Z"/><path class="cls-4" d="M399.16,432.63a2.86,2.86,0,0,1,1.28-1.67,2.82,2.82,0,0,1,2.16-.28,3.31,3.31,0,0,1,1.67,1.28c-.12-.15-.24-.3-.35-.46a9.94,9.94,0,0,0,1.23,1.36l.31.19.41.12a15.62,15.62,0,0,0,2.27-.1,8.2,8.2,0,0,1,3.23.25A2.8,2.8,0,0,1,412.6,438a6.72,6.72,0,0,1-4.31,1.92,8.5,8.5,0,0,1-4-1,2.17,2.17,0,0,1-.82-.73,7.77,7.77,0,0,1-2.1-1.26,13.51,13.51,0,0,1-1.89-2.18A2.82,2.82,0,0,1,399.16,432.63Z"/><path class="cls-4" d="M422,428.83c.07-.19.12-.37.19-.55a2.74,2.74,0,0,1,.95-3.51c.11-1.77-.3-3.57.27-5.29a2.88,2.88,0,0,1,2-2,2.82,2.82,0,0,1,2.72.72c1.61,1.75,1.68,4.24,1.21,6.45a9,9,0,0,1-1,2.56,23.87,23.87,0,0,1-.92,3.06A3,3,0,0,1,426.1,432a2.79,2.79,0,0,1-4.11-3.15Z"/><path class="cls-4" d="M416.5,402.15a3.33,3.33,0,0,1,.72-1.23,2.79,2.79,0,0,1,2-.82l.42,0a3,3,0,0,1,2,.82c.07.07.12.15.18.22,1.3.86,2.45,1.94,3.67,2.92a10.45,10.45,0,0,0,1.3.86,2.88,2.88,0,0,1,1.28,1.68,2.79,2.79,0,0,1-4.11,3.15,32.05,32.05,0,0,1-4.46-3.43,11,11,0,0,0-1.66-1l-.57-.44a2.06,2.06,0,0,1-.58-.9A2.71,2.71,0,0,1,416.5,402.15Z"/><path class="cls-4" d="M283.1,416.71a7.86,7.86,0,0,1,1.9-2.58,6.83,6.83,0,0,1,5.65-2.32,6.63,6.63,0,0,1,4.41,2.12c.12.13.21.27.31.4a6.2,6.2,0,0,1,1.21,1.41,4.13,4.13,0,0,1,.51,3,8.34,8.34,0,0,1-.36,3.87,8.22,8.22,0,0,1-3.11,4.05,6.74,6.74,0,0,1-4.05,1.05,8.34,8.34,0,0,1-4.66-1.92,6.94,6.94,0,0,1-2.44-3.9A8.31,8.31,0,0,1,283.1,416.71Z"/><path class="cls-4" d="M278.25,400a8.76,8.76,0,0,1,2.38-2.51,8.23,8.23,0,0,1,1.81-.95l.06,0a7.06,7.06,0,0,1,2.69-.82c.78-.18,1.55-.35,2.31-.57a2.82,2.82,0,0,1,3.44,1.95,2.86,2.86,0,0,1-1.11,3,2.74,2.74,0,0,1-2.22,1.16h-1.55c-.37.1-.74.2-1.1.32-.2.12-.38.26-.57.39-.77.63-1.52,1.28-2.31,1.88l-.67.28a2,2,0,0,1-1.12.05,2.66,2.66,0,0,1-1.6-.77A2.84,2.84,0,0,1,278.25,400Z"/><path class="cls-4" d="M268.28,418.19c0-.16,0-.3.05-.46a1.23,1.23,0,0,1,0-.19A9.14,9.14,0,0,1,269,415a15,15,0,0,0,.72-2.65,2.77,2.77,0,0,1,1.29-1.67,2.79,2.79,0,0,1,3.82,1,3.15,3.15,0,0,1,.29,2.07,2.69,2.69,0,0,1-.29,2c-.15.26-.31.53-.45.8a15.6,15.6,0,0,0-.47,1.75v.16c0,.09,0,.19,0,.28.33,1.47,1.2,2.72,1.18,4.3a2.83,2.83,0,0,1-1.38,2.41,2.74,2.74,0,0,1-2.83,0c-2-1.4-2.41-4-2.57-6.24a4.71,4.71,0,0,1,0-.65C268.3,418.44,268.28,418.32,268.28,418.19Z"/><path class="cls-4" d="M279.2,432.63a2.81,2.81,0,0,1,3.45-1.95,3.31,3.31,0,0,1,1.67,1.28l-.36-.46a10.64,10.64,0,0,0,1.23,1.36l.32.19a3.17,3.17,0,0,0,.41.12,15.68,15.68,0,0,0,2.27-.1,8.13,8.13,0,0,1,3.22.25,2.87,2.87,0,0,1,2,1.95,2.83,2.83,0,0,1-.72,2.73,6.74,6.74,0,0,1-4.31,1.92,8.5,8.5,0,0,1-4-1,2.17,2.17,0,0,1-.82-.73,7.77,7.77,0,0,1-2.1-1.26,13.51,13.51,0,0,1-1.89-2.18A2.86,2.86,0,0,1,279.2,432.63Z"/><path class="cls-4" d="M302,428.83c.07-.19.12-.37.19-.55a2.21,2.21,0,0,1-.19-.5,2.77,2.77,0,0,1,1.14-3c.11-1.77-.3-3.57.27-5.29a2.89,2.89,0,0,1,1.95-2,2.81,2.81,0,0,1,2.72.72c1.62,1.75,1.69,4.24,1.22,6.45a8.78,8.78,0,0,1-1,2.56,22.38,22.38,0,0,1-.92,3.06,3,3,0,0,1-1.28,1.67,2.86,2.86,0,0,1-2.16.29A2.83,2.83,0,0,1,302,428.83Z"/><path class="cls-4" d="M296.55,402.15a3.33,3.33,0,0,1,.72-1.23,2.75,2.75,0,0,1,2-.82l.42,0a3,3,0,0,1,2,.82l.18.22c1.3.86,2.45,1.94,3.66,2.92a12.17,12.17,0,0,0,1.3.86,2.8,2.8,0,1,1-2.82,4.83,31.56,31.56,0,0,1-4.47-3.43,10.51,10.51,0,0,0-1.66-1l-.56-.44a2,2,0,0,1-.58-.9A2.65,2.65,0,0,1,296.55,402.15Z"/><path class="cls-4" d="M162,416.71a8.15,8.15,0,0,1,1.9-2.58,6.86,6.86,0,0,1,5.66-2.32,6.65,6.65,0,0,1,4.41,2.12c.11.13.2.27.31.4a6.75,6.75,0,0,1,1.21,1.41,4.12,4.12,0,0,1,.5,3,8.11,8.11,0,0,1-3.47,7.92,6.72,6.72,0,0,1-4,1.05,8.4,8.4,0,0,1-4.66-1.92,7,7,0,0,1-2.43-3.9A8.3,8.3,0,0,1,162,416.71Z"/><path class="cls-4" d="M157.15,400a8.76,8.76,0,0,1,2.38-2.51,8,8,0,0,1,1.81-.95l.06,0a7,7,0,0,1,2.69-.82c.77-.18,1.55-.35,2.31-.57a2.82,2.82,0,0,1,3.44,1.95,2.88,2.88,0,0,1-1.11,3,2.76,2.76,0,0,1-2.22,1.16H165c-.37.1-.73.2-1.1.32-.19.12-.38.26-.56.39-.78.63-1.52,1.28-2.32,1.88l-.66.28a2,2,0,0,1-1.12.05,2.68,2.68,0,0,1-1.61-.77A2.86,2.86,0,0,1,157.15,400Z"/><path class="cls-4" d="M147.18,418.19c0-.16,0-.3,0-.46s0-.13,0-.19a9.15,9.15,0,0,1,.63-2.56,15,15,0,0,0,.72-2.65,2.79,2.79,0,0,1,1.28-1.67,2.8,2.8,0,0,1,3.83,1,3.22,3.22,0,0,1,.29,2.07,2.69,2.69,0,0,1-.29,2c-.16.26-.31.53-.46.8a15.55,15.55,0,0,0-.46,1.75.92.92,0,0,0,0,.16,2.64,2.64,0,0,0,0,.28c.33,1.47,1.19,2.72,1.18,4.3a2.81,2.81,0,0,1-1.39,2.41,2.72,2.72,0,0,1-2.82,0c-2-1.4-2.41-4-2.58-6.24,0-.22,0-.43,0-.65S147.17,418.32,147.18,418.19Z"/><path class="cls-4" d="M158.1,432.63a2.84,2.84,0,0,1,1.29-1.67,2.79,2.79,0,0,1,2.15-.28,3.31,3.31,0,0,1,1.67,1.28l-.35-.46a9.94,9.94,0,0,0,1.23,1.36,3.37,3.37,0,0,0,.32.19,2.77,2.77,0,0,0,.41.12,15.74,15.74,0,0,0,2.27-.1,8.15,8.15,0,0,1,3.22.25,2.8,2.8,0,0,1,1.23,4.68,6.69,6.69,0,0,1-4.3,1.92,8.54,8.54,0,0,1-4.05-1,2.15,2.15,0,0,1-.81-.73,7.82,7.82,0,0,1-2.11-1.26,14.57,14.57,0,0,1-1.89-2.18A2.82,2.82,0,0,1,158.1,432.63Z"/><path class="cls-4" d="M180.94,428.83l.18-.55a2.16,2.16,0,0,1-.18-.5,2.77,2.77,0,0,1,1.14-3c.11-1.77-.3-3.57.26-5.29a2.88,2.88,0,0,1,2-2,2.82,2.82,0,0,1,2.72.72c1.61,1.75,1.68,4.24,1.21,6.45a8.75,8.75,0,0,1-1,2.56,23.87,23.87,0,0,1-.92,3.06A3,3,0,0,1,185,432a2.79,2.79,0,0,1-4.1-3.15Z"/><path class="cls-4" d="M175.44,402.15a3.33,3.33,0,0,1,.72-1.23,2.79,2.79,0,0,1,2-.82l.42,0a3,3,0,0,1,2,.82l.18.22c1.3.86,2.45,1.94,3.66,2.92a11.24,11.24,0,0,0,1.3.86,2.88,2.88,0,0,1,1.28,1.68,2.79,2.79,0,0,1-.28,2.15,2.84,2.84,0,0,1-3.82,1,31.56,31.56,0,0,1-4.47-3.43,11,11,0,0,0-1.66-1l-.57-.44a2.15,2.15,0,0,1-.58-.9A2.71,2.71,0,0,1,175.44,402.15Z"/></g><path class="cls-7" d="M607.4,200.38c-6.14-11.29-13.53-22.12-20.82-32.69-7-10.18-14.92-21.14-26.08-27.06-24-12.76-50.63-19.83-77.15-25.09-27.12-5.37-53.66-11-78.66-23.17-26-12.69-51.73-26-78.93-36-26-9.52-53.54-16.78-81-20.12-27.81-3.37-54.56,1.26-79.23,14.66-22.73,12.34-42.83,29.19-57.12,50.78C93.3,124.48,80.46,149,73.05,175.4c-15.13,53.89-19.86,113.12-6,167.74,19.78,77.86,90,156,172.16,167a616.21,616.21,0,0,0,87.45,5.34c29.93-.25,60.14-1.88,89.78-6.15,27.6-4,54.79-10.28,79-24.67,22.81-13.55,45.78-29.82,62.38-50.74,17-21.42,29.11-45.88,40.23-70.73,2.57-5.75,5.32-11.5,7.11-17.56,2.08-7,3.66-14.16,5.79-21.17,4.21-13.83,5.9-28,7.64-42.36C622,254.4,621,225.33,607.4,200.38Z"/><path class="cls-6" d="M620.42,324.14l-.08-.08h0c-.07-.21-.12-.43-.18-.64a3.36,3.36,0,0,0-.79-1.4,4.78,4.78,0,0,0-1-.78,6,6,0,0,0-1.15-.54,1.48,1.48,0,0,0-1.16.15,1.52,1.52,0,0,0-.69.9,1.54,1.54,0,0,0,.15,1.15,1.71,1.71,0,0,0,.84.66l-.13-.06a4.8,4.8,0,0,1,.85.49l.16.15h0c.08.24.13.48.21.72a2.88,2.88,0,0,0,.86,1.4,1.24,1.24,0,0,0,.48.31,1.27,1.27,0,0,0,.58.13,1.5,1.5,0,0,0,1.5-1.5A1.46,1.46,0,0,0,620.42,324.14Z"/><g class="cls-8"><path class="cls-9" d="M370.12,321.93c-1.21-2.25-2.39-4.67-4.32-6.41a8.21,8.21,0,0,0-4.19-2.25c-1.42-.2-2.73.42-4.08.74-6.34,1.5-11.49,5.95-17.15,9-2.78,1.49-5.72,2.6-8.34,4.39s-5.28,3.88-8,5.7c-5.41,3.6-11.35,6.31-16.68,10a44.27,44.27,0,0,1-3.85,2.48c-1.39.76-2.85,1.39-4.19,2.25-2.8,1.79-5.39,3.84-8.27,5.53-5.78,3.4-11.81,6.36-17.6,9.73s-11.8,6.9-17.59,10.51c-2.83,1.77-5.74,3.43-8.51,5.3s-5.32,3.67-8.07,5.41c-5.46,3.47-10.44,7.81-16.46,10.29a10.26,10.26,0,0,0-3.58,1.93,3.37,3.37,0,0,0-.9,1.84L217,399c-4.14,1.95-8.34,3.78-12.36,6a2.63,2.63,0,0,0-.7,4.13,2.73,2.73,0,0,0-.36,2.21,23.84,23.84,0,0,0,1.49,4.28.52.52,0,0,1,0,.11,33.24,33.24,0,0,0,1.37,4.49c.74,2,1.34,4.63,3,6.13a5.64,5.64,0,0,0,1,2.34c2.59,3.29,7,1.2,10-.3s6-3.52,8.93-5.31a2.8,2.8,0,0,0,.4-4.48c5.63-2.79,11.08-5.87,16.63-8.8,6-3.17,11.46-7.26,17.28-10.72s11.65-7.13,17.49-10.67,11.81-6.84,17.56-10.54,11.21-7.74,16.92-11.47,11.5-7.25,17.23-10.91c2.8-1.8,5.54-3.69,8.31-5.54s5.62-3.51,8.43-5.27c5.51-3.46,10.74-7.38,16.63-10.2,2.36-1.13,5.23-2.29,5.81-5.16C372.55,326.72,371.31,324.13,370.12,321.93Z"/><path class="cls-9" d="M361,319l-.07,0-.2.09A.47.47,0,0,0,361,319Z"/><path class="cls-10" d="M228.53,398.36a3,3,0,0,0-1.22-2.44,2.68,2.68,0,0,0-2.71.08,8.4,8.4,0,0,0-1.68,1.28,1.79,1.79,0,0,0-2.06,1.8,133.25,133.25,0,0,1-.49,13.7,14.07,14.07,0,0,0-.22,4.57,3,3,0,0,0,3.92,2.21,4,4,0,0,0,3.19-3.56,63.23,63.23,0,0,0,.78-7c.07-2.14.28-4.27.36-6.41A35.23,35.23,0,0,0,228.53,398.36Z"/><path class="cls-10" d="M249.8,387.14v-.05a1.89,1.89,0,0,0-1.38-2.27l0,0a4.21,4.21,0,0,0-4.63.39,1.94,1.94,0,0,0-.76,1.05,1.74,1.74,0,0,0-1.5,1.76c0,2-.34,4-.41,5.95-.05,1.84,0,3.7-.16,5.54-.14,1.35-.59,3.42-.11,4.91l-.3.24c-1.79,1.62.86,4.26,2.65,2.65.76-.68,1.65-1.2,2.46-1.81a7.17,7.17,0,0,0,1.08-.76,6.34,6.34,0,0,0,1.73-3.85A81.45,81.45,0,0,0,249.85,390,15.11,15.11,0,0,0,249.8,387.14Z"/><path class="cls-10" d="M271.26,370.1c-1.26-.77-3.47-.25-3.9,1.29a2.14,2.14,0,0,0-.06.35,6.39,6.39,0,0,0-1.14.57,2.75,2.75,0,0,0-.6.5,1.76,1.76,0,0,0-1.9,1.81,52.62,52.62,0,0,1-1.13,10.17,18.35,18.35,0,0,0-.39,2.54,11.32,11.32,0,0,1,0,2.1c-.24,1.07-.66,2.07-.17,3.16a4.78,4.78,0,0,0,4.62,1.53,9.4,9.4,0,0,0,1.47-1.2,14.3,14.3,0,0,0,1.78-1.61c1.28-1.53,1.48-3.26,1.63-5.18.27-3.56,1.36-7,1.5-10.57C273,373.76,273,371.16,271.26,370.1Z"/><path class="cls-10" d="M293.28,367c-.06-1.15-.14-2.3-.21-3.45,0-.26,0-.51,0-.77a6.68,6.68,0,0,0-.29-2.22,3.53,3.53,0,0,0-.37-1,2.64,2.64,0,0,0-3.55-1,9,9,0,0,0-2,1.94,1.92,1.92,0,0,0-.53,1.16,1.94,1.94,0,0,0-.12.66v5.8a26.42,26.42,0,0,1,0,4.79c-.23,1.31-.74,2.61-.31,3.94a3,3,0,0,0,.12.32,2,2,0,0,0,.39,2.14,1.91,1.91,0,0,0,2.65,0c-.13.1.11,0,.09,0a6.55,6.55,0,0,1,.63-.19,7.93,7.93,0,0,0,1.31-.48A3.74,3.74,0,0,0,293,376,36.79,36.79,0,0,0,293.28,367Z"/><path class="cls-10" d="M308.28,359.51c0-1.42,0-2.85.06-4.27s.72-2.89,0-4.14a2.44,2.44,0,0,0-1.62-1.08l-.47-.07a2.09,2.09,0,0,0-1.81-.45,1.74,1.74,0,0,0-1.28,1.41,1.71,1.71,0,0,0-.86,1.55c0,2.94-.2,5.87-.33,8.8a30.15,30.15,0,0,0-.42,4c.11,1.37.84,2.67,2.38,2.71a7.16,7.16,0,0,0,2.92-.8c1.55-.7,1.85-2.22,1.51-3.74A19.63,19.63,0,0,1,308.28,359.51Z"/><path class="cls-9" d="M666.17,330.18c-.55-2-3.42-2.79-5.21-3.2-3.78-.86-7.75-.54-11.6-.58-8.68-.08-17.35-.55-26-.56a2.58,2.58,0,0,0-2.63,2.11c-3.29-.26-6.57-.55-9.86-.74-4.89-.3-9.79-.26-14.67-.54s-9.71-.78-14.56-1.09-9.68-.47-14.51-.64c-9.91-.35-19.79-.84-29.71-.69-5.48.08-11,.31-16.43.45-4.62.11-9.24.22-13.85.5-4.31-.32-8.62-.42-12.94-.53-8.66-.22-17.27-1.25-25.93-1.63-9.73-.43-19.49-.66-29.17-1.85a2.59,2.59,0,0,0-2.29,1.21c-3.46-.17-6.92-.22-10.38-.36q-11.31-.46-22.6-1.37a2.37,2.37,0,0,0-1.73.6,2.87,2.87,0,0,0-1-.5c-2.49-.75-4.66-1.54-7.24-.59a40.76,40.76,0,0,0-7.31,3.91c-4.85,3-10,5.55-15,8.23-2.48,1.31-4.68,3-7,4.44s-5,2.45-7.5,3.73a46.61,46.61,0,0,0-6.84,4.66,67,67,0,0,1-6.87,4.43c-2.4,1.41-4.61,3.08-7,4.55s-5,2.86-7.43,4.28c-5.06,2.92-10.06,6-14.87,9.28s-9.3,6.87-14.22,9.95-9.82,5.8-14.78,8.62c-5.14,2.91-10.09,6.06-15,9.34-2.39,1.61-5,2.86-7.4,4.43s-4.82,2.84-7.25,4.24c-10.28,5.91-19.67,13.4-29.45,20.07q-3.72,2.54-7.48,5c-2.13,1.39-4,3.1-6.12,4.54a11.85,11.85,0,0,1-2.75,1.55,22,22,0,0,0-3.44,1.13c-2.23,1.21-3.5,3.85-4.13,6.21-.72,2.68-.45,5.61-.56,8.36a53.56,53.56,0,0,0,.13,8.59c.35,2.86,1.18,5.57,1.21,8.47s0,6.06-.08,9.09c0,6-.33,12,.39,18,.69,5.77-.29,11.52,1.31,17.21.8,2.84.41,5.57.58,8.47.16,2.74,1,5.37,1.17,8.1s-.25,5.7,0,8.55c.13,1.69.27,3.47.5,5.22a2.83,2.83,0,0,0-.46,1.37c-.27,3.91,1.68,7.28,3.47,10.6,1.93,3.61,2.34,7.71,4,11.42,1.54,3.4,4.88,5.75,7.63,8.12a124.6,124.6,0,0,0,10.58,8.44c7.42,5.12,16.08,5.63,24.63,7.41a50.73,50.73,0,0,0,13.73,1.31,54.51,54.51,0,0,0,12.53-2.32c4.19-1.28,8.29-2.85,12.55-3.93s8.44-2,12.65-3.06c4-1,7.74-4.06,11-6.48,1.74-1.27,3.43-2.61,5.05-4,.79-.7,1.56-1.42,2.4-2.06s1.64-1.05,2.33-1.71a4.21,4.21,0,0,0,1.11-4.07,33.36,33.36,0,0,0-1.21-5.16c-.7-1.87-2.06-3.29-2.93-5a24.29,24.29,0,0,1-1.84-6c-1.71-8.44-.77-17.67.89-26a110.4,110.4,0,0,1,8-25.05c1.86-4,4.08-7.81,6.15-11.69a83.32,83.32,0,0,1,6.74-10.67c5.16-6.95,11.53-12.85,18.18-18.34A198,198,0,0,1,385,440.38a115.83,115.83,0,0,1,23.66-11.11,214.85,214.85,0,0,1,26.06-7.77,87.22,87.22,0,0,1,27.05-1.75A115.63,115.63,0,0,1,474,421.82a51.87,51.87,0,0,1,11.38,3.43c7.48,3.53,13.69,9.53,19.7,15.07a131.09,131.09,0,0,1,16.52,19.15c4.61,6.32,9.81,12.68,11.93,20.35,1.12,4.08,2,8.21,3.23,12.26,1.08,3.65.59,7.1-.27,10.72-.48,2-.74,4-1.25,6s-1.24,4.13-1.87,6.19c-3.11.6-3,5.49.49,5.57a24.21,24.21,0,0,1,2.83.6,28.55,28.55,0,0,1,3.4.83c2.33.68,4.6,1.62,6.94,2.24a24.3,24.3,0,0,0,6.71.53,12.6,12.6,0,0,0,6.15-2.06c3.71-2.23,7.33-4.6,10.8-7.18,3.74-2.78,7.67-5.17,11.64-7.59a76.86,76.86,0,0,0,15.53-12.41,17.33,17.33,0,0,0,3.66-3.19c2.86-3,5.48-6.28,8.06-9.54s5.11-6.53,7.55-9.88a67.59,67.59,0,0,0,7.37-11.69c1.88-4.15,3.59-8.35,5.77-12.34a43.42,43.42,0,0,0,2.87-6,13.85,13.85,0,0,0,.65-2.63c.07-.48.1-1.07.19-1.63.39-.81.78-1.63,1.16-2.45a109.68,109.68,0,0,0,6.58-16.77c.77-2.75,2.45-5.06,3-7.89a39.13,39.13,0,0,1,.88-4.28c.44-1.39,1-2.75,1.45-4.15.86-2.68,1.69-5.31,2.8-7.9a66.93,66.93,0,0,0,2.66-8.5c1.64-5.9,3.87-11.62,5.45-17.54,1.81-6.76,3-13.64,4.72-20.43a67.24,67.24,0,0,0,2.12-9.81,10.92,10.92,0,0,0-.58-4.43A3.66,3.66,0,0,0,666.17,330.18Z"/><path class="cls-5" d="M388.24,324.64a65.85,65.85,0,0,0-10.67,4.53c-3.47,1.73-7,3.27-10.4,5.19a125.07,125.07,0,0,0-18.93,13.94c-1.62,1.4-3.18,2.86-4.78,4.27a7.54,7.54,0,0,1-4.2,2.28,2.55,2.55,0,0,0-2.49,2.41c-3.68,2-7.42,3.79-11,5.9-5.23,3-10.14,6.61-15.3,9.78-5.38,3.3-11,6.14-16.56,9.19s-10.83,6.59-16.14,10.14-10.86,6.89-16.36,10.22c-6,3.67-12,7.42-17.88,11.42-3.07,2.11-6.15,4.18-9.19,6.31a2.82,2.82,0,0,0-.38-.45,2.78,2.78,0,0,0-1.87-1.75l-.52-.13a2.74,2.74,0,0,0-3.39,2.07l-.59.37c-.73.42-1.49.78-2.22,1.2a72.24,72.24,0,0,0-8,5.82c-2.5,2-5,3.91-7.67,5.68-2.41,1.61-5.55,3-7,5.65-1.23,2.27-1.11,4.87-.81,7.35.35,3,.23,5.93.37,8.92.16,3.39.71,6.76.92,10.16s.1,6.67.1,10-.24,6.66-.48,10-.1,6.68-.51,10,.51,6.53.46,9.87a61.32,61.32,0,0,0,.85,9.75c.45,3.17.07,6.35.31,9.54.13,1.69.5,3.32.78,5s.46,3.59.73,5.38c.46,3.18,1.25,6.15,1.24,9.38a27.69,27.69,0,0,0,2,9.17c.75,2.11,1.35,6,3.7,7a7.63,7.63,0,0,1-.2.79c-.64,2.09.1,4.37,2.44,4.91,4.07,1,6-4.33,5.82-7.44,0-1.2-.5-2.76.13-3.84.75-1.29,2.28-2.16,3.45-3,1.58-1.14,3.07-2.37,4.57-3.6l.07-.06.08-.05.68-.45c.54-.35,1.09-.68,1.63-1,2.27-1.51,5-3.63,4.84-6.69a3,3,0,0,0-.05-.42c1.86-4.21,1.8-9.23,2-13.71.07-1.64.31-3.24.45-4.85A115.06,115.06,0,0,0,256,525.11c5.4.86,13.62,3.23,16.8-2.79.25-.48.48-1,.7-1.48.85-.2,1.7-.4,2.57-.56,2.14-.39,4.87,0,6.69-1.4,1.55-1.2,1.75-2.82,1.86-4.64a82.87,82.87,0,0,1,1.5-12.43c1.63-7.85,2.28-16.33,5.16-23.86,1.26-3.29,3.32-6.28,4.81-9.49,1.73-3.73,3.58-7.37,5.55-11,7.58-13.9,16.59-25.67,28.66-36,6.21-5.29,13-9.78,19.69-14.39,3.16-2.18,6.29-4.33,9.59-6.26,2.07-1.21,3.78-2.29,4.42-4.75a3.56,3.56,0,0,0-3.38-4.44c-6.79-.37-13.79,4.52-19.31,8-.61.38-1.2.79-1.8,1.19-1.38.54-2.74,1.12-4.06,1.77-6,3-11.09,7.39-15.86,12-9.3,9-19.35,18.95-25,30.67-2.91,6.09-7.49,11.27-10.83,17.13-3.25,5.71-6.92,11.51-9.54,17.54-2.55,5.85-3.48,12.32-4.16,18.61-.12,1.11-.18,2.25-.22,3.4a3.45,3.45,0,0,0-1.46.81,25,25,0,0,1-9.68,5.32,45.12,45.12,0,0,1-13.87-3.42c-2.37-1-4.78-2.25-7.26-3.25-.41-2.54-.9-5.07-1.22-7.62a246.54,246.54,0,0,1-1.58-33.71c.06-6.46-.12-12.86-.48-19.31a123.06,123.06,0,0,1,.24-12.74c1-.76,2-1.52,3.05-2.2,2.59-1.68,5.45-3,8.1-4.6,2.83-1.69,5.65-3.43,8.62-4.87s6-2.76,8.81-4.43c2.53-1.48,5-3.1,7.4-4.77,3.07-1.64,6.12-3.3,9.11-5.08C285,399,290,395.37,295.3,392.07c10.8-6.76,20.93-14.51,31.49-21.64,2.84-1.92,5.73-3.79,8.62-5.64,5.69-3.35,11.45-6.6,16.95-10.26,3.06-2,6-4.25,9.09-6.22s6.43-3.59,9.58-5.5,6.34-3.82,9.28-6c1.18-.87,2.29-1.85,3.39-2.82l.17-.1a19.22,19.22,0,0,0,4.57-3.37,12.89,12.89,0,0,1,1.73-1.31C392.56,327.77,391,323.83,388.24,324.64Z"/><path class="cls-4" d="M535.33,479.18a103.37,103.37,0,0,0-7.47-17.81c-1.71-3.11-3.92-8.38-7.7-9.52a201.26,201.26,0,0,0-14.76-20.24,3.85,3.85,0,0,0-1.25-1.05c-.78-1-1.58-2-2.44-2.92-3.55-3.93-8.88-10.4-14.41-11.82a31.63,31.63,0,0,0-5.58-3.68A3.55,3.55,0,0,0,479,408a165.8,165.8,0,0,0-16.79-3.75,3.47,3.47,0,0,0-2.36-1.65,101.63,101.63,0,0,0-31.4-2l-.14,0c-2.82.13-5.66.29-8.49.52a3.43,3.43,0,0,0-3.3-1.78,60.6,60.6,0,0,0-12.56,1.81,97.33,97.33,0,0,0-15.87,5.24,36.42,36.42,0,0,0-8.64,4.08c-2,1-3.92,2.1-5.77,3.21a3.63,3.63,0,0,0-1.72,2.12c-3.29,1.38-6.56,2.85-9.82,4.44a104.29,104.29,0,0,0-24.6,17.16c-7.81,7.22-13.11,15.21-19.19,23.78-11.08,15.6-13.6,34.94-15.46,53.52-.42,4.24.47,8,.63,12.16a60.33,60.33,0,0,0,1.55,13.3c1.13,4.28,3.12,12.08,7.69,14.33a19.47,19.47,0,0,0,4.57,7.94A71.62,71.62,0,0,0,330,572a62.83,62.83,0,0,0,8.08,4.05,3.71,3.71,0,0,0,2.75,3.51A56.91,56.91,0,0,1,351,583.51c3,1.59,6.34,1.84,9.71,2a3.43,3.43,0,0,0,3.51-2.24c20.9,3.39,42.34,1.26,62.78-3.9,11.57-2.92,23-6.57,34.46-9.85,5.24-1.5,10.42-3.07,15.16-5.8,5.06-2.9,9.6-6.14,14.86-8.73,19.18-9.46,36.72-24,43.44-44.88,1.57-4.86,3.67-10.11,3.8-15.27C538.83,489.49,537,484.17,535.33,479.18Z"/><path class="cls-5" d="M490.09,509.15a2,2,0,0,0-.16-.24c-.52-5.41-1.67-10.77-4.39-15.46-3.94-6.79-9.22-11.16-14.49-16.81-4.57-4.89-8.93-9.33-15.18-12-3.59-1.53-7.36-3.34-11.22-4.82a3.87,3.87,0,0,0-3.31-2.14c-6.46-.43-12.17-1.81-18.77-1.1a119.54,119.54,0,0,0-20.72,4.54,3.64,3.64,0,0,0-2.56,2.41c-1.9.79-3.76,1.67-5.61,2.63a71.18,71.18,0,0,0-21.82,16.92c-1.11,1.31-2.18,2.67-3.22,4.06a66.34,66.34,0,0,0-8.52,12.48c-4.55,8.49-4.12,17.77-3.76,27.13a4.11,4.11,0,0,0,.29,1.36c0,.52.05,1,.09,1.55.09,1,.14,2.07.22,3.15a4.06,4.06,0,0,0-.08,1.88c.16.84.35,1.67.56,2.49a14.94,14.94,0,0,0,1.1,3.68c1.9,5.57,4.74,10.89,7.26,16.14,3.17,6.56,8.29,9.06,15,11.51,16.3,5.91,33.64,5.59,50.48,2.23a106.08,106.08,0,0,0,45.51-20.61c6.59-5.21,9.64-11.8,12.75-19.43C492.47,523.55,494.21,516.17,490.09,509.15Z"/><path class="cls-4" d="M633.09,135c-.94-.54-1.87-1.08-2.76-1.63a45.86,45.86,0,0,0-13.88-6.2,3.79,3.79,0,0,0-4,1.32c-2.49-.2-5-.69-7.22-.9-4.18-.4-8.36-.89-12.52-1.41-8.21-1-16.39-1.38-24.64-1.92-17.07-1.12-34.12-2.25-51.22-2.82-16.78-.56-33.57-.88-50.34-1.53-8.44-.33-16.78-1.48-25.17-2.36-8.79-.92-17.85-1.71-26.43-3.89a3.74,3.74,0,0,0-4.51,2.23,3.76,3.76,0,0,0-1.49,4.05c.84,3.62,3.18,7.14,5.05,10.31s3.5,6.64,7.16,7.91c8.15,2.83,18.14,1.92,26.61,3,10.11,1.25,20.3,1.87,30.39,3.22s20,2.65,30.11,3.11q31.24,1.41,62.32,4.61c10.82,1.11,21.71,1,32.55,1.74,10.64.7,21.18,1.55,31.85,1.55,2.39,0,5.23,0,7.13-1.32C640,147.29,635.27,141.72,633.09,135Z"/><path class="cls-5" d="M154.81,251c-1-10-1.41-19.83-1.84-29.88-.15-3.49-.44-7-.92-10.42a3.65,3.65,0,0,0-.23-1.5c-.07-.51-.14-1-.23-1.51-.58-3.36-1-7.93-3.28-10.66-4.62-5.54-14.63-.56-20.24.15-2.46.31-4.41,2.65-3.87,4.9a4.23,4.23,0,0,0-.08,1.75c.32,2,.53,3.95.7,5.93a3.9,3.9,0,0,0-1.41,2.79c-.77,9.75.09,19.17.08,28.89,0,4.21-.72,8.52-.51,12.7.12,2.27.34,4.55.56,6.82a15.58,15.58,0,0,0,.46,6.28,3.71,3.71,0,0,0,2.49,3.42,6.4,6.4,0,0,0,1,.57,6.86,6.86,0,0,0,1.18.44,6.59,6.59,0,0,0,4.23,2.34,89.64,89.64,0,0,0,10.38.53c3.29.11,7-.45,9.61-2.72C158.11,267.17,155.41,256.89,154.81,251Zm-19.64-44.8a20.9,20.9,0,0,0-.79-2.39l1.25-.26A18.36,18.36,0,0,0,135.17,206.21Z"/><path class="cls-5" d="M688.69,281.08c-1.72-8-3.45-16-4.76-24.07-1.44-8.79-2.68-17.37-5.08-26-1.42-5.08-1.38-10.68-4.42-14.77a4.21,4.21,0,0,0-2.58-2.82,41.84,41.84,0,0,0-7.53-2.18c-4-1.37-8-2.89-12.1-3.93-7.24-1.84-14.82-3.42-22.1-4.88a3.86,3.86,0,0,0-3.31.8c-1.18-.31-2.36-.63-3.52-1-16.68-5.12-34-7.71-50.88-12.42-32.68-9.13-65.43-17.9-98-27.27-8.47-2.44-16.7-5.75-25.19-8.16-9.55-2.7-18.52-5-26.73-10.76a2.39,2.39,0,0,0-.22-.12c-1.68-5.43-4.9-10.93-7.1-15.77-1.78-3.92-3.48-7.85-5.14-11.81-1.14-2.71-4.43-7.3-4.55-10.27-.14-3.42-3.78-4.53-6.07-3.33a3.25,3.25,0,0,0-2.59-2.2,4.2,4.2,0,0,0-1-.14c-4.42,0-8.38-1.93-12.93-1.6a41,41,0,0,1-13.64-1c-4.13-1-7.65-1.07-11.8-1.52-4.93-.54-9.47-2.1-14.5-2.2a4,4,0,0,0-1.48.25,4,4,0,0,0-4.19,1.86c-2.58,5.11-2.85,10.72-4,16.25-.92,4.35-1.87,8.62-2.42,13-.29-.11-.59-.22-.89-.31-5.71-1.76-11.36-3.3-17.18-4.54-5.13-1.09-9.71-2.15-14.55-4.48-2.8-1.35-4.89-3.05-8-3.58a31.35,31.35,0,0,1-10.76-3.51,3.73,3.73,0,0,0-4.89.94c-2.7-1-5.4-2-8.08-3.07-9.95-4-19.46-8.17-29.67-11.44-5.13-1.65-10.3-3.12-15.48-4.47-.92-.24-2.78-.45-3.4-1.15a3,3,0,0,1-.36-.86,3.33,3.33,0,0,0,.64-2.09l0-.9a3.69,3.69,0,0,0-1.2-2.72c-1.28-3.22-2.19-6.64-3.58-9.83-1.24-2.87-1.34-6.91-3.42-9.32-3.94-4.56-10.73-3.25-16.1-4.38,1.48-3.11-1.65-7.33-5.38-5.17-12.16,7.08-22.87,16.56-33.94,25.19a3.34,3.34,0,0,0-1.26,1.78c-8.49,6.78-16.91,13.67-26,19.64-4.6,3-19.59,8-11.53,15.14,3.84,3.38,4.24,8.08,6,12.82a32.69,32.69,0,0,0,2.4,4.49,3.45,3.45,0,0,0,1.94,4.47,10.85,10.85,0,0,0,1.41,2.4c3.07,4,8.52-1.5,5.64-5.46,3.68-2.56,8.35.81,11.57,3.69,2.78,2.5,3.46,2.87,7.15,2.15,11.5-2.25,25-4.79,36.2-.54a238.2,238.2,0,0,0,35.28,10c5.91,1.27,11.76,2.75,17.58,4.39,5.35,1.51,10,3.94,15.16,6,11.57,4.79,23.93,6.49,35.44,11a330.73,330.73,0,0,0,35.8,12.16c11.61,3.1,23.21,5.72,34.56,9.73,1,.34,1.94.65,2.92,1a3.28,3.28,0,0,0,1.87,4c7.39,3.84,14.85,6,22.7,8.39,11.07,3.62,22.3,6.85,33.26,10.52,20.27,6.81,40.8,12.85,61.2,19.26a3.52,3.52,0,0,0,2.87-.24l8.47,3.27c8.06,3.1,16.18,6.11,24.34,8.93,3.44,1.19,8,2.79,12.23,3.14a152.51,152.51,0,0,0,21.9,7.44c16.56,4.33,32.74,10.47,49,15.9,8.38,2.81,16.88,5.6,25.34,8.16,5.88,1.77,12,4.26,18.25,4.61,4.45,1.55,8.89,3.12,13.26,4.9A66.26,66.26,0,0,0,680,297.35a6.32,6.32,0,0,0,2.88,3.75c1.74,1.25,4.37.27,5.39-1.42C691.48,294.31,689.94,286.87,688.69,281.08Z"/><path class="cls-9" d="M152.47,212.16a4.46,4.46,0,0,1,.34-1.42,3.26,3.26,0,0,0,.2-.5,5.56,5.56,0,0,0,.56-2.11c0-3.58-4.45-3.55-6.94-4.11-3-.68-6.16.16-9.2.43-3.51.31-6.73,1.35-10.15,2.06a2.59,2.59,0,0,0-1.27.74,3.13,3.13,0,0,0-3.56,2c-.69,2,.64,3.9.1,5.88a2.86,2.86,0,0,0,2.72,3.57,3.44,3.44,0,0,0,1.93-.44,7.38,7.38,0,0,0,1-.75l.36-.07c.54-.1,1.08-.21,1.61-.29a55.3,55.3,0,0,1,6.53-.64,63.7,63.7,0,0,1,7,.48c1,.09,2,0,2.92.16s1.83.83,2.88,1c1.38.21,3.18-.33,3.46-2a5,5,0,0,0-.12-2.68A3.39,3.39,0,0,1,152.47,212.16Z"/><path class="cls-4" d="M342,93.33a2.84,2.84,0,0,0-4,0,2.8,2.8,0,0,0-.26,3.61c-.06.78-.36,1.59-.48,2.39-.18,1.25-.26,2.51-.34,3.78-.16,2.51-.43,5-.71,7.51a51.82,51.82,0,0,1-1.36,6.78,14.14,14.14,0,0,0-.35,7.24,2.85,2.85,0,0,0,4.14,1.68c2.25-1.25,2.77-3.86,3.09-6.2.14-1,.29-1.73.52-3,.32-1.7.53-3.42.7-5.14.31-3.15.55-6.32.82-9.47C344.06,99.16,344.27,96.07,342,93.33Z"/><path class="cls-9" d="M156.68,251.91a4.65,4.65,0,0,0-2.11-3.88c-1.58-1-3.23-.72-5-1a24.53,24.53,0,0,0-6.34-.47c-2.13.23-4.27.55-6.39.87a43.19,43.19,0,0,0-12.09,3.48,2.15,2.15,0,0,0-.69.54,2.78,2.78,0,0,0-1,1.42c-.43,1.41-.11,2.87-.39,4.3-.33,1.72-.8,4.09.6,5.48,1.17,1.17,2.91,1.1,4.4.79.48-.09,1-.23,1.44-.35-.16.05.94-.14.95-.14.51-.06,1-.14,1.52-.23,6.47-1.14,13.76-2.63,20.17-.5a2.78,2.78,0,0,0,2.74-.73c1.19-1.29,1.18-2.84,1-4.47a3.22,3.22,0,0,0,2.14-2.23A2.76,2.76,0,0,0,156.68,251.91Z"/><path class="cls-11" d="M689,289.24c-8.37-1.58-16.61-4.69-24.45-7.95-3.95-1.64-8-2.89-12-4.3s-7.95-3.31-12-4.81c-4.29-1.59-8.74-2.65-13.12-3.95s-8.7-2.73-13-4.12l-13.06-4.21c-4.13-1.34-8.49-2-12.57-3.44a207.9,207.9,0,0,0-24.12-6.88c-8.7-2-17.16-5.31-25.69-7.89-17.27-5.24-34.62-10.29-51.66-16.26-8.42-3-16.64-6.45-25.12-9.21s-17-4.21-25.48-6.4-16.58-4.8-24.33-9a134.11,134.11,0,0,0-23.24-10.07c-8.24-2.68-16.71-4.6-25.16-6.46-8.74-1.91-17.63-3.26-26.21-5.84-8.32-2.5-16.67-5.19-24.84-8.18-8-2.92-15.79-6.29-23.75-9.25-8.33-3.1-16.58-6.14-25.13-8.58A203.28,203.28,0,0,1,239,144c-7.83-3.39-16-5.63-24.17-7.94-4.14-1.17-8.14-2.72-12.32-3.78s-8.26-2.43-12.43-3.51S182,127,177.92,126h0l-.38-.09a2.66,2.66,0,0,0-.67-.08,35.37,35.37,0,0,0-9.37.28c-1.64.24-3.27.59-4.92.83-1.86.27-3.65.89-5.5,1.15a32.38,32.38,0,0,1-4.62,0c-1.67,0-3.34,0-5-.07a39.39,39.39,0,0,1-10.13-1.55,2.45,2.45,0,0,0-2.45.45c-.23-.29-.46-.57-.7-.85a15.48,15.48,0,0,1-1.59-2.57c-1.1-2.54-1.56-5.23-3.27-7.5-.82-1.09-1.79-2.08-2.56-3.21a17.46,17.46,0,0,0-2.42-3.31,8.62,8.62,0,0,0-7.79-1.92,2.85,2.85,0,0,0-2,3.46,7.1,7.1,0,0,0,1.82,3.09,13.6,13.6,0,0,1,1.51,1.53,2.6,2.6,0,0,0,.86,2.65,37.74,37.74,0,0,0,.56,4,11.65,11.65,0,0,0,1.55,3.58,10.16,10.16,0,0,0,2.53,2.32c1.38,1.06,2.17,2.83,3.34,4.17a3.66,3.66,0,0,0-.2,2.42,11.7,11.7,0,0,1,.31,3,2.69,2.69,0,0,0,2.91,2.72,2.83,2.83,0,0,0,2.9.08,4.51,4.51,0,0,0,2.61-3.92,2.87,2.87,0,0,0-.07-.5c.25-.16.49-.34.66-.43a12,12,0,0,1,1.75-.68c1.41.21,2.8.51,4.18.83l2.45.51c.87.45,1.75.83,2.66,1.24a25,25,0,0,0,3.79,1.85c1.44.38,2.81-.1,4.23-.23a20.06,20.06,0,0,0,4.51-.59,3.09,3.09,0,0,0,1.26-.78c2.52-.47,5-1.21,7.53-1.63a45.55,45.55,0,0,1,5.35-.28c1.84-.08,3.69-.68,5.53-.54a2.12,2.12,0,0,0,.44,0c2.92.61,5.83,1.24,8.68,2.1,3.05.92,6,2.21,9,3s6.31,1.64,9.44,2.54c6.31,1.82,12.42,4.24,18.68,6.19q10,3.12,19.89,6.28c6.51,2.07,13.06,4,19.53,6.23,6.23,2.12,12.14,5,18.27,7.36,3,1.13,6,1.92,9.09,2.79s6.09,2.11,9.19,3,6.39,1.57,9.49,2.68,6.05,2.29,9.2,3.17c13.81,3.83,27.45,8.23,41.2,12.31,3.08,1.19,6.14,2.49,9.24,3.65,4.44,1.65,9,2.87,13.4,4.73,4.52,1.92,9,3.78,13.5,5.8s9.22,3.73,13.93,5.42,9.12,3.23,13.85,4.46,9.35,3,14,4.68,9.33,3.45,14,5.18c5.28,1.95,10.67,3.22,16.1,4.65l.56.15a2.71,2.71,0,0,0,1.23.63c.49.11,1,.24,1.46.37,2.6.73,5.09,1.85,7.69,2.61.55.16,1.1.31,1.66.45l3.77,1.41q7.67,2.82,15.37,5.5,15.45,5.37,31.08,10.25c5.23,1.64,10.53,3.1,15.74,4.81,4.9,1.61,9.75,3.38,14.64,5,10.23,3.46,20.55,6.5,31,9.3,5.69,1.52,11.45,2.59,17.08,4.37,5.91,1.86,11.89,3.53,17.83,5.31a4.09,4.09,0,0,0,.64.11c1.26.39,2.52.76,3.79,1.12,2.38.82,4.75,1.64,7.12,2.48,6.66,2.39,13,5.72,20,7.12a3.45,3.45,0,0,0,1.34.24,2.64,2.64,0,0,0,1.58-.57c1.35.52,2.7,1.05,4.06,1.56a2.2,2.2,0,0,0,1.32.06c2.86,1,5.74,1.91,8.63,2.8,5.3,1.62,13.75,2.77,14.27-4.91A2.84,2.84,0,0,0,689,289.24Z"/><path class="cls-6" d="M692,289.31a31.63,31.63,0,0,1-.33-5.06c-.26-3.51-1.28-6.91-1.85-10.37-1.1-6.72-1.95-13.48-3.38-20.15-.71-3.35-1.76-6.6-2.32-10s-1.05-6.72-1.63-10.08A105.31,105.31,0,0,0,680,222.15c-.9-3.1-2.29-6.13-2.6-9.35a1.48,1.48,0,0,0,0-.42c0-.32-.05-.64-.05-1,0-2.17-3.36-2.17-3.38,0,0,0,0,.07,0,.11a7.75,7.75,0,0,1-1.67-.51c-1.32-.36-2.63-.73-3.94-1.13-2.42-.75-4.85-1.44-7.31-2s-5-1.07-7.46-1.66-5-1.46-7.61-2.12c-10.09-2.6-20.29-4.81-30.47-7a2.32,2.32,0,0,0-2.41-2.43,35.36,35.36,0,0,1-8.49-1.21c-2.8-.64-5.65-1.09-8.43-1.78s-5.28-1.76-7.92-2.66a65.15,65.15,0,0,0-8.71-2.15c-2.91-.57-5.83-1.11-8.71-1.82s-5.85-1.68-8.8-2.44c-5.84-1.52-11.73-2.9-17.6-4.31s-12-2.82-18-4.29A76.17,76.17,0,0,1,518,171.5a24.21,24.21,0,0,0-3.95-.87c-1.61-.31-3.21-.67-4.82-1a30.52,30.52,0,0,1-7.9-2.25,84.81,84.81,0,0,0-8-3.88c-2.68-1-5.5-1.58-8.26-2.33-1.3-.35-2.57-.8-3.89-1.07-1.5-.3-3-.36-4.55-.57a31.43,31.43,0,0,1-8.2-2.28,45,45,0,0,0-8.33-2.26c-1.39-.31-2.83-.41-4.19-.8s-2.41-1.06-3.66-1.47c-2.51-.83-5.14-1.11-7.64-2-5.48-2.07-10.82-4.61-16.21-6.9a9.64,9.64,0,0,1-2.74-1.55,4.88,4.88,0,0,1-1.16-2,60.81,60.81,0,0,1,6.93,1.42,16.59,16.59,0,0,0,3.63.54c1.23,0,2.42.39,3.67.37a32.42,32.42,0,0,1,3.54.26c1.26.12,2.52,0,3.78.13,2.61.18,5.22.77,7.82,1.13,1.23.18,2.42.51,3.64.7,1.4.21,2.82.31,4.23.47,2.63.3,5.26.64,7.9.93,5.25.57,10.52.83,15.79,1.23,2.45.19,4.78.85,7.24,1,2.79.16,5.56.45,8.33.72q8,.76,15.91,1.65c5.4.61,10.84,1,16.23,1.71,2.64.33,5.27.63,7.93.81s5.06.67,7.6.85c2.88.19,5.74.3,8.59.68a81.92,81.92,0,0,0,8.85.64c3,.07,6,.5,9,.8,1.26.13,2.49.41,3.73.63a26.11,26.11,0,0,1,4.22.87c2,.66,3.18-1.06,3-2.66,4.4.34,8.8.73,13.2.92,4.71.21,9.42.16,14.13.16s9.46.13,14.18.31c2.32.09,4.64.18,7,.25a34.35,34.35,0,0,0,6,0c3.5-.54,3.85-4.66,2.85-7.4a25.55,25.55,0,0,0-6-8.63,16.82,16.82,0,0,1-1.92-2.2c-.58-.85-1-1.79-1.59-2.62a23,23,0,0,0-4.41-4.13c-1.44-1.13-2.87-2.31-4.4-3.33a17.11,17.11,0,0,0-5-2.12l-.56-.16a1.53,1.53,0,0,0-1.55-1.15c-7.76,0-15.51,0-23.27,0a99.15,99.15,0,0,1-11.43-.51,53.43,53.43,0,0,0-5.36-.38c-1.8,0-3.59.17-5.39.1a45.21,45.21,0,0,1-4.92-.72,44.58,44.58,0,0,0-5.42-.36c-3.76-.09-7.51-.12-11.26-.49s-7.73-.77-11.61-1c-3.61-.16-7.21-.22-10.81-.46-6.62-.51-13.22-1.18-19.82-1.84-4.07-.4-8.14-.78-12.22-1.11s-7.95-1-11.94-1.31c-1.84-.12-3.69-.15-5.52-.37a45.27,45.27,0,0,0-5.92-.47c-3.83.07-7.62-.3-11.44-.33-8,0-16-1.33-24-1.36-4.54,0-8.95-.67-13.46-1.09s-9.12-.81-13.69-1a2.3,2.3,0,0,0-1.43.39,15.12,15.12,0,0,0-1.12-2c-.69-1-1.61-1.76-2.34-2.71a16.61,16.61,0,0,0-2.76-3.21,25.51,25.51,0,0,1-2.62-2.47c-.27-.29-.53-.59-.79-.89-.44-.81-.86-1.63-1.32-2.43a1.7,1.7,0,0,0-.9-1.42c-.21-.28-.43-.56-.67-.83a1.64,1.64,0,0,0-2.8.92,7.36,7.36,0,0,1-.81.06,25.64,25.64,0,0,1-3.5-.26c-2.42-.27-4.84-.26-7.27-.37-2.59-.11-5.11-.85-7.71-1-1.24-.09-2.5-.08-3.73-.2s-2.44-.39-3.7-.4c-.6,0-1.21,0-1.82,0s-1.12-.18-1.68-.3c-1.35-.28-2.67-.71-4-1s-2.95-.39-4.42-.71a61.21,61.21,0,0,0-13.63-1.42,12.39,12.39,0,0,0-4.78.8h-.31a1.54,1.54,0,0,0-1.08.39,2.1,2.1,0,0,0-1.7,1,7.12,7.12,0,0,0-.61,2.48,10.28,10.28,0,0,0-.55,2,29.43,29.43,0,0,0-.27,4.08c0,1.52-.28,3-.35,4.55a17.57,17.57,0,0,1-.75,3.64,29.67,29.67,0,0,0-.63,4.51,60,60,0,0,1-1.37,6,2.39,2.39,0,0,0-.29.52c-.77-.15-1.55-.26-2.33-.4-2-.35-4-.71-6-1.09a98,98,0,0,0-9.81-2.8A232,232,0,0,1,288,110.52a58.66,58.66,0,0,0-8.34-2.31c-4.85-1.75-9.71-3.45-14.56-5.14-1.8-.63-3.61-1.24-5.45-1.75-.89-.25-1.81-.46-2.67-.79s-1.84-.87-2.79-1.24c-3.74-1.46-7.68-2.43-11.39-4-.94-.39-1.8-1-2.75-1.32s-1.83-.52-2.75-.8c-1.89-.57-3.73-1.57-5.57-2.32-3.88-1.59-7.71-3.56-11.79-4.64-.6-2.67-1.9-5.14-2.88-7.74a57,57,0,0,1-1.8-5.55,21.33,21.33,0,0,1-1.1-5.33c0-3.8-3.54-7.27-7.13-8.07-2-.44-4-.68-6-1a24.27,24.27,0,0,0-2.93-.31h-.23a5.46,5.46,0,0,0,0-3.46,2.94,2.94,0,0,0-1.13-1.32,6.39,6.39,0,0,0-2.37-1.79A11.7,11.7,0,0,0,190,50.62a9.71,9.71,0,0,0-5,1.62,57.84,57.84,0,0,0-8,6.07c-2.75,2.35-6.14,3.8-8.92,6.11S162,68.71,159,71s-5.46,5.07-8.55,7.24-5.91,4.34-8.91,6.46A41.82,41.82,0,0,0,137.43,88c-1.34,1.23-3,2.1-4.37,3.28-3.22,2.74-6.58,5.19-10,7.63-1.79,1.26-3.71,2.25-5.57,3.39s-3.53,2.42-5.31,3.6A2.4,2.4,0,0,0,111,108.1a2.29,2.29,0,0,0-1.81,2.31,12.7,12.7,0,0,0,1.37,6.36,9.59,9.59,0,0,0,2.1,2.56c.58.52,1.59,1.09,1.89,1.85s.29,2,.56,2.91a22.66,22.66,0,0,0,1.22,3.5c.94,2,2.17,3.87,2.94,6,1.43,3.92,2.86,8.34,6.11,11.16a8.48,8.48,0,0,0,7.13,1.49c0,.91,0,1.81,0,2.73s.27,2.09.37,3.14,0,2.07,0,3.1.19,2.24.3,3.36.07,2.46.16,3.7a77.83,77.83,0,0,1,.37,7.79c-.09,2.64-.32,5.27-.4,7.91-.14,5,.25,10,.34,15-3.13,0-6.1,1.06-9.06,2a5.67,5.67,0,0,0-3.5,2.42,15.82,15.82,0,0,0-1.45,4.25c-.89,3.53-.12,7.06,0,10.62s0,7.11,0,10.65c0,7.08.34,14.15.34,21.24v10.8c0,3.46.39,6.9.37,10.35a55.25,55.25,0,0,0,.19,5.61c.19,2,.25,3.75,2,5a11,11,0,0,0,4.61,1.51,11.36,11.36,0,0,0,2.16.12c0,.86.09,1.75.16,2.54.15,1.71.46,3.41.72,5.11a35.48,35.48,0,0,1,.41,4.12c0,1.49-.38,1.88-1.71,2.48a34.25,34.25,0,0,0-7.17,4,58,58,0,0,0-7.07,6.68,34.39,34.39,0,0,0-5.71,7.34,29.84,29.84,0,0,0-2.73,8.66,23.78,23.78,0,0,0-.5,4.44,32.87,32.87,0,0,0,.75,5.21c.59,3.22,1.15,6.45,1.81,9.66.61,2.94,1.21,6.13,2.8,8.72.78,1.26,1.77,2.43,2.65,3.63a34.12,34.12,0,0,0,3.19,3.9,26.87,26.87,0,0,0,7,5.45,31.35,31.35,0,0,0,8.8,2.57c3.37.59,6.76,1.09,10.13,1.71,1.6.29,3.2.6,4.81.82a22.8,22.8,0,0,0,5.09,0,56.77,56.77,0,0,0,9.53-1.41,38.08,38.08,0,0,0,8.85-3.08,39,39,0,0,0,7.16-4.95,36.81,36.81,0,0,0,5.87-6.47,26.41,26.41,0,0,0,4.14-7.51c.94-3.13.84-6.39,1.1-9.63a37.65,37.65,0,0,0-.56-9.77,42.06,42.06,0,0,0-2.86-9.28c-1.26-2.86-3.57-5.38-4.4-8.41-.26-1-.14-2-1-2.73-1-.82-2.67-.46-3.81-.15-2.7.73-5.09,2.07-7.67,3s-3,3.27-3,5.78a26.48,26.48,0,0,1-.5,4.43c-.26,1.53-.13,3.14-.48,4.63-.56,2.39-1.69,5.28-3.83,6.66a26.24,26.24,0,0,1-4.22,2.08,12.16,12.16,0,0,1-4.44.75c-3.12.12-6.25,0-9.38,0-2.59,0-5.12-.28-6.61-2.65a12.51,12.51,0,0,1-1.64-6.62,13.16,13.16,0,0,1,1-4.39,10.69,10.69,0,0,1,1.95-3.68,7.33,7.33,0,0,1,3.57-1.81,29.45,29.45,0,0,0,3.94-1.53,6.35,6.35,0,0,0,4.08-6.11c.09-3.15-.19-6.33-.4-9.46-.1-1.56-.4-3.07-.39-4.65s.06-3.33-.06-5-.28-3.17-.31-4.77a1,1,0,0,0,0-.17c2-.25,4-.64,5.81-1,3.44-.63,4.47-4.67,4.37-7.68-.06-1.78.34-3.5.37-5.28a52.06,52.06,0,0,0-.15-5.86,29.32,29.32,0,0,1,.11-5c.14-2,0-4,0-6.07,0-3.87-.36-7.72-.74-11.58a180,180,0,0,1-1.23-23.66,42.37,42.37,0,0,0-1.28-12c-.51-1.92-1.29-3.67-3.11-4.67-1.43-.78-3-1.07-4.24-2.24a2.89,2.89,0,0,0-.63-.46,86.32,86.32,0,0,0-.16-10.43c-.45-4.61-.75-9.22-.82-13.85s.33-9.25.32-13.88c0-2.49-.13-5-.16-7.47,0-1,0-2,0-3a156.22,156.22,0,0,1,22.08-4.27,53.54,53.54,0,0,0,5.88-1,7.94,7.94,0,0,1,4.71.67,77.81,77.81,0,0,0,11.18,3.48,82.23,82.23,0,0,1,11.5,2.75c3.9,1.41,7.8,3,11.64,4.53s7.69,3.25,11.61,4.67,7.49,2.93,11.31,4.16q6,2,12.09,3.85c4,1.25,8,2.34,11.92,3.78s7.63,3,11.5,4.36,7.92,2.7,11.91,4c8,2.53,16,4.79,24.1,6.88,4,1,8.05,2.21,12.11,3.17a117.68,117.68,0,0,1,11.67,3.19c3.83,1.31,7.73,2.38,11.48,3.91a49.48,49.48,0,0,0,5.59,1.86c1.91.51,3.72,1.29,5.61,1.83,4,1.14,8,2.28,12,3.47,3.69,1.09,7.26,2.52,10.93,3.65a3,3,0,0,0,1.91.94,30.35,30.35,0,0,1,4.9,1.4c13.42,4.84,27,9.28,40.56,13.65l1.67.65c4,1.59,7.95,3.27,12,4.69s8.07,2.64,12.08,4,8.21,2.94,12.32,4.37c3.93,1.36,7.93,2.43,11.92,3.59s8,2.67,11.93,4.09,8.06,2.8,12,4.34c7.89,3,16,5.47,23.95,8.42,3.94,1.46,7.84,3,11.82,4.37s8,2.27,12,3.48,7.94,2.65,12,3.81,8,2.4,12.06,3.56,7.89,2.49,11.84,3.74,8,2.1,12,3.31,8,2.55,12,3.8c1.88.58,3.61,1.45,5.43,2.18s3.55,1.06,5.27,1.83,3.53,1.19,5.19,2a2.73,2.73,0,0,0,2.56-.05c8,2.68,16.17,5.23,24.26,7.74,4.15,1.28,8.32,2.48,12.47,3.74a86.8,86.8,0,0,0,12.58,3.28c1.91.28,3.8.64,5.69,1,1.4.27,2.83.36,4.18.73a1.6,1.6,0,0,0,.68.82,2.5,2.5,0,0,0,3.2-.17,7.56,7.56,0,0,0,2.3-2.72,16.26,16.26,0,0,0,1.63-6.53A10.59,10.59,0,0,0,692,289.31ZM414.2,117.65a52.57,52.57,0,0,1,5.75.58,40.77,40.77,0,0,0,5.15.67c1.34,0,2.66-.06,4,0s2.74.31,4.1.4c1,.13,2,.26,3,.35,3.6.31,7.22.31,10.83.43s7.25.53,10.88.63,7.47.1,11.19.45,7.51.74,11.29.93c2.49.13,5,.19,7.47.24,2,.23,3.93.48,5.91.66,4.06.38,8.13.68,12.19,1.07,9.18.9,18.36,1.89,27.57,2.47a2.09,2.09,0,0,0,2.3-1.63c3.82.17,7.64.34,11.45.7,3.62.33,7.22.68,10.86.78a67.54,67.54,0,0,1,10.73.67c3.82.7,7.56.23,11.41.48,4.17.27,8.24.84,12.43.82,6.8,0,13.6,0,20.39,0a3,3,0,0,0,1.38,1.21,1.78,1.78,0,0,0,2.29-.72c1.11.24,2.2.57,3.28.89a14.06,14.06,0,0,1,4.7,2.44c1.37,1,2.74,2.07,4,3.17a20.9,20.9,0,0,1,2.06,1.93,18.22,18.22,0,0,1,1.77,2.73c1.88,2.94,4.74,5.05,6.57,8.07.74,1.21,1.65,2.77,1.52,4.26s-1.65,1.1-2.94,1.08c-8.91-.15-17.79-.64-26.7-.62-9.14,0-18.17-.6-27.27-1.27s-17.91-1.33-26.87-2c-4-.28-8-.56-12-.87l-7-.66c-5.37-.53-10.73-1.17-16.09-1.74s-10.91-1.25-16.38-1.77l-8-.77a60.65,60.65,0,0,1-7.87-.81,40.56,40.56,0,0,0-7.3-.69c-2.74-.14-5.47-.46-8.21-.67s-5.27-.51-7.9-.83-5.3-.46-7.89-.92c-2.86-.52-5.73-1-8.6-1.47s-5.66-.32-8.48-.73c-1.45-.21-2.87-.07-4.32-.3s-2.65-.2-4-.51a58.28,58.28,0,0,0-8.89-1.67,2.18,2.18,0,0,0-1.38.41c-.58-1.2-1.2-2.39-1.89-3.55-1.45-2.45-2.84-4.93-4.35-7.34s-2.69-4.71-4.17-7A17.38,17.38,0,0,1,414.2,117.65ZM128.8,272.52a19.13,19.13,0,0,1-3.06-.63c0-.23,0-.52,0-.59-.07-.7-.15-1.4-.2-2.1-.12-1.63,0-3.26,0-4.89-.06-3.07-.37-6.11-.37-9.19v-9.56c0-6.45-.36-12.88-.34-19.32,0-3.16,0-6.32,0-9.47s-.18-6.18-.42-9.3a14.48,14.48,0,0,1,.22-4.78c.17-.66.43-2.43.9-2.81a4.76,4.76,0,0,1,1.52-.45c1-.1,2-.08,2.68-.12a1.6,1.6,0,0,0,1.36-.8,57.57,57.57,0,0,1,7.38-1.08,36,36,0,0,1,9.69.88c.15.08.3.16.46.23,1.08.5,1.93.47,2.29,1.61.14.45.24.91.36,1.37.13,1.49.27,3,.43,4.47s.34,2.7.55,4c0,3.23-.12,6.46,0,9.69.14,3.57.41,7.13.72,10.69a198.42,198.42,0,0,1,1.24,21.1c0,1.68-.37,3.34-.27,5s.23,3.27.25,4.93a36.09,36.09,0,0,1-.23,4.88,14.83,14.83,0,0,0-.15,2.21,6.23,6.23,0,0,1-.09,2.32c-.1.29-.29.56-.36.85l0,.1a12.34,12.34,0,0,0-1.36.18c-.77.14-1.53.47-2.31.55s-1.62.09-2.43.2a8.6,8.6,0,0,1-.86.08,10.22,10.22,0,0,0-4.33.05h-.19c-1.77,0-3.06.21-4.49-1a2.57,2.57,0,0,0-3.54,0,1.76,1.76,0,0,0-.24.3,2.26,2.26,0,0,0-.37,0A33.22,33.22,0,0,1,128.8,272.52Zm16.78,15.08a38.47,38.47,0,0,0,.36,4.16c.15,1.66.2,3.33.3,5,.08,1.35.11,2.71.12,4.07s.08,2.63-1.13,3.43c-2.23,1.45-4.95,1.71-7.29,2.89s-3.65,3.38-4.57,5.7a17,17,0,0,0-1.52,7.81c.39,4.53,2.34,9.53,7.18,10.78,2.63.68,5.45.42,8.14.46a50.83,50.83,0,0,0,8.81-.26,19.86,19.86,0,0,0,7.71-3.4c2-1.45,3.11-3.6,4.05-5.84,1.14-2.72,1-5.53,1.51-8.38a23,23,0,0,0,.4-4.06c0-.84-.06-2.12.5-2.52a11.3,11.3,0,0,1,1.69-.62c.6-.27,1.14-.64,1.73-.92a28.6,28.6,0,0,1,4-1.44c.15,0,.48-.08.72-.15.08.31.17.6.23.84a18.33,18.33,0,0,0,1.85,3.9,41.75,41.75,0,0,1,4.05,8.41,36.83,36.83,0,0,1,1.8,9.36c.17,3.13-.27,6.22-.35,9.34a15.41,15.41,0,0,1-.69,4.05,13.86,13.86,0,0,1-2,3.85,42.37,42.37,0,0,1-5,6.57,35.41,35.41,0,0,1-6.32,5.12,28.82,28.82,0,0,1-7.93,3.49,47.72,47.72,0,0,1-9.07,1.78c-1.45.1-2.91.27-4.37.31a25.37,25.37,0,0,1-5.05-.63c-3.24-.58-6.46-1.19-9.72-1.68a40.45,40.45,0,0,1-8.91-2.05,20.74,20.74,0,0,1-6.82-4.76,48.12,48.12,0,0,1-5.69-7.1c-1.6-2.33-2.11-5.36-2.68-8.08-.65-3.11-1.21-6.24-1.77-9.37a30.56,30.56,0,0,1-.72-4.84,20.66,20.66,0,0,1,.55-4.49,24.39,24.39,0,0,1,2.93-8.17,44.63,44.63,0,0,1,5.9-6.91,38.47,38.47,0,0,1,6.87-6,23.36,23.36,0,0,1,3.29-1.82,21.8,21.8,0,0,0,3.15-1.44c2.19-1.41,2.3-3.68,2.11-6.06-.23-3-1-6-1.11-9,0-.51,0-1,0-1.53.94-.11,1.85-.44,2.78-.62a7.09,7.09,0,0,0,3,1.1c2,.16,4,0,6,0h.61c0,.06,0,.13,0,.18C145.31,281.28,145.63,284.41,145.58,287.6Zm543.17,6.15a9.68,9.68,0,0,1-1.59,4.45,4.56,4.56,0,0,0-.74-.29,1.54,1.54,0,0,0-.95,0,54.31,54.31,0,0,0-8.14-1.5,88,88,0,0,1-12.6-3c-8.3-2.56-16.62-5-24.84-7.8-4.58-1.57-9.2-3-13.82-4.45a2,2,0,0,0-.86-.81c-1.74-.84-3.62-1.3-5.38-2.08s-3.77-1.32-5.67-2-3.4-1.54-5.16-2.15c-2-.68-4-1.27-6.07-1.91-8-2.57-16.07-4.57-24-7.21-3.69-1.22-7.42-2.29-11.16-3.35-9.23-3-18.47-6-27.78-8.73q-5.7-1.66-11.33-3.53c-7.44-2.78-14.9-5.43-22.45-7.92-4-1.31-7.84-2.95-11.78-4.34-4.1-1.45-8.18-2.94-12.28-4.37-3.94-1.38-8-2.42-11.95-3.61S462,226.45,458,225c-8.08-2.9-16.36-5.26-24.31-8.51-4-1.65-8-3.31-12.1-4.85-3.87-1.47-7.83-2.71-11.72-4.11-4.16-1.48-8.43-2.72-12.65-4a53.87,53.87,0,0,1-5.72-1.88,22.9,22.9,0,0,0-2.64-1c-.58-.17-1.17-.28-1.76-.4a2.35,2.35,0,0,0-1.25-.73,120.7,120.7,0,0,1-11.95-3.58c-3.88-1.42-7.81-2.6-11.76-3.77-2.1-.61-4.23-1.12-6.32-1.77-1.88-.59-3.7-1.3-5.61-1.82-3.85-1.07-7.5-2.71-11.3-3.93S331.26,182,327.35,181s-7.56-1.82-11.33-2.82c-8.93-2.82-17.85-5.7-26.73-8.72-17-5.79-34.41-10.25-51.4-16.1q-3.49-1.2-7-2.32c-3.72-1.36-7.41-2.78-11-4.3-3.87-1.61-7.77-3.12-11.67-4.66-1.91-.75-3.8-1.58-5.76-2.18s-3.79-.88-5.7-1.3l-5.86-1.29a57.22,57.22,0,0,1-5.72-1.76c-2.88-1-5.65-2.22-8.6-2.36a1.69,1.69,0,0,0-.92,0,10.25,10.25,0,0,0-1.94.26c-3.87.9-7.84,1.2-11.77,1.82-3.11.49-6.22,1.08-9.3,1.77a48.07,48.07,0,0,0-5.34.93,8.12,8.12,0,0,0-5.29-5.26c-3.23-1.09-8.17.29-9,4.06a10,10,0,0,0-.11,2.56,2.1,2.1,0,0,0-.26.13,15.45,15.45,0,0,1-3,1.43l-.38.1c-.18-.31-.58-.79-.68-1-.51-1.18-.8-2.45-1.28-3.64s-1.15-2.49-1.76-3.72c-1.22-2.43-2.16-5-3.23-7.5-1-2.33-2.3-4.5-3.3-6.82a6.16,6.16,0,0,0-4-3.84h0a7.48,7.48,0,0,1-.79-3.91,10.63,10.63,0,0,0,1.35-.68c1.19-.78,2.36-1.58,3.52-2.39l3.23-2.24c1.82-1.08,3.55-2.26,5.27-3.51l.65-.46a34.17,34.17,0,0,0,3.44-2.34c.59-.48,1.16-1,1.73-1.5.12-.1.25-.19.37-.3,1.81-1.53,3.67-2.91,5.59-4.3A29.81,29.81,0,0,0,142,90.55a30.64,30.64,0,0,1,2.82-2.13l.35-.25c1.44-1,2.88-2,4.3-3,1.08-.78,2.14-1.58,3.17-2.41a51.72,51.72,0,0,0,4.59-3.48,70.78,70.78,0,0,1,5.42-4.81c2.15-1.53,4.46-2.86,6.54-4.49a58.39,58.39,0,0,1,5.74-4.26,42.32,42.32,0,0,0,6.15-4.38,48.81,48.81,0,0,1,5.11-3.93c1.34-.89,2.89-2,4.35-1.66a5,5,0,0,1,2.16.77c.27.25.22.82.13,1.32a4.48,4.48,0,0,0,.19,3.43,4.74,4.74,0,0,0,2.82,1.92,18.9,18.9,0,0,0,3.28.21c1.19.12,2.37.35,3.56.52,2.46.35,4.75.53,6.22,2.79.6.94.3,2.36.5,3.44.23,1.27.65,2.5,1,3.75a71.75,71.75,0,0,0,2.75,8.2c.5,1.28,1.1,2.49,1.55,3.73a10,10,0,0,0,.65,3.52.33.33,0,0,1,0,.1,2.51,2.51,0,0,0,2.5,2.5,3.45,3.45,0,0,0,1.69-.59l.81.25a2.81,2.81,0,0,1,.35.17A57.52,57.52,0,0,0,226,94.19c3.69,1.56,7.15,3.41,11,4.62l4.73,1.47c3.5,1.41,7.22,2.35,10.74,3.68,1.9.72,3.66,1.56,5.64,2.12s4.11,1.26,6.13,2c8.18,2.88,16.41,5.69,24.48,8.85,3.84,1.5,7.84,2.53,11.77,3.75s8.09,2,12.08,3.24c1,.31,2.05.56,3.07.89a19.62,19.62,0,0,0,3.05.51c2.28.36,4.54.85,6.82,1.25,1,.18,2.09.29,3.1.57a5.73,5.73,0,0,0,3.14.31c1.89-.53,2.33-2.2,2.14-3.84,0-.08,0-.16.05-.25.26-2.73,1.5-5.26,1.69-8s1.19-5,1.35-7.66c.09-1.43.24-2.84.33-4.26a24,24,0,0,1,.31-4.24c.36-1.46.94-1.78,2.5-2a29.53,29.53,0,0,1,4.95.08c1.63.08,3.23.13,4.83.32l.3,0c.49.06,1,.13,1.47.23,2.92.59,5.91,1,8.79,1.73a56.59,56.59,0,0,0,8.1,1.36c2.94.32,5.86.68,8.79,1.08a60.07,60.07,0,0,0,8.58.42,29.61,29.61,0,0,1,8,1.17,4.1,4.1,0,0,1,2.31,1.65,32.88,32.88,0,0,0,2.64,2.64c.47.41.92.78,1.34,1.17.56.93,1.14,1.85,1.76,2.74a101.08,101.08,0,0,1,8.2,13.28,18.31,18.31,0,0,0,1.85,2.77,13,13,0,0,1,1.56,3c.85,2.11,1.9,4.15,2.94,6.17a1.69,1.69,0,0,0,.86,1.79,47.82,47.82,0,0,0,2,4.49c1.07,1.91,2.49,2.72,4.37,3.69h0l.14.09a21.67,21.67,0,0,0,3.16,1.58,105.48,105.48,0,0,0,11.08,4.89l3.06,1.11a37,37,0,0,0,4.77,1.69c2.39.83,4.8,1.62,7.24,2.31,5.17,1.48,10.4,2.75,15.53,4.36,2.57.8,5.12,1.62,7.73,2.26s5.09,1.07,7.59,1.93c4.83,1.66,9.82,2.93,14.71,4.42a25.59,25.59,0,0,0,3.84,1.63,84.14,84.14,0,0,0,8.47,1.87l.43.07c1.2.34,2.4.67,3.6,1,5.23,1.56,10.42,3.2,15.75,4.42,2.68.61,5.38,1.19,8,1.91s5.12,1.56,7.73,2.15,5.34,1.4,8.06,1.9,5.19,1.06,7.78,1.7c1.28.31,2.58.54,3.88.75,1.63.43,3.27.84,4.91,1.21,1.45.32,2.91.62,4.37.91.74.2,1.5.4,2.25.58,2.28.51,4.6.88,6.86,1.45,1.2.33,2.39.69,3.57,1.12a58.65,58.65,0,0,0,7.89,2.47c2.75.59,5.51,1.13,8.26,1.74a42.13,42.13,0,0,0,6.69,1.05c4.66,1.1,9.34,2.25,14,3.12,5.28,1,10.43,2.5,15.67,3.67s10.18,2.76,15.34,3.89,10.08,2.6,15.12,4a9.77,9.77,0,0,0,2.89.53,40.9,40.9,0,0,0,1.52,5.37,77.54,77.54,0,0,1,2.43,9.12c1.31,6.28,1.83,12.74,3.33,19s2.91,12.27,3.84,18.52c.48,3.2.85,6.41,1.43,9.6s1.54,6.23,1.5,9.44a21.69,21.69,0,0,0,0,2.55c.09.78.36,1.48.49,2.24A10.34,10.34,0,0,1,688.75,293.75Z"/><path class="cls-6" d="M494.77,513.94c-.11-.42-.23-.84-.38-1.26a8.69,8.69,0,0,1-.59-2.18,29.91,29.91,0,0,0-.25-3.41,16.49,16.49,0,0,0-2-4.84c-.84-1.52-1.34-3.24-2.28-4.71-2-3.12-3.64-6.42-5.74-9.47a82.79,82.79,0,0,0-7.85-9.68c-2.72-2.9-5.7-5.54-8.5-8.37a55.53,55.53,0,0,0-9-6.93,120.61,120.61,0,0,0-10.72-6,36.26,36.26,0,0,0-10.77-3.59c-4.15-.74-8-.34-12.17.19s-8.4,1-12.56,1.87c-1.86.4-3.74.62-5.61,1a27.78,27.78,0,0,0-5.7,2.07c-3.76,1.72-7.57,3.49-11.17,5.53a58.85,58.85,0,0,0-9.38,6.67c-2.89,2.5-5.82,5-8.46,7.76a112.33,112.33,0,0,0-7.71,9.15,50.15,50.15,0,0,0-5.95,9.37,54.62,54.62,0,0,0-4.78,25.38c.21,4.27.9,8.5,1.15,12.76.12,1.93.69,3.68,1,5.57a13.56,13.56,0,0,0,.7,2.94c.94,5.5,4.73,9.69,8.43,13.63a56.08,56.08,0,0,0,6.31,6,34.5,34.5,0,0,0,7.38,3.84c5.51,2.44,11,4.84,17,5.73a69.29,69.29,0,0,0,17.78.81c6-.68,12-1.9,17.91-2.88s12.27-2,18.06-4.07c5.59-2,11.36-3.71,16.55-6.66,4.91-2.8,9.14-6.63,13.41-10.29,4.69-4,9.17-8.95,11.05-14.92.5-1.58.82-3.19,1.18-4.81s.89-3.21,1.33-4.82,1-3.05,1.34-4.6c.08-.31.15-.59.23-.87a1.54,1.54,0,0,0,1.25-1.58c0-.35,0-.69,0-1,.1-.15.19-.3.31-.46A1.88,1.88,0,0,0,494.77,513.94Zm-3.37,3.18a36.56,36.56,0,0,0-1.18,4.12c-.81,2.57-1.66,5.16-2.26,7.79s-1.1,5.63-2.46,8.17a32.42,32.42,0,0,1-4.73,6.28,85.89,85.89,0,0,1-12.23,10.69,55.43,55.43,0,0,1-15,7.54c-2.8,1-5.59,2.08-8.43,2.9s-5.68,1.3-8.52,1.86c-5.71,1.14-11.47,2-17.2,3a85.36,85.36,0,0,1-8.72,1.19,51.13,51.13,0,0,1-8.57-.26,77.65,77.65,0,0,1-8.46-1.09,49.09,49.09,0,0,1-8.3-2.62c-2.94-1.17-5.85-2.46-8.74-3.76a24.69,24.69,0,0,1-7.26-5.37c-3.63-3.64-7.77-7.56-9.44-12.52a1.58,1.58,0,0,0-.3-1.86,1.59,1.59,0,0,1-.25-.33c0-.15-.06-.3-.08-.46a1.28,1.28,0,0,0-.36-.69c-.16-.71-.22-1.49-.32-2.1-.26-1.63-.7-3.14-.84-4.8s-.41-3.57-.61-5.36-.19-3.63-.38-5.44c-.8-7.5.6-14.89,2.95-22,2.25-6.83,7-12.66,11.67-18a90.89,90.89,0,0,1,16-14.4,66.69,66.69,0,0,1,9.9-5.55c3.38-1.62,6.78-3.61,10.51-4.27,7.72-1.38,15.53-3,23.4-3.35a28.55,28.55,0,0,1,10.95,1.94c3.54,1.34,6.81,3.44,10.15,5.21a109,109,0,0,1,9.21,6,24.12,24.12,0,0,1,3.67,3.25c1.41,1.41,2.87,2.76,4.31,4.13a86.86,86.86,0,0,1,8.63,9.36c1.32,1.69,2.51,3.48,3.72,5.26s1.91,3.45,2.9,5.17a40,40,0,0,1,2.75,4.85c.7,1.7,1.82,3.22,2.43,5s.3,3.81.76,5.72c.23.93.67,1.8.91,2.74a12.69,12.69,0,0,1,.25,1.37Q491.6,516.72,491.4,517.12Z"/><path class="cls-6" d="M666,325.88a1.67,1.67,0,0,0-1.5-2.36q-13.56,0-27.12-.08c-4.52,0-9,.28-13.5.49-.8,0-1.59,0-2.39,0a2.29,2.29,0,0,0-2-1.09,11.8,11.8,0,0,0-2.36.35,16.07,16.07,0,0,1-2.86,0c-1.93,0-3.86,0-5.8,0-3.61,0-7.2-.36-10.81-.39-1.76,0-3.51,0-5.27.05s-3.74-.23-5.62-.32c-3.94-.19-7.93,0-11.88,0q-11.35,0-22.7,0H539c-3-.11-5.92-.25-8.89-.4-2.68-.14-5.37-.23-8-.31l-3.72-.34c-3.7-.35-7.37-.32-11.08-.32-3.92,0-7.82-.17-11.73-.28-3.71-.1-7.42,0-11.13-.2s-7.35-.5-11-1a78.17,78.17,0,0,0-11.35-.26,109.63,109.63,0,0,1-11.16-.59c-3.6-.31-7.22,0-10.83-.13-4.23-.16-8.37-.33-12.61-.11a55.94,55.94,0,0,0-6.33.44,33.72,33.72,0,0,1-5.77.39c-2.1,0-4.2.09-6.29,0a59,59,0,0,1-6.06-.77c-2-.29-4.08-.68-6.11-.8a21.54,21.54,0,0,0-4.08.28,1.52,1.52,0,0,0-1.89-.17,2.49,2.49,0,0,1-.28.15,2.86,2.86,0,0,0-2.07.7,7.18,7.18,0,0,1-.7.48c-.24.08-.48.14-.74.2a14.52,14.52,0,0,0-4.5,2.17c-1,.61-1.89,1.27-2.81,1.94l-2.52,1.49a1.36,1.36,0,0,0-.32-.21c.15.07-.17-.16-.28-.31-.26-.33-.49-.68-.76-1a8.75,8.75,0,0,1-1.33-2.06c-.74-1.56-2.11-2.66-2.67-4.33-1.13-3.34-2.84-7.34-6.56-8.45a8.72,8.72,0,0,0-5.63.43,14.59,14.59,0,0,0-2.5,1.25c-.72.48-1.35,1.1-2.11,1.53s-1.53.73-2.29,1.11a26.07,26.07,0,0,0-2.51,1.55,43.15,43.15,0,0,1-5,3c-.77.35-1.48.77-2.22,1.16s-1.8.71-2.68,1.13c-1.82.87-3.5,2-5.32,2.89s-3.07,2.09-4.75,2.93-3.67,1.38-5.3,2.38c-.72.44-1.35,1-2.08,1.4s-1.81.87-2.68,1.36c-1.79,1-3.67,1.78-5.45,2.77-3.49,2-6.85,4.1-10.32,6.09-3.7,2.12-7.27,4.49-11,6.63-1.85,1.08-3.74,2.08-5.57,3.18s-3.43,2.26-5.16,3.38c-3.22,2.09-6.39,4.25-9.8,6-1.71.9-3.21,2.07-4.95,2.94a56.23,56.23,0,0,0-5.24,3.09c-3.48,2.24-7.17,4.09-10.66,6.31a45.44,45.44,0,0,1-5.21,2.64c-1.89.88-3.64,2-5.44,3-3.68,2.15-7.43,4.21-10.95,6.61-1.74,1.18-3.38,2.49-5.13,3.66s-3.54,2.27-5.31,3.42c-3.52,2.29-7.13,4.51-10.46,7.06-1.67,1.29-3.35,2.55-5,3.86a8.8,8.8,0,0,0-3.21,4.26,5.07,5.07,0,0,0-.57,3.22c.24,2,1.22,3.93,1.82,5.87a32.92,32.92,0,0,0,2.07,5.62c.11.22.25.43.38.65l.57,1.55c.76,2,1.4,4.11,2.22,6.11a19.82,19.82,0,0,0,.9,2.14l0,.05a46.79,46.79,0,0,1-4.67,2.27,13.11,13.11,0,0,0-4.89,3.61,6.71,6.71,0,0,0-1.58,2.84,5,5,0,0,0,0,1.89,10.05,10.05,0,0,1,.34,1.39c0,1-.44,2-.39,3.07a27.79,27.79,0,0,0,.62,3.61,107.7,107.7,0,0,1,1.56,14.33c.14,2.51.13,5,.22,7.52.1,2.34.5,4.66.65,7a73.13,73.13,0,0,1-.61,13.79c-.13,1-.26,2-.47,2.94a13.82,13.82,0,0,0-.61,3.48,2.4,2.4,0,0,0,1.17,2c.36,3.08.66,6.16.74,9.25.05,1.68,0,3.35.13,5s.48,3.5.73,5.25c.29,2,.14,4,.51,5.95.31,1.62,1,3.08,1.05,4.75.14,4.16-.08,8.37-.08,12.54a1.58,1.58,0,0,0,1.65,1.62c1,3.47,2,6.93,3.22,10.31a45.15,45.15,0,0,0,7,12.64,66.91,66.91,0,0,0,22.68,18.59,64.63,64.63,0,0,0,14.61,4.73,56,56,0,0,0,16.37,1.25c5.64-.49,11.27-1.29,16.84-2.29a59.6,59.6,0,0,0,15.11-4.35c2.62-1.23,5.16-2.62,7.79-3.84s5.52-2.57,8.16-4.1a75.34,75.34,0,0,0,7.24-4.7,8.33,8.33,0,0,0,1.15-1,65.17,65.17,0,0,0,15.86,8.77,100.66,100.66,0,0,0,13.83,3.88,96.31,96.31,0,0,0,14.8,2.22c10.35.65,20.87-.4,31.19-1.25a184.71,184.71,0,0,0,30.21-4.72c5-1.26,10-2.39,15-3.69a134.43,134.43,0,0,0,14.32-4.8c4.69-1.8,9.29-3.8,13.86-5.88a101,101,0,0,0,13.05-6.81c4.11-2.66,8.22-5.33,12.36-7.93a100.48,100.48,0,0,0,11.72-8.46,113.69,113.69,0,0,0,19.6-20.87l.76-1.11c2,.65,4,1.18,5.94,2s4.13,1.58,6.19,2.38a15.4,15.4,0,0,0,5.82,1.33,23.79,23.79,0,0,0,6.42-1.19,99.2,99.2,0,0,0,21.95-10.35A132.93,132.93,0,0,0,613.42,484,135.66,135.66,0,0,0,626.9,462.5c3.91-7.66,7.56-15.56,10.71-23.56,1.67-4.24,2.86-8.61,4.17-13s3.17-8.36,4.62-12.59c3-8.83,5.83-17.73,8.71-26.61.72-2.23,1.59-4.42,2.1-6.71A45.79,45.79,0,0,1,659,373.9c.76-2.06,1.17-4.28,1.76-6.4a49.75,49.75,0,0,0,1.49-6.5c.62-4.48,1.33-8.91,2.23-13.35s1.81-8.85,2.42-13.33c.31-2.27.53-4.53.64-6.81A1.5,1.5,0,0,0,666,325.88Zm-458.17,87.5c-.51-1.57-1.48-3.1-1.7-4.74-.19-1.38.45-2.18,1.49-3,1.48-1.21,3-2.35,4.54-3.52,3.2-2.46,6.68-4.59,10.06-6.81l2.07-1.37c9.2-5.3,18.22-10.88,27.21-16.53l1.32-.64c1.66-.85,3.17-2,4.81-2.84s3.44-1.87,5.1-2.9,3.39-2.22,5.12-3.27,3.42-1.64,5-2.67c3-2,6.27-3.68,9.34-5.64,3.31-2.13,6.45-4.5,9.89-6.43s7-4.05,10.49-6.17c3.26-2,6.67-3.78,9.85-5.88s6.88-3.77,10.33-5.7c.75-.42,1.53-.77,2.3-1.16a23.17,23.17,0,0,0,2.3-1.49,39.52,39.52,0,0,1,4.87-2.19c1.65-.78,3-1.94,4.55-2.82s3.43-1.81,5.12-2.77c1.53-.86,3.2-1.46,4.76-2.28.8-.42,1.65-.73,2.44-1.17s1.56-1.06,2.35-1.56A39,39,0,0,1,356.2,317c1.53-.71,2.72-1.8,4.18-2.62l.34-.18a6.53,6.53,0,0,1,4,.06,4.12,4.12,0,0,1,.45.27,9.12,9.12,0,0,1,1.22,2.09c.72,1.63,1,3.4,2.06,4.89.46.65,1,1.24,1.43,1.9s.7,1.52,1.2,2.22,1,1.21,1.45,1.79l.29.39c-2.79,1.69-5.56,3.39-8.27,5.21a69.66,69.66,0,0,0-8.48,5.32l-2.16,1.52c-.48.29-.95.6-1.44.89-4,2.46-8,4.95-11.78,7.79-.66.5-1.32,1-2,1.49l-6.59,4.23c-1,.61-2.06,1.23-3.05,1.92l-.78.55q-2.88,1.86-5.74,3.75c-1.76,1-3.56,1.88-5.33,2.85-2.06,1.11-3.93,2.44-5.89,3.71s-4.28,2.32-6.4,3.49c-4.2,2.31-8.4,4.65-12.41,7.28s-7.92,4.92-11.75,7.56c-3.06,2.11-6,4.47-9.08,6.52-.45.29-.9.58-1.36.86l-1.15.7c-4.13,2.35-8.34,4.6-12.56,6.76s-7.91,4.83-11.83,7.29c-1.79,1.12-3.48,2.43-5.24,3.6-2,1.32-4.06,2.5-6.09,3.77-3.84,2.4-7.18,5.54-11.15,7.76-2,1.14-3.87,2.65-5.81,4-1,.71-2.11,1.36-3.19,2l-.12-.1c-.14-.32-.26-.65-.4-1-.41-.92-.7-1.88-1-2.83-.68-1.92-1.42-3.82-2.12-5.74S208.46,415.23,207.85,413.38ZM530.43,517.29c-4.7,7.76-11,14.31-17.57,20.47a89.85,89.85,0,0,1-11.13,9c-3.88,2.62-7.93,5-11.84,7.54a107.17,107.17,0,0,1-11.81,7.11c-4.42,2.14-8.91,4.19-13.44,6.07s-9.13,3.59-13.77,5.17-9.39,2.6-14.13,3.75-9.61,2.51-14.49,3.48-9.66,1.64-14.53,2.16c-9.88,1.06-19.89,1.83-29.83,2a104.3,104.3,0,0,1-29.22-3.93,63.24,63.24,0,0,1-23-11.56l0,0a5.71,5.71,0,0,0-.58-.87,1.39,1.39,0,0,0-1.17-.57,42,42,0,0,1-7.31-7.75c-1.15-1.64-1.87-3.52-3.08-5.12s-2.92-2.66-4.54-3.94a11.4,11.4,0,0,1-1.87-1.93,1.71,1.71,0,0,0,0-.64,55.81,55.81,0,0,1-1.09-9.29,50.85,50.85,0,0,0-.74-8.88c-.27-1.58-.34-3.13-.52-4.72s-.45-3.08-.47-4.64c0-3.14-.34-6.54.17-9.65.48-2.92,1-5.9,1.76-8.77.76-3.06,1.7-6.1,2.31-9.2,1.15-5.8,2.31-11.67,4.55-17.18a84.06,84.06,0,0,1,4.31-8.46c1.52-2.78,2.82-5.77,4.57-8.41,1.62-2.43,3.62-4.62,5.4-6.94,1.95-2.54,3.83-5.11,5.73-7.69a21.11,21.11,0,0,1,2.89-2.86c1.19-1.12,2.35-2.26,3.55-3.36q3.42-3.17,7-6.15c2.35-2,4.7-3.91,7.1-5.79a81.51,81.51,0,0,1,7.74-5,50,50,0,0,1,7.63-4c2.7-1.08,4.8-3.1,7.45-4.3,2.82-1.28,5.71-2.41,8.53-3.71a68.68,68.68,0,0,1,9-3.31A101.39,101.39,0,0,1,412.94,402c6.45-.68,12.88-1.67,19.38-1.52A159.73,159.73,0,0,1,452,402c3.07.45,6.15,1,9.19,1.63a30,30,0,0,1,4.06,1.09,17.76,17.76,0,0,1,3.81,2.17c2.47,1.65,5.32,2.7,7.92,4.13s5.42,3.08,8.09,4.68a98.44,98.44,0,0,1,15.3,10.88c4.26,3.87,7.78,8.45,11.29,13,1.77,2.28,3.71,4.46,5.36,6.82s3.06,5,4.7,7.37c3.4,5,5.73,10.89,8.15,16.42s4.75,11.34,5.42,17.38c.15,1.35.29,2.68.52,4,.18,1.13-.42,2-.37,3.16a1.61,1.61,0,0,0,1.24,1.56C537.67,503.64,534.15,511.14,530.43,517.29ZM664.16,327.51c-.43,8.91-2.79,17.54-4.28,26.3a126.24,126.24,0,0,1-2.38,12.79c-.55,2-.93,4-1.59,5.93a59.36,59.36,0,0,0-1.91,6.39c-1,4.39-2.71,8.67-4,13s-2.84,8.63-4.33,12.93-2.7,8.45-4.32,12.61-2.92,8.29-4.19,12.53c-2.48,8.25-6.08,16.11-9.73,23.89a164.2,164.2,0,0,1-12,21.82,127.44,127.44,0,0,1-33.09,33.41,116.64,116.64,0,0,1-23.08,12.47,40.34,40.34,0,0,1-6.86,2.21,11.45,11.45,0,0,1-6.63-.45c-2.26-.83-4.53-1.67-6.76-2.58-1.8-.73-3.62-1.28-5.45-1.87,3.73-6.07,6.74-13,6.77-20a21,21,0,0,0-.92-6.24c0-.05,0-.09-.05-.13a8.09,8.09,0,0,0-.06-.85c-.19-1.49-.42-3-.6-4.48a46.1,46.1,0,0,0-2-8.67,165.74,165.74,0,0,0-7.55-18c-5.05-10.94-12.56-20.63-20.27-29.81-8.18-9.73-19.14-16.44-30.15-22.52-2.75-1.51-5.7-2.63-8.3-4.38a22,22,0,0,0-8.06-3.29,151.21,151.21,0,0,0-19.65-2.83c-6.64-.5-13.38-.9-20,0s-13.47,1.19-20.13,2.34a77.94,77.94,0,0,0-18.77,5.68c-2.91,1.33-5.86,2.53-8.78,3.83-2.67,1.19-4.79,3.25-7.5,4.31a52.92,52.92,0,0,0-8,4.23,79,79,0,0,0-7.61,4.92c-5.13,4-10.12,8.17-14.88,12.57-2.11,2-4.58,3.88-6.35,6.15-2,2.65-4,5.4-6,8.06-1.88,2.45-4,4.76-5.69,7.35s-3.06,5.66-4.58,8.45a90.67,90.67,0,0,0-4.43,8.81,63.7,63.7,0,0,0-2.83,8.95c-.7,2.88-1.27,5.79-1.85,8.69-.64,3.19-1.62,6.31-2.39,9.46-.72,2.93-1.32,6-1.75,9a65.79,65.79,0,0,0-.18,9.83,45,45,0,0,0,.48,4.64c.19,1.71.25,3.4.54,5.11a55.34,55.34,0,0,1,.71,9.27,37.59,37.59,0,0,0,.58,5.7,1.59,1.59,0,0,0-.92,2.39,23.27,23.27,0,0,0,3.76,4.95c1.61,1.48,3.64,2.39,4.92,4.22s2,3.65,3.24,5.33a50.15,50.15,0,0,0,4.12,4.86c1.28,1.28,2.65,2.5,4.05,3.68l-.05,0c-.44.36-.92.68-1.38,1-1,.67-2,1.32-3,2-2,1.31-4.15,2.54-6.31,3.64-4.26,2.18-8.61,4.27-12.94,6.29-4.49,2.09-9.24,3-14.08,3.9-5.19.94-10.42,1.67-15.67,2.14a52.2,52.2,0,0,1-15-.93,63.79,63.79,0,0,1-13.73-4.15c-8.17-3.73-15.26-9.72-21.15-16.44a40.8,40.8,0,0,1-7.64-12.73c-1.75-4.65-3-9.48-4.41-14.23a1.71,1.71,0,0,0-.51-.81c0-2.5,0-5,.07-7.51a15,15,0,0,0-.42-4.48,19.49,19.49,0,0,1-.82-4.6c-.13-3.57-1.12-7.05-1.15-10.64a100.15,100.15,0,0,0-.62-10.81c-.05-.51-.12-1-.2-1.54a2.21,2.21,0,0,0,.51-1.62,13.32,13.32,0,0,1,.56-2.81c.2-1.19.38-2.4.52-3.61.27-2.37.53-4.78.7-7.16.33-4.58-.55-9.07-.74-13.63-.19-4.87-.31-9.71-.73-14.58-.22-2.48-.71-4.93-1-7.4-.13-1-.41-1.91-.56-2.87a11.6,11.6,0,0,0,0-1.56c.09-.62.24-1.23.29-1.85a5.64,5.64,0,0,0-.17-1.83c0-.17-.1-.34-.16-.5a.76.76,0,0,1,0-.11,6.12,6.12,0,0,1,1.52-1.73c1.45-1.36,3.55-1.85,5.29-2.71a88.55,88.55,0,0,0,12-7.32c1.8-1.3,3.73-2.34,5.54-3.61s3.8-2.67,5.66-4.07c3.59-2.71,7.57-4.88,11.34-7.34,1.84-1.21,3.59-2.51,5.48-3.67s3.7-2.55,5.61-3.74,4.2-2.3,6.31-3.42,4.11-2.27,6.18-3.37,4.11-2.14,6.06-3.39,3.86-2.69,5.75-4.09c3.75-2.77,7.7-5.12,11.59-7.68s7.77-5.06,11.83-7.37,8.56-4.36,12.47-7.07,8.14-4.37,12-6.9c1.89-1.23,3.67-2.63,5.56-3.85s4-2.28,6-3.58c3.89-2.64,7.46-5.69,11.51-8.11s7.88-4.69,11.72-7.17c4.05-2.61,8-5.4,12.09-7.9s8.22-5.12,12.54-7.31a41,41,0,0,0,4-2.15,3.63,3.63,0,0,0,.93,0,26.86,26.86,0,0,1,5.21-.47c1.75.1,3.53.43,5.26.69s3.63.6,5.47.78,3.86.11,5.79.11c1.76,0,3.54.09,5.29,0s3.54-.63,5.35-.68c3.73-.13,7.45-.48,11.18-.3s7.31.3,11,.26c3.85-.05,7.64.49,11.48.67,3.66.16,7.32-.09,11,0s7.26.71,10.9,1c7.41.61,14.88.51,22.3.72,3.88.11,7.76,0,11.64.05,3.68.07,7.38.53,11,.82,1.71.13,3.41.41,5.12.52,2,.12,3.93.06,5.89.05,3.76,0,7.52,0,11.27,0h36.07c4.16,0,8.27.34,12.42.29s8,.39,12,.38c2.1,0,4.2,0,6.3,0,1,0,2.07.06,3.1,0s1.9-.39,2.83-.36a2.26,2.26,0,0,0,1.58-.52c4.32,0,8.64-.49,13-.53,10-.1,20,.06,30,.06h.18A1.88,1.88,0,0,0,664.16,327.51Z"/><path class="cls-6" d="M187.11,329.59s0-.06,0-.08a45.47,45.47,0,0,0-2.26-16.27l0,0c-.1-.31-.21-.63-.35-1a3.06,3.06,0,0,0-1.93-1.81c-1.75-4.7-4.53-9.11-10.3-6.27-2.78,1.37-3.89,4.06-4.47,6.93-.9,4.43-2.53,8.6-3.37,13-1.07,5.67-9,6.29-13.91,6.28-6.85,0-11.4-2.35-16.86-6-.22-4.9,2.66-11.17,4.44-15.46a3.36,3.36,0,0,0,.21-2.21l.31-.26c1.71-.84,2.84-.26,4.55-.7,5.15-1.34,3.22-8.39,3.1-12.24-.17-5.5,1.4-15.21-3.17-19.4a6.54,6.54,0,0,0-10.6,2.58c-.89,2.49,0,5,.4,7.49a27.45,27.45,0,0,1,.38,6.23c-.27,2.61.08,1-1.28,2.69a11.78,11.78,0,0,1-2.19,2c-9.07.18-17.31,9.41-21.34,18.12-6.75,14.6-.39,30.11,11.9,39.08a10.14,10.14,0,0,0,.78,1.23c2.7,3.58,7.7,3.91,11.78,4.72,1.38.28,2.76.53,4.13.77a3.42,3.42,0,0,0,1.94.9c10.46,1.55,19.59,3.59,29.69-.89,6.49-2.88,11-8.32,14.45-14.34l.22-.19C187.13,340.86,187.73,334.66,187.11,329.59Z"/><path class="cls-9" d="M119.51,311.61a9.67,9.67,0,0,1,1.26-3,13.94,13.94,0,0,1,2-2c1.76-1.61,3.5-3.27,5.19-4.94s-.84-3.92-2.39-2.39-3,2.78-4.43,4.22a20.83,20.83,0,0,0-3.53,3.74,22.34,22.34,0,0,0-2,5.57c-.53,1.91-1.42,3.69-2,5.6a22.27,22.27,0,0,0-1,5.65,23.13,23.13,0,0,0,.38,2.63c.11,1,.06,1.9.21,2.84.62,3.91,2.75,7.84,4.75,11.21,1.12,1.89,1.86,3.81,3.55,5.3.74.65,1.65,1.13,2.38,1.78s.91,1.1,1.82,1.41c2,.66,2.85-2.23,1.2-3.13a4,4,0,0,0-.47-.55,8.25,8.25,0,0,0-1.17-.87,11.42,11.42,0,0,1-2.34-2,18.69,18.69,0,0,1-1.7-3c-.53-1-1.14-1.89-1.62-2.89a46.7,46.7,0,0,1-2.74-6.53,12.34,12.34,0,0,1-.46-3.08c-.06-1-.35-1.92-.41-2.89a17.88,17.88,0,0,1,1.34-6.26C118.12,315.88,118.88,313.8,119.51,311.61Z"/><path class="cls-9" d="M161.79,354.47c-1.31,1.12-3.34.72-4.91.67-2.1-.07-4.2.26-6.27-.13s-4.07-.24-6.06-.74a21.11,21.11,0,0,1-5.43-1.79c-1.89-1.07-3.6,1.85-1.7,2.92,4.1,2.33,9,2.53,13.57,3.09,2.33.28,4.71,0,7,.08a8.26,8.26,0,0,0,6.14-1.71C165.83,355.45,163.44,353.07,161.79,354.47Z"/><path class="cls-4" d="M480.19,512.5c-.33-6-2.77-12.09-5.41-17.44a70.33,70.33,0,0,0-10.27-15.19A42.27,42.27,0,0,0,457,473c-2.54-1.8-5-4.49-8.18-5.13a2.9,2.9,0,0,0-3.47,2,2.84,2.84,0,0,0,2,3.46c2.28.46,4.26,2.72,6.08,4a38.3,38.3,0,0,1,5.87,5.07,66.88,66.88,0,0,1,9.57,13.34,50.64,50.64,0,0,1,5.55,15,23.57,23.57,0,0,1-.36,7.94c-.52,3-1,6-1.31,9a31.73,31.73,0,0,1-2.21,9.42,41.46,41.46,0,0,1-2.25,3.87,17.11,17.11,0,0,1-2.64,3.5c-2.56,2.57,1.42,6.55,4,4a34.91,34.91,0,0,0,5.22-7.47,28.78,28.78,0,0,0,3-9.45c.54-3.18.75-6.39,1.31-9.56S480.37,515.66,480.19,512.5Z"/><path class="cls-4" d="M442,481.69a2.33,2.33,0,0,0-.7-2.83,5.15,5.15,0,0,0-.58-.41l0,0-.18-.09h0a3.49,3.49,0,0,0-.44-.2c-1.67-.75-3.53-.55-5.42-.88-.81-.14-1.61-.3-2.42-.46l-1-.21c-1.57-.31-3.14-.61-4.72-.81A42.37,42.37,0,0,0,410,476.93c-4.66,1.31-8.7,3.87-12.87,6.24-2.22,1.27-4.78,2.72-6.23,4.86a7.28,7.28,0,0,0-.89,1.05c-1.95,2.82-.67,6.47,1.57,8.71,1.1,1.09,2.59,2.14,4.14,1.82a3,3,0,0,0,3.14-.57,70,70,0,0,1,5.66-4.55c1.55-.47,3.15-.8,4.7-1.14,4.05-.89,8.07-1.91,12.13-2.71,2.09-.41,4.19-.69,6.3-1a45.85,45.85,0,0,1,6.5-.73,2.79,2.79,0,0,0,1.85-.74l.76.13a2.91,2.91,0,0,0,3.47-2,3,3,0,0,0-.25-2.06A2.53,2.53,0,0,0,442,481.69Z"/><path class="cls-4" d="M387.84,510.3a2.88,2.88,0,0,0-1.95-.81,2,2,0,0,0-.34-.12,5,5,0,0,0-.73-.09l-.05-.11a5.38,5.38,0,0,0-5.45-2.33c-4.55.57-7.32,4.14-8.71,8.29a34.41,34.41,0,0,0-1.28,7.34,74.21,74.21,0,0,0-.69,7.73,39.58,39.58,0,0,0,1.05,8.33c.48,2.25,1.09,4.8,2.82,6.45a3.19,3.19,0,0,0,2.07.81,2.18,2.18,0,0,0,.63.06,33.53,33.53,0,0,0,5.19-.69,2.47,2.47,0,0,0,1.7-1.22,1.2,1.2,0,0,0,.23-.11,4.9,4.9,0,0,0,2.44-4.56c.06-2.31-.6-4.5-.4-6.83.21-2.52.79-5,1.23-7.47a3.1,3.1,0,0,0-.66-2.64c.53-2.75,1.17-5.91,2.9-8.05A2.89,2.89,0,0,0,387.84,510.3Z"/><path class="cls-4" d="M465.84,513.87a27.64,27.64,0,0,0-3.86-9.76,25.59,25.59,0,0,0-2-2.51,18.31,18.31,0,0,0-4.21-4.61,7.46,7.46,0,0,0-.94-.59l-.2-.2a2.57,2.57,0,0,0-2.47-.74c-2.79-.54-6,0-7.71,2.15A3,3,0,0,0,444,501c.42,1,1.2,1.56,1.5,2.61a11.81,11.81,0,0,0,1.88,3.73,28,28,0,0,1,3.76,7.18c1.83,5.22,2.5,10.76,3.23,16.22a2.1,2.1,0,0,0,.62,1.16,2.72,2.72,0,0,0,1.08,3.6c3.66,1.83,7-1.51,8.27-4.68a31.18,31.18,0,0,0,1.66-5c0-.16.08-.33.11-.49A25.89,25.89,0,0,0,465.84,513.87Z"/><path class="cls-4" d="M431.69,527.16a7.92,7.92,0,0,0,.15-4.57,9.65,9.65,0,0,0-3-4.3,19.72,19.72,0,0,0-4.33-2.78c-1.74-.82-3.65-1.73-5.62-1.46a4.75,4.75,0,0,0-3.06,1.64l0,0h0a10.69,10.69,0,0,0-3.76,3.59c-2.07,3.53-.67,7.49,1.75,10.4s6.08,4.95,9.86,4.52a8.68,8.68,0,0,0,5.35-2.35,10.58,10.58,0,0,0,1.93-2.75A6.71,6.71,0,0,0,431.69,527.16Zm-6.93-1.78h0l.15,0c-.16,0-.41,0-.43,0l-.2,0-.22-.07-.4-.23c-.06-.07-.14-.13-.2-.19h0s0-.08,0-.08l.1-.17c.05-.09.08-.13.09-.16.16-.17.39-.34.51-.46l0,0,.14-.09.22.15.2.17.3.3.07.16.11.41a.64.64,0,0,1,0,.09v.08h0v0a1.12,1.12,0,0,1,.05-.13s0,.11-.05.17a.6.6,0,0,1,.11-.12.5.5,0,0,0-.1.17v0h0v0l0,0h0v0h0v0h0c0,.05,0,.08,0,.07h0v0s0,0,0,0h-.1l-.17.09a.46.46,0,0,1,.13-.08h0Z"/><path class="cls-4" d="M425.05,525.31l0,0h0l.08,0h0l0,0,0,0h0l0,0h0v-.06h0l0,0s0,0,0,0l0,.06,0,.06a.25.25,0,0,0-.08,0,.93.93,0,0,0-.19,0h.1Z"/><path class="cls-4" d="M425.17,525.28h0s0,0,0,0l0,0s0,0,0,.05l0-.07v0h0l0,0Z"/><polygon class="cls-4" points="425.25 525.13 425.24 525.13 425.24 525.14 425.25 525.13"/><path class="cls-4" d="M425.16,525.28h0Z"/><path class="cls-4" d="M424.07,505.25a9.73,9.73,0,0,0-3.07-.55,13.46,13.46,0,0,0-2.88.49,24.47,24.47,0,0,0-6.11,2.18,15.31,15.31,0,0,0-4.66,4.33c-.49.52-1,1-1.46,1.55a5.74,5.74,0,0,0-1.28,2,4,4,0,0,0-.19.68c0,.14-.24.78,0,.24a2.82,2.82,0,1,0,4.86,2.85c.73-1.2,1.46-2.4,2.26-3.55a7.17,7.17,0,0,1,.66-.69l.18-.16.38-.27c.45-.31.89-.62,1.35-.91s.85-.52,1.28-.76l.85-.44.36-.17.23-.1.17-.07.45-.15c.21-.07.43-.12.65-.17a2.6,2.6,0,0,0,3.62-1.15c.28.07.57.14.85.23a2.84,2.84,0,0,0,3.46-2A2.87,2.87,0,0,0,424.07,505.25Z"/><path class="cls-4" d="M442,526.66a2.86,2.86,0,0,0-4,0,23.41,23.41,0,0,0-2.66,3.86c-.67.78-1.34,1.57-2,2.32-.36.38-.74.74-1.12,1.11-.12.07-.23.15-.35.21-.62.35-1.26.67-1.91,1l-.22.1-.51.2c-.38.14-.75.27-1.13.38a9.22,9.22,0,0,1-1.15.29l-.26,0-.33,0c-.22,0-.43,0-.65,0l-.36-.05-.11,0-.56-.2a2.82,2.82,0,0,0-3.18,1.29,2.89,2.89,0,0,0,.44,3.41c4.41,4.48,9.66,1.53,13.72-2.21a15.24,15.24,0,0,0,3.44-3.41,25.79,25.79,0,0,0,1.59-2.28c.25-.44.5-.88.76-1.31.1-.16.21-.31.31-.46l.27-.31A2.85,2.85,0,0,0,442,526.66Z"/><path class="cls-4" d="M411.65,535.92a10.89,10.89,0,0,0-2.06-2.12c-.32-.26-.65-.52-.95-.8-.15-.14-.3-.28-.43-.42l-.16-.18c-.18-.31-.42-.6-.59-.93s-.16-.37-.26-.55c.11.19.16.3.19.35a3.66,3.66,0,0,1-.18-.39,13.11,13.11,0,0,1-.48-2.06c-.05-.44-.1-.88-.13-1.32a2.87,2.87,0,0,0-2.81-2.81A2.84,2.84,0,0,0,401,527.5v.07a3,3,0,0,0-.58,1.66c-.14,2.4,1.35,4.44,2.62,6.34s2.91,4,5.45,4.49a2.89,2.89,0,0,0,3-1A2.78,2.78,0,0,0,411.65,535.92Z"/><path class="cls-4" d="M407.39,531.27Z"/><path class="cls-4" d="M437.38,516.14l0-.07a17,17,0,0,1-1-3.11,2.81,2.81,0,0,0-1.3-1.68,2.26,2.26,0,0,0-.47-.22,14.81,14.81,0,0,0-1.83-2.21,2.81,2.81,0,0,0-4,4,12,12,0,0,1,.82.92,18.23,18.23,0,0,1,1.42,2.36c.38.76.79,1.52,1.17,2.29a11.31,11.31,0,0,1,.47,1.82v0a2.77,2.77,0,0,0,.76,1.57,2.81,2.81,0,0,0,4.81-2A7.65,7.65,0,0,0,437.38,516.14Z"/><path class="cls-6" d="M539,495.07c-.28-1.8-.69-3.58-1.09-5.36-.81-3.61-1.41-7.27-2.51-10.8a61.62,61.62,0,0,0-2.51-6.59,2.84,2.84,0,0,0-.23-2.13c-1.17-2.31-2-4.77-3.3-7-.61-1.07-1.32-2.07-2-3.12s-1.24-2.43-1.91-3.63c-1.29-2.34-2.87-4.51-4.25-6.81s-2.74-4.59-4.29-6.77c-3.3-4.64-7.42-8.7-11.32-12.83-.85-.9-1.71-1.78-2.59-2.64a2.73,2.73,0,0,0-.39-1,12.62,12.62,0,0,0-.91-1.23c-.26-.47-.48-1-.77-1.43a12.69,12.69,0,0,0-2.46-2.45c-1.76-1.41-3.43-2.93-5.24-4.29a24.25,24.25,0,0,0-6.28-3.07c-.53-.19-1.05-.4-1.56-.61a44.34,44.34,0,0,0-4.18-2l-.67-.35-2.47-1.29c-.62-2.09-2.64-3.54-4.47-4.74-5.29-3.48-11.68-4.5-17.87-5.06a186.14,186.14,0,0,0-21.39-.7A175.77,175.77,0,0,0,412,401,105.33,105.33,0,0,0,392,406.22a209.88,209.88,0,0,0-38.14,18.67,134.8,134.8,0,0,0-17.31,12.19,102.29,102.29,0,0,0-13.57,13.8,14.57,14.57,0,0,0-3.53,7.9,2.29,2.29,0,0,0-1.41.76,42.35,42.35,0,0,0-6.26,12.29c-.83,2.33-1.79,4.62-2.61,7s-1.75,4.2-1.88,6.6a2.63,2.63,0,0,0,1,2.11c-.33,1.37-.62,2.73-.9,4.11-.76,2.5-1.48,5-2.12,7.54-1.73,6.79-3.64,13.83-4,20.84a68.4,68.4,0,0,0,.36,10.12,3,3,0,0,0,2.27,2.76c0,1.39-.07,2.79,0,4.17s.39,2.63.53,4,.17,2.88.42,4.33a30.51,30.51,0,0,1,.77,3.45,2.91,2.91,0,0,0,4,2.54c.25.83.54,1.65.86,2.45a4.47,4.47,0,0,0,2.2,2.55,41.83,41.83,0,0,0,4.38,6.31,2.24,2.24,0,0,0,1.13.75,30.85,30.85,0,0,0,3.12,4.61c1.42,1.66,4.16.66,4.7-1.24a4.79,4.79,0,0,0-.76-4.11,17,17,0,0,1-1.73-3.68,87.29,87.29,0,0,1-2.43-9.18,79.37,79.37,0,0,1-2.45-20c.08-3.38,0-6.74.07-10.11s1.05-6.39,1.35-9.6c.12-1.31.23-2.61.34-3.91.13-.43.25-.86.39-1.29.72-2.19,1.52-4.34,2.16-6.56a90.86,90.86,0,0,1,4.32-12.63,116.86,116.86,0,0,1,6.47-12.28c4.57-7.56,10.48-14,16.79-20.09,3.59-3.5,7.06-7.2,11.07-10.24a81,81,0,0,1,9.86-6.44,31.77,31.77,0,0,0,6.63-3.86c2.18-1.71,4.33-3.56,6.61-5.17,2-.85,4.07-1.63,6.15-2.32a165.07,165.07,0,0,1,17.8-4.68h1.5a39.39,39.39,0,0,0,6-.42,56.1,56.1,0,0,0,9.05-2.21q3.1-.3,6.23-.45a84.91,84.91,0,0,1,14.07.71A161.23,161.23,0,0,1,472,423.84a81.25,81.25,0,0,1,18.12,8.21c1.77,1.68,3.51,3.38,5.25,5.06a70.58,70.58,0,0,0,6.15,5.71,35.38,35.38,0,0,1,4.9,5,123,123,0,0,1,9.67,12.39c1.75,2.59,3.61,5.12,5.32,7.74a28.38,28.38,0,0,0,2.79,3.67c.54.59,1,1.21,1.5,1.78.18.42.37.83.53,1.26a55.89,55.89,0,0,1,3,8.71c.63,3,1.69,5.93,2.45,8.92a22.62,22.62,0,0,1,1,3.93c.09,1.59-.19,2.94.79,4.36a2.85,2.85,0,0,0,5.14-.67A10.77,10.77,0,0,0,539,495.07Zm-74.41-79,3.1,0a2.47,2.47,0,0,0,.33.89Z"/><path class="cls-6" d="M381.91,176.19c0-2.09.12-4.18,0-6.28-.14-4.17-.74-8.36-1.24-12.5-.25-2.07-.54-4.12-.59-6.2a25.42,25.42,0,0,0-.73-6.57,2.76,2.76,0,0,0-2-2,14.45,14.45,0,0,0-2.37-.16,6.92,6.92,0,0,0-4.54,3.39,28.18,28.18,0,0,0,.15,4.77,29.85,29.85,0,0,1,.44,4.11c.08,3.24.37,6.5.57,9.74.18,3,1,5.91,1.14,8.91.05,1.34-.16,2.68-.05,4a6.22,6.22,0,0,0,.32,1.61l0,.1a3,3,0,0,0-.2,2,2.69,2.69,0,0,0,2,1.93,4.54,4.54,0,0,0,.41.33c1.41.92,3.21,1.52,4.77.57a4.29,4.29,0,0,0,1.83-3.69C382,178.92,381.88,177.55,381.91,176.19Z"/><path class="cls-6" d="M418.68,186.34c-.06-3.23-.64-6.44-.86-9.66-.23-3.44-.4-6.89-.87-10.31-.24-1.72-.59-3.43-.87-5.14s-.12-3.26-.23-4.91A5.87,5.87,0,0,0,410,151.1a3.13,3.13,0,0,0-2.41-.45,2.9,2.9,0,0,0-2,3.47c.91,6.71,1.91,13.41,2.43,20.17.25,3.34.14,6.69.38,10,.09,1.4.51,2.77.46,4.17a7.44,7.44,0,0,0,.74,4.43,4.91,4.91,0,0,0,7.29,1.26C419.32,192.18,418.74,189.07,418.68,186.34Z"/><path class="cls-6" d="M453.32,194.36c-.5-3-.92-6-1.27-9-.42-3.56-.79-7.12-1.27-10.67-.44-3.28-.49-6.72-1.23-9.93a2.75,2.75,0,0,0-2-2,15.74,15.74,0,0,0-3-.16,2.67,2.67,0,0,0-2.69,2.55,2.59,2.59,0,0,0-1.85,2.57c0,6.06.93,12.15,1.39,18.19.23,3,.86,5.94,1,8.92.09,1.39.07,2.78.16,4.17a9.3,9.3,0,0,0,.85,4.3,5.87,5.87,0,0,0,6.71,2.17c2.34-.78,3.36-3,3.61-5.3A21.21,21.21,0,0,0,453.32,194.36Z"/><path class="cls-6" d="M484.23,210.54a56.2,56.2,0,0,0-.58-6.06c-.84-4.69-1-9.38-1.54-14.11-.23-2.25-.73-4.47-.79-6.72s.47-4.48-.13-6.57c-1.13-4-5.2-3.59-8.44-3.54s-3.55,4.26-1.27,5.36a2.13,2.13,0,0,0-.3.73,13.13,13.13,0,0,0-.56,2.91,18.07,18.07,0,0,0,.54,2.53c.32,1.7.47,3.46.69,5.18.52,4,.74,7.94,1,11.94a72.48,72.48,0,0,0,1.52,10.36,5.08,5.08,0,0,0,2.23,3.62,6.21,6.21,0,0,0,2.51.56l1,.07c.17,0,1,.16.29,0a2.94,2.94,0,0,0,3.18-1.29C484.61,214.12,484.34,212.15,484.23,210.54Z"/><path class="cls-6" d="M519.28,218.71c-.12-1.57-.07-3.15-.22-4.72-.16-1.78-.41-3.55-.62-5.32-.37-3.27-.37-6.56-.77-9.83-.23-1.86-.5-3.71-.64-5.57-.12-1.53.1-3.1-.09-4.61a4.58,4.58,0,0,0-3.28-4,6.11,6.11,0,0,0-2.33-.18c.12,0,.05,0,0,0l-.34-.31c-2.64-2.49-6.63,1.48-4,4l0,0a2.49,2.49,0,0,0-.86,2c.11,1.45.48,2.84.58,4.28.12,1.74.5,3.45.7,5.18.39,3.38.83,6.75,1,10.15a87.89,87.89,0,0,0,.88,9.58c.18,1.17.52,2.31.74,3.48a7.84,7.84,0,0,0,1.09,3.08c1.55,2.32,5.49,3.57,7.67,1.39S519.49,221.29,519.28,218.71Z"/><path class="cls-4" d="M381.58,163.36c-.24-3.24-.28-6.48-.27-9.73a32.65,32.65,0,0,0-.21-4.53,16.32,16.32,0,0,0-.42-2.3,7.9,7.9,0,0,1-.51-2.05c0-3.63-5.66-3.63-5.64,0,0,1.59.66,3,.94,4.49a22.06,22.06,0,0,1,.21,4.14c0,3.33,0,6.66.26,10,.23,3.17.55,6.28.53,9.46s-.18,6.12-.2,9.19c0,0,0,.06,0,.09v.38c0,3.62,5.62,3.63,5.63,0,0-3.13.17-6.27.21-9.4S381.81,166.61,381.58,163.36Z"/><path class="cls-4" d="M419.18,188.26c-.24-1.79-.41-3.59-.64-5.38a33.92,33.92,0,0,1-.4-5.61c.05-1.89-.48-3.67-.6-5.54-.23-3.8,0-7.66,0-11.46,0-2.79.81-6.1-1.4-8.32-2.5-2.52-6.35,1.24-4.12,3.81,0,0,0,.17,0,.38a16.48,16.48,0,0,1-.06,1.72c-.11,1.42-.09,2.84-.09,4.26a104.26,104.26,0,0,0,.1,10.61,34.53,34.53,0,0,1,.49,5.06,27.87,27.87,0,0,0,.43,5.24c.26,1.69.34,3.41.6,5.11a15.16,15.16,0,0,1,.26,3.62,2.56,2.56,0,0,0-.73,1.84,2.83,2.83,0,0,0,2.81,2.81l.48,0a2.94,2.94,0,0,0,2.72-2.07A15.89,15.89,0,0,0,419.18,188.26Z"/><path class="cls-4" d="M455.53,199.15a29.52,29.52,0,0,0-.56-3.85c-.4-1.88,0-3.78,0-5.69a13.52,13.52,0,0,0-.39-3.35,8,8,0,0,1-.24-2.3,35.76,35.76,0,0,0-.47-3.56c-.11-.93-.08-1.87-.15-2.8a51.46,51.46,0,0,0-1-7c-.2-1-.53-1.88-.82-2.82a5.63,5.63,0,0,1-.5-2.18,2.9,2.9,0,0,0-2-3.46c-1.32-.37-3.24.45-3.46,2a12.38,12.38,0,0,0,.7,5.81,34,34,0,0,1,1.23,5.66c.3,2,.25,3.93.52,5.89a23.25,23.25,0,0,1,.33,2.49,14.69,14.69,0,0,0,.23,3,18.85,18.85,0,0,1,.27,5.36,18.79,18.79,0,0,0,.43,4.79c.08.41.15.83.21,1.24,0,.13.05.42.05.49v0a2.87,2.87,0,0,0-2,4.15l.72,1.36a2.83,2.83,0,0,0,2.43,1.39C454.74,205.93,455.73,202.1,455.53,199.15Z"/><path class="cls-4" d="M485,207.45a33.91,33.91,0,0,1-.22-4.73c-.06-1.62-.61-3.17-.61-4.79a96.74,96.74,0,0,0-.12-10.5c-.39-3.52-1.32-7-1.6-10.5a2.89,2.89,0,0,0-2.81-2.81,2.84,2.84,0,0,0-2.82,2.81c.26,3.32,1,6.54,1.51,9.83a64,64,0,0,1,.22,10.08,21.86,21.86,0,0,0,.44,4.71,39.55,39.55,0,0,1,.15,4.62c.12,1.52.69,3.05.58,4.58a3.81,3.81,0,0,1-.1.67,2.47,2.47,0,0,0-.5,1.72,3,3,0,0,0,1.43,2.57,2.87,2.87,0,0,0,3.85-1C485.7,212.6,485.42,209.72,485,207.45Z"/><path class="cls-4" d="M521,220.24a23.89,23.89,0,0,1,0-4.93c.2-1.91.67-3.55.41-5.5-.21-1.62-.66-3.2-.8-4.82-.16-1.94-.16-3.87-.5-5.79s-.81-3.54-1.07-5.35a41.4,41.4,0,0,1-.36-6c0-3.62-5.61-3.63-5.63,0A49,49,0,0,0,514.32,199c.73,3.28.59,6.66,1.25,10a9.22,9.22,0,0,1,.21,3.73,28,28,0,0,0-.45,5.32,26,26,0,0,0,.39,4.57c.16.9.54,2.19-.13,2.94-2.41,2.7,1.56,6.7,4,4a7.41,7.41,0,0,0,2-4.88A30.66,30.66,0,0,0,521,220.24Z"/><path class="cls-4" d="M198.57,76.92c0-.63,0-1.27,0-1.91a4.58,4.58,0,0,0-.71-2.33,6.92,6.92,0,0,0-2.1-1.86c-1.76-1.14-3.62-2.24-5.8-1.63a5.56,5.56,0,0,0-1.75.85,7.21,7.21,0,0,0-1.28.62,7.42,7.42,0,0,0-1.57,1.39,7.93,7.93,0,0,0-3,4.35c-1.06,3.17-.66,7,2,9.24,1.69,1.46,3.83,2.38,6.06,1.64.13,0,.25-.11.37-.16H191A7.67,7.67,0,0,0,196.2,85a8.32,8.32,0,0,0,2-4,6.45,6.45,0,0,0,.28-1.09A17.6,17.6,0,0,0,198.57,76.92Z"/><path class="cls-4" d="M191.29,76.62h0Z"/><path class="cls-10" d="M320.72,340.46a2.81,2.81,0,0,0-4.13,3.81.88.88,0,0,1,.05.15s0,0,0,.07c0,.24,0,.48,0,.72,0,1-.09,2-.16,3-.08,1.24-.08,2.47-.21,3.7s-.31,2.68-.37,4a2.4,2.4,0,0,0,0,.28v.39a2.82,2.82,0,0,0,5.64,0c0-1.66.25-3.3.42-4.95.13-1.29.12-2.59.22-3.89C322.37,345.41,322.69,342.23,320.72,340.46Z"/><path class="cls-10" d="M339.94,332.1a2.82,2.82,0,0,0-5.64,0c0,.7-.05,1.38-.11,2.07,0,.08,0,.14,0,.18s0,.08,0,.19c-.05.38-.11.76-.16,1.13-.1.74-.2,1.48-.27,2.22a.37.37,0,0,1,0,.11c0,.17-.06.35-.1.53s-.11.53-.16.8c-.54,2.87-.15,5.77-.32,8.66a2.8,2.8,0,0,0,1.74,2.57,2.86,2.86,0,0,0,3.07-.58,4.36,4.36,0,0,0,1.33-2.19,2.9,2.9,0,0,0-.46-2.4l0-1.78c0-.63,0-1.25,0-1.88,0-.17,0-.35,0-.52v-.12c.06-.26.11-.53.16-.8.15-.75.27-1.5.35-2.25,0-.35.07-.69.11-1a.92.92,0,0,0,0-.15c0-.05,0-.13,0-.25A32.21,32.21,0,0,0,339.94,332.1Z"/><path class="cls-10" d="M359.22,321.29c-.14-.48-.32-.94-.42-1.43a2.84,2.84,0,0,0-3.46-2,2.89,2.89,0,0,0-2,3.47c.1.49.28.95.42,1.43l.06.2c0,.1,0,.15,0,.18s0,.4,0,.46c0,1.09,0,2.18,0,3.26v6.75a2.82,2.82,0,1,0,5.64,0v-7c0-1.08.06-2.16,0-3.24A8.25,8.25,0,0,0,359.22,321.29Z"/><path class="cls-10" d="M151.19,253.81a26.39,26.39,0,0,0-4.7-1.89,21,21,0,0,0-5.25-.22,38.55,38.55,0,0,0-5.47.55,11.64,11.64,0,0,0-2.32.53,12.92,12.92,0,0,1-2.25.75,2.82,2.82,0,0,0-2,3.46,2.91,2.91,0,0,0,3.47,2c1.4-.24,2.65-1,4.07-1.2a28,28,0,0,1,4.13-.42l2.07,0q.63,0,1.26,0c.06,0,.54.05.59,0a14.1,14.1,0,0,1,3.52,1.36,2.89,2.89,0,0,0,3.86-1C152.85,256.43,152.62,254.46,151.19,253.81Z"/><path class="cls-10" d="M151.76,209.56a18.4,18.4,0,0,0-4.63-1.43,33.3,33.3,0,0,0-5.16-.68c-3.62-.11-7.21.68-10.77,1.25a2.84,2.84,0,0,0-2,3.46,2.89,2.89,0,0,0,3.47,2,50.75,50.75,0,0,1,8.92-1.06,21.76,21.76,0,0,1,3.86.46c.65.12,1.3.25,1.94.41.28.08.57.15.85.24l.54.19.11,0a2.89,2.89,0,0,0,3.85-1A2.83,2.83,0,0,0,151.76,209.56Z"/><path class="cls-4" d="M393.21,109.47a4.21,4.21,0,0,0-.59-1.7,5.35,5.35,0,0,0-1.51-1.56,6,6,0,0,0-3.05-1,5.56,5.56,0,0,0-3.11.69,4.88,4.88,0,0,0-2,2.27,6.93,6.93,0,0,0-1.86,2.24c-.79,1.64-1,3.75.43,5.12a5.34,5.34,0,0,0,2.36,1.16,6.83,6.83,0,0,0,2.58.19,5.86,5.86,0,0,0,.75-.17,4.91,4.91,0,0,0,.77.1,4.27,4.27,0,0,0,2.36-.63,5.82,5.82,0,0,0,1.75-1.71,7.07,7.07,0,0,0,1.24-3.73A5.24,5.24,0,0,0,393.21,109.47Z"/><path class="cls-5" d="M191.48,78.61c0-.13.08-.27.11-.41.12-.5.24-1,.39-1.48l.12-.21c.15-.15.29-.32.46-.46a2.81,2.81,0,0,0,.83-2,2.83,2.83,0,0,0-2.82-2.82l-.75.1a2.84,2.84,0,0,0-1.24.73,6.57,6.57,0,0,0-2.05,3.16c-.25.77-.39,1.58-.6,2.36a5.3,5.3,0,0,0-.09,3.08A4,4,0,0,0,187,82.46a6.71,6.71,0,0,0,2.25,1.21,2.89,2.89,0,0,0,2.17-.28,2.79,2.79,0,0,0,.06-4.78Z"/><path class="cls-5" d="M389.26,108.94a2.78,2.78,0,0,0-.72-1.24,2.85,2.85,0,0,0-2-.83,5,5,0,0,0-2.34.69,7,7,0,0,0-1,.74,3.11,3.11,0,0,0-.4.41,8.11,8.11,0,0,0-.73,1,6.75,6.75,0,0,0-.49,1.14,5.56,5.56,0,0,0-.2,1.21,4.33,4.33,0,0,0,.13,1.24,2.68,2.68,0,0,0,2.34,2,2.13,2.13,0,0,0,1.12,0l.68-.28a2.87,2.87,0,0,0,1-1l.28-.68a2.71,2.71,0,0,0,.09-.85,2.1,2.1,0,0,0,.58-.2,2.06,2.06,0,0,0,.91-.58,2.22,2.22,0,0,0,.58-.9,2.15,2.15,0,0,0,.24-1.09Z"/><path class="cls-5" d="M586.66,402.75c-8.46,2.39-16,6.92-23.46,11.4-1,.39-2.08.76-3.14,1.11a51.76,51.76,0,0,1-9.85,2.34,3.17,3.17,0,0,0-3.9-1.78,12.74,12.74,0,0,0-4.1,2,40.94,40.94,0,0,1-8.14-1.57,3.14,3.14,0,0,0-3.83,1.57c-6.37-7-13.24-13.89-20.67-19.37-9.57-7.07-21.14-11.94-32.28-16l-2.46-.86c-9.2-4.18-20-8.2-30.27-6.16-1.42-.08-2.85-.14-4.28-.15-4.51,0-4.51,7,0,7,1.17,0,2.34.06,3.51.12,4.59,1.72,9.4,2.19,14.13,3.39a119.66,119.66,0,0,1,15.45,4.94c5.56,2.24,10.63,5.49,15.86,8.37,4,2.18,8,4.15,11.84,6.58,1.35,1.53,2.65,3.1,4,4.65,3.34,3.88,7.32,7.06,10.65,10.92s6.4,7.38,10.54,10.32a54.1,54.1,0,0,1,6.14,5c1.19,1.46,2.39,2.92,3.56,4.41,1.39,1.79,2.88,3.51,4.29,5.28,1.75,3.08,3,6.44,5.4,9.09a3,3,0,0,0,1.54.93c2.48.91,5.81-.87,4.64-4-.1-.27-.21-.52-.32-.78a6.19,6.19,0,0,0,3.17-.32,9.07,9.07,0,0,0,3.24-2.19,3.65,3.65,0,0,0,1.59-.87c2.08-1.93,5.09-3.85,6.79-6.39a17.5,17.5,0,0,0,2.2-2.46,2.84,2.84,0,0,0,.31-2.84c1.28-1.61,2.56-3.21,3.88-4.78,4.44-5.27,9-10.46,13.24-15.89a3.59,3.59,0,0,0,.39-4.24,22.29,22.29,0,0,0,3.76-3A3.53,3.53,0,0,0,586.66,402.75Zm-14.77,16.08a3.43,3.43,0,0,0-.07-.56l1.19-.48Z"/><path class="cls-6" d="M490.35,493.68c-1.17-1.08-1.86-2.68-2.81-4s-2.08-2.74-3.07-4.13c-.5-.71-.75-1.49-1.3-2.18s-1-1.18-1.57-1.74c-1.21-1.22-2.5-2.36-3.61-3.68s-1.94-2.65-3.08-3.83c-.59-.62-1.26-1.16-1.88-1.75s-1-1.19-1.55-1.8a8.48,8.48,0,0,0-1.83-1.31,4.91,4.91,0,0,1-1-1.06h0a2.56,2.56,0,0,0-2.5-2.5c1,.12.58.15.19-.13s-.62-.52-.93-.78a19.75,19.75,0,0,0-3.13-1.95c-2.25-1.21-4.51-2.26-6.85-3.28a51.09,51.09,0,0,0-6.86-2.69,44.55,44.55,0,0,0-7.91-1.68,60.17,60.17,0,0,0-7.33-.69,26,26,0,0,1-3.41-.26c-1.29-.15-2.59-.1-3.89-.23a55.54,55.54,0,0,0-8.16-.19c-2.57.12-5.09.63-7.64,1a32.14,32.14,0,0,0-7.16,1.81,74.45,74.45,0,0,0-7.08,2.81c-2.31,1.16-4.59,2.37-6.87,3.58a27.72,27.72,0,0,0-2.93,1.72c-1,.71-1.85,1.61-2.82,2.36-2,1.48-3.9,2.91-5.78,4.48s-3.67,2.7-5.32,4.34a53.29,53.29,0,0,0-4.85,4.89,54.52,54.52,0,0,0-4.63,6.22c-1.27,2.21-3,4.05-4.12,6.36-1.25,2.52-2.85,4.86-3.51,7.63-.32,1.34-1.13,2.32-1.29,3.73a19.43,19.43,0,0,1-.62,3.27,11.28,11.28,0,0,0-.45,1.8c-.08.66,0,1.34,0,2-.06.42-.29,1.2-.34,1.72a5.08,5.08,0,0,1-.25,1.65,2.51,2.51,0,0,0,1.75,3.07,2.56,2.56,0,0,0,3.08-1.74,17,17,0,0,0,.5-3.09c.24-1.07.09-2.17.3-3.22s.44-2,.65-3c.11-.56.28-1.09.35-1.67,0-.12,0-.3,0-.46.05,0,.23-.31.31-.45a11.92,11.92,0,0,0,1.05-3.15,16.84,16.84,0,0,1,1.65-3.42,40.75,40.75,0,0,1,3.33-5.73c1.39-1.75,2.46-3.67,3.84-5.42a36.74,36.74,0,0,1,4.56-5.39,55.75,55.75,0,0,1,4.8-4.31c2-1.36,3.69-3,5.59-4.5.91-.71,1.91-1.29,2.81-2s1.57-1.45,2.48-2c2-1.29,4.2-2.32,6.31-3.43a42.77,42.77,0,0,1,6.43-2.93c1.09-.36,2.14-.81,3.22-1.19s2.32-.61,3.48-.91a53.68,53.68,0,0,1,14.74-1.42c2.49.09,5.07.28,7.55.58a24.85,24.85,0,0,0,3.23.11,23.62,23.62,0,0,1,3.55.37,66.25,66.25,0,0,1,8.15,1.46c1.3.36,2.65.68,3.92,1.14s2.25,1.06,3.39,1.56c2.43,1,4.76,2.18,7.08,3.44a2.17,2.17,0,0,0,1.2,1.89,9.46,9.46,0,0,1,3.62,2.37,10.33,10.33,0,0,0,1.57,1.53,7,7,0,0,1,1.33,1c1.15,1.35,2.49,2.46,3.68,3.77s2,2.6,3.06,3.84,2.34,2.33,3.49,3.51,1.7,2.51,2.71,3.76,1.9,2.54,2.82,3.83,1.75,3.05,3.06,4.26C489.17,499.39,492.72,495.87,490.35,493.68Z"/></g></svg>