<svg id="Layer_1" data-name="Layer 1" xmlns="http://www.w3.org/2000/svg" xmlns:xlink="http://www.w3.org/1999/xlink" viewBox="0 0 650 563.3"><defs><style>.cls-1{fill:none;}.cls-2{fill:#f5f5f5;}.cls-3{clip-path:url(#clip-path);}.cls-4{fill:#444;}.cls-5{fill:#fff;}.cls-6{fill:#bbb;}.cls-7{fill:#ddd;}.cls-8{fill:#999;}.cls-9{fill:#fb0;}</style><clipPath id="clip-path"><path class="cls-1" d="M632.25,309.65a129.22,129.22,0,0,0-32.06-66.12c-8.65-9.53-18.55-18.15-30-24.21a142.75,142.75,0,0,0-34.73-12.45c-27.12-6.28-55.75-5.46-83.34-8.52-28.69-3.17-56.26-10.88-83.44-20.39-52.92-18.53-105.64-41.22-162.2-45.66-14.13-1.11-28.48-.54-42.6.46-13.86,1-26.74,2.59-39.87,7.4-12.4,4.55-24.8,9.34-36.08,16.32-10.6,6.56-20,15.09-28.41,24.3-34.55,38-52.68,92-51.34,143,.7,27.05,8.32,53.3,20,77.64,5.48,11.48,11,23.29,18.75,33.46a149.89,149.89,0,0,0,17.79,19.47,2.39,2.39,0,0,0,1,2.34c3.93,3.18,8.63,5.42,11.36,9.83a86.25,86.25,0,0,0,7.85,11.36c2.86,3.37,4.66,6.08,9.34,7,5.21,1,11.06-.35,16.15-1.4a4.2,4.2,0,0,0,.78-.28c14.35-1,28.72-1.65,43.06-2.72l.76-.06c11.36.22,22.73.54,34,1.09,17.36.84,34.72,1.24,52.09,1.47,17.62.24,35.24,1.29,52.87,1.59,35.17.58,70.28.58,105.44-.55,17.09-.55,34.09-.12,51.18.21,13.52.27,27.06-.23,40.59-.5,12.07.07,24.14,0,36.19-.49,10.47-.15,20.94-.23,31.43.05,2.93.08,17.28,1.25,25.69-1.25,4.78,2.46,9.23-6,11.55-8.92a150.37,150.37,0,0,0,17.64-27.87,193.39,193.39,0,0,0,11.54-30.38c3.26-11.19,6.39-22.72,7.89-34.29a2.3,2.3,0,0,0-1.06-2.43,269.31,269.31,0,0,0,2.25-29.43A189.59,189.59,0,0,0,632.25,309.65Z"/></clipPath></defs><title>truck-insurance</title><path class="cls-2" d="M632.25,309.65a129.22,129.22,0,0,0-32.06-66.12c-8.65-9.53-18.55-18.15-30-24.21a142.75,142.75,0,0,0-34.73-12.45c-27.12-6.28-55.75-5.46-83.34-8.52-28.69-3.17-56.26-10.88-83.44-20.39-52.92-18.53-105.64-41.22-162.2-45.66-14.13-1.11-28.48-.54-42.6.46-13.86,1-26.74,2.59-39.87,7.4-12.4,4.55-24.8,9.34-36.08,16.32-10.6,6.56-20,15.09-28.41,24.3-34.55,38-52.68,92-51.34,143,.7,27.05,8.32,53.3,20,77.64,5.48,11.48,11,23.29,18.75,33.46a149.89,149.89,0,0,0,17.79,19.47,2.39,2.39,0,0,0,1,2.34c3.93,3.18,8.63,5.42,11.36,9.83a86.25,86.25,0,0,0,7.85,11.36c2.86,3.37,4.66,6.08,9.34,7,5.21,1,11.06-.35,16.15-1.4a4.2,4.2,0,0,0,.78-.28c14.35-1,28.72-1.65,43.06-2.72l.76-.06c11.36.22,22.73.54,34,1.09,17.36.84,34.72,1.24,52.09,1.47,17.62.24,35.24,1.29,52.87,1.59,35.17.58,70.28.58,105.44-.55,17.09-.55,34.09-.12,51.18.21,13.52.27,27.06-.23,40.59-.5,12.07.07,24.14,0,36.19-.49,10.47-.15,20.94-.23,31.43.05,2.93.08,17.28,1.25,25.69-1.25,4.78,2.46,9.23-6,11.55-8.92a150.37,150.37,0,0,0,17.64-27.87,193.39,193.39,0,0,0,11.54-30.38c3.26-11.19,6.39-22.72,7.89-34.29a2.3,2.3,0,0,0-1.06-2.43,269.31,269.31,0,0,0,2.25-29.43A189.59,189.59,0,0,0,632.25,309.65Z"/><g class="cls-3"><path class="cls-4" d="M784.74,477.54c-.35,1.06-4.94-.41-5.63-.51a29.55,29.55,0,0,0-7.27.35c-5.19.56-10.4,1.05-15.6,1.46s-10.1.78-15.13,1.51c-5.41.79-10.83.43-16.27.37s-11.07.45-16.53-.41c-2.2-.34-4.32-1-6.53-1.31a33,33,0,0,0-7.09.17,54.06,54.06,0,0,0-6.09.85c-2.75.55-5.48.18-8.26.13-5.51-.11-11-.1-16.53-.22-2.51-.05-5-.23-7.56-.16s-5,.71-7.54.88c-2.21.15-4.41-.25-6.62-.16-2.7.1-5,.84-7.78.51a143.22,143.22,0,0,0-15.22-.74c-5.27-.07-10.57.73-15.8.53-2.44-.1-4.83-.73-7.27-.85-2.69-.13-5.41-.05-8.11-.08l-15.91-.2c-11.3-.13-22.6-.19-33.9-.36-10.66-.17-21.21-1.28-31.88-1.4-5.56,0-11.16.22-16.72-.16-2.35-.17-4.66-.62-7-.91-2.9-.34-5.75-.09-8.65-.16-5.23-.12-10.43-1-15.67-1.16-5.52-.19-11,.37-16.53.57-11,.39-22.08.44-33.09.56s-22.08-.76-33.1-.15c-10.73.59-21.45.55-32.19.73-22.23.38-44.46.4-66.69.77-11.08.19-22.15.06-33.22.16-11.32.1-22.58.57-33.9.4-10.68-.17-21.33,0-32-1.07a159.52,159.52,0,0,0-31.36.17,117.09,117.09,0,0,1-13.76.83,1.81,1.81,0,0,0-1.81,1.24,61.12,61.12,0,0,1-6.9.25,59.72,59.72,0,0,1-8.85-1.14c-.11,1.28-.24,2.56-.38,3.84l1.42.21c2.2.34,4.35.82,6.57,1,4.2.29,8.4-.28,12.58-.49a1.91,1.91,0,0,0,1.64-1c8.56-.29,17-1.58,25.64-1.36,5.45.15,10.9,0,16.32.54,5.25.57,10.43.69,15.72.75,22.52.24,45,.1,67.54-.13,22.69-.22,45.38-.39,68.08-.79,11.31-.19,22.63-.36,33.95-.43,5.26,0,10.5-.56,15.75-.7,5.63-.14,11.28.1,16.91.23,11.21.25,22.37-.35,33.57-.44,5.54,0,11,0,16.57-.27a120.09,120.09,0,0,1,16.86,0c5.34.44,10.57.62,15.92.77s10.86,1.27,16.4,1.3,11.13,0,16.69.09c5.34.06,10.58,1,15.9,1.12,22.29.61,44.6.15,66.88.81,2.48.08,4.88.68,7.34.84,2.86.19,5.71-.33,8.56-.5,5.11-.3,10.36-.08,15.47.12,2.53.1,5,.31,7.55.61,2.7.33,4.82-.28,7.49-.47,2.3-.17,4.6.26,6.91.12,2.53-.15,5-.79,7.54-.88,5.67-.19,11.43.22,17.1.29,4.75.06,9.89.81,14.6.17,5.19-.71,10.28-2.05,15.53-.89a63.17,63.17,0,0,0,14.77,1.44c5.4-.06,10.81.19,16.21.1s10.44-1.15,15.69-1.58c5.45-.44,10.9-1,16.35-1.43,2.36-.2,4.71-.41,7-.68a28.84,28.84,0,0,1,8.84.53c2.9.51,5.17,0,6.19-3C789.33,476.23,785.54,475.14,784.74,477.54Z"/><path class="cls-5" d="M236.15,274c-.17-.63-.34-1.26-.5-1.9a3.14,3.14,0,0,0-.55-2.22,54.17,54.17,0,0,0-3-9.55c-.92-2-2.13-5.6-3.61-7.26-2.11-2.36-6.13-2.28-9-2.3a66.31,66.31,0,0,1-14.19-1.26c-4.63-1-9.56-.41-14.25-.44-5.72,0-11.44-.15-17.16-.17-11.17,0-22.37-2-33.59-1-7.79.72-18.76,2.63-25.08,7.66a23.33,23.33,0,0,0-6.68,8.61,28,28,0,0,0-4.54,8.12,16.46,16.46,0,0,1-1.32,2.66c-.56,1.05-1,2.17-1.5,3.26-.91,2.15-1.73,4.34-2.73,6.45a2.3,2.3,0,0,0-.24,1c-3,4.65-6.12,9.24-8,14.47-4,11.16-5.64,23.32-7.92,34.93,0,.1,0,.2,0,.3a49.16,49.16,0,0,0-3.84,12.21c-1,6.43-1,13.23-1.47,19.73a193.75,193.75,0,0,0,1.64,41c-1,2.31,0,5.44,3.36,5.48h.44a4.22,4.22,0,0,0,1.22-.18c3.6-.45,7.64-1.24,10.56,1.11s1.72,5.71,3.83,8.57c2.89,3.92,8.52,3.9,12.91,3.69,8-.4,16.71-.82,24.09-3.88a5.72,5.72,0,0,0,.54,1.48,2,2,0,0,0,2.21.93,2.34,2.34,0,0,0,.88-.5,1.94,1.94,0,0,0,.59-1.38c0-.06,0-.12,0-.18a7.81,7.81,0,0,1,.26-.82,7.73,7.73,0,0,0,.23-.92,3.62,3.62,0,0,0,.4-1.2,1,1,0,0,1,0-.17,24.72,24.72,0,0,0,5.92-5.58c4.34-5.72,6.63-12.48,13.71-14.64a1.17,1.17,0,0,1,.75-1c10.28-4.69,20.8-2.27,31.37-.7,7.68-.23,15.48-.35,23-1.77a6.87,6.87,0,0,0,1.64.6,14.78,14.78,0,0,0,3.7,0,4.92,4.92,0,0,0,2.34-.67,6.18,6.18,0,0,0,1.52-1.41,5.36,5.36,0,0,0,.34-.49,9.88,9.88,0,0,0,5.29-3.84.89.89,0,0,1-.07-.34c0-5.7.15-11.4.45-17.09.9-17,2.91-33.94,4.31-50.91,0-3,0-6,0-9.08.15-11.77-.51-23.82.57-35.6A3.5,3.5,0,0,0,236.15,274Z"/><path class="cls-6" d="M99.75,410.61a24,24,0,0,1-.09-4.24c0-2.91-.29-5.9-.47-8.81s-.69-5.74-.63-8.65-.24-5.91-.41-8.85-.53-5.88-.84-8.8c-.28-2.63,0-5.46-.74-8a2.08,2.08,0,0,0-.4-.77c-.2-2.44-.39-5-1.51-7.18a1.24,1.24,0,0,0-.22-.28,51.88,51.88,0,0,1-.31-5.58c0-2.53-3.92-2.59-3.94-.05a75.75,75.75,0,0,0,1.44,13.51c0,.37.07.74.09,1.1.13,2.21-.21,4.37-.22,6.57a13.88,13.88,0,0,0,.38,3.21,14.8,14.8,0,0,1,.18,3.05c.11,2.47.48,4.89.47,7.38,0,5.12-.21,10.23-.21,15.35,0,2.45-.11,4.88-.34,7.33a9.89,9.89,0,0,1-2.38,5,2.42,2.42,0,0,0-.51,1.24,1.81,1.81,0,0,0,.87,2c1.72,1,3.83.76,5.72.66s3.7-.43,4.22-2.48A6.45,6.45,0,0,0,99.75,410.61Z"/><path class="cls-7" d="M529.4,419.71a9.49,9.49,0,0,0-4.07.94c-1.59,0-3.19.21-4.77.32-3.53.26-7,.55-10.57.8a2,2,0,0,0-1.2.5c-16.87-.1-33.68-.95-50.59-1.13-20.34-.22-40.69.92-61,.13-9.78-.39-19.51-1.42-29.28-1.87-9.51-.45-19.06-.18-28.58-.47-16.25-.51-32.55-.17-48.84.19-2.37-1.39-6.13-.89-8.68-.7a61.33,61.33,0,0,1-6.36,0,13.65,13.65,0,0,0-4.94.28l-.25.11c-1.55-.18-3.46-.47-4.44,1s-.67,4.18-.58,5.83c.1,2.22.42,4.43.56,6.65.2,3.22-.32,7.34,4,7.78s8.52.28,12.75.57c4.45.31,8.89.38,13.34.42,9.3.08,18.58.19,27.87.05,4.57-.08,9.09.4,13.66.46s8.93-.21,13.39-.37,9.09,0,13.63,0,8.9.62,13.34,1l8.28.68a12.79,12.79,0,0,0-.36,2.6,14,14,0,0,0,.15,2.89c0,.07,0,.13,0,.19a12.92,12.92,0,0,0-.22,1.5,6.52,6.52,0,0,0,1.42,4.84,3.59,3.59,0,0,0,3.24,1.06,8.63,8.63,0,0,0,2.28-.86,1.49,1.49,0,0,0,.45-.34,29.44,29.44,0,0,0,3.74.38c2.84.14,5.68.39,8.52.61a71.49,71.49,0,0,0,8.15-.07c2.83-.09,5.64,0,8.47-.09,5.72-.26,11.47-.19,17.18-.66l4.35-.34,6.28.54c2.22.2,4.44.41,6.65.65,1.06.12,2.13.2,3.17.39s2,.62,3.06.75a2,2,0,0,0,1.92-1.43c.26-1.61-.16-3.14-.2-4.75a1.88,1.88,0,0,0,.36-1.1l.09-6.84c10-.62,19.93-1.29,29.9-1.87a2,2,0,0,0,1.13-.41c1.22-.15,2.45-.29,3.69-.4.34,1.94,2.53,3,4.32,3.36,2.55.53,5.19-1.36,6.9-3.08,2.07-2.07,3.55-4.61,5.46-6.81a23.33,23.33,0,0,1,3.17-3.34c1.16-.91,2-1.47,2.08-3.09,0,0,0-.05,0-.08.67-.42,1.35-.83,2.07-1.19s1.77-.83,2.68-1.21c1.89-.08,3.74-.42,4.91-2C532,421.42,530.75,419.79,529.4,419.71Z"/><path class="cls-8" d="M534.07,419.37a2,2,0,0,0-1.17-.92l-.52-.08a2,2,0,0,0-1,.26l-.09,0,.48-.2c-1.48.59-3,1-4.5,1.56-.71.05-1.41.13-2.12.19a2,2,0,0,0-2.8-1.13,21.34,21.34,0,0,1-5.08,1.12c-1.47.23-3.1.75-3.56,2.34a.17.17,0,0,0,0,.07,1.6,1.6,0,0,0-.43.55c-.49,1-1.13,1.88-1.6,2.87s-.88,2.19-1.34,3.27c-.67,1.2-1.37,2.38-2.07,3.54a18.94,18.94,0,0,1-1.37,2l-.67.5a7.77,7.77,0,0,1-4.74,1.77c-2,.08-3.84.25-5.79.46s-3.84.12-5.75.3c-2.33.22-4.65.4-7,.52-8.78.42-17.57.06-26.35.19s-17.8,0-26.69.06c-4.53,0-9.06.27-13.59.23s-8.79-.18-13.19-.17a33.94,33.94,0,0,1-6-.41,54.21,54.21,0,0,0-6.62-.27c-2-.09-4-.42-6-.36-2.21.07-4.34.4-6.57.31a40.52,40.52,0,0,0-5.83,0,50.19,50.19,0,0,1-6.13.25c-4.51-.13-9-.27-13.53-.49-8.82-.43-17.67-.39-26.5-.51-4.86-.07-9.75,0-14.6-.23s-9.77-1-14.68-1.34a91.56,91.56,0,0,1-13.63-1.42,11.59,11.59,0,0,0-4.14-1.48l-.17-.07a22.06,22.06,0,0,1-7.08-4.5,17,17,0,0,1-3-4.61,1.87,1.87,0,0,0-.45-1.05c-.15-.38-.31-.76-.45-1.14-.85-2.36-4.67-1.39-3.81,1,.24.68.5,1.34.78,2a34.19,34.19,0,0,0,.21,4.75,1.41,1.41,0,0,1,0,.2,15,15,0,0,0,.58,4.12c0,.05.05.09.07.15l.42,2.29c.56,3,3.62,4.16,6.43,4.21,4.33.09,8.61.55,12.95.47,2.24,0,4.48-.12,6.72-.18,1.37.18,2.74.32,4.13.42a1.67,1.67,0,0,0,1.23-.42c.53,0,1,0,1.58,0a2.08,2.08,0,0,0,1.12-.38c5.81.51,11.63,1,17.46,1.05l27,.36c4.52.06,9,.35,13.55.54a90.84,90.84,0,0,0,13.3,0,38.7,38.7,0,0,1,6.09,0,40.68,40.68,0,0,0,4.83-.16c.92,1.52,1.28,3.35,2.25,4.79-.13,3.65-.18,7.61,4.06,8.83,2.37.68,5.14.47,7.59.7l.64.05c1.3.37,2.61.61,4,1a1.9,1.9,0,0,0,2-.69c1.15,0,2.29,0,3.45,0,6.73-.08,13.45-.46,20.18-.5s13.36.1,20,.19c3.23,0,6.5-.06,9.73.16,2,.13,4.69.62,6.42-.62a2.1,2.1,0,0,0,.93-2.21c-.2-1.36,0-2.75-.24-4.12-.13-.92-.28-1.84-.42-2.77a5.44,5.44,0,0,1,.87-.06c3-.07,5.87-.07,8.82-.33,3.13-.27,6.25-.54,9.38-.76,6-.4,12.12-.69,18.1-1.69,1.39-.24,2.74-.56,4.12-.83a27.54,27.54,0,0,0,3.5-.61c2.2-.72,3.39-2.9,4.68-4.68l.09-.13c1.63-1.47,3.2-3.05,4.86-4.55l3.46-3.18a28.47,28.47,0,0,1,3.3-3.11c1-.68,2.17-.79,2.92-1.93a2.85,2.85,0,0,0,.31-.6,1.1,1.1,0,0,0,.4-.08c1.78-.7,3.63-1.19,5.41-1.91a2,2,0,0,0,.74-2.69Zm-73.64,24.15a1.87,1.87,0,0,0-1.45,1.81c0,.19,0,.36,0,.54a9.87,9.87,0,0,0-.29,1.32,15.24,15.24,0,0,0-.11,1.65,13.45,13.45,0,0,1-.42,1.38,8.56,8.56,0,0,0-.52,2.2l-1.15-.14c-2.59-.16-5.2-.09-7.8-.13-5.91-.07-11.83-.18-17.75-.21-6.07,0-12.12.18-18.18.36-4.19.13-8.33.12-12.48-.05a27.81,27.81,0,0,1-6.27-4.14,24.75,24.75,0,0,1-3.17-3.54,7.3,7.3,0,0,1-1-2.68l.39,0a63.38,63.38,0,0,1,6.47.24c4.34.7,8.75.39,13.13.49,4.54.1,9.06.13,13.59,0,13.15-.32,26.31-.08,39.46-.07A4.65,4.65,0,0,0,460.43,443.52Z"/><path class="cls-2" d="M796.91,168.24a3.15,3.15,0,0,0-2.79-3.51c-7.85-1.36-15.9-.6-23.82-.4-8.82.22-17.72-.28-26.55-.39-18.13-.24-36.23-1.37-54.35-1.65-18.67-.28-37.33-.78-56-1.14-9.13-.17-18.26-.17-27.39-.08-7.32.07-16.44-1.28-23.49,1.27a3.41,3.41,0,0,0-3.47-2.31c-13.26.26-26.47.55-39.69.73a3.8,3.8,0,0,0-.83-.71c-3.42-2.18-8.63-1-12.45-.83-6.06.35-12.1.55-18.17.72l-1.37,0c-.39-.07-.79-.12-1.19-.2-6.44-1.22-13-.77-19.58-.12-4.77-.2-9.55-.45-14.36-.67-5.27-.25-10.61-.16-15.85-.81-5.55-.7-10.89-2.37-16.49-2.61-5.13-.22-10.17.64-15.28.7s-9.24.15-14.25,1.72a4,4,0,0,0-1.79,1.15c-18.51-.53-37-1.28-55.48-2.46-11.92-.76-23.72-1.08-35.67-.9-6.38.1-12.68.69-19.06.35-5.46-.3-11.33-2-16.75-1.41a4.36,4.36,0,0,0-3.23,2.15c-3.62.11-7.24.25-10.87.48a4.17,4.17,0,0,0-1.42.35h0c0-5.07-7.9-5.19-7.89-.1,0,6.71-3.44,14.88,2.42,19.76,4.74,4,5.39,5.28,6.09,11.72L267,199.32c1.08,9.73-.39,19-.4,28.64,0,9.13.12,18.37.46,27.52a3.75,3.75,0,0,0-.73,2.38c0,2.8.15,5.62.28,8.45.1,8-.25,16-.6,24.08-.18,4-.56,8.07-.72,12.11a3.88,3.88,0,0,0-.75,1.61,52.68,52.68,0,0,0-1.15,10.69c0,3.15-.42,6.14,0,9.27a3.17,3.17,0,0,0,1.46,2.42c-.24,2.51-.43,5-.49,7.55-.26,12.62-.55,25.33-.4,37.94.09,6.57.48,13,0,19.61-.41,5.75.76,11.89-.34,17.54a3.92,3.92,0,0,0,.09,2c-1,2.43-.09,5.55,3.31,5.32l.3,0a4.34,4.34,0,0,0,.75-.13v0l.1,0,.2-.07a15,15,0,0,1,3.8-.82,1.81,1.81,0,0,0,1.85,1.6,46.31,46.31,0,0,1,7.81.29,50.1,50.1,0,0,0,8.26,1.26,1.87,1.87,0,0,0,1.92-2.08c4.71.21,9.42.45,14.12.75,13.58.86,27.25,1.69,40.87,2,14.62.32,29.1-1.12,43.72-.52,13.7.57,27.12-.47,40.78-1.05l.76,0a27.71,27.71,0,0,0,10.46,2.84c3.91.17,7.51,1,11.13-.82a4.32,4.32,0,0,0,.42-.27,2.37,2.37,0,0,0,1.61.87,71.41,71.41,0,0,0,11,.34c3.87,0,7.72.12,11.58.18a186.14,186.14,0,0,0,22.52-1.28,2,2,0,0,0,1.67-1.19c3.91-.16,7.82-.37,11.72-.66,14.45-1.07,28.75-.56,43.19-1.13a319.18,319.18,0,0,1,38.63.61c15,1.21,30.16.32,45.25,1.35,15.52,1.06,31.2-.78,46.76-.18a3,3,0,0,0,.45.15A82.92,82.92,0,0,0,705.91,420c5.37,0,10.84-.24,16.2-.57a2,2,0,0,0,1.92-2.14c3.14.12,6.28.22,9.43.23,10.36,0,21.3.56,31.86-.24q3.33.11,6.66.24a4.43,4.43,0,0,0,.64.42c4.46,2.32,8.76,5.33,12.65.51,3.62-4.48,3-11.74,2.78-17.11-.75-16.2.5-32.89,1.63-49.07,1.2-17.07.71-34.25,1.41-51.35.63-15.31,4.5-33.21-.38-48.14l0-.09c0-.91,0-1.81,0-2.72a4.06,4.06,0,0,0,.32-1.45c.35-10.7,1.89-21.08,2.89-31.71.56-5.86,3.28-16-1.43-20.72a18.78,18.78,0,0,1,1.42-6.34c1.24-2.74,3.58-4.92,4-8,.28-2.14.2-4.26.51-6.45C798.81,172.42,798.58,169.8,796.91,168.24Z"/><path class="cls-8" d="M794.28,187.57c-3.58-.13-7.26-.64-10.83-1-4.2-.45-8.42-.8-12.64-1.09-2.89-.2-5.79-.36-8.68-.51-9.63-.84-19.25-1.63-28.91-2.25-2.82-.19-5.64-.34-8.47-.5a19.38,19.38,0,0,0-3.14-.33c-2.8-.21-5.57-.33-8.36-.29-9.89-.5-19.78-.95-29.67-1.48-8.09-.43-16.17-.82-24.28-.73-6.07.06-12.13.31-18.2.38l-1.3-.07c-7.77-.38-15.54-.71-23.31-.93-1.56-.1-3.12-.2-4.68-.28-8.25-.41-16.49-.82-24.75-1-9.15-.17-18.29.14-27.43.6-5.08.26-10.15.43-15.21.55a2,2,0,0,0-2.31-1.39c-3.33.55-6.65,1.24-10,1.63a2.09,2.09,0,0,0-1.41.76c-2.54.05-5.08.13-7.62.22a2.32,2.32,0,0,0-1.84.07c-2.46.1-4.92.21-7.38.35-2.93.18-5.85.48-8.77.78-6-.33-12-.7-18.06-1.19l-5.81-.5c1.26-1.1.92-3.63-1.12-3.44-6.28.57-12.55,1.24-18.82,1.81-8.32-.6-16.64-1-25-1-17.23,0-34.36.88-51.54,2.09-5.61.4-11.23.48-16.84.65l-4.73-.33c-8.75-.68-17.48-1.37-26.26-1.49-4.35-.05-8.69,0-13,.07-2.36,0-4.72-.05-7.06.14a271.45,271.45,0,0,0-47.2-1,2,2,0,0,0-1.16.44l-1.12,0c-2.53,0-2.59,3.88-.05,3.94,9.38.2,18.69,1.38,28.06,1.69,8,.26,15.93.19,23.89.35l3.83.29q4.53.33,9.06.57l.05.09c.27.38.5.76.73,1.15a9.68,9.68,0,0,1,.7,2.35c.34,2.68.34,5.43.58,8.12.15,1.66.27,3.32.38,5-.4,3.93-.59,7.89-.78,11.83-.25,5.29-.6,10.53-.61,15.82a78.52,78.52,0,0,1-.42,8.11,20.05,20.05,0,0,0,.34,7.68c.37,1.31,2.29,2.1,3.29.91s1-2.86,1-4.5c-.07-3,.05-6,.22-9,.31-5.76.73-11.52,1-17.28a116.79,116.79,0,0,0-.11-13.88c.22-1.83.54-3.64.69-5.48,0-.43,0-.85,0-1.27l.09-.05.08,0,.14,0,.39-.1a4,4,0,0,0,1.16.75c0,.22.06.44.1.66,0,.05.07.31.1.4a2.44,2.44,0,0,0-.11.31c-.39,1.65.4,3.4,2.29,3.41a2.75,2.75,0,0,0,2.49-2.18,14.54,14.54,0,0,0,.39-4.26,18.68,18.68,0,0,1,.51-4.38c.17-.73.33-1.47.52-2.19a2.41,2.41,0,0,1,.16-.54c-.1.19.21-.23.08-.08.17-.19.6-.69.84-1,0,0,0-.05,0-.06l.56,0a1.85,1.85,0,0,0,1.46.72c2.11.07,3.54,2.69,3.83,4.52a46.07,46.07,0,0,1,.14,8.47c-.16,6-.15,12,0,17.95.06,3.13-.11,6.25-.06,9.37,0,2.94.21,5.88.23,8.83,0,4.74.29,9.5.49,14.26,0,.6,0,1.2.07,1.8s.05,1.25.07,1.87c.1,3.53.29,7.05.44,10.57.1,2.2-.17,4.66.07,7,0,2.44-.09,4.89-.26,7.34-.14,1.95-.49,3.88-.51,5.83,0,1-.07,2-.08,3,0,.78.37,1.65.34,2.36,0,2.54,3.84,2.58,3.94.05,0-.16,0-.33,0-.5a1.85,1.85,0,0,0-.32-1.11l0-.15a10.92,10.92,0,0,1,.06-2.06c0-1.68.16-3.26.36-4.93.27-2.2.39-4.44.44-6.68.05-.07.11-.12.15-.19a11.11,11.11,0,0,0,1.11-7.06c-.32-2.68-.51-5.39-.91-8.07.2-3.15.19-6.29.33-9.44.16-3.33.47-6.6.49-9.94s.06-7,.1-10.42c.09-7.07.62-14.13.6-21.19,0-3.79-.11-7.58-.22-11.37,0-.93.07-1.86.08-2.79,0-1.61-.14-3.24-.05-4.85a5.76,5.76,0,0,1,.06-1.72c.21-.43.81-.81,1.08-1.26a1.91,1.91,0,0,0,.23-.79c5.22.27,10.45.5,15.65.36,9.49.57,19,1,28.48,1.21,15.63.33,31.27.3,46.9.51,7.6.1,15.15.27,22.74.63,7.78.38,15.55,0,23.33-.22,1.69-.05,3.39-.07,5.08-.07.31,0,.61,0,.91,0l3.63,0a5.67,5.67,0,0,0,2.08,1.87c.1.06.23.11.36.17a6.79,6.79,0,0,1,.52,2.12c0,.05,0,.11,0,.17a8,8,0,0,0,.06,1.89,2.66,2.66,0,0,0,0,.28,7.24,7.24,0,0,0-.05,1.23,4.06,4.06,0,0,0,.2,1c0,.34,0,.68,0,1a43.91,43.91,0,0,0-.06,6.88,9.24,9.24,0,0,1,.16,3.1,5.26,5.26,0,0,0,.31,3.39,2,2,0,0,0,2.69.74,2,2,0,0,0,.74-2.68,5.25,5.25,0,0,1,.14-.73,8.1,8.1,0,0,0,.17-1.9c-.06-1.12-.36-2.21-.39-3.33,0-1.61.11-3.21.18-4.81a4.69,4.69,0,0,0,1-2.77,13.59,13.59,0,0,0,.46-2.56,3.26,3.26,0,0,1,.76-2.2,1.93,1.93,0,0,1,.8-.61c.21-.05.22-.08,0-.1a4.08,4.08,0,0,0,.6.16,1.83,1.83,0,0,0,1.07,0,40.74,40.74,0,0,1,1.51,6.46,115.07,115.07,0,0,1,.9,14.72c-.06.94-.12,1.88-.19,2.82-.53,7.31-.37,14.63-.43,22a119,119,0,0,1-1.61,12.13c-.47,2.7-1,5.38-1.25,8.11s-.19,5.37-.34,8.07-.44,5.7-.5,8.57-.55,5.63-.59,8.46c-.07,5.77.46,11.55.37,17.34s-.28,11.5-.34,17.26c-.06,5.26-.09,10.52.08,15.77,0,.3,0,.59-.07.88-.32,3-.3,6-.34,9,0,1.41,0,2.83-.07,4.25a10.53,10.53,0,0,0,.13,3.67,2,2,0,0,0,2.4,1.41c3.11-1.26,2.29-5.59,2.51-8.31s-.49-5.68-.49-8.53c0-1,0-2.05-.09-3.07.33-4.65.28-9.32.55-14,.67-11.46.36-22.95,1-34.42s1.29-23,2.19-34.4c.33-4.21.42-8.43.44-12.65.14-2.38,0-4.74.06-7.13.08-2.85.52-5.66.56-8.51,0-3,0-6.06,0-9.09a51.41,51.41,0,0,0,0-6.08c-.1-1.69-.33-3.34-.5-5a1.73,1.73,0,0,0,1-1.2c.52-2.79,1.14-5.55,1.9-8.28.26-.91.55-1.82.81-2.73l1,0c6.89.25,13.78.55,20.68.55,8.52,0,17-.2,25.56-.22l6.59,0c2.58.13,5.15.25,7.74.34,15.57.5,31.26-.06,46.78,1.41,15.14,1.44,30.24,3.24,45.35,4.88a180.58,180.58,0,0,0,25.35.72c0,.06.1.1.15.17s.25.41.27.47l.09.17.1.3a13.85,13.85,0,0,1,.45,4.3c0,1.67-.07,3.33.07,5a13.21,13.21,0,0,1,.08,2.18,5.58,5.58,0,0,0,.18,2.19,2,2,0,0,0,1.89,1.47c4.07,0,2.93-6.42,2.79-8.83a20.9,20.9,0,0,1,.12-4.81h0c.59-.74.91-1.56,1.44-2.33a3.31,3.31,0,0,1,.25-.3,3.59,3.59,0,0,0,.75,1.67,8.1,8.1,0,0,0,1.07,1l.19.21c.14.2.27.41.41.6a3.92,3.92,0,0,0,2.13,1.67l.21,0c-.13,1.07-.25,2.15-.31,3.24a15.14,15.14,0,0,0-.07,1.78,1.89,1.89,0,0,0,1.17,1.75c-.38,3.26-.66,6.52-1.09,9.77-1.26,9.41-1.37,18.79-1.49,28.26,0,2.54,3.91,2.6,3.94.06a134,134,0,0,1,.88-15.13c.61-4.9.89-9.8,1.34-14.71a88.74,88.74,0,0,1,2.2-14.69,19.54,19.54,0,0,0,.56-2.8c.2-.39.38-.8.58-1.24a25.59,25.59,0,0,1,1.45-2.6l4.6-.25c14.54-.73,28.95-1.06,43.46-.6l.75,0c-2.28,2.4-2.85,6.39-.78,8.87,2.86,17.12,1.36,35.7.07,52.83-1.35,18-3.62,36-4.66,54-.49,8.32-.46,16.62-1.09,24.95-.67,8.77.94,17.14,1.26,25.85a251.29,251.29,0,0,1-.85,25.59c-.31,4.66-.45,9.31-.51,14,0,.9.17,2.54.31,4.3a2.3,2.3,0,0,0-1.18.85c0,.05-.09.09-.13.15a2.05,2.05,0,0,0-.7.68,4.39,4.39,0,0,1-.32.51,1.68,1.68,0,0,0-.23,1.51c-.75,1.13-1.64,2.18-2.3,3.34a12.08,12.08,0,0,0-.8,1.71,6.31,6.31,0,0,0-.38,1.2h0a9.23,9.23,0,0,1-1.39.65c-.9.28-2-.27-2.87-.32a18.14,18.14,0,0,0-3.82.31c-1.22.19-2.44.43-3.64.69-.33.07-.67.18-1,.29-1.68-.24-3.32,0-4.34,1.53a2,2,0,0,0,1.67,3,9.65,9.65,0,0,0,2.83-.51c.43.1.86.19,1.31.25a19.55,19.55,0,0,1,3,.31,10.53,10.53,0,0,0,3.1.46,36.68,36.68,0,0,0,6.26-.77,7.77,7.77,0,0,0,3.13-1.53,1.66,1.66,0,0,0,.81.21,7.47,7.47,0,0,0,1.45-.18c2.76,2.45,7.64,3,10.44-.93,4-5.48,1.94-15.59,2.08-22,.23-9.46,1.15-18.88,1.29-28.34.13-9-1.61-17.88-1.54-26.87.08-9.46,1-19,1.28-28.49.61-19.14,3.4-38.38,4.87-57.48,1.45-18.84,2.59-39-1-57.64a5.07,5.07,0,0,0-.4-1.15,7.47,7.47,0,0,0-.28-2c1,0,1.89.07,2.85.08A2,2,0,0,0,794.28,187.57ZM356,184l.9-.05a7.12,7.12,0,0,0,0,.92l0,.41A10.65,10.65,0,0,0,356,184Zm107.2-2.1c-1.37,0-2.74,0-4.11,0l2.29-.2c1.55.1,3.09.18,4.64.29Z"/><path class="cls-8" d="M598.19,454.37a43.3,43.3,0,0,0-4.75-23.11c-4.74-8.71-13.32-13.2-22.48-14.09l-.11-.05a3.89,3.89,0,0,0-1.05-.2,5.15,5.15,0,0,0-3.33.1,36.79,36.79,0,0,0-18.7,5.65,4,4,0,0,0-1.66,2c-8.58,3.49-14.21,10.89-17,19.56a19.79,19.79,0,0,0-4.25,10.62c-.3,5-.38,12.64,1.79,18.36a1.91,1.91,0,0,1,2.19.86,22.71,22.71,0,0,0,1.25,2l.18.24a4.71,4.71,0,0,0,.33.42q.36.45.75.87c.27.29.55.58.85.85.14.13.29.27.44.39l.15.13c.32.23.64.46,1,.67,18.08,2,36.31,1.5,54.5,1.26a25.57,25.57,0,0,0,1.8-2.24C596,472.5,598.86,463.19,598.19,454.37Z"/><path class="cls-7" d="M572,439.9a4.09,4.09,0,0,0-1-.39,13,13,0,0,0-3.37-2c-7.29-2.85-15.47,0-20.22,5.9a12.1,12.1,0,0,0-2.29,4.38c-2.76,4.07-3.32,7.41-.91,13.18,2.53,6.05,8.13,12.64,15.2,12.92a18.46,18.46,0,0,0,8.43-1.83c6-.48,10.32-5.28,12-11.37C582.06,452.68,579.35,444.16,572,439.9Z"/><path class="cls-8" d="M613,478.07c.6.91,1.32,1.87,2.09,2.83,18.76.16,37.52.51,56.28.39h2c4.74-5.06,8.94-11.49,9.78-17.42,1.45-10.3-3.5-19.54-6.79-28.88-3-8.58-7.42-13.36-16.4-15.34-7.49-1.65-14.33-.79-21.27,1.55a39.38,39.38,0,0,0-10.32,4.45c-6,3.22-11.95,7.73-14.67,13.58a4.78,4.78,0,0,0-.43,1.54c-2.89,3.67-5.62,7.62-6.44,12.3-.72,4.06.33,7.92,1.75,11.66A28.89,28.89,0,0,0,613,478.07Z"/><path class="cls-8" d="M218.4,476.56a4.31,4.31,0,0,0,1.37-.75c4.83-4,7.92-11.69,9.62-17.6,1.59-5.5,1.61-13.1-1.85-17.9a4.66,4.66,0,0,0-1-1,31.34,31.34,0,0,0-.83-3.06c-4.29-13.12-13.53-23.29-27.71-25.61-13-2.12-27.76,6.09-35.62,16.08-3.87,4.93-7.85,9.77-9.65,16s-1.49,14-.13,20.31a3.79,3.79,0,0,0,.8,1.66,13.71,13.71,0,0,0,2.83,5c2.45,2.89,4.9,6.41,7.74,9.19,3.7.14,7.4.11,11.31-.11a293.28,293.28,0,0,1,31.24,0A58.32,58.32,0,0,1,218.4,476.56Z"/><path class="cls-7" d="M657.7,441.15c-4.64-4.58-10.24-4.79-16.21-2.71-8.65,3-19.65,14.85-13.43,24.46a5.28,5.28,0,0,0,.36.44,18.89,18.89,0,0,0,2.32,6.43c2.53,4.42,7.16,6.2,12.1,6.24,10.89.09,21.31-8.26,21-19.59C663.68,451.11,661.51,444.92,657.7,441.15Z"/><path class="cls-7" d="M203.8,436a14.9,14.9,0,0,0-7.23-5.29,17.91,17.91,0,0,0-4.38-1.87,4.15,4.15,0,0,0-4.56,1.9,10,10,0,0,0-3.88,1c-2.75.13-5.6,1.47-8.25,4.49-11.19,12.77-1.56,34.54,15.22,34.92,7.44.17,14.11-5.09,16.59-11.84C210.37,451,209.13,443.17,203.8,436Z"/><path class="cls-8" d="M132.94,422.51c-6.25-1.3-14.12.56-20.45.92-2.61.14-6,0-8.5,1.2a11,11,0,0,0-2.66-5.11c-2-1.86-4.74-2.32-7.28-2.84a115.3,115.3,0,0,1-14-4c-2.84-1-4.74,1.28-4.85,3.62a4,4,0,0,0-1.09,3.5c.37,2.31.92,4.61,1.52,6.89a3.84,3.84,0,0,0,0,1.84c.71,2.76,1.44,5.52,2.3,8.24.17.56.38,1.12.6,1.68s.21,1.05.29,1.58c1,6.35,3.82,10.44,9.94,13,6.64,2.8,15.45-.77,22.38-1.16,3.85-.22,7.59-.23,11.42-.72,3.64-.47,7.85.51,11.27-1.11,5.93-2.8,6-9.47,6.11-15.07C140.13,429.67,139.27,423.82,132.94,422.51Z"/><path class="cls-5" d="M230.26,254.26c-1.63,0-3.27-.73-4.94-.75-.87,0-1.75.06-2.63,0-1.06,0-2.06-.31-3.11-.41a20.21,20.21,0,0,1-2.91-.3c-.89-.21-1.77-.49-2.67-.69a20.77,20.77,0,0,0-6.29-.5c-1.77.13-3.58.2-5.34.41a24.19,24.19,0,0,1-6.52-.31,42,42,0,0,0-11.74-.32c-4.14.53-8.13,1.26-12.31.59s-8.18-1.3-12.35-1.63c-3.94-.32-7.72-1-11.7-.91-1.76.05-3.5.32-5.26.3-2,0-3.92-.18-5.86-.06-2.18.13-4.32.65-6.49.83-1.94.16-3.81-.38-5.76-.34a18.84,18.84,0,0,0-2.72.27,2,2,0,0,0-3.34-1.45c-.95.93-1.89,1.88-2.82,2.83a4.68,4.68,0,0,0-1.57,1.54c-.05.08-.08.16-.12.24a69.82,69.82,0,0,0-11,15,90.19,90.19,0,0,0-4.52,11.56c-1.46,4.07-3.48,8-4.54,12.16-.53,2.1-.76,4.26-1.36,6.35s-1.36,4.05-2,6.08c-1.4,4.22-2.76,8.44-4.27,12.62-.69,1.91-1.44,3.8-2,5.75-.68,2.14-1.11,4.35-1.82,6.48A85,85,0,0,0,79.36,342a47.14,47.14,0,0,0-.47,7.12,43.85,43.85,0,0,1-1.06,7.55c-.93,4.67-2,9.34-2.19,14.12l0,.11A44,44,0,0,0,75.32,381c.45,3.56-.16,7.16.23,10.73.2,1.76,0,3.48,0,5.25s.31,3.33.28,5.05c-.08,3.91-.1,7.83-.15,11.74a1.92,1.92,0,0,0,.29,1.06,44.56,44.56,0,0,0-.43,4.46q0,2.54,0,5.07a38.33,38.33,0,0,0,.59,9.86,45.84,45.84,0,0,0,8.41,17.53c1.43,2.08,4.87.15,3.43-1.94a51,51,0,0,1-5-8,46.91,46.91,0,0,1-3-8.6,36.82,36.82,0,0,1-.44-9.44c0-1.58,0-3.14,0-4.72s.37-3,.47-4.56a1.82,1.82,0,0,0-.32-1.2c0-3.63.06-7.26.13-10.89,0-1.74-.17-3.39-.26-5.11s.16-3.61,0-5.43c-.39-3.51.17-7-.21-10.54a30.41,30.41,0,0,1-.35-4.76c.06-1.41.26-2.81.44-4.21a2.24,2.24,0,0,0,.16-.77c0-4.5,1.06-8.85,1.94-13.24.41-2,.82-4.05,1.1-6.1.3-2.28.17-4.55.29-6.84a51.16,51.16,0,0,1,.87-5.77A48.39,48.39,0,0,1,85,333.59c.56-1.9,1.26-3.73,1.75-5.66a56.31,56.31,0,0,1,1.77-5.85c1.51-4.17,3-8.33,4.39-12.54,1.31-4,3-8,3.79-12.06a60.41,60.41,0,0,1,3.58-11.68c1.61-3.87,2.82-7.88,4.36-11.77,1.67-4.24,4.29-7.88,6.86-11.6a57,57,0,0,1,6.31-7.38,16,16,0,0,1,3-.49,17.41,17.41,0,0,1,5.57-.38,18.59,18.59,0,0,0,4.83.2c2-.22,3.94-.68,5.93-.74,1.74,0,3.5.06,5.25.08s3.68-.27,5.54-.31c3.88-.08,7.58.61,11.42.92,4,.32,7.94.95,11.93,1.58a37.39,37.39,0,0,0,11.37-.33,40,40,0,0,1,11.71-.1,49.44,49.44,0,0,0,5.42.64,46.71,46.71,0,0,0,6-.32,22.53,22.53,0,0,1,6.76.06,36.79,36.79,0,0,0,5.76,1.18c2.14.11,4.17.45,6.32.42,1.9,0,3.65.75,5.52.74C232.74,258.18,232.8,254.24,230.26,254.26Z"/><path class="cls-4" d="M201.26,271.85c-1.31-.63-3-.28-4.44-.25a25.37,25.37,0,0,1-3.58-.44c-3.15-.34-6.41,0-9.59-.15s-6.43-.34-9.65-.39c-3.37,0-6.74-.1-10.11-.13-3.13,0-6.31-.66-9.42-.3s-5.92-.29-8.95-.29l-4.44,0c-1.46,0-2.88.26-4.34.31a87,87,0,0,0-10.2.52,38.47,38.47,0,0,0-9.48,2.83,1.83,1.83,0,0,0-.74.57c-1.91,1.39-2.91,3.61-3.76,6a48.37,48.37,0,0,0-1.94,5.24c-.48,2.1-.94,4.2-1.34,6.32-.74,3.86-2.19,7.52-3.09,11.33-1,4.07-2.56,7.94-3.39,12-1.6,7.94-2.44,16-3.88,23.95-.67,3.64-1,7.14,1.3,10.29a9.67,9.67,0,0,0,3.65,3.22c2,.93,3.81.57,5.75-.22a38.36,38.36,0,0,0,5-2.14,45.14,45.14,0,0,1,5.36-2.75c3.87-1.63,7.7-3.31,11.5-5.1s7.94-3.56,11.85-5.44a36,36,0,0,1,5.32-2.35c1.87-.55,3.65-1.35,5.54-1.79,4.25-1,8.55-2.55,12.88-3.08a81,81,0,0,1,11.64-1c4.17.08,8.34.67,12.52.83a8.4,8.4,0,0,0,4.7-.69,10.15,10.15,0,0,0,3.91-3.19,11.41,11.41,0,0,0,2.08-5.27c.22-2.12,0-4.29,0-6.41,0-.43,0-.85,0-1.27,0-.07,0-.15,0-.23.16-1.15.44-2.28.57-3.44.23-2.18.17-4.38.36-6.56.39-4.45.07-8.9.34-13.36.13-2.19.56-4.33.56-6.53,0-2.44,1.2-5.68.26-8A5.69,5.69,0,0,0,201.26,271.85Z"/><path class="cls-4" d="M201.33,372.34c-.05-2.3-.29-4.59-.23-6.89,0-1.17,0-2.35.12-3.52a13.13,13.13,0,0,0,0-3.65,3.46,3.46,0,0,0-2-2.86,5.82,5.82,0,0,0-3.48,0,1.74,1.74,0,0,0-1.31,1.08c-.05.07-.11.11-.16.19a5.16,5.16,0,0,0-.38,2.86c0,1.21-.06,2.42-.1,3.62-.07,2.2.08,4.39.15,6.58a32.38,32.38,0,0,1-.09,3.27c-.08,1.12.09,2.24,0,3.36a5.85,5.85,0,0,0-.11,2.66,3,3,0,0,0,2.31,1.77c1.83.39,4.35.24,5.06-1.84a9.67,9.67,0,0,0,.23-2.94C201.35,374.81,201.36,373.57,201.33,372.34Z"/><path class="cls-4" d="M208.32,415.12c1.81.54,2.87,2,4.29,3.12s2.81,2.18,4.16,3.46a46.05,46.05,0,0,1,3.74,4.16,13.25,13.25,0,0,1,2.57,3.91,63.12,63.12,0,0,1,2.27,5.91,61.89,61.89,0,0,1,2.45,11.57,30.12,30.12,0,0,1-1.13,11.45,34.12,34.12,0,0,1-2,5.74c-.89,1.69-2,3.29-2.87,5a28,28,0,0,1-6,7.42q3-.36,6-.49a24.38,24.38,0,0,0,3.22-4.45c1.07-2,2.36-3.88,3.36-5.91a47.43,47.43,0,0,0,2.21-6.47,27.92,27.92,0,0,0,1.23-6.47,44.51,44.51,0,0,0-1.23-13.11c-.21-.88-.52-1.71-.79-2.57-.32-1.06-.43-2.17-.75-3.23-.65-2.12-1.64-4.13-2.43-6.2a15.93,15.93,0,0,0-3.06-4.6,58.3,58.3,0,0,0-4.35-4.8c-1.41-1.37-3-2.4-4.49-3.68s-2.82-2.71-4.81-3.38a16.93,16.93,0,0,1-2.67-1,7.87,7.87,0,0,0-2.68-.82c-2.29-.35-4.5-.3-6.71-1.13-4.17-1.57-8.7-.3-13,.25-4.46.57-8.92,2.52-12.91,4.51s-7.19,5-10.21,8a49.09,49.09,0,0,0-8.84,12.53,53.1,53.1,0,0,0-2.92,6.92,32.37,32.37,0,0,0-1.21,7.19,50.6,50.6,0,0,0,.91,14.93,22.2,22.2,0,0,0,2.73,6.4,35.12,35.12,0,0,0,3.81,5.51h0a5.09,5.09,0,0,0,.65,1,19,19,0,0,0,2,1.8c.35.31.68.65,1,1,2,.14,3.93.24,5.89.28-1.15-1.06-2.1-2.3-3.3-3.37-.75-.67-1.55-1.29-2.26-2a8.33,8.33,0,0,1-1.29-2.21,1.74,1.74,0,0,0-1.13-.94c-.61-.87-1.15-1.76-1.71-2.72a19.76,19.76,0,0,1-2.46-5.24,44.51,44.51,0,0,1-1.11-12.12,33.68,33.68,0,0,1,2.36-11.4,45.39,45.39,0,0,1,6.26-10.73,44.39,44.39,0,0,1,8.59-8.78,41.07,41.07,0,0,1,10.84-5.47A43.16,43.16,0,0,1,192,411.72a20.13,20.13,0,0,1,2.69,0,10.25,10.25,0,0,1,2.51.77,25.52,25.52,0,0,0,6.14,1C205.12,413.57,206.63,414.62,208.32,415.12Z"/><path class="cls-4" d="M204.53,432.15c-3.64-2.86-8.55-5.2-13.22-5.44-5.56-.28-10.95,2.47-15.33,5.57a15.31,15.31,0,0,0-4.92,5.76,32.89,32.89,0,0,0-1.71,3.66c-.16.43-.36.89-.48,1.32a3.64,3.64,0,0,0-.09.73c0,.13-.05.33-.06.44a16.28,16.28,0,0,0-1.15,4.93,20.31,20.31,0,0,0,.75,6.63,35.41,35.41,0,0,0,2.77,6.16,23,23,0,0,0,4.58,6,19.5,19.5,0,0,0,5.91,3.89c2.34,1,4.81.78,7.3.79a25.38,25.38,0,0,0,13.39-4.12,22.53,22.53,0,0,0,4.85-4.55,16.38,16.38,0,0,0,3.62-5.9,29.22,29.22,0,0,0,.57-14.39A19.26,19.26,0,0,0,204.53,432.15Zm3.37,21.11A16.22,16.22,0,0,1,206,459a24.83,24.83,0,0,1-3.67,4.45c-2.61,2.54-6.37,4-9.85,4.84a25.84,25.84,0,0,1-6.15.37,9,9,0,0,1-5.82-1.82,21.71,21.71,0,0,1-4.95-5.17,53,53,0,0,1-3-5.76,14.27,14.27,0,0,1-1.11-6,10.9,10.9,0,0,1,.66-3.6.5.5,0,0,0,.08-.12,2.91,2.91,0,0,0,.36-1.09c.17-.45.36-.91.54-1.38a1.74,1.74,0,0,0,.09-1.11c.15-.33.3-.66.43-.93a16.34,16.34,0,0,1,3.21-5.08,22.47,22.47,0,0,1,10.46-5.43,13.59,13.59,0,0,1,5.95-.17,21.56,21.56,0,0,1,5.8,2.38c3.36,1.9,6.25,4.45,7.62,8.18A24.78,24.78,0,0,1,207.9,453.26Z"/><path class="cls-4" d="M576,438.55c-3.46-2.72-8.12-4.94-12.57-5.17-5.28-.27-10.39,2.35-14.56,5.29a14.61,14.61,0,0,0-4.67,5.47,30.55,30.55,0,0,0-1.63,3.48c-.15.41-.35.85-.46,1.26a4.06,4.06,0,0,0-.08.69c0,.12,0,.31-.06.42a15.59,15.59,0,0,0-1.09,4.69,19.39,19.39,0,0,0,.71,6.29,32.41,32.41,0,0,0,2.63,5.86,21.88,21.88,0,0,0,4.35,5.72,18.91,18.91,0,0,0,5.62,3.7c2.22.93,4.57.74,6.94.74a24.08,24.08,0,0,0,12.73-3.9,22.28,22.28,0,0,0,4.61-4.33,15.62,15.62,0,0,0,3.43-5.61,27.76,27.76,0,0,0,.55-13.67A18.28,18.28,0,0,0,576,438.55Zm3.2,20.06a15.25,15.25,0,0,1-1.81,5.45,23.17,23.17,0,0,1-3.49,4.23,20,20,0,0,1-9.36,4.6,24.84,24.84,0,0,1-5.84.36,8.62,8.62,0,0,1-5.54-1.73,21.07,21.07,0,0,1-4.7-4.91,51.45,51.45,0,0,1-2.81-5.48,13.57,13.57,0,0,1-1.06-5.74,10.43,10.43,0,0,1,.63-3.42l.08-.11a3,3,0,0,0,.34-1c.16-.43.34-.87.51-1.31a1.66,1.66,0,0,0,.09-1.06l.41-.89a15,15,0,0,1,3-4.82,21.24,21.24,0,0,1,9.94-5.16,13,13,0,0,1,5.65-.17,20.41,20.41,0,0,1,5.51,2.27c3.19,1.8,6,4.22,7.25,7.77A23.49,23.49,0,0,1,579.18,458.61Z"/><path class="cls-4" d="M659,439.62c-3.46-2.72-8.12-4.94-12.57-5.17-5.28-.27-10.39,2.35-14.56,5.3a14.5,14.5,0,0,0-4.67,5.46,30.55,30.55,0,0,0-1.63,3.48c-.15.41-.34.85-.46,1.26a4.06,4.06,0,0,0-.08.69c0,.12,0,.31-.06.42a15.59,15.59,0,0,0-1.09,4.69,19.36,19.36,0,0,0,.71,6.29,32.45,32.45,0,0,0,2.64,5.86,21.63,21.63,0,0,0,4.34,5.72,18.72,18.72,0,0,0,5.62,3.7c2.23.93,4.57.74,6.94.75a24.18,24.18,0,0,0,12.73-3.91,22.28,22.28,0,0,0,4.61-4.33,15.49,15.49,0,0,0,3.43-5.61,27.76,27.76,0,0,0,.55-13.67A18.28,18.28,0,0,0,659,439.62Zm3.2,20.06a15.25,15.25,0,0,1-1.81,5.45,22.84,22.84,0,0,1-3.49,4.23,20,20,0,0,1-9.36,4.6,24.84,24.84,0,0,1-5.84.36,8.62,8.62,0,0,1-5.54-1.73,20.83,20.83,0,0,1-4.69-4.91,49.73,49.73,0,0,1-2.82-5.48,13.54,13.54,0,0,1-1.06-5.74,10.48,10.48,0,0,1,.63-3.42.52.52,0,0,0,.08-.11,3,3,0,0,0,.34-1c.16-.43.34-.87.51-1.31a1.66,1.66,0,0,0,.09-1.06l.41-.88a15.22,15.22,0,0,1,3.05-4.83,21.24,21.24,0,0,1,9.94-5.16,13,13,0,0,1,5.65-.17,20.41,20.41,0,0,1,5.51,2.27c3.19,1.8,6,4.22,7.25,7.77A23.5,23.5,0,0,1,662.19,459.68Z"/><path class="cls-4" d="M498.58,435.54l-.11-.13a.56.56,0,0,0,.11.19Z"/><path class="cls-4" d="M275.24,443.75h0Z"/><path class="cls-4" d="M801.36,168.64c-.12-3.65-2.71-5-5.9-5.84a23.86,23.86,0,0,0-5.54-.32c-2.23,0-4.41-.34-6.62-.57-4.81-.5-9.51-1-14.35-1s-9.36-.48-14-.08c-5,.41-10,.22-15,.16s-9.9-.07-14.85-.2c-4.52-.12-9-.75-13.55-1-5-.26-10-.73-15-.69s-9.66.32-14.51-.09a82.47,82.47,0,0,0-14.4-.21,98.08,98.08,0,0,1-14-.13c-9.83-.49-19.73-1.39-29.6-1s-19.69.44-29.54,1c-10,.53-19.92,1.85-30,.92-4.83-.45-9.57-1.51-14.4-2s-9.7-.34-14.56-.48-9.8-.57-14.73-.63-9.87.12-14.76-.23c-4.59-.33-9.16-1-13.78-1-4.9,0-9.79-.13-14.69-.19s-10-.11-15-.19c-4.83-.08-9.69-.48-14.51,0a31.21,31.21,0,0,1-6.69.24c-2.43-.28-4.79-.87-7.23-1a122.72,122.72,0,0,0-14.73-.17c-10,.58-19.9,1.29-29.92.75-5.1-.27-10.24-.75-15.35-.52-4.67.21-9.26.34-13.95.3-9.88-.09-19.64-.23-29.48-1.14a219,219,0,0,0-29.21-.56c-4.78.21-9.46,1-14.27.89-5-.07-10-.22-15-.29-2.25,0-4.41-.31-6.65-.51-2.41-.23-4.52.54-6.89.74a2,2,0,0,0-1.2.5,1.76,1.76,0,0,0-.23,0l-.38,0a2,2,0,0,0-1.39,1.36c-.43,1.36.31,2.48.27,3.82,0,1.49-.05,3-.07,4.48,0,3.18-.06,6.36-.12,9.54-.05,2.26-.53,5.23,1.89,6.46a9,9,0,0,0,5.16.49c-.06,1.87-.13,3.76,0,5.61.15,2.31.87,4.52,1.09,6.81a49.22,49.22,0,0,1-.12,6.65,60,60,0,0,0,.36,7,45.63,45.63,0,0,1-.28,6.61,55.54,55.54,0,0,0,.14,7.63c.14,2.32,0,4.66,0,7s.05,5-.16,7.46c-.17,2.08-.44,4.12-.47,6.21,0,2.42,0,4.85-.09,7.27-.17,4.78-.55,9.52-.61,14.3q-.19,14.44-.38,28.88c0,2.78-.07,5.56-.11,8.35,0,2.32-.51,4.59-.52,6.92q0,5.4-.14,10.8c-.27,0-.55,0-.82,0-.55.06-1.25.18-1.62.24a15.77,15.77,0,0,1-1.6-.22c-.55,0-1.09,0-1.64-.05a13.64,13.64,0,0,0-3.61-.07l-.39.06c-.31,0-.62,0-.93,0h-1.44a53.47,53.47,0,0,1,.25-6.91c.34-2.85.44-5.72.77-8.57.25-2.18,0-5.41-1.38-7.19s-4.36-1.66-6.47-1.92c-1.24-.15-2.45,0-3.71,0a26.93,26.93,0,0,0-3.25-.12c.12-2.42.3-4.83.39-7.25.16-4.32.12-8.64.14-13,0-3.76.41-7.82-.62-11.49-1-3.44-4.18-6.22-6.88-8.33-3.08-2.41-6.5-3.07-10.3-3.42-4.08-.38-8.11-.47-12.2-.45-8.32,0-16.66-.19-25-.3-4.5-.07-9-.43-13.46-.53-2.47-.05-4.91.05-7.37-.17s-4.81-.29-7.23-.33c-4.13-.06-8.27-.2-12.4-.2s-8.24.53-12.3.14c-3-.29-6,1-8.92,1.83a21.13,21.13,0,0,0-7.29,3.7,16.57,16.57,0,0,0-5.35,5.76c-1.23,2.41-2.43,4.83-3.55,7.29-1.25,2.73-2.86,5.26-4.17,8s-2.2,5.6-3.27,8.44c-2.17,5.78-4.81,11.36-7,17.12a163.63,163.63,0,0,0-5.24,17.55c-.74,2.86-1.7,5.65-2.44,8.51s-1.49,5.95-2.33,8.9c-.68,2.42-1.27,4.86-1.81,7.3a2.18,2.18,0,0,0-.81,0,8,8,0,0,0-4.76,3c-.74.93-1.31,2-2,3a8.9,8.9,0,0,0-1.59,2.64C66.38,355,66,360,65.46,364.73c-.41,3.46-.72,6.93-1,10.39-.06.06-.13.1-.19.17a4.28,4.28,0,0,0-.83,3c0,1.41-.2,2.82-.28,4.22-.16,2.88-.59,5.69-.82,8.55a34.06,34.06,0,0,0,.07,5.05,11.61,11.61,0,0,0,.31,2.48,1.73,1.73,0,0,0,.8,2.31c.83.46,1.4,1,2.45.8a3.43,3.43,0,0,0,2.29-1.62,15.66,15.66,0,0,0,2.08-6.44c.31-2.6.87-5.16,1.31-7.74.39-2.27,1-4.68.44-7a7.35,7.35,0,0,0-2.21-4,2.65,2.65,0,0,0-1.42-.55c.25-2.57.49-5.15.77-7.72a126,126,0,0,1,1.9-13,10.3,10.3,0,0,1,.65-2.54c.42-.79,1.1-1.47,1.59-2.22a11.58,11.58,0,0,1,1.75-2.27,8,8,0,0,0,.85,0c-.38,2.06-.74,4.12-1,6.21a160.56,160.56,0,0,0-1.33,18.59c-.18,7,.1,14.08.37,21.12.14,3.5.57,7,.81,10.45a43.51,43.51,0,0,0,.52,4.54,16.27,16.27,0,0,1,.22,2.18.41.41,0,0,1,0,.09,1,1,0,0,1-.11.76.75.75,0,0,1-.26.27.65.65,0,0,1-.33.17L75,411a4.66,4.66,0,0,0-.45.22,1.65,1.65,0,0,0-.11.57v0a4.56,4.56,0,0,0-1.72,2.41c-.75,2.53-.46,5.19-.43,7.79,0,5.43.44,11.17,2.21,16.34,1.7,5,2.67,10,7,13.4a18.57,18.57,0,0,0,6.87,3.35,28.17,28.17,0,0,0,8,.82c1.34,0,2.64-.29,4-.31a6.27,6.27,0,0,0,3.34-.59,3.1,3.1,0,0,0,.91-.93,12.87,12.87,0,0,0,3.56,0c1.86,0,3.73,0,5.59.07,3.26.06,6.47-.28,9.72-.47,5.65-.33,13.92-.49,16.53-6.71a14.19,14.19,0,0,0,.9-4.37,54.29,54.29,0,0,1,.65-5.39,24.83,24.83,0,0,0,.27-4.56,44.5,44.5,0,0,0,0-4.9c0-.06,0-.12,0-.18.15-.81.33-1.61.55-2.42a46,46,0,0,1,1.49-5.44c1.31-3.34,2.22-6.55,4.56-9.35s5.48-4.59,8.64-6.47a48.13,48.13,0,0,1,4.7-2.24c.78-.36,1.52-.87,2.32-1.18s1.82-.41,2.71-.67a35.56,35.56,0,0,1,10.79-1.49c1.64.08,3.27.36,4.91.41,1.88.06,3.76-.07,5.63,0,3.9.09,7.8.72,11.7.94s8,.09,12,.14l6.13.09,1.06,0c3.09,4.45,7.4,8.16,11.43,11.71a38.56,38.56,0,0,1,4.93,5.66,19.23,19.23,0,0,0,1.83,1.89,2,2,0,0,0,.41.88c-.49-.62-.31-.5-.35.19a8.52,8.52,0,0,0,0,1.13c0,.21.06.41.09.62a7.68,7.68,0,0,0-.4,3.15c0,2,0,4.07-.08,6.11,0,2.34-.05,4.64-.24,7a49.12,49.12,0,0,0,.3,6.75c.13,2.25.15,4.49.1,6.74s.19,4.35.17,6.54c0,4.24.83,8.37-.95,12.38a2.05,2.05,0,0,0,.67,2.7,3.81,3.81,0,0,0,3.28.34c1.33-.32,2.68-.26,4-.54,3.24-.67,3.2-4.26,3.31-6.89.13-3,1-6.08.74-9.13-.29-3.33-.33-6.65-.59-10-.38-4.64-.63-9.36-1.17-14a25.87,25.87,0,0,0,3,0c1-.07,1.93-.33,2.9-.45s1.73.08,2.59,0c1.73-.15,3.72-.5,5.26-.65.61-.05,1.31,0,2-.06.07,1,.17,1.95.28,2.94a24.68,24.68,0,0,1,.37,3,15.64,15.64,0,0,0,0,2.74,2,2,0,0,0,2.88,2.24,5.69,5.69,0,0,1,3-.23c1.12.08,2.23.11,3.35.13a1.79,1.79,0,0,0,.49.89,2,2,0,0,0,2.56.22c-.15,0-.1,0,0,0h.09l.35.11a1,1,0,0,0,.18.1v0a.53.53,0,0,1,.06.13c0,.08.05.16.05.18s.05.27.08.4h0v0c0,.11,0,.21,0,.32s0,.49,0,.74a27.05,27.05,0,0,0,0,4.41c.05.34.13.67.21,1,0,.06.06.47,0,.2,0,.11,0,.23,0,.34a3.93,3.93,0,0,0,.61,2v0c0,.05,0,.08,0,.11a2.06,2.06,0,0,1,0,.35,1.63,1.63,0,0,0,.29,1c-1,1.86,1.48,4.17,3,2.4,1.17-1.32,1.1-2.92,1.11-4.59a8.79,8.79,0,0,1,.09-1.16,8,8,0,0,0,.16-1.11c0-.09,0-.18,0-.27a16.94,16.94,0,0,1,.48-3.78c.84-2.11,3.68-1.33,5.36-1,2.37.54,4.68,1,7,1.66a46.45,46.45,0,0,0,14.63,1.84c3.42-.19,6.84-.27,10.26-.34.21.14.43.28.64.4a9.27,9.27,0,0,1,2.6,1.89,3.12,3.12,0,0,1,.54.85c0,1,0,2,.05,3a41.89,41.89,0,0,1,0,4.62,41.28,41.28,0,0,1-.78,4.28c-.58,3.22-.26,10.25,4.41,10.29a2,2,0,0,0,1.92-1.42c.24-1.31.07-2.59.33-3.9a12,12,0,0,0,.1-3.83c-.32-2.63,0-5.24-.47-7.86-.28-1.57-1.47-4.8.12-6s3.91-.18,5.51.19a2,2,0,0,0,2.39-1.43c.48,2.15.09,4.53.38,6.7.22,1.55.28,3.5,2.07,4.07s3.22-1.09,3.82-2.54a5.61,5.61,0,0,0,.32-1.33c1.16,1.48,4.08.47,3.45-1.7a12.52,12.52,0,0,1-.5-2.33,6,6,0,0,0,3.2-.14,6.34,6.34,0,0,0,2.38-1.35c.64-.6,1-1.47,1.76-2,1.71-1.12,4.47-1.45,6.46-1.69a18.27,18.27,0,0,1,6.51.26,21.11,21.11,0,0,0,6.35.9c.49,0,1-.2,1.54-.19.65,0,.24-.17.49.19a10.21,10.21,0,0,1,.76,2.48,9.9,9.9,0,0,0,2.62,4.81,2,2,0,0,0,3.31-1.88c-.18-1.42-.52-2.82-.56-4.26a18.12,18.12,0,0,0-.31-3.39c.34-.07.69-.17,1-.2l1.2-.19a21.33,21.33,0,0,0-.11,2.78,19.59,19.59,0,0,0,.27,5,5.41,5.41,0,0,0,2.44,3.46c1.44.77,3.17.45,4.73.46,8.24.06,16.47.17,24.7.12s16.26,0,24.39.07l11.9.15,5.83.08a37.92,37.92,0,0,0,5.33,0c1.39-.17,3-.25,4.13-1.19s1.24-2.51,1.15-4c-.1-1.66-.51-3.32-.56-5a17.17,17.17,0,0,1,.41-3.51c1.34,0,2.68-.05,4,0a43.29,43.29,0,0,0,4.7-.3c1.67-.15,3.33,0,5,0s3.18-.29,4.79-.29,3.25.13,4.87.12a39.87,39.87,0,0,0,4.75-.52c1-.13,2-.21,3-.37,0,0,0,.09.07.13,1.28,2.08,4.23,1.66,6.3,1.7s4.39.07,5.95-1.6c1.4-1.51,2.06-3.7,3.26-5.37a24.21,24.21,0,0,1,5.46-5.42c2.2-1.6,4.54-3,6.75-4.61,2-1.49,4-3.31,6.56-3.85a1.91,1.91,0,0,0,1.4-1.36s0-.08,0-.13a1.81,1.81,0,0,0,1.18-.87c.09-.15.19-.3.29-.45l.19-.18a2.43,2.43,0,0,1,.32-.18l-.24.1h0c.49-.2,1-.42,1.45-.63s1.28-.33,1.9-.53a8.24,8.24,0,0,0,1-.4c1.48.12,2.94.05,4.46,0h1.35l-1.59.78a38.27,38.27,0,0,0-9.7,7.62,46.69,46.69,0,0,0-8.41,11.92,51.06,51.06,0,0,0-2.77,6.57,31,31,0,0,0-1.15,6.83,48.71,48.71,0,0,0,.86,14.2,21.17,21.17,0,0,0,2.6,6.07A33.69,33.69,0,0,0,530,479h0l.12.22c2,.26,4,.48,6,.68l-.21-.2c-.71-.64-1.47-1.23-2.15-1.89a7.57,7.57,0,0,1-1.22-2.11,1.65,1.65,0,0,0-1.08-.89c-.57-.82-1.09-1.67-1.63-2.59a19.27,19.27,0,0,1-2.33-5,42.57,42.57,0,0,1-1.06-11.53,31.84,31.84,0,0,1,2.25-10.82,43.39,43.39,0,0,1,5.94-10.21,53,53,0,0,1,5.15-5.76h0c1.73.39,3.77-.65,5.49-1l.31-.05c6.51.35,13,1.16,19.48,1.65,3.87.3,7.62,0,11.48,0h1.1l3.12.87a1.82,1.82,0,0,0,2.11-.81,12,12,0,0,1,5,.55l.49.21a1.51,1.51,0,0,0,1,.09c.59.67,1.15,1.35,1.74,2.06a12.48,12.48,0,0,1,2.44,3.72,54.4,54.4,0,0,1,4.49,16.61A28.55,28.55,0,0,1,597,463.78a31.69,31.69,0,0,1-1.87,5.46c-.84,1.61-1.86,3.12-2.72,4.72a26.7,26.7,0,0,1-5.66,7l5.29-.06.19-.2a23.43,23.43,0,0,0,3.16-4.36c1-1.89,2.25-3.68,3.2-5.61a44.26,44.26,0,0,0,2.1-6.16,26.14,26.14,0,0,0,1.17-6.14,42.48,42.48,0,0,0-1.17-12.46c-.2-.84-.5-1.62-.75-2.44-.31-1-.41-2.06-.72-3.07-.61-2-1.55-3.93-2.3-5.89a15.22,15.22,0,0,0-2.91-4.38c-1.17-1.39-2.27-2.68-3.52-3.94,0,0,0-.05,0-.08a26.82,26.82,0,0,1-2-2,2.26,2.26,0,0,1-.13-.2,5.84,5.84,0,0,0-.8-.28c-.66-.5-1.32-1-2-1.56a28.36,28.36,0,0,0-2.75-2.26h1.57c4.34,0,8.52.22,12.84.66,4.5.45,8.94.54,13.46.58q9,.07,18,.22l-.71.35a38.27,38.27,0,0,0-9.7,7.62,46.69,46.69,0,0,0-8.41,11.92,51.06,51.06,0,0,0-2.77,6.57A31.07,31.07,0,0,0,606,454.6a48.37,48.37,0,0,0,.87,14.2,20.87,20.87,0,0,0,2.59,6.07,33.69,33.69,0,0,0,3.62,5.24h0a5.09,5.09,0,0,0,.48.78l5.58,0-.13-.12c-.71-.64-1.47-1.23-2.15-1.89a7.57,7.57,0,0,1-1.22-2.11,1.68,1.68,0,0,0-1.08-.89c-.57-.82-1.09-1.67-1.63-2.58a19.34,19.34,0,0,1-2.33-5,42.17,42.17,0,0,1-1.05-11.53A31.59,31.59,0,0,1,611.76,446a43.09,43.09,0,0,1,6-10.21,57.8,57.8,0,0,1,4.25-4.9,1.87,1.87,0,0,0,1,.18c2-.15,4,0,6.08-.05a58.67,58.67,0,0,0,6.22-.57c2-.24,3.78-.95,5.72-1.24a53.85,53.85,0,0,1,6.23-.39c4.18-.13,8.35,0,12.53.08,2.14,0,4.29.11,6.43,0,1.13-.05,2.27-.14,3.4-.22.36.31.72.63,1.07,1a44.5,44.5,0,0,1,3.56,4,12.61,12.61,0,0,1,2.44,3.72A54.4,54.4,0,0,1,681.11,454,28.55,28.55,0,0,1,680,464.85a31.69,31.69,0,0,1-1.87,5.46c-.84,1.61-1.86,3.12-2.72,4.72a25.54,25.54,0,0,1-4.88,6.26h5.09a21.65,21.65,0,0,0,2.77-3.9c1-1.89,2.25-3.68,3.2-5.61a44.58,44.58,0,0,0,2.1-6.15,26.32,26.32,0,0,0,1.17-6.15A42.48,42.48,0,0,0,683.72,447c-.2-.84-.5-1.62-.75-2.44-.3-1-.41-2.06-.72-3.07-.61-2-1.55-3.93-2.3-5.89a15.22,15.22,0,0,0-2.91-4.38c-.95-1.12-1.85-2.18-2.82-3.22a2.33,2.33,0,0,0,.17-.26c-1.13-.78-2.24-1.58-3.32-2.42a2.49,2.49,0,0,1-.71-.88l-.16,0c-.53-.4-1.05-.81-1.56-1.26-.7-.6-1.34-1.21-2-1.75,1.76,0,3.53,0,5.29,0a1,1,0,0,1,.26-.2,1.3,1.3,0,0,1,1.38,0,1.93,1.93,0,0,1,1.31.17c6.3-.06,12.59-.25,18.9-.16,4.57.06,9.14.22,13.71.21,3.15,0,6.29-.2,9.43-.33-1.17.51-2.32,1.06-3.43,1.61a38.31,38.31,0,0,0-9.7,7.63,46.64,46.64,0,0,0-8.41,11.91,52.08,52.08,0,0,0-2.78,6.58,31.47,31.47,0,0,0-1.14,6.82,48.37,48.37,0,0,0,.86,14.2,21,21,0,0,0,2.59,6.07,34.32,34.32,0,0,0,3.63,5.25h0c0,.06.07.12.1.19l5.33.07c-.56-.48-1.13-1-1.65-1.46a7.66,7.66,0,0,1-1.22-2.1A1.7,1.7,0,0,0,700,477c-.57-.82-1.09-1.66-1.63-2.58a19,19,0,0,1-2.33-5A42.53,42.53,0,0,1,695,457.94a31.84,31.84,0,0,1,2.25-10.83,43.12,43.12,0,0,1,3.81-7.2l.1-.05c3.89-2.57,7.89-5.24,12.38-6.66a24.21,24.21,0,0,1,6.77-.93,49.33,49.33,0,0,0,7.16-.89,59.6,59.6,0,0,1,7.07-1,23.57,23.57,0,0,1,7.23.86c2.23.54,4.27.82,6.42-.18l.32-.16A12.29,12.29,0,0,1,752.2,432a20.23,20.23,0,0,1,5.58,4.76,1.82,1.82,0,0,0,3.06-.48,9.22,9.22,0,0,1,1.25,2.23c.71,1.87,1.63,3.67,2.16,5.62a59.71,59.71,0,0,1,2.33,11A28.55,28.55,0,0,1,765.5,466a32.56,32.56,0,0,1-1.87,5.46c-.84,1.61-1.86,3.12-2.72,4.72a25.22,25.22,0,0,1-4.6,6h5.05a21.77,21.77,0,0,0,2.53-3.63c1-1.89,2.25-3.68,3.19-5.61a43.33,43.33,0,0,0,2.11-6.15,25.8,25.8,0,0,0,1.16-6.15,42,42,0,0,0-1.16-12.45c-.21-.84-.5-1.63-.75-2.45-.31-1-.41-2.06-.72-3.07-.62-2-1.55-3.93-2.3-5.89a15.25,15.25,0,0,0-2.92-4.38,55.58,55.58,0,0,0-4.12-4.56c-1.35-1.3-2.88-2.27-4.27-3.49s-2.69-2.58-4.57-3.21l-.58-.2a54.18,54.18,0,0,1,5.57-.18c2.46.08,4.92.24,7.39.24,2.23,0,4.41-.38,6.63-.45a5.22,5.22,0,0,0,1.48,1c.38.42.74,1,1,1.24a6.77,6.77,0,0,1,1.85,3c.43,1.31.93,2.6,1.24,3.94s.41,2.81.65,4.21c1,5.53,1.87,11.36,3.92,16.62.69,1.77,1.72,4,3.36,5.06a2.74,2.74,0,0,0,4.42-1.69c.38-2.09-.41-4.56-.72-6.6-.47-3.16-1-6.32-1.29-9.5s-1-6.42-1.31-9.66c-.23-2.44-.82-4.84-1.09-7.27a10.54,10.54,0,0,0,1.72-.18,5.5,5.5,0,0,0,2.9-2c1.14-1.31,2.17-3.36,1.72-4.92a12.84,12.84,0,0,0,.84-4.8c.11-3.59.5-7.12.55-10.72.05-4,.05-8,.16-11.94s.54-8,.59-11.95c.1-8,.37-16,.7-23.95.16-4,0-7.89,0-11.84a27.32,27.32,0,0,1,.59-5,41.28,41.28,0,0,0,.25-5.89,32.54,32.54,0,0,0-.29-5.4,25.93,25.93,0,0,1,.18-6,89.72,89.72,0,0,0,.19-11.48c0-1.85,0-3.71.15-5.56.18-2.06.67-4.07.93-6.12.47-3.85.08-7.77.48-11.64.83-7.94.38-16.08.56-24.06.09-3.76-.52-7.41-.15-11.17a103.66,103.66,0,0,0,.4-12c0-2.14.27-4.16.41-6.27.15-2.28-.16-4.58.27-6.84a82.3,82.3,0,0,0,1.45-11.72,41.62,41.62,0,0,0-.05-6.7,16.82,16.82,0,0,1-.27-3c.07-.92.39-1.8.48-2.72a8.42,8.42,0,0,0-.34-2.78,18.38,18.38,0,0,1-.07-2.78,8.76,8.76,0,0,1,.19-2,3.23,3.23,0,0,0,2.14-.83c1.76-1.7,1-5,1-7.14C799.75,177.16,801.5,172.91,801.36,168.64Zm-664,269.76c-.23,1.46-.27,2.91-.41,4.38a6.79,6.79,0,0,1-1,3.52,8.23,8.23,0,0,1-3.24,2.12c-2.62,1.17-5.76,1.15-8.55,1.25-3.26.13-6.48.58-9.74.52l-4.71-.07c-.84,0-1.69,0-2.52,0a3.85,3.85,0,0,1-1.88,0,1.61,1.61,0,0,0-.36-.1,3.58,3.58,0,0,0-.43-.74c-1.44-1.83-3.91.34-3.12,2.23v.11a7.17,7.17,0,0,0-1,0c-1,0-2.08.24-3.12.31a23.44,23.44,0,0,1-7.56-.59,14.55,14.55,0,0,1-6.37-3.19,13,13,0,0,1-3.5-6c-.77-2.44-1.67-4.87-2.34-7.34a46.73,46.73,0,0,1-1.09-7.92c-.23-2.56-.23-5.14-.26-7.71a14.26,14.26,0,0,1,.21-3.39c.07-.31.34-.8.25-.81a5.38,5.38,0,0,1,3.93-.56,37.53,37.53,0,0,1,4.57,1.1A59.25,59.25,0,0,0,95,417a6.19,6.19,0,0,1,3.55,1.2c1,.93,1.22,2.69,1.41,3.95.24,1.59.5,3.22.66,4.82a33.17,33.17,0,0,1,.34,4.77c0,2.54,3.84,2.58,3.94.05v-.22s0,0,0,0a38.13,38.13,0,0,0-.39-5c0-.26-.07-.53-.1-.8,2.54-.13,5.07-.45,7.62-.47,3.13,0,6.27.07,9.4.11s6,0,9.09-.17c2-.09,4.82-.31,6.36,1.15C139.33,428.69,137.79,435.57,137.32,438.4ZM221.51,396a49.48,49.48,0,0,0-5.31-.1l-6.33-.08c-4,0-7.94.08-11.87-.29a114.12,114.12,0,0,0-11.67-.77,52,52,0,0,1-5.58-.09,28.65,28.65,0,0,0-5.78-.19,91.69,91.69,0,0,0-10.92,1.91,23.11,23.11,0,0,0-4.28,1.84,50.59,50.59,0,0,0-5.23,2.56c-3.17,1.9-6.33,3.7-8.75,6.55a20.07,20.07,0,0,0-3.32,4.85c-.85,1.94-1.56,4-2.26,5.94-.54,1.53-1.05,3.11-1.49,4.73-3-1.8-7.6-1.52-11-1.33-4.13.23-8.33-.06-12.47-.11-3.8-.05-7.55.36-11.33.46,0-.29-.09-.59-.14-.88a11.3,11.3,0,0,0-1.8-4.8,7.67,7.67,0,0,0-4.21-2.62,13.54,13.54,0,0,0-2.68-.46c-.92-.1-1.82-.31-2.74-.37-1.14-.09-2.25-.21-3.35-.38-.06-.31-.14-.62-.22-.94a13.19,13.19,0,0,1-.35-2.66c-.13-2.45-.47-4.87-.63-7.32-.17-2.64,0-5.33-.06-8s0-5.5,0-8.26a71.82,71.82,0,0,0-1-15.08c-.44-2.1-1-3.44-3.25-4.06a15.77,15.77,0,0,0-5.89,0,138.47,138.47,0,0,1,3.07-23.39c1.3-5.8,3-11.59,4.55-17.31.79-2.85,1.75-5.64,2.4-8.52S89,311,89.89,308.21a174.5,174.5,0,0,1,6.34-16.57c1.14-2.67,2.28-5.34,3.3-8.06a80.37,80.37,0,0,1,3.27-8.33c1.48-2.93,3.12-5.74,4.47-8.74.61-1.35,1.32-2.63,2-3.95a23.47,23.47,0,0,1,1.8-3.4,15.7,15.7,0,0,1,3.45-3.05,18.08,18.08,0,0,1,4-2.45c1.41-.54,3-.82,4.41-1.27l1.71-.52a2.27,2.27,0,0,0,.5.17,21.88,21.88,0,0,1,3.24-.25c7.33-.8,14.74-.48,22.1-.33,7.95.16,15.88.62,23.82,1,3.87.17,7.79.18,11.67.13,4.08-.05,8.15.16,12.23.21s8.09,0,12.14,0c1.84,0,3.68.07,5.52.23a41,41,0,0,1,5.86.64c3.38.78,6.4,3.36,8.47,6a8,8,0,0,1,1.79,4.32,44.53,44.53,0,0,1,.17,5.89c-.06,4.22,0,8.43-.08,12.64s-.43,8.17-.56,12.26c-.06,1.83,0,3.65,0,5.48,0,2-.52,4-.7,6.08-.34,3.93-.13,7.85-.65,11.77s-.81,7.73-1,11.64-.56,8.05-.58,12.08c0,4.59-.91,9.12-.93,13.72s-.47,9-.4,13.48c0,2.06-.38,4.05-.49,6.11-.11,2.21-.07,4.45,0,6.67s-.33,4.22-.42,6.36a22.93,22.93,0,0,1-.2,3.42C225.39,394.79,224.74,396.36,221.51,396ZM262,400.75c0,1.14-.09,2.32-.11,3.48a38.33,38.33,0,0,0-5.67.68,36.38,36.38,0,0,1-7.59.42c-2.6,0-5.2.24-7.8.31-1.36,0-2.73,0-4.09,0-.82,0-1.76.13-2.63.09a2,2,0,0,0-3.21.6l-.21.15c-.36-.33-.71-.68-1.09-1a49.47,49.47,0,0,1-5.45-5.3,5.35,5.35,0,0,0,3-1.58c3.63-3.79,3.05-9.52,3.36-14.35.15-2.34.08-4.66.09-7,.85-.09,1.71-.18,2.57-.2a10,10,0,0,1,1.34,0,4.47,4.47,0,0,1,.25.76c0,.6-.11,1.21-.1,1.81a3.31,3.31,0,0,0,2.57,3.54,19.22,19.22,0,0,0,2.84.26c1,.07,2,.27,3,.28,2.32,0,4.63.35,6.95.34,1,0,2-.18,3.07-.22a9.14,9.14,0,0,0,2.46-.23,1.86,1.86,0,0,0,.33,0,21.81,21.81,0,0,0,4.2-.16h.07c.11,0,.29,0,.37,0s.46,0,.69,0a2.09,2.09,0,0,0,.95.31c-.1,3.57-.07,7.16-.12,10.73C262.09,396.6,262.07,398.67,262,400.75Zm201.9,53.49-.49.1a17.51,17.51,0,0,1-1.91.25c-3.1.2-6.34-.12-9.45-.16l-10.61-.14c-14.21-.18-28.42.08-42.63-.1l-5.81-.08c-1,0-1.93,0-2.9,0a9.61,9.61,0,0,1-2.14.05c-1.39-.35-1.13-2.48-1.1-3.66,0-1.72-.21-3.47.44-5.11a1.79,1.79,0,0,0,.13-.57c4.25.3,8.5.74,12.76.88,6.53.21,13.14-.18,19.67-.33,7.37-.16,14.71-.15,22.08-.06,1.87,0,3.74.08,5.61.07s3.48-.3,5.22-.36c2.83-.1,5.68,0,8.53.07a1.81,1.81,0,0,0,.53,0h.23l1.53,0a13.43,13.43,0,0,0-.25,1.65,17.07,17.07,0,0,0,.31,4.1A14.19,14.19,0,0,1,463.94,454.24ZM531,421a20.37,20.37,0,0,0-5,3c-2.12,1.55-4.23,3.1-6.45,4.5a28,28,0,0,0-9.95,10.28,8.92,8.92,0,0,1-1.2,2.24,2.56,2.56,0,0,1-1.79.37,19.07,19.07,0,0,1-4.27-.07,10.39,10.39,0,0,1,0-1.12c.1-2.38,1.19-6.77-1.78-7.8-2-.67-3,1.72-2.07,3.08,0-.14.07-.14.11.13a2,2,0,0,0,.87.58,1.88,1.88,0,0,1-.87-.52,1.48,1.48,0,0,1,0,.22c0,.34,0,.69,0,1,0,.72-.11,1.44-.15,2.17l0,.36-.23.18c-1,.16-2,.22-3.08.38a29,29,0,0,1-4.56.44c-1.62,0-3.25-.15-4.87-.12s-3.16.3-4.76.29a43.53,43.53,0,0,0-4.71,0,41,41,0,0,1-4.7.27c-1.72,0-3.42,0-5.11.06a2.23,2.23,0,0,0-1.28.07c-1.05.06-2.1.1-3.16.19l-7.82-.11c-3.2,0-6.38.37-9.59.33-6.69-.08-13.38-.28-20.07-.09s-13.38.35-20.07.47-13.11-.63-19.65-1.06-13.13-.22-19.68-.36-13.37-.39-20.06-.42-13.51.44-20.27.61-13.25,0-19.87,0c-3.65-.05-7.3-.05-10.95-.33s-7.38-.81-11.11-.82-7.2-.58-10.82-.62c-1.7,0-3.51-.3-5.23-.17a9.58,9.58,0,0,0,.05-1.6c-.11-1.16-.35-2.3-.45-3.47S266,431.18,266,430s.05-2.37.07-3.55a53.15,53.15,0,0,1,.37-7c0-.17,0-.34.08-.51,1.22.06,2.44.16,3.66.34,2.07.3,4.13.13,6.21.44,4.29.66,8.85.18,13.19.23,2.13,0,4.3,0,6.43.2s4.07.56,6.18.57,3.91-.08,5.87-.25a30.46,30.46,0,0,1,6.68.25c8.76,1.07,17.77.39,26.57.48,4.51.05,9,0,13.52.07s9,.67,13.5.74c8.86.15,17.71-.3,26.56-.37,9.05-.08,18.09-.37,27.13-.43,4.38,0,8.76.12,13.12.47,2,.16,3.93.53,5.9.74a67.77,67.77,0,0,0,7,.16c8.85,0,17.7.43,26.55.38,4.66,0,9.4-.16,14-.4,2.52-.12,5-.35,7.55-.29a58.69,58.69,0,0,0,7.5-.15c4.7-.47,9.55-.81,14.28-.86,4.37-.05,8.66-.65,13-.72C531,420.68,531,420.82,531,421ZM792.49,201.13a50,50,0,0,1,.29,5.74,69.32,69.32,0,0,1-.91,11,40,40,0,0,0-.76,4.74c-.12,2,.08,3.91-.13,5.86-.41,3.78-.32,7.5-.37,11.31s-.85,7.62-.56,11.42c.6,7.68.19,15.45.08,23.16-.06,3.89-.58,7.74-.6,11.61,0,1.71,0,3.42,0,5.13-.09,2.07-.57,4.09-.86,6.14a74,74,0,0,0-.31,11.44c0,1.7,0,3.41-.06,5.11-.1,2-.55,3.93-.53,5.9,0,1.81.4,3.57.5,5.36s-.13,3.64-.12,5.46a46,46,0,0,1-.62,4.82,53.47,53.47,0,0,0-.13,6.2c.15,7.74-.52,15.43-.62,23.16-.05,4.33,0,8.67-.19,13S786,386.3,786,390.6s.28,8.58-.24,12.73c-.23,1.88-.34,3.64-.41,5.53a16,16,0,0,1-.35,2.59s-.11.4-.17.69a1.76,1.76,0,0,0-.39.38,1.86,1.86,0,0,0-.31,3.07,4.7,4.7,0,0,1-.46.56,4.08,4.08,0,0,1-.6.58c0-.08-.64,0-.77,0l-1-.05a2.17,2.17,0,0,0-2.46-.07l-2.43,0a1.7,1.7,0,0,0-1.38,0h-.8c-2.23,0-4.53-.2-6.75,0-2.05.17-4,.44-6.08.42s-4.32-.14-6.47-.22a43.43,43.43,0,0,0-5.82.12c-2.11.21-4.2.12-6.3.28-8.47.66-16.94-.41-25.41,0-8.72.46-17.4.21-26.14.11s-17.26.35-25.91.15c-3.91-.09-7.83-.06-11.74,0-.32-.09-.64-.19-1-.31l-.49-.16q-5.72.31-11.44.33l-.41.07c-.3,0-.6.09-.9.14H639l-26.86-.34c-2.08,0-4.15,0-6.23,0-2.25,0-4.47-.36-6.71-.49-4.1-.24-8.09-.79-12.22-.78-4.8,0-9.6-.09-14.4-.15l-4.2-.06c-2.79-.68-5.71-.24-8.58.22-.37,0-.74,0-1.12.08a26.86,26.86,0,0,1-4.11,0c-8.2,1.69-16.54.24-24.82,1a1.52,1.52,0,0,1-1.16-.43c-.77,0-1.54.08-2.3.17a59.45,59.45,0,0,1-6.39.56c-4.36,0-8.67.44-13,.66-2.06.1-4.12.4-6.18.45-2.32.05-4.63-.18-6.95-.11-4.29.14-8.61.25-12.91.47-8.77.46-17.59,0-26.37-.08-4.41-.06-8.93.23-13.31-.24s-8.46-1-12.75-1.12c-8.74-.29-17.49.24-26.23.29-9.1.06-18.19.38-27.28.43s-18-.79-27.05-.79-17.83.16-26.73-.12c-4.76-.15-9.37-1-14.12-.53a44.48,44.48,0,0,1-7,.1c-2.37-.16-4.67-.6-7.07-.67-4.9-.15-9.88.26-14.77-.08-1.11-.08-2.2-.36-3.32-.46s-2.29.05-3.44,0c-1.58-.12-3.14-.31-4.71-.43-.1-.63-.3-1.24-.39-1.88-.27-1.88.34-3.73-.05-5.64a26.1,26.1,0,0,1-.23-5.8c0-2.17,0-4.34.08-6.51.06-4.36,0-8.74.19-13.1a32,32,0,0,0,0-5.87,44.56,44.56,0,0,1-.73-6.71,2,2,0,0,0-.13-.72c0-.63.09-1.25.13-1.88.17-2.48-.09-4.9-.1-7.38s.16-5.15,0-7.73c-.31-5.09-.45-10.29-.38-15.39.09-5.57.56-11.16.44-16.73a1.87,1.87,0,0,0-.2-.85c.05-3.37.11-6.75.14-10.12a54.77,54.77,0,0,1,.4-6.53,65.23,65.23,0,0,0,.2-7.13c.15-9.74.26-19.49.39-29.23.06-4.61.06-9.21.42-13.82s0-9.51.49-14.23c.44-4.52.44-9,.51-13.55,0-2.35-.17-4.65-.29-7a69.38,69.38,0,0,1,.34-7.62c.17-2.71-.35-5.3-.38-8,0-2.43.26-4.84.24-7.26a53.33,53.33,0,0,0-1-7.46,41.71,41.71,0,0,1-.11-7.16l.36,0a61.32,61.32,0,0,1,12.26-.58c4.28.08,8.56-.37,12.85-.36s8.49.21,12.73.22,8.26-.43,12.38-.67a168.1,168.1,0,0,1,26.92.63c4.44.45,8.85,1.2,13.31,1.5s8.69-.18,13.08-.23c8.46-.1,17,.09,25.43.33,4.2.12,8.33,1,12.53,1.07s8.46.24,12.71.57c8.77.68,17.67.26,26.47.37s17.88.27,26.82.48c17.11.41,34.2-.42,51.29-.8,8.8-.19,17.56-.56,26.36-.93,8.57-.36,17.09.46,25.64.69,4.15.12,8.23.6,12.39.37s8.47-.16,12.76,0c9,.23,17.88,1,26.84,1.23,4.4.13,8.8.14,13.2.19s8.73.54,13.1.62c4.2.07,8.37.56,12.57.6,3.94,0,7.81.63,11.73.66,4.24,0,8.49,0,12.73.11s8.68.64,13,.71c8.45.12,17-.28,25.4.38s17.07,1,25.61,1.83c4.2.39,8.42.26,12.63.3,2,0,3.92.2,5.88.23s3.69-.41,5.59-.55,3.64.08,5.44.13a31.71,31.71,0,0,0,5.32-.49h0l.8.32a5.38,5.38,0,0,0-.21.81,9.17,9.17,0,0,0-.06,2c0,.77,0,1.53,0,2.31,0,.93.45,1.78.48,2.68a12,12,0,0,1-.4,2.2A9.62,9.62,0,0,0,792.49,201.13Zm4.74-30.48c-.62,3.78-1.52,7.7-1.4,11.54,0,.68.08,1.36.09,2,0,.15,0,.33,0,.51a1.23,1.23,0,0,0-.44-.16l-.37-.06a2.52,2.52,0,0,0-1.48.19q-.52-.19-1-.42a13.88,13.88,0,0,1-5-.25,2.31,2.31,0,0,0-.2.63,50.72,50.72,0,0,0-7.5.16c-4,.59-8,.19-12,.19-8.55,0-17-1.05-25.49-1.5s-16.7-.88-25.09-1c-4.38,0-8.76,0-13.13-.09s-8.68-.64-13-.7c-8.32-.11-16.57-.55-24.88-.77s-16.82-1.09-25.27-1.21c-8.92-.12-17.79-.46-26.7-1-4.42-.25-8.84-.33-13.27-.5s-8.49.1-12.78.19c-8.35.19-16.71-.92-25.05-1.08-8.74-.17-17.37.44-26.1.74s-17.32.29-26,.7c-4.22.19-8.42-.11-12.64,0-4.41.12-8.81.38-13.23.39-17.64,0-35.27-.8-52.91-.71-4.38,0-8.71-.11-13.07-.46s-8.5-.21-12.75-.48-8.62-1-13-1c-4.15,0-8.3-.11-12.45-.16s-8.36-.34-12.5-.06a78.26,78.26,0,0,1-13.08,0c-9-.85-17.83-2.17-26.88-2.28-8.54-.11-17.06,1.18-25.6,1-4.29-.11-8.58-.22-12.88-.19s-8.45.44-12.7.3a53.79,53.79,0,0,0-11.12.72l-.23,0a37.26,37.26,0,0,0-3.8.35,17.16,17.16,0,0,1-2.69-.09c0-.37,0-1,0-1.08,0-1.3.05-2.61.07-3.91,0-2.63.07-5.26.1-7.88,0-1.29,0-2.58.06-3.87a9.87,9.87,0,0,0-.09-2l0-.1a28.33,28.33,0,0,1,5.5-.68c2.2.12,4.36.52,6.59.56,4.81.08,9.63.16,14.45.27s9.18-.55,13.82-.81,9.23-.38,13.88-.32c9.28.11,18.49,1.47,27.75,1.73s18.55.66,27.74.31c4.8-.18,9.46-.44,14.28-.19s9.8.58,14.72.57c9.68,0,19.3-1.15,29-.95,2.1,0,4.21,0,6.3.1,2.44.13,4.8.7,7.21,1,4.34.55,8.75-.45,13.12-.4,9.58.1,19.17.34,28.76.47,4.62.06,9.3-.09,13.9.32s8.92.87,13.4.92,9.2.14,13.81.19,9.46.58,14.22.62a116.56,116.56,0,0,1,14,.69c4.67.61,9.26,1.57,14,1.92,9.51.71,18.93-.55,28.42-1.05s18.73-.11,28.05-.87c4.68-.37,9.48.07,14.17.1s9.54.31,14.33.69c9.07.72,18,.08,27.1.32,4.76.12,9.41.48,14.18.36s9.31.35,14,.51c9.15.31,18.25,1.07,27.42,1.19,4.65.07,9.3.18,14,.2s9.38-.59,14.1-.41c4.44.17,8.93.07,13.36.39s9,1.22,13.46,1.42c1.9.08,4-.23,5.83.18a6.06,6.06,0,0,1,2.54,1.09C797.71,168.47,797.41,169.59,797.23,170.65Z"/><path class="cls-4" d="M461.38,427.59c0-2.53-3.91-2.6-3.94,0a7.89,7.89,0,0,1-.18,3c-.36.76-1.31.81-2.07.88-2.43.23-4.91.16-7.35.33-6.26.41-12.53.85-18.8.88s-12.49-.15-18.73-.22c-2.77,0-5.48.52-8.27.43a22.56,22.56,0,0,1-4-.4,8.74,8.74,0,0,0-4.28-.08,1.13,1.13,0,0,0-.27.13l-2-.26a3.85,3.85,0,0,1-1.43-.43,1.77,1.77,0,0,1-.39-.46c-.08-1.16-.16-2.32-.23-3.48a1.93,1.93,0,0,0-.46-1.18v0a2,2,0,0,0-1.94-2,2,2,0,0,0-2,1.94v.05a2.15,2.15,0,0,0-.38,1.68c.44,2.1.11,4.21.42,6.31a3.67,3.67,0,0,0,3.22,3.13,10.51,10.51,0,0,0,5.08.76c.49,0,1,0,1.47,0h.06q3.57.39,7.16.43a1.8,1.8,0,0,0,1.28-.47c2.88,0,5.76.11,8.63.15,6.7.09,13.51.53,20.19,0,3.28-.28,6.62-.32,9.91-.45,1.59-.06,3.15-.25,4.73-.38s3.34.17,5,.06a31.64,31.64,0,0,0,5-.87c1.24-.28,3-.29,4.11-1a3.29,3.29,0,0,0,1.23-3.45A30,30,0,0,1,461.38,427.59Z"/><path class="cls-8" d="M194.18,448a5.79,5.79,0,0,0-1.31-1.84,4.89,4.89,0,0,0-4-1.69,4.72,4.72,0,0,0-3.13,1.46l-.21.28a4.47,4.47,0,0,0-.87,1,2.88,2.88,0,0,0-.38,2.09,5.64,5.64,0,0,0,.22,2.73,5.72,5.72,0,0,0,2.15,2.88,4.75,4.75,0,0,0,2.84.78,6,6,0,0,0,3.3-1.31,4.92,4.92,0,0,0,1.75-2.73A5.81,5.81,0,0,0,194.18,448Z"/><path class="cls-8" d="M197.75,436.34a5.89,5.89,0,0,0-2.92-2.48l-.05,0a4.92,4.92,0,0,0-1.89-.6c-.54-.14-1.08-.26-1.62-.43a2,2,0,0,0-2.44,1.35,2,2,0,0,0,.75,2.14,2,2,0,0,0,1.56.83h1.09l.78.24a4.73,4.73,0,0,1,.39.28c.54.45,1.06.91,1.61,1.34l.47.21a1.52,1.52,0,0,0,.79,0,1.86,1.86,0,0,0,1.14-.53A2,2,0,0,0,197.75,436.34Z"/><path class="cls-8" d="M204.6,449.21c0-.11,0-.21,0-.32s0-.09,0-.13a6.37,6.37,0,0,0-.41-1.81,11.19,11.19,0,0,1-.49-1.87,1.88,1.88,0,0,0-.89-1.19,2,2,0,0,0-1.51-.22,2,2,0,0,0-1.19.89,2.24,2.24,0,0,0-.22,1.46,1.88,1.88,0,0,0,.18,1.42l.32.57c.12.41.23.82.31,1.24v.11c0,.07,0,.13,0,.2-.25,1-.87,1.9-.87,3a2,2,0,0,0,.95,1.71,2,2,0,0,0,2,0c1.41-1,1.74-2.78,1.87-4.38,0-.15,0-.3,0-.46A2.45,2.45,0,0,0,204.6,449.21Z"/><path class="cls-8" d="M196.78,459.29a2,2,0,0,0-.89-1.19,2,2,0,0,0-1.52-.22,2.33,2.33,0,0,0-1.19.89l.26-.32a7.92,7.92,0,0,1-.88.95l-.23.13-.29.08a12.36,12.36,0,0,1-1.6-.09,5.79,5.79,0,0,0-2.27.14,2,2,0,0,0-1.39,1.36,2,2,0,0,0,.48,1.93,4.72,4.72,0,0,0,3,1.39,6,6,0,0,0,2.86-.64,1.44,1.44,0,0,0,.58-.5,5.93,5.93,0,0,0,1.5-.87,10.34,10.34,0,0,0,1.35-1.53A2,2,0,0,0,196.78,459.29Z"/><path class="cls-8" d="M180.73,456.4c0-.13-.09-.26-.13-.39a1.51,1.51,0,0,0,.14-.35,2,2,0,0,0-.78-2.13c-.06-1.24.24-2.51-.14-3.73a2,2,0,0,0-1.36-1.39,1.94,1.94,0,0,0-1.92.48,5,5,0,0,0-.92,4.53,6.47,6.47,0,0,0,.67,1.81,17.18,17.18,0,0,0,.62,2.17,2.17,2.17,0,0,0,.89,1.19,2.07,2.07,0,0,0,1.52.22A2,2,0,0,0,180.73,456.4Z"/><path class="cls-8" d="M184.84,437.66a2.34,2.34,0,0,0-.5-.88,1.94,1.94,0,0,0-1.38-.59l-.3,0a2.08,2.08,0,0,0-1.4.56.93.93,0,0,0-.13.15c-.92.6-1.74,1.34-2.6,2a7,7,0,0,1-.93.6,2,2,0,0,0-.92,1.17,2,2,0,0,0,2.87,2.26,22.82,22.82,0,0,0,3.17-2.38,8.46,8.46,0,0,1,1.18-.72l.41-.3a1.53,1.53,0,0,0,.41-.63A1.88,1.88,0,0,0,184.84,437.66Z"/><path class="cls-8" d="M566,454.15a5.82,5.82,0,0,0-1.32-1.84,4.83,4.83,0,0,0-4-1.68,4.67,4.67,0,0,0-3.13,1.45c-.08.09-.14.19-.22.28a4.74,4.74,0,0,0-.87,1,2.93,2.93,0,0,0-.38,2.09,5.89,5.89,0,0,0,.22,2.73,5.78,5.78,0,0,0,2.15,2.88,4.78,4.78,0,0,0,2.85.78,6,6,0,0,0,3.3-1.31,4.92,4.92,0,0,0,1.75-2.73A5.88,5.88,0,0,0,566,454.15Z"/><path class="cls-8" d="M569.6,442.45a6.14,6.14,0,0,0-1.65-1.79,6.25,6.25,0,0,0-1.27-.69l0,0a5,5,0,0,0-1.89-.6c-.54-.14-1.09-.26-1.62-.43a2,2,0,0,0-2.44,1.35,2,2,0,0,0,.75,2.14,1.93,1.93,0,0,0,1.56.83h1.09c.26.07.52.15.77.24a3.6,3.6,0,0,1,.4.28c.54.45,1.06.91,1.61,1.34l.47.21a1.48,1.48,0,0,0,.78,0,1.86,1.86,0,0,0,1.14-.52A2,2,0,0,0,569.6,442.45Z"/><path class="cls-8" d="M576.46,455.32c0-.11,0-.21,0-.32s0-.09,0-.13a6.38,6.38,0,0,0-.42-1.81,11.16,11.16,0,0,1-.48-1.87,2,2,0,0,0-.89-1.19,2,2,0,0,0-1.52-.22,2,2,0,0,0-1.19.89,2.3,2.3,0,0,0-.22,1.46,1.89,1.89,0,0,0,.19,1.42l.31.57a9,9,0,0,1,.31,1.24s0,.07,0,.11,0,.13,0,.2c-.25,1-.87,1.9-.87,3a2,2,0,0,0,1,1.71,1.93,1.93,0,0,0,2,0c1.41-1,1.74-2.78,1.88-4.38,0-.15,0-.3,0-.46S576.46,455.41,576.46,455.32Z"/><path class="cls-8" d="M568.63,465.4a2,2,0,0,0-.89-1.19,2,2,0,0,0-1.51-.22,2.35,2.35,0,0,0-1.19.89l.25-.32a7.92,7.92,0,0,1-.88.95l-.22.13-.29.08a12.16,12.16,0,0,1-1.6-.09,5.79,5.79,0,0,0-2.27.14,2,2,0,0,0-1.4,1.36,2,2,0,0,0,.49,1.93,4.7,4.7,0,0,0,3,1.39,6,6,0,0,0,2.86-.64,1.44,1.44,0,0,0,.58-.5,5.71,5.71,0,0,0,1.49-.87,9.86,9.86,0,0,0,1.36-1.53A2,2,0,0,0,568.63,465.4Z"/><path class="cls-8" d="M552.58,462.51c-.05-.13-.08-.26-.13-.39a1.17,1.17,0,0,0,.14-.35,2,2,0,0,0-.78-2.13c-.06-1.24.25-2.51-.14-3.73a2,2,0,0,0-1.36-1.39,2,2,0,0,0-1.92.48,5,5,0,0,0-.91,4.53,5.9,5.9,0,0,0,.67,1.81,17.18,17.18,0,0,0,.62,2.17,2.12,2.12,0,0,0,.89,1.19,2,2,0,0,0,1.51.22A2,2,0,0,0,552.58,462.51Z"/><path class="cls-8" d="M556.69,443.77a2.32,2.32,0,0,0-.49-.88,2,2,0,0,0-1.39-.59l-.29,0a2.08,2.08,0,0,0-1.4.56.93.93,0,0,0-.13.15,32,32,0,0,0-2.61,2,9,9,0,0,1-.92.59,2,2,0,0,0-.92,1.17,2,2,0,0,0,.18,1.52,2,2,0,0,0,2.68.74,22.33,22.33,0,0,0,3.18-2.38,7.44,7.44,0,0,1,1.18-.72l.4-.3a1.49,1.49,0,0,0,.42-.63A1.88,1.88,0,0,0,556.69,443.77Z"/><path class="cls-8" d="M650.54,455.24a5.79,5.79,0,0,0-1.31-1.84,4.85,4.85,0,0,0-4-1.68,4.67,4.67,0,0,0-3.13,1.45c-.08.09-.14.19-.21.28a4.47,4.47,0,0,0-.87,1,2.84,2.84,0,0,0-.38,2.09,5.67,5.67,0,0,0,2.37,5.61,4.75,4.75,0,0,0,2.84.78,6,6,0,0,0,3.3-1.31,4.92,4.92,0,0,0,1.75-2.73A5.81,5.81,0,0,0,650.54,455.24Z"/><path class="cls-8" d="M654.1,443.54a6,6,0,0,0-1.65-1.79,5.76,5.76,0,0,0-1.27-.69l0,0a4.92,4.92,0,0,0-1.89-.6c-.54-.14-1.08-.26-1.62-.43a2,2,0,0,0-2.44,1.35,2,2,0,0,0,.75,2.14,1.93,1.93,0,0,0,1.56.83h1.09l.78.24a4.73,4.73,0,0,1,.39.28c.54.45,1.06.91,1.61,1.34l.47.21a1.51,1.51,0,0,0,.79,0,1.91,1.91,0,0,0,1.14-.52A2,2,0,0,0,654.1,443.54Z"/><path class="cls-8" d="M653.14,466.49a2,2,0,0,0-.89-1.19,2,2,0,0,0-1.52-.22,2.39,2.39,0,0,0-1.19.89l.26-.32a7.26,7.26,0,0,1-.89,1l-.22.13-.29.08a12.36,12.36,0,0,1-1.6-.09,5.79,5.79,0,0,0-2.27.14,2,2,0,0,0-1.39,1.36,2,2,0,0,0,.48,1.93,4.7,4.7,0,0,0,3,1.39,6,6,0,0,0,2.86-.64,1.44,1.44,0,0,0,.58-.5,5.93,5.93,0,0,0,1.5-.87,10.34,10.34,0,0,0,1.35-1.53A2,2,0,0,0,653.14,466.49Z"/><path class="cls-8" d="M637.09,463.6c-.05-.13-.09-.26-.13-.39a1.14,1.14,0,0,0,.13-.35,2,2,0,0,0-.77-2.13c-.06-1.24.24-2.51-.14-3.73a2,2,0,0,0-1.36-1.39,2,2,0,0,0-1.93.48,5,5,0,0,0-.91,4.53,6.47,6.47,0,0,0,.67,1.81,17.18,17.18,0,0,0,.62,2.17,2.17,2.17,0,0,0,.89,1.19,2.07,2.07,0,0,0,1.52.22A2,2,0,0,0,637.09,463.6Z"/><path class="cls-8" d="M641.2,444.86a2.34,2.34,0,0,0-.5-.88,1.94,1.94,0,0,0-1.39-.59l-.29,0a2.08,2.08,0,0,0-1.4.56.93.93,0,0,0-.13.15c-.92.6-1.74,1.34-2.6,2a9.1,9.1,0,0,1-.93.59,2,2,0,0,0-.92,1.17,2,2,0,0,0,.18,1.52,2,2,0,0,0,2.69.74,22.82,22.82,0,0,0,3.17-2.38,7.92,7.92,0,0,1,1.18-.72l.4-.3a1.4,1.4,0,0,0,.42-.63A1.88,1.88,0,0,0,641.2,444.86Z"/><path class="cls-8" d="M215.73,277.09c.17-2.89.19-5.85.13-8.74-.05-1.94-.29-4.1-1.68-5.59-1.89-2-4.82-1.86-7.36-1.88s-2.59,3.93,0,3.94c1.94,0,4.57-.5,5,1.9a34.78,34.78,0,0,1,0,6.92c-.06,2.48-.34,4.82-.58,7.27s0,5.15-.35,7.76c-.32,2.36.06,4.75-.35,7.09a59.84,59.84,0,0,0-.83,7.32c-.13,2.64-.6,5.23-.62,7.88s-.07,5.49-.11,8.23c0,2.54,3.91,2.59,4,.05q0-4.56.1-9.12c0-1.55.34-3,.5-4.56s.13-2.81.23-4.22c.19-2.71.93-5.36.91-8.08a32.89,32.89,0,0,1,.08-4,39.25,39.25,0,0,0,.43-4c0-1.44-.14-2.86,0-4.29S215.65,278.39,215.73,277.09Z"/><path class="cls-8" d="M207.44,386c-2.69-.08-5.35-.52-8.06-.55s-5.68-.06-8.52-.14a115.88,115.88,0,0,0-16,1c-2.6.29-5.23.12-7.83.44a34,34,0,0,0-7.62,2,32,32,0,0,0-6.65,3.43c-2.23,1.49-4.36,2.63-6.22,4.6s-3.52,4.29-5.45,6.29a67.21,67.21,0,0,0-5.37,7.08c-1.51,2,1.88,4.05,3.38,2a71.38,71.38,0,0,1,4.35-5.88c1.58-1.71,3.05-3.45,4.54-5.24a20.92,20.92,0,0,1,5.7-4.82,44.65,44.65,0,0,1,6.46-3.58,35.08,35.08,0,0,1,6.73-2c2.52-.42,5.07-.19,7.6-.43,5.05-.48,10-1.21,15.13-1.07,2.94.08,5.88.12,8.82.16s6,.48,9,.56C209.93,390,210,386.09,207.44,386Z"/><path class="cls-5" d="M84.25,401.77c-.14-1.17-.06-2.34-.13-3.51s-.26-2.24-.26-3.4c0-2.09-.39-4.12-.29-6.22.11-2.26.17-4.51.2-6.77s.17-4.53.1-6.78a3,3,0,0,0-2.1-2.8,1.76,1.76,0,0,0-1.81-.55,3.06,3.06,0,0,0-3.73,2.63,43.73,43.73,0,0,0-.24,8.49c.17,1.89.68,3.76.74,5.65q0,.81.09,1.62a1.67,1.67,0,0,0-.8,1.53,87.2,87.2,0,0,1,.86,11.06c0,1.65.19,3.66,1.49,4.6a2.51,2.51,0,0,0,2.15,1.49c1.29.16,3,0,3.66-1.3C85,406,84.46,403.43,84.25,401.77Z"/><path class="cls-5" d="M119.81,406.45a8.64,8.64,0,0,0-.36-1c0-.12-.07-.24-.11-.36v-.29a2,2,0,0,0-1.77-2,3.29,3.29,0,0,0-1.61-.27l-.62.08h0l-.39,0h0a5.42,5.42,0,0,1-.7-.14c-.43-.08-.87-.15-1.31-.2a16.66,16.66,0,0,0-2.12-.15,3.3,3.3,0,0,0-3.32,2,4.43,4.43,0,0,0-.25.88,1.92,1.92,0,0,0-.18.8c0,.3,0,.6,0,.9a2.13,2.13,0,0,0,.56,1.4l0,0,.06.24c.58,1.75,2.26,2.31,3.94,2.18,1.25-.1,2.49-.17,3.74-.28.69-.06,1.39-.17,2.08-.26a3.14,3.14,0,0,0,1.87-.78A2.91,2.91,0,0,0,119.81,406.45Z"/><path class="cls-9" d="M118,406a2.43,2.43,0,0,0-1.7-2,2.82,2.82,0,0,0-1.41-.09h-.1c-.17-.05-.33-.09-.49-.15a4.82,4.82,0,0,0-1.19-.23,3.39,3.39,0,0,0-.71,0l-.25,0a1.94,1.94,0,0,0-.83,0,1.82,1.82,0,0,0-1.31.21,2,2,0,0,0-.92,1.16,8.4,8.4,0,0,0-.23,1.87,2,2,0,0,0,.41,1.2,1.82,1.82,0,0,0,1,.71,11.83,11.83,0,0,0,2.72.19c.71,0,1.42-.05,2.14,0a2.8,2.8,0,0,0,2-.69A2.6,2.6,0,0,0,118,406Z"/><path class="cls-4" d="M213.88,416c-1.33-.53-2.77-.73-4.13-1.2-1.9-.67-3.68-1.68-5.53-2.49a32.45,32.45,0,0,0-10.9-2.52c-3.57-.27-7.29-.12-10.47,1.69a1.79,1.79,0,0,0-.95,1.84,13.78,13.78,0,0,0-1.7,0c-1.26.12-2.5.35-3.76.44-.43,0-.87,0-1.31,0a2,2,0,0,0-1.59,3.12c-2.21.47-4.41,1-6.59,1.52-2.46.62-1.47,4.44,1,3.82q5.1-1.31,10.27-2.28c1.31-.24,2.62-.58,3.92-.91a2.14,2.14,0,0,0,.74.1,12.88,12.88,0,0,1,5,.32,13.05,13.05,0,0,0,3.84,1.18c.24,0,.48,0,.71,0l.92.26c3.09.76,6.05.06,9.15-.14,3.33-.21,6.6.44,9.93-.12a1.23,1.23,0,0,0,.23-.08c1.21.5,2.39,1.06,3.55,1.68s3.15-.07,3-1.66C219,418.05,216,416.81,213.88,416Z"/><path class="cls-4" d="M219.66,474.36l-.24.23a5.67,5.67,0,0,0-.58.05,10.45,10.45,0,0,0-1.58.28c-1.31.32-2.59.65-3.93.88a40.11,40.11,0,0,1-8.19.48c-1.36,0-2.73-.12-4.09-.06s-2.66.34-4,.39c-2.62.09-5.33,0-8-.08-1.17,0-2.29-.49-3.46-.51s-2.5.35-3.75.39a24.5,24.5,0,0,0-3.31.28,18.76,18.76,0,0,1-3.93.59c-1.31-.06-2.58-.5-3.9-.56-1.11-.06-2.23,0-3.34,0-2.54-.11-4.47-1.76-6.77,0-2,1.57.77,4.38,2.75,2.83-.55.42.85.57,1.21.67a14.75,14.75,0,0,0,1.61.31,36.77,36.77,0,0,0,3.93.13,31.8,31.8,0,0,1,3.64.48,11.9,11.9,0,0,0,3.57-.19c2.48-.44,4.91-.62,7.4-.91a14,14,0,0,1,3.47.38c1.3.15,2.63,0,3.94.06a56.47,56.47,0,0,0,7.91-.25c2.92-.3,5.87.14,8.79,0a40.48,40.48,0,0,0,7.82-1.1,24.79,24.79,0,0,1,3.17-.66,3.72,3.72,0,0,0,2.56-1.32C224.08,475.28,221.34,472.45,219.66,474.36Z"/><path class="cls-4" d="M592,477.32c-.79,1.68-2.42,1.72-4.15,1.76-2.45.05-4.91-.23-7.37-.23s-5.06.57-7.64.5c-2.79-.07-5.57-.19-8.36-.23s-5.58-.1-8.37-.1a64.39,64.39,0,0,1-8.1-.18c-2.47-.29-5-.41-7.42-.77a26.36,26.36,0,0,1-3.59-.85c-.53-.15-1.07-.29-1.61-.41-.36-.09-.73-.17-1.1-.24l-.17-.05c-1.11-1.7-4.25-.7-3.55,1.53.81,2.61,4.14,2.66,6.42,3.29a48.6,48.6,0,0,0,8.42,1.15c6.23.58,12.44.49,18.69.57,3.1,0,6.2.21,9.29.25s5.82-.56,8.79-.48c4.31.12,10.92,1.36,13.2-3.47C596.49,477.08,593.12,475,592,477.32Z"/><path class="cls-4" d="M676.47,478c-1.15-1.44-2.94-.37-3.24,1.08-.54.08-1.09.15-1.63.25a31.08,31.08,0,0,1-3.32.56c-2.6.2-5.25,0-7.85,0-5.53-.08-11.06-.14-16.59-.21a50.7,50.7,0,0,1-7.79-.48,39.92,39.92,0,0,0-7.65-.2c-2.42.05-4.8.46-7.21.51s-3.81-1.6-5.89-2.61c-2.27-1.11-4.31,2.26-2,3.37,2.56,1.26,4.28,3.08,7.32,3.18a26.37,26.37,0,0,0,3.86-.35c1.5-.18,3-.14,4.49-.18s3.2-.14,4.8,0c1.39.08,2.74.43,4.13.57,3.24.34,6.57.18,9.82.22,6.45.08,12.95.42,19.4.21a48.75,48.75,0,0,0,7.78-1.1C677.53,482.28,678.06,480,676.47,478Z"/><path class="cls-4" d="M528.87,414.35c-5.4,1.23-10.93.88-16.42.83-5,0-10.12.79-15.08,0a47.89,47.89,0,0,0-7.93-.69c-1.35,0-2.71.05-4.07,0h-.15a7.91,7.91,0,0,0-.28-1.72c-.28-1-.6-2.05-.94-3.06a9.69,9.69,0,0,0,.65-2.75c.24-2.57-.37-4.92-.82-7.42-.26-1.43-.17-2.91-.34-4.35s-.41-2.63-.59-4c-.42-3.13,0-6.31-.31-9.45-.43-4.69-.07-9.87-2.63-14a2,2,0,0,0-3.6.47,11.4,11.4,0,0,0-.35,4.9c.16,2.23.12,4.46.12,6.69,0,4.76-.32,9.65.24,14.38a69.56,69.56,0,0,0,2.51,13.12c0,.11.08.21.11.32-.5,1-.77,2-1.31,3.12-.84,1.65-2.28,2.69-3,4.47l-.45,0c-2.19-.13-4.42-.16-6.62-.14-4.6,0-9.12,1-13.74,1-9.65,0-19.29,0-28.94,0-5.3,0-10.56-.43-15.85-.72-3.39-.18-6.79-.2-10.19-.19a14.1,14.1,0,0,0,.15-2.52c0-3.25-.33-6.51.21-9.73.39-2.34.85-5,2.16-7,1.51-2.31,4.32-3.95,6.54-5.5a37.46,37.46,0,0,0,6.85-5.56A18.92,18.92,0,0,0,419,376a21.56,21.56,0,0,1,1.46-4.66,18.86,18.86,0,0,0,1.91-5c.44-2.48-3.35-3.55-3.8-1.05-.5,2.84-2.3,5.24-3,8s-1.13,5.6-2.94,7.95c-3.14,4.05-8.08,6.26-11.88,9.57s-5.12,8.29-5.62,13.25c-.32,3.13,0,6.26,0,9.39a7.89,7.89,0,0,1-.06,1c0,.11-.11.29-.11.32a2.07,2.07,0,0,1-.73.35h-1.62a1.78,1.78,0,0,0-1.47.67,70.56,70.56,0,0,1-7.56.27c-3.38.13-6.74.49-10.11.73a199,199,0,0,1-20.14.35c-6.55-.19-13-1.21-19.57-1.42s-13.34.24-20,.29c-7.44.06-15.08.71-22.46-.4A86.74,86.74,0,0,1,281,413.15a30.94,30.94,0,0,0-3.41-.74c1.38-1.14,2.78-2.25,4.19-3.36,3.49-2.72,6.87-5.59,10.39-8.26,2.28-1.73,4.4-3.66,6.69-5.37.72-.45,1.42-.91,2.15-1.36,1-.62,2-1.27,3-1.93s2.26-1.43,3.41-2.18a13.37,13.37,0,0,0,3.47-2.88c1.24-1,2.46-2.05,3.65-3.15a27.94,27.94,0,0,0,5.16-6,23.08,23.08,0,0,0,2.25-5.35c2.15-1.62,4.24-3.32,6.36-5l.3.1c1.86.5,3.82.24,5.69.64a19.62,19.62,0,0,1,4.91,1.88,35.24,35.24,0,0,1,4.27,2.9,16.66,16.66,0,0,0,4.69,2.4c1.4.49,2.34,1.56,3.68,2.11a7.32,7.32,0,0,0,2.55.3c.79.06,1.51.39,2.32.45a2,2,0,0,0,2-1.94l.05-.39c.16-1.07-1-2-1.94-2a1.76,1.76,0,0,0-1,.24,7.28,7.28,0,0,0-1.72-.28c-1,0-1.33-.4-2.12-1-1.62-1.17-3.68-1.32-5.32-2.42s-3.36-2.61-5.23-3.65a26.18,26.18,0,0,0-5.51-2.26,13.52,13.52,0,0,0-3.19-.38c1.24-.84,2.51-1.64,3.83-2.37a8.08,8.08,0,0,0,3.61-3.2,9.68,9.68,0,0,0,.56-4.89,25.57,25.57,0,0,1,.35-5.66c.18-1,.48-2,.75-3a17.86,17.86,0,0,1,.54-2.77,19.35,19.35,0,0,1,1.36-1.9c.16-.27.27-.56.41-.84s.56-.75.23-.57c2.24-1.19.3-4.62-1.95-3.43-1.27.67-1.57,2.08-2.33,3.19a16.75,16.75,0,0,0-1.32,1.92,8.74,8.74,0,0,0-.58,2.67c-.38,2.08-1,4-1.26,6.16a40.23,40.23,0,0,0-.08,5.38,3.92,3.92,0,0,1-.27,2.12,5.09,5.09,0,0,1-2,1.39c-1.41.78-2.75,1.63-4.08,2.53-1.29-1.55-4.14-1.47-6-1.71.11-.61.22-1.23.36-1.84a36.71,36.71,0,0,0,1-4.51c.27-2.7,1.37-5.19,2.25-7.75a56.91,56.91,0,0,1,3.53-7.85,48.23,48.23,0,0,1,4.39-7.3c1.44-1.87,3.77-4.19,3.93-6.68.15-2.24-1.9-3.85-3.39-5.2A17.74,17.74,0,0,1,332,312c-1.29-2.89-2.42-5.86-3.85-8.69a46.28,46.28,0,0,0-4.91-7.52,3.13,3.13,0,0,1-.61-2.89l.08,0a1.54,1.54,0,0,0,1-1.34,7.15,7.15,0,0,0,1.51-1.15c2-.79,4.16-2,3.35-4.58a2,2,0,0,0-2.41-1.41c-1.58.28-2.56,1.55-3.45,2.78a6.83,6.83,0,0,0-2,1.32,7.8,7.8,0,0,0-2.28,6.28c.37,2.43,2.29,4,3.6,6a47.17,47.17,0,0,1,3.87,7.17c1.11,2.47,2,5,3.27,7.45a20.47,20.47,0,0,0,4.85,5.87c.5.46,1.91,1.39,2.06,2.05.11.48-1.29,2.14-1.69,2.68a56.47,56.47,0,0,0-4.54,6.61c-1.29,2.43-2.6,4.85-3.73,7.36s-1.93,5.17-2.92,7.76-1.08,5-1.76,7.59c-.77,2.86-1.32,5.87-1.84,8.78-.95,5.3-1.59,10.5-5.39,14.63a55.56,55.56,0,0,1-5,4.72,1.8,1.8,0,0,0-1.19.89,2.27,2.27,0,0,1-.18.25,72.37,72.37,0,0,1-6.1,4.39l-.48.3c-.91.5-1.83,1-2.71,1.54a28.55,28.55,0,0,0-2.65,1.85c-3.65,2.26-7.3,4.51-10.86,6.91-5.56,3.75-11,7.62-16.53,11.45a1.54,1.54,0,0,0-.77,0,2,2,0,0,0-1.19.89,19.62,19.62,0,0,0-1.4,3.1l-.08.52a1.51,1.51,0,0,0,.16.76,1,1,0,0,0,.25.44,1.42,1.42,0,0,0,.55.51,2.27,2.27,0,0,0,1,.29,1.53,1.53,0,0,0,.76-.16,1.61,1.61,0,0,0,.46-.26,1.89,1.89,0,0,0,.53-.08,1.92,1.92,0,0,0,3,.46c.61-.59,1.24-1.16,1.87-1.74,1.39.23,2.82.37,4.24.68,3.21.71,6.32,1.85,9.54,2.55,6.68,1.45,13.54,1.25,20.33,1.11,7-.15,13.93-.36,20.88-.41s13.63.93,20.48,1.3c7,.39,14.05.3,21.07,0,3.48-.15,6.95-.52,10.43-.76,3.26-.23,6.56,0,9.82-.33a21.53,21.53,0,0,0,4.36-.78c4.31,0,8.63-.08,12.93.12,5,.23,9.9.74,14.86.78,10.19.09,20.39,0,30.59,0,2.21,0,4.4,0,6.61-.26,2.37-.24,4.74-.67,7.13-.73,2.17-.06,4.37,0,6.54.09a47.46,47.46,0,0,0,6.42.23,7.68,7.68,0,0,0,3.18-1c.76,0,1.51.05,2.19.06,3.05.06,6.13-.23,9.15.21a51.22,51.22,0,0,0,8.2.73c2.82,0,5.64-.27,8.46-.28,6.29,0,12.55.45,18.74-1C532.39,417.58,531.35,413.78,528.87,414.35Z"/><path class="cls-7" d="M195.78,279.63l-.29-.05a2.09,2.09,0,0,0-2.46,1.74,7.29,7.29,0,0,0-1.28,2.31c-1.89,2.15-3.26,4.91-4.88,7.2-1.08,1.55-2,3.22-3,4.77-.46.65-.68.54-1.41.76-1,.3-1.87.74-2.82,1-5.76,1.82-11.57,3.37-17.42,4.8.27-1.13.42-2.29.75-3.4a12.31,12.31,0,0,1,.89-2.3,2.94,2.94,0,0,0,0-3.09,4.11,4.11,0,0,0-1.82-1.45c-.39-.18-.79-.34-1.18-.5l-.39-.15-.07,0-.07,0c-.54-.26-1.05-.56-1.56-.85,0-.13,0-.26,0-.4a24.63,24.63,0,0,1,.05-5.08c.44-2,1.69-3.71.08-5.6a2,2,0,0,0-2.38-.34,9.18,9.18,0,0,0-2.16,2.56c-.87,1.24-1.84,2.41-2.74,3.63-1.67,2.3-3.06,4.78-4.52,7.21-.27.45-.55.89-.83,1.33-.32-.18-.65-.37-1-.58a26.35,26.35,0,0,0-4.34-2.35,82.67,82.67,0,0,0-8.8-3.57c-1.94-.59-6-1.59-6.68,1.29a3.44,3.44,0,0,0,1.16,3.15,20.9,20.9,0,0,1,2,3.75,69.57,69.57,0,0,0,5.55,8.25A26.29,26.29,0,0,0,137.2,307l.26.24-.06,0a7.73,7.73,0,0,0-1.4,1.89c-3.87,5.54-8.34,10.59-12.48,15.92-2.32,3-4.75,5.91-7.1,8.89-1.13,1.43-2.27,2.86-3.31,4.36l-.64.93a7.44,7.44,0,0,0-1.82,1.4c-.88,1-.75,3,.83,3.3s2.76-.61,3.69-1.76c.81-.43,1.68-.81,2.44-1.25,2-1.21,4.07-2.48,6-3.82,4-2.7,8-5.25,12-7.81,2.54-1.61,5.06-3.24,7.54-4.94.33.82.82,1.62,1.15,2.43.41,1,.75,2,1.11,3,.65,1.84,1.07,3.75,1.7,5.6a17.3,17.3,0,0,0-1.22,1.69,2.38,2.38,0,0,0-.65,1.41,2.91,2.91,0,0,0,0,.31c-.24,1.93,2.82,2.74,3.66,1a17.71,17.71,0,0,1,2.15-3.08,2,2,0,0,0,0-2,21.62,21.62,0,0,1-.92-3.26c-.29-1.08-.68-2.11-1.05-3.16-.31-.87-.63-1.74-1-2.6-.23-.59-.47-1.18-.74-1.75-.15-.34-.57-.84-.59-1.19a5.06,5.06,0,0,1,.48-1.38c3.37-2.52,6.61-5.23,10.38-7.16a39.53,39.53,0,0,0,8.44,6.22c1.94,1,4.31,1.31,6.41,1.87a22.62,22.62,0,0,0,3.38.63,5.25,5.25,0,0,1,1.88.33,2,2,0,0,0,2.79,0,2,2,0,0,0,0-2.79c-1.55-1.3-3.36-1.28-5.26-1.6a31.45,31.45,0,0,1-3.31-.84c-1.09-.3-2.23-.46-3.31-.81-2-.62-3.88-2.29-5.5-3.55a57.85,57.85,0,0,1-4.64-4.08,5.93,5.93,0,0,1-.24-.78,14.52,14.52,0,0,1-.22-1.63c3.65-.79,7.32-1.55,10.88-2.6,2.07-.62,4.11-1.36,6.18-2s4.39-1.09,6.51-1.86c1.47-.53,3.41-.82,4.53-2a26.59,26.59,0,0,0,2.85-4.31c1.09-1.65,2.32-3.2,3.35-4.88a17.52,17.52,0,0,1,3.25-4.43,1.91,1.91,0,0,0,.51-1.82,6.63,6.63,0,0,0,.71-.89A2,2,0,0,0,195.78,279.63Z"/><path class="cls-8" d="M139.36,303.63c-.31-.28-.72-.4-1-.69a13.8,13.8,0,0,1-1.12-1.49,39,39,0,0,1-4.41-6.68c-.64-1.21-1.23-2.43-1.88-3.62-.46-.83-1.67-2-1.58-2.93.25-2.52-3.69-2.56-3.94-.05a4.67,4.67,0,0,0,1.07,3.3,33.93,33.93,0,0,1,2.24,4,41.84,41.84,0,0,0,4.32,7.15A28.31,28.31,0,0,0,135.8,306a2.31,2.31,0,0,0,.45.32c-.18.29-.4.61-.43.65-.56.75-1.25,1.4-1.8,2.16a29.17,29.17,0,0,1-2,3.12,72,72,0,0,0-5.66,6.55q-2.59,3.49-5.21,7c-1.77,2.32-3.83,4.36-5.67,6.61a81.55,81.55,0,0,1-5.79,6.94c-1.81,1.78.94,4.6,2.75,2.82A49,49,0,0,0,117,336.8c1.48-1.92,3.14-3.63,4.71-5.46,3.14-3.63,5.88-7.62,8.75-11.46,1.43-1.91,3.14-3.43,4.7-5.2,1.23-1.39,2-3.1,3.17-4.53,1-1.21,2.15-2.63,2.1-4.3A3,3,0,0,0,139.36,303.63Z"/><path class="cls-8" d="M157,278.69a2,2,0,0,0-2.79,0,30.73,30.73,0,0,0-2.43,3.64c-.86,1.27-1.9,2.41-2.73,3.7-.36.57-.69,1.17-1.09,1.72a5.6,5.6,0,0,1-.55.64,6,6,0,0,0-.73.95c-.14.24-.24.5-.36.76s-.14.29-.22.43-.31.36,0,.08a3.89,3.89,0,0,0-1.1,2.31,2,2,0,0,0,1.95,2,1.94,1.94,0,0,0,1.85-1.42c-.16.18-.19.21-.1.1l.1-.1a2.94,2.94,0,0,0,.14-.53l-.14.53.11-.12a5.86,5.86,0,0,0,.66-.91c.13-.24.22-.48.34-.73.05-.1.35-.63.21-.44.46-.61,1-1.14,1.44-1.78s.68-1.1,1-1.64c.76-1.16,1.69-2.19,2.47-3.32.37-.54.7-1.1,1-1.67.16-.27.32-.54.49-.8a5,5,0,0,1,.42-.58A2,2,0,0,0,157,278.69Z"/><polygon class="cls-8" points="148.8 293.47 148.8 293.47 148.8 293.47 148.8 293.47 148.8 293.47"/><path class="cls-8" d="M514.94,243.25a48.23,48.23,0,0,1,.24-7.41,46.36,46.36,0,0,0,.28-6.88c0-2.55-.36-5.21,0-7.75a2,2,0,0,0-1.35-2.44,2,2,0,0,0-2.44,1.35c-.76,5,.39,10.14-.39,15.13a51.64,51.64,0,0,0-.31,7.67c0,1.23,0,2.46,0,3.69s.35,2.36.28,3.52c-.15,2.54,3.8,2.58,3.94.05.07-1.1-.29-2.16-.29-3.26S514.92,244.47,514.94,243.25Z"/></g><path class="cls-9" d="M81.74,378.7a1.53,1.53,0,0,0-1-1.42,1.42,1.42,0,0,0-1.21-.65,1.51,1.51,0,0,0-1.5,1.5v.05a1.47,1.47,0,0,0-.31.56,17.09,17.09,0,0,0-.54,4.56c-.06,1.34.06,2.7.07,4a2.45,2.45,0,0,0,0,.27c0,.09,0,.19,0,.29a1.52,1.52,0,0,0,2.51,1.46c1.21-1.21,1.41-3,1.64-4.6.12-.91.35-1.79.42-2.71C81.83,380.93,81.74,379.81,81.74,378.7Z"/><path class="cls-9" d="M79.47,391.92a1.52,1.52,0,0,0-1.5,1.5v8a1.5,1.5,0,0,0,3,0v-8A1.51,1.51,0,0,0,79.47,391.92Z"/></svg>