<svg id="Layer_1" data-name="Layer 1" xmlns="http://www.w3.org/2000/svg" xmlns:xlink="http://www.w3.org/1999/xlink" viewBox="0 0 650 563.3"><defs><style>.cls-1{fill:none;}.cls-2{fill:#f5f5f5;}.cls-3{clip-path:url(#clip-path);}.cls-4{fill:#999;}.cls-5{fill:#fff;}.cls-6{fill:#ddd;}.cls-7{fill:#bbb;}.cls-8{fill:#444;}.cls-9{fill:#fb0;}</style><clipPath id="clip-path"><path class="cls-1" d="M606.44,372.14c-3.71-10.85-8.34-21.43-11-32.63a224.83,224.83,0,0,1-5.51-36c-1.64-23.83,1.08-47.78-.63-71.62-.84-11.54-2.86-23-7.16-33.81a174.52,174.52,0,0,0-15.67-29.83c-11.59-17.94-30.21-30.91-49.54-39.44-20.76-9.16-43.72-12.66-66.15-14.72-23.72-2.17-47.53-2.92-71.24-5.13-12.33-1.15-24.65-2.45-36.85-4.57a301.15,301.15,0,0,1-34.62-8.57c-43.26-13-92.36-25-135.58-5.34A95.9,95.9,0,0,0,147.21,107c-7.76,7.14-13.85,15.66-19.4,24.56a143.24,143.24,0,0,0-14,28.53c-3.83,11-6.19,22.39-9.37,33.54-6.41,22.53-17.58,42.8-31.57,61.49-12.35,16.51-26,32.29-35.62,50.63-4.67,8.89-9,18.75-10,28.83-.58,5.78,0,11.57.6,17.32S29,363.39,30,369.06c2.07,11.31,7.37,22.3,12.26,32.65a168.93,168.93,0,0,0,17.65,28.65,190.08,190.08,0,0,0,21.33,24c4.28,4.08,8.24,8.49,12.51,12.58a159.18,159.18,0,0,0,12.69,10.47,174.25,174.25,0,0,0,28.36,17.36c9.73,4.91,20,9.1,30.92,10.45a103,103,0,0,0,15.48,1.19,36.61,36.61,0,0,0,6.67-.88l1-.21a1.49,1.49,0,0,0,.32,2.28c1.35.84,2.84.64,4.32.36,1.68-.3,3.4-.35,5.1-.63a112.51,112.51,0,0,1,11.9-1c4.09-.24,8.17-.23,12.26-.22s8.19-.27,12.22,0c1.86.12,3.67.66,5.52.83,2,.2,4-.06,6.08,0s4.13.53,6.21.7,3.92.19,5.89.19a103.87,103.87,0,0,1,12.09.54c4,.47,7.91,1.28,11.91,1.61,3.4.29,6.82.35,10.23.36a50.9,50.9,0,0,0,9.95.33c1.56-.1,3.14-.17,4.69-.4l.12,0a1.45,1.45,0,0,0,1.19-.25,24.75,24.75,0,0,1,3.84-.6c3.66-.13,7.32.17,11,0s7.13-.51,10.69-.7c7.3-.37,14.62.1,21.92-.09,3.62-.09,7.19-.84,10.82-.85H378c14.93,0,29.87,0,44.8,0,7.43,0,14.86,0,22.28.3s14.82,1.06,22.25,1.25c8.2.22,16.4.14,24.6.14h12c3.59,0,7.12-.25,10.42-1.74a1.33,1.33,0,0,0,2,.68c2.05-1.37,4.39-1.57,6.77-1.92,3-.44,6-1.05,9-1.64,5.65-1.11,11.35-1.66,17-2.51a67.72,67.72,0,0,0,16.24-4.75c4.82-2,9.8-3.89,14.06-7a70,70,0,0,0,11.39-10.77,65.84,65.84,0,0,0,4.68-5.74c1.55-2.25,2.43-4.86,3.78-7.21,2.55-4.46,5.42-8.39,7.26-13.24a162.31,162.31,0,0,0,4.95-16.32C617.18,416.11,613.45,392.65,606.44,372.14ZM190.74,505a6.44,6.44,0,0,1,2,.06A2.78,2.78,0,0,1,190.74,505Z"/></clipPath></defs><title>truck-insurance</title><path class="cls-2" d="M606.44,372.14c-3.71-10.85-8.34-21.43-11-32.63a224.83,224.83,0,0,1-5.51-36c-1.64-23.83,1.08-47.78-.63-71.62-.84-11.54-2.86-23-7.16-33.81a174.52,174.52,0,0,0-15.67-29.83c-11.59-17.94-30.21-30.91-49.54-39.44-20.76-9.16-43.72-12.66-66.15-14.72-23.72-2.17-47.53-2.92-71.24-5.13-12.33-1.15-24.65-2.45-36.85-4.57a301.15,301.15,0,0,1-34.62-8.57c-43.26-13-92.36-25-135.58-5.34A95.9,95.9,0,0,0,147.21,107c-7.76,7.14-13.85,15.66-19.4,24.56a143.24,143.24,0,0,0-14,28.53c-3.83,11-6.19,22.39-9.37,33.54-6.41,22.53-17.58,42.8-31.57,61.49-12.35,16.51-26,32.29-35.62,50.63-4.67,8.89-9,18.75-10,28.83-.58,5.78,0,11.57.6,17.32S29,363.39,30,369.06c2.07,11.31,7.37,22.3,12.26,32.65a168.93,168.93,0,0,0,17.65,28.65,190.08,190.08,0,0,0,21.33,24c4.28,4.08,8.24,8.49,12.51,12.58a159.18,159.18,0,0,0,12.69,10.47,174.25,174.25,0,0,0,28.36,17.36c9.73,4.91,20,9.1,30.92,10.45a103,103,0,0,0,15.48,1.19,36.61,36.61,0,0,0,6.67-.88l1-.21a1.49,1.49,0,0,0,.32,2.28c1.35.84,2.84.64,4.32.36,1.68-.3,3.4-.35,5.1-.63a112.51,112.51,0,0,1,11.9-1c4.09-.24,8.17-.23,12.26-.22s8.19-.27,12.22,0c1.86.12,3.67.66,5.52.83,2,.2,4-.06,6.08,0s4.13.53,6.21.7,3.92.19,5.89.19a103.87,103.87,0,0,1,12.09.54c4,.47,7.91,1.28,11.91,1.61,3.4.29,6.82.35,10.23.36a50.9,50.9,0,0,0,9.95.33c1.56-.1,3.14-.17,4.69-.4l.12,0a1.45,1.45,0,0,0,1.19-.25,24.75,24.75,0,0,1,3.84-.6c3.66-.13,7.32.17,11,0s7.13-.51,10.69-.7c7.3-.37,14.62.1,21.92-.09,3.62-.09,7.19-.84,10.82-.85H378c14.93,0,29.87,0,44.8,0,7.43,0,14.86,0,22.28.3s14.82,1.06,22.25,1.25c8.2.22,16.4.14,24.6.14h12c3.59,0,7.12-.25,10.42-1.74a1.33,1.33,0,0,0,2,.68c2.05-1.37,4.39-1.57,6.77-1.92,3-.44,6-1.05,9-1.64,5.65-1.11,11.35-1.66,17-2.51a67.72,67.72,0,0,0,16.24-4.75c4.82-2,9.8-3.89,14.06-7a70,70,0,0,0,11.39-10.77,65.84,65.84,0,0,0,4.68-5.74c1.55-2.25,2.43-4.86,3.78-7.21,2.55-4.46,5.42-8.39,7.26-13.24a162.31,162.31,0,0,0,4.95-16.32C617.18,416.11,613.45,392.65,606.44,372.14ZM190.74,505a6.44,6.44,0,0,1,2,.06A2.78,2.78,0,0,1,190.74,505Z"/><g class="cls-3"><path class="cls-2" d="M545-3.34c0-1.2,0-2.39,0-3.59a8,8,0,0,0-.31-3,5.58,5.58,0,0,0-2.34-2.79,2.08,2.08,0,0,0-1.38-.69,7,7,0,0,0-.69-.24,2.25,2.25,0,0,0-1.84.27c-3.51.12-7,.41-10.52.43-4.08,0-8.17,0-12.26,0s-7.92.52-11.9.47c-1.94,0-3.89-.12-5.82,0s-3.67.48-5.53.56c-14.85.61-29.76-.43-44.63,0-7.35.22-14.7.39-22,.79s-14.94.11-22.38.11-15.09,0-22.63.21-14.91.65-22.37.73c-9.54.1-19.09.08-28.64,0a2.34,2.34,0,0,0-.39,0l-8.14,0-8.13,0a2.58,2.58,0,0,0-.4,0c-9.55,0-19.09.05-28.64,0-7.46-.08-14.91-.48-22.36-.73S246.56-11,239-11s-14.94.29-22.37-.11-14.7-.57-22-.79c-14.86-.43-29.77.61-44.62,0-1.86-.08-3.67-.46-5.53-.56s-3.89,0-5.82,0c-4,.05-7.93-.45-11.91-.47s-8.17,0-12.26,0c-3.51,0-7-.31-10.52-.43a2.23,2.23,0,0,0-1.84-.27q-.34.11-.69.24a2.08,2.08,0,0,0-1.37.69,5.65,5.65,0,0,0-2.35,2.79,8.42,8.42,0,0,0-.31,3c0,1.2,0,2.39,0,3.59a32.18,32.18,0,0,0,.44,6.79c.43,2.05.1,4.16.08,6.24a1.83,1.83,0,0,0,.88,1.63,2.28,2.28,0,0,0,1.42.47,87.89,87.89,0,0,1,8.85.92,95.74,95.74,0,0,0-.19,12.1c0,5.3-.37,10.59-.49,15.89a129.17,129.17,0,0,0,.29,15.24c.5,5.09.2,10.3.2,15.41q0,15.77,0,31.53c0,5,.54,9.94.52,14.92,0,5.32,0,10.63,0,15.94q0,9,0,17.9v8.57c0,1.15,0,2.3,0,3.45,0,.59.11,1.19.13,1.79a1.84,1.84,0,0,0-.38,2.46c.12.21.25.41.38.62,0,1.49,0,3,.06,4.45.06,2.13.15,4.26.08,6.39s-.68,4.36-.63,6.55c0,1,.24,2.08.17,3.12s-.43,1.84-.58,2.78c-.31,2,0,4.1-.22,6.14a21.87,21.87,0,0,0-.16,6.51,21.91,21.91,0,0,1,.79,4.61,6.84,6.84,0,0,0-.83.7c-2,2,1.26,5,3.26,3a13.24,13.24,0,0,1,3.26-1.87c1.37-.75,2.67-1.57,4.05-2.3,2.93-1.55,6-3,9-4.35q9-4.06,18.38-7.26c12.76-4.34,25.86-7.06,39.11-9.75,13.88-2.83,28.14-4.31,42.26-5.82,14.39-1.54,28.84-2.43,43.3-3.28,29.08-1.72,58.22-2.88,87.37-2.53s58.31,1.52,87.37,3.24c14.31.84,28.64,1.78,42.92,2.94a197.22,197.22,0,0,1,21,2.64l4.91.94c1.72.32,2.11,1.42,3.44,2.33,2.22,1.52,5.14,2.08,7.47,3.51.18.12.94.75,1.35,1a3,3,0,0,0,.29,3c1.07,1.77,3.55,1,4.15-.44,1.47,2.29,5.38.19,3.94-2.17-1-1.7-.08-4.23-.37-6.11a9.52,9.52,0,0,0-1.21-2.92,6.63,6.63,0,0,1-.73-3c-.15-3.94-.07-7.9,0-11.85,0,0,0,0,0,0l.43-.71a1.85,1.85,0,0,0-.38-2.46c0-.6.1-1.2.13-1.79.07-1.15,0-2.3,0-3.45v-8.57q0-8.94,0-17.9,0-8,0-15.94c0-5,.51-9.93.51-14.92q0-15.76,0-31.53c0-5.11-.31-10.32.19-15.41A125,125,0,0,0,534,40.7c-.12-5.3-.53-10.59-.48-15.89a97.64,97.64,0,0,0-.19-12.1,88,88,0,0,1,8.84-.92,2.33,2.33,0,0,0,1.43-.47,1.82,1.82,0,0,0,.87-1.63c0-2.08-.35-4.19.08-6.24A32.86,32.86,0,0,0,545-3.34Z"/><path class="cls-4" d="M540-1.78a1.71,1.71,0,0,0,.39-2.47,24.77,24.77,0,0,0,.26-3.1,2.29,2.29,0,0,0-2.92-2,4.74,4.74,0,0,0-1.48.81c-.09-.06-.15-.13-.24-.19a2.46,2.46,0,0,0-3.15.76,8.42,8.42,0,0,0-1.09,2.8c-.25,1-.62,1.92-.92,2.88-.67,2.16-1.1,4.36-2,6.47-1.48,3.52-4.53,5.49-7.82,7.54a2.41,2.41,0,0,0-1,1.2c-.85-.11-1.69-.23-2.54-.33-.57-.06-1.15-.11-1.73-.14a2.17,2.17,0,0,0-1.92-1c-10.2-.17-20.4-.41-30.6-.64a2.11,2.11,0,0,0-2.14-2.7c-7.3-.13-14.6-.49-21.9-.5s-14.76.4-22.12.8c-7,.38-13.95.79-20.94,1-2-.1-4-.2-6.06-.28-5-.2-10.09.08-15.13-.12a1.93,1.93,0,0,0-2.14,1.38q-3.1.09-6.21.08a2.1,2.1,0,0,0-2.06,2.92q-16.56-.09-33.12.05l-7.22.08c-6.24-.22-12.5-.22-18.75-.21-4,0-8-.07-11.94.15-1.8.1-3.6.23-5.39.32-10.07,0-20.12-.23-30.19-.39-12.15-.2-24.31,0-36.46-.15q-8-.08-16.06-.18a2.19,2.19,0,0,0-1.69-.68H177.22c-2.51,0-5,.05-7.53,0a25,25,0,0,0-3.24,0h-7.67c-5.76,0-11.51-.07-17.27-.34-2-.1-4.07-.15-6.12-.17A2.51,2.51,0,0,0,133.82,10c-5.35-1.9-11.38-2.17-16.5-4.63A13.06,13.06,0,0,1,113,2.12a1.58,1.58,0,0,0,.09-1.59,40,40,0,0,1-2.23-6.93,2,2,0,0,0-.66-1c-.07-.29-.17-.57-.21-.86a2.28,2.28,0,0,0-2.3-2.1,2.35,2.35,0,0,0-1.72.73,2.17,2.17,0,0,0-2.11.93,2.25,2.25,0,0,0-3,1.37l-.24,1.06c-.2.42-.56.83-.75,1.18a7.89,7.89,0,0,0-.83,2,7.08,7.08,0,0,0,.33,4.36,11.64,11.64,0,0,0,.69,1.42c.28,2.23.59,4.81,2.44,6.33a2.46,2.46,0,0,0,3.61-.42,48.88,48.88,0,0,0,9.18,3.72l-.76,0c-3,.1-3,4.32,0,4.21l2.55-.1a2.15,2.15,0,0,0,1.65,1.85c2.71.54,5.69.16,8.44.16,3.37,0,6.73,0,10.09-.07q10.4-.26,20.79-.46c10.42-.19,20.84-.57,31.26-.86,3.93,0,7.86-.06,11.79,0,12.07,0,24.14.19,36.21.34s24.3,0,36.45.14c9,.09,18,.33,27,.43l.26,0a58.48,58.48,0,0,0,6.62,0h5.13c12.56,0,25.12-.1,37.68,0a2.37,2.37,0,0,0,1.4-.4c12.9-.14,25.81-.24,38.71-.16,14.87.09,29.74.42,44.62.5s30.07-.35,45.06.09c4.12.12,8.23.38,12.35.44s8.16-.19,12.23-.37c8.52-.36,17.07,0,25.58.37,3,.12,2.86-3.9,0-4.21-1.53-.17-3.05-.37-4.57-.58l.12-.09a2.66,2.66,0,0,0,.63,0,6.44,6.44,0,0,0,2.38-.93c.69,0,1.38-.07,2.07-.1,2-.1,4.11-.4,5.42-1.93a3.73,3.73,0,0,0,.3-.43A2.34,2.34,0,0,0,539,8.15c0-.18,0-.36,0-.54a2.43,2.43,0,0,0,.47-.72c.67-1.71.17-3.88.2-5.67,0-.34,0-.69,0-1Z"/><path class="cls-5" d="M115.4,10.45c-3.17,2.66-1.25,7.07-2,10.45-.5,2.35-1.19,4.51-.89,6.93s1.33,4.83,1.22,7.32c-.1,2.3-.93,4.55-1.19,6.84a63,63,0,0,0,0,8c0,2.48.32,5-.4,7.37a28,28,0,0,0-1.06,7.33c-.32,10.53.94,21.08,1.39,31.59.48,11.06,0,22.18.15,33.26,0,2.89.07,5.78-.15,8.66s-1,5.85-1.26,8.81c-.49,5.63.26,11.27.29,16.9,0,2.71,4.62,2.72,4.6,0,0-5-.61-10-.4-15s1.46-9.7,1.54-14.65c.17-10.81-.09-21.65-.09-32.46,0-5.15-.41-10.25-.78-15.39s-.37-10.3-.6-15.45c-.11-2.51-.18-5,0-7.52s1-4.76,1.38-7.21c.68-4.91-.72-9.93.08-14.84.41-2.47,1.25-4.88,1.08-7.4-.17-2.71-1.43-5.29-1.32-8,.11-2.46,1.27-4.77,1.25-7.27,0-1.38-.85-4.21.38-5.24C120.84,11.59,117.58,8.62,115.4,10.45Z"/><path class="cls-6" d="M529.86,179.86a14.64,14.64,0,0,1,2.07-5.62c1.85-3-.09-4.9-2.71-6.18a2,2,0,0,0-.22-3.5,4.69,4.69,0,0,0-3.89-.31l-.46.16-.15,0a8.38,8.38,0,0,0-2.1.52l-.4.06-1.81.28c-.48-.63-1-1.26-1.36-1.88-1.84-2.9-3.25-6.11-5.73-8.62-.08-.08-.18-.14-.26-.22a63,63,0,0,0-5-4.83,17.31,17.31,0,0,0-3.4-2.58c-1.33-.72-2.83-1.1-4.15-1.85a12.3,12.3,0,0,0-3.53-1.56c-1.57-.36-3.23-.47-4.82-.69-3.51-.49-7-.81-10.56-1.19s-7.19,0-10.77-.16c-7.05-.33-14.08-.72-21.13-1.14-4.16-.25-8.38.16-12.53-.2a2.22,2.22,0,0,0-1.44-.47c-2.44,0-4.85-.25-7.28-.4-2.63-.16-5.26-.08-7.9-.11-5.29-.06-10.58-.3-15.87-.39-10.67-.19-21.35-.43-32-.58-21.38-.32-42.8,0-64.18.39-10.7.18-21.41.4-32.12.55s-21.43.19-32.14.7c-5.92.27-11.82.74-17.72,1.25-15.43,0-30.87,0-46.24.93-1.84,0-3.67,0-5.51-.1A140.78,140.78,0,0,1,159,141.3c-4.44-.63-9.1-1-13.19,1.08a16.93,16.93,0,0,0-2.88,1.91,16.18,16.18,0,0,0-6.77,2.15,11.23,11.23,0,0,0-4.57,5.89.11.11,0,0,0,0,0,6.85,6.85,0,0,0-.75,1.65,7,7,0,0,0-.25,1.55,20.36,20.36,0,0,0-1.91,5.33c-.22.48-.41,1-.58,1.45-2.64,0-5.29,0-7.94,0a30.2,30.2,0,0,1-3.56,0,22.11,22.11,0,0,0-3.65-.5c-2.68.14-2.93,3.62-.73,4.14,0,2.54,0,5.08,0,7.62,0,.51-.06,1-.13,1.54-.41,3.18-1.34,6.17-.81,9.4,0,0,0,0,0,0s-.06.3-.1.45c-.55,2-1.6,3.85-1.54,6a2.33,2.33,0,0,0,3.46,1.82c.28-.19.54-.4.8-.61a2.25,2.25,0,0,0,3.26.09c7.58-8.55,15.62-16.74,23.66-24.92,1.6-.71,3-1.6,3.31-3.15a2.29,2.29,0,0,0,0-.25l2.38-2.43a2.44,2.44,0,0,0,1.48-1.16c.73,0,1.45-.06,2.18-.07,5.95-.11,11.91,0,17.86,0l36.95,0c12.15,0,24.24.5,36.37.82s24.35.35,36.53.39,24.62.07,36.93.31,24.63.66,37,.55c24.41-.21,48.77-1.68,73.18-1.54,13.53.07,27-.77,40.53-.23,6.61.27,13.26.5,19.84,1.14,6.16.6,12.48,1.77,17.5,5.28a2,2,0,0,0,2.44-.1c1,.82,2,1.69,3,2.54a95.7,95.7,0,0,1,8,7.29c.56.9,1.14,1.79,1.73,2.68a54.62,54.62,0,0,0,8.19,9.37,2.25,2.25,0,0,0,3.62-2.55c-.42-.83-.11-2.33-.11-3.22A23.07,23.07,0,0,1,529.86,179.86Z"/><path class="cls-4" d="M558.82,534.48c.2-5.93.52-12.65-1.84-18.28-1-2.47-2.75-4.82-3.5-7.34a8,8,0,0,0-1.81-3.28,10.44,10.44,0,0,0-1.75-1.38,2.14,2.14,0,0,0-3.32-1.93l-.78.51a2.05,2.05,0,0,0-.46,3.31,3.49,3.49,0,0,0,.49.45c-.4,1.1-1,2.13-1.43,3.24a5.7,5.7,0,0,1-2.5,3,25.64,25.64,0,0,1-8.42,3.17c-7,1.55-14.34,2.07-21.46,3.07-7.75,1.09-15.73.52-23.54.84s-15.61.77-23.45.78H452.77a2.22,2.22,0,0,0-.37,0q-41,.11-81.94.94c-3.75.08-7.46.47-11.22.46-1.89,0-3.78.1-5.66.22a2.48,2.48,0,0,0-1-.22c-6.73-.08-13.41-.6-20.16-.38s-13.36.77-20,1.33l-.11,0c-3.44-.07-6.89-.18-10.33-.38s-7.09-.18-10.65-.08c-1.78-.08-3.57-.13-5.36-.24-7.78-.48-15.53-.83-23.33-1.06-5.12-.15-10.24-.19-15.36-.25-3.17-.28-6.33-.54-9.51-.71-7.28-.39-14.74-.94-22-.51-14.73.87-29.49.83-44.25.83a2.14,2.14,0,0,0-1.85.89c-1.91-.16-3.82-.28-5.73-.39a101.78,101.78,0,0,0-11.32.19c-3.63.18-7.34-.21-11-.21-3.85,0-7.63-.67-11.46-.89-3-.17-6.42.59-9.25-.57-3.33-1.37-6.59-3.14-10.08-4.16A38.28,38.28,0,0,1,106,513.8c-1.66-.74-2.61-2.06-4-3.1-.73-.55-2.71-1.29-3.75-2.14a2.1,2.1,0,0,0-2-3.63,7.05,7.05,0,0,0-1.24.56A2.4,2.4,0,0,0,93,507.12a21.65,21.65,0,0,0-2.4,3.95c-1.81,3.43-2.08,7.2-2.27,10.95-.09,1.86-.56,3.68-.66,5.55s0,3.9,0,5.85c.08,4,0,8,0,12,0,3.86-.35,7.87.29,11.69.57,3.45,0,7,1,10.37,2.06,6.66,8.92,11.14,14.9,14.72a46.2,46.2,0,0,0,12.67,5.5,35.58,35.58,0,0,0,4.8.79,2.62,2.62,0,0,0,.32.23c1.55.88,3.29.67,5,.81q3,.23,6.06.38l.91,0a1.77,1.77,0,0,0,.26,1.64c1,1.52,1.84,3,2.85,4.51a2.11,2.11,0,0,0,0,.25c.24,1.76,1.64,2.91,2.69,4.29.37.48.69,1,1,1.5.1.19.21.37.32.55,1,1.72,1.75,3.54,2.69,5.25,2,3.7,4.88,7,9.25,8.13l.13.1c3.34,2.75,7.31,2.77,11.47,3.69a92.78,92.78,0,0,0,14.38,2.38c4.82.28,9.68-.42,14.51-.47s9.82.12,14.72.17a107.67,107.67,0,0,0,15.14-.5c3.06-.39,7.62.33,9.37-2.76.88-1.56.39-3.17.24-4.8a45.72,45.72,0,0,1,.12-7.67,59.18,59.18,0,0,1,1.16-6.6,16.93,16.93,0,0,0,.3-3.17c0-1-.29-2.07.2-2.94a2,2,0,0,0,.25-.74c1-.26,2.1-.52,3.16-.72,2.8-.55,5.43,0,8.25.13,5.92.17,11.82.81,17.77.37,5.72-.42,11.41-.29,17.14-.56s11.33-.31,17-.3c3,0,6-.05,9,0s5.7.41,8.56.46,5.67-.26,8.5-.41c3.12-.16,6.27-.13,9.4-.11,12,.07,23.93.07,35.9.07,6.65,0,13.44-.4,20.08,0a1.88,1.88,0,0,0,2.2,1.88c7.15-.58,14.31-1.06,21.47-1.52a1.71,1.71,0,0,0-.69,1A13.84,13.84,0,0,0,412,595a2.86,2.86,0,0,0,.1,1,8.92,8.92,0,0,0,.39,5.41c1.23,2.84.38,6.26.37,9.26,0,1.65,0,3.31,0,5a4.22,4.22,0,0,0,1.11,3.25c2.2,2.06,5.93,1.47,8.75,1.51,4.05.06,8.09.4,12.13.66,8.11.52,16.34.5,24.46.45,3.9,0,7.77-.1,11.67-.08a104.23,104.23,0,0,0,11.57-1c3.34-.36,7.14-.43,10.29-1.59a6.31,6.31,0,0,0,1.93-1.08,6.52,6.52,0,0,1,1.73-1,7.39,7.39,0,0,0,2.94-3c.86-1.35,2-2.54,2.81-3.89s1.56-2.83,2.43-4.21,1.77-2.64,2.57-4,1-3,1.94-4.37a25.8,25.8,0,0,1,2.85-3.43,6.51,6.51,0,0,1,3.8-2.37,57.77,57.77,0,0,0,10.72-3.09,49.16,49.16,0,0,1,5.37-2.13c1.91-.55,3.68-1.33,5.54-2a32.37,32.37,0,0,0,5.11-2.13c1.44-.83,3.19-1.19,4.48-2.19a37.9,37.9,0,0,0,7.91-7.56,18,18,0,0,0,2.47-4.4c1.69-1.6,1.67-3.89,1.53-6-.19-3,0-6-.06-9,0-1.59,0-3.18,0-4.76s.41-3.17.52-4.78C559.62,540.4,558.72,537.47,558.82,534.48Z"/><path class="cls-5" d="M106.07,582.25a15,15,0,0,1-5.56-2.67c-2.05-1.6-4.38-3-6.3-4.75s-2.42-4.27-2.43-6.8a57.39,57.39,0,0,1,.49-8.29,61.9,61.9,0,0,0,.77-9c0-3.22,0-6.44,0-9.65,0-5.88.85-11.82.17-17.68-.36-3.17-1.08-5.8.38-8.87a27.17,27.17,0,0,1,6.13-7.64c2.07-1.95-1.19-4.93-3.25-3-4.34,4.1-8.92,9.41-8.49,15.46.1,1.46.51,2.88.67,4.33a43.3,43.3,0,0,1,.18,5.22c0,3.2-.32,6.39-.38,9.59-.13,7,.25,14-.74,20.92a54.91,54.91,0,0,0-.54,9.15,12.51,12.51,0,0,0,2.47,7.84c2,2.46,5.07,4.17,7.61,6.14a20.39,20.39,0,0,0,7.59,3.75C107.7,587.08,108.92,583,106.07,582.25Z"/><path class="cls-5" d="M560,551c.06-1.41-.16-2.83-.23-4.24-.08-1.77,0-3.54.1-5.31a56.26,56.26,0,0,0-.32-10.38,79.57,79.57,0,0,1-.84-10.45,21.53,21.53,0,0,0-2.73-10.37,12.83,12.83,0,0,0-2.88-3.81c-.9-.74-2.55-1.48-2.89-2.6-.8-2.61-5.25-1.5-4.44,1.12.73,2.38,2.92,3.18,4.57,4.89a15.32,15.32,0,0,1,3.65,8.39c.34,3.13,0,6.26.44,9.39a70,70,0,0,1,1,9.9c0,3.16-.38,6.33-.21,9.49a35.52,35.52,0,0,1,.22,4,21.1,21.1,0,0,1-1,3.88c-.72,2.94-.06,6-.32,8.93-.25,2.78-2,5.24-3.79,7.42-3.91,4.82-9.48,8.13-15,11.19-2.54,1.4-.23,5,2.32,3.64,5.24-2.9,10.48-6,14.55-10.27a31,31,0,0,0,5.2-7.07c1.52-3,1.4-6.08,1.32-9.28a12.77,12.77,0,0,1,.37-4.13A16.51,16.51,0,0,0,560,551Z"/><path class="cls-5" d="M550.43,384c-.09-1.4-.09-3.16-.94-4.4l-.13-.15c0-.32-.09-.64-.14-1,.22-1.09.45-2.17.76-3.24a2,2,0,0,0-1.38-2.44c-.07-1.38-.1-2.76-.1-4.16,0-3.17,0-6.34,0-9.51a48.55,48.55,0,0,0-.28-8.53c-.23-1.34-.48-2.73-.66-4.07s.3-2.58.39-3.9c.23-3.15-.05-6.35.11-9.5.31-6.53,1-13.06,1-19.6a2.19,2.19,0,0,0-2.76-2,47.22,47.22,0,0,0,0-10.76,48.9,48.9,0,0,1-.37-7.65,56.78,56.78,0,0,0-.44-7.6c-.28-2.3,0-4.62-.25-6.92-.29-2.84-.75-5.69-1.19-8.51-.38-2.45-1-4.87-1.22-7.33-.27-2.63-.35-5.28-.71-7.91s-.86-5.3-1.28-7.95-.54-5.3-.93-8c-.33-2.25-1-4.39-1.56-6.6-.29-1.15-.69-2.21-1.06-3.34a23.23,23.23,0,0,1-.7-4.48,63.74,63.74,0,0,1-.57-8.61,63.68,63.68,0,0,0,.1-7.31,20.43,20.43,0,0,0-2.3-7c-.72-1.48-1.66-2.85-2.42-4.29a2.05,2.05,0,0,0,1.2-2.38c-.47-1.68-1.9-2.59-3.43-3.43l-.06,0c-.14-.17-.28-.34-.43-.5-1.06-1.18-2.3-2.2-3.43-3.32-2.4-2.4-4.72-4.89-7-7.41s-4-5.11-6.41-7.37c-.75-.71-1.54-1.38-2.35-2a14.13,14.13,0,0,0-1.08-1.93c-1.63-2.41-4.75-5.57-8.15-5.29a1.92,1.92,0,0,0-2.06-1.24l0,0a3.16,3.16,0,0,0-4.11-.21,24.92,24.92,0,0,0-3-.23c-2.78,0-5.5-.29-8.28-.43-5.39-.28-10.86-.05-16.26-.05q-16.68,0-33.37,0-33.78,0-67.57-.11c-5.4,0-10.75.35-16.13.57a135.77,135.77,0,0,1-16-.82c-5.34-.42-10.68-.57-16-.59-5.61,0-11.2-.47-16.8-.48-11,0-22.05-.18-33.05.37-5.47.28-10.95,0-16.43.2s-10.92.66-16.37,1c-6.14.34-12.29.58-18.43.57s-12.26-.43-18.39-.54c-4.42-.08-8.82-.34-13.24-.49a12.1,12.1,0,0,0-3.66-.21,23.55,23.55,0,0,1-4.51-.38,58.28,58.28,0,0,0-10.4-.38,71.72,71.72,0,0,0-9.94.76,48.83,48.83,0,0,0-5.06,1.32,2.3,2.3,0,0,0-3.26-.13L146,163.76a2.08,2.08,0,0,0-.34.32c-1,.86-1.91,1.73-2.86,2.6a20.14,20.14,0,0,0-2,1.35,91.59,91.59,0,0,0-8.06,7.28c-.42.41-.83.84-1.24,1.25-4.93,4.11-9.92,8.16-14.09,12.95a2.18,2.18,0,0,0,.82,3.45c-.87.83-1.72,1.68-2.61,2.49a1.81,1.81,0,0,0-.32,2.48,62.23,62.23,0,0,0-3.29,8c-1.85,4.89-2.08,10.16-3.14,15.23s-1.73,10-2.41,15A56.88,56.88,0,0,0,106,244c0,2.56-.51,5.08-.53,7.64,0,5.22-1,10.38-1.2,15.6s-1.14,10.15-1.63,15.23c-.27,2.7-.62,5.4-.9,8.1s-.3,5.41-.68,8.09c-.35,2.47-1,4.9-1.36,7.37a47.37,47.37,0,0,0-.53,8.66,62.29,62.29,0,0,0,.09,7,38,38,0,0,1,.39,7.83c-.35,5.33-1,10.64-1.79,15.91a124.59,124.59,0,0,0-1.74,15.38c-.16,5.27.28,10.54,0,15.81A66.7,66.7,0,0,1,95,383.74a35.48,35.48,0,0,0-.09,8.24c.16,2.47.13,4.95.13,7.43a53.6,53.6,0,0,0,.06,7.71,22.2,22.2,0,0,1,.5,3.62,16,16,0,0,0,.09,3.79c.5,2.35.72,4.74,1,7.14s.47,4.69.87,7a34.44,34.44,0,0,1,.6,4.16c.07,1.45-.12,2.89-.08,4.34.06,2.68.94,5.3,1.11,8,.09,1.29,0,2.58.07,3.87.11,1.49.54,2.91.77,4.38a114.74,114.74,0,0,1,1.23,17.95c0,2.94-.34,5.85-.48,8.79s.09,5.87,0,8.8c-.1,5.6-1.28,11.12-.14,16.68a1.93,1.93,0,0,0-.61,1.39c0,2.52,2.67,4.21,4.72,5.5a29.2,29.2,0,0,0,9.75,3.56c.79.16,1.59.3,2.38.44a44.85,44.85,0,0,0,6.33,2.39c4.68,1.38,9.81,1.42,14.67,1.62s10,.76,15,1.17l2.07.18a2.12,2.12,0,0,1,1.86-1.16c8.09-.42,16.18-.59,24.28-.59,10.44-.53,20.9-1,31.36-1.06l1.69-.26c1.72-.25,3.44-.46,5.17-.69q6.38-.32,12.77-.65c1.44-.08,2.88-.19,4.32-.29a41.18,41.18,0,0,1,4.87.48,51.37,51.37,0,0,0,8.76.94c3.26,0,6.49.47,9.75.48,6.54,0,13.24.06,19.66,1.14a24.78,24.78,0,0,0,3.75.25c1.6,0,3.12.35,4.7.49,3.32.28,6.75,0,10.08,0,6.35,0,12.77-.32,19.11-.08,2.87.11,5.7.62,8.58.71a66.68,66.68,0,0,0,9.58-.8,194.23,194.23,0,0,1,22-.8c3.74,0,7.49.05,11.24,0s7.35-.53,11-.47a2.45,2.45,0,0,0,.93-.17c10.68.41,21.41.16,32.09.16,12.3,0,24.65.33,36.92-.35,2.69-.15,5.39-.17,8.08-.22s5.56.64,8.36.59a28.29,28.29,0,0,0,3.3-.3,157.91,157.91,0,0,0,26.9-.42c3.32-.3,6.64-.51,10-.69h.25c3.16.1,6.21-.47,9.36-.54a84.05,84.05,0,0,0,9.51-.9,38.2,38.2,0,0,0,8.58-1.73,26.22,26.22,0,0,0,3.42-1.63,2.7,2.7,0,0,0,1.15.79c4.13,1.51,5.26-4.52,5.55-7,0-.26,0-.52.05-.78a14.44,14.44,0,0,0,.63-1.47c.08-.2.13-.41.2-.62a2.13,2.13,0,0,0,1-1.13,10.33,10.33,0,0,0-.14-7.91,2.61,2.61,0,0,0-1.34-1.3c0-.86,0-1.72,0-2.58.13-2.8.42-5.61.71-8.41.14-1.33.19-2.66.29-4s.5-2.88.54-4.35c.16-6.17,0-12.37,0-18.54q0-7.72,0-15.47a76.67,76.67,0,0,0,.57-10.49,34,34,0,0,0-.37-4.94,8.76,8.76,0,0,1-.24-3.9,2.11,2.11,0,0,0,0-.87c.94-5.12,1.9-10.23,2.65-15.37.77-5.3,1.84-10.69,2.09-16A45.83,45.83,0,0,0,550.43,384Z"/><path class="cls-7" d="M477,429.12c-.27-6.11-.72-12.22-.57-18.33.07-3,.22-5.92.42-8.87.16-2.22.75-4.55-.07-6.72a2.37,2.37,0,0,0-4-.64,2,2,0,0,0-2.49,2c0,.16,0,.32,0,.49a2,2,0,0,0-1-.21c-2.5.1-4.62,1.31-6.86,2.19a2.35,2.35,0,0,0-3.28-1.24c-.95.41-1.84.89-2.74,1.34l-.46.06h-.13c-.3-.12-.6-.23-.91-.33a2,2,0,0,0-2.23.52h0c-4.66.36-9.3.89-14,1.15-9.47.52-19,.37-28.46.26l-2.87-.05-2.05-.07c-19-.66-38.05-1.21-57.08-1.37-9.46-.08-18.91-.05-28.36.26s-18.82.69-28.23.67c-19.08,0-38.15.52-57.22,1.15-5,.16-10,.28-14.94.39-5.11-.05-10.21-.13-15.31-.29-9.33-.3-19.68.17-28.24-3.75.07-1.61.14-3.22.09-4.83-.06-2,0-4.73-2.41-5.5a1.86,1.86,0,0,0-.62-.08c-1.26-.84-3.69-.3-3.87,1.63a164.27,164.27,0,0,0-.57,16.74c0,1.74,0,3.48,0,5.22,0,.34,0,.68,0,1,0,2.91-.5,5.76-.54,8.67-.08,5.82-.61,11.65-.49,17.47,0,.31,0,.62,0,.92s0,.52,0,.78c0,1.15.14,2.32.06,3.47s-.5,2.09-.62,3.16a36.87,36.87,0,0,0-.05,5.66,6.69,6.69,0,0,0-.49,1.83,6.15,6.15,0,0,0,.31,1.9c-.12,1.14-.23,2.27-.26,3.41,0,1.58,0,3.17,0,4.75a1.92,1.92,0,0,0,1.39,1.88,3.81,3.81,0,0,0,3.92,2.65,4.13,4.13,0,0,0,3.46-1.84c1.07-1.68,0-3.13-.06-4.84-.09-4.45.33-8.93-.06-13.37a51.28,51.28,0,0,1-.33-6.06c.08-2.25.37-4.48.45-6.73.15-4.39-.09-8.8-.11-13.19,0-5.42.13-10.83.36-16.25a23.45,23.45,0,0,0,4.06.64,125.58,125.58,0,0,0,13.3-.08c8.34-.2,16.68-.39,25-.64a.75.75,0,0,1,.06.13,31.48,31.48,0,0,1,2,3.5,24.2,24.2,0,0,1,.93,4.13c.63,2.88,1.31,5.76,1.91,8.65,1.17,5.67,2.54,11.31,3.63,17l1.23,6.38a1.8,1.8,0,0,0,.34,1.77c.54,2.88,1.05,5.77,1.49,8.68s.86,5.79,1.21,8.7a31.77,31.77,0,0,0,.69,4.44c.34,1.29.21,2.52.49,3.81s2.15,1.82,3.38,1.26l.44-.2a1.81,1.81,0,0,0,.57-3.05,7.39,7.39,0,0,0,0-1.33c-.09-.55-.29-1.07-.43-1.61a35.3,35.3,0,0,1-.69-4.67c-.34-2.83-.79-5.65-1.21-8.47-.33-2.17-.7-4.32-1.09-6.47,4.63.39,9.39.09,14,.09,6,0,11.91.12,17.87.41,12.34.6,24.69,1,37,1.29s24.69.3,37,.23c6,0,12,.06,18,.13,6.21.07,12.35-.29,18.55-.49,6.6-.22,13.22,0,19.82-.31,2.9-.15,5.82-.37,8.73-.25-.52,1.32-1.06,2.65-1.49,4-.81,2.54-1.45,5.13-2.27,7.66-1,3-1.94,5.89-2.79,8.87-.42,1.47-.81,2.95-1.31,4.4-.23.67-.55,1.32-.72,2-.05.22-.07.46-.1.69a2.58,2.58,0,0,0,0,.39c-1.75,2,1.38,4.78,3.37,2.84,1.07-1,1-2.08,1.39-3.37.46-1.64,1.1-3.25,1.58-4.89,1-3.4,2.08-6.75,3.16-10.13s1.79-6.56,3-9.75c.34-.89.62-1.77.93-2.64l.61-.09a43.46,43.46,0,0,0,1.19-4.72l-.3.05c.22-.77.47-1.53.67-2.32,1.14-4.45,2.92-8.71,4.39-13.05a1.58,1.58,0,0,1,0-.78c.54-2,1.38-3.83,2.08-5.74a2.38,2.38,0,0,1,.46-.73l.07-.22a1.42,1.42,0,0,1,.24-.53,2.08,2.08,0,0,0-.53-.37,52.09,52.09,0,0,1,2.93-7.27c1.15-2.41,1.74-5.5,3.68-7.49a2,2,0,0,0,.6-1.29c2.42.08,4.84.16,7.26.28a111,111,0,0,0,16.21-.14,38.19,38.19,0,0,0,5.42-.85,8.27,8.27,0,0,0,4.08.32,12.81,12.81,0,0,0,3.27.43,24.53,24.53,0,0,0,7.14-1.51,19.44,19.44,0,0,0,2.44-1c.41,10.79.33,21.59.29,32.39,0,6.15-.31,12.39,0,18.54.17,3,.23,6.06.65,9,.08.51.18,1,.25,1.53a2.21,2.21,0,0,0-1.91,1.43c-.56,1.48-1.15,3.23.37,4.42,1.88,1.47,4.6.44,5.58-1.41a7.49,7.49,0,0,0,.48-4.75.36.36,0,0,1,0-.09h0v0a10.06,10.06,0,0,0,.71-3.92,32.67,32.67,0,0,0-.09-5c0-2.49,0-5,.05-7.48C477.18,441.36,477.28,435.26,477,429.12Zm-67.17,1.93c-2,4.79-3.11,9.78-4.53,14.71-.58-.06-1.14-.11-1.65-.13-2.83-.09-5.68.14-8.5.28-5.87.3-11.75.12-17.62.25s-11.82.59-17.76.58-12-.18-17.93-.16c-24,.07-47.9-.12-71.84-1.26-6.75-.31-13.49-.68-20.25-.67h-9.35a72.12,72.12,0,0,1-8.32-.2c-.43-2.22-.86-4.45-1.3-6.67-.54-2.81-1.32-5.56-1.93-8.35-.24-1.07-.44-2.16-.65-3.24,1.59.13,3.17.21,4.83.19,3.16,0,6.29.14,9.44.36s6.18.13,9.28.22,6.37.33,9.56.46c12.57.55,25.25,0,37.85-.05,6.14,0,12.25.1,18.39.34,6.37.25,12.75.13,19.12.15,3.17,0,6.33-.2,9.5-.35,3-.15,6-.07,9-.25,6.23-.39,12.44-.29,18.68-.47,7-.21,14-.39,21.05-.37,5.59,0,11.17-.53,16.76-.8A54.83,54.83,0,0,1,409.85,431.05Zm7.75-21.68c-.88,2.3-2,4.5-3,6.78a53.12,53.12,0,0,0-1.75,5.21c-5,.19-10,.62-15,.82-6.26.25-12.55-.05-18.82.19s-12.42.11-18.62.34-12.19.51-18.29.8c-12.49.62-25-.39-37.46-.36s-25,.33-37.46.22c-6.89-.06-13.75-.64-20.64-.67-3.6,0-7.18-.49-10.78-.53-2.88,0-5.64,0-8.47-.26-.11-.59-.22-1.18-.34-1.76-.59-2.78-1.3-5.55-1.84-8.33a16.22,16.22,0,0,0-1.18-4.2c-.28-.55-.6-1.09-.93-1.62,1.82,0,3.63.05,5.45.05,19.73,0,39.46-.72,59.19-.64s39.71-.27,59.57-.7c10-.22,20-.28,30.06-.27s19.93.44,29.9.55l5.35.06,7,.19A18.9,18.9,0,0,0,417.6,409.37Z"/><path class="cls-5" d="M525.88,194.52h-20.7c-6.75,0-13.39-.35-20.12-.76s-13.65-.18-20.45-.18-13.81,0-20.71,0c-7.12,0-14.23-.3-21.35-.56-6.93-.25-13.93-.66-20.86-.32-3.32.16-6.64.48-10,.69s-6.83.09-10.27.12c-2.91,0-5.62.84-8.49,1-3.46.21-7,0-10.5-.06-28-.23-56-.1-84,0-14.11.05-28.22,0-42.32.1a200.44,200.44,0,0,1-20.51-.36,92.34,92.34,0,0,0-9.83-.64c-3.35.05-6.7.17-10.06.11-6.81-.11-13.6-.36-20.42-.31s-13.73.22-20.6.22c-3.45,0-6.89,0-10.33.3-3.27.27-6.45.85-9.69,1.28s-6.77,0-10.13.57c-1.43.26-2.81.59-4.26.73a18.8,18.8,0,0,0-4.37.78c-2.73.94-3.63,3.09-5.77,4.65-2.32,1.69,1,4.65,3.26,3a15.81,15.81,0,0,0,2.39-2.45,5.48,5.48,0,0,1,3.76-1.67c3.14-.4,6.34-1.18,9.5-1.22a65.93,65.93,0,0,0,9.63-.77,82.31,82.31,0,0,1,10-.91c6.82-.23,13.68-.11,20.51-.2s13.44-.17,20.16,0c3.27.09,6.53.26,9.8.22s6.76-.24,10.12-.05,6.56.68,9.85.83,6.72.17,10.08.16l41.36-.13c27.74-.09,55.48-.24,83.22-.09l10.71.08a76.55,76.55,0,0,0,9.7-.07,61.45,61.45,0,0,1,8.78-.88c3.46.05,6.87,0,10.32-.25,6.76-.47,13.4-.73,20.19-.55,7,.18,14,.5,20.92.69,13.69.38,27.42.21,41.12.17,6.57,0,13.05.56,19.61.86,6.83.3,13.72.1,20.56.09h10.15A2.11,2.11,0,1,0,525.88,194.52Z"/><path class="cls-5" d="M165.82,498.57c.22-4.69,1.33-9.31,1.32-14,0-2.28-.15-4.56-.17-6.84,0-2.51.43-5,.55-7.47.1-2.22-.47-4.42-.56-6.64s.28-4.19-.13-6.28c-.81-4.15-5-6.77-8.79-9-2.26-1.32-4.28-2.91-6.45-4.32a73.93,73.93,0,0,0-7.48-4.12c-5.35-2.67-10.78-5.21-16-8.05-2.57-1.4-5.18-2.76-7.74-4.17-2.4-1.32-5.06-2.24-7.5-3.52a35.23,35.23,0,0,0-7.32-3c-.67-.18-1.35-.29-2-.43l-.2-.06c.21-1.81-3.19-3.09-4.75-1.19-1,1.22-1,2.27-.34,3.12a1.93,1.93,0,0,0,0,.34c.58,4.91,1.22,9.82,1.67,14.74.22,2.41.4,4.81.5,7.22s-.07,5,.21,7.45c.24,2.14.84,4.25,1,6.4.18,2.38-.14,4.78,0,7.16.31,4.54,1.27,8.9,1.08,13.47-.19,4.73-.5,9.44-.5,14.17,0,4.32-.47,8.84.07,13.13a8,8,0,0,0,2.32,5.09c1.53,1.4,3.6,1.69,5.69,2.12,5.36,1.1,10.61,2.41,16.06,3.2a110.68,110.68,0,0,0,16.28,1.09c5.47,0,11.41.56,16.78-.4,3.81-.68,7.86-2,6.29-5.93-.76-1.9-.45-3.87-.27-5.86C165.66,503.47,165.7,501,165.82,498.57Z"/><path class="cls-5" d="M478.9,498.57c-.22-4.69-1.37-9.31-1.36-14,0-2.28.16-4.56.17-6.84,0-2.51-.44-5-.56-7.47-.11-2.23.49-4.42.58-6.64s-.29-4.19.13-6.28c.84-4.15,5.11-6.77,9.09-9,2.33-1.32,4.42-2.91,6.66-4.32a76.88,76.88,0,0,1,7.73-4.12c5.53-2.67,11.14-5.21,16.54-8.05,2.66-1.4,5.35-2.76,8-4.17s5.24-2.24,7.76-3.52a37.06,37.06,0,0,1,7.56-3c.69-.18,1.39-.29,2.09-.43l.21-.06c-.22-1.81,3.3-3.09,4.91-1.19,1,1.22,1,2.27.35,3.12a1.29,1.29,0,0,1,0,.34c-.6,4.91-1.25,9.82-1.72,14.74-.23,2.41-.41,4.81-.52,7.22s.07,5-.22,7.45c-.25,2.14-.86,4.25-1,6.4-.18,2.38.14,4.78,0,7.16-.31,4.54-1.31,8.9-1.12,13.47.2,4.73.52,9.44.52,14.17,0,4.32.49,8.84-.07,13.13a7.94,7.94,0,0,1-2.4,5.09c-1.58,1.4-3.72,1.69-5.88,2.12-5.54,1.1-11,2.41-16.59,3.2a118.11,118.11,0,0,1-16.82,1.09c-5.65,0-11.79.56-17.34-.4-3.94-.68-8.12-2-6.5-5.93.78-1.9.47-3.87.27-5.86C479.07,503.47,479,501,478.9,498.57Z"/><path class="cls-8" d="M531.23,356.05c4-5.24,5.31-11.29,5-19.47-1-27.66-2.86-56.38-9.46-83.45-1-4.3-1.63-8.62-2.25-13s-1.17-8.62-2.88-12.67c-.78-1.84-1.35-3.84-2.28-5.62-.82-1.58-2.29-2.56-3.68-3.71-3.06-2.53-5.66-5.5-8.74-8a14.85,14.85,0,0,0-4.8-2.7,47,47,0,0,0-6-1.1c-6.59-1.13-13-.12-19.46.86-2.43.37-4.95.06-7.4.37-3.35.43-6.94.1-10.32.1l-10.63,0c-6.25,0-12.57.27-18.8-.17s-12.12-.93-18.29-.84c-42.85.66-85.55-2.29-128.43-.47-16.56.71-33.1.47-49.69.47-6.17-.09-12.15.4-18.29.84a219.74,219.74,0,0,1-24.21.4c-5.94-.24-11.89.15-17.81-.51-8-.9-16.57-2.47-24.59-1.09a47,47,0,0,0-6,1.1,14.74,14.74,0,0,0-4.8,2.7c-3.09,2.47-5.69,5.44-8.74,8-1.39,1.15-2.86,2.13-3.68,3.71-.93,1.78-1.51,3.78-2.28,5.62-1.71,4.05-2.27,8.38-2.88,12.67-2.48,17.49-4.55,35-7.4,52.45-2,12.53-4.26,25.08-4.86,37.76-.51,10.86-2,20.7,7.16,28.1a95.39,95.39,0,0,0,8.17,6.16A72.93,72.93,0,0,0,142,373.24c3.49,1,7.25,1.35,10.84,2,3.74.71,7.57,1,11.37,1.33,7.86.73,15.75,1.78,23.64,2.08s15.83,1.11,23.7,2c3.86.45,7.63.15,11.49.3,1.78.07,3.53.37,5.31.47,1.93.12,3.89,0,5.82,0,7.85,0,15.71-.28,23.55-.18,4.07.06,8.09.57,12.15.69s8.05.11,12.05,0c4.48-.16,8.91-.49,13.39-.48,4.19,0,8.54.32,12.7-.07,4.4-.42,8.7-.25,13.1-.35.35,0,.69-.05,1-.08s.69.07,1,.08c4.41.1,8.71-.07,13.1.35,4.17.39,8.51.08,12.7.07,4.49,0,8.92.32,13.4.48,4,.13,8,.14,12,0s8.08-.63,12.14-.69c7.84-.1,15.71.17,23.56.18,1.93,0,3.89.1,5.82,0,1.77-.1,3.53-.4,5.31-.47,3.86-.15,7.63.15,11.48-.3,7.88-.92,15.76-1.73,23.71-2s15.78-1.35,23.64-2.08c3.8-.35,7.63-.62,11.37-1.33,3.58-.69,7.34-1,10.83-2a72.85,72.85,0,0,0,19.16-8.62A37.24,37.24,0,0,0,531.23,356.05Z"/><path class="cls-8" d="M562.74,550.51c-.18-4.22-.08-8.46-.06-12.68,0-4-.53-7.92-.54-11.9s.11-7.75-.84-11.63a24.93,24.93,0,0,0-4.89-9.56c-1.63-2-4.67-3.36-7.49-4.12.05-.72.1-1.43.16-2.15.23-3.06-.51-6.17-.51-9.26,0-5.75,0-11.51,0-17.27s.5-11.54.5-17.34-.26-11.65.06-17.43c.07-1.39.36-2.74.51-4.12a26.73,26.73,0,0,0,0-3.58c0-1.5.36-3,.46-4.47,0-.86.06-1.73.07-2.6a1.89,1.89,0,0,0,.39-1.19V421a1.61,1.61,0,0,0,.57-2,3.43,3.43,0,0,0-.56-.92,2.62,2.62,0,0,1,0-.28c.09-1.18.52-2.29.69-3.46s.09-2.28.31-3.44a16.17,16.17,0,0,0,.17-3.68,36.35,36.35,0,0,1,.65-6.39c.17-1.11.07-2.19.13-3.31s.33-2.25.38-3.39c.17-4.17.84-8.35.77-12.54a23.92,23.92,0,0,1,.11-3.69A10.87,10.87,0,0,0,554,375a25.51,25.51,0,0,1-.38-2.88c0-1,.08-2,0-3-.19-2.29-.66-4.57-.91-6.85-.22-1.93-.13-3.8-.22-5.72-.21-4.42-.38-8.87-.9-13.27-.55-4.66.22-9.38-.37-14-.53-4.2-.5-8.46-1-12.68-.27-2.19,0-4.47-.11-6.67s-.36-4.24-.32-6.38a27.16,27.16,0,0,0-1-6.87,26.76,26.76,0,0,1-.59-6.18,1.85,1.85,0,0,0-.58-1.39c-.17-1.55,0-3.12-.24-4.68s-.32-3.16-.38-4.8a91.62,91.62,0,0,0-.71-10.61c-1-6.46-1.47-12.94-2.31-19.42-.46-3.5-.75-7-1.16-10.51-.39-3.31-.12-6.81-1-10a38.38,38.38,0,0,1-1.24-4.94c-.22-1.6-.59-3.18-.89-4.77-.62-3.23-.41-6.45-1-9.67s-.83-6.42-2.15-9.43c-.22-.49-.47-1-.73-1.47a1.9,1.9,0,0,0-.08-1.76c-.84-1.56-2.18-2.8-3.07-4.34a35,35,0,0,0-3.75-4.55c-2.58-3-5.19-5.94-8.06-8.77-1.59-1.56-2.92-3.35-4.49-4.94s-3.24-3.29-4.83-4.95c-2.72-2.86-5.24-5.83-8.9-7.65a1.9,1.9,0,0,0-1.55-1.24c-3.61-.71-7.25-1.6-11-1.55s-7.25.11-10.88-.17c-7.55-.58-15,.26-22.54.22q-5,0-10,0c-3.28,0-6.51-.32-9.78-.35-6.7-.05-13.39-.34-20.1-.37s-13.33.51-20,.23-13.52-.22-20.29-.22-13.76.37-20.65.35q-7.91,0-15.8,0c-1.18,0-2.36,0-3.53,0h-1.64c-3.39,0-6.75,0-10.14.21l-1.65.09-1.65-.09c-3.38-.16-6.75-.21-10.13-.21h-1.65c-1.17,0-2.35,0-3.52,0q-7.9,0-15.81,0c-6.88,0-13.76-.35-20.65-.35s-13.53,0-20.29.22-13.33-.25-20-.23-13.39.32-20.1.37c-3.26,0-6.5.36-9.77.35s-6.68,0-10,0c-7.54,0-15-.8-22.55-.22-3.62.28-7.24.22-10.87.17s-7.36.84-11,1.55a1.93,1.93,0,0,0-1.55,1.24c-3.66,1.82-6.17,4.79-8.9,7.65-1.59,1.66-3.21,3.31-4.83,4.95s-2.9,3.38-4.48,4.94c-2.88,2.83-5.49,5.73-8.06,8.77a35.06,35.06,0,0,0-3.76,4.55c-.89,1.54-2.23,2.78-3.07,4.34a1.93,1.93,0,0,0-.08,1.76q-.39.73-.72,1.47c-1.33,3-1.61,6.25-2.16,9.43s-.34,6.44-1,9.67c-.31,1.59-.67,3.17-.9,4.77a38.38,38.38,0,0,1-1.24,4.94c-.89,3.24-.62,6.74-1,10-.41,3.5-.7,7-1.15,10.51-.84,6.48-1.33,13-2.32,19.42a96.28,96.28,0,0,0-.71,10.61c-.06,1.64-.16,3.17-.37,4.8s-.08,3.13-.25,4.68a1.85,1.85,0,0,0-.58,1.39,26.22,26.22,0,0,1-.58,6.18,26.72,26.72,0,0,0-1,6.87c0,2.14-.24,4.24-.33,6.38s.16,4.48-.1,6.67c-.52,4.22-.48,8.48-1,12.68-.59,4.65.18,9.37-.38,14-.52,4.4-.68,8.85-.9,13.27-.09,1.92,0,3.79-.21,5.72-.26,2.28-.72,4.56-.92,6.85-.08,1,0,2,0,3a25.51,25.51,0,0,1-.38,2.88,10.87,10.87,0,0,0,.24,2.9,23.92,23.92,0,0,1,.1,3.69c-.07,4.19.6,8.37.78,12.54,0,1.14.31,2.25.37,3.39s0,2.2.13,3.31a36.35,36.35,0,0,1,.65,6.39,16.18,16.18,0,0,0,.18,3.68c.22,1.16.13,2.28.3,3.44s.61,2.28.7,3.46v.28a3.43,3.43,0,0,0-.56.92,1.6,1.6,0,0,0,.58,2c0,.06,0,.12,0,.18a1.89,1.89,0,0,0,.4,1.19c0,.87,0,1.74.07,2.6.1,1.5.47,3,.45,4.47a28.51,28.51,0,0,0,0,3.58c.15,1.38.44,2.73.52,4.12.31,5.78,0,11.64,0,17.43s.49,11.54.5,17.34,0,11.52,0,17.27c0,3.09-.74,6.2-.5,9.26.05.72.1,1.43.16,2.15-2.83.76-5.87,2.12-7.5,4.12a24.93,24.93,0,0,0-4.89,9.56c-.94,3.88-.84,7.68-.84,11.63s-.54,7.93-.53,11.9c0,4.22.11,8.46-.06,12.68-.16,3.79.38,7.42.51,11.19a23.37,23.37,0,0,0,.9,4.9c.45,1.82.5,3.48,1.49,5.18a25.1,25.1,0,0,0,3.18,3.9,39.09,39.09,0,0,0,4.19,4.25,31.38,31.38,0,0,0,5.12,3.94c1.76.91,3.46,1.82,5.14,2.87,5.45,3.41,12.18,4.3,18.62,5.57,3.1.62,6.21,1.08,9.35,1.45.3,1.13.75,2.25,1.14,3.33a12.42,12.42,0,0,0,1.23,2.64,20.22,20.22,0,0,1,1.57,3.37c.78,1.82,2.21,3.3,3.32,4.94,1.33,2,2.41,4.16,3.9,6,2.49,3.14,5.41,6.66,9.73,7.71,5.17,1.26,10.71.71,16,.77,5.59.06,11.17.53,16.75.8s10.88,0,16.36,0c5.2-.07,10.3-.47,15.48-.78,2.52-.15,4.91,0,7.42-.4s5.05-.14,7.51-.61c5.09-1,4.51-7.34,4.51-10.86V595.52c4.07,0,8.13,0,12.2,0,18-.2,36,1.22,54,1.46q23.92.32,47.85-.21c15.38-.34,30.73-1.47,46.12-1.25,4.07,0,8.14,0,12.21,0v15.14c0,3.52-.58,9.88,4.51,10.86,2.45.47,5,.25,7.5.61s4.91.25,7.42.4c5.19.31,10.28.71,15.49.78,5.47.08,10.88.3,16.35,0s11.16-.74,16.76-.8c5.29-.06,10.83.49,16-.77,4.33-1,7.24-4.57,9.73-7.71,1.49-1.87,2.57-4,3.91-6,1.11-1.64,2.54-3.12,3.31-4.94a22,22,0,0,1,1.57-3.37,12.42,12.42,0,0,0,1.23-2.64c.39-1.08.85-2.2,1.14-3.33,3.14-.37,6.25-.83,9.36-1.45,2.15-.42,4.3-.85,6.43-1.35l.85-.23.26,0c4.23,0,7.68-1.89,11.07-4,1.68-1,3.39-2,5.15-2.87a31.74,31.74,0,0,0,5.11-3.94,38.2,38.2,0,0,0,4.19-4.25,24.54,24.54,0,0,0,3.18-3.9c1-1.7,1-3.36,1.49-5.18a23.37,23.37,0,0,0,.9-4.9C562.36,557.93,562.9,554.3,562.74,550.51Zm-442-359.62a105.29,105.29,0,0,1,7.91-8.62c1.44-1.4,2.57-3,4-4.44,1.57-1.57,3.09-3.17,4.64-4.74,2.85-2.91,5.35-6.27,9.26-8a2,2,0,0,0,.9-.72,40.4,40.4,0,0,1,8.69-1.18c3.13,0,6.3.15,9.43-.07s6.47-.37,9.73-.34,6.69.44,10.05.47,6.77,0,10.15,0c3.18,0,6.4.15,9.57-.1,6.59-.53,13.35-.53,20-.59,3.41,0,6.82-.08,10.23,0,3.25.06,6.48.42,9.73.38,6.78-.09,13.54-.35,20.32-.36s13.7.27,20.56.35c6.59.07,13.2,0,19.8,0h.7c2.2,0,4.41,0,6.61.07a38.61,38.61,0,0,0,4.18.34c2,0,4-.07,6-.12s4,.09,6,.12a38.82,38.82,0,0,0,4.18-.34c2.2,0,4.4-.07,6.6-.07h.71c6.6,0,13.2.07,19.8,0,6.85-.08,13.69-.36,20.55-.35s13.54.27,20.32.36c3.25,0,6.48-.32,9.73-.38,3.41-.05,6.82,0,10.23,0,6.62.06,13.38.06,20,.59,3.17.25,6.39.1,9.57.1,3.38,0,6.77.06,10.16,0s6.68-.45,10-.47,6.48.12,9.73.34,6.3.11,9.44.07a40.4,40.4,0,0,1,8.68,1.18,2.1,2.1,0,0,0,.9.72c3.91,1.74,6.41,5.1,9.26,8,1.55,1.57,3.07,3.17,4.64,4.74,1.42,1.41,2.56,3,4,4.44a107.23,107.23,0,0,1,7.92,8.62c.26.32.54.63.82,1a20.67,20.67,0,0,0-4-.23c-4.22,0-8.51.17-12.72-.13-8.41-.6-16.86.13-25.27-.24-3.69-.16-7.32-.35-11-.35s-7.64,0-11.46-.12c-7.55-.31-15.11-.22-22.68-.24-3.77,0-7.55-.14-11.32,0s-7.43.48-11.17.53c-7.51.1-15-.39-22.53-.46-23.37-.21-47.34-1.4-71-1.53-23.79-.13-47.44,1.32-71.26,1.53-7.51.07-15,.56-22.53.46-3.73-.05-7.44-.44-11.16-.53s-7.55,0-11.33,0c-7.56,0-15.12-.07-22.68.24-3.82.16-7.64.12-11.46.12s-7.33.19-11,.35c-8.41.37-16.86-.36-25.26.24-4.21.3-8.5.15-12.72.13a20.57,20.57,0,0,0-4,.23C120.16,191.52,120.44,191.21,120.7,190.89ZM97.22,384.66c-.16-2.05.07-4.1-.1-6.14a23.32,23.32,0,0,1-.37-3c0-1.16.44-2.26.44-3.44,0-4.23,1-8.35,1.16-12.57s.09-8.76.5-13.09c.2-2.12.58-4.23.64-6.37.07-2.5-.06-5,0-7.5,0-2.09.42-4.13.45-6.21,0-2.25.2-4.44.33-6.68.14-2.43.41-4.77.42-7.21s.33-4.72.41-7.08c0-1.26-.09-2.52,0-3.77a22.46,22.46,0,0,1,.84-3.87,29.33,29.33,0,0,0,.72-6,2,2,0,0,0,.33-.78,24,24,0,0,0,.41-4.55c0-1.5.43-2.93.47-4.42.08-3,.34-6.06.38-9.09,0-3.27.77-6.52,1.12-9.78.32-3,.61-5.92,1-8.89.85-7,2-14,2.19-21.05a14.31,14.31,0,0,1,.73-4.25,30.83,30.83,0,0,0,1.07-5c.53-3.22,1.44-6.36,1.38-9.64a38.07,38.07,0,0,1,1.66-10.82,8.64,8.64,0,0,1,2.21-4.25c.83-.71,1.6-1.32,2.33-2a7.88,7.88,0,0,1,3.18-1.38,33,33,0,0,1,5.07-.06c3.84,0,7.68.08,11.52-.21,7.25-.54,14.67-.11,21.94-.11,3.68,0,7.33-.4,11-.4s7.46.07,11.18,0c7.43-.18,14.83-.33,22.27-.33,3.66,0,7.32-.07,11-.08s7.23.29,10.85.46c7.45.34,14.89-.18,22.34-.31,16.85-.27,33.65.52,50.48-.62a379,379,0,0,1,50.66.21c16.2,1.08,32.45.15,48.67.41,7.44.13,14.89.65,22.33.31,3.63-.17,7.22-.47,10.86-.46s7.31.07,11,.08c7.44,0,14.84.15,22.27.33,3.73.09,7.46,0,11.18,0s7.34.4,11,.4c7.28,0,14.69-.43,21.94.11,3.84.29,7.68.21,11.53.21a33,33,0,0,1,5.07.06,7.94,7.94,0,0,1,3.18,1.38c.72.68,1.49,1.29,2.32,2a8.56,8.56,0,0,1,2.21,4.25,38.09,38.09,0,0,1,1.67,10.82c-.07,3.28.85,6.42,1.37,9.64a31.92,31.92,0,0,0,1.07,5,14.31,14.31,0,0,1,.73,4.25c.21,7,1.34,14.07,2.19,21.05.37,3,.66,5.92,1,8.89.34,3.26,1.07,6.51,1.11,9.78,0,3,.31,6.06.38,9.09,0,1.49.45,2.92.47,4.42a25.75,25.75,0,0,0,.41,4.55,1.85,1.85,0,0,0,.34.78,29.33,29.33,0,0,0,.72,6,23.41,23.41,0,0,1,.83,3.87c.08,1.25-.06,2.51,0,3.77.08,2.36.4,4.7.41,7.08s.28,4.78.42,7.21c.14,2.24.3,4.43.33,6.68,0,2.08.44,4.12.46,6.21,0,2.5-.12,5,0,7.5.06,2.14.45,4.25.65,6.37.41,4.33.34,8.75.49,13.09S549,367.87,549,372.1c0,1.18.39,2.28.45,3.44a25.29,25.29,0,0,1-.38,3c-.17,2,.07,4.09-.09,6.14-.34,4.2-.75,8.38-1.07,12.57-.15,1.9-.15,3.77-.42,5.68a23.43,23.43,0,0,0-.42,3c0,1.06.16,2.14.08,3.21a50.5,50.5,0,0,1-.88,6.35c0,.22-.07.43-.1.64a12.48,12.48,0,0,0-3.36.05c-3.79.59-7.09,2.31-10.34,4-1.64.87-3.49,1.23-5.15,2.06s-3.35,2.18-5.15,3.09c-3.9,2-7.91,3.64-11.7,5.8-3.27,1.86-6.67,3.54-9.82,5.57s-6.18,4.06-9.13,6.2a85.74,85.74,0,0,0-8.72,7.37,17,17,0,0,0-5.14,8.31,36.79,36.79,0,0,0-.53,8.9c-1.37,0-2.75.08-4.09.08-2.39,0-4.79-.07-7.18.1-4.22.29-8.11,1.46-10.95,4.45-2.46,2.59-4.13,5.68-6.57,8.29-1.33,1.42-3,2.62-4,4.27a48.45,48.45,0,0,1-2.81,4.23,47.05,47.05,0,0,0-3.32,4.63c-.89,1.51-1.5,3.15-2.26,4.72-1.16,2.4-1.79,5.2,1.16,6.72,2.07,1.06,4.68,1,7,1.07,4,.09,8.07-.07,12.06.27,4.31.36,8.58.34,12.91.34h6.64c1.1,0,2.2.09,3.3.05.12,1,.24,2,.27,2.94a31,31,0,0,0,.28,4.71,15.46,15.46,0,0,0,.95,3.35c-9.62,0-19.23-.13-28.85-.39-10.36-.28-20.76-1.05-31.13-.44-10.85.63-21.72.09-32.58.67-2.7.14-5.43,0-8.12.22s-5,.51-7.56.52c-5.27,0-10.53-.15-15.8.07-32.63,1.38-65.58.94-98.18-.81-10.86-.58-21.73,0-32.58-.67-10.37-.61-20.77.16-31.12.44-9.63.26-19.24.36-28.86.39a15.48,15.48,0,0,0,1-3.35,32.36,32.36,0,0,0,.28-4.71c0-1,.15-2,.26-2.94,1.1,0,2.2-.05,3.31-.05h6.63c4.33,0,8.6,0,12.91-.34,4-.34,8.06-.18,12.07-.27,2.3-.05,4.91,0,7-1.07,3-1.52,2.32-4.32,1.16-6.72-.76-1.57-1.36-3.21-2.26-4.72a45.36,45.36,0,0,0-3.31-4.63,48.45,48.45,0,0,1-2.81-4.23c-1-1.65-2.7-2.85-4-4.27-2.44-2.61-4.12-5.7-6.58-8.29-2.84-3-6.72-4.16-10.95-4.45-2.38-.17-4.79-.1-7.17-.1-1.34,0-2.73-.09-4.1-.08a36.29,36.29,0,0,0-.52-8.9,17.07,17.07,0,0,0-5.15-8.31,84.67,84.67,0,0,0-8.72-7.37c-2.94-2.14-6-4.22-9.13-6.2s-6.55-3.71-9.82-5.57c-3.78-2.16-7.79-3.84-11.69-5.8-1.81-.91-3.35-2.18-5.16-3.09-1.65-.83-3.5-1.19-5.14-2.06-3.26-1.73-6.56-3.45-10.35-4a12.47,12.47,0,0,0-3.36-.05c0-.21,0-.42-.09-.64a50.52,50.52,0,0,1-.89-6.35c-.08-1.07.1-2.15.09-3.21a23.46,23.46,0,0,0-.43-3c-.27-1.91-.27-3.78-.42-5.68C98,393,97.55,388.86,97.22,384.66Zm447.23,76.85c-.1,1.43-.41,2.84-.48,4.28-.13,2.84,0,5.71,0,8.55,0,5.79-.16,11.6,0,17.38.07,2.73.71,5.28.37,8-.07.62-.11,1.24-.16,1.85a2.08,2.08,0,0,0-.1,1.32c-.05,1-.08,2-.09,2.95-.72,1.22-.57,2.67-1.42,3.78-1,1.35-3.25,2-4.81,2.71a51.9,51.9,0,0,1-10.84,2.9,117,117,0,0,1-12,1.39c-4.26.36-8.51.62-12.8.63-3.68,0-7.3.16-11,.38-.68,0-1.46.12-2.24.16a2.56,2.56,0,0,0-.57-.06h-1.39a4.33,4.33,0,0,1-.72-.12c-1.22-.33-1.33-1.14-1.64-2.14-.95-3-.7-6.18-1.06-9.31-.39-3.35-.41-6.78-.62-10.16s.15-6.75-.38-10.09a90.35,90.35,0,0,1-.73-10c-.14-3.43,0-6.89,0-10.33,0-3-.09-6.15,1.51-8.91,1.47-2.54,4-4.59,6.24-6.53a77.61,77.61,0,0,1,8.42-6.27c2.82-1.82,5.43-3.83,8.37-5.5s5.65-3.16,8.49-4.72c3.05-1.67,6.27-3,9.41-4.52,1.56-.76,2.92-1.76,4.4-2.64a22.81,22.81,0,0,1,3.85-1.6c2.8-1.06,5.08-2.79,8-3.66a12.68,12.68,0,0,1,4.32-1c.29,0,.58.07.88.12a1.57,1.57,0,0,0-.09.58c0,3.25-.63,6.47-.47,9.7.15,3-.58,6-.58,9.07,0,5.76,0,11.53,0,17.29C544.48,458.52,544.55,460,544.45,461.51ZM163.3,496c-.21,3.38-.22,6.81-.62,10.16-.36,3.13-.11,6.27-1.05,9.31-.31,1-.42,1.81-1.64,2.14a4.28,4.28,0,0,1-.73.12h-1.39a2.47,2.47,0,0,0-.56.06c-.79,0-1.56-.12-2.25-.16-3.67-.22-7.3-.38-11-.38-4.28,0-8.54-.27-12.8-.63a117,117,0,0,1-12-1.39,51.9,51.9,0,0,1-10.84-2.9c-1.56-.67-3.77-1.36-4.81-2.71-.84-1.11-.69-2.56-1.42-3.78,0-1,0-2-.08-2.95a2.15,2.15,0,0,0-.11-1.32c0-.61-.08-1.23-.16-1.85-.34-2.74.3-5.29.37-8,.15-5.78,0-11.59,0-17.38,0-2.84.13-5.71,0-8.55-.06-1.44-.38-2.85-.48-4.28s0-3,0-4.48c0-5.76,0-11.53,0-17.29,0-3-.72-6.05-.58-9.07.16-3.23-.46-6.45-.46-9.7a2.13,2.13,0,0,0-.09-.58,8.66,8.66,0,0,1,.87-.12,12.68,12.68,0,0,1,4.32,1c2.9.87,5.18,2.6,8,3.66a22.81,22.81,0,0,1,3.85,1.6c1.48.88,2.84,1.88,4.4,2.64,3.14,1.51,6.37,2.85,9.41,4.52q4.26,2.34,8.5,4.72c2.94,1.67,5.54,3.68,8.36,5.5a77.61,77.61,0,0,1,8.42,6.27c2.27,1.94,4.77,4,6.24,6.53,1.6,2.76,1.51,5.87,1.51,8.91,0,3.44.12,6.9,0,10.33a90.34,90.34,0,0,1-.72,10C163.16,489.27,163.51,492.66,163.3,496Zm68,121.42a9.78,9.78,0,0,1-2.7.13,28.81,28.81,0,0,0-3.47.28,60.4,60.4,0,0,1-7,.43c-4.65.12-9.25.77-13.92.8-5,0-9.9.34-14.87.2s-9.92-.52-14.88-.76-10-.08-15.05-.2a19.21,19.21,0,0,1-6.14-.81,8.87,8.87,0,0,1-2.14-1.45,13.79,13.79,0,0,1-2.75-2.34c-1.32-1.64-2.28-3.42-3.43-5.15-1.26-1.89-2.61-3.72-3.92-5.58a14.77,14.77,0,0,1-1.46-3.31,15.7,15.7,0,0,0-1.25-2.08,15.86,15.86,0,0,1-1.33-3.29c0-.07-.05-.13-.07-.19,1,0,2,0,3,0,2.12.14,4.2.42,6.33.44,4.3,0,8.6,0,12.89,0,1.9,0,3.71.37,5.58.53a53,53,0,0,0,6.3,0c4.22-.13,8.46,0,12.68.08,8.71.17,17.41.36,26.12.36h22.46v11.36c0,2.22,0,4.43.05,6.65C232.36,614.71,232.19,617.11,231.28,617.44Zm277.94-23.13a16.43,16.43,0,0,1-1.33,3.29,13.82,13.82,0,0,0-1.25,2.08,15.73,15.73,0,0,1-1.46,3.31c-1.31,1.86-2.66,3.69-3.92,5.58-1.15,1.73-2.12,3.51-3.43,5.15a14.13,14.13,0,0,1-2.76,2.34,8.82,8.82,0,0,1-2.13,1.45,19.31,19.31,0,0,1-6.15.81c-5,.12-10,0-15.05.2s-9.91.62-14.88.76-9.91-.17-14.87-.2c-4.67,0-9.27-.68-13.92-.8a60.54,60.54,0,0,1-7-.43,28.81,28.81,0,0,0-3.47-.28,9.69,9.69,0,0,1-2.69-.13c-.91-.33-1.09-2.73-1.07-3.9,0-2.22.05-4.43.05-6.65V595.53h22.46c8.71,0,17.42-.19,26.13-.36,4.21-.08,8.45-.21,12.67-.08a53,53,0,0,0,6.3,0c1.88-.16,3.68-.51,5.58-.53,4.3-.05,8.6,0,12.9,0,2.12,0,4.21-.3,6.32-.44,1-.06,2,0,3,0Zm48.38-32c-.11,1.65-.78,3.2-1,4.85a7.53,7.53,0,0,1-1.73,3.91,63,63,0,0,1-7.19,7.14c-3.15,2.82-9.23,6.85-13.65,7.44s-8.39,2-12.75,2.82c-2.59.49-5.24.92-7.9,1.18a2.71,2.71,0,0,0-2.77.19c-.79,0-1.58.07-2.36,0-2.18,0-4.33.3-6.51.42s-4.64,0-7,.05h-7.38c-2.13,0-4.16.39-6.26.56-4,.33-8.16-.1-12.19-.06-4.42,0-8.84.14-13.25.24-8.59.19-17.17.21-25.76.21H412.55a2.88,2.88,0,0,0-1.88,0h-6.43c-4.29,0-8.61-.25-12.88.15a82.69,82.69,0,0,1-12.09.11,105.92,105.92,0,0,0-13-.15c-4.27.3-8.55.37-12.84.37-8,0-16.06,0-24.09,0-2.09-.09-4.18-.08-6.27,0s-4.18,0-6.26,0c-8,0-16.07,0-24.1,0-4.29,0-8.56-.07-12.84-.37a105.73,105.73,0,0,0-13,.15,82.83,82.83,0,0,1-12.1-.11c-4.27-.4-8.59-.15-12.87-.15h-6.43a2.91,2.91,0,0,0-1.89,0H216.27c-8.59,0-17.17,0-25.75-.21-4.42-.1-8.84-.2-13.25-.24-4,0-8.18.39-12.19.06-2.11-.17-4.14-.55-6.26-.56h-7.39c-2.32,0-4.65.07-7-.05s-4.32-.46-6.51-.42c-.78,0-1.57,0-2.35,0a2.72,2.72,0,0,0-2.77-.19c-5.39-.52-11.24-1.36-16.28-3.24a8.15,8.15,0,0,0-2.81-.72c-3.08,0-4.36-.68-7-2.29-2.77-1.73-5.87-3-8.27-5.19a63.71,63.71,0,0,1-7.18-7.14,7.46,7.46,0,0,1-1.74-3.91c-.23-1.65-.9-3.2-1-4.85-.21-3.28-.72-6.57-.62-9.86.11-3.59.16-7.17.15-10.77s.06-7.19.32-10.79.13-7,.18-10.48a19.46,19.46,0,0,1,3.22-10.6c.93-1.44,1.51-2.89,3.18-3.72A22,22,0,0,1,97.55,505c0,.3,0,.59,0,.89a1.44,1.44,0,0,0,0,1.06c0,.31,0,.62,0,.93a1.88,1.88,0,0,0,1.19,1.8,5.72,5.72,0,0,0,.66,1.81,10.3,10.3,0,0,0,4.06,3.3,37.9,37.9,0,0,0,10.39,3.71c4,.72,8,1.32,12.07,1.74s8.37.82,12.57,1.13,8.23-.06,12.34.18c2.69.15,5.86.71,8.71.39,10.28,0,20.57.1,30.84-.28,5.22-.19,10.4-.36,15.61-.65s10.62,0,15.89,0,10.5.54,15.77.54c5.58,0,11.16-.09,16.74.08,45.94,1.35,91.34,1.35,137.26,0,5.58-.17,11.16-.07,16.74-.08,5.28,0,10.51-.53,15.78-.54s10.63-.27,15.89,0,10.38.46,15.6.65c10.28.38,20.56.29,30.84.28,2.85.32,6-.24,8.72-.39,4.1-.24,8.24.11,12.34-.18s8.38-.7,12.56-1.13,8-1,12.07-1.74a37.9,37.9,0,0,0,10.39-3.71,10.23,10.23,0,0,0,4.06-3.3,5.72,5.72,0,0,0,.66-1.81,1.88,1.88,0,0,0,1.19-1.8c0-.31,0-.62,0-.93a1.39,1.39,0,0,0,0-1.06c0-.3,0-.59,0-.89a22.61,22.61,0,0,1,2.5,1.06c1.67.83,2.25,2.28,3.18,3.72a19.46,19.46,0,0,1,3.22,10.6c.06,3.5-.06,7,.19,10.48s.31,7.18.31,10.79.05,7.18.16,10.77C558.32,555.74,557.81,559,557.6,562.31Z"/><path class="cls-8" d="M93.38,389.5a2.16,2.16,0,0,0-2.16-2.64c-1.72-.05-3.39-.43-5.11-.49-1.53-.06-2.7,0-3.73-1.23-1.76-2.08-1.26-5.17-1.62-7.62-.23-1.5-.22-3-.42-4.5a41,41,0,0,1-.5-4.82,80.32,80.32,0,0,1,.44-8.63,13.2,13.2,0,0,0,3-.24,11.78,11.78,0,0,0,6-3.74c1.84-2,2.19-3.37,2.17-5.95,0-2.83,0-5.67,0-8.51s.2-5.94.12-8.91c-.09-2.69-.68-5.31-.65-8a144.49,144.49,0,0,0-1.06-17.64c-.25-2.23-.57-4.68-2.85-5.93a13.78,13.78,0,0,0-7.75-1.15c-3,.31-6.17.69-9.19,1.16a24.36,24.36,0,0,0-6.86,1.68c-5.37,2.64-3.93,9.19-4,13.78-.07,2.94-.52,5.8-.35,8.75s.43,5.61.42,8.43c0,5.82-.93,12.19.81,17.87a10.65,10.65,0,0,0,4.52,6.35C67,359,70,359.44,72.9,359.81a22.69,22.69,0,0,0,.12,4.58,25.38,25.38,0,0,1,.23,6.1,44.68,44.68,0,0,0,1.35,12.28c.76,3,2.17,5.8,5,7.56a15,15,0,0,0,5.59,1.78c2.16.32,4.35.77,6.54.88A2,2,0,0,0,93.38,389.5Z"/><path class="cls-8" d="M552.59,389.5a2.17,2.17,0,0,1,2.17-2.64c1.72-.05,3.39-.43,5.11-.49,1.52-.06,2.7,0,3.73-1.23,1.76-2.08,1.26-5.17,1.62-7.62.22-1.5.22-3,.42-4.5a41,41,0,0,0,.5-4.82,80.32,80.32,0,0,0-.44-8.63,13.2,13.2,0,0,1-3-.24,11.78,11.78,0,0,1-6-3.74c-1.85-2-2.19-3.37-2.17-5.95,0-2.83,0-5.67,0-8.51s-.21-5.94-.12-8.91c.09-2.69.68-5.31.65-8a144.49,144.49,0,0,1,1.06-17.64c.25-2.23.57-4.68,2.85-5.93a13.78,13.78,0,0,1,7.75-1.15c3,.31,6.17.69,9.19,1.16a24.45,24.45,0,0,1,6.86,1.68c5.37,2.64,3.93,9.19,4,13.78.07,2.94.52,5.8.35,8.75s-.43,5.61-.42,8.43c0,5.82.93,12.19-.81,17.87a10.69,10.69,0,0,1-4.52,6.35c-2.44,1.49-5.47,1.93-8.35,2.3a22.69,22.69,0,0,1-.12,4.58,25.38,25.38,0,0,0-.23,6.1,45.07,45.07,0,0,1-1.35,12.28c-.76,3-2.17,5.8-5,7.56a15,15,0,0,1-5.59,1.78c-2.16.32-4.35.77-6.54.88A2.05,2.05,0,0,1,552.59,389.5Z"/><path class="cls-8" d="M163.31,553.48c0-.24,0-.48,0-.72-.15-3.34-.73-6.63-.75-10,0-2.71-4.6-2.72-4.6,0V543c0,.06,0,.11,0,.17.06,3,.58,6,.71,9a98.14,98.14,0,0,0-15.6-.53c-3.53.08-7-.11-10.48-.29-3.36-.17-6.79-.57-10.15-.49a8.6,8.6,0,0,0-1.77.23V551a17,17,0,0,0-.36-4,34.75,34.75,0,0,0-.9-4.52c-.92-2.56-5.36-1.46-4.44,1.12a22.67,22.67,0,0,1,1.09,7.74c0,2.22-.51,4.72.76,6.75s4,2.61,6.31,3.17c3.06.75,6.2.93,9.29,1.5a180,180,0,0,0,19,2.26,53.23,53.23,0,0,0,8.08.32,4.22,4.22,0,0,0,4.14-4,24,24,0,0,0-.07-5.36A2.08,2.08,0,0,0,163.31,553.48Z"/><path class="cls-8" d="M472,553.48c0-.24,0-.48.05-.72.15-3.34.73-6.63.75-10,0-2.71,4.6-2.72,4.6,0V543a1,1,0,0,1,0,.17c-.06,3-.57,6-.7,9a98,98,0,0,1,15.59-.53c3.53.08,7-.11,10.48-.29s6.8-.57,10.16-.49a8.6,8.6,0,0,1,1.77.23s0-.09,0-.14a17,17,0,0,1,.37-4,33.16,33.16,0,0,1,.9-4.52c.91-2.56,5.36-1.46,4.44,1.12a22.44,22.44,0,0,0-1.1,7.74c0,2.22.52,4.72-.76,6.75s-4,2.61-6.3,3.17c-3.06.75-6.21.93-9.3,1.5a179.67,179.67,0,0,1-19,2.26,53.1,53.1,0,0,1-8.07.32,4.22,4.22,0,0,1-4.14-4,24,24,0,0,1,.06-5.36A2.08,2.08,0,0,1,472,553.48Z"/><path class="cls-8" d="M434.58,553.21c0-1.29,0-2.57,0-3.86s-.44-2.55-.39-3.82c.1-2.71-4.5-2.71-4.6,0a28.31,28.31,0,0,0,.4,3.17c.09,1.17,0,2.39,0,3.57,0,.77,0,1.54,0,2.3-3.23.11-6.41.58-9.62.93a100.74,100.74,0,0,1-10.28.44c-3.61,0-7.2.2-10.81.33-1.69.06-3.39.12-5.08.22l-1.09.09a13.83,13.83,0,0,0-3.93.16.19.19,0,0,1,0-.08c-.09-1.17-.5-2.17-.2-3.31a7.4,7.4,0,0,0-.21-4.89,1.7,1.7,0,0,0-.66-1.55,9.94,9.94,0,0,0-4.73-2.26,31.54,31.54,0,0,0-6.66-.12c-4.3.3-8.48.68-12.81.65-9.8,0-19.61,0-29.41,0s-19.75.19-29.62,0c-4.93-.1-9.85-.39-14.78-.36-4.61,0-9.16.58-13.76.47-2.41-.06-4.74-.5-7.15-.51s-4.77.4-7.17.41a15.72,15.72,0,0,0-5.95.91c-2,.91-2.59,2.47-2.64,4.43a1.81,1.81,0,0,0,.8,1.6c-.06.29-.13.57-.19.87l-.24,0a16.51,16.51,0,0,0-3.06.09,2.61,2.61,0,0,0-2.35.35c-1.06.21-2.1.47-3.14.74H225.42c-4.54,0-9.1.09-13.64,0-4.34-.09-8.69-.64-13-.69-.11-.89-.2-1.78-.33-2.67-.2-1.31-.88-2.52-1.07-3.84a2.29,2.29,0,0,0-2.3-2.1c-1.12,0-2.47,1-2.31,2.1.21,1.43.79,2.72,1.08,4.12s.32,2.65.47,3.94a9.2,9.2,0,0,0,1.21,3.6,11.75,11.75,0,0,0,1.92,3.07c1.78,1.58,4.76,1,7,1,3.46,0,6.89.35,10.35.37,7,.06,14,.87,21.09.74,3.52-.06,7-.33,10.54-.37,2.6,0,5.53.32,8.18,0q0,1,0,2.07c0,1.38-.07,2.78,0,4.16a34.3,34.3,0,0,1,.37,3.78c0,2-.21,4.28,1.42,5.81a2.24,2.24,0,0,0,2.79.25h16c5.67,0,11.32.38,17,.36s11.19-.35,16.79-.35,11.17-.08,16.77-.25c11.44-.34,22.9-.09,34.35-.47,2.71-.09,5.42,0,8.13,0,2.9,0,5.76-.19,8.65-.32,3.67-.15,10.53,1.5,11.68-3.06.56-2.22-.2-4.65-.2-6.92,0-1,0-1.92,0-2.88,2.15.14,4.27.44,6.45.42,3,0,6-.13,9-.13s6.24.18,9.3-.12,6-.93,9-1c1.38,0,2.74-.24,4.11-.33a23.15,23.15,0,0,0,4.32-.4c2.17-.53,2.78-1.88,3.61-3.62C435.37,558.07,434.58,555.68,434.58,553.21Zm-50,3.45a15.92,15.92,0,0,1,0,3.45,66,66,0,0,0-.8,6.58,62.48,62.48,0,0,0,.38,6.42,4.11,4.11,0,0,1,0,1.11.15.15,0,0,0,0,.15l-.37-.08a28.17,28.17,0,0,0-3.44,0c-2.61-.07-5.18.14-7.78.27-5.16.25-10.34,0-15.5.19-10.83.4-21.67,0-32.49.39-5.21.16-10.42.21-15.63.21s-10.24.34-15.37.34c-5.89,0-11.75-.35-17.64-.35H259.6v-.26c0-1.06.1-2.12,0-3.18a63,63,0,0,1-.36-7.4,55.5,55.5,0,0,0-.9-6.92c-.29-2.15.36-4.35.82-6.44a2,2,0,0,0-.19-1.39,16.67,16.67,0,0,1,2.43-.32c1.93-.09,3.85-.31,5.78-.37,3.89-.12,7.69.54,11.59.51,2,0,3.85-.22,5.79-.4,2.21-.2,4.49-.08,6.7-.09,4.56,0,9.1.27,13.65.36,17.91.36,35.84-.07,53.75,0q3.78,0,7.54,0c2.24,0,4.39-.23,6.61-.34s4.28-.38,6.44-.41a25.16,25.16,0,0,1,3.25.1,3.4,3.4,0,0,1,1.53.55l.1.15c1.24,1.48.11,2.8.07,4.39A19.23,19.23,0,0,0,384.58,556.66Z"/><path class="cls-8" d="M401.27,476.44c-2.26-4.49-8.52-3.13-12.79-3.24-12.89-.31-25.75-.69-38.65-.59-6.53,0-13.05-.46-19.58-.49s-12.92,0-19.38,0c-13.18,0-26.38-.2-39.56,0q-3.15,0-6.3.2c-2.38-.08-4.76-.14-7.14-.14-1.81,0-3.59-.25-5.39-.35s-3.59-.06-5.39-.18c-2-.13-3.89-.18-5.83-.21-2.26,0-4.76-1.5-6.77.66a6.82,6.82,0,0,0-1.23.9c-1.8,1.68-1.79,3.86-1,5.94.46,1.21.62,2.49,1.08,3.7s1.21,2.53,1.64,3.85a37.17,37.17,0,0,0,3.31,7.06c1.39,2.45,3,4.72,4.59,7.08,1.25,1.9,2.14,4,3.46,5.87,2.9,4.07,9.5,6.06,14.49,6.8,2.92.43,5.88.37,8.81.64,3.22.3,6.57.13,9.81.12,6.57,0,13.15-.08,19.72-.08s13.3,0,19.95,0c6.41,0,12.79-.28,19.2-.34,6.6-.07,13.2.11,19.8-.26,6.25-.35,12.59-.36,18.73-1.66a44.27,44.27,0,0,0,8.36-2.5c2.52-1.1,3.24-3,4.65-5a97.47,97.47,0,0,0,8.82-14.54,40,40,0,0,0,2.52-7.15C401.72,480.55,402.23,478.36,401.27,476.44Z"/><path class="cls-9" d="M157.51,470.13c-.14-2.88-.66-5.72-.82-8.59-.14-2.65-.74-5-2.93-6.82s-5.12-3.13-7.64-4.68c-2.73-1.68-5.46-3.31-8.35-4.75a52.78,52.78,0,0,0-8.77-3,19,19,0,0,1-4.8-2.48,1.1,1.1,0,0,0-.14-.09l-.2-.12c-.52-.32-1-.63-1.6-.91-3.16-1.81-7.08-3.91-10.46-2.42-3.94,1.73-4.33,6.43-4.24,9.92A50,50,0,0,0,110.38,460c.34,1.06.69,2.11,1,3.14.09.63.2,1.25.31,1.88a30.28,30.28,0,0,0,0,3.16,5.77,5.77,0,0,0,3.76,5.24c2.23.89,4.78,1.3,7.1,2a40.68,40.68,0,0,0,8.69,1.66,46.15,46.15,0,0,1,8.91,1.54,21.26,21.26,0,0,0,6.67,1,18.65,18.65,0,0,0,5.59,1.12C158.75,480.77,157.7,474.05,157.51,470.13Z"/><path class="cls-9" d="M154.72,496.22c-.21-1.47-.12-3-.36-4.42-.31-1.89-.87-4.11-2.43-5.49-1.9-1.67-4.79-1.93-7.29-2.09-3.17-.2-6.33.24-9.5.1A80.13,80.13,0,0,1,126.7,483a45.41,45.41,0,0,0-7.79-.66,2.24,2.24,0,0,0-2.91-.58c-1.82,1-4,1.83-4.85,3.7a3.84,3.84,0,0,0-.17,2.77,14.75,14.75,0,0,1,.22,3.93c0,1.44,0,2.87,0,4.31a29.53,29.53,0,0,1,0,4.31,18.78,18.78,0,0,0-.58,3,8.7,8.7,0,0,0,1.11,3.79c1.12,2.05,3.79,3.33,6,4.17a33.82,33.82,0,0,0,7.62,1.71,60.82,60.82,0,0,0,8.43.45c2.95,0,5.79-.29,8.73-.43s5.94.34,8.58-1.12a6.06,6.06,0,0,0,3.18-4.56c.38-2.65.16-5.34.54-8A12.09,12.09,0,0,0,154.72,496.22Z"/><path class="cls-9" d="M488.78,470.13c.14-2.88.66-5.72.82-8.59.15-2.65.74-5,2.93-6.82s5.12-3.13,7.65-4.68c2.72-1.68,5.45-3.31,8.35-4.75a52.36,52.36,0,0,1,8.76-3,19.07,19.07,0,0,0,4.81-2.48.6.6,0,0,1,.13-.09l.2-.12c.53-.32,1.06-.63,1.61-.91,3.16-1.81,7.08-3.91,10.46-2.42,3.93,1.73,4.32,6.43,4.24,9.92A50.43,50.43,0,0,1,535.91,460c-.34,1.06-.68,2.11-1,3.14-.09.63-.19,1.25-.3,1.88,0,1,.09,2.11,0,3.16a5.8,5.8,0,0,1-3.76,5.24c-2.24.89-4.79,1.3-7.11,2A40.57,40.57,0,0,1,515,477.1a45.92,45.92,0,0,0-8.9,1.54,21.35,21.35,0,0,1-6.67,1,18.71,18.71,0,0,1-5.59,1.12C487.55,480.77,488.59,474.05,488.78,470.13Z"/><path class="cls-9" d="M491.94,491.8c.31-1.89.86-4.11,2.43-5.49,1.89-1.67,4.78-1.93,7.29-2.09,3.17-.2,6.33.24,9.49.1,2.88-.13,5.62-.92,8.45-1.35a45.21,45.21,0,0,1,7.78-.66,2.26,2.26,0,0,1,2.92-.58c1.81,1,3.94,1.83,4.84,3.7a3.79,3.79,0,0,1,.18,2.77,14.35,14.35,0,0,0-.22,3.93c0,1.44,0,2.87,0,4.31a29.53,29.53,0,0,0,0,4.31,16.77,16.77,0,0,1,.58,3,8.57,8.57,0,0,1-1.11,3.79c-1.11,2.05-3.79,3.33-6,4.17a33.94,33.94,0,0,1-7.62,1.71,61,61,0,0,1-8.44.45c-3,0-5.79-.29-8.72-.43s-5.94.34-8.59-1.12a6,6,0,0,1-3.17-4.56c-.39-2.65-.16-5.34-.54-8a12.09,12.09,0,0,1,.13-3.5C491.79,494.75,491.69,493.27,491.94,491.8Z"/><path class="cls-5" d="M142.12,450.47c-2,.66-2.75,2.47-3.85,4-1.4,1.94-3,3.8-4.34,5.75-2.79,3.93-5.31,8-8,12s-5.76,7.91-8.72,11.77c-3.21,4.19-6.62,8.25-9.88,12.41-1.73,2.21,2.26,4.32,4,2.13,5.93-7.59,12.17-15,17.7-22.87,2.51-3.56,4.61-7.35,7.17-10.88,1.34-1.86,2.64-3.76,4-5.59.66-.86,1.4-1.68,2-2.56.36-.5.65-1.06,1-1.57s1-.78.07-.47C146.11,453.62,144.92,449.55,142.12,450.47Z"/><path class="cls-5" d="M149.58,471.08a2.48,2.48,0,0,0-3.26,0c-5.63,6.36-10.38,13.3-15.49,20a2,2,0,0,0,.82,2.88,2.48,2.48,0,0,0,3.15-.76c4.89-6.4,9.4-13.08,14.78-19.16A2,2,0,0,0,149.58,471.08Z"/><path class="cls-5" d="M536.56,437.76l-.34.35a2.18,2.18,0,0,0-.52.82c-1.65,2.38-2.85,5.05-4.35,7.51-1.84,3-4,5.88-5.82,8.89s-3.69,6.12-5.76,9.06-4.3,5.57-6.37,8.4-3.83,5.6-6,8.29-4.17,5.46-6.29,8.17c-4.15,5.31-8.31,10.65-11.21,16.65-1.2,2.45,2.77,4.6,4,2.12,2.91-6,7.07-11.33,11.22-16.64,2.11-2.71,4.14-5.48,6.28-8.17s4-5.53,6-8.29,4.35-5.54,6.37-8.41,3.89-6,5.77-9.06,4-5.88,5.81-8.88c1.66-2.71,2.92-5.7,4.86-8.25C541.67,438.36,538.3,436,536.56,437.76Z"/><path class="cls-5" d="M534.71,464.73c-1.14,0-2.44,1-2.3,2.1s-.62,1.84-1.21,2.62c-.87,1.16-1.82,2.27-2.78,3.37a76,76,0,0,0-5.43,7c-3.5,5.05-7.18,10-10.62,15.1-1.56,2.31,2.42,4.43,4,2.13,3.65-5.4,7.53-10.64,11.24-16,1.74-2.51,3.73-4.78,5.7-7.13,1.65-1.95,4.06-4.43,3.73-7.09A2.27,2.27,0,0,0,534.71,464.73Z"/><path class="cls-4" d="M82.28,308.12c-1.08-.28-2.66.35-2.84,1.47-.39,2.47-1.59,5.06-2.42,7.43-1,2.82-2.19,5.57-3.21,8.38-2.13,5.88-4.07,11.81-6.37,17.63-1,2.55,3.44,3.65,4.44,1.12,2.3-5.82,4.24-11.75,6.37-17.63,1-2.81,2.22-5.56,3.21-8.38.83-2.37,2-5,2.42-7.43A2.16,2.16,0,0,0,82.28,308.12Z"/><path class="cls-4" d="M75.3,310a2.45,2.45,0,0,0-3.15-.75,6.21,6.21,0,0,0-2.55,3.52,31.8,31.8,0,0,1-1.73,3.81,45.84,45.84,0,0,0-3.56,9.69,2.13,2.13,0,0,0,1.61,2.59,2.36,2.36,0,0,0,2.83-1.47,41.92,41.92,0,0,1,3-8.42c.7-1.37,1.42-2.75,2-4.17.19-.47.34-.95.53-1.41,0,0,.24-.44.28-.49a.33.33,0,0,0,0-.06l0,0A2,2,0,0,0,75.3,310Z"/><path class="cls-4" d="M581.75,341.8c-.73-1.72-1.22-3.48-1.84-5.23-1.27-3.57-2.92-7-4.53-10.42-1.5-3.22-2.55-6.65-3.75-10-1.28-3.59-2.31-7.25-3.38-10.89-.77-2.61-5.21-1.5-4.44,1.12,1,3.44,2,6.88,3.17,10.27s2.19,6.67,3.62,9.84,3.12,6.54,4.41,9.92c.66,1.75,1.11,3.57,1.79,5.31.58,1.47,1.55,3.11,1.54,4.71,0,2.71,4.59,2.71,4.61,0A12.36,12.36,0,0,0,581.75,341.8Z"/><path class="cls-4" d="M571.61,340.21c-.1-.15-.19-.29-.27-.44l-.14-.26h0c-.31-.78-.64-1.56-.94-2.35a52.86,52.86,0,0,1-2-7.5,2.35,2.35,0,0,0-2.83-1.47,2.15,2.15,0,0,0-1.61,2.59,50.81,50.81,0,0,0,2.35,8.35c.72,1.81,1.52,4.63,4,5.07a2.4,2.4,0,0,0,2.84-1.47A2.14,2.14,0,0,0,571.61,340.21Z"/><path class="cls-5" d="M123.6,391.44a12.13,12.13,0,0,0-1.7-3.67,5.32,5.32,0,0,0-4.54-2,30.83,30.83,0,0,0-3.83.37c-1.83-.24-3.7-.29-5.6-.36-1.57-.06-3.56-.13-5,.64a3.39,3.39,0,0,0-1.69,3.53c.11,1.48-.57,2.85-.44,4.34a41.25,41.25,0,0,1,.48,4.95,32.15,32.15,0,0,0,.14,4.6c.17,1.46.37,3.17,1.9,4,1.29.69,3.16.76,4.62,1a50.2,50.2,0,0,0,5.48.62c3.15.14,6.8,0,8.78-2.61a7.69,7.69,0,0,0,1.33-3.08c.13-.63.21-1.27.3-1.9s.13-.88.2-1.35A19.22,19.22,0,0,0,123.6,391.44Z"/><path class="cls-5" d="M546.63,390.27a8.63,8.63,0,0,0-3.6-4.38c-1.72-1.07-3.92-1.09-5.91-1.33-2.31-.28-4.53.22-6.83.37s-4.54-.33-6.68.59a4.86,4.86,0,0,0-2.93,3.4,1.9,1.9,0,0,0-.27,1l0,2.86c-.11,1.73-.33,3.45-.43,5.17-.13,2.31-.26,4.61.8,6.76a2.1,2.1,0,0,0,2.57.92,3.51,3.51,0,0,0,.92,1.18c1.43,1.18,3.41,1.06,5.17.81.59-.09,1.17-.21,1.76-.3-.11,0,.8-.05.88-.06l2-.09c3.74-.18,8.86-.15,11.2-3.34,1.75-2.39,1.1-5.44,1.13-8.14C546.39,393.85,547.2,392.13,546.63,390.27Z"/><path class="cls-9" d="M542.69,392.46c-1.31-2-3.88-2.73-6.27-2.77-1,0-2,.06-3,0s-2.13-.12-3.19-.09a12.13,12.13,0,0,0-2.09.2,2.57,2.57,0,0,0-1.87,1.82,7.35,7.35,0,0,0-.22,2.68c.07,1.19.1,2.38.12,3.57,0,.8,0,1.61,0,2.41a2.16,2.16,0,0,0,1.22,1.85,2.94,2.94,0,0,0,.89.81,4.21,4.21,0,0,0,2.38.47c.48,0,1-.1,1.45-.17l.61-.09.12,0,.38,0a42.74,42.74,0,0,0,6.6-.75,2.29,2.29,0,0,0,1.93-1l0-.06a3.23,3.23,0,0,0,.83-1.22,5.21,5.21,0,0,0,.14-2.22c0-.17,0-.33,0-.49s0-.24,0-.29l0-.11.09-.27.25-.69A4.16,4.16,0,0,0,542.69,392.46Z"/><path class="cls-9" d="M119.31,401.25c0-.1-.07-.2-.1-.3a7.63,7.63,0,0,0,.25-2.2,7.32,7.32,0,0,0-1-3.85l0-.34q0-.31-.06-.63a4.84,4.84,0,0,0-1.16-2.75c-1.2-1.33-3.15-1.46-4.89-1.46a23.85,23.85,0,0,0-2.93,0,5.72,5.72,0,0,0-3.17,1.44,6.74,6.74,0,0,0-1.91,6c.13,1.09.34,2.16.53,3.24l.05.26s0,.12,0,.18l0,.12,0,.34a7.84,7.84,0,0,1,0,1.37,2.23,2.23,0,0,0,2.3,2.1h0a4.45,4.45,0,0,0,1.33.87,12.41,12.41,0,0,0,5.18.74c2.3-.06,5.09-.77,5.62-3.16A4,4,0,0,0,119.31,401.25Z"/><path class="cls-8" d="M545-3.34c0-1.2,0-2.39,0-3.59a8,8,0,0,0-.31-3,5.58,5.58,0,0,0-2.34-2.79,2.08,2.08,0,0,0-1.38-.69,7,7,0,0,0-.69-.24,2.25,2.25,0,0,0-1.84.27c-3.51.12-7,.41-10.52.43-4.08,0-8.17,0-12.26,0s-7.92.52-11.9.47c-1.94,0-3.89-.12-5.82,0s-3.67.48-5.53.56c-14.85.61-29.76-.43-44.63,0-7.35.22-14.7.39-22,.79s-14.94.11-22.38.11-15.09,0-22.63.21-14.91.65-22.37.73c-9.54.1-19.09.08-28.64,0a2.34,2.34,0,0,0-.39,0l-8.14,0-8.13,0a2.58,2.58,0,0,0-.4,0c-9.55,0-19.09.05-28.64,0-7.46-.08-14.91-.48-22.36-.73S246.56-11,239-11s-14.94.29-22.37-.11-14.7-.57-22-.79c-14.86-.43-29.77.61-44.62,0-1.86-.08-3.67-.46-5.53-.56s-3.89,0-5.82,0c-4,.05-7.93-.45-11.91-.47s-8.17,0-12.26,0c-3.51,0-7-.31-10.52-.43a2.23,2.23,0,0,0-1.84-.27q-.34.11-.69.24a2.08,2.08,0,0,0-1.37.69,5.65,5.65,0,0,0-2.35,2.79,8.42,8.42,0,0,0-.31,3c0,1.2,0,2.39,0,3.59a32.18,32.18,0,0,0,.44,6.79c.43,2.05.1,4.16.08,6.24a1.83,1.83,0,0,0,.88,1.63,2.28,2.28,0,0,0,1.42.47,87.89,87.89,0,0,1,8.85.92,95.74,95.74,0,0,0-.19,12.1c0,5.3-.37,10.59-.49,15.89a129.17,129.17,0,0,0,.29,15.24c.5,5.09.2,10.3.2,15.41q0,15.77,0,31.53c0,5,.54,9.94.52,14.92,0,5.32,0,10.63,0,15.94q0,9,0,17.9v8.57c0,1.15,0,2.3,0,3.45,0,.59.11,1.19.13,1.79a1.84,1.84,0,0,0-.38,2.46c.12.21.25.41.38.62,0,1.49,0,3,.06,4.45.06,2.13.15,4.26.08,6.39s-.68,4.36-.63,6.55c0,1,.24,2.08.17,3.12s-.43,1.84-.58,2.78c-.31,2,0,4.1-.22,6.14a21.87,21.87,0,0,0-.16,6.51,18.71,18.71,0,0,1,.79,4.89,1.85,1.85,0,0,0,.19,1c.88-1.91,1.81-3.81,2.74-5.71l.81-1.69a26.59,26.59,0,0,1,.2-4.68c.21-2-.15-4.16.25-6.13a19.38,19.38,0,0,0,.59-3.11c0-1-.15-2.08-.18-3.12-.05-2.07.53-4.16.62-6.23s0-4.26,0-6.39c-.29-11.34-.24-22.68-.26-34,0-10.57.16-21.13-.43-31.69-.28-5.12-.08-10.29-.08-15.42V76.1q0-7.47,0-14.93c0-2.4-.18-4.74-.39-7.12-.23-2.63-.12-5.27-.12-7.9,0-6,.35-11.94.48-17.92.11-5-.52-10.11.15-15.09,2.79.21,5.59.34,8.39.35,7.38,0,14.76-.41,22.14-.35,3.64,0,7.23.25,10.85.52s7.5.14,11.25.07c7.48-.13,14.94-.32,22.41-.5s14.76-1,22.19-1c3.67,0,7.35-.12,11,.05s7.43.45,11.17.45c7.14,0,14.2.77,21.32.9,3.57.06,7.1.54,10.67.63s7.17.09,10.76.05c15.16-.15,30.31-.16,45.46-.16s30.31,0,45.47.16c3.58,0,7.17,0,10.76-.05s7.09-.57,10.66-.63c7.13-.13,14.19-.89,21.32-.9,3.75,0,7.44-.27,11.17-.45s7.35-.05,11-.05c7.42,0,14.77.79,22.18,1s14.94.37,22.42.5c3.75.07,7.5.2,11.24-.07s7.22-.49,10.85-.52c7.39-.06,14.77.37,22.15.35,2.8,0,5.6-.14,8.39-.35.67,5,0,10.1.14,15.09.14,6,.5,11.94.49,17.92,0,2.63.1,5.27-.13,7.9-.21,2.38-.39,4.72-.39,7.12,0,5,0,10,0,14.93V92.18c0,5.13.2,10.3-.09,15.42-.58,10.56-.41,21.12-.43,31.69,0,11.44-.23,22.88-.23,34.32,0,2.59-.21,5.25.05,7.82a10.17,10.17,0,0,0,1,3.76,5.22,5.22,0,0,1,1,2.63c0,2.41-.48,4.62.88,6.84,1.44,2.37,5.42.24,4-2.13-1-1.7-.08-4.23-.37-6.11a9.52,9.52,0,0,0-1.21-2.92,6.63,6.63,0,0,1-.73-3c-.15-3.94-.07-7.9,0-11.85,0,0,0,0,0,0l.43-.71a1.85,1.85,0,0,0-.38-2.46c0-.6.1-1.2.13-1.79.07-1.15,0-2.3,0-3.45v-8.57q0-8.94,0-17.9,0-8,0-15.94c0-5,.51-9.93.51-14.92q0-15.76,0-31.53c0-5.11-.31-10.32.19-15.41A125,125,0,0,0,534,40.7c-.12-5.3-.53-10.59-.48-15.89a97.64,97.64,0,0,0-.19-12.1,88,88,0,0,1,8.84-.92,2.33,2.33,0,0,0,1.43-.47,1.82,1.82,0,0,0,.87-1.63c0-2.08-.35-4.19.08-6.24A32.86,32.86,0,0,0,545-3.34Zm-5.19,7.48a22.52,22.52,0,0,0,0,3.58c-2.72.21-5.44.65-8.16,1a2.66,2.66,0,0,0-1.91.18q-6,.48-11.94.41c-8.38-.09-16.77-.58-25.15-.18-3.62.17-7.2.54-10.84.53s-7.52-.12-11.28-.12-7.61-.32-11.42-.4-7.34-.14-11-.39c-14.76-1-29.43-.47-44.19-.09-3.54.09-7,.4-10.56.65s-7,.13-10.54.49c-7.18.75-14.53.41-21.73.31-13.29-.2-26.59-.12-39.89-.1s-26.59-.1-39.88.1c-7.21.1-14.56.44-21.73-.31-3.51-.36-7-.25-10.54-.49s-7-.56-10.56-.65c-14.77-.38-29.44-.9-44.19.09-3.68.25-7.34.31-11,.39s-7.6.4-11.42.4-7.52.11-11.29.12-7.21-.36-10.83-.53c-8.38-.4-16.77.09-25.15.18-4,0-8-.09-11.95-.41a2.63,2.63,0,0,0-1.9-.18c-2.72-.3-5.44-.74-8.16-1a22.52,22.52,0,0,0,0-3.58A51.9,51.9,0,0,1,102-1.28c0-2,0-3.91,0-5.86,0-1,0-1.61.54-2.07,3.49.06,7,.35,10.44.45s7.25,0,10.88,0,7,.18,10.48.38,7-.16,10.46.09c1.62.11,3.19.44,4.81.52,2,.09,4,.11,6,.12,3.66,0,7.32,0,11-.09,7.46-.11,14.92-.06,22.37-.08s15,.19,22.48.54,14.6.42,21.94.42,14.8-.09,22.19,0c7.58.14,15.16.56,22.74.78,14.27.4,28.58.23,42.86.16s28.6.24,42.87-.16c7.58-.22,15.15-.64,22.74-.78,7.39-.14,14.79,0,22.19,0s14.6-.08,21.93-.42,15-.57,22.48-.54,14.92,0,22.38.08c3.66,0,7.31.11,11,.09,2,0,4,0,6-.12,1.62-.08,3.2-.41,4.81-.52,3.48-.25,7,.1,10.46-.09s7-.38,10.49-.38,7.26.07,10.88,0,7-.39,10.43-.45c.58.46.56,1.12.55,2.07,0,1.95,0,3.9,0,5.86A51.9,51.9,0,0,1,539.82,4.14Z"/><path class="cls-4" d="M387.14,501.37c-4.17,0-8.27.74-12.42.93s-8.34,0-12.49,0c-8.35,0-16.71-.11-25.05,0-3.69.06-7.26.92-10.92,1.07-4,.17-8-.11-12-.11h-26c-4.32,0-8.75-.38-13,.41-4.69.88-9.4.56-14.16.55a2.11,2.11,0,1,0,0,4.21c4.1,0,8.35.39,12.42-.17,1.8-.24,3.55-.74,5.36-.83,2.1-.09,4.22,0,6.31,0h25.67q6,0,12,.13c3.91.08,7.57-.62,11.43-.94,4.08-.34,8.23-.14,12.32-.14l12.75,0c4.53,0,9.07,0,13.6,0,4.77,0,9.48-.93,14.25-1A2.11,2.11,0,1,0,387.14,501.37Z"/><path class="cls-4" d="M203.21,498.49H172.73a2.11,2.11,0,1,0,0,4.21h30.48A2.11,2.11,0,1,0,203.21,498.49Z"/><path class="cls-4" d="M480.68,497.52c-6.39,0-12.72.92-19.11,1-3.19,0-6.39-.1-9.58.08s-6.09.64-9.15.89-2.95,4.45,0,4.21,5.87-.67,8.81-.86c3.3-.22,6.62-.08,9.92-.1,6.39-.05,12.72-.93,19.11-1A2.11,2.11,0,1,0,480.68,497.52Z"/></g><path class="cls-7" d="M153,359.69l2.23,10.44c3.07-6.1,9.6-11.56,16.26-8.55a1.25,1.25,0,0,0-.37,1c0,1.21.06,2.43.1,3.65a.9.9,0,0,0-.37.07,35.34,35.34,0,0,1-4.73,1.44,1.46,1.46,0,0,0-1.07,1.79,1.37,1.37,0,0,0,.15.35,10.19,10.19,0,0,1-2.85.37,1.47,1.47,0,1,0,0,2.93,14.88,14.88,0,0,0,9-2l.13,4.67,14.09,1.46c11.65,1.19,23.32,2.26,35,2.59,7.77.22,15.55.13,23.33-.11,0-3.48.23-7,.42-10.45l7.74-2.05c1.39-.31,2.78-.67,4.14-1.1a1.47,1.47,0,1,0-.82-2.82l-.75.2a1.91,1.91,0,0,0-1.32-.27,26.6,26.6,0,0,1-4.56.26,4.66,4.66,0,0,1-1.49-.53l-.26-.16-.08-.05,0,0a4.89,4.89,0,0,1-.46-.45l-.11-.16c-.06-.1-.12-.2-.17-.3l0-.09c0-.12-.07-.24-.1-.36s0-.16,0-.19,0-.21,0-.31,0-.24,0-.35,0-.06,0-.08.06-.25.1-.37l.07-.17a3.73,3.73,0,0,1,.37-.6,1.43,1.43,0,0,0-.55-2,1.55,1.55,0,0,0-1.81.22.65.65,0,0,1,.61-.66c2.14-.33,4.22.38,6.24,1a50.23,50.23,0,0,1,6.13,2.08,28.64,28.64,0,0,1,2.61,1.28,93.32,93.32,0,0,0,2-14.89c.21-3.3.3-6.61.38-9.92a74.93,74.93,0,0,0-.09-8.61c-.48-5.46-2.35-10.71-7.15-14.07s-10.76-4-16.43-4c-3.93,0-7.85.42-11.79.38-1.58,0-3.51.07-4.94-.7-.92-.5-1.59-1.71-.59-2.45a1.13,1.13,0,0,0,.24-1.71A120.89,120.89,0,0,0,229.85,282a1.49,1.49,0,0,0-1.4-1.81,29.76,29.76,0,0,0-10.22-24,1.64,1.64,0,0,0-2.66,1,11.73,11.73,0,0,0-3.94-.95,1.36,1.36,0,0,0-.59.12,22,22,0,0,0-9.59.57,19.59,19.59,0,0,0-8.72,4.29c-5.48,4.8-7.67,12-8,18.9a93.27,93.27,0,0,0,.83,14.36l1.39,13.08c-9.8-1.28-21.23-1.91-28.41,5.71-3.5,3.71-4.58,8.57-5.16,13.39a129.57,129.57,0,0,0-.88,17.06,134.8,134.8,0,0,0,1,14.61A1.4,1.4,0,0,0,153,359.69Z"/><path class="cls-4" d="M249.46,339.76q-1-6.75-2-13.51c-.26-1.7-2.94-1.18-3,.38-.19,3.74-.37,7.47-.56,11.2-1.95-.61-3.93-1.13-5.92-1.61a52.65,52.65,0,0,0-10.61-3.15,1.55,1.55,0,0,0-.64-.15h-.29l-1-.17a2,2,0,0,0-1,.12q-4.38-.06-8.76.18c-2.52.1-5,.27-7.54.47a12.11,12.11,0,0,0-.43-4.6,11.52,11.52,0,0,1,1.22-3.11l0-.05c2.79-1.51,4.65-4.43,6.14-7.14a1.52,1.52,0,0,0-2.41-1.77,37.56,37.56,0,0,0-6,6.72,5.32,5.32,0,0,1-1.52.29,5.72,5.72,0,0,1-1.8-.25c-1.5-1.19-3.33-2.07-4.83-3.25-.7-.69-1.34-1.38-1.93-2-1.15-1.21-3.41.39-2.41,1.77.08.11.17.2.25.3h0l0,0a10.47,10.47,0,0,0,1.44,1.46,18.51,18.51,0,0,0,5.77,4.18,8.47,8.47,0,0,1,2,2.79c.14,1.66.29,3.32.44,5a183.62,183.62,0,0,0-27.18,4.88l-.1-.08a2.9,2.9,0,0,1-.27-.41c-.66-1.29-.58-3.08-.74-4.48-.38-3.23-.76-6.45-1.13-9.68a1.61,1.61,0,0,0-1.66-1.4c-.17-.44-.32-.88-.52-1.31a1.6,1.6,0,0,0-1.88-1,1.46,1.46,0,0,0-1.08,1.8,28.57,28.57,0,0,1,2.05,6.77l0,9.92a1.65,1.65,0,0,0,2.3,1.31l.84.61a12.49,12.49,0,0,0,3,2.21,1.52,1.52,0,0,0,1.1.2,1.29,1.29,0,0,0,1.23.17,122.41,122.41,0,0,1,25.64-6.44,94.76,94.76,0,0,1,15.62-.31,1.77,1.77,0,0,0,.46.18l26,5.75a1.72,1.72,0,0,0,.88,0A1.45,1.45,0,0,0,249.46,339.76Z"/><path class="cls-5" d="M222.44,273.11c-.63-1.51-2.34-1.95-3.81-2.45a35.28,35.28,0,0,0-5.79-1.13,18.74,18.74,0,0,0-5.88-.27,12.54,12.54,0,0,0-5.12,2.17,19.75,19.75,0,0,0-4,3.15,16.22,16.22,0,0,0-3.88,8.7,24,24,0,0,0-.06,5.93,37.07,37.07,0,0,1,.63,5.94c0,2.35,0,4.66.14,7,.14,1.93-.49,4.3.54,6.07a27.2,27.2,0,0,0,1.81,2.35,31.35,31.35,0,0,0,2,2.47,48.41,48.41,0,0,0,4.64,4.29,1.83,1.83,0,0,0,1.83,1.75c1.18,0,1.52-.81,2.06-1.59a17.12,17.12,0,0,1,2.68-2.4c.88-.81,1.85-1.38,2.8-2.1a3.52,3.52,0,0,0,1.45-2.56c.14-1.11.39-2.21.46-3.32a3.44,3.44,0,0,0-.72-2.64,14.5,14.5,0,0,0,1.61-.4,5.18,5.18,0,0,0,3.12-3.15,10.2,10.2,0,0,0,.36-2.21,28.58,28.58,0,0,1,.7-3,33.9,33.9,0,0,0,1-5.82c.34-4.1,1.1-8.14,1.5-12.24C222.59,276.22,223,274.53,222.44,273.11Z"/><path class="cls-8" d="M231.23,278.92a33.3,33.3,0,0,0-.67-7.12,26.25,26.25,0,0,0-2.94-6.34,40.48,40.48,0,0,0-4.16-5.78c-3-3.5-7.17-4.7-11.69-5.37a58.88,58.88,0,0,0-6.76-.57,11.27,11.27,0,0,0-3.18.66,29,29,0,0,0-3.55,1.19,23.24,23.24,0,0,0-2.86,1.56c-.95.56-1.94,1-2.85,1.65a16,16,0,0,0-4.36,4.58,39.08,39.08,0,0,0-5.32,12.52,25,25,0,0,0-.71,7.21,68.43,68.43,0,0,0,1.48,8c.5,2.65,1.37,5.34,1.62,8,.12,1.21.27,2.4.43,3.61.07.59.07,1.18.15,1.77a5.09,5.09,0,0,0,.12.68c0,.2,0,.38.06.45-2.74,0-5.48-.11-8.22,0-3.16.09-6.32.39-9.48.56-1.37.07-3-.12-4.3.4a6.92,6.92,0,0,0-1.32.82,11.74,11.74,0,0,1-2.05,1,13.28,13.28,0,0,0-5.46,4.88c-1.58,2.26-2,5.13-2.47,7.75-.52,3-1.07,6-1.5,9.06a68.64,68.64,0,0,0-.73,8.94c0,1.3-.41,2.55-.37,3.85s.34,2.82.36,4.25a83.94,83.94,0,0,0,.31,10.28c.1.74,0,1.49.07,2.23s.23,1.49.33,2.24a15.87,15.87,0,0,0,1.26,4.51c.61,1.32,3,.66,2.86-.74l0-.21a1.42,1.42,0,0,0-.28-.76,13.59,13.59,0,0,1-.83-3.38c-.19-1.29-.18-2.56-.31-3.85a34.73,34.73,0,0,1-.36-4.08c0-1.43,0-2.86,0-4.29a35.66,35.66,0,0,0-.12-3.87,14.07,14.07,0,0,1-.1-3.94c.42-2.63.29-5.34.57-8,.29-2.85.79-5.67,1.28-8.5a55.15,55.15,0,0,1,1.59-7.83,8.17,8.17,0,0,1,1.55-2.81,11.59,11.59,0,0,1,2.62-2.61c1-.58,2.1-.83,3-1.42a7.1,7.1,0,0,1,1.22-.83,9.74,9.74,0,0,1,2.36-.13c3.33-.16,6.66-.48,10-.59s6.64,0,10,0a1.44,1.44,0,0,0,1.43-1.84,2.72,2.72,0,0,0,.15-1.49c-.16-1-.26-1.91-.39-2.89-.3-2.15-.44-4.31-.94-6.43-.54-2.31-1-4.63-1.43-7a40.54,40.54,0,0,1-1.13-6.71,28.6,28.6,0,0,1,3.17-12.76,33.72,33.72,0,0,1,3-5.45,14.07,14.07,0,0,1,4.86-4c.82-.45,1.58-1,2.4-1.42a17.7,17.7,0,0,1,3.5-1.3,9.84,9.84,0,0,1,3-.65c1.1.08,2.19.1,3.28.23,4.38.53,8.94.78,12.15,4.06a30.27,30.27,0,0,1,4.14,5.57,23.47,23.47,0,0,1,2.86,6,18.53,18.53,0,0,1,.35,3.33c.07,1.23.22,2.45.23,3.68a46.68,46.68,0,0,1-.51,6.78c-.36,2.46-1.72,4.63-2.32,7s-1.15,4.92-2.75,6.82c-1.45,1.71-3.3,3-3.36,5.37,0,1,.28,2,.25,3a2.7,2.7,0,0,0,.73,2.3c.95.79,2.67.3,2.62-1v-.38a1.4,1.4,0,0,0-.27-.78c0-.12,0-.26,0-.34a8.27,8.27,0,0,0-.12-1.21c-.18-1.2-.33-2.05.58-3a16.86,16.86,0,0,0,3.68-5.17,21.06,21.06,0,0,0,1.21-3.11,35,35,0,0,1,.93-3.44,27.83,27.83,0,0,0,1.93-6.53A45.89,45.89,0,0,0,231.23,278.92Z"/><path class="cls-8" d="M224.41,270.28c-.75-1.71-2.68-2.35-4.45-2.73a26.76,26.76,0,0,0-8-.24c-2.89.25-5.79.27-8.69.47a1.71,1.71,0,0,0-.57.15,1.49,1.49,0,0,0-1.28.38,2,2,0,0,0-.66,1.06.31.31,0,0,0,0,.09l-.07,0c-.38.33-.37.81-.62,1.2a4.38,4.38,0,0,1-.75.74c-.66.64-1.23,1.36-2,1.94a21.8,21.8,0,0,0-2,1.68,8.2,8.2,0,0,0-2.34,4.43c-.32,1.95-.71,3.86-.9,5.83a26.44,26.44,0,0,0-.32,3c0,1,0,1.95.11,2.93.16,2,.54,4.06.79,6.1.46,3.76.83,7.63,1,11.44a1.33,1.33,0,0,0,0,2c1.84,1.75,4.1,3.06,5.79,4.93.85.94,1.64,1.89,2.56,2.77s1.77,2,3,2.34,2.28-.51,3.18-1.29a26.42,26.42,0,0,0,2.41-2.44,25.66,25.66,0,0,1,2.62-2.25,24.38,24.38,0,0,0,2.32-2.67l.42,0a1.47,1.47,0,0,0,1.07-1,4.48,4.48,0,0,0,.19-1.67c0-.24,0-.47,0-.7l-.09-.64c0-.05,0-.1,0-.15h0a2.87,2.87,0,0,0-.05-.41c0-.16,0-.32,0-.47s0-.6-.07-.9a5.24,5.24,0,0,0-.31-1.33,8.45,8.45,0,0,0,3.39-1.82c1.62-1.54,1.87-3.63,2-5.69.09-1.13.32-2.22.4-3.36a33.19,33.19,0,0,1,.67-3.82c.43-2.34.51-4.7.77-7,.13-1.18.24-2.35.35-3.52s.46-2.41.5-3.65C224.7,274,225.23,272.16,224.41,270.28Zm-2.84,5.41a25.61,25.61,0,0,1-.39,3c-.16,1.09-.17,2.19-.32,3.29-.29,2.15-.31,4.33-.65,6.48a54.92,54.92,0,0,0-1,6c0,1-.31,1.9-.38,2.87a7,7,0,0,1-.61,2.93c-.8,1.48-3,2.05-4.62,2.28a13.44,13.44,0,0,1-3.29.08,6.67,6.67,0,0,0-1-.25,1.89,1.89,0,0,0-1.44.63c-1.25,1.15.26,2.87,1.61,2.41a3.11,3.11,0,0,0,.5.1,7.36,7.36,0,0,0,1.15,0c.74,0,1.47,0,2.2-.05,0,0,0,.05,0,.07s.13.2.2.3a.42.42,0,0,0,0,.1l.09.35a.31.31,0,0,0,0,.1c0,.57.09,1.13.16,1.7l.09.61v.06c0,.21,0,.43.05.65v.14a1.35,1.35,0,0,0-.67.43c-.67.77-1.21,1.64-1.94,2.36s-1.63,1.32-2.42,2-1.28,1.52-2,2.21c-.35.32-.72.6-1.08.91-.09.08-.27.2-.4.31l-.15-.09a24.72,24.72,0,0,0-2.32-2.25c-.73-.78-1.36-1.64-2.13-2.39-1.31-1.27-2.84-2.31-4.25-3.49-.08-3.77-.5-7.57-.87-11.33-.38-3.92-1.54-8-.8-11.94.16-.82.13-1.67.25-2.5s.42-1.87.57-2.82a6.54,6.54,0,0,1,2.31-4.45c1.28-1.11,2.51-2.18,3.72-3.37a8.06,8.06,0,0,0,1.25-1.93c-.32.54.24-.13.3-.22l.17-.3c2.06-.14,4.13-.19,6.19-.31a40.73,40.73,0,0,1,6.62-.24,26.11,26.11,0,0,1,2.94.27,5.22,5.22,0,0,1,2.1.74C222.44,272.18,221.61,274.53,221.57,275.69Z"/><path class="cls-8" d="M264.33,338c-.05-2.45,0-4.92,0-7.38a29.18,29.18,0,0,0-.47-7.23,41,41,0,0,0-1.59-6.58c-.8-2-2.36-3-3.85-4.47s-4-2.27-6-2.65a25.53,25.53,0,0,0-3.27-.35c-1.28-.08-2.53-.33-3.8-.46s-2.3,0-3.46-.06-2.46-.22-3.7-.29-2.76-.09-4.09-.25-2.79-.16-4.22-.23a31.37,31.37,0,0,0-4.22-.19c-.68.06-1.37.13-2,.21-.23,0-.46,0-.69.1-.45.08-.77-.05-.29.33-1.51-1.19-3.69.86-2.17,2.07s3.78.28,5.66.18a32,32,0,0,1,3.52.21c1.29.08,2.55,0,3.83.17,4.53.65,9.18.31,13.71.94,2.31.32,4.55.25,6.75,1.12a7.06,7.06,0,0,1,2.54,1.43c.71.73,1.68,1.26,2.31,2.05,1.24,1.54,1.29,3.89,1.72,5.72a25.8,25.8,0,0,1,.81,6.83c-.06,2.64-.07,5.28-.06,7.92,0,1.25.16,2.52.06,3.77,0,.31-.09.62-.14.93a3.6,3.6,0,0,0-.25,1.35,1.84,1.84,0,0,0-.05.25,1.39,1.39,0,0,0-.14.63v.59a1.33,1.33,0,0,0,.24.8,4.19,4.19,0,0,0-.05,2,11.79,11.79,0,0,1,.07,3.46c0,1.54,0,3.08,0,4.63,0,1.88,3.07,1.88,3.07,0,0-1.39,0-2.78,0-4.17a28.67,28.67,0,0,0,0-3.59,6.25,6.25,0,0,0-.18-1c0-.08-.05-.16-.07-.24v-.09a14.35,14.35,0,0,0,.21-1.76c0-.38-.06-.76-.08-1.14,0-.11,0-.22,0-.33l.06-.32a1.23,1.23,0,0,0,.21-1.12c0-.16.06-.32.08-.48A24.39,24.39,0,0,0,264.33,338Z"/><path class="cls-8" d="M164,375.12a6.16,6.16,0,0,0,.47-1.55,1.75,1.75,0,0,0-.16-1.09l.11-.13c.65-.82,1.24-1.73,1.8-2.6l.25-.43c.26.1.51.2.75.31,1.53.65,3.12,1.06,4.67,1.64s3.25,1.35,4.95,1.83,3.63.95,5.46,1.38,3.44.64,5.15,1a55.89,55.89,0,0,1,5.5,1.63,44,44,0,0,0,4.94,1.36l.5.1c5.52.48,11,.88,16.59,1.14a10.93,10.93,0,0,0,2.06-.86h0c3-.32,6-.34,8.88-.86s6-1.42,9.06-2c6-1.11,12-2,18-2.7a19.84,19.84,0,0,0,3.59-.46,1.17,1.17,0,0,0,.19.52,1.61,1.61,0,0,0,2.1.52,1.59,1.59,0,0,0,.76-.63c.22.73.41,1.48.7,2.19.45,1.09.82,2.21,1.35,3.26.06.12.13.23.19.34q6.72-.37,13.44-.85a4,4,0,0,0,.08-1.15,8.74,8.74,0,0,0-.41-1.22,31.53,31.53,0,0,0-1.33-3.75,29.78,29.78,0,0,1-1.56-3.34c-.39-1.24-.8-2.46-1.25-3.68a34.56,34.56,0,0,0-8.1-12,45.73,45.73,0,0,0-12.19-8.72,71.56,71.56,0,0,0-14.62-5.57,110.91,110.91,0,0,0-16.44-2.57,78.31,78.31,0,0,0-17.18.22c-10.8,1.4-21.67,4.74-30.88,10.39-1.27.78-2.46,1.66-3.65,2.55a35.54,35.54,0,0,0-3.39,2.53c-.47.43-.87.93-1.34,1.35a13,13,0,0,1-1.51,1,12.76,12.76,0,0,0-2.75,2.74,33.32,33.32,0,0,0-4.48,6.42,34.89,34.89,0,0,0-1.48,4,52.19,52.19,0,0,0-1.89,6.66Q157.46,374.5,164,375.12Zm51.54-14c.13-.76.28-1.52.42-2.28.69-3.23,1.35-6.47,2.22-9.66,2.49.16,4.92.41,7.39.79a50.25,50.25,0,0,1,6.77,2,39.76,39.76,0,0,1,6.67,2.69c2.19,1.13,4.28,2.41,6.36,3.71a28.15,28.15,0,0,1,2.73,1.82c.87.69,1.91,1.12,2.73,1.86s1.52,1.73,2.32,2.57c.24.26.51.5.76.76a2.44,2.44,0,0,0-.33.23,3.08,3.08,0,0,0-.24.27h-.42c-2.85.27-5.64,1.36-8.38,2.09s-5.43,1.42-8.19,2c-3.41.75-6.84,1.43-10.25,2.17-1.67.37-3.37.65-5,1.06-.7.17-1.46.51-2.23.72a3.33,3.33,0,0,0-1.1-.89,11.61,11.61,0,0,0-3.45-.94l-.63-.1C214.38,368.45,214.88,364.77,215.52,361.13Zm-42,2.48a4.92,4.92,0,0,1,.84-1.52,9.46,9.46,0,0,1,1.72-1.13,1.37,1.37,0,0,0,.51-2,33.09,33.09,0,0,1,4.18-2.68,65.5,65.5,0,0,1,23-7.17c.14,1.1.18,2.21.29,3.32s.34,2.07.54,3.1c.24,1.2.29,2.42.5,3.62.38,2.14.8,4.23,1.11,6.38s.55,4.59,1.88,6.26h0c0,.09,0,.18,0,.28a12.7,12.7,0,0,0-3.78,1.44,9.94,9.94,0,0,0-1.84,1.38c-.11.1-.31.33-.51.56a9.9,9.9,0,0,0-2.45-.87,25.46,25.46,0,0,1-4.21-1.59,27.72,27.72,0,0,0-4.43-1.65,29,29,0,0,1-4.64-1.64,60.73,60.73,0,0,0-8.89-3.19c-1.57-.38-3.07-.92-4.64-1.31h0A6.42,6.42,0,0,1,173.57,363.61Z"/><path class="cls-8" d="M223.36,278.05c-.26-2.66-3.35-2.55-5.42-2.14-6.87,1.36-13.89,2.25-20.77.62a1.47,1.47,0,0,0-1.7.73,4.13,4.13,0,0,0-1.43.92,5.37,5.37,0,0,0-1.35,3.18c-.23,1.23-.47,2.46-.63,3.7-.19,1.47.35,2.2,1.49,3.12.85.7,1.6,1.51,2.52,2.14a7.81,7.81,0,0,0,3.78,1.2,28,28,0,0,0,8.6-.81,71.73,71.73,0,0,1,8.58-1.89c2.44-.25,4.81-.31,5.24-3,.21-1.33.45-2.66.67-4A14.59,14.59,0,0,0,223.36,278.05Zm-12.79,6.83a7.42,7.42,0,0,1-2.27,1.81,7.14,7.14,0,0,1-1,.39,4.24,4.24,0,0,1-1.4.52,4.42,4.42,0,0,1-4.32-1.52,2.51,2.51,0,0,1-.5-1.17,2,2,0,0,1-.64-1.71,2.46,2.46,0,0,1,1.2-1.67,7.57,7.57,0,0,1,2-.94,4,4,0,0,1,2.44.15,14.69,14.69,0,0,1,2.27,1.07c.31.17.63.35,1,.51l.46.21.13.05a1.46,1.46,0,0,1,1,1A1.4,1.4,0,0,1,210.57,284.88Zm10.6-2a4.23,4.23,0,0,1-3.68,2.94,12.87,12.87,0,0,1-3.12-.83,2.57,2.57,0,0,1-1.38-2.26,3.58,3.58,0,0,1,1.54-2.55,1.64,1.64,0,0,1,1-.4.93.93,0,0,1,.29,0,3.61,3.61,0,0,1,2-.57,2.29,2.29,0,0,1,1.75-.22,2.42,2.42,0,0,1,1.2.79l.05,0a1.06,1.06,0,0,1,.37.39l.15.33c0,.14,0,.27.05.41a2.58,2.58,0,0,1,.09.62A2.62,2.62,0,0,1,221.17,282.9Z"/><path class="cls-8" d="M215.6,292c-.1-.28-.23-.55-.35-.82l-.05-.1-.11-.27c-.15-.42-.27-.85-.38-1.29a17.8,17.8,0,0,0-.81-2.76,1.58,1.58,0,0,0-1.89-1c-.71.22-1.4,1-1.07,1.8.62,1.43.73,3,1.35,4.43l.28.64s0,0,0,0a2.44,2.44,0,0,1,.1.24h0a1.34,1.34,0,0,0-1.1.42l-.18.22a1.45,1.45,0,0,0-.32,1.6,1.54,1.54,0,0,0,1.4.89,3.79,3.79,0,0,0,2.59-.95A2.78,2.78,0,0,0,215.6,292Z"/><path class="cls-8" d="M214,297.11a17.56,17.56,0,0,0-1.78.16c-.52.06-1,.07-1.55.1s-.81.07-1.22.06h-.29a1.61,1.61,0,0,0-2,.12,1.44,1.44,0,0,0,0,2.07c.82.86,2.19.79,3.3.71.51,0,1,0,1.53-.09.67-.07,1.32-.18,2-.19a1.46,1.46,0,1,0,0-2.92Z"/><path class="cls-8" d="M208.5,283.63a.24.24,0,0,0,0-.08,3.52,3.52,0,0,0-.18-.4c0-.07-.11-.14-.16-.21a2.32,2.32,0,0,0-.52-.46l-.07,0a3.52,3.52,0,0,0-.45-.18l-.09,0a4.1,4.1,0,0,0-.49-.06h-.12a4.1,4.1,0,0,0-.49.06l-.07,0a1.25,1.25,0,0,0-.47-.07l-.41.05a1.52,1.52,0,0,0-.67.37,2.82,2.82,0,0,0-.47.51l-.06.11a1.75,1.75,0,0,0-.15.34s-.07.05-.09.09a1,1,0,0,0-.18.54,1.14,1.14,0,0,0,0,.58,1.45,1.45,0,0,0,.7.87l.32.13.23.17a3.32,3.32,0,0,0,.59.24,1.22,1.22,0,0,0,.26.06,3.05,3.05,0,0,0,.67.07h.13a5.15,5.15,0,0,0,.53-.07,2.47,2.47,0,0,0,1.09-.59,3.79,3.79,0,0,0,.32-.38l.07-.12a3,3,0,0,0,.22-.52,3.25,3.25,0,0,0,.06-.45.45.45,0,0,0,0-.11A2.34,2.34,0,0,0,208.5,283.63Z"/><path class="cls-8" d="M219.3,281.27a2,2,0,0,0-1.39-.56,3.08,3.08,0,0,0-.61.06l-.26.06a14.05,14.05,0,0,0-1.39.58l-.31.23a1.13,1.13,0,0,0-.32.47.71.71,0,0,0-.1.37,1,1,0,0,0,0,.58c.05.12.11.24.16.35l.24.3a1.34,1.34,0,0,0,.31.22,1.7,1.7,0,0,0,.33.38,3.6,3.6,0,0,0,.4.28,2.46,2.46,0,0,0,.47.2,2.25,2.25,0,0,0,.63.11,2.94,2.94,0,0,0,.66,0,2.47,2.47,0,0,0,.59-.22c.09-.05.17-.12.25-.17a2.31,2.31,0,0,0,.24-.2,2.21,2.21,0,0,0,.51-.84.94.94,0,0,0,0-.16c0-.18.06-.36.08-.55A1.91,1.91,0,0,0,219.3,281.27Z"/><path class="cls-5" d="M185.05,354.81a1.52,1.52,0,0,0-.45-1,1.63,1.63,0,0,0-1.08-.43l-.11,0a7.46,7.46,0,0,0-.85-1.61,32.59,32.59,0,0,0-3.57-4.3,1.42,1.42,0,0,0-.13-1.91l-4.12-4a1.62,1.62,0,0,0-2.17,0,1.79,1.79,0,0,0-.35.57l-.44-.28c-1.26-.75-3,.78-2.1,2l.14.19a1.48,1.48,0,0,0-.57.19,1.68,1.68,0,0,0-.77,1.2c-.38-.24-.75-.49-1.13-.72a1.55,1.55,0,0,0-2.31,1.26c0,.62.05,1.24.12,1.85a1.27,1.27,0,0,0-.52.32,1.59,1.59,0,0,0-.33.51,1.83,1.83,0,0,0-.46.07,2.13,2.13,0,0,0-1.36,1.26l0,0c-.25-.14-.49-.29-.75-.41-1.08-.54-2.74.37-2.25,1.65.26.67.54,1.34.82,2a1.49,1.49,0,0,0-1.21,2.18c0,.07.09.14.13.22a1.21,1.21,0,0,0-.23,1.24,18.84,18.84,0,0,0,7.72,10,1.54,1.54,0,0,0,2.25-1c.83-.21,1.48-.93,1.12-1.76a2.93,2.93,0,0,0,.59.11l.06.07a1.54,1.54,0,0,0,2.31-.2,2,2,0,0,0,1.11-.1l3.78-1.71a18,18,0,0,0,3.11-1.55,4.1,4.1,0,0,0,1.19-1.29,1.63,1.63,0,0,0,.4-.15,4.81,4.81,0,0,0,1.88-1.89A4.45,4.45,0,0,0,185.05,354.81Z"/><path class="cls-5" d="M265.1,353.93a3,3,0,0,0-2.38,1,27.09,27.09,0,0,0,2-4c.45-1.1-.85-2-1.88-1.8a15.44,15.44,0,0,0-3.63,1.33,1.88,1.88,0,0,0-.16-.23l.25-.35c.88-1.38,1.84-3.36.49-4.79s-3-.74-4.31.17l.51-.79a1.45,1.45,0,0,0-.55-2,4.05,4.05,0,0,0-3.56-.16c-1.5,0-2.69,1.36-3.62,2.4a32.62,32.62,0,0,0-4.81,7.19c-.32.37-.63.75-.92,1.13a3.16,3.16,0,0,0,.21,4.35,2.51,2.51,0,0,0,1.71.6,2.81,2.81,0,0,0,1,2.48,2.54,2.54,0,0,0,1.93.66,1.29,1.29,0,0,0,0,.19,1.22,1.22,0,0,0,.27.5,1.28,1.28,0,0,0,.43.37l.37.15a1.57,1.57,0,0,0,.57,0l0,.11a2.93,2.93,0,0,0,3.73,1.53,5.56,5.56,0,0,0,1-.39,2.7,2.7,0,0,0-.31,1.88,2.14,2.14,0,0,0,.09.27l.16-.06a1.22,1.22,0,0,1,.57,0,1.17,1.17,0,0,1,.54.16c1,.44,2,1,3,1.49l.21.14a9.84,9.84,0,0,0,2-.75,12.07,12.07,0,0,0,3-2.22,18.41,18.41,0,0,0,2.42-3.09,20.94,20.94,0,0,0,2.05-3.7A2.82,2.82,0,0,0,265.1,353.93Z"/><path class="cls-8" d="M269.72,354.24a5.56,5.56,0,0,0-2.51-1.72c.47-1.4.59-2.71-.67-3.73a5.69,5.69,0,0,0-1.44-1,4.34,4.34,0,0,0-1.34-.19,3,3,0,0,0-1.18-3.16,8.23,8.23,0,0,0-3.42-1.3,2.18,2.18,0,0,0-.9-2.29,5.46,5.46,0,0,0-4.82-.95,5.6,5.6,0,0,0-4.75,2.05c-.73.88-1.28,1.9-1.93,2.82s-1.63,1.84-2.3,2.88a20.12,20.12,0,0,1-2,2.74,16.71,16.71,0,0,0-1.68,2.78c-1,1.64-1.8,3.56-.94,5.41a4.19,4.19,0,0,0,3.22,2.25,4.94,4.94,0,0,0,2.16,2.21,6.76,6.76,0,0,0,2.81.9,3.35,3.35,0,0,0,.54.59,5.9,5.9,0,0,0,1.9.93,11.66,11.66,0,0,0,3.76,1,5.17,5.17,0,0,0,1.13-.1,6.24,6.24,0,0,0,1,.7c1.61.85,3.68,1.6,5.48.95a7.57,7.57,0,0,0,2.72-1.59c.77-.81,1.46-1.65,2.23-2.43a17.5,17.5,0,0,0,2.18-3.08,12.68,12.68,0,0,0,.78-1.62,7.52,7.52,0,0,0,.66-1.48A4.26,4.26,0,0,0,269.72,354.24Zm-25.4,3.61a1.26,1.26,0,0,1-1.72-.76c-.26-1.14.88-2.44,1.37-3.4.76-1.46,1.91-2.61,2.78-4,1-1.71,2.48-3.16,3.59-4.84a4.53,4.53,0,0,1,1.71-1.78l.07-.08c.23-.28.47-.56.71-.83a1.39,1.39,0,0,1,.64-.35l.38-.05a1.45,1.45,0,0,1,1,.4,1.05,1.05,0,0,1,.3.43h.3a2.19,2.19,0,0,1,.55.32c-.14.22-.27.59-.37.74-.2.3-.42.58-.64.86a24.17,24.17,0,0,1-1.52,2c-.55.6-1.13,1.18-1.65,1.82s-.91,1.41-1.43,2.09-1,1.12-1.47,1.72-1.07,1.52-1.61,2.28-1,1.38-1.56,2A4.37,4.37,0,0,1,244.32,357.85Zm6.27,2.44a5.13,5.13,0,0,1-.54.61,2,2,0,0,1-.9.5,1.67,1.67,0,0,1-.77,0l-.35-.14a1.41,1.41,0,0,1-.44-.4h0a5.59,5.59,0,0,1-1.33-.78,11.39,11.39,0,0,0,2.49-2.55c.74-.93,1.42-1.91,2.1-2.88s1.55-1.86,2.26-2.84a24.74,24.74,0,0,1,1.94-2.63,31.9,31.9,0,0,0,2.35-2.84l.41-.56a5.91,5.91,0,0,1,2.79.82c.32.3.26.26,0,.64s-.66.92-1,1.4c-.69,1.11-1.67,2-2.39,3.11s-1.79,2.28-2.68,3.41-1.67,2.25-2.53,3.35c-.28.35-.61.75-1,1.12Zm5.76,2.12a2.72,2.72,0,0,1-.31.38,1.78,1.78,0,0,1-.72.44,1.49,1.49,0,0,1-.42.08h-.13l-.12.13a2.22,2.22,0,0,1-.52,0,8.33,8.33,0,0,1-2.21-.64l.19-.13c2.6-2,4.05-5,6.17-7.43,1.06-1.19,1.85-2.56,2.94-3.71a11.35,11.35,0,0,0,1-1.24,5.6,5.6,0,0,0,1.36.12c.12,0,.32.06.34,0s.35.32.5.46a2.49,2.49,0,0,1-.05.31,4.88,4.88,0,0,1-.79,1.68,48.17,48.17,0,0,1-4.59,6.31c-.86.91-1.5,2-2.36,2.89C256.55,362.22,256.45,362.31,256.35,362.41ZM267,358.15a18.66,18.66,0,0,1-1.64,2.75c-.57.87-1.31,1.55-1.92,2.39a5.18,5.18,0,0,1-1.76,1.48,3,3,0,0,1-1.08.5,3.79,3.79,0,0,1-1.44-.3l-.52-.19-.22-.1-.1-.05c1.15-1.11,2.08-2.52,3.14-3.63a30,30,0,0,0,3.1-4.1c.4-.6.85-1.19,1.27-1.8a2.63,2.63,0,0,1,1.58,1.07C267.68,356.78,267.31,357.45,267,358.15Z"/><path class="cls-8" d="M157.74,360.84a12.68,12.68,0,0,1-.78-1.62,7.52,7.52,0,0,1-.66-1.48,4.26,4.26,0,0,1,.76-3.5,5.56,5.56,0,0,1,2.51-1.72c-.47-1.4-.59-2.71.67-3.73a5.69,5.69,0,0,1,1.44-1,4.34,4.34,0,0,1,1.34-.19,3,3,0,0,1,1.18-3.16,8.23,8.23,0,0,1,3.42-1.3,2.2,2.2,0,0,1,.9-2.29,5.46,5.46,0,0,1,4.82-.95,5.6,5.6,0,0,1,4.75,2.05c.73.88,1.28,1.9,1.93,2.82s1.63,1.84,2.3,2.88a20.12,20.12,0,0,0,2,2.74,16.71,16.71,0,0,1,1.68,2.78c1,1.64,1.8,3.56.94,5.41a4.19,4.19,0,0,1-3.22,2.25,4.94,4.94,0,0,1-2.16,2.21,6.76,6.76,0,0,1-2.81.9,3.35,3.35,0,0,1-.54.59,5.9,5.9,0,0,1-1.9.93,11.66,11.66,0,0,1-3.76,1,5.17,5.17,0,0,1-1.13-.1,6.24,6.24,0,0,1-1,.7c-1.61.85-3.68,1.6-5.48.95a7.57,7.57,0,0,1-2.72-1.59c-.77-.81-1.46-1.65-2.23-2.43A17.5,17.5,0,0,1,157.74,360.84Zm14-16.34a24.17,24.17,0,0,0,1.52,2c.55.6,1.13,1.18,1.65,1.82s.91,1.41,1.43,2.09,1,1.12,1.47,1.72,1.07,1.52,1.61,2.28,1,1.38,1.56,2a4.37,4.37,0,0,0,1.45,1.42,1.26,1.26,0,0,0,1.72-.76c.26-1.14-.88-2.44-1.37-3.4-.76-1.46-1.91-2.61-2.78-4-1-1.71-2.48-3.16-3.59-4.84-.69-1.06-1.26-1.77-2.24-2a1.6,1.6,0,0,1-1.79,0,1.31,1.31,0,0,1-.51-.21,1.71,1.71,0,0,0-.59,0,2.19,2.19,0,0,0-.55.32c.14.22.27.59.37.74C171.33,343.94,171.55,344.22,171.77,344.5Zm-4.63,4.15c.69,1.11,1.67,2,2.39,3.11s1.8,2.28,2.68,3.41,1.67,2.25,2.53,3.35a7.44,7.44,0,0,0,2.52,2.3,1.35,1.35,0,0,1,1.94.05,5.59,5.59,0,0,0,1.33-.78,11.13,11.13,0,0,1-2.48-2.55c-.75-.93-1.43-1.91-2.11-2.88s-1.55-1.86-2.26-2.84a24.74,24.74,0,0,0-1.94-2.63,31.9,31.9,0,0,1-2.35-2.84l-.41-.56a5.91,5.91,0,0,0-2.79.82c-.32.3-.25.26,0,.64S166.84,348.17,167.14,348.65Zm7.72,14.17-.19-.13c-2.6-2-4-5-6.17-7.43-1.06-1.19-1.85-2.56-2.94-3.71a12.65,12.65,0,0,1-1-1.24,5.6,5.6,0,0,1-1.36.12c-.12,0-.32.06-.34,0s-.34.32-.5.46a2.49,2.49,0,0,0,.05.31,5.07,5.07,0,0,0,.79,1.68,48.17,48.17,0,0,0,4.59,6.31c.86.91,1.51,2,2.36,2.89.17.18.35.37.54.54a1.39,1.39,0,0,1,1.11.39,3,3,0,0,1,.34.39,2.22,2.22,0,0,0,.52,0A8.33,8.33,0,0,0,174.86,362.82Zm-11.5.47a5.18,5.18,0,0,0,1.76,1.48,3,3,0,0,0,1.08.5,3.79,3.79,0,0,0,1.44-.3l.52-.19.22-.1.1-.05c-1.15-1.11-2.08-2.52-3.14-3.63a30,30,0,0,1-3.1-4.1c-.4-.6-.85-1.19-1.27-1.8a2.63,2.63,0,0,0-1.58,1.07c-.29.61.08,1.28.41,2a18.66,18.66,0,0,0,1.64,2.75C162,361.77,162.75,362.45,163.36,363.29Z"/><path class="cls-8" d="M162.17,373.27a11.62,11.62,0,0,0,8.39-.12l0,2.62,3.07.31.07-5.94c0-1.77-2.68-1.88-3-.32-.22.13-.43.27-.67.39s-.34.16-.51.24l-.07,0-.22.08a10.63,10.63,0,0,1-1.1.32l-.56.11-.21,0h-.09a10.87,10.87,0,0,1-1.14.05l-.58,0-.37,0a9.71,9.71,0,0,1-2.13-.57,1.56,1.56,0,0,0-1.89,1A1.51,1.51,0,0,0,162.17,373.27Z"/><path class="cls-8" d="M245.8,379.76c.27-2.38.53-4.76.8-7.14.09-.78-.77-1.46-1.54-1.46a1.54,1.54,0,0,0-1.53,1.46l-.81,7.23C243.75,379.82,244.78,379.8,245.8,379.76Z"/><path class="cls-6" d="M417.64,240.81c-1.95,2.2-3.4,4.67-5.59,6.7a87.31,87.31,0,0,0-6.52,6.08c-.9,1-1.93,1.85-2.92,2.79s-2,2.18-3.11,3.19c-2.21,2.07-4.77,3.75-6.92,5.87-2,1.93-3.46,4.3-5.45,6.2-2.2,2.09-5.18,3.37-7.47,5.38-4.52,4-8.16,8.77-12.49,12.91s-9,8.38-12.81,13.1-7.57,9.29-11.5,13.81-7.56,9.51-12.06,13.69-8.55,8.74-12.89,13.06c-2.3,2.28-4.94,4.25-7,6.77-.89,1.12-2.21,1.63-3.13,2.71s-1.72,2.39-2.72,3.5c-2.15,2.41-4.58,4.57-6.65,7.05-.94,1.13-2.13,1.95-3.14,3a35.36,35.36,0,0,1-3.53,3.16c-1.89,1.53.83,4.13,2.71,2.61,4.27-3.45,7.83-7.53,11.66-11.44,1-1,2-2.09,2.87-3.2a13.66,13.66,0,0,1,2.24-2.77,12.69,12.69,0,0,0,2.83-2.54,22.38,22.38,0,0,1,3-2.93c4.73-4.08,8.73-8.89,13.15-13.26,2.13-2.11,4.42-4.07,6.49-6.23s3.84-4.71,5.8-7c3.93-4.67,7.91-9.31,11.87-14,1.88-2.22,3.57-4.53,5.61-6.62s4.24-4.47,6.46-6.61,4.47-4.21,6.56-6.46,4-4.46,6.1-6.57c1-1,2-2,3-2.94a44.58,44.58,0,0,1,3.9-2.79,42.69,42.69,0,0,0,3.61-2.63,32.1,32.1,0,0,0,2.53-2.92,55.8,55.8,0,0,1,7.19-6.89c2.59-2.09,4.74-4.56,7.24-6.74,1.22-1.05,2.18-2.35,3.34-3.47s2.48-2.22,3.73-3.31a34.36,34.36,0,0,0,3.61-3.63c1.08-1.29,1.93-2.76,3-4C421.93,241.63,419.24,239,417.64,240.81Z"/><path class="cls-6" d="M347.08,267.06c-2.14,2.11-3.92,4.58-6.27,6.49-2.18,1.78-4.15,3.6-6.16,5.55s-3.54,4.22-5.39,6.34c-2,2.33-4.32,4.47-6.48,6.69a27.68,27.68,0,0,0-2.45,3,32.48,32.48,0,0,1-3,3.21c-2.09,2.1-3.84,4.46-5.7,6.74s-3.92,4.5-5.78,6.84a66.31,66.31,0,0,1-5.63,6.68c-1.74,1.68,1,4.3,2.7,2.61a62.19,62.19,0,0,0,5.57-6.57c1.86-2.39,3.92-4.61,5.84-7S318,303,320,300.91A39.06,39.06,0,0,0,323,297.8c.84-1,1.57-2.1,2.51-3.06,2.16-2.22,4.45-4.36,6.49-6.69,1.85-2.12,3.35-4.36,5.38-6.34s4-3.77,6.17-5.55c2.35-1.91,4.12-4.38,6.27-6.49C351.52,268,348.81,265.35,347.08,267.06Z"/></svg>