<svg id="Layer_1" data-name="Layer 1" xmlns="http://www.w3.org/2000/svg" xmlns:xlink="http://www.w3.org/1999/xlink" viewBox="0 0 650 563.3"><defs><style>.cls-1{fill:none;clip-rule:evenodd;}.cls-2{fill:#f5f5f5;}.cls-2,.cls-3,.cls-5,.cls-6,.cls-7,.cls-8,.cls-9{fill-rule:evenodd;}.cls-11,.cls-3{fill:#fff;}.cls-4{clip-path:url(#clip-path);}.cls-14,.cls-5{fill:#999;}.cls-13,.cls-6{fill:#ddd;}.cls-10,.cls-7{fill:#444;}.cls-12,.cls-8{fill:#bbb;}.cls-15,.cls-9{fill:#fb0;}</style><clipPath id="clip-path"><path class="cls-1" d="M622.42,341c.28-17.74-2.17-35.64-5.78-52.8A360.26,360.26,0,0,0,605,246.33c-2-5.76-4-11.5-6.42-17.08-2.55-5.89-9-13.4-10.26-19.43a3,3,0,0,0-.21-.69c-7.7-17.62-22.12-30-36.07-42.68-13-11.8-29.76-19.39-46.53-24.15-38.64-11-79.71-6.56-119.2-11.22A431,431,0,0,1,324.59,119c-91.95-24.82-219.75-16.17-269.42,80.19a141.51,141.51,0,0,0-13.63,41.23c-4.22,25.09-1.91,51.3,2,76.3,1.88,12.22,4.76,24,10.15,35.16,31,64.44,85.12,120.24,154.64,141.72,33.73,10.43,70.8,7.29,106,8,23.7.46,47.38,1.28,71.08,1.85,22.68.56,45.08-1.28,67.65-3.22,21.66-1.86,43.67-5.4,64.22-12.79,20.12-7.24,37.85-19.25,53.36-33.79,23.39-21.93,40.26-49.14,47.88-80.39A145.38,145.38,0,0,0,622.42,341Z"/></clipPath></defs><title>truck-insurance</title><path class="cls-2" d="M622.42,341c.28-17.74-2.17-35.64-5.78-52.8A360.26,360.26,0,0,0,605,246.33c-2-5.76-4-11.5-6.42-17.08-2.55-5.89-9-13.4-10.26-19.43a3,3,0,0,0-.21-.69c-7.7-17.62-22.12-30-36.07-42.68-13-11.8-29.76-19.39-46.53-24.15-38.64-11-79.71-6.56-119.2-11.22A431,431,0,0,1,324.59,119c-91.95-24.82-219.75-16.17-269.42,80.19a141.51,141.51,0,0,0-13.63,41.23c-4.22,25.09-1.91,51.3,2,76.3,1.88,12.22,4.76,24,10.15,35.16,31,64.44,85.12,120.24,154.64,141.72,33.73,10.43,70.8,7.29,106,8,23.7.46,47.38,1.28,71.08,1.85,22.68.56,45.08-1.28,67.65-3.22,21.66-1.86,43.67-5.4,64.22-12.79,20.12-7.24,37.85-19.25,53.36-33.79,23.39-21.93,40.26-49.14,47.88-80.39A145.38,145.38,0,0,0,622.42,341Z"/><path class="cls-3" d="M199.61,248l-.22.05a5.63,5.63,0,0,0-.54-.36c-.31-.15-.61-.17-.79-.5s0-.36.1-.75a5.41,5.41,0,0,1,.42-1.17c1.13-1.57-1.47-3.07-2.59-1.52a3.43,3.43,0,0,0-.42,1.1c-.14.47-.37.9-.48,1.37a3.13,3.13,0,0,0,.55,2.71,4.4,4.4,0,0,0,.8.87,7.86,7.86,0,0,0,1.19.61,4.65,4.65,0,0,0,1.13.64,2.88,2.88,0,0,0,1.64-.16A1.5,1.5,0,0,0,199.61,248Z"/><g class="cls-4"><path class="cls-5" d="M555.8,476.48c-7.32.18-14.65-.88-22-.84s-14.84.41-22.27.45-15-.85-22.45-.87c-7.92,0-15.85-.06-23.76.22-14.87.55-29.68.62-44.56.64-14.63,0-29.18,1.12-43.78.3-8.22-.46-16.42-1.3-24.65-1.53-8.86-.24-17.72-.18-26.58-.46a2.16,2.16,0,0,0-2.06,1.08c-10.18-.08-20.34-.28-30.5-1.07-5.3-.42-10.61-.61-15.92-.93-3.88-.24-8.24-1.42-12.07-.82a1.9,1.9,0,0,0-1.66,1.39l-.57,0c-5.48.13-10.94.2-16.42.52l-1.51.09h-4.52c-11.49,0-23-.31-34.44.17-3.11.14-6.21.29-9.31.41a38.63,38.63,0,0,0-4.81.36c-.84.13-1.65.29-2.48.38-2.5-.27-5-.54-7.51-.67a2.48,2.48,0,0,0-2.45,2.17,2.53,2.53,0,0,0,1.79,2.74c4.21,1.62,8.86,1.6,13.31,1.54,5-.08,10.05-.05,15.08-.1q15.43-.17,30.85-.67,8.83-.28,17.66-.65a2.4,2.4,0,0,0,.78-.16l.9,0c3.23.19,6.46.47,9.69.63,2.65.13,5.37.31,7.85-.71,4.31.58,8.67.89,12.89,1.34a257.15,257.15,0,0,0,29,1.55c19.51-.12,38.95,1.21,58.45,1.48s38.82-.88,58.26-.26c18.93.6,37.74,1.54,56.7,1.3,10.64-.13,21.27-.52,31.89-1.23,5.44-.36,10.87-.83,16.31-1.27,5-.41,10-1.4,14.9-1.67C559,481.25,559,476.4,555.8,476.48Z"/><path class="cls-3" d="M496.2,332.94c-1.83-2-3.81-3.81-5.72-5.72-.52-.52-4.26-3.71-4.26-4.13,0-.94,5.58-1.9,6.63-2.34a12.84,12.84,0,0,0,5.14-3.51,4.62,4.62,0,0,0,.6-4.37c-.83-2.44-2.59-3.8-3.37-6.07a2.4,2.4,0,0,0,1.64-1.62,61.44,61.44,0,0,0,1.54-9.45c.27-2,.62-4.42-.11-6.42-1.86-5-7.7-1.78-11.18-.61-1.47.49-6.35,3-7.6,2.36.5.25,1.44-7.12,1.54-7.95a88,88,0,0,0,.67-8.87c.07-2.72.57-5.17-.12-7.86-.74-2.9-2.48-7.25-6.08-7.17-4.22.11-8.58,5.51-11.33,8.16-7.51,7.25-15.89,13.41-23.41,20.63-.38-6.05-1.12-12.14-1.55-18.14a64.24,64.24,0,0,0-1.7-10.23c-.65-2.71-.9-5.2-2.62-7.42a2.5,2.5,0,0,0-3-.39c-2.22,1-3.69,3.79-5.19,5.62-2.22,2.7-4.58,5.31-6.74,8.05-5,6.31-10.05,12.53-15,18.84-1.54,1.95-3.29,5.61-5.41,6.83-.45.26-.83.62-.71.65-.42-.1-1.27-1.65-1.57-2-1.14-1.48-2.31-2.94-3.46-4.41-4.39-5.6-9.18-10.85-13.57-16.44-2.31-2.93-7.1-9.87-11.67-9.12-4.73.78-4.35,8.42-4.66,11.89-.68,7.62-1.12,15.27-1.69,22.89-.29,3.83,0,7.69-.36,11.5,0,.4-.12.84-.18,1.28-.88-.88-2-1.74-2.68-2.44-1-1.06-1.91-2.22-2.93-3.28-2.49-2.59-5.25-4.87-7.75-7.42s-6-9-9.92-8.83a9.47,9.47,0,0,1-.59-1.55c-.82-3.08-5.6-1.77-4.77,1.31.53,2,1.8,3.47,2.6,5.34a46,46,0,0,1,1.86,6.51c1.23,4.58,4,8.74,5.7,13.18,2.7,7.23,5.58,14.29,8.59,21.34-4.23-1.16-8.46-2.4-12.73-3.43-2.84-.68-5.7-1.22-8.54-1.94-1.73-.45-4.26-1.45-6.12-1.19-8.16,1.13,4.34,19.11,5.87,22.06,2.67,5.11,4.57,10.59,7.21,15.71.75,1.44,1.43,1.63.8,3.14-.39.93-2.17,2.37-2.86,3.1-2,2.1-4.1,4.1-6.16,6.14-4.48,4.44-9.1,8.74-13.46,13.29-3.21,3.35-7.57,7.41-8.3,12.21a2.54,2.54,0,0,0,1.73,3.05c5.94,1.51,13.07-2.82,18.5-4.89,3.24-1.23,6.5-2.43,9.81-3.47s10-3.59,9.44,2.4c-.69,7.46-4.52,15.2-6.9,22.26-2,5.81-5,12.65-3.39,18.84a2.57,2.57,0,0,0,2.39,1.82c4.68.55,7-1.67,10.47-4.36,4.26-3.33,8.84-6.32,13.16-9.59,8.88-6.72,17.54-13.71,26.34-20.52,4.05-3.13,8.05-6.36,12.26-9.28a53.08,53.08,0,0,1,6-3.73c4.27-2.18,7.09-.63,10.94,1.58,4.42,2.54,8.71,5.35,13.24,7.69,3.91,2,8.3,4.47,12.75,4.86,10.43.94,8.81-12.15,8.36-19.07-.68-10.5-3.28-22.71-.23-33,.72-2.43,1.61-5.54,4-6.83,1.95-1.08,4.73-1,6.87-1.21a143.3,143.3,0,0,1,16.58,0c4.14.16,22.59,3.72,22.92-3.78C502.88,339.69,498.54,335.48,496.2,332.94Z"/><path class="cls-5" d="M652,315.62c-.71-2.56-1.61-5-2.22-7.62-1.42-6-1.16-12-4.61-17.38-2.86-4.43-8.23-4.93-13.09-4.83a1.2,1.2,0,0,0-1.19,1.3c-4.74,1.17-10.15,1.12-14.76,2-6,1.07-12,1.71-17.93,3.13A313.15,313.15,0,0,0,561.92,303a1.27,1.27,0,0,0-.69.59c-1.76,1-3,2.69-2.18,4.87,1.21,3.08,6.68,5.51,9.37,6.81,4.84,2.33,10.73,3.21,16,4.17a102.37,102.37,0,0,0,18.76,1.16c6.09,0,12.12-.05,18.2.37,6.65.46,13.23,0,19.86.15,2.72,0,8.21,1.39,10.34-.94C652.7,318.88,652.44,317.11,652,315.62Zm-6.12-16.71c.87,4,1.17,8.16,2.09,12.18-8.27.44-16.37,1.68-24.69,1-4.28-.34-8.56-.64-12.84-1A38.42,38.42,0,0,1,597.15,308c7.74-3.29,16.21-4.7,24.42-6.25a128.85,128.85,0,0,1,24.19-2.77Z"/><path class="cls-6" d="M449.17,451.57c-1.19-2-1.67-4.21-3.13-6a1.26,1.26,0,0,0-2.07-1.23c-4.28,4.21-10.49,2.16-15.77,3.15-3.51.66-5.34-.89-8.48-1.66-1.42-.35-3.92-.86-5.38-.38-4.92,1.63-4.46,12.55.6,13.94a10.65,10.65,0,0,0,4.66-.24c2.23-.4,4.43-1.05,6.73-.88a22.86,22.86,0,0,0,3.28.44c1.91-.13,3.26-1.71,5.05-2.21,3-.84,5,1.68,7.9,1.8,1.87.07,8.76.23,8.91-2.93C451.54,454.13,449.74,452.51,449.17,451.57Z"/><path class="cls-5" d="M451.56,454.05a4.8,4.8,0,0,0-3.76-1,35.48,35.48,0,0,1-6.36-.43c-1.87-.25-3.17.6-4.92.93s-2.4-.87-4-1.3a6,6,0,0,0-3.73.27c-2.16.79-2.27,1.46-4.57,1.18a20.31,20.31,0,0,0-5.28.09c-1.6.23-2.74,1.4-4.22,1.69-3.12.61-1.8,5.38,1.31,4.77,1.27-.25,2-1.18,3.21-1.54,1.5-.47,3.86-.07,5.37.14a4.68,4.68,0,0,0,1.24,0,1.25,1.25,0,0,0,.26.07l.29,0h0l.38,0a3,3,0,0,0,.6,0,15.29,15.29,0,0,0,2.4-.59.82.82,0,0,0,.59-.85,3.51,3.51,0,0,1,1.94.17c2.53,1,3.17,1.2,5.65.47a.91.91,0,0,0,.5.42,10.31,10.31,0,0,0,4.38.43,10.57,10.57,0,0,0,2.23-.42,5,5,0,0,0,1-.43,1.5,1.5,0,0,1,.84-.18.82.82,0,0,0,.28-.06,2.9,2.9,0,0,1,1.9.32C451.61,460.25,454.07,456,451.56,454.05Z"/><path class="cls-7" d="M566.86,415.93c-1.38-13.35-9.39-24.66-17.2-35.21A46.26,46.26,0,0,0,537,369c-5.72-3.54-12-4.81-18.33-6.82-5.81-1.85-12-3.91-18.1-4.18-7.13-.31-13.7,1.41-20.41,3.52-13.84,4.36-24.78,15-33.12,26.49a1,1,0,0,0-.21.81,1.13,1.13,0,0,0-.91.59,72,72,0,0,0-6.25,14.18c-1.94,5.95-1.13,13-.67,19.18,1.05,13.9,6.49,27.71,16.41,37.72,4.81,4.85,10,9.83,16.11,13.07,6.8,3.62,14.45,5.34,22,6.75a84.15,84.15,0,0,0,21.41,1.64,68.49,68.49,0,0,0,20.11-5,83.6,83.6,0,0,0,19.64-11.08,33.63,33.63,0,0,0,11.07-14.66,1.56,1.56,0,0,0,.08-.41c1.78-3.8,2-8.42,2.18-12.52A146.21,146.21,0,0,0,566.86,415.93Z"/><path class="cls-6" d="M667.09,338.16A247.83,247.83,0,0,0,663,312c-1.67-8.23-2.87-17.12-6.13-24.89-.92-2.2-2.13-4.74-4.22-6.07-2.89-1.82-6.86-1-10.09-1.29-3.85-.3-7.62-1.13-11.46-1.39a2,2,0,0,0-1.27-.43c-27.61.12-54.08,7.83-80.19,16.43-2.81.74-5.62,1.49-8.4,2.27-7.73,2.15-15.87,3.33-23.45,5.92-5.16,1.76-10.37,3.3-15.62,4.69a1.07,1.07,0,0,0-1-.43c-2.83.14-4.83-1.76-7.48-2.13-1.23-.17-2.5.18-3.72.07a21.53,21.53,0,0,1-4.59-1.33c-5.06-1.56-11.19-.8-16.3.12a48.56,48.56,0,0,0-6.85,2.1c-2.88.93-5.79.11-8.71.27-1.21.06-2.47.49-3.67.46-1.37-.05-2.84-.57-4.23-.75a85.59,85.59,0,0,1-10.74-2.23,17.73,17.73,0,0,0-7.2-.63c-3.32.5-6.09,2.16-9.54,2.37a35.1,35.1,0,0,1-9.2-.66c-2.38-.5-4.35-1.3-6.79-.81-3.74.75-7.1,4.71-9.1,7.74-1.42,2.16-2.11,4.66-3.36,6.91-.73,1.31-1.73,2.45-1.65,4a1.24,1.24,0,0,0,1.56,1.19c5.35-1.7,7.28-8.17,13.18-9.4,5.43-1.13,11.31.16,16.72,0,1.3,0,2.76.12,4.07.05,1.73-.1,3.33-.85,5.11-.81,3.19.08,6.49,1.1,9.68,1.39a45.14,45.14,0,0,0,5.13-.27c1.12,0,2.59.54,3.76.62,1.61.1,4.45-.44,5.3,1.52-4.72.88-9.44,1.82-14.2,2.29-5.89.58-11.92.49-17.78,1.3-4.81.65-10.49-1.17-14.84,1.45h0a2.19,2.19,0,0,0-1.84,0,2.12,2.12,0,0,0-2.27,3.06c1.26,2.28,3,3.43,5,5,2.18,1.75,3.7,4.17,5.87,5.92a32.93,32.93,0,0,1,4.76,4.46c1.69,2,2.87,4.11,4.48,6.16,1.06,1.35,2.43,2.38,3.48,3.76a22.48,22.48,0,0,0,1.76,2.61,6.27,6.27,0,0,0,1.25.95c-.47.21-2.64.74-2.88.79-3.33.77-6.79.77-10.15,1.52-3.68.83-7.26,2-11,2.71-4.2.83-9.13.87-12.25,4.31-1.4,1.55-1.58,3.79-1.59,5.79,0,3.1-.76,6-.84,9.09a1.71,1.71,0,0,1,.79.9,17.81,17.81,0,0,0,4.66,7.33,53,53,0,0,1,6.25,5.73,38.12,38.12,0,0,1,6.57,11.79,1.29,1.29,0,0,1,.61.82,32.14,32.14,0,0,1,1.29,8.08,28.81,28.81,0,0,1-1.25,8,32,32,0,0,0-1.37,8.46,46.54,46.54,0,0,1-.19,6.58,13.32,13.32,0,0,0,4,2.91,36.15,36.15,0,0,0,4.48,1.44c.39.19.8.37,1.22.54a1.84,1.84,0,0,0,1.26.05l3,.65a19.28,19.28,0,0,0,3.1.37.85.85,0,0,0,.81.76,14.19,14.19,0,0,1,1.44.31c.54.1,1.08.2,1.62.25a20.69,20.69,0,0,0,3-.24.88.88,0,0,0,.76-.51l.18,0a2.11,2.11,0,0,0,2.33-.95c.91-2,.35-3.82.25-6A90.07,90.07,0,0,1,435,425c.39-6,0-12.12.82-18.13a1.85,1.85,0,0,0,.58-.72c2.82-5.75,5.38-11.7,8.56-17.27.28-.5.6-1,.93-1.48a61,61,0,0,1,6.06-6.53c1.76-1.73,3.45-3.66,5.3-5.39a2.1,2.1,0,0,0,2.11-.33,97,97,0,0,1,24.74-13.93c.31-.13.63-.25.95-.36a34.49,34.49,0,0,1,9.33-1.4c4.52,0,9,1,13.47,1.63a2.15,2.15,0,0,0,1.61-.39c3.8,1.16,7.26,2.94,11.07,4.49,4.41,1.79,9,3.12,12.82,6.1s7.15,6.15,10.62,9.47a51.22,51.22,0,0,1,5.65,5.85,37.28,37.28,0,0,0,4.09,4.77,46.66,46.66,0,0,1,3.78,8.33c1.61,4.79,1.94,9.79,3.46,14.56A79,79,0,0,1,564,427c-.23,3.07-.71,6.11-1.11,9.17a80.13,80.13,0,0,1-1.77,11.06c-.66,2.33,2.58,3.43,3.71,1.67a2.06,2.06,0,0,0,1.08.38c18.61,1.16,37.05,2,55.7,2,7.91,0,16,.6,23.85.25,3.12-.14,7.28-.08,10.24-.91,2.78-.79,3.68-3.77,4.72-6.17,3.33-7.69,4.32-15.92,5.12-24.19.86-8.84,1.24-17.72,1.69-26.58C668.14,375.22,668.8,356.54,667.09,338.16Z"/><path class="cls-8" d="M527.51,409.8c-3.94-7-8.69-12.72-16.35-15.88-8.21-3.39-17.13-1.54-25.27.76a1.2,1.2,0,0,0-.74.58c-10.92,4.63-17.36,16-18.88,27.67-1.76,13.46,7.62,26.19,19.21,31.8a32.88,32.88,0,0,0,47.13-25.5C533.63,422.62,530.66,415.43,527.51,409.8Z"/><path class="cls-8" d="M656.47,447.86c-4.9-2.87-11.44-2.44-16.81-3.92-6.86-1.88-13.74-3-20.73-4.27-6.61-1.21-12.26-4.42-18.67-6.12-3.23-.85-7.24,0-9.85-2-2.11-1.56-1.79-3.31-2.26-5.73-.34-1.78-.77-3.55-1.22-5.3-1.68-6.51-3.31-13.19-5.35-19.6a60.84,60.84,0,0,0-11.36-20.15c-6.44-7.79-12.32-12.36-21.72-16.05,1.6-2.73,3.44-5.35,5.16-7.75,3.68-5.13,8.11-9.85,12.26-14.6a135.27,135.27,0,0,1,9.21-10.18,61.14,61.14,0,0,1,7.69-5.66c1.83-1.2,4.67-3.69,6.79-4.29a1.65,1.65,0,0,0-.87-3.18c-2.22.63-4.4,2.58-6.33,3.81-2.62,1.67-5.23,3.45-7.68,5.37-4.15,3.28-7.55,7.61-11,11.59-4.25,4.94-8.72,9.73-12.57,15a92.27,92.27,0,0,0-5.84,8.78c-5.59-1.78-11.26-2.32-14.71,1.25a3.93,3.93,0,0,0-1,1.77,1.24,1.24,0,0,0,.08,2c3.86,2.76,7.81,5.45,11.61,8.29l0,0c2.42,2.53,4.46,5.59,6.9,8.16a37.19,37.19,0,0,1,3.41,6,1,1,0,0,0,1.4.53,98.27,98.27,0,0,1,4.28,10.39,104.88,104.88,0,0,1,5.4,26.45c.11,3.09-.5,6.09-.59,9.18-.1,3.35-.16,6.7-.28,10a1.16,1.16,0,0,0,1.57,1.14,4.21,4.21,0,0,0,1.12.39c3,.68,6.75,0,9.89.37,13.8,1.62,27.81,1.52,41.68,1.6,7.37,0,14.66-.14,22,.19,3.4.15,6.81.31,10.21.62,2.33.21,6.37,1.53,8.75.72C660.25,451.74,658.46,449,656.47,447.86Z"/><path class="cls-8" d="M420,433.63c-3.55-3.41-4.33-8.43-5.27-13.1-.41-2.06-1.32-4.92.61-6.53,1.68-1.4,3.45-.42,5.2-1.05,1.29-.47,2.5-1.71,1.76-3.18-.46-.92-1.59-1-2.38-1.46-2.31-1.22-3.4-2.69-5-4.61-2.26-2.69-2.77-4.41-2.82-8a14,14,0,0,0-1-5.72c-.88-2.09-2.16-4-2.63-6.23-.68-3.26-.06-6.73.37-10,.61-4.59,1.31-8.24.09-12.72a1.21,1.21,0,0,0-.42-.65,1.06,1.06,0,0,0-.23-1.34c-1.43-1.23-3.07-1-4.78-.64a9.78,9.78,0,0,0-1.71,0,18.25,18.25,0,0,0-6.85,2.28c-2.38,1.37-5.36,3.25-3.87,6-1.7,4.2-1.13,9-1.12,13.67a1.54,1.54,0,0,1,1.43,1c1.89,4.53,6.68,7.16,9.66,10.89a79.43,79.43,0,0,1,4.36,6.85,23.1,23.1,0,0,1,3.21,6.65c1.91,4.47,1.79,9.53,1,14.26-.23,1.32-.53,2.61-.86,3.9a26.31,26.31,0,0,0-.62,4.69,40,40,0,0,1-.62,4.76,6.3,6.3,0,0,0,.11,3.65.2.2,0,0,1,0,.07,11.12,11.12,0,0,0,2.3,1.31c2.4,1.08,13.36,5.9,13.71.23C423.66,436.49,421.36,435,420,433.63Z"/><path class="cls-9" d="M420,349.51c-3.62-3.47-7.49-6.69-11.17-10.08-2.9-2.67-5.66-7.26-9.49-8.71a1,1,0,0,0-1.42.72,8.76,8.76,0,0,0-5.8,5.25c-1.87,4.15-3.48,8.06-3.62,12.63,0,1.9-1.46,6.56.64,8,1.11.74,2.09.24,3.24-.07,3.37-.91,6.79-1,10.26-1.34,3.11-.3,6.19-.75,9.32-.83,2.28-.06,5.07.21,7.26-.67C421.77,353.33,421.77,351.25,420,349.51Z"/><path class="cls-5" d="M504.56,404a5.35,5.35,0,0,0-2-.63c-3.6-1.78-8.72.19-12.15,1.18-2.82.81-3,2.75-2.09,4.71a2.7,2.7,0,0,0,.09.36,28.78,28.78,0,0,0,3.43,6.18,10.63,10.63,0,0,0,1.35,1.65,1.6,1.6,0,0,0,.85.7,4.53,4.53,0,0,0,.55.34,1.56,1.56,0,0,0,1.45.78,2.3,2.3,0,0,0,2.43-.25,8.32,8.32,0,0,0,2.65-.76c1.15-.61,1.24-1.51,1.8-2.55a42.69,42.69,0,0,0,2.11-3.88,37.83,37.83,0,0,0,1.94-5.3A2.11,2.11,0,0,0,504.56,404Z"/><path class="cls-5" d="M488.83,420c-1.86-1.26-4.49-4.28-6.89-4.7a2.09,2.09,0,0,0-2.49.19c-2.92,2.45-3.9,6.18-3.95,9.93,0,2.9.46,6.84,3,8.65a1.58,1.58,0,0,0,.9.29c2.56.77,6.91.51,9.17-1a6.87,6.87,0,0,0,2.14-2.92c.75-1.46,1.89-3.13,2.22-4.79C493.51,422.73,490.89,421.41,488.83,420Z"/><path class="cls-5" d="M507.05,437.13c-.57-1.84-.88-3.73-3.19-3.85-2.63-.13-5.95,1-8.3,2.1a2.33,2.33,0,0,0-.35.22,1.68,1.68,0,0,0-1.82,1c-1.49,3.39-6.3,6.85-3.66,9.93,0,1.91,1.14,3.52,3.51,4.43a10.24,10.24,0,0,0,5.37.51c.89-.12,1.8-.23,2.69-.42a9.29,9.29,0,0,0,5.87-.67C512.22,447.62,508.27,441,507.05,437.13Z"/><path class="cls-5" d="M522.72,418.29c-.52-2.05-1.6-5.11-3.93-5.75-2.56-.69-5.46,2.63-7.33,3.93-2.19,1.52-4.85,2.8-5.27,5.7-.39,2.75.63,6.19,1.84,8.62a1.85,1.85,0,0,0,2.56.8c1.94,1,4.74.66,6.67.24C524.14,430.35,524.21,424.06,522.72,418.29Z"/><path class="cls-6" d="M523.18,420.25c-.33-3.67-.59-6-3.26-8.7a1.24,1.24,0,0,0-1.75,1.75c2.79,2.83,3.22,8.44,2.45,12.29,0,.36,0,.72,0,1.08l-3.16,3.1a8.59,8.59,0,0,1-1.82-.06c-1.52,0-3.23.27-4.79.26a1.3,1.3,0,0,0-2,1.3c0,.08,0,.16.05.23a1.25,1.25,0,0,0,1.19.91c1.63.14,3.31-.23,5-.23a22.76,22.76,0,0,0,3.77.17,5.64,5.64,0,0,0,4.18-4.29A25.85,25.85,0,0,0,523.18,420.25Z"/><path class="cls-6" d="M509.29,443.25c-.68-3.14-2.12-5.63-3.08-8.71-.47-1.51-2.86-.87-2.39.66,1.16,3.7,4,7.64,3.06,11.65-.59,2.53-3.84,2.78-6.13,2.8-2.45,0-5.92.26-8.31-.26-1.55-.34-2.21,2-.66,2.38,3.36.74,7.19.41,10.62.35a10.52,10.52,0,0,0,6.27-2.41C510.57,448,509.75,445.41,509.29,443.25Z"/><path class="cls-6" d="M505.78,404.05c-1.57-1.38-4.71-1.39-6.66-1.27a35.07,35.07,0,0,0-9.86,2c-1.48.55-.84,3,.66,2.39a34.73,34.73,0,0,1,7.38-1.63c1.27-.17,5.32-1,6.33.25s-1,3.64-1.53,5.1c-.75,2.05-1.36,4.76-2.64,6.52-.94,1.29,1.21,2.53,2.14,1.25,1.76-2.44,2.33-5.87,3.59-8.59C506,408.41,507.53,405.59,505.78,404.05Z"/><path class="cls-6" d="M491.77,422.22a55.43,55.43,0,0,0-6.49-4.27c-2-1.13-3.09-3-5.51-2.83-1.58.09-1.59,2.57,0,2.47s2.64,1.6,3.87,2.31c1.39.81,2.76,1.55,4.09,2.47a13,13,0,0,1,2.37,1.7c1.16,1.3,0,1.92-.7,3.17s-1.19,2.79-1.86,4.13a1.33,1.33,0,0,0,0,2.45l.3.12a1.24,1.24,0,0,0,1.4-.57,24.92,24.92,0,0,0,1.3-3c.71-1.61,2.06-2.95,2.69-4.57S493.08,423.22,491.77,422.22Z"/><path class="cls-8" d="M530.41,320.65c-1.09-4.42-3.12-8.15-8.37-6.9-2.59.62-5.14,2.67-7.62,3.71A29.52,29.52,0,0,1,502.47,320a35,35,0,0,0-10.19,1.15c-3.5,1-6.77,2.52-10.35,3.36-3.23.77-6.36.51-9.59,1a34.44,34.44,0,0,0-5.57,1.42,1.24,1.24,0,0,0-.26-.19c-5.74-3.14-1.89-11.42-8.35-13.91-7.65-3-15.18-1.46-23.08-2.09a1.06,1.06,0,0,0-.85-.89c-3.54-.67-7.28-.14-10.85,0-4.64.21-9.37-.62-14-.09a28.59,28.59,0,0,0-4.63,1,15,15,0,0,0-5.89,1.61,12.23,12.23,0,0,0-2.06,1.6l-.67.12a6.48,6.48,0,0,0-3.3,1.52,7.57,7.57,0,0,0-1.39,2.54c-.41.36-.8.73-1.17,1.1a1.25,1.25,0,0,0-.28,1.16,3.51,3.51,0,0,1-1.6.63c0,.05,0,.1,0,.15a16.64,16.64,0,0,1-.17,2.34,6.81,6.81,0,0,0,1.84-.43.74.74,0,0,0,.16.46.81.81,0,0,0,1.06.21,4.85,4.85,0,0,0,.79-.55.46.46,0,0,0,.07-.07c.25-.16.5-.34.74-.53a7.84,7.84,0,0,0,1.24-1.27,7.1,7.1,0,0,0,.55-.8c.15-.27.27-.55.41-.81a7.28,7.28,0,0,1,.44-.69,1.87,1.87,0,0,0,.28-.61c.42-.37.84-.76,1.25-1.15s.75-.67,1.12-1c.72-.05,1.5-.07,2.09-.15,3.27-.41,6.51-1.07,9.78-1.4,3.46-.36,6.92-.65,10.36-.88,4.44.14,8.88-.12,13.32.15,4.76.29,10,1.32,14.72.69a15.63,15.63,0,0,1,5,0,3.49,3.49,0,0,0,2.37,0c.26.09.53.17.79.27,4.07,1.58,3.25,5.26,4.32,8.73a8.18,8.18,0,0,0,2.86,4.25,1.1,1.1,0,0,0-1.18.65,1.29,1.29,0,0,0,.65,2,.77.77,0,0,0,.26.12c1.78.45,4-.23,5.86-.12a65,65,0,0,0,10.06-.11c6.7-.66,13.25.05,19.93-1.06,7.64-1.28,15.29.38,22.81-1C527.46,327.47,531.91,326.73,530.41,320.65Z"/><path class="cls-7" d="M532.19,320.89c-1.09-2.58-2.48-6.68-5.17-7.93-1.85-.86-4.59-.76-6.63-1s-4.31-1-6.16-.31c-1.48.56-.84,3,.65,2.38,1.26-.48,3.51.18,4.8.33,1.84.2,5.71.15,7.22,1.63,1,1,1.86,3.29,2.46,4.56,1.13,2.39,1.38,3.55-1.74,4.61-3.59,1.23-8.19,1.06-12,1.52-4.06.51-8.14.81-12.21,1.12-18.69,1.47-37.49,1.27-56.21.63-1.6-.05-1.59,2.42,0,2.48,23.13.78,46.86,1.26,69.85-1.93,4.29-.6,9.36-.32,13.39-2.1C533.57,325.51,533.38,323.7,532.19,320.89Z"/><path class="cls-8" d="M632.05,342.78c-.34.06-.67.1-1,.14a1.15,1.15,0,0,0-1.19-1.3,129.31,129.31,0,0,0-17.69,1.86c-8.43.11-17,0-25.1,2.08-2.29.59-4.53,1.37-6.8,2-1.49.43-3,.26-4.41.7-3,.94-4.26,4.34-4.7,7.15a1.28,1.28,0,0,0,.12.79,12,12,0,0,0-.37,4.48c.27,3.11,1.53,6.07,2.3,9.07a59.16,59.16,0,0,0,3.47,10.49c1.58,3.41,3.07,6.37,5.77,9,3.53,3.49,7,6.4,10,10.45,1.66,2.26,3.66,3.82,5.48,5.93.9,1,2.12,3.2,3.86,2.62,4.17-1.4-.81-9.09-2.15-10.92-2.24-3.08-3.68-7-5.25-10.43a53.78,53.78,0,0,1-1.77-5.93,65.41,65.41,0,0,1-2.2-6.21c-1.12-5.18.76-8.6,2.77-13.2.89-2,.94-4.7,2.43-6.44,1.87-2.17,4.57-1.7,7.12-2.14,4.83-.85,9.42-3.11,14-4.7,5.29-1.82,10.42-2.32,15.91-3.15C634.28,344.93,633.61,342.55,632.05,342.78Z"/><path class="cls-7" d="M647,341.06c-6.89.83-13.92.05-20.83,0-7.21-.08-14.49.15-21.69.62-6.42.42-12.68,1.55-19.05,2.42-5.19.7-11.45,1.27-14.14,6.45-5.11,9.83,1.29,20.76,6.16,29.29,2.8,4.9,4.94,10.47,9,14.49,4.61,4.55,9.49,8.25,13.17,13.7.89,1.31,3,.08,2.14-1.25a48.89,48.89,0,0,0-7.78-9.13c-4.72-4.15-8.28-7.74-11.36-13.27-2.77-5-6.12-10.09-8.18-15.39s-4.15-11.86-1-17.19c3.22-5.52,11.68-5,17.27-5.94a149,149,0,0,1,19.32-2c6.12-.18,12.24-.34,18.36-.28s12.43.75,18.63,0C648.53,343.34,648.55,340.87,647,341.06Z"/><path class="cls-8" d="M511.92,351.49a13.68,13.68,0,0,0-8.82-4.84c-1.67-.12-2.86.29-4.63-.1-1.26-.29-2.47-.76-3.74-1a24.41,24.41,0,0,0-6-.48c-11,.52-21.81,1.66-31.66,7-8.12,4.37-16.88,11-22.28,18.57a42.41,42.41,0,0,0-7.5,27.32,13.7,13.7,0,0,1-.81,1.27c-.93,1.28,1.17,2.5,2.11,1.28a1.38,1.38,0,0,0,1.27-1.55l-.06-.57c1.21-2.65,1.77-5.74,3.05-8.3,1.83-3.62,3.65-7.56,6.3-10.66,2.95-3.44,5.67-7.17,9.17-10.08a83.93,83.93,0,0,1,12.9-8.92c4.4-2.44,8.92-4.85,13.92-5.76,5.32-1,10.9-1.33,16.3-1.79,5-.43,10-.6,14.94.55,1.71.4,4,1.18,5.3-.39A1.27,1.27,0,0,0,511.92,351.49Z"/><path class="cls-5" d="M532.52,424.3c-.3-3.89-1.4-9.28-3.22-12.73s-5.09-6.69-7.55-9.81c-2-2.6-5.84-5.87-9.11-6.8a1.24,1.24,0,0,0-.66,2.39c5.95,1.68,10.17,9.08,13.77,13.58,2.4,3,3.3,7.85,4,11.65.77,4-.14,8.52-1.46,12.36-2.17,6.31-6,12-11.8,15.42-6.53,3.85-13.6,7.78-21.25,4.48-1.45-.62-2.71,1.51-1.25,2.14,7.86,3.38,15.16.62,22.16-3.56a31.49,31.49,0,0,0,14.22-16.89A30.92,30.92,0,0,0,532.52,424.3Z"/><path class="cls-7" d="M522.47,356.37c-3.85-2.43-8.93-3.71-13.28-5a60,60,0,0,0-14.76-1.84c-9.89-.28-21,2.68-29.95,6.69C447,364.09,432.06,380.94,428.36,400c-.3,1.55,2.08,2.22,2.39.65,3.5-18.07,17.42-34.16,33.94-41.78a75.92,75.92,0,0,1,28.2-6.86,56.61,56.61,0,0,1,15,1.53c4.32,1.09,9.58,2.55,13.36,4.93C522.57,359.36,523.82,357.22,522.47,356.37Z"/><path class="cls-3" d="M501.7,425.07a3.14,3.14,0,0,0-2.9-1,5.36,5.36,0,0,0-2.14,1.21,1.09,1.09,0,0,0-.25,1.32,2.47,2.47,0,0,0-.44,2.85c1.13,2,3.94,1.58,5.47.37a2.61,2.61,0,0,0,1.24-2.09A4,4,0,0,0,501.7,425.07Z"/><path class="cls-8" d="M656,312.8c0-4.21.21-8.42-.15-12.63-.5-5.84,1.33-14.77-5.71-17.38a49,49,0,0,0-11-2.36c-2.94-.36-6.78-1.36-9.51.15a2.28,2.28,0,0,0-1.12,2.6l-.49.19c-1.19.35-2.38.69-3.52,1.13-2.38.91-4.6,2.18-7,3.09-4.17,1.6-8.05,3.91-12.36,5.21a101.21,101.21,0,0,0-12.34,5.12,118.85,118.85,0,0,0-13.79,6.75,2.42,2.42,0,0,0-.62,3.62,6.11,6.11,0,0,0-1.62,5.13c1,6.24,7.57,8,12.86,9,8.52,1.55,17.15,1.58,25.75,2.39a191.8,191.8,0,0,0,25.14.94c4.66-.18,13.36.27,15.19-5.32C656.57,318,656,315.25,656,312.8Z"/><path class="cls-3" d="M413,349.22a1,1,0,0,1-.25-.12,4,4,0,0,0-.56-.25,12.8,12.8,0,0,1-1.13-.66c-1.24-.77-2.48-1.72-3.76-2.4a3.18,3.18,0,0,1,.42-.5c1.09-1-.29-2.49-1.5-1.94-1.37.62-7,.39-8.07-.36-1.77-1.3-2.09-5-3.16-6.93a1.24,1.24,0,0,0-2.13,1.25c1.48,2.63,1.56,7.25,5,8.13a22.55,22.55,0,0,0,6.4.71,5.31,5.31,0,0,0-.2,1.36c0,1.61.42,1.67-1.17,2.49a7.19,7.19,0,0,1-3.49.6,1.24,1.24,0,0,0,0,2.47c2.08,0,4.64-.31,6.27-1.79a3.66,3.66,0,0,0,1-3c2.37,1.58,7.62,5.66,8.65,1.74A1.24,1.24,0,0,0,413,349.22Z"/><path class="cls-8" d="M373.53,343.88c-.39-1-.76-1.9-1.08-2.86-.3-2.79-.48-6.71-2.49-8.54a1.26,1.26,0,0,0-1.75,0c-.27.24-.56.5-.85.78.49-1.2-1.43-2.2-2.28-1a9,9,0,0,0-1.75,3c-.24,1.42.82,2.24,1.62,3.3l0,.12a6.86,6.86,0,0,0,1.16,2.22c.9,2.08,1.82,4.16,2.58,6.29a13.55,13.55,0,0,0,1.25,3.13,5.5,5.5,0,0,0,.79,1.13,1.25,1.25,0,0,0,1.75,0A4.18,4.18,0,0,0,373.6,349a3.76,3.76,0,0,0,.72-1.49A7.1,7.1,0,0,0,373.53,343.88Z"/><path class="cls-8" d="M383.63,366.26a4.41,4.41,0,0,0-1.14-1.33,1,1,0,0,0-.86-.83l-.47-.09-.94-.54c-1.14-.67-2.25-1.36-3.43-1.92-.15-.14-.31-.27-.46-.42a7.23,7.23,0,0,0-2.25-1.88c-1.83-.65-3.32,1.56-3.63,3.11a1.29,1.29,0,0,0,.48,1.32,1.19,1.19,0,0,0,.59,1.07,36.41,36.41,0,0,0,3.44,1.49,17.18,17.18,0,0,1,2.59,1.73,1.09,1.09,0,0,0,.16.9,1.6,1.6,0,0,0,2.53.47c.95,0,1.79-.63,2.94-1.38A1.27,1.27,0,0,0,383.63,366.26Z"/><path class="cls-8" d="M376,307.46c-.44-1.93-.74-4-1.05-6.07.53-3.9,1.21-7.77.81-11.71a1.26,1.26,0,0,0-2.11-.88c-1.19,1.22-2.53,2.54-3.66,3.87a9.4,9.4,0,0,0-1.25.93,1.14,1.14,0,0,0-.24,1.35,4.15,4.15,0,0,0-.1,1.22,16.65,16.65,0,0,0,1.25,4.49c.51,2.1,1.07,4.2,1.6,6.3.22,1.1.44,2.21.65,3.31a1.17,1.17,0,0,0,.18.92l0,.15a1.18,1.18,0,0,0,2.12.4C376.16,311.41,376.48,309.52,376,307.46Z"/><path class="cls-8" d="M466.09,280.45a4.47,4.47,0,0,0-.77-1.09,1.31,1.31,0,0,0-1.85-1.36l-.6.26a1,1,0,0,0-.56.73c-2.35,1.91-5.51,3.31-7.95,5-3.13,2.16-6.2,4.4-9.3,6.6a1.3,1.3,0,0,0-.32,1.8.06.06,0,0,1,0,0c2.15,4.47,4,2.66,7.77.15,2.51-1.67,5.1-3.18,7.64-4.79,2.06-1.32,4.39-3.94,6.79-4.52a1.22,1.22,0,0,0,.86-.87c0-.17.07-.34.11-.51A1.32,1.32,0,0,0,466.09,280.45Zm-3,1a3.48,3.48,0,0,1-1.81,1.15C461.91,282.25,462.52,281.87,463.1,281.47Zm-14.92,10.81c.87-.45,1.73-1,2.59-1.48C449.82,291.5,448.94,292.28,448.18,292.28Z"/><path class="cls-7" d="M448.72,348.54c-.91.26-1.09.95-1.85,1.31s-1.9.21-3,.5c-2.42.66-4.09,2.43-5.56,4.3l-.15.18c.18-1.72.28-3.45.3-5.2.05-3.77-.19-6.17,3-8.71,1.25-1-.52-2.73-1.75-1.75-1.88,1.49-3.54,3.38-3.74,5.84-.36,4.45.07,8.77-.79,13.23a1.77,1.77,0,0,0,0,.32l-.54.66c-1,1.21-1.81,2.84-2.9,3.95-3,3-7.44,4.93-10.7,7.7-4.79,4.06-.56,13.16-5.72,16.41a35.67,35.67,0,0,0-3.93,2.49c-1,.84-2.42,1.47-3.39,2.36-1.93,1.78-.86,4.49-2.36,6.38-1,1.23.77,3,1.75,1.75,1.5-1.89,1-4.59,2.59-6.13,2.23-2.13,5.16-3.41,7.61-5.22,4.67-3.44,1.59-10.59,4.28-15.1,1.59-2.67,6.06-5.11,8.64-6.82s3.84-3.58,5.88-6,3.9-6,6.59-7.42c1.41-.75,3.12-.34,4.44-1,.74-.35,1.19-1.43,1.93-1.65A1.24,1.24,0,0,0,448.72,348.54Z"/><path class="cls-7" d="M409.45,379.25a4.39,4.39,0,0,0-1.18-2.84,11.69,11.69,0,0,0-1.66-.83c-.74-.44-1.41-1.08-2.13-1.57-1.69-1.14-3.52-2.06-5.3-3.05-1.39-.77-2.64,1.36-1.25,2.14,2.58,1.44,5,3,7.43,4.62.93.6,1.46.53,1.64,1.77a36.59,36.59,0,0,1,.42,3.9,1.24,1.24,0,0,0,2.47,0A41.53,41.53,0,0,0,409.45,379.25Z"/><path class="cls-7" d="M413.32,373.26a15.75,15.75,0,0,0-1.93-1.9c-.74-.53-1.59-.87-2.28-1.47-1.21-1-3,.71-1.75,1.75a17.91,17.91,0,0,0,2.31,1.55,10.55,10.55,0,0,1,1.9,1.82C412.67,376.16,414.42,374.41,413.32,373.26Z"/><path class="cls-7" d="M424.62,424.58a33.1,33.1,0,0,0-1.62-7.22c-.47-1.52-2.86-.87-2.39.66a30.62,30.62,0,0,1,1.6,7.49,60.75,60.75,0,0,1-.38,6.48c-.09,1.6,2.38,1.59,2.47,0A52.31,52.31,0,0,0,424.62,424.58Z"/><path class="cls-7" d="M429.73,422.41c-.22-1.57-2.6-.9-2.39.66a50.12,50.12,0,0,1,.38,6.82,1.24,1.24,0,0,0,2.47,0A55,55,0,0,0,429.73,422.41Z"/><path class="cls-7" d="M455.78,456.22c-1,0-2,.25-3,.2a13.54,13.54,0,0,0-4.26.47c-1.09.28-2.17.55-3.24.87-2,.63-4.26,1.28-6.34.47s-3.18-4.25-5.85-3.25c-1.42.53-1.94,2.3-3.25,2.95-3.34,1.63-3.65-.9-6-1.41a5.82,5.82,0,0,0-3.59.66c-1.16.54-1.89,1.34-3.23,1.58-2.1,1.14-3.37,0-3.81-3.31l.06-2.2c0-1-1.09-4.51-.84-5.29.39-1.22,2.81-1.24,3.95-1.47,1.56-.32.47-1.32,2.78.07.5.29.9.82,1.4,1.14a11.5,11.5,0,0,0,4.75,1.6,14.31,14.31,0,0,0,5-.39c.53-.16.87-.67,1.34-.88,3.58-1.57,3.17-1.53,5.75-.32,3.94,1.85,2.92-1.21,6.47-2.53,1.48-.55.84-2.94-.66-2.39A8.78,8.78,0,0,0,440.6,444c-.26.23-.86,1.47-1,1.53-1.07.4-3.6-1.32-5.08-1.22-2.54.17-4.12,1.94-6.56,2.42a8.45,8.45,0,0,1-4.86-.57c-1.54-.68-2.36-2.18-3.84-2.76-1.22-.47-1.88,0-3,.31a31.64,31.64,0,0,1-3.85.68,3.45,3.45,0,0,0-1.49.58,3.09,3.09,0,0,0-1,2.67c0,1.66.83,3.17.9,4.86.07,1.46-.17,2.92,0,4.38.4,3.46,2.55,5.24,6.06,4.63,2.89-.5,4.43-3.2,7.56-1.89,1.47.62,2.07,1.66,3.85,1.51,2.08-.19,2.88-1.73,4.52-2.57,1.17-.61,1.19-.55,2.52.22.56.33,1.07.82,1.65,1.16,2.5,1.49,5.14.88,7.76.07a26.54,26.54,0,0,1,8.18-.91c1,0,3,0,3.78-.79A1.27,1.27,0,0,0,455.78,456.22Z"/><path class="cls-5" d="M464.21,280.26c-3.18,2.4-6.79,4.29-10.07,6.57-1.59,1.1-3.22,2.17-4.86,3.19-1.25.79-2.45,1.17-3.21,2.49-1.59,2.77,2.69,5.26,4.27,2.5-.34.61.83-.34.91-.38.72-.38,1.37-.91,2.05-1.35,1.6-1.06,3.18-2.13,4.76-3.21,2.82-1.94,5.92-3.48,8.65-5.53C469.22,282.65,466.76,278.35,464.21,280.26Z"/><path class="cls-5" d="M377.88,290c0-3.18-5-3.19-4.94,0,0,6.81-1,13.39-.43,20.2.25,3.16,5.21,3.18,4.95,0C376.93,303.38,377.93,296.78,377.88,290Z"/><path class="cls-5" d="M386.76,297.1a2.49,2.49,0,0,0-3.39.88c-1.13,2.48-2.71,5.22-2.86,8-.18,3.18,4.77,3.17,4.95,0a10.24,10.24,0,0,1,.89-2.54c.36-1,.85-2,1.3-2.95A2.55,2.55,0,0,0,386.76,297.1Z"/><path class="cls-5" d="M374.93,341.11a24.18,24.18,0,0,0-1-3.42c-.3-.88-1.12-2.18-1.13-3.11,0-3.18-5-3.19-4.94,0,0,2.08,1.29,4.14,1.86,6.13a26.69,26.69,0,0,1,.64,3.66,34.76,34.76,0,0,1,.86,4.1c.08,3.17,5,3.19,4.95,0C376.14,346.06,375.35,343.5,374.93,341.11Z"/><path class="cls-5" d="M384.23,364c-1.25-.86-2.93-1.08-4.13-1.73-.33-.17-.59-.52-.91-.71a13,13,0,0,0-1.4-.53c-.75-.3-1.22-.91-2-1.24a2.57,2.57,0,0,0-3.39.89,2.51,2.51,0,0,0,.89,3.39c.61.27,1.12.9,1.76,1.22a17.48,17.48,0,0,1,2.18,1c1.35.92,3.11,1,4.48,2C384.37,370.08,386.85,365.79,384.23,364Z"/><path class="cls-5" d="M414,410.05c-.41-3.18-2.4-5.74-2.89-8.82-1.13-7.06-7.55-11-11.69-16.32a34.27,34.27,0,0,1-2.92-3.48c-.81-1.41-1.05-3.31-1.67-4.84-1.66-4.15-.46-8.49-1.43-12.79-.71-3.11-5.48-1.79-4.78,1.31.84,3.72-.33,7.55.81,11.24.75,2.42,1.5,5.39,2.8,7.58a50.85,50.85,0,0,0,5.88,7.24c2.44,2.7,5.6,4.77,7.28,8.11.8,1.6.57,2.81.79,4.43a8.91,8.91,0,0,0,1.41,3.25,11.76,11.76,0,0,1,.52,10.38c-1.12,2.63-2.89,3.64-3,6.6-.14,3.56,1.1,7.8.1,11.32a2.52,2.52,0,0,0,1.73,3.05l.24.07a2.42,2.42,0,0,0,3-2.8c.57-2.94.25-6.44.11-9.3-.07-1.51-.34-2.4.35-3.71.6-1.14,1.46-2.08,2-3.32A19.17,19.17,0,0,0,414,410.05Z"/><path class="cls-3" d="M607.41,275.29c-.1-.24-.19-.47-.28-.7a2.73,2.73,0,0,0-4.44-.87c-.56,0-1.13-.12-1.7-.11-1.79,0-3.57.41-5.34.62-3.88.44-7.76.65-11.62,1.25a220.21,220.21,0,0,0-22.51,5.17c-7.53,2-15.23,3.65-22.55,6.35a142.49,142.49,0,0,0-20.8,10l0,0a5.52,5.52,0,0,0-.53.36c-2.26,1.77.63,5.22,3,3.88l1.78-1c1.51-.46,3.55-.5,4.86-1,3.25-1.3,6.5-2.23,9.79-3.4,6.37-2.28,13-3.6,19.44-5.7,6.16-2,12.38-3.74,18.59-5.6,3.39-1,6.88-1.61,10.33-2.4,3.7-.84,7.36-2.14,11.17-2.32a2.41,2.41,0,0,0,1.87-1c2.33-.16,5,.23,7.18-.52A2.5,2.5,0,0,0,607.41,275.29Z"/><path class="cls-3" d="M424,246.65a2.87,2.87,0,0,0-.51-.23c1.94-.29,1.91-3.41-.16-3.27-2.51.16-3.38,1.76-4.83,3.6-2.57,3.27-5,6.58-7.46,9.91-5,6.72-10.71,13.28-14.41,20.83a1.65,1.65,0,0,0,2.63,1.93,1.52,1.52,0,0,0,2.33-.46c.57-1,3.59-5.43,7.16-10.52a41.8,41.8,0,0,0,4.47-4.27c2.13-2.5,3.85-5.13,5.89-7.69s4.13-4.61,5.49-7.57A1.69,1.69,0,0,0,424,246.65Z"/><path class="cls-3" d="M356.66,289.39c-5.81-5.67-8.14-14.15-14.24-19.49a1.65,1.65,0,0,0-2.33,2.33c.54.7,1,1.4,1.52,2.11,1.88,2.9,3.43,6.11,5.4,9,2.11,3,3.51,6.54,6,9.29a1.59,1.59,0,0,0,2.58-.41A1.66,1.66,0,0,0,356.66,289.39Z"/><path class="cls-3" d="M543.17,274.84c-3.5,1-6.7,2.81-9.95,4.46a1.46,1.46,0,0,0-1.17-.49c-4.18.25-9,3.59-12.73,5.39a95.24,95.24,0,0,1-8.87,4,13.38,13.38,0,0,0-4.6,2.27,1.47,1.47,0,0,0-.32.35l0,0c-1.94.86-.26,3.71,1.66,2.85.62-.27,1.24-.56,1.85-.84,2.64-.8,5.29-2.4,7.76-3.44a89.54,89.54,0,0,1,10.55-4.1c5.92-1.61,10.86-5.63,16.73-7.27A1.65,1.65,0,0,0,543.17,274.84Z"/><path class="cls-7" d="M664,451.35c-2.13.52-4.75-.07-6.92-.07s-4.1,0-6.14,0c-3.84,0-7.63-.36-11.47-.3-8.22.13-16.62.6-24.76-.23-8.45-.86-17-1.15-25.53-1.16-4.2,0-8.39-.24-12.59-.49s-11.13,1.27-14.79-1.63a1.88,1.88,0,0,0,.2-.62c.4-3,.11-6.08.64-9.09.59-3.43.93-6.71,1.23-10.18.56-6.69-2-13.69-4.35-19.84-1.25-3.24-1.86-6.7-3.23-9.88a87.27,87.27,0,0,0-5.06-9.2A53.8,53.8,0,0,0,539.68,375c-5.6-4.59-12.86-8-19.47-10.8s-13.64-5-20.74-4.86c-14.59.22-29.54,5.21-40.69,14.84a80.21,80.21,0,0,0-15.64,17.75,93.73,93.73,0,0,0-5.88,10.95c-1.38,3.09-1.59,6.48-2.12,9.79l-.39-.1c-2.75-.64-6-.49-8.77-.53-5.23-.06-10.63-2.22-15.23-5.16a8,8,0,0,0-.56-2.77c-1.86-4.88-4.44-10.74-8.34-14.34-2.17-2-5-3.22-7.13-5.22-2.86-2.64-2-6.12-3.51-9.35a1.3,1.3,0,0,0-.27-.36c0-.65,0-1.29,0-1.93.05-2.17-.32-4.68,0-6.83.36-2.36,2.79-2.71,4.87-4,2.72-1.65,4.18-1.71,7.36-2.07,2.61-.3,5.23-.45,7.83-.82,6-.86,11.93-2.66,18-3a1.24,1.24,0,0,0,1.17-1.08,1,1,0,0,0,.26-.48l.05-.19a1.25,1.25,0,0,0-1-1.51c-6.61-4.95-10.8-12.91-17.08-18.26a75.73,75.73,0,0,1-8.32-7.59c-.74-.85-2-2.07-1.54-3.38.67-1.9,4.52-1.35,6.24-1.53,8.77-.93,17.62-1,26.36-2.16,8.29-1.08,16.47-2.57,24.75-3.7,8.59-1.17,16.76-3.24,25.21-5.1,3.94-.86,8.42-1.3,12.45-1.76a82.46,82.46,0,0,0,11.22-2.33l1.25-.34h.27l.22,0h.27a1.12,1.12,0,0,0,1-.51c8.49-2.43,16.65-5.79,25.18-8.06,9.07-2.42,18.42-4.55,27.35-7.42,4.79-1.54,9.71-2.2,14.56-3.51s9.54-2.58,14.37-3.47,9.41-1.5,14.1-2.6a61.75,61.75,0,0,1,15.53-1.92,1.24,1.24,0,0,0,0-2.48c-9.32-.26-18.29,3-27.44,4.2-3.9.53-7.71,1.5-11.55,2.37-5.44,1.23-11,2.37-16.43,3.78-9.75,2.55-19.41,5.56-29.16,8.15s-18.87,6.33-28.5,8.94c-2.77-.16-5.51-.58-8.27-.86s-5.26.2-7.93.1c-5.49-.21-10.62-3.56-16.21-3.63-5.38-.08-10,3.6-15.21,4.05a90.49,90.49,0,0,1-18.24-.66c-11.92-1.41-25.29-2.21-37,.68a23.41,23.41,0,0,1-4.93.82c-1.28,0-2.74-.32-4,0a4.05,4.05,0,0,0-2.55,1.9c-3.39,4.31-5.53,10.26-8,15.13l-.07.16a1.19,1.19,0,0,0-.45,1.29c.84,3.07,5.12,2.35,7.1.86s3-3.85,4.69-5.62c2.38-2.54,7.8-2.43,11.22-2.95,4.33-.66,8.69.73,13,.95a51.64,51.64,0,0,0,9.7-.56A40.43,40.43,0,0,1,443,316c-5.41.86-10.82,1.75-16.33,2.12-4.43.3-8.87.39-13.26,1-2.61.35-5.34.75-8,.85-1.44,0-2.94-.34-4.1.66-5.27,4.53,3.63,11.1,6.54,13.53a117.94,117.94,0,0,1,11.66,11.68c2.42,2.66,4.61,5.63,7.3,8-5.54.64-11,2.23-16.47,2.93-3.53.45-7.13.81-10.68,1.09-2.63.2-3.82,1.33-6.15,2.66-1.64.93-4.25,1.42-5,3.34s.09,5,.05,7c-.06,3,0,6,.05,9a2.38,2.38,0,0,1,.73.5l.79.74a7.75,7.75,0,0,0,1.25,3.38,17.66,17.66,0,0,0,4.69,4,23,23,0,0,1,7.1,6.95,60.25,60.25,0,0,1,4,7.73c1.67,3.84.4,6.84.27,10.74a13.34,13.34,0,0,1-1.84,6.29c-.41.76-.22,1.35-.57,2.15-1,2.34-.51,3.51.25,5.65,1.14,3.22.29,5.31-.17,8a1.12,1.12,0,0,0-.23.78,3,3,0,0,0,.07.43c.06.26-.16.51-.08.77s.51.52.72.67a11,11,0,0,0,2.43,1,36.18,36.18,0,0,0,7.15,2.53c5.59.95,12,3.11,17.58,1.7,5-1.26,3.38-5.29,3.33-9.55,0-3.55-.13-7.14,0-10.69a32.23,32.23,0,0,1,.86-4.77c.21-1.1.13-2.3.29-3.43.46-3.28.64-6.76,1.63-10,.94-3,2.89-5.88,4.36-8.7,3.15-6,7.62-10.9,12.15-15.91A59.51,59.51,0,0,1,495.12,362c14.68-.74,28.13,5.22,40.32,13,4.89,3.12,9.84,8.8,12.92,13.71,1.43,2.28,2.81,4.62,4.08,7,1.88,3.52,2.69,7,4,10.75,2.43,7,5.67,14.12,4.93,21.68-.35,3.5-.85,6.91-1.31,10.39-.33,2.48-.17,5-.39,7.48a1.22,1.22,0,0,0-.14,1.42,1.1,1.1,0,0,0,.18,1.47c2.23,2.11,5.23,2.45,8.2,2.59,4.88.21,9.78.23,14.67.42,9.8.39,19.56.4,29.35,1.1,9,.64,17.87.56,26.92.45,4.29-.05,8.52.27,12.81.29,2.63,0,5.31-.17,7.94,0a16.52,16.52,0,0,0,5.11,0C666.23,453.36,665.58,451,664,451.35Zm-221.31-138a37.25,37.25,0,0,0-7.61-.29c-3.31.25-6.52,1-9.86.94a78.26,78.26,0,0,1-10.13-1,24.57,24.57,0,0,0-7.26.35c-2.62.4-6-.11-8.43,1.11a10.91,10.91,0,0,0-3.37,3.26c-.77,1-1.43,2.07-2.26,3-.28.32-2.56,2.27-3.79,2.32a1.38,1.38,0,0,0-.07-.92c2.13-4.42,4.07-9.65,7.1-13.43,1.76-2.19,4-1.28,6.62-1.57,2.92-.33,5.69-1.37,8.62-1.72,12.1-1.45,24-.19,36,.79a71.52,71.52,0,0,0,15.13,0c5.68-.79,10.31-4.67,16.29-3.54,5,.95,9.79,3.4,14.95,3.24a62.67,62.67,0,0,1,6.59.19c-6.25,1.08-12.54,1.72-18.72,3.16a227.56,227.56,0,0,1-28.49,5.2l-2.23.26a1.05,1.05,0,0,0-1.43-.72C448.36,314.75,444.61,313.64,442.72,313.38ZM434,419.9c-.57,4.07-.3,8.17-.3,12.27,0,2.48,1.1,8.08-1.07,9.3-3.07,1.72-8.05-.13-11.3-.77s-6.33-1-9.36-2.15l0-.08h0c-.7-.23-1.38-.51-2.09-.69a4.66,4.66,0,0,1-1.59-.57,1.11,1.11,0,0,1-.44-1.46c.49-2,1.22-4,.75-6.2-.35-1.68-.5-1.12-1.09-2.71-1.06-2.89.5-4,1.57-6.29,1.44-3.1.66-5.19,1-8.43.11-.92.27-1.73.41-2.49a63.32,63.32,0,0,0,8.83,4c3.31,1.23,6.44.7,9.87.91.23,0,4.3.11,4.81.53C435.31,416.15,434.14,418.56,434,419.9Z"/><path class="cls-10" d="M431.81,459.57a.33.33,0,0,0,.19-.07l-.15,0Z"/><path class="cls-10" d="M630.81,275a53.79,53.79,0,0,0-9,1.25c-2.86.52-5.76,1-8.64,1.39s-5.49,1.09-8.27,1.46c-3,.4-5.87.94-8.8,1.59s-5.74,1-8.58,1.6-5.87,1.25-8.78,2-5.49,1.4-8.28,2c-1.23.26-2.41.73-3.66.89a26.14,26.14,0,0,0-4.44,1.08c-1.26.38-2.56.59-3.81,1s-2.54.92-3.83,1.29c-3,.85-5.93,1.5-8.87,2.39s-5.77,1.45-8.65,2.2-5.59,1.79-8.43,2.53-5.86,1.36-8.78,2.08a36.53,36.53,0,0,0-3.83,1.13,36,36,0,0,1-4.17,1.09c-1.06.25-2.08.59-3.13.83-3.1-.21-6.23-.26-9.32-.21-1.75,0-3.31.43-5.06.09s-3.37-.87-5-1.34c-1.84-.51-3.71-.9-5.58-1.28s-3.73-.91-5.61-1.12a11.75,11.75,0,0,0-5.14,1c-1.52.56-3,1.15-4.52,1.58a38.3,38.3,0,0,1-4.87,1.28,30.67,30.67,0,0,1-5.67.05c-3.84-.16-7.66-.53-11.49-.88a91.81,91.81,0,0,0-11.36-.62,93.66,93.66,0,0,0-11.33,1.36,83.59,83.59,0,0,1-12.66.52c-4.3,0-8.59.16-12.88.31a2.32,2.32,0,0,0-1.13.34,2.13,2.13,0,0,0-2.07,1.1c-1.16,2.42-2.06,5-3.18,7.39s-2.83,4.63-3.68,7.22c-.31,1-1.07,2.33-.75,3.68a3.09,3.09,0,0,0,3,2.28c2.29.07,4.38-1.39,5.95-2.9,1-1,1.89-2.16,3-3a10.64,10.64,0,0,1,2.36-1.31,2.23,2.23,0,0,0,.5-.07A41.06,41.06,0,0,1,412.9,317a45.59,45.59,0,0,1,4.82.38c-2.5.17-5,.34-7.49.59-1.36.14-2.72.36-4.07.53a6.63,6.63,0,0,0-4.31,1.77A4.77,4.77,0,0,0,401,324a4.23,4.23,0,0,0,2,3.57c4.82,3.33,8.77,7.78,12.73,12.06,2.46,2.67,4.68,5.54,7.11,8.22a40.57,40.57,0,0,1,3.24,3.58,16.42,16.42,0,0,1,1,1.74h0a40.09,40.09,0,0,0-4.29,1.32,37.83,37.83,0,0,1-6.05,1.46c-2.17.38-4.26,1.06-6.41,1.52-4,.85-8.07,1.51-12.06,2.48-3.38.82-7.84,2.25-8.72,6.11a57.11,57.11,0,0,0-.66,6.4c-.21,2-.47,4.07-.5,6.11-.05,4.12,3.43,6.6,6.44,8.8a44.39,44.39,0,0,1,4.52,3.58,20.75,20.75,0,0,1,3.63,4.09c.32.54.7,1.1,1.08,1.68a2.56,2.56,0,0,0,.62,1,9.51,9.51,0,0,1,1.16,2.55,7.27,7.27,0,0,1-.1,2.5c-.11,1-.24,2-.35,3-.28,2.47-.61,4.94-.93,7.41a36.55,36.55,0,0,1-1.18,6.59,13.64,13.64,0,0,0-.26,7c.45,2.36,0,4.7,0,7.08a2.23,2.23,0,0,0,.17.88,6.69,6.69,0,0,0-.1,1.26,3.75,3.75,0,0,0,.7,2.15,4.07,4.07,0,0,0,2.17,1.29c.71.25,1.38.63,2.1.87.9.3,1.82.55,2.72.83l4.17,1.31a22.74,22.74,0,0,0-5.37,1.71,3.61,3.61,0,0,0-2,3.05c0,1.19.78,2.27,1,3.44s.32,2.47.53,3.7a35,35,0,0,0,.7,4.22c.88,2.79,3.5,3.22,6,2.62a20,20,0,0,1,3.17-.55,12.27,12.27,0,0,1,3.63,0,35.05,35.05,0,0,0,3.45,1,6.93,6.93,0,0,0,4.21-.52,4.31,4.31,0,0,0,1.56-1.35l.17-.25a1.44,1.44,0,0,0-.26.06c0-.06.15-.1.3-.11a.75.75,0,0,0,.1-.16c.07.07.08.11.05.14a11.29,11.29,0,0,1,1.76.16c1,.15,2,.28,3,.51,1.27.29,2.36,1,3.62,1.39,3,.82,6-.37,9-.76A69.94,69.94,0,0,1,459,460c2.93,0,2.93-4.54,0-4.55a54.73,54.73,0,0,0-6.77.46c-2.27.26-4.58.46-6.81.94a10.37,10.37,0,0,1-2.91.48,7.34,7.34,0,0,1-2.48-.83,18.9,18.9,0,0,0-5.31-1.27c-1.66-.25-3.56-.51-5.12.33a4,4,0,0,0-.93.7,6.16,6.16,0,0,0-.55.69.93.93,0,0,1-.17.19,2.6,2.6,0,0,1-.34.11,3.68,3.68,0,0,1-1.44-.12c-.93-.23-1.78-.69-2.69-.92a12.16,12.16,0,0,0-3.3-.15,28.13,28.13,0,0,0-5.91.81l-.33.06a2.07,2.07,0,0,1-.09-.32c-.21-1.22-.36-2.45-.57-3.67s-.28-2.33-.49-3.48a8.52,8.52,0,0,0-.5-1.5h0c.62-.21,1.21-.44,1.84-.62,1.22-.34,2.47-.6,3.69-1a2.57,2.57,0,0,0,1.55,1.47c2.56,1,5,2.23,7.75,2.53a6.72,6.72,0,0,0,4.21-.82,6.25,6.25,0,0,0,1.51-1.39c.22-.27.35-.56.7-.57s.71.34,1,.53a7.68,7.68,0,0,0,6.12,1.51,5.45,5.45,0,0,0,3.37-2.39c.62-.84,1.57-.78,2.56-.95a2.29,2.29,0,0,0,1.59-2.8,2.34,2.34,0,0,0-2.8-1.59,8.77,8.77,0,0,0-3.38,1,6,6,0,0,0-1.6,1.62c-.19.24-.33.53-.62.64a3.21,3.21,0,0,1-2.55-.69c-.29-.21-.58-.4-.88-.58a7,7,0,0,0,.7-2.76c.17-1.81.16-3.66.29-5.48a108.31,108.31,0,0,0,.68-11.24c-.06-1.86-.16-3.72-.28-5.58a41.87,41.87,0,0,1-.26-5c.09-1.63-.43-3.21-2.2-3.67a5.69,5.69,0,0,0-2.09.17,9.66,9.66,0,0,1-2.34-.14,115.18,115.18,0,0,1-11.67-2.31c-1.88-.47-3.76-.93-5.58-1.58-1.24-.43-2.43-1.26-3.69-1.67.1-.83.21-1.67.29-2.51a8.57,8.57,0,0,0-.87-4.92c-.13-.26-.27-.51-.41-.77a78.77,78.77,0,0,1,9-8.29,7,7,0,0,0,2.17-2.37,10.58,10.58,0,0,0,.65-3,18.83,18.83,0,0,0,.56-3.33c0-1-.36-2.33,0-3.25.24-.71,1.32-1.46,1.85-1.92,1-.81,2-1.52,3-2.31,1.89-1.52,3.57-3.3,5.3-5s3.51-3.36,5.13-5.21a6,6,0,0,0,1.32-2.15,2.62,2.62,0,0,0,1.05-.56c.88-.77,1.78-1.53,2.7-2.26l.31-.25.27-.21.12-.09.39-.29c.57-.42,1.14-.83,1.69-1.26l.59-.46.36-.3.12-.09.23-.17.3-.21c.19-.13.39-.25.59-.36s.31-.17.47-.25l.23-.11.45-.15h.1a2.25,2.25,0,0,0,1.6-.66,2.28,2.28,0,0,0,.67-1.61,2.34,2.34,0,0,0-2.27-2.28,6.11,6.11,0,0,0-3.25,1,18.61,18.61,0,0,0-3,2.11l-.26.22-.08.05-.79.57c-.6.45-1.19.9-1.78,1.37h0c.27-2.34.42-4.69.78-7,.16-1,.36-2,.54-3a11.63,11.63,0,0,1,.25-1.14c0-.07,0-.15.07-.23a2.18,2.18,0,0,0,1.11-1.91,2.28,2.28,0,0,0-2.27-2.27c-2.23.15-3.11,2.08-3.49,4a60.54,60.54,0,0,0-1,6.13c-.25,2.74-.55,5.45-1,8.17a10.56,10.56,0,0,0-.21,1.76s0,.16,0,.29a1.75,1.75,0,0,1-.2.34c-.83.95-1.63,1.9-2.54,2.77-1.93,1.82-3.82,3.68-5.75,5.51-1.75,1.67-3.78,3-5.56,4.61a10.12,10.12,0,0,0-2.12,2.45,7.16,7.16,0,0,0-.64,3.9,11,11,0,0,1-.21,3.24,12.71,12.71,0,0,0-.34,1.86,5.2,5.2,0,0,0-.06.69v.1c-.49.85-1.58,1.32-2.32,1.91-1.07.84-2.09,1.8-3.11,2.71-1.45,1.29-2.82,2.7-4.18,4.11a29.94,29.94,0,0,0-7.19-7.19c-1.25-.95-2.55-1.82-3.77-2.79-.94-.74-2.32-1.75-2.71-2.94a4.6,4.6,0,0,1,0-1.53c0-.95.1-1.9.19-2.85.18-1.85.38-3.69.52-5.54.09-1.19,0-2.59,1-3.35a11.06,11.06,0,0,1,3.76-1.58c3.33-.9,6.73-1.52,10.11-2.16,3.64-.68,7.18-1.72,10.82-2.35,3-.53,5.78-1.8,8.76-2.5a24.11,24.11,0,0,0,2.5-.64c1.59-.54,2.79-2.12,1.84-3.83-.33-.58-.76-1.1-1.1-1.67-.45-.77-.79-1.59-1.29-2.33a36.79,36.79,0,0,0-3.39-3.88c-2.42-2.6-4.6-5.41-7-8.06s-4.68-5-7.08-7.46a49.63,49.63,0,0,0-3.68-3.43c-.65-.54-1.31-1.06-2-1.56-.36-.27-.74-.53-1.11-.78l-.2-.15a3.3,3.3,0,0,0,0-.63c.25-.05.49-.13.74-.17,1.51-.25,3.08-.45,4.61-.58,3.81-.32,7.62-.63,11.44-.88,7.67-.49,15.25-1.44,22.88-2.39,1.92-.23,3.84-.45,5.76-.64a2.48,2.48,0,0,0,2.09-1.38c1.78.09,3.55.15,5.34.14a2.08,2.08,0,0,0,1.66-.73c4.68-.83,9.33-1.84,14-2.84,3-.66,6.07-1.31,9.11-1.9,2.82-.56,5.68-1,8.47-1.7a38.81,38.81,0,0,1,4-1c1.57-.23,3.1-.38,4.65-.72,2.84-.63,5.8-.67,8.67-1.12l.14,0,1.62.1a2,2,0,0,0,1.82-.94l.29-.08c1.46-.42,2.91-.6,4.36-1.12a70.12,70.12,0,0,1,8.18-2.23c2.86-.65,5.7-1.28,8.49-2.19s5.68-1.68,8.58-2.37,5.74-1.65,8.63-2.38,5.58-1.46,8.34-2.39c1.25-.43,2.54-.64,3.8-1a28,28,0,0,1,3.82-1c1.34-.2,2.56-.53,3.88-.86s3-.58,4.45-.94c5.69-1.4,11.37-2.89,17.16-3.88,3.22-.55,6.39-1.41,9.62-1.93s6.47-.88,9.68-1.59c1.45-.31,2.92-.45,4.37-.68,1.66-.27,3.29-.58,5-.82,3.25-.47,6.41-1.37,9.71-1.4C633.74,279.47,633.74,274.92,630.81,275ZM427.63,445.87a14.33,14.33,0,0,1-4.52-1.35,14.32,14.32,0,0,1,2.77.47c.88.27,1.7.59,2.54.82A2.39,2.39,0,0,1,427.63,445.87ZM407,423.25c.1-1.64.91-3.13,1.18-4.74.32-1.83.45-3.7.68-5.54.15-1.19.31-2.38.46-3.57.23.13.46.26.7.37a27.57,27.57,0,0,0,3.48,1.31c2.36.74,4.79,1.31,7.2,1.87s4.76.95,7.16,1.34c1.25.21,2.49.45,3.75.56a11.47,11.47,0,0,0,1.31,0V415c.08,1.12.15,2.23.22,3.35.15,2.23.27,4.47.32,6.71.1,4.49-.7,9-.9,13.45a20.55,20.55,0,0,1-.11,2.72l-.2.06a6,6,0,0,1-2.64.15c-.93-.21-1.79-.66-2.7-.93-1.91-.55-3.94-.5-5.87-1-2.2-.57-4.37-1.24-6.53-1.93a62,62,0,0,1-6.55-2.17l-.46-.21c.15-.87.4-1.71.49-2.61a1.82,1.82,0,0,0-.46-1.37,21.09,21.09,0,0,0,.1-2.86C407.56,426.68,406.9,425,407,423.25Zm78.36-116.49c-3.41.6-6.81,1.31-10.2,2-6.52,1.39-13,2.85-19.6,3.9a70.58,70.58,0,0,1-8.71-.63,56.16,56.16,0,0,0-11.07-.66,33.62,33.62,0,0,0-5.43,1.06c-.74.17-1.51.4-2.27.51a20.25,20.25,0,0,1-2.81,0c-1.89,0-3.78.08-5.67-.06s-3.88-.47-5.84-.55a44.45,44.45,0,0,0-11.32,1,2.57,2.57,0,0,0-1.58.24,23.62,23.62,0,0,0-3.83,2,27.79,27.79,0,0,0-3.13,3l-.77.77.2-.36c.72-1.23,1.49-2.4,2.12-3.69,1.18-2.42,2.1-5,3.21-7.41,3.65-.13,7.3-.28,10.95-.3,3.83,0,7.72.19,11.54-.18s7.45-1.22,11.22-1.54a67,67,0,0,1,11.06.18c3.83.33,7.65.73,11.49,1a43.55,43.55,0,0,0,11.63-.34c3.23-.66,6.25-2.12,9.39-3.08a4.48,4.48,0,0,1,2-.36c.92.13,1.84.41,2.75.59,1.87.39,3.75.74,5.61,1.19,1,.23,2,.51,2.91.78C487.92,306.22,486.65,306.53,485.37,306.76Z"/><path class="cls-10" d="M669.23,451.54a2.34,2.34,0,0,0-2.8-1.59,38.37,38.37,0,0,1-4.55.17c-1.73,0-3.44.29-5.17.34-3.19.1-6.36-.21-9.55-.29-6.59-.16-13.21,0-19.8,0-3.41,0-6.81-.21-10.22-.28-3.18-.06-6.29-.19-9.45-.5-1.63-.15-3.25-.09-4.87-.27a41.88,41.88,0,0,0-5.25-.19,57.16,57.16,0,0,1-9.25-.42A72.43,72.43,0,0,0,577.6,448H566.1c-2.93,0-2.93,4.56,0,4.56h10.17a76.12,76.12,0,0,1,9.79.19,67.46,67.46,0,0,0,9.31.78c1.61,0,3.22-.09,4.83,0s3.5.33,5.27.36c3.31.06,6.57.56,9.89.57s6.51.19,9.77.27c6.76.16,13.53,0,20.29,0,3.63,0,7.23.4,10.86.31,1.88,0,3.73-.3,5.6-.35a50.56,50.56,0,0,0,5.76-.33A2.29,2.29,0,0,0,669.23,451.54Z"/><path class="cls-10" d="M651.86,339.34c-5.23,0-10.45,0-15.68-.07a143.17,143.17,0,0,0-15.5.65c-2.57.24-5.18.22-7.76.39s-5.13.22-7.69.28c-5.13.1-10.16,1.06-15.25,1.68-2.54.31-5,.83-7.52,1.29a16.05,16.05,0,0,0-3.27.85,13.3,13.3,0,0,0-2.94,1.81c-1.77,1.31-3.64,2.74-4.65,4.77a17.13,17.13,0,0,0-1.54,7.3,27.7,27.7,0,0,0,.72,7.71,27.28,27.28,0,0,1,.86,3.31,12.54,12.54,0,0,0,.91,3.46c.45,1,.86,2,1.22,3s.59,2.4,1.09,3.53c.39.87,1,1.6,1.45,2.43a31.27,31.27,0,0,0,1.91,3.19,64.33,64.33,0,0,0,10.64,12.17,36,36,0,0,1,3,2.75c.85.91,1.79,1.8,2.61,2.73.4.47.66,1.13,1,1.64s.75,1,1.16,1.41c.85.95,1.6,2,2.48,2.92,2,2.12,5.24-1.11,3.22-3.22a29.64,29.64,0,0,1-3.75-4.7,18,18,0,0,0-2.1-2.42c-.8-.89-1.59-1.79-2.46-2.61-1.66-1.54-3.43-2.89-5-4.53s-3.12-3.45-4.57-5.28a35.47,35.47,0,0,1-3.87-5.54c-.42-.82-.91-1.57-1.39-2.36a12.83,12.83,0,0,1-.89-2.73c-.67-2.06-1.87-4-2.2-6.15s-1.2-4.25-1.35-6.45c-.28-4.1-.76-8.89,2.8-11.77a11.55,11.55,0,0,1,5.08-2.67c2.26-.46,4.55-1,6.85-1.25,4.78-.58,9.58-1.6,14.4-1.72s9.67-.45,14.5-.57c2.8-.07,5.58-.5,8.38-.66s5.49-.15,8.24-.12c5.6.05,11.2.09,16.8.09C654.79,343.9,654.8,339.34,651.86,339.34Z"/><path class="cls-10" d="M535.18,324.39c-.66-1.38-1.43-2.72-2-4.12-.47-1.09-.72-2.26-1.14-3.37a8.32,8.32,0,0,0-2.08-3.31,7.48,7.48,0,0,0-3.86-1.57c-2.9-.59-5.84-1.39-8.78-1.72-2-.23-4.5-.62-6,.92-2,2,.88,5,3,3.44h.15c.39,0,.78,0,1.17.05a18.21,18.21,0,0,1,2.34.26c2.48.5,4.94,1,7.43,1.53.78.16,1.41.16,1.91.84a7.77,7.77,0,0,1,.92,2.34,32,32,0,0,0,2.07,4.85l-.63.11c-1,.16-2,.4-3,.61-2.68.56-5.41.92-8.11,1.34s-5.28.35-7.93.61c-3,.28-5.88.59-8.85.72s-5.62.54-8.45.6-5.71-.09-8.56-.19c-5.86-.2-11.71,0-17.57-.09-6.62-.07-13.21-.73-19.82-1-2.93-.1-2.93,4.45,0,4.55,6.09.21,12.16.81,18.26.94s12.17-.11,18.25.09c3,.09,6,.25,9,.22s5.91-.49,8.88-.61,5.89-.44,8.85-.72,5.95-.29,8.93-.74c3.19-.49,6.4-.91,9.55-1.65,2.33-.54,4.69-.54,6.23-2.66A2.3,2.3,0,0,0,535.18,324.39Z"/><path class="cls-10" d="M524.6,355.53a19.33,19.33,0,0,1-4.54-2.06,28.7,28.7,0,0,0-5.47-1.94,70.56,70.56,0,0,0-12-2.35,93.55,93.55,0,0,0-12.19-.14,55,55,0,0,0-12.24,1.73c-3.94,1.09-7.83,2.47-11.65,3.93s-7.66,2.91-10.88,5.38a88.54,88.54,0,0,0-8.9,7.62c-2.73,2.73-5.41,5.43-7.95,8.35a22.86,22.86,0,0,0-3.45,5c-1,2-2.05,4-3.16,6a59.21,59.21,0,0,0-3.11,6.35,37.42,37.42,0,0,0-2.28,6.42c-.62,2.86,3.76,4.08,4.38,1.21a41.18,41.18,0,0,1,4.31-10.54c.92-1.69,1.92-3.33,2.78-5.05a30.85,30.85,0,0,1,2.5-4.72,68,68,0,0,1,7.32-7.95,87.93,87.93,0,0,1,7.94-7.26,38.09,38.09,0,0,1,4.67-3.33,45.8,45.8,0,0,1,5-2.32c3.68-1.48,7.41-2.79,11.19-4,7.45-2.33,15.17-2.64,22.93-2.34a61.53,61.53,0,0,1,12.55,2.1,25.94,25.94,0,0,1,5.57,1.82,22.06,22.06,0,0,0,5.46,2.43,2.33,2.33,0,0,0,2.8-1.59A2.29,2.29,0,0,0,524.6,355.53Z"/><path class="cls-11" d="M158.22,167.11c.26-.89.5-1.78.74-2.68a4.5,4.5,0,0,1,.83-3.15,76.61,76.61,0,0,1,4.48-13.5c1.35-2.84,3.13-7.9,5.27-10.24,3-3.31,8.74-3.12,12.76-3.09a93.35,93.35,0,0,0,20.15-1.54c6.59-1.31,13.58-.4,20.24-.36,8.12,0,16.24,0,24.36.07,15.85.15,31.77-2.45,47.69-.77,11,1.17,26.57,4.08,35.45,11.34a33,33,0,0,1,9.33,12.34,39.67,39.67,0,0,1,6.3,11.61,22.37,22.37,0,0,0,1.82,3.79c.77,1.51,1.41,3.1,2.06,4.66,1.26,3.07,2.37,6.19,3.77,9.19a3.5,3.5,0,0,1,.31,1.37c4.2,6.64,8.52,13.22,11.1,20.68,5.5,15.91,7.58,33.19,10.59,49.71,0,.15,0,.29,0,.43a69.8,69.8,0,0,1,5.23,17.41c1.38,9.14,1.18,18.79,1.72,28a275.29,275.29,0,0,1-3.07,58.17c1.4,3.29-.14,7.71-4.88,7.71h-.63a5.8,5.8,0,0,1-1.72-.27c-5.1-.7-10.82-1.9-15,1.38s-2.54,8.08-5.59,12.1c-4.17,5.51-12.15,5.37-18.39,5-11.41-.71-23.7-1.47-34.11-6a8.28,8.28,0,0,1-.8,2.09,2.83,2.83,0,0,1-3.16,1.29,3.47,3.47,0,0,1-1.23-.72,2.79,2.79,0,0,1-.82-2,2.26,2.26,0,0,0,0-.26c-.1-.4-.23-.78-.36-1.17a9.6,9.6,0,0,1-.31-1.31,5.12,5.12,0,0,1-.54-1.7c0-.08,0-.16,0-.24a35.16,35.16,0,0,1-8.29-8c-6.06-8.21-9.19-17.83-19.2-21a1.68,1.68,0,0,0-1.05-1.46c-14.5-6.83-29.47-3.59-44.5-1.56-10.9-.47-22-.78-32.61-2.93a9.78,9.78,0,0,1-2.35.82,20.5,20.5,0,0,1-5.25,0,6.87,6.87,0,0,1-3.3-1,8.43,8.43,0,0,1-2.14-2c-.17-.22-.32-.46-.47-.69a14.16,14.16,0,0,1-7.44-5.55,1.26,1.26,0,0,0,.11-.49c.14-8.09,0-16.18-.32-24.26-1-24.16-3.51-48.22-5.2-72.33q.1-6.45.11-12.89c0-16.71,1.17-33.81-.15-50.54A5,5,0,0,1,158.22,167.11Z"/><path class="cls-12" d="M349.31,363.45a34.46,34.46,0,0,0,.21-6c0-4.13.51-8.37.83-12.49s1.07-8.13,1-12.27.45-8.39.75-12.56.86-8.34,1.35-12.47c.45-3.73.15-7.75,1.21-11.35a2.83,2.83,0,0,1,.58-1.09c.32-3.46.65-7.1,2.27-10.17a2,2,0,0,1,.31-.39,71.8,71.8,0,0,0,.54-7.91c0-3.6,5.62-3.6,5.6,0a107.35,107.35,0,0,1-2.29,19.15c0,.52-.11,1-.15,1.56-.22,3.13.22,6.2.19,9.32a18.87,18.87,0,0,1-.6,4.55,20.89,20.89,0,0,0-.3,4.33c-.21,3.51-.77,6.94-.81,10.47-.09,7.26.12,14.52,0,21.78-.05,3.49.08,6.94.36,10.41a13.94,13.94,0,0,0,3.29,7.15,3.34,3.34,0,0,1,.69,1.77,2.61,2.61,0,0,1-1.27,2.87c-2.46,1.37-5.44,1-8.13.83s-5.24-.68-5.94-3.6A9.27,9.27,0,0,1,349.31,363.45Z"/><path class="cls-13" d="M113.47,373.52c-1.37-2.17-4.08-1.79-6.29-1.56-.12,0-.22-.12-.34-.17-2.24-.82-4.67-.51-7-.48a85.17,85.17,0,0,1-9-.1c-3.62-.32-8.94-1.1-12.33.83-22.68-.8-45.38-1.55-68-1.18Q12.12,387,14.78,403c5.37-.14,10.71-.51,16.09-.36,13.19.38,26.36.39,39.56.44,6.32,0,12.62,0,18.94-.35,6-.34,12.12,0,18.11-.57s5.44-6.4,5.79-11c.24-3.14.73-6.26.92-9.41C114.34,379.45,114.8,375.64,113.47,373.52Z"/><path class="cls-14" d="M110.49,375.58c-.2.54-.43,1.07-.66,1.61a2.59,2.59,0,0,0-.65,1.49,24.48,24.48,0,0,1-4.28,6.48c-2.72,2.85-6.56,4.68-10.13,6.25l-.24.1a16.39,16.39,0,0,0-5.91,2c-6.37,1.3-12.89,1.44-19.36,1.77-7,.35-13.89,1.33-20.86,1.63s-13.84.06-20.73.07c-4.62,0-9.24,0-13.86,0,.29,1.88.59,3.75.9,5.63q12.32,0,24.63,0c8.28,0,16.54-.56,24.8-1.17a2.91,2.91,0,0,0,1.58.56c.75,0,1.5.06,2.24,0a2.4,2.4,0,0,0,1.74.62c2-.11,3.92-.29,5.87-.52,3.18.12,6.36.28,9.54.38,6.16.2,12.24-.39,18.38-.42,4,0,8.35-1.56,9.21-5.87.21-1.08.43-2.16.63-3.25,0-.07.08-.12.11-.2a20.8,20.8,0,0,0,.89-5.83c0-.1,0-.2,0-.3a48.55,48.55,0,0,0,.39-6.73c.41-.92.79-1.87,1.15-2.82C117.15,373.69,111.74,372.24,110.49,375.58Z"/><path class="cls-13" d="M130.2,1.46c.12-7.22-11.07-7.2-11.19,0h0a5.78,5.78,0,0,0-2-.53C111.86.55,106.72.27,101.59.06A6.2,6.2,0,0,0,97-3C89.36-3.93,81-1.68,73.24-1.36c-1,0-2,.06-2.93.07-11.6,35.88-22.5,72-31.93,108.51C17.14,189.58,2.44,275.41,9.5,360.69c.28,3.4.6,6.79.95,10.19,15.26-.37,30.54-1.1,45.75-1.87q10-.51,20-.81a2.66,2.66,0,0,0,2.69,3c4,0,7.83-1,11.75-1.65,3.63-.62,7.41-.27,11.08-.26a2.58,2.58,0,0,0,2.66-2.24,21.77,21.77,0,0,1,5.38,1.23,2.31,2.31,0,0,0,.28.1l.14.06v0a5.86,5.86,0,0,0,1.06.19l.43,0c4.82.39,6.18-4,4.79-7.49a5.77,5.77,0,0,0,.17-2.8c-1.46-8,.31-16.72-.16-24.9-.54-9.33.14-18.51.38-27.83.45-17.89.26-35.94.12-53.85,0-3.6-.26-7.17-.54-10.73a4.51,4.51,0,0,0,2.1-3.41c.66-4.44.17-8.69.18-13.15a75.12,75.12,0,0,0-1.44-15.19,5.37,5.37,0,0,0-1-2.3c-.15-5.74-.62-11.51-.79-17.21-.35-11.48-.7-22.8-.42-34.18.24-4,.45-8,.56-12a5.34,5.34,0,0,0-1-3.39c.65-13,1-26.1,1.16-39,.15-13.73-1.76-26.86,0-40.65.6-4.86,1.21-9.68,1.8-14.53,1.12-9.13,2.06-11,8.85-16.52C134.82,22.65,130.05,11,130.2,1.46Z"/><path class="cls-14" d="M115.78,29.11l-1.59,0a2.84,2.84,0,0,0-1.64-.66,376.72,376.72,0,0,0-51.49-.53c-.9,2.91-1.81,5.81-2.7,8.73,5.85,0,11.71,0,17.56-.08,13.31-.27,26.55-1.77,39.86-1.89C119.38,34.67,119.38,29.09,115.78,29.11Z"/><path class="cls-14" d="M167.4,403.27a7.27,7.27,0,0,1,1.44-1.44c.36-1.46.76-2.91,1.24-4.31,6.34-18.56,19.64-32.81,39.81-35.84,18.47-2.78,39.28,9.14,50.25,23.47,5.4,7.06,11,14,13.4,22.82s1.86,19.9-.19,28.83a5.34,5.34,0,0,1-1.15,2.35,19.63,19.63,0,0,1-4.12,7c-4.62,5.33-9.24,12.24-15.11,16.24-9.85,6.7-27.94,10.25-39.58,8.4s-24.77-6.09-32.15-15.59a5.93,5.93,0,0,1-3.46-1.43c-6.78-5.73-11-16.73-13.34-25.16C162.29,420.8,162.4,410,167.4,403.27Z"/><path class="cls-13" d="M201.16,397.6a21.26,21.26,0,0,1,10.37-7.38,25.74,25.74,0,0,1,6.25-2.57,5.88,5.88,0,0,1,6.43,2.78,14.4,14.4,0,0,1,5.49,1.48c3.9.24,7.93,2.2,11.64,6.54,15.64,18.32,1.57,49.05-22.25,49.27-10.56.11-19.93-7.48-23.33-17.11C191.58,418.76,193.47,407.66,201.16,397.6Z"/><path class="cls-14" d="M302,379.73c8.89-1.73,20,1.06,29,1.68,3.71.26,8.5.13,12.05,1.86.82-2.67,1.81-5.31,3.86-7.2,2.82-2.61,6.77-3.2,10.39-3.9a161.3,161.3,0,0,0,19.86-5.36c4.06-1.33,6.72,1.9,6.83,5.23a5.61,5.61,0,0,1,1.48,5,98.5,98.5,0,0,1-2.28,9.76,5.55,5.55,0,0,1-.09,2.61c-1.06,3.91-2.14,7.8-3.41,11.64-.26.79-.57,1.58-.89,2.38-.15.74-.31,1.49-.44,2.24-1.56,9-5.62,14.74-14.35,18.3-9.47,3.87-21.92-1.37-31.74-2.05-5.46-.38-10.77-.47-16.19-1.23-5.16-.74-11.16.58-16-1.77-8.37-4.09-8.35-13.56-8.4-21.51C291.65,389.76,293,381.48,302,379.73Z"/><path class="cls-11" d="M167,139.16c2.3,0,4.64-1,7-1,1.25,0,2.49.13,3.74.12,1.5,0,2.93-.41,4.42-.54a28.8,28.8,0,0,0,4.14-.36c1.27-.29,2.52-.67,3.79-.94a29.86,29.86,0,0,1,8.94-.59c2.52.22,5.08.34,7.58.69a34.57,34.57,0,0,0,9.25-.34,60.06,60.06,0,0,1,16.67-.23c5.87.83,11.53,1.94,17.47,1.06s11.63-1.7,17.55-2.09c5.6-.38,11-1.31,16.63-1.08,2.5.11,4.95.53,7.46.52,2.76,0,5.57-.17,8.32,0,3.09.23,6.11,1,9.19,1.3,2.75.27,5.41-.47,8.19-.38a28.55,28.55,0,0,1,3.84.43c.09-2.1,2.83-3.93,4.77-2,1.34,1.34,2.65,2.7,3.95,4.07a6.53,6.53,0,0,1,2.2,2.21,2.16,2.16,0,0,1,.17.34A99.37,99.37,0,0,1,347.58,162c2.67,5.25,4.29,10.94,6.2,16.5,2,5.79,4.8,11.35,6.23,17.33.71,3,1,6.06,1.8,9s1.87,5.78,2.79,8.68c1.91,6,3.77,12,5.83,18,.94,2.73,2,5.43,2.81,8.2.92,3,1.49,6.2,2.47,9.24a120,120,0,0,1,3.79,17.51,65.7,65.7,0,0,1,.54,10.11,63.4,63.4,0,0,0,1.37,10.72c1.23,6.66,2.71,13.31,2.85,20.09a.9.9,0,0,1,0,.16c.45,4.94.91,9.43.23,14.38s.1,10.16-.52,15.23c-.31,2.5-.06,4.94-.16,7.44s-.51,4.73-.49,7.17c0,5.55,0,11.11,0,16.67a2.73,2.73,0,0,1-.43,1.5,60.89,60.89,0,0,1,.53,6.34c-.08,2.39-.09,4.78-.05,7.18.07,4.74.12,9.36-1,14a72.32,72.32,0,0,1-4.48,12.35c-2.06,4.59-4.9,8.3-7.78,12.38-2.07,2.92-6.92.12-4.83-2.82,2.62-3.71,5.34-7.1,7.27-11.26A67.05,67.05,0,0,0,377,395.92c1.08-4.41.85-8.88.79-13.39,0-2.24,0-4.46.08-6.69s-.48-4.31-.59-6.49a2.57,2.57,0,0,1,.48-1.69c0-5.16,0-10.31,0-15.47,0-2.47.3-4.8.46-7.25s-.16-5.12.16-7.7c.62-5-.11-10,.49-15a43.74,43.74,0,0,0,.59-6.75c-.07-2-.32-4-.55-6a2.86,2.86,0,0,1-.21-1.09c0-6.38-1.35-12.58-2.52-18.83-.54-2.88-1.09-5.76-1.44-8.68-.39-3.24-.17-6.45-.29-9.7a76.22,76.22,0,0,0-1.13-8.22,69.77,69.77,0,0,0-1.72-8.61c-.76-2.72-1.73-5.33-2.38-8.08a82.57,82.57,0,0,0-2.4-8.33c-2.07-5.94-4.11-11.88-6-17.87-1.79-5.67-4.07-11.34-5.16-17.19a86.27,86.27,0,0,0-4.88-16.64c-2.2-5.53-3.85-11.24-6-16.8-2.29-6-5.95-11.25-9.53-16.58a79.83,79.83,0,0,0-8.81-10.59,23.6,23.6,0,0,0-4.26-.76,25.06,25.06,0,0,0-7.91-.63,25.73,25.73,0,0,1-6.85.19c-2.8-.35-5.58-1-8.4-1.16-2.48-.1-5,0-7.45,0-2.64,0-5.23-.44-7.86-.54-5.51-.19-10.77.73-16.23,1.09-5.73.38-11.29,1.2-17,2-5.47.79-10.69.18-16.12-.67a56.46,56.46,0,0,0-16.62-.36,73.61,73.61,0,0,1-7.7.81,66,66,0,0,1-8.54-.57,31.53,31.53,0,0,0-9.6,0c-2.77.54-5.35,1.46-8.2,1.57-3,.11-5.91.55-9,.47-2.7-.07-5.2,1-7.84.95C163.35,144.68,163.34,139.09,167,139.16Z"/><path class="cls-10" d="M207.78,164.66c1.87-.87,4.3-.34,6.31-.27a37.41,37.41,0,0,0,5.08-.56c4.48-.43,9.1.11,13.61-.05s9.14-.36,13.72-.36c4.78,0,9.57,0,14.35,0,4.43,0,9-.81,13.37-.26s8.41-.29,12.7-.25c2.1,0,4.2,0,6.3,0s4.1.43,6.16.52c4.88.21,9.62.15,14.47.92a54.48,54.48,0,0,1,13.4,4.2,2.44,2.44,0,0,1,1,.82c2.69,2,4.07,5.17,5.22,8.59.87,2.54,2.09,4.8,2.67,7.46q1,4.48,1.79,9c1,5.49,3,10.71,4.17,16.14,1.3,5.79,3.49,11.31,4.59,17.15,2.13,11.29,3.17,22.77,5.08,34,.87,5.19,1.22,10.16-2,14.6a13.89,13.89,0,0,1-5.25,4.49c-2.82,1.28-5.41.74-8.15-.42a52.8,52.8,0,0,1-7.09-3.13,65.76,65.76,0,0,0-7.56-4c-5.47-2.39-10.87-4.83-16.24-7.44-5.55-2.7-11.2-5.21-16.72-7.94a50.77,50.77,0,0,0-7.5-3.44c-2.64-.81-5.16-2-7.84-2.63-6-1.47-12.08-3.78-18.22-4.62-5.45-.75-11-1.68-16.49-1.65-5.93,0-11.86.81-17.79,1-2.4.07-4.5.14-6.66-1.07a14.22,14.22,0,0,1-5.48-4.59,16.24,16.24,0,0,1-2.87-7.53c-.27-3,.1-6.08.07-9.1,0-.6,0-1.2.05-1.79,0-.11,0-.22,0-.32-.21-1.64-.59-3.25-.75-4.91-.3-3.09-.17-6.21-.4-9.31-.47-6.33.06-12.64-.24-19-.14-3.11-.71-6.16-.66-9.28,0-3.46-1.6-8.08-.23-11.34A8,8,0,0,1,207.78,164.66Z"/><path class="cls-10" d="M205.84,307.28c.12-3.27.5-6.51.46-9.78,0-1.66,0-3.33-.12-5a18.79,18.79,0,0,1,0-5.19c.35-1.74,1.16-3.37,2.9-4a8.2,8.2,0,0,1,4.95.09A2.42,2.42,0,0,1,215.9,285a1.94,1.94,0,0,1,.23.26c.72,1.23.53,2.72.48,4.08-.06,1.71,0,3.42.09,5.13.06,3.12-.2,6.23-.33,9.34a42.26,42.26,0,0,0,.06,4.64c.09,1.59-.17,3.17,0,4.76.1,1.26.59,2.58.12,3.79a4.36,4.36,0,0,1-3.31,2.47c-2.62.52-6.19.26-7.16-2.71a13.61,13.61,0,0,1-.26-4.18C205.77,310.78,205.78,309,205.84,307.28Z"/><path class="cls-10" d="M164.3,399c.48-1.5.65-3.07,1.13-4.57,1-3,2.4-5.84,3.55-8.76a22.67,22.67,0,0,1,4.44-6.47,83,83,0,0,1,6.25-6.74c2-1.91,4.34-3.34,6.44-5.13s4.06-3.8,6.89-4.71a23.35,23.35,0,0,0,3.82-1.42,11.54,11.54,0,0,1,3.81-1.12c3.26-.44,6.4-.33,9.55-1.47,5.94-2.15,12.35-.27,18.42.59,6.31.89,12.6,3.74,18.23,6.64,5.46,2.82,10.12,7.2,14.34,11.58a69.81,69.81,0,0,1,12.33,18,75.59,75.59,0,0,1,4,9.87,46.28,46.28,0,0,1,1.57,10.22,71.83,71.83,0,0,1-1.56,21.18,31.36,31.36,0,0,1-4,9,50.8,50.8,0,0,1-5.52,7.76h0a8.51,8.51,0,0,1-.93,1.45,27.67,27.67,0,0,1-2.87,2.52c-2.21,1.92-4,4.25-6.3,6.11-4.72,3.87-10.19,6.06-15.67,8.51a43.11,43.11,0,0,1-17.88,3.51c-3.27-.07-6.6.17-9.86-.11s-6.5-1.41-9.73-2.4a54.48,54.48,0,0,1-8.06-2.7c-1.44-.7-2.84-1.49-4.3-2.14-1.3-.58-2.72-1-4-1.64a40.72,40.72,0,0,1-6.81-5.28,63.57,63.57,0,0,1-6.53-6.6,34.4,34.4,0,0,1-4.65-6.57c-1.49-2.84-3.29-5.55-4.66-8.45a64.94,64.94,0,0,1-3-9.22,39,39,0,0,1-1.63-9.21,63.12,63.12,0,0,1,2-18.57C163.45,401.43,163.91,400.26,164.3,399Zm4,30.34c.84,2.76,1.36,5.6,2.68,8.19,1.23,2.42,2.73,4.7,4,7.1a42.47,42.47,0,0,0,10,12.13c1.93,1.7,4,3.76,6.28,4.95s5.1,2.2,7.57,3.42c2.67,1.32,5.44,1.85,8.26,2.76a32.09,32.09,0,0,0,10.06,2c3.4,0,6.92.28,10.31.05a49.81,49.81,0,0,0,9.1-1.78,57.12,57.12,0,0,0,8.52-3.36,63.69,63.69,0,0,0,7.39-4.25c2.65-1.68,4.35-4.18,6.68-6.21,1.08-.93,2.22-1.8,3.25-2.78a11.42,11.42,0,0,0,1.86-3.12,2.48,2.48,0,0,1,1.63-1.31c.87-1.22,1.66-2.47,2.48-3.83A28.56,28.56,0,0,0,272,436a63.79,63.79,0,0,0,1.79-17.19,47.47,47.47,0,0,0-3.15-16.21,64.55,64.55,0,0,0-8.67-15.35,63.24,63.24,0,0,0-12.05-12.62,58,58,0,0,0-15.27-8,61.41,61.41,0,0,0-16.28-3.29,26.8,26.8,0,0,0-3.8-.09,15.19,15.19,0,0,0-3.59,1,35.81,35.81,0,0,1-8.73,1.26c-2.51.17-4.67,1.65-7.09,2.32s-4.11,2.76-6.14,4.35-4,3-6,4.82a65,65,0,0,0-5.4,5.85,18.84,18.84,0,0,0-3.71,5.5c-1.1,2.79-2.51,5.46-3.33,8.35-1.54,5.37-3.19,10.78-3.69,16.37A42.72,42.72,0,0,0,168.3,429.38Z"/><path class="cls-10" d="M200.2,392.11c5.23-4,12.23-7.22,18.87-7.48,7.89-.29,15.49,3.71,21.65,8.19a21.59,21.59,0,0,1,6.87,8.26,45.52,45.52,0,0,1,2.37,5.23,19,19,0,0,1,.65,1.88,4.61,4.61,0,0,1,.12,1c0,.18.06.46.08.62a23.17,23.17,0,0,1,1.53,7,28.91,28.91,0,0,1-1.17,9.39,50.18,50.18,0,0,1-4,8.7,32.68,32.68,0,0,1-6.6,8.45,28.06,28.06,0,0,1-8.46,5.43c-3.35,1.33-6.85,1-10.39,1a36,36,0,0,1-18.93-6.08,32.74,32.74,0,0,1-6.8-6.55,23.3,23.3,0,0,1-5-8.45,41.4,41.4,0,0,1-.55-20.42A27.33,27.33,0,0,1,200.2,392.11ZM195,422a22.92,22.92,0,0,0,2.6,8.18,34.93,34.93,0,0,0,5.13,6.38c3.65,3.65,9,5.84,13.89,7a36.41,36.41,0,0,0,8.72.65,12.82,12.82,0,0,0,8.3-2.47,31.36,31.36,0,0,0,7.11-7.25,75.09,75.09,0,0,0,4.3-8.13,20.28,20.28,0,0,0,1.7-8.54,16,16,0,0,0-.87-5.12l-.12-.16a4.17,4.17,0,0,1-.48-1.55l-.75-2a2.47,2.47,0,0,1-.1-1.57c-.21-.48-.42-.94-.6-1.33-1.17-2.56-2.39-5.29-4.46-7.27A31.73,31.73,0,0,0,224.66,391a19.26,19.26,0,0,0-8.44-.37,31.25,31.25,0,0,0-8.27,3.28c-4.8,2.63-9,6.2-11,11.47A35.16,35.16,0,0,0,195,422Z"/><path class="cls-10" d="M393.82,265.18c-.38-7.49,0-15-.49-22.52-.42-6.69-.51-13.32-.48-20,0-1.54-.16-3.08-.1-4.61a28.85,28.85,0,0,1,.57-3.47c.44-2.84-.83-5.36-2.43-7.63-1.37-1.94-3.27-4.93-5.85-5.2a4.27,4.27,0,0,0-4.53,4.35c-.12,3.23.35,6.51.41,9.74s0,6.48,0,9.72a101.45,101.45,0,0,1-.26,10.32c-.24,2.41-.44,5.26,1.27,7.21a7.29,7.29,0,0,0,5.13,2.57,3.35,3.35,0,0,0,.8-.12c0,.5,0,1,0,1.5,0,5-.24,10,0,15,.06,1.2.29,2.39.32,3.6a8.45,8.45,0,0,0-.12,1.6c-.82-.16-2.38.43-3,.44a7,7,0,0,1-1.86-.28c-.78-3.82-1.65-7.63-2.67-11.44-1.13-4.2-2.11-8.44-3.15-12.67-1-4.07-2.31-8-3.3-12.12a231.08,231.08,0,0,0-7.11-25c-3-8.22-6.67-16.2-9.64-24.43-1.46-4.05-2.67-8.14-4.49-12.05s-4.05-7.47-5.76-11.36c-1.55-3.53-3.22-7-4.91-10.42s-4.42-5.94-7.5-8.27a29.91,29.91,0,0,0-10.28-5.39c-4.1-1.2-8.33-3.11-12.62-2.76-5.77.48-11.66-.36-17.45-.43s-11.74.05-17.61.07c-3.43,0-6.85.06-10.26.33s-7,.08-10.46.11c-6.38.05-12.73.49-19.12.5-11.82,0-23.65.16-35.46,0-5.81-.1-11.53,0-17.32.41-5.4.43-10.26,1.31-14.68,4.67-3.88,2.94-8.48,6.84-9.92,11.7-1.53,5.2-1,11-1.09,16.3,0,6.14-.19,12.27,0,18.41.08,3.43.29,6.86.42,10.29a37.15,37.15,0,0,0-4.61.12,48.83,48.83,0,0,0-5.27-.06c-3,.33-7.09-.09-9.21,2.6-2,2.52-2.41,7.1-2.09,10.18.41,4.05.5,8.13.92,12.18a75.09,75.09,0,0,1,.24,9.81h-2.05c-.44,0-.88,0-1.32,0a4.86,4.86,0,0,0-.55-.08,19.16,19.16,0,0,0-5.13,0c-.78.08-1.54,0-2.33,0a22,22,0,0,1-2.27.28c-.52-.08-1.52-.26-2.29-.36a11.46,11.46,0,0,0-1.17-.06c0-5.11,0-10.22,0-15.33,0-3.31-.6-6.54-.61-9.84,0-3.95,0-7.9,0-11.85q0-20.49,0-41c0-6.79-.45-13.53-.6-20.31-.08-3.44,0-6.88,0-10.32,0-3-.35-5.87-.56-8.82-.25-3.51-.09-7.08-.09-10.6,0-3.3-.1-6.62.15-9.92a76.63,76.63,0,0,0,.33-10.82,64,64,0,0,1-.27-9.39,81.53,81.53,0,0,0,.63-9.88,69.16,69.16,0,0,1,0-9.44c.35-3.25,1.42-6.37,1.67-9.64.19-2.64.12-5.31.08-8,2.52.32,5.06.51,7.32-.61,3.46-1.7,2.83-5.91,2.81-9.12,0-4.52,0-9,0-13.55,0-2.12,0-4.24,0-6.35,0-1.91,1-3.49.46-5.42a2.74,2.74,0,0,0-2-1.95l-.54-.08c-.11,0-.21,0-.32,0a2.89,2.89,0,0,0-1.69-.73C125-4.83,122.07-6,118.64-5.69c-3.18.25-6.24.61-9.44.61-7.09,0-14.17.13-21.26.13-5.42,0-10.71-.71-16.06-1.2-.58,1.8-1.17,3.6-1.75,5.41C76.6-.27,82.88.69,89.41.64Q99.67.55,109.93.52c3.15,0,6.22-.55,9.36-.67,2.65-.11,5.19.65,7.79,1.06,0,0,0,.09,0,.14a12.17,12.17,0,0,0-.16,2.89c0,1.83,0,3.66,0,5.48V20.61c0,1.85,0,3.7,0,5.55,0,.16-.06,1-.07,1.53a24.25,24.25,0,0,1-3.82.08c-1.8-.21-3.57-.53-5.38-.57-.12,0-.22,0-.34,0A75.62,75.62,0,0,0,101.53,26c-6,.12-12-.53-18-.66s-12.19-.05-18.28,0c-1.12,0-2.24,0-3.36,0-.58,1.86-1.15,3.72-1.73,5.58.81,0,1.61.05,2.42.06,6,.05,12-.15,18.08-.09s12.15.79,18.22.75,11.55-.08,17.4,1.05a4.63,4.63,0,0,0,.51,0,60.25,60.25,0,0,1-.29,10.15c-.56,3.57-1.53,6.93-1.6,10.57-.08,3.44.3,6.87.21,10.31-.1,3.83-.87,7.49-.68,11.36A97.62,97.62,0,0,1,114.73,86c-.21,3.31-.53,6.58-.53,9.9,0,6.45-.06,12.82.48,19.25.57,6.71,0,13.48.43,20.21.43,6.54.35,13.07.35,19.62,0,13.83,0,27.65,0,41.48a92.47,92.47,0,0,0,.16,10.13,79.69,79.69,0,0,1,.44,9.27c0,4.79,0,9.58,0,14.37a2.84,2.84,0,0,0-.31,1.2c-.26,7.91.3,15.85.32,23.76,0,7.23-.29,14.62-.81,21.83-.27,3.66-.08,7.31-.14,11-.06,3.51-.46,6.94-.28,10.47,0,.89.11,1.77.16,2.66a2.73,2.73,0,0,0-.2,1,61.92,61.92,0,0,1-1.16,9.51,46.48,46.48,0,0,0-.13,8.34c.17,6.19,0,12.4,0,18.59v9.25a37.09,37.09,0,0,1-.43,8.23c-.59,2.69.24,5.33-.18,8-.14.91-.42,1.77-.58,2.67-2.23.14-4.45.38-6.7.53-1.63.11-3.25-.15-4.89,0s-3.13.5-4.71.6c-6.95.4-14-.28-21-.16-3.41.06-6.68.64-10,.83a63.73,63.73,0,0,1-10-.28c-6.74-.69-13.3.37-20.05.5-8.27.15-16.56,0-24.84-.11.18,1.84.39,3.68.59,5.51,11,.22,22.21.94,33.15-.25a44.21,44.21,0,0,1,9.48-.24c2.79.29,5.53.44,8.34.47,3,0,5.81-.47,8.78-.7s6.1-.17,9.13-.16c6.16,0,12.61.77,18.72-.08,2.95-.41,5.88-.12,8.82-.51,1.73-.24,3.47-.35,5.21-.42,0,.24.06.48.1.72a74,74,0,0,1,.39,10c0,1.68,0,3.36,0,5s-.36,3.25-.51,4.88-.53,3.27-.7,4.92a14.28,14.28,0,0,0,0,2.26c-2.44-.22-5,.15-7.42.15-5.14,0-10.25.73-15.37.68-5.3-.05-10.51.62-15.79,1s-10.36.26-15.54.26c-9.4,0-18.81.08-28.2-.28-5-.2-10-.5-15-.76.31,1.86.63,3.71,1,5.57,6.2.34,12.4.77,18.61.93,9.26.23,18.52.14,27.78.14s18.43-1.23,27.67-1.22c4.53,0,9-.69,13.6-.69,1.91,0,3.79,0,5.7-.13,1.37-.08,3-.31,4.3.39,2.37,1.33,4.55-1.1,4.14-3.12a24.11,24.11,0,0,0,.07-3.9,33.23,33.23,0,0,1,.58-4.19c.17-1.4.33-2.78.45-4.16,1,.05,1.95,0,2.82.12,2.18.22,5,.77,7.46,1,1.22.12,2.46-.13,3.68,0,1.37.19,2.7.58,4.1.7a38.91,38.91,0,0,0,4.32,0c-.84,6.61-1.29,13.31-1.9,19.89-.44,4.72-.55,9.44-1,14.15-.43,4.32.76,8.65.88,13,.11,3.73,0,8.83,4.57,9.85,1.87.41,3.79.36,5.68.83,1.57.39,3.27.6,4.65-.42a2.92,2.92,0,0,0,1-3.83c-2.46-5.72-1.16-11.56-1.13-17.58,0-3.1.39-6.18.36-9.27s0-6.38.27-9.57.77-6.41.55-9.57c-.23-3.32-.22-6.58-.22-9.91,0-2.88-.07-5.78,0-8.66a11,11,0,0,0-.5-4.49c0-.29.1-.58.13-.88a12.17,12.17,0,0,0,0-1.6c0-1,.2-1.14-.49-.28a2.85,2.85,0,0,0,.59-1.23,27.41,27.41,0,0,0,2.63-2.65,54.8,54.8,0,0,1,7.1-7.95c5.79-5,12-10.15,16.44-16.4l1.51,0h8.7c5.67,0,11.39.26,17.05,0s11.08-1.06,16.61-1.11c2.67,0,5.33.19,8,.14,2.33,0,4.64-.41,7-.48a49.72,49.72,0,0,1,15.3,2.31c1.25.37,2.61.5,3.82,1s2.17,1.19,3.27,1.72a68.11,68.11,0,0,1,6.64,3.27c4.44,2.72,8.81,5.24,12.14,9.34s4.5,8.58,6.3,13.34a67.37,67.37,0,0,1,2,7.75c.29,1.16.54,2.3.73,3.45l-.06.26a59.84,59.84,0,0,0-.07,7,35.14,35.14,0,0,0,.3,6.48c.4,2.57.67,5,.83,7.65a19.66,19.66,0,0,0,1.19,6.22c3.59,8.87,15.32,9.25,23.33,9.82,4.62.33,9.16.87,13.79.85,2.64,0,5.3-.07,7.94,0,1.67.05,3.42.51,5.05.1a4.38,4.38,0,0,0,1.27,1.34c1.4.93,3.14.84,4.74.89,1.89.07,3.74.47,5.63.52a39.71,39.71,0,0,0,11.4-1,26.39,26.39,0,0,0,9.81-4.63c6.18-4.81,7.66-11.86,10.16-18.89,2.61-7.3,3.27-15.44,3.44-23.15.08-3.68.54-7.46-.47-11.06a6.48,6.48,0,0,0-2.4-3.46s0,0,0-.06a3.31,3.31,0,0,0-.15-.8c-.19-.1-.37-.2-.57-.29a.84.84,0,0,1-.31-.19.9.9,0,0,1-.36-.39,1.45,1.45,0,0,1-.15-1.08s.05-.08.07-.13a25.2,25.2,0,0,1,.35-3.09,57.85,57.85,0,0,0,.83-6.44c.4-4.94,1.07-9.85,1.33-14.81.53-10,1.06-20,.92-30a224,224,0,0,0-1.55-26.4c-.39-3-.86-5.91-1.36-8.84a8.43,8.43,0,0,0,1.59,0,25.4,25.4,0,0,0,4.19-.37C393.23,271.86,394,268,393.82,265.18ZM165.06,353.77c-.54.45-1.05.93-1.57,1.4l-.3-.22c-.87-1.69-3.36-2.28-4.55-.92-1.22.05-2.55-.16-3.72-.16-1.94,0-3.87,0-5.81-.06-3.69-.14-7.37-.55-11.06-.57a51.63,51.63,0,0,1-10.76-.74,53.89,53.89,0,0,0-8.05-1.06c0-1.66-.08-3.33-.08-5v-8.82c0-5.07.1-10.16,0-15.24a2.82,2.82,0,0,0,1.36-.42h1a2.75,2.75,0,0,0,.52,0l.1,0a31.22,31.22,0,0,0,6,.29,3.42,3.42,0,0,0,.46,0,12.71,12.71,0,0,0,3.49.37c1.46.07,2.9.34,4.36.36,3.29.06,6.57-.36,9.87-.35,1.45,0,2.83-.25,4.27-.34a27.25,27.25,0,0,0,4-.32c2.53-.55,3.65-2.5,3.71-5,0-.85-.19-1.73-.12-2.58,0-.16.21-.59.38-1.07a12.19,12.19,0,0,1,1.91,0c1.21,0,2.43.19,3.64.33,0,3.3-.18,6.6,0,9.91.36,6.87-.58,15,4.51,20.44a7.64,7.64,0,0,0,4.29,2.29A71,71,0,0,1,165.06,353.77Zm126.69,19.56c-1-2.84-1.93-5.71-3.1-8.47a28.76,28.76,0,0,0-4.63-6.95c-3.38-4.08-7.83-6.7-12.29-9.46a74.76,74.76,0,0,0-7.37-3.72,32.07,32.07,0,0,0-6.05-2.69,130.91,130.91,0,0,0-15.47-2.91,39.47,39.47,0,0,0-8.2.17,74.72,74.72,0,0,1-7.92,0,163.93,163.93,0,0,0-16.57.89c-5.59.45-11.25.19-16.86.19h-9a70.21,70.21,0,0,0-7.54,0c-4.59.51-5.49-1.73-6.34-6.2a31.47,31.47,0,0,1-.22-4.86c-.08-3-.54-6-.48-9s.17-6.32.05-9.47c-.12-2.92-.67-5.75-.58-8.68.18-6.38-.36-12.75-.32-19.14s-1.12-13-1.07-19.48c0-5.72-.34-11.44-.6-17.16-.25-5.56-.59-11-1.25-16.54s-.3-11.13-.71-16.72c-.22-2.89-.87-5.75-.88-8.64,0-2.6.16-5.18.11-7.78-.11-5.8-.53-11.59-.57-17.4,0-6,.13-12,.12-17.94a61.48,61.48,0,0,1,.35-8.37,11.48,11.48,0,0,1,2.62-6.09c3-3.77,7.32-7.37,12.13-8.43a59.47,59.47,0,0,1,8.33-.8c2.61-.19,5.23-.23,7.84-.22,5.75,0,11.49.15,17.23.15s11.57-.22,17.37-.07c5.49.14,11.06.2,16.56,0,11.27-.36,22.54-.86,33.83-.94,10.44-.08,21-.41,31.36.87a30.72,30.72,0,0,1,4.59.42,3.21,3.21,0,0,0,.7-.24l2.43.77c2,.66,4.23,1.1,6.23,1.88a26.14,26.14,0,0,1,5.6,3.56,22.11,22.11,0,0,1,4.82,4.38,32.42,32.42,0,0,1,2.5,4.87c.94,1.88,1.92,3.71,2.76,5.64,1.86,4.28,4.14,8.3,6.18,12.49A114.76,114.76,0,0,1,352,183.16c1.4,3.88,3,7.69,4.53,11.5a247.72,247.72,0,0,1,8.7,23.64c1.2,4,2.17,8.09,3.05,12.19s2.18,8.08,3.25,12.13c2.15,8.16,4.4,16.4,6.14,24.65a197.9,197.9,0,0,1,3.94,33.26c-2.78-.31-5.6-.8-8.37,0-3.13.83-4,2.74-4.68,5.7-1.53,6.94-1.68,14.32-1.71,21.39,0,3.91,0,7.82-.09,11.73-.1,3.76.06,7.57-.23,11.32-.26,3.47-.8,6.9-1,10.37a18.44,18.44,0,0,1-.55,3.77c-.12.46-.24.9-.33,1.33-1.57.23-3.14.38-4.77.48-1.3.07-2.59.36-3.89.47a20.56,20.56,0,0,0-3.81.6,10.93,10.93,0,0,0-6,3.66,16,16,0,0,0-2.65,6.77c-.07.41-.13.84-.2,1.25-5.37-.22-10.69-.87-16.09-.87-5.87,0-11.84.33-17.7-.07-4.86-.33-11.36-.81-15.68,1.69C293.19,377.77,292.49,375.51,291.75,373.33Zm90.92,2.77c-.1,3.64-.15,7.3-.52,10.93a66.35,66.35,0,0,1-1.7,11.23c-1,3.49-2.3,6.92-3.45,10.36-1.1,3.28-2.44,6.13-5.07,8.45a20.69,20.69,0,0,1-9.11,4.42,33.06,33.06,0,0,1-10.73.69c-1.48-.11-2.93-.43-4.42-.48a8,8,0,0,0-1.35,0v-.15c1.15-2.68-2.31-5.8-4.38-3.24a5.36,5.36,0,0,0-.64,1.05,2.42,2.42,0,0,0-.51.14,5.33,5.33,0,0,1-2.66,0c-1.19-.11-2.39-.11-3.58-.11l-6.68,0c-4.63,0-9.19-.67-13.82-.91-4-.2-8.42-.23-12.11-1.93-1.53-.71-3.55-1.67-4.56-3.07a9.76,9.76,0,0,1-1.41-5c-.15-2.09-.19-4.16-.5-6.23-.6-4-2.66-13.81.84-17.06,2.21-2,6.25-1.69,9.05-1.53,4.32.26,8.56.43,12.89.42s8.91-.08,13.35,0c3.62.07,7.2.57,10.81.81-.05.38-.11.76-.16,1.13a54.48,54.48,0,0,0-.65,7.08s0,0,0,.07v.31c.1,3.6,5.6,3.6,5.6,0a48,48,0,0,1,.57-6.76c.25-2.27.66-4.58,1-6.84.29-1.78.7-4.27,2.08-5.57s3.45-1.51,5.05-1.64A84.5,84.5,0,0,0,370,370.73a55.69,55.69,0,0,1,6.51-1.47c1.85-.25,3.87-.32,5.57.86-.13,0,.25.71.34,1.16A21,21,0,0,1,382.67,376.1Z"/><path class="cls-14" d="M214.6,414.85a8,8,0,0,1,1.9-2.58,6.9,6.9,0,0,1,5.66-2.33,6.7,6.7,0,0,1,4.41,2.12c.11.13.2.28.31.41a6.69,6.69,0,0,1,1.21,1.4,4.12,4.12,0,0,1,.5,3,8.11,8.11,0,0,1-3.47,7.92,6.59,6.59,0,0,1-4.05,1.05,8.34,8.34,0,0,1-4.65-1.92A6.88,6.88,0,0,1,214,420,8.29,8.29,0,0,1,214.6,414.85Z"/><path class="cls-14" d="M209.76,398.18a8.93,8.93,0,0,1,2.38-2.52,8,8,0,0,1,1.81-.94s0,0,.06,0a7.18,7.18,0,0,1,2.69-.82c.77-.18,1.55-.34,2.31-.57a2.83,2.83,0,0,1,3.44,2,2.89,2.89,0,0,1-1.11,3,2.78,2.78,0,0,1-2.22,1.15h-1.56c-.37.09-.73.2-1.1.31-.19.13-.38.26-.56.4-.78.62-1.52,1.27-2.32,1.88l-.66.28a2.14,2.14,0,0,1-1.12,0,2.68,2.68,0,0,1-1.61-.77A2.86,2.86,0,0,1,209.76,398.18Z"/><path class="cls-14" d="M199.79,416.32c0-.15,0-.3,0-.45s0-.13,0-.19a9.15,9.15,0,0,1,.63-2.56,15.28,15.28,0,0,0,.72-2.65,2.79,2.79,0,0,1,1.28-1.67,2.86,2.86,0,0,1,2.16-.28,2.79,2.79,0,0,1,1.67,1.28,3.25,3.25,0,0,1,.29,2.08,2.66,2.66,0,0,1-.29,2c-.16.27-.31.54-.46.81a15,15,0,0,0-.46,1.75.76.76,0,0,0,0,.15,2.83,2.83,0,0,0,0,.29c.33,1.47,1.19,2.71,1.18,4.29a2.83,2.83,0,0,1-1.39,2.42,2.77,2.77,0,0,1-2.82,0c-2-1.4-2.41-4-2.58-6.25,0-.21,0-.43,0-.64S199.78,416.45,199.79,416.32Z"/><path class="cls-14" d="M210.71,430.77a2.8,2.8,0,0,1,3.44-2,3.33,3.33,0,0,1,1.67,1.29l-.35-.46A11.27,11.27,0,0,0,216.7,431a3.37,3.37,0,0,0,.32.19l.41.11a15.74,15.74,0,0,0,2.27-.1,8.34,8.34,0,0,1,3.22.26,2.85,2.85,0,0,1,2,2,2.82,2.82,0,0,1-.72,2.72,6.64,6.64,0,0,1-4.3,1.92,8.41,8.41,0,0,1-4-.95,2.23,2.23,0,0,1-.81-.73,8.12,8.12,0,0,1-2.11-1.27,14.09,14.09,0,0,1-1.89-2.18A2.79,2.79,0,0,1,210.71,430.77Z"/><path class="cls-14" d="M233.55,427l.18-.55a1.88,1.88,0,0,1-.18-.5,2.76,2.76,0,0,1,1.14-3c.11-1.77-.3-3.57.26-5.3a2.87,2.87,0,0,1,2-1.95,2.77,2.77,0,0,1,2.72.72c1.61,1.75,1.68,4.23,1.21,6.44a8.81,8.81,0,0,1-1,2.57,24.36,24.36,0,0,1-.92,3.06,3,3,0,0,1-1.29,1.67,2.79,2.79,0,0,1-4.1-3.16Z"/><path class="cls-14" d="M228.05,400.29a3.37,3.37,0,0,1,.72-1.24,2.84,2.84,0,0,1,2-.82l.42,0a3,3,0,0,1,2,.82,2.13,2.13,0,0,1,.18.22c1.3.86,2.45,1.94,3.66,2.92a11.24,11.24,0,0,0,1.3.86,2.86,2.86,0,0,1,1.28,1.67,2.82,2.82,0,0,1-.28,2.16,2.85,2.85,0,0,1-3.82,1,32.39,32.39,0,0,1-4.47-3.44,10.93,10.93,0,0,0-1.66-1l-.57-.44a2.15,2.15,0,0,1-.58-.9A2.72,2.72,0,0,1,228.05,400.29Z"/><path class="cls-14" d="M187.15,171.83c-.19-4.1-.17-8.31,0-12.4.09-2.76.47-5.82,2.48-7.91,2.71-2.83,6.87-2.56,10.48-2.53s3.6,5.62,0,5.59c-2.75,0-6.48-.79-7.17,2.61-.63,3.13-.23,6.63-.2,9.81,0,3.52.4,6.84.68,10.33.31,3.69-.09,7.32.36,11,.41,3.35-.18,6.74.37,10.07a86.39,86.39,0,0,1,1,10.4c.14,3.76.76,7.44.75,11.2s0,7.79,0,11.69c0,3.6-5.6,3.6-5.6,0,0-4.32,0-8.63,0-13,0-2.2-.43-4.3-.62-6.49-.17-2-.14-4-.25-6-.23-3.85-1.22-7.63-1.14-11.49a48.26,48.26,0,0,0,0-5.64c-.2-1.92-.53-3.81-.54-5.75s.25-4,.08-6.08C187.65,175.49,187.24,173.68,187.15,171.83Z"/><path class="cls-14" d="M196.92,326.59c3.82,0,7.61-.64,11.44-.63,4,0,8.07,0,12.1,0a161.44,161.44,0,0,1,22.71,1.71c3.68.46,7.41.25,11.1.76a48.13,48.13,0,0,1,10.78,3,45.18,45.18,0,0,1,9.38,5c3.13,2.15,6.13,3.8,8.74,6.63s4.92,6.15,7.63,9c2.89,3.07,5,6.74,7.48,10.14,2.11,2.92-2.74,5.72-4.83,2.82s-3.76-5.84-6.07-8.42-4.26-5-6.34-7.53a30,30,0,0,0-8-6.94c-3-1.84-5.77-3.86-9.1-5.2a49.64,49.64,0,0,0-9.52-2.92c-3.57-.64-7.19-.36-10.78-.75-7.16-.77-14.22-1.9-21.45-1.8-4.17.06-8.34.07-12.52.06s-8.48.58-12.74.64C193.32,332.23,193.31,326.64,196.92,326.59Z"/><path class="cls-11" d="M371.47,351.19c.22-1.66.12-3.31.25-5s.42-3.18.43-4.81c0-3,.63-5.85.52-8.82-.11-3.22-.16-6.41-.16-9.63s-.15-6.43,0-9.61a4.21,4.21,0,0,1,3-3.95,2.51,2.51,0,0,1,2.58-.74,4.34,4.34,0,0,1,5.25,3.8,62.15,62.15,0,0,1,.18,12.05c-.28,2.68-1,5.33-1.15,8,0,.76-.1,1.53-.15,2.3a2.4,2.4,0,0,1,1.1,2.19,123.12,123.12,0,0,0-1.42,15.68c0,2.34-.34,5.19-2.21,6.49a3.54,3.54,0,0,1-3.07,2.09c-1.83.2-4.26-.11-5.17-1.92C370.34,357.1,371.15,353.54,371.47,351.19Z"/><path class="cls-11" d="M241,182.6c.17.78,1.77,1.72,2.35,2.32,1,1.05,2,2.18,2.9,3.31,1.94,2.32,4.25,4.33,6.29,6.56,4.34,4.76,9.26,9,13.81,13.58,9.55,9.56,19.07,19.14,29.12,28.18,2.68,2.41-1.29,6.36-4,3.95C281,231.07,271.1,221,261.12,211.05c-4.64-4.65-9.44-9.08-14-13.87-2.24-2.38-4.49-4.71-6.68-7.14-1.65-1.84-4.33-3.4-4.88-5.95C234.85,180.58,240.24,179.08,241,182.6Z"/><path class="cls-11" d="M264.87,192.78a2.82,2.82,0,0,1,4,0,7.28,7.28,0,0,0,1,1l.14.11.91.7c.34.28.64.59,1,.9l.56.51.34.28c.84.67,1.74,1.27,2.53,2s1.56,1.56,2.34,2.34q4.77,4.75,9.76,9.29a2.8,2.8,0,0,1-4,4q-5-4.53-9.76-9.29a46.79,46.79,0,0,0-4.33-3.93c-.81-.62-1.51-1.34-2.28-2-.32-.28,0,0-.24-.19s-.61-.46-.91-.71a7.41,7.41,0,0,1-1-1A2.88,2.88,0,0,1,264.87,192.78Z"/><path class="cls-15" d="M373.47,313.21a2.84,2.84,0,0,1,1.94-2.64,2.65,2.65,0,0,1,2.25-1.21,2.83,2.83,0,0,1,2.79,2.79v.1a2.82,2.82,0,0,1,.57,1.05,31.34,31.34,0,0,1,1,8.5c.12,2.51-.1,5-.11,7.53a4,4,0,0,1-.06.5c0,.18.06.36.1.54.57,2.66-2.61,4.77-4.67,2.72-2.27-2.25-2.64-5.57-3.06-8.57-.24-1.69-.65-3.34-.78-5C373.29,317.39,373.45,315.3,373.47,313.21Z"/><path class="cls-15" d="M377.69,337.87a2.85,2.85,0,0,1,2.8,2.79v14.93a2.8,2.8,0,0,1-5.6,0V340.66A2.83,2.83,0,0,1,377.69,337.87Z"/><path class="cls-11" d="M320.92,357.18a11.16,11.16,0,0,1,.52-1.43c.07-.16.11-.34.17-.51v-.4a2.85,2.85,0,0,1,2.55-2.78,4.65,4.65,0,0,1,2.3-.35l.87.12h.05l.55,0h0a8,8,0,0,0,1-.18c.61-.11,1.23-.21,1.86-.27a23.21,23.21,0,0,1,3-.17c2.08.05,3.93.88,4.69,2.92a7.78,7.78,0,0,1,.33,1.26,2.64,2.64,0,0,1,.25,1.13v1.29a3.09,3.09,0,0,1-.82,2l-.07.05c0,.12,0,.23-.09.35-.85,2.46-3.24,3.23-5.63,3-1.76-.16-3.53-.28-5.29-.45-1-.1-2-.27-3-.41a4.46,4.46,0,0,1-2.64-1.14A4.14,4.14,0,0,1,320.92,357.18Z"/><path class="cls-15" d="M323.48,356.58a3.45,3.45,0,0,1,2.45-2.77,3.85,3.85,0,0,1,2-.1h.16c.23-.06.46-.12.69-.2a7,7,0,0,1,1.69-.31,4.92,4.92,0,0,1,1,.08l.36.05a2.89,2.89,0,0,1,1.17,0,2.68,2.68,0,0,1,1.86.32,2.79,2.79,0,0,1,1.29,1.68,12.94,12.94,0,0,1,.29,2.64,2.88,2.88,0,0,1-.6,1.7,2.62,2.62,0,0,1-1.46,1,17.1,17.1,0,0,1-3.85.21c-1,0-2-.09-3-.07a4.07,4.07,0,0,1-2.85-1A3.69,3.69,0,0,1,323.48,356.58Z"/><path class="cls-10" d="M187.23,369c1.9-.73,4-1,5.88-1.63,2.71-.91,5.26-2.32,7.9-3.43a45.94,45.94,0,0,1,15.51-3.37c5.08-.32,10.35-.05,14.84,2.59a2.52,2.52,0,0,1,1.31,2.63,19.4,19.4,0,0,1,2.41.07c1.79.2,3.54.55,5.32.69.62,0,1.25,0,1.87.05a2.84,2.84,0,0,1,2.2,4.47c3.12.7,6.23,1.45,9.33,2.27,3.47.93,2,6.33-1.49,5.4q-7.22-1.93-14.55-3.42c-1.85-.37-3.7-.87-5.54-1.37a2.71,2.71,0,0,1-1.05.13c-2.29-.15-5-.41-7.15.36-1.91.68-3.4,1.51-5.47,1.61-.34,0-.67,0-1,0s-.86.26-1.3.36c-4.4,1-8.59,0-13-.37-4.72-.36-9.38.51-14.09-.36a1.83,1.83,0,0,1-.33-.11,51.28,51.28,0,0,0-5.06,2.33c-1.67.87-4.48-.17-4.21-2.42C180,371.83,184.2,370.12,187.23,369Z"/></g></svg>